<svg width="590" height="114" viewBox="0 0 590 114" fill="none" xmlns="http://www.w3.org/2000/svg">
<path fill-rule="evenodd" clip-rule="evenodd" d="M569.448 61.5193H590L579.822 71.7752L537.846 114H517.497L569.448 61.5193ZM127.181 49.5493V72.2231H190.67V87.0024H112.402V0H188.992V14.7793H127.181V34.77H179.612L164.833 49.5493H127.181ZM362.827 50.0541L395.744 0H410.523V87.0064H395.744V25.8617H395.41L362.827 74.7352L330.244 25.8617H329.906V87.0064H315.127V0H329.906L362.827 50.0541ZM68.1911 34.9329V0H82.9701V87.0064H68.1911V49.7121H14.779V86.9983H0V0H14.779V34.9329H68.1952H68.1911ZM233.92 0V72.2231H286.994V87.0024H219.141V0H233.92ZM523.653 25.8658H523.319L490.736 74.7392L458.149 25.8658H457.815V87.0064H443.036V0H457.815L490.736 50.0541L523.653 0H538.432V71.7589L523.653 86.5382V25.8658Z" fill="white"/>
</svg>
