<svg width="446" height="406" viewBox="0 0 446 406" fill="none" xmlns="http://www.w3.org/2000/svg">
<path d="M88.7467 183.631L88.2948 183.845L88.4756 184.227L88.8822 184.113L88.7467 183.631ZM84.5649 174.801L84.4014 174.329L83.8743 174.511L84.113 175.015L84.5649 174.801ZM89.6581 168.888L89.1617 168.949L89.1635 168.961L89.6581 168.888ZM68.742 151.875L68.3408 151.577L68.0425 151.978L68.4438 152.276L68.742 151.875ZM75.4905 142.796L75.7888 142.395L75.3875 142.097L75.0892 142.498L75.4905 142.796ZM100.915 166.51L101.413 166.464L101.413 166.46L100.915 166.51ZM96.9863 176.778C94.448 180.192 91.6527 182.294 88.6112 183.15L88.8822 184.113C92.1947 183.18 95.16 180.911 97.7888 177.374L96.9863 176.778ZM89.1986 183.417L85.0168 174.587L84.113 175.015L88.2948 183.845L89.1986 183.417ZM84.7284 175.274C86.6768 174.599 88.178 173.595 89.1876 172.237L88.3851 171.64C87.5238 172.799 86.2107 173.702 84.4014 174.329L84.7284 175.274ZM89.1876 172.237C89.9875 171.16 90.3291 170.013 90.1528 168.815L89.1635 168.961C89.2947 169.853 89.0552 170.738 88.3851 171.64L89.1876 172.237ZM90.1544 168.827C90.0029 167.589 89.3201 166.549 88.1861 165.706L87.5895 166.508C88.5529 167.224 89.0503 168.038 89.1618 168.949L90.1544 168.827ZM88.1861 165.706L69.0403 151.474L68.4438 152.276L87.5895 166.508L88.1861 165.706ZM69.1433 152.173L75.8918 143.095L75.0892 142.498L68.3408 151.577L69.1433 152.173ZM75.1922 143.198L94.4728 157.53L95.0694 156.727L75.7888 142.395L75.1922 143.198ZM94.4728 157.53C98.1452 160.26 100.085 163.273 100.418 166.561L101.413 166.46C101.043 162.807 98.8876 159.565 95.0694 156.727L94.4728 157.53ZM100.417 166.557C100.724 169.849 99.6076 173.251 96.9863 176.778L97.7888 177.374C100.513 173.71 101.748 170.068 101.413 166.464L100.417 166.557Z" fill="#1E1F21"/>
<path d="M133.445 136.817L133.936 136.91L133.936 136.91L133.445 136.817ZM110.036 154.232L109.98 154.729L109.985 154.729L110.036 154.232ZM93.4239 131.901L93.9153 131.993L93.9154 131.993L93.4239 131.901ZM116.833 114.487L116.778 114.984L116.783 114.984L116.833 114.487ZM112.206 143.544L112.112 144.035L112.117 144.036L112.206 143.544ZM122.585 135.823L122.088 135.766L122.087 135.772L122.585 135.823ZM114.63 125.129L114.536 125.62L114.541 125.621L114.63 125.129ZM104.251 132.85L103.754 132.794L103.753 132.799L104.251 132.85ZM132.954 136.725C132.003 141.782 129.256 146.011 124.673 149.42L125.27 150.222C130.033 146.68 132.935 142.239 133.936 136.91L132.954 136.725ZM124.673 149.42C120.09 152.829 115.234 154.256 110.086 153.734L109.985 154.729C115.406 155.279 120.508 153.765 125.27 150.222L124.673 149.42ZM110.091 153.735C104.963 153.163 100.752 150.672 97.4415 146.221L96.6392 146.818C100.103 151.474 104.556 154.124 109.98 154.728L110.091 153.735ZM97.4415 146.221C94.1309 141.771 92.9671 137.038 93.9153 131.993L92.9325 131.808C91.9286 137.15 93.1758 142.163 96.6392 146.818L97.4415 146.221ZM93.9154 131.993C94.8737 126.883 97.6253 122.628 102.207 119.22L101.61 118.417C96.8466 121.961 93.9416 126.428 92.9325 131.809L93.9154 131.993ZM102.207 119.22C106.789 115.811 111.639 114.411 116.778 114.984L116.888 113.99C111.473 113.386 106.374 114.874 101.61 118.417L102.207 119.22ZM116.783 114.984C121.917 115.505 126.129 117.969 129.439 122.418L130.241 121.822C126.777 117.165 122.318 114.54 116.884 113.989L116.783 114.984ZM129.439 122.418C132.749 126.868 133.91 131.627 132.954 136.725L133.936 136.91C134.948 131.518 133.706 126.479 130.241 121.822L129.439 122.418ZM112.117 144.036C114.682 144.498 117.093 143.882 119.321 142.225L118.724 141.422C116.698 142.929 114.564 143.46 112.294 143.052L112.117 144.036ZM119.321 142.225C121.548 140.567 122.818 138.445 123.082 135.874L122.087 135.772C121.855 138.037 120.749 139.915 118.724 141.422L119.321 142.225ZM123.082 135.88C123.376 133.302 122.682 130.893 121.03 128.674L120.228 129.27C121.741 131.304 122.351 133.462 122.088 135.766L123.082 135.88ZM121.03 128.674C119.379 126.454 117.271 125.097 114.718 124.637L114.541 125.621C116.823 126.032 118.715 127.237 120.228 129.27L121.03 128.674ZM114.724 124.638C112.185 124.152 109.788 124.758 107.56 126.415L108.157 127.218C110.182 125.711 112.299 125.192 114.536 125.62L114.724 124.638ZM107.56 126.415C105.332 128.073 104.049 130.204 103.754 132.794L104.747 132.907C105.009 130.615 106.131 128.724 108.157 127.218L107.56 126.415ZM103.753 132.799C103.491 135.354 104.201 137.749 105.85 139.966L106.652 139.369C105.138 137.333 104.514 135.184 104.748 132.901L103.753 132.799ZM105.85 139.966C107.499 142.184 109.59 143.552 112.112 144.035L112.3 143.053C110.047 142.621 108.167 141.406 106.652 139.369L105.85 139.966Z" fill="#1E1F21"/>
<path d="M156.629 132.727L156.819 133.19L157.281 133L157.092 132.538L156.629 132.727ZM146.163 137.019L145.7 137.209L145.89 137.671L146.352 137.482L146.163 137.019ZM131.993 102.459L131.803 101.996L131.34 102.186L131.53 102.649L131.993 102.459ZM142.459 98.1677L142.922 97.978L142.732 97.5154L142.269 97.7051L142.459 98.1677ZM156.439 132.265L145.973 136.556L146.352 137.482L156.819 133.19L156.439 132.265ZM146.625 136.829L132.455 102.269L131.53 102.649L145.7 137.209L146.625 136.829ZM132.182 102.922L142.649 98.6303L142.269 97.7051L131.803 101.996L132.182 102.922ZM141.996 98.3574L156.166 132.917L157.092 132.538L142.922 97.978L141.996 98.3574Z" fill="#1E1F21"/>
<path d="M198.756 124.947L198.826 125.442L199.321 125.371L199.251 124.876L198.756 124.947ZM188.001 126.482L187.642 126.831L187.819 127.013L188.071 126.977L188.001 126.482ZM171.688 109.691L172.047 109.342L170.976 108.24L171.193 109.761L171.688 109.691ZM174.363 128.429L174.433 128.924L174.928 128.853L174.858 128.358L174.363 128.429ZM163.164 130.027L162.669 130.098L162.74 130.593L163.235 130.522L163.164 130.027ZM157.886 93.05L157.816 92.555L157.321 92.6257L157.391 93.1207L157.886 93.05ZM169.417 91.4041L169.775 91.0542L169.597 90.8733L169.347 90.9091L169.417 91.4041ZM184.78 107.087L184.422 107.437L185.49 108.527L185.275 107.016L184.78 107.087ZM182.279 89.5683L182.208 89.0733L181.713 89.144L181.784 89.639L182.279 89.5683ZM193.478 87.9699L193.973 87.8992L193.902 87.4042L193.407 87.4749L193.478 87.9699ZM198.685 124.452L187.93 125.987L188.071 126.977L198.826 125.442L198.685 124.452ZM188.359 126.134L172.047 109.342L171.33 110.039L187.642 126.831L188.359 126.134ZM171.193 109.761L173.868 128.499L174.858 128.358L172.183 109.62L171.193 109.761ZM174.292 127.934L163.094 129.532L163.235 130.522L174.433 128.924L174.292 127.934ZM163.659 129.957L158.381 92.9793L157.391 93.1207L162.669 130.098L163.659 129.957ZM157.957 93.545L169.488 91.8991L169.347 90.9091L157.816 92.555L157.957 93.545ZM169.06 91.754L184.422 107.437L185.137 106.737L169.775 91.0542L169.06 91.754ZM185.275 107.016L182.774 89.4976L181.784 89.639L184.285 107.157L185.275 107.016ZM182.35 90.0633L193.548 88.4649L193.407 87.4749L182.208 89.0733L182.35 90.0633ZM192.983 88.0405L198.261 125.018L199.251 124.876L193.973 87.8992L192.983 88.0405Z" fill="#1E1F21"/>
<path d="M253.783 134.665L253.982 135.124L253.983 135.124L253.783 134.665ZM226.23 125.07L225.788 125.303L225.79 125.307L226.23 125.07ZM235.384 98.7858L235.583 99.2443L235.583 99.2443L235.384 98.7858ZM262.937 108.381L262.494 108.615L262.497 108.619L262.937 108.381ZM236.293 120.865L235.833 121.063L235.836 121.068L236.293 120.865ZM248.509 125.12L248.277 124.677L248.272 124.679L248.509 125.12ZM252.892 112.533L252.433 112.731L252.435 112.736L252.892 112.533ZM240.676 108.279L240.444 107.836L240.439 107.838L240.676 108.279ZM253.583 134.207C248.866 136.259 243.824 136.36 238.429 134.481L238.1 135.426C243.706 137.378 249.01 137.287 253.982 135.124L253.583 134.207ZM238.429 134.481C233.035 132.603 229.128 129.385 226.67 124.832L225.79 125.307C228.378 130.102 232.495 133.473 238.1 135.426L238.429 134.481ZM226.672 124.836C224.266 120.271 223.964 115.388 225.788 110.15L224.844 109.821C222.935 115.301 223.243 120.474 225.788 125.303L226.672 124.836ZM225.788 110.15C227.612 104.912 230.876 101.292 235.583 99.2443L235.184 98.3273C230.201 100.495 226.752 104.341 224.844 109.821L225.788 110.15ZM235.583 99.2443C240.35 97.1686 245.416 97.057 250.809 98.9352L251.137 97.9909C245.531 96.0382 240.203 96.1418 235.184 98.3274L235.583 99.2443ZM250.809 98.9352C256.202 100.813 260.084 104.041 262.494 108.615L263.379 108.148C260.838 103.328 256.744 99.9435 251.137 97.9909L250.809 98.9352ZM262.497 108.619C264.948 113.16 265.273 118.03 263.45 123.266L264.394 123.595C266.303 118.114 265.971 112.951 263.377 108.144L262.497 108.619ZM263.45 123.266C261.626 128.503 258.34 132.136 253.583 134.207L253.983 135.124C259.012 132.933 262.485 129.076 264.394 123.595L263.45 123.266ZM235.836 121.068C236.894 123.45 238.757 125.099 241.379 126.012L241.708 125.068C239.323 124.237 237.686 122.77 236.75 120.662L235.836 121.068ZM241.379 126.012C244.001 126.925 246.47 126.785 248.746 125.56L248.272 124.679C246.267 125.758 244.092 125.898 241.708 125.068L241.379 126.012ZM248.741 125.562C251.039 124.359 252.643 122.432 253.553 119.82L252.608 119.491C251.775 121.884 250.331 123.601 248.277 124.677L248.741 125.562ZM253.553 119.82C254.463 117.207 254.402 114.701 253.349 112.33L252.435 112.736C253.377 114.855 253.442 117.097 252.608 119.491L253.553 119.82ZM253.352 112.335C252.329 109.961 250.481 108.318 247.859 107.404L247.53 108.349C249.914 109.179 251.532 110.639 252.433 112.731L253.352 112.335ZM247.859 107.404C245.237 106.491 242.753 106.626 240.444 107.836L240.908 108.721C242.951 107.651 245.146 107.518 247.53 108.349L247.859 107.404ZM240.439 107.838C238.178 109.055 236.594 110.987 235.685 113.597L236.63 113.926C237.464 111.529 238.893 109.806 240.913 108.719L240.439 107.838ZM235.685 113.597C234.776 116.207 234.817 118.705 235.833 121.063L236.752 120.667C235.844 118.56 235.795 116.323 236.63 113.926L235.685 113.597Z" fill="#1E1F21"/>
<path d="M288.128 161.645L288.165 162.144L288.168 162.144L288.128 161.645ZM266.686 144.254L266.191 144.318L266.191 144.325L266.686 144.254ZM284.277 115.187L284.592 114.799L284.204 114.484L283.889 114.872L284.277 115.187ZM293.193 122.419L293.582 122.734L293.897 122.345L293.508 122.03L293.193 122.419ZM278.041 143.946L277.543 143.99L277.543 143.998L277.544 144.005L278.041 143.946ZM286.043 150.436L285.992 149.939L286.043 150.436ZM304.023 131.202L304.338 130.814L303.95 130.499L303.635 130.887L304.023 131.202ZM312.939 138.434L313.327 138.749L313.642 138.36L313.254 138.046L312.939 138.434ZM288.092 161.147C284.024 161.444 279.663 159.759 274.993 155.972L274.363 156.748C279.145 160.627 283.751 162.466 288.165 162.144L288.092 161.147ZM274.993 155.972C270.323 152.184 267.759 148.252 267.181 144.184L266.191 144.325C266.817 148.731 269.58 152.869 274.363 156.748L274.993 155.972ZM267.182 144.19C266.653 140.101 267.843 136.244 270.802 132.595L270.026 131.965C266.918 135.797 265.622 139.922 266.191 144.318L267.182 144.19ZM270.802 132.595L284.666 115.502L283.889 114.872L270.026 131.965L270.802 132.595ZM283.962 115.576L292.878 122.807L293.508 122.03L284.592 114.799L283.962 115.576ZM292.805 122.104L279.189 138.892L279.965 139.522L293.582 122.734L292.805 122.104ZM279.189 138.892C277.939 140.433 277.378 142.139 277.543 143.99L278.539 143.901C278.4 142.333 278.863 140.88 279.965 139.522L279.189 138.892ZM277.544 144.005C277.768 145.874 278.833 147.539 280.642 149.006L281.272 148.23C279.601 146.875 278.722 145.425 278.537 143.886L277.544 144.005ZM280.642 149.006C282.423 150.451 284.246 151.127 286.095 150.934L285.992 149.939C284.48 150.097 282.912 149.56 281.272 148.23L280.642 149.006ZM286.095 150.934C287.97 150.738 289.542 149.85 290.795 148.306L290.018 147.676C288.919 149.031 287.583 149.773 285.992 149.939L286.095 150.934ZM290.795 148.306L304.411 131.517L303.635 130.887L290.018 147.676L290.795 148.306ZM303.708 131.591L312.624 138.822L313.254 138.046L304.338 130.814L303.708 131.591ZM312.551 138.119L298.723 155.168L299.499 155.798L313.327 138.749L312.551 138.119ZM298.723 155.168C295.739 158.847 292.198 160.82 288.089 161.147L288.168 162.144C292.588 161.793 296.369 159.658 299.499 155.798L298.723 155.168Z" fill="#1E1F21"/>
<path d="M310.054 200.912L309.63 201.178L310.066 201.871L310.484 201.167L310.054 200.912ZM303.195 190.01L302.781 189.729L302.597 190L302.771 190.276L303.195 190.01ZM310.405 179.387L310.819 179.668L311.002 179.397L310.828 179.121L310.405 179.387ZM308.228 175.927L308.651 175.661L308.385 175.237L307.962 175.504L308.228 175.927ZM298.274 182.189L297.851 182.456L298.117 182.879L298.54 182.612L298.274 182.189ZM292.25 172.615L291.984 172.191L291.561 172.458L291.827 172.881L292.25 172.615ZM323.866 152.724L324.289 152.458L324.023 152.034L323.599 152.301L323.866 152.724ZM336.602 179.908L336.117 179.786L336.115 179.794L336.602 179.908ZM323.644 189.914L323.675 189.415L323.669 189.414L323.644 189.914ZM317.631 188.139L317.894 187.714L317.461 187.446L317.201 187.884L317.631 188.139ZM322.256 178.348L322.057 178.807L322.065 178.811L322.073 178.814L322.256 178.348ZM325.953 176.022L325.455 175.986L325.454 175.994L325.454 176.003L325.953 176.022ZM321.547 167.547L321.97 167.281L321.704 166.858L321.281 167.124L321.547 167.547ZM316.57 170.678L316.304 170.255L315.881 170.521L316.147 170.945L316.57 170.678ZM310.477 200.646L303.618 189.744L302.771 190.276L309.63 201.178L310.477 200.646ZM303.608 190.291L310.819 179.668L309.991 179.106L302.781 189.729L303.608 190.291ZM310.828 179.121L308.651 175.661L307.805 176.193L309.982 179.653L310.828 179.121ZM307.962 175.504L298.008 181.766L298.54 182.612L308.494 176.35L307.962 175.504ZM298.697 181.923L292.673 172.348L291.827 172.881L297.851 182.456L298.697 181.923ZM292.517 173.038L324.132 153.147L323.599 152.301L291.984 172.191L292.517 173.038ZM323.442 152.99L334.059 169.864L334.905 169.332L324.289 152.458L323.442 152.99ZM334.059 169.864C336.251 173.349 336.909 176.646 336.117 179.786L337.087 180.031C337.961 176.565 337.206 172.989 334.905 169.332L334.059 169.864ZM336.115 179.794C335.366 182.97 333.513 185.496 330.518 187.38L331.051 188.226C334.25 186.214 336.275 183.476 337.089 180.023L336.115 179.794ZM330.518 187.38C328.119 188.889 325.841 189.55 323.675 189.415L323.613 190.413C326.038 190.564 328.521 189.818 331.051 188.226L330.518 187.38ZM323.669 189.414C321.467 189.306 319.547 188.735 317.894 187.714L317.368 188.564C319.181 189.685 321.269 190.297 323.619 190.413L323.669 189.414ZM317.201 187.884L309.624 200.657L310.484 201.167L318.061 188.394L317.201 187.884ZM319.815 176.775C320.414 177.726 321.158 178.417 322.057 178.807L322.455 177.89C321.777 177.596 321.176 177.06 320.661 176.242L319.815 176.775ZM322.073 178.814C323.058 179.201 324.045 179.071 324.985 178.479L324.452 177.633C323.749 178.075 323.095 178.141 322.439 177.883L322.073 178.814ZM324.985 178.479C325.9 177.903 326.413 177.081 326.453 176.042L325.454 176.003C325.427 176.681 325.117 177.215 324.452 177.633L324.985 178.479ZM326.452 176.059C326.526 175.055 326.241 174.069 325.638 173.111L324.792 173.643C325.303 174.455 325.51 175.232 325.455 175.986L326.452 176.059ZM325.638 173.111L321.97 167.281L321.124 167.813L324.792 173.643L325.638 173.111ZM321.281 167.124L316.304 170.255L316.837 171.101L321.813 167.97L321.281 167.124ZM316.147 170.945L319.815 176.775L320.661 176.242L316.993 170.412L316.147 170.945Z" fill="#1E1F21"/>
<path d="M318.133 240.613L317.638 240.681L317.707 241.177L318.202 241.108L318.133 240.613ZM316.575 229.408L316.507 228.913L316.011 228.982L316.08 229.477L316.575 229.408ZM343.81 225.622L343.878 226.118L344.374 226.049L344.305 225.553L343.81 225.622ZM342.429 215.694L342.36 215.199L341.865 215.267L341.934 215.763L342.429 215.694ZM352.191 214.337L352.687 214.268L352.618 213.773L352.123 213.841L352.191 214.337ZM356.502 245.343L356.571 245.838L357.066 245.769L356.997 245.274L356.502 245.343ZM346.74 246.7L346.244 246.768L346.313 247.264L346.808 247.195L346.74 246.7ZM345.367 236.827L345.862 236.758L345.794 236.262L345.298 236.331L345.367 236.827ZM318.628 240.544L317.071 229.339L316.08 229.477L317.638 240.681L318.628 240.544ZM316.644 229.904L343.878 226.118L343.741 225.127L316.507 228.913L316.644 229.904ZM344.305 225.553L342.925 215.625L341.934 215.763L343.314 225.691L344.305 225.553ZM342.498 216.189L352.26 214.832L352.123 213.841L342.36 215.199L342.498 216.189ZM351.696 214.406L356.007 245.411L356.997 245.274L352.687 214.268L351.696 214.406ZM356.433 244.847L346.671 246.204L346.808 247.195L356.571 245.838L356.433 244.847ZM347.235 246.631L345.862 236.758L344.872 236.895L346.244 246.768L347.235 246.631ZM345.298 236.331L318.064 240.117L318.202 241.108L345.436 237.322L345.298 236.331Z" fill="#1E1F21"/>
<path d="M314.754 282.659L314.258 282.592L314.191 283.087L314.687 283.154L314.754 282.659ZM318.558 254.58L318.625 254.084L318.13 254.017L318.063 254.512L318.558 254.58ZM355.572 259.594L356.067 259.661L356.134 259.166L355.639 259.099L355.572 259.594ZM351.768 287.674L351.7 288.169L352.196 288.236L352.263 287.741L351.768 287.674ZM342.001 286.351L341.505 286.283L341.438 286.779L341.934 286.846L342.001 286.351ZM344.286 269.481L344.782 269.548L344.849 269.052L344.353 268.985L344.286 269.481ZM340.624 268.984L340.691 268.489L340.195 268.422L340.128 268.917L340.624 268.984ZM338.391 285.466L338.324 285.961L338.819 286.028L338.886 285.533L338.391 285.466ZM328.624 284.143L328.129 284.075L328.061 284.571L328.557 284.638L328.624 284.143ZM330.857 267.661L331.353 267.728L331.42 267.233L330.924 267.166L330.857 267.661ZM326.806 267.112L326.873 266.617L326.378 266.55L326.311 267.045L326.806 267.112ZM324.52 283.982L324.453 284.478L324.949 284.545L325.016 284.049L324.52 283.982ZM315.249 282.726L319.053 254.647L318.063 254.512L314.258 282.592L315.249 282.726ZM318.491 255.075L355.505 260.09L355.639 259.099L318.625 254.084L318.491 255.075ZM355.076 259.527L351.272 287.607L352.263 287.741L356.067 259.661L355.076 259.527ZM351.835 287.178L342.068 285.855L341.934 286.846L351.7 288.169L351.835 287.178ZM342.496 286.418L344.782 269.548L343.791 269.414L341.505 286.283L342.496 286.418ZM344.353 268.985L340.691 268.489L340.557 269.48L344.219 269.976L344.353 268.985ZM340.128 268.917L337.895 285.399L338.886 285.533L341.119 269.052L340.128 268.917ZM338.458 284.97L328.691 283.647L328.557 284.638L338.324 285.961L338.458 284.97ZM329.12 284.21L331.353 267.728L330.362 267.594L328.129 284.075L329.12 284.21ZM330.924 267.166L326.873 266.617L326.739 267.608L330.79 268.157L330.924 267.166ZM326.311 267.045L324.025 283.915L325.016 284.049L327.302 267.179L326.311 267.045ZM324.588 283.487L314.821 282.163L314.687 283.154L324.453 284.478L324.588 283.487Z" fill="#1E1F21"/>
<path d="M296.891 321.952L296.438 321.741L296.136 322.392L296.851 322.45L296.891 321.952ZM302.294 310.321L302.362 309.826L301.996 309.776L301.841 310.111L302.294 310.321ZM306.822 310.943L306.754 311.438L307.12 311.488L307.275 311.154L306.822 310.943ZM312.484 298.754L312.938 298.965L313.093 298.63L312.819 298.383L312.484 298.754ZM309.089 295.695L308.636 295.484L308.48 295.819L308.755 296.066L309.089 295.695ZM314.492 284.064L314.847 283.712L314.341 283.203L314.039 283.854L314.492 284.064ZM342.563 312.295L343.017 312.506L343.164 312.19L342.918 311.943L342.563 312.295ZM336.57 325.195L336.53 325.693L336.877 325.722L337.024 325.406L336.57 325.195ZM317.035 312.353L316.581 312.142L316.296 312.756L316.966 312.848L317.035 312.353ZM329.511 314.074L329.443 314.569L331.056 314.791L329.845 313.702L329.511 314.074ZM320.149 305.649L320.483 305.277L319.98 304.825L319.695 305.438L320.149 305.649ZM297.345 322.162L302.748 310.532L301.841 310.111L296.438 321.741L297.345 322.162ZM302.226 310.817L306.754 311.438L306.89 310.448L302.362 309.826L302.226 310.817ZM307.275 311.154L312.938 298.965L312.031 298.543L306.368 310.732L307.275 311.154ZM312.819 298.383L309.424 295.323L308.755 296.066L312.15 299.125L312.819 298.383ZM309.543 295.905L314.946 284.275L314.039 283.854L308.636 295.484L309.543 295.905ZM314.138 284.417L342.209 312.648L342.918 311.943L314.847 283.712L314.138 284.417ZM342.11 312.085L336.117 324.984L337.024 325.406L343.017 312.506L342.11 312.085ZM336.611 324.697L296.932 321.453L296.851 322.45L336.53 325.693L336.611 324.697ZM316.966 312.848L329.443 314.569L329.579 313.578L317.103 311.858L316.966 312.848ZM329.845 313.702L320.483 305.277L319.814 306.021L329.176 314.445L329.845 313.702ZM319.695 305.438L316.581 312.142L317.488 312.564L320.602 305.86L319.695 305.438Z" fill="#1E1F21"/>
<path d="M263.896 353.805L263.546 353.448L263.189 353.798L263.539 354.155L263.896 353.805ZM271.978 345.89L272.335 345.541L271.985 345.183L271.628 345.533L271.978 345.89ZM287.69 361.934L287.333 362.284L288.147 361.73L287.69 361.934ZM277.939 340.052L277.589 339.695L277.341 339.938L277.483 340.256L277.939 340.052ZM281.54 336.526L281.753 336.073L281.438 335.925L281.19 336.168L281.54 336.526ZM303.214 346.731L303.001 347.183L303.571 346.381L303.214 346.731ZM287.501 330.687L287.151 330.33L286.794 330.68L287.144 331.037L287.501 330.687ZM295.583 322.772L295.94 322.422L295.59 322.065L295.233 322.415L295.583 322.772ZM321.718 349.458L322.068 349.815L322.425 349.465L322.075 349.108L321.718 349.458ZM310.556 360.39L310.34 360.841L310.656 360.992L310.906 360.747L310.556 360.39ZM293.336 352.172L293.552 351.721L292.317 351.132L292.881 352.378L293.336 352.172ZM301.194 369.559L301.544 369.916L301.793 369.672L301.649 369.353L301.194 369.559ZM290.031 380.491L289.674 380.841L290.024 381.198L290.381 380.848L290.031 380.491ZM264.246 354.163L272.328 346.248L271.628 345.533L263.546 353.448L264.246 354.163ZM271.621 346.24L287.333 362.284L288.048 361.584L272.335 345.541L271.621 346.24ZM288.147 361.73L278.396 339.849L277.483 340.256L287.234 362.137L288.147 361.73ZM278.289 340.409L281.89 336.883L281.19 336.168L277.589 339.695L278.289 340.409ZM281.327 336.978L303.001 347.183L303.427 346.278L281.753 336.073L281.327 336.978ZM303.571 346.381L287.858 330.337L287.144 331.037L302.856 347.081L303.571 346.381ZM287.851 331.045L295.933 323.13L295.233 322.415L287.151 330.33L287.851 331.045ZM295.226 323.122L321.361 349.808L322.075 349.108L295.94 322.422L295.226 323.122ZM321.368 349.101L310.206 360.033L310.906 360.747L322.068 349.815L321.368 349.101ZM310.771 359.939L293.552 351.721L293.121 352.623L310.34 360.841L310.771 359.939ZM292.881 352.378L300.738 369.765L301.649 369.353L293.792 351.966L292.881 352.378ZM300.844 369.202L289.682 380.134L290.381 380.848L301.544 369.916L300.844 369.202ZM290.389 380.141L264.253 353.456L263.539 354.155L289.674 380.841L290.389 380.141Z" fill="#1E1F21"/>
</svg>
