<svg width="546" height="276" viewBox="0 0 546 276" fill="none" xmlns="http://www.w3.org/2000/svg">
<path d="M472.085 258.121C471.45 260.522 470.106 262.24 469.118 263.278C466.781 266.702 464.765 276.065 459.74 275.462C443.46 267.069 429.473 255.773 415.382 244.105C411.175 240.532 406.966 236.964 402.754 233.389C399.131 230.713 395.505 228.03 391.882 225.355C387.429 222.271 382.984 219.179 378.535 216.085C374.138 213.022 369.746 209.96 365.357 206.888C362.319 204.341 355.444 201.792 353.968 198.46C353.619 196.688 354.863 194.911 355.52 193.315C354.055 192.581 352.655 191.698 351.251 190.858L351.249 190.863C345.892 187.623 341.026 184.206 335.485 180.963C332.008 177.964 336.945 171.616 339.673 169.256C344.895 167.503 356.775 178.816 362.382 181.175C366.2 174.048 370.07 177.899 375.161 181.188C382.629 186.452 391.615 191.325 399.096 197.003C400.044 197.679 400.992 198.355 401.947 199.027C409.495 204.053 417.592 208.232 424.921 213.544C436.243 221.693 447.346 230.065 458.918 237.888L458.828 237.833C459.115 238.034 459.701 238.446 459.99 238.654L459.897 238.592C463.817 240.364 466.207 242.735 467.477 244.219C468.84 245.83 473.797 251.636 472.085 258.121Z" fill="white"/>
<path d="M160.113 179.588C137.676 146.757 128.411 105.209 145.527 68.0801C153.783 50.1175 168.465 34.9953 184.937 24.012C201.408 13.0288 220.604 6.82611 240.378 6.09812C259.554 5.88064 278.48 10.33 295.519 19.0609C312.557 27.7919 327.193 40.5412 338.16 56.2047C360.821 89.967 355.401 132.413 338.27 166.933C338.138 167.296 337.976 167.853 337.976 168.313C337.976 168.446 338.059 168.79 338.269 168.903C338.328 168.935 338.349 168.903 338.731 168.773C339.109 168.69 339.88 167.831 340.114 167.523C362.175 133.753 365.892 87.7726 342.911 53.694C331.1 36.8122 311.607 23.8252 293.115 14.6802C274.623 5.53515 257.724 0.524957 237.076 1.35458C148.803 6.81719 101.355 113.332 158.463 180.91C159.17 181.886 160.793 180.599 160.113 179.588Z" fill="white"/>
<path d="M155.496 178.151C196.346 245.206 307.66 237.781 341.982 171.395C342.779 169.843 340.496 167.943 339.461 169.36C319.349 195.693 295.77 216.016 260.969 218.605C218.902 221.86 184.62 209.89 157.207 176.829C156.392 175.833 154.834 177.109 155.496 178.151Z" fill="white"/>
<path d="M186.083 190.438C159.614 167.652 146.148 135.045 152.274 99.5425C155.217 82.3723 161.712 65.0825 173.206 51.967C184.7 38.8516 200.739 30.4279 217.356 25.279C233.581 20.7014 250.65 20.1505 267.085 23.674C283.52 27.1975 298.826 34.6892 311.676 45.5004C338.547 69.0275 344.372 103.291 337.643 136.578C337.601 136.786 337.643 137.304 337.643 137.797C337.642 138.135 337.312 141.122 337.642 141.2C337.972 141.278 338.731 139.793 338.731 139.793C338.922 139.693 339.526 137.348 339.654 137.032C350.737 103.254 342.354 65.9992 315.14 42.2765C301.298 30.6224 284.735 22.6584 266.973 19.1157C249.21 15.573 230.817 16.5649 213.481 22.0006C139.801 46.8681 123.631 148.338 187.385 192.738C188.206 193.406 186.888 191.142 186.083 190.438Z" fill="white"/>
<path d="M185.175 186.298C234.986 234.409 324.161 203.052 338.699 137.686C339.034 136.159 338.998 134.095 338.43 135.562C327.114 163.032 311.499 186.143 282.354 196.631C247.151 209.416 215.21 207.229 184.44 185.234C183.522 184.569 184.378 185.558 185.175 186.298Z" fill="white"/>
<path d="M156.506 180.123L158.094 182.217C158.289 182.474 158.689 182.428 158.819 182.132C158.871 182.015 158.866 181.88 158.807 181.766L157.591 179.437C157.554 179.365 157.503 179.301 157.442 179.248C156.857 178.742 156.039 179.506 156.506 180.123Z" fill="white"/>
<path d="M302.8 18.7428L312.459 25.7997L302.041 19.9133C301.92 19.8449 301.822 19.742 301.76 19.6177C301.433 18.9628 302.208 18.3104 302.8 18.7428Z" fill="white"/>
<path d="M217.375 117.737C213.807 129.512 209.666 142.076 205.662 153.9L200.489 149.523C215.925 134.981 233.5 117.876 249.7 104.48L237.29 131.997C232.089 144.409 227.769 152.949 218.775 163.605L218.382 160.057C218.422 154.396 219.872 151.317 219.872 145.457C221.261 139.59 223.286 133.571 225.894 127.556L234.961 135.248C229.649 139.393 224.097 142.581 218.766 146.537C210.28 152.704 199.97 159.893 191.328 165.776C199.099 150.143 207.351 133.963 215.688 118.458L217.375 117.737Z" fill="white"/>
<path d="M189.783 90.7332C191.456 86.2003 193.228 81.673 195.073 77.1312L196.999 78.9667C190.609 84.3092 183.322 90.6065 176.66 95.4821L183.794 82.7769C186.122 78.0323 187.022 77.1312 190.16 73.0232L190.706 73.0912C190.558 75.3096 190.086 77.6754 189.306 80.1113C188.625 82.379 187.691 84.6915 186.529 86.9887L183.154 83.7634C185.333 82.2616 187.583 81.1408 189.765 79.7136C193.235 77.4931 197.444 74.9139 200.968 72.8082C197.558 78.7561 193.946 84.9068 190.317 90.7912L189.783 90.7332Z" fill="white"/>
<rect x="352.07" y="165.851" width="17.0811" height="27.671" transform="rotate(30.3489 352.07 165.851)" fill="#1E1F21"/>
<path d="M364.829 178.809L364.882 178.696M364.829 178.809C364.686 179.07 364.543 179.333 364.4 179.596C364.4 179.597 364.399 179.599 364.398 179.6L364.231 178.94M364.829 178.809L364.403 178.625L364.409 178.613M364.829 178.809L364.415 178.601C364.413 178.605 364.411 178.609 364.409 178.613M364.882 178.696L354.509 195.269C355.467 193.954 356.409 192.628 357.293 191.287C357.864 190.442 358.403 189.577 358.94 188.716C359.258 188.206 359.576 187.696 359.899 187.193M364.882 178.696C365.057 178.369 364.914 177.967 364.555 177.784L364.882 178.696ZM364.231 178.94C364.149 179.091 364.067 179.242 363.985 179.393C363.943 179.469 363.902 179.545 363.861 179.621M364.231 178.94L364.209 178.854L363.994 178.008C364.105 178.066 364.216 178.125 364.327 178.183L364.332 178.186L364.332 178.186C364.493 178.268 364.509 178.412 364.466 178.492L364.461 178.502L364.456 178.513L364.409 178.613M364.231 178.94C364.29 178.831 364.349 178.722 364.409 178.613M363.861 179.621L364.237 179.898C363.663 180.954 363.082 182.015 362.466 183.054M363.861 179.621C363.275 180.699 362.688 181.775 362.063 182.829M363.861 179.621L363.467 179.331C363.361 179.254 363.256 179.176 363.15 179.099M362.466 183.054L359.899 187.193M362.466 183.054L362.06 182.832C362.061 182.831 362.062 182.83 362.063 182.829M362.466 183.054L362.065 182.825L362.063 182.829M359.899 187.193L359.498 186.963L359.5 186.96M359.899 187.193L359.502 186.957C359.501 186.958 359.5 186.959 359.5 186.96M359.5 186.96C359.17 187.474 358.851 187.987 358.532 188.498C357.999 189.353 357.469 190.203 356.902 191.042L356.899 191.047L356.899 191.047C356.353 191.876 355.783 192.7 355.201 193.521M359.5 186.96L362.063 182.829M355.201 193.521L354.272 192.975C353.976 192.801 353.679 192.628 353.382 192.455M355.201 193.521L355.331 193.597L355.12 193.634M355.201 193.521C355.174 193.558 355.147 193.596 355.12 193.634M363.15 179.099C362.353 180.073 361.562 181.045 360.797 182.02M363.15 179.099C363.189 179.052 363.228 179.004 363.267 178.957L352.368 193.191L351.968 193.26L352.044 193.706L352.444 193.937C352.514 193.825 352.584 193.713 352.655 193.601C352.732 193.478 352.809 193.355 352.887 193.233C353.032 193.317 353.177 193.401 353.322 193.485C353.474 193.574 353.626 193.663 353.778 193.752L354.025 193.364L353.949 192.917L353.418 193.009L352.98 193.085C353.031 193.004 353.082 192.924 353.133 192.844C353.216 192.714 353.299 192.585 353.382 192.455M363.15 179.099C363.027 179.008 362.903 178.918 362.779 178.827C361.981 179.801 361.188 180.776 360.421 181.754M360.797 182.02L357.913 185.947M360.797 182.02L360.802 182.014L360.421 181.754M360.797 182.02C360.796 182.022 360.794 182.024 360.793 182.025L360.421 181.754M357.913 185.947C357.56 186.444 357.204 186.927 356.851 187.406C356.245 188.229 355.648 189.039 355.092 189.883L355.092 189.883L355.086 189.892C354.501 190.736 353.935 191.594 353.382 192.455M357.913 185.947C357.914 185.946 357.915 185.945 357.915 185.944L357.53 185.691M357.913 185.947L357.911 185.95L357.53 185.691M353.382 192.455C353.248 192.378 353.115 192.301 352.982 192.225C353.538 191.358 354.108 190.494 354.698 189.643C355.259 188.791 355.87 187.962 356.483 187.13C356.834 186.653 357.187 186.174 357.53 185.691M355.12 193.634L354.101 193.81L352.12 194.153L351.388 194.28M355.12 193.634C354.793 194.094 354.461 194.553 354.128 195.011L354.123 195.018L354.118 195.025L354.073 195.092M351.388 194.28L354.46 195.342M351.388 194.28C351.857 194.601 352.327 194.92 352.797 195.237M351.388 194.28L352.528 195.612M351.388 194.28L351.112 194.327L351.215 194.162M351.388 194.28C351.33 194.24 351.273 194.201 351.215 194.162M354.073 195.092C354.074 195.09 354.075 195.089 354.076 195.088L354.46 195.342M354.073 195.092L354.069 195.098L354.46 195.342M354.073 195.092C353.831 195.424 353.271 195.547 352.797 195.237M354.46 195.342C354.048 195.917 353.182 196.041 352.528 195.612M352.797 195.237C352.798 195.237 352.799 195.238 352.8 195.238L352.528 195.612M352.797 195.237C352.797 195.236 352.796 195.236 352.795 195.235L352.528 195.612M351.215 194.162C349.618 193.067 348.031 191.95 346.476 190.806L346.477 190.806L346.188 191.167L346.475 190.805L346.428 190.77C345.058 189.748 343.689 188.725 342.353 187.663C343.921 188.415 345.462 189.199 347.003 189.992C348.711 190.89 350.411 191.818 352.086 192.773C351.938 193.007 351.79 193.241 351.644 193.476L351.215 194.162ZM360.421 181.754L357.53 185.691M341.176 184.712C342.982 182.751 344.624 180.685 346.198 178.58C346.335 178.392 346.473 178.204 346.61 178.017C347.433 176.89 348.247 175.776 348.991 174.618L348.991 174.618L348.997 174.609C349.66 173.627 350.256 172.599 350.826 171.554C350.652 171.464 350.478 171.375 350.303 171.285L349.707 170.976C348.959 171.888 348.243 172.806 347.601 173.757L347.601 173.757L347.598 173.761C346.68 175.086 345.825 176.452 344.964 177.829C343.596 180.073 342.304 182.339 341.176 184.712ZM350.103 170.498L350.453 170.437L351.756 170.212L351.774 170.209C351.59 170.071 351.405 169.934 351.221 169.798C351.004 169.639 350.77 169.7 350.677 169.816L350.672 169.822L350.667 169.828L350.564 169.947C350.409 170.131 350.255 170.314 350.103 170.498ZM352.743 170.935C352.616 170.839 352.488 170.743 352.361 170.648L352.248 170.861C352.194 170.962 352.14 171.064 352.086 171.166C353.223 171.747 354.37 172.333 355.494 172.957C354.561 172.3 353.648 171.614 352.743 170.935ZM363.202 177.588C362.368 177.143 361.535 176.689 360.71 176.222C361.48 176.752 362.241 177.294 362.994 177.841C363.039 177.786 363.084 177.731 363.129 177.677L363.131 177.675L363.202 177.588Z" fill="white" stroke="white" stroke-width="0.922366"/>
<path d="M355.179 173.184L353.68 172.246L344.089 186.438L345.588 187.376L355.179 173.184Z" fill="white" stroke="white" stroke-width="0.922366"/>
<path d="M355.15 174.998L354.754 174.689C354.652 174.609 354.55 174.527 354.45 174.445C352.916 176.51 351.416 178.575 350.098 180.735L350.097 180.737C348.912 182.662 347.78 184.599 346.762 186.609C348.258 184.893 349.642 183.104 350.991 181.294L355.15 174.998ZM355.15 174.998C353.834 177.146 352.496 179.274 350.991 181.294L355.15 174.998ZM344.45 188.118C344.357 188.012 344.263 187.908 344.168 187.804C344.135 187.845 344.102 187.885 344.069 187.925L344.02 187.985C344.162 188.032 344.305 188.076 344.45 188.118ZM356.133 172.831C355.909 172.722 355.681 172.617 355.45 172.516L355.466 172.916L355.52 174.311L355.523 174.389C355.623 174.225 355.723 174.061 355.823 173.897C355.883 173.799 355.942 173.702 356.002 173.604L356.067 173.487L356.072 173.478L356.077 173.469C356.189 173.286 356.222 173.114 356.21 172.994C356.199 172.881 356.156 172.843 356.133 172.831ZM344.107 186.408C344.801 185.522 345.47 184.615 346.11 183.7L346.11 183.7L346.117 183.691C347.011 182.481 347.779 181.164 348.478 179.811C348.729 179.325 348.983 178.835 349.247 178.347C348.895 178.772 348.538 179.19 348.182 179.602C347.19 180.774 346.249 181.985 345.451 183.257L345.451 183.257L345.447 183.264C344.856 184.17 344.287 185.102 343.739 186.045L344.001 186.302C344.036 186.337 344.071 186.372 344.107 186.408ZM343.208 186.974C343.168 187.044 343.129 187.115 343.089 187.186L342.993 187.372L342.993 187.372L342.989 187.381C342.935 187.48 342.931 187.557 342.937 187.594C342.938 187.598 342.939 187.601 342.939 187.604C343.039 187.64 343.138 187.677 343.237 187.713L343.235 187.67L343.208 186.974ZM354.909 172.287C354.826 172.253 354.743 172.219 354.659 172.185L354.332 172.578C354.245 172.681 354.159 172.785 354.074 172.89C354.151 172.96 354.228 173.029 354.305 173.099C354.331 173.064 354.357 173.029 354.383 172.994C354.462 172.888 354.54 172.783 354.619 172.678L354.909 172.287ZM353.507 171.931C353.494 171.955 353.482 171.979 353.469 172.002L353.801 171.875L353.839 171.86C353.839 171.86 353.838 171.859 353.837 171.859C353.813 171.849 353.788 171.84 353.763 171.83L353.75 171.825L353.738 171.819L353.659 171.783C353.654 171.785 353.647 171.787 353.638 171.792C353.597 171.813 353.546 171.857 353.51 171.927L353.51 171.927L353.507 171.931ZM353.67 171.78C353.671 171.78 353.672 171.78 353.672 171.78C353.672 171.78 353.671 171.78 353.67 171.78Z" stroke="white" stroke-width="0.922366"/>
<path d="M358.411 176.696C356.439 178.573 354.733 180.624 353.11 182.729C351.575 184.747 350.269 186.912 349 189.112L349.718 189.65C349.933 189.811 350.147 189.976 350.359 190.144C351.975 188.086 353.538 186.022 354.851 183.821C356.185 181.515 357.427 179.188 358.411 176.696ZM348.973 190.122L348.807 189.449C348.603 189.804 348.399 190.159 348.196 190.515L348.114 190.669L348.11 190.677L348.106 190.684C347.962 190.933 348.053 191.297 348.375 191.46L348.394 191.469L348.412 191.48C348.749 191.654 349.088 191.819 349.431 191.98L349.359 191.688L348.973 190.122ZM350.186 191.849L349.906 192.203C349.997 192.245 350.088 192.286 350.179 192.328L350.532 191.944C350.614 191.855 350.696 191.765 350.777 191.674C350.685 191.599 350.593 191.524 350.502 191.449C350.4 191.578 350.297 191.708 350.195 191.837L350.186 191.849ZM350.959 192.689L350.959 192.689C351.088 192.749 351.217 192.81 351.346 192.871L351.353 192.874L351.359 192.878L351.534 192.967C351.601 192.994 351.665 192.993 351.71 192.979C351.753 192.966 351.774 192.944 351.785 192.921L351.785 192.921L351.788 192.913C351.853 192.777 351.919 192.64 351.986 192.504L350.959 192.689ZM352.27 191.696L352.359 191.768C352.697 191.12 353.058 190.483 353.444 189.863C353.018 190.443 352.568 191.008 352.099 191.559C352.156 191.605 352.213 191.651 352.27 191.696ZM356.326 184.615C355.767 185.87 355.186 187.168 354.454 188.369C355.296 187.244 356.289 186.211 357.25 185.214C358.318 184.106 359.25 182.894 360.012 181.6L360.016 181.592L360.021 181.585C360.619 180.651 361.17 179.676 361.675 178.675L361.199 178.273C361.08 178.173 360.961 178.072 360.844 177.97C360.063 178.856 359.32 179.766 358.65 180.706L358.645 180.713L358.64 180.72C357.719 181.915 356.946 183.226 356.326 184.615ZM361.965 177.818L362.008 177.994C362.077 177.851 362.144 177.707 362.211 177.562L362.299 177.364L362.299 177.364L362.302 177.357C362.345 177.264 362.31 177.127 362.171 177.065L362.168 177.064C362.023 176.998 361.877 176.933 361.731 176.869L361.965 177.818ZM360.893 176.544L360.91 176.526C360.756 176.464 360.601 176.404 360.446 176.346C360.557 176.453 360.669 176.56 360.782 176.665C360.819 176.625 360.856 176.584 360.893 176.544Z" fill="white" stroke="white" stroke-width="0.922366"/>
<path d="M338.359 168.452L339.609 167.451L340.901 165.165L341.908 162.862L342.543 159.034L340.279 165.504L339.557 166.579L338.549 167.64" stroke="white" stroke-width="0.922366"/>
</svg>
