<svg width="95" height="37" viewBox="0 0 95 37" fill="none" xmlns="http://www.w3.org/2000/svg">
<mask id="path-1-inside-1_2_3224" fill="white">
<path fill-rule="evenodd" clip-rule="evenodd" d="M45.6 37L0 18.5L45.6 0V8L95 8V29H45.6V37Z"/>
</mask>
<path d="M0 18.5L-0.375941 19.4266L-2.65999 18.5L-0.375941 17.5734L0 18.5ZM45.6 37H46.6V38.4849L45.2241 37.9266L45.6 37ZM45.6 0L45.2241 -0.926644L46.6 -1.48487V0L45.6 0ZM45.6 8V9H44.6V8H45.6ZM95 8V7H96V8H95ZM95 29H96V30H95V29ZM45.6 29H44.6V28H45.6V29ZM0.375941 17.5734L45.9759 36.0734L45.2241 37.9266L-0.375941 19.4266L0.375941 17.5734ZM45.9759 0.926644L0.375941 19.4266L-0.375941 17.5734L45.2241 -0.926644L45.9759 0.926644ZM44.6 8V0L46.6 0V8H44.6ZM95 9L45.6 9V7L95 7V9ZM94 29V8H96V29H94ZM45.6 28H95V30H45.6V28ZM44.6 37V29H46.6V37H44.6Z" fill="white" mask="url(#path-1-inside-1_2_3224)"/>
</svg>
