<svg width="24" height="24" viewBox="0 0 24 24" fill="none" xmlns="http://www.w3.org/2000/svg">
<path d="M18.2649 4.60898C16.057 2.40117 12.4617 2.40117 10.2563 4.60898L4.13908 10.7215C4.09924 10.7613 4.07815 10.8152 4.07815 10.8715C4.07815 10.9277 4.09924 10.9816 4.13908 11.0215L5.00393 11.8863C5.04346 11.9257 5.09697 11.9478 5.15276 11.9478C5.20854 11.9478 5.26205 11.9257 5.30158 11.8863L11.4188 5.77383C12.1781 5.01445 13.1883 4.59727 14.2617 4.59727C15.3352 4.59727 16.3453 5.01445 17.1024 5.77383C17.8617 6.5332 18.2789 7.54336 18.2789 8.61445C18.2789 9.68789 17.8617 10.6957 17.1024 11.4551L10.868 17.6871L9.85783 18.6973C8.9133 19.6418 7.37814 19.6418 6.43361 18.6973C5.97658 18.2402 5.7258 17.6332 5.7258 16.9863C5.7258 16.3394 5.97658 15.7324 6.43361 15.2754L12.6188 9.09258C12.7758 8.93789 12.982 8.85117 13.2024 8.85117H13.2047C13.425 8.85117 13.6289 8.93789 13.7836 9.09258C13.9406 9.24961 14.025 9.45586 14.025 9.67617C14.025 9.89414 13.9383 10.1004 13.7836 10.2551L8.72814 15.3059C8.6883 15.3457 8.66721 15.3996 8.66721 15.4559C8.66721 15.5121 8.6883 15.566 8.72814 15.6059L9.59299 16.4707C9.63252 16.5101 9.68603 16.5322 9.74182 16.5322C9.7976 16.5322 9.85111 16.5101 9.89064 16.4707L14.9438 11.4176C15.4102 10.9512 15.6656 10.3324 15.6656 9.67383C15.6656 9.01523 15.4078 8.39414 14.9438 7.93008C13.9805 6.9668 12.4149 6.96914 11.4516 7.93008L10.8516 8.53242L5.26877 14.1129C4.88986 14.4896 4.5895 14.9377 4.38512 15.4314C4.18074 15.9251 4.0764 16.4544 4.07815 16.9887C4.07815 18.0738 4.50237 19.0934 5.26877 19.8598C6.0633 20.6519 7.10393 21.048 8.14455 21.048C9.18517 21.048 10.2258 20.6519 11.018 19.8598L18.2649 12.6176C19.3313 11.5488 19.9219 10.1262 19.9219 8.61445C19.9242 7.10039 19.3336 5.67773 18.2649 4.60898Z" fill="#1E1F21"/>
</svg>
