<svg width="450" height="269" viewBox="0 0 450 269" fill="none" xmlns="http://www.w3.org/2000/svg">
<g clip-path="url(#clip0_5368_3941)">
<mask id="path-1-inside-1_5368_3941" fill="white">
<path d="M246.57 247.435C276.544 233.132 312.12 221.6 345.62 222.018C355.007 221.515 362.647 223.126 372.027 223.687C372.992 223.744 374.072 223.081 374.118 222.018C375.596 186.758 372.943 150.643 375.62 115.435C376.311 106.315 377.741 96.4735 379.12 87.4346C379.49 85.0286 377.487 86.1274 377.12 88.536C374.544 105.378 373.515 122.445 372.76 139.453C371.948 157.69 372.452 176.185 372.027 194.435C371.811 203.571 372.413 213.802 372.027 222.935C372.725 222.379 371.801 221.49 372.5 220.935C338.869 218.925 304.928 222.611 273.082 233.619C264.044 236.743 255.197 240.389 246.57 244.506C244.373 245.555 244.369 248.486 246.57 247.435Z"/>
</mask>
<path d="M246.57 247.435C276.544 233.132 312.12 221.6 345.62 222.018C355.007 221.515 362.647 223.126 372.027 223.687C372.992 223.744 374.072 223.081 374.118 222.018C375.596 186.758 372.943 150.643 375.62 115.435C376.311 106.315 377.741 96.4735 379.12 87.4346C379.49 85.0286 377.487 86.1274 377.12 88.536C374.544 105.378 373.515 122.445 372.76 139.453C371.948 157.69 372.452 176.185 372.027 194.435C371.811 203.571 372.413 213.802 372.027 222.935C372.725 222.379 371.801 221.49 372.5 220.935C338.869 218.925 304.928 222.611 273.082 233.619C264.044 236.743 255.197 240.389 246.57 244.506C244.373 245.555 244.369 248.486 246.57 247.435Z" fill="#211D1D" stroke="#211D1D" stroke-width="1.77082" mask="url(#path-1-inside-1_5368_3941)"/>
<mask id="path-2-inside-2_5368_3941" fill="white">
<path d="M197.27 241.131C201.916 235.376 210.136 226.514 218.264 227.435C223.062 227.976 228.227 232.833 231.122 236.435C234.487 240.622 235.634 246.008 237.796 250.881C238.784 253.109 242.262 251.626 241.275 249.399C238.816 243.86 236.312 238.169 232.284 233.559C228.804 229.576 223.702 225.467 218.264 224.848C208.676 223.762 199.773 232.016 194.235 238.876C192.703 240.773 195.741 243.025 197.27 241.131Z"/>
</mask>
<path d="M197.27 241.131C201.916 235.376 210.136 226.514 218.264 227.435C223.062 227.976 228.227 232.833 231.122 236.435C234.487 240.622 235.634 246.008 237.796 250.881C238.784 253.109 242.262 251.626 241.275 249.399C238.816 243.86 236.312 238.169 232.284 233.559C228.804 229.576 223.702 225.467 218.264 224.848C208.676 223.762 199.773 232.016 194.235 238.876C192.703 240.773 195.741 243.025 197.27 241.131Z" fill="#211D1D" stroke="#211D1D" stroke-width="1.77082" mask="url(#path-2-inside-2_5368_3941)"/>
<mask id="path-3-inside-3_5368_3941" fill="white">
<path d="M91.5755 26.5742C88.2125 44.9513 92.7703 39.4349 80.1206 83.4349C74.5292 104.739 70.1206 121.435 63.1206 145.435C60.8599 154.591 58.6206 162.935 55.6144 172.679C55.4251 173.715 56.3349 174.617 57.2867 174.765C94.4843 180.634 130.621 194.935 164.121 217.935C173.004 223.618 180.102 229.218 188.621 235.435C190.585 236.868 190.942 234.042 188.973 232.605C158.21 210.142 124.822 189.952 88.3396 178.329C78.3235 175.141 68.0874 172.643 57.7017 171.007C58.2599 171.701 58.8158 172.399 59.374 173.093C62.737 154.716 67.7388 136.606 72.478 118.547C78.0698 97.244 83.8615 75.9925 89.1433 54.6091C91.4047 45.454 91.9205 35.8563 93.6206 26.5741C94.1044 23.9313 92.0126 24.1861 91.5755 26.5742Z"/>
</mask>
<path d="M91.5755 26.5742C88.2125 44.9513 92.7703 39.4349 80.1206 83.4349C74.5292 104.739 70.1206 121.435 63.1206 145.435C60.8599 154.591 58.6206 162.935 55.6144 172.679C55.4251 173.715 56.3349 174.617 57.2867 174.765C94.4843 180.634 130.621 194.935 164.121 217.935C173.004 223.618 180.102 229.218 188.621 235.435C190.585 236.868 190.942 234.042 188.973 232.605C158.21 210.142 124.822 189.952 88.3396 178.329C78.3235 175.141 68.0874 172.643 57.7017 171.007C58.2599 171.701 58.8158 172.399 59.374 173.093C62.737 154.716 67.7388 136.606 72.478 118.547C78.0698 97.244 83.8615 75.9925 89.1433 54.6091C91.4047 45.454 91.9205 35.8563 93.6206 26.5741C94.1044 23.9313 92.0126 24.1861 91.5755 26.5742Z" fill="#211D1D" stroke="#211D1D" stroke-width="1.77082" mask="url(#path-3-inside-3_5368_3941)"/>
<mask id="path-4-inside-4_5368_3941" fill="white">
<path d="M240.809 93.3202C232.41 125.308 226.11 157.898 221.59 190.651C220.353 199.611 219.621 216.935 218.385 217.596C220.121 219.935 221.904 220.442 222.145 218.01C224.121 184.935 229.504 152.913 236.621 120.935C238.735 111.435 240.809 103.435 244.121 94.4349C244.731 92.1108 241.426 90.9642 240.809 93.3202Z"/>
</mask>
<path d="M240.809 93.3202C232.41 125.308 226.11 157.898 221.59 190.651C220.353 199.611 219.621 216.935 218.385 217.596C220.121 219.935 221.904 220.442 222.145 218.01C224.121 184.935 229.504 152.913 236.621 120.935C238.735 111.435 240.809 103.435 244.121 94.4349C244.731 92.1108 241.426 90.9642 240.809 93.3202Z" fill="#211D1D" stroke="#211D1D" stroke-width="1.77082" mask="url(#path-4-inside-4_5368_3941)"/>
<mask id="path-5-inside-5_5368_3941" fill="white">
<path d="M191.001 235.434C199.501 228.934 207.663 218.399 218.621 219.434C232.519 220.748 241.621 235.434 243.807 247.606C244.567 249.922 248.039 248.42 247.286 246.125C243.673 235.092 237.316 223.519 226.059 218.839C217.594 215.315 208.2 216.951 200.548 221.66C195.775 224.597 191.767 228.689 188.61 233.299C187.237 235.304 189.858 234.314 191.001 235.434Z"/>
</mask>
<path d="M191.001 235.434C199.501 228.934 207.663 218.399 218.621 219.434C232.519 220.748 241.621 235.434 243.807 247.606C244.567 249.922 248.039 248.42 247.286 246.125C243.673 235.092 237.316 223.519 226.059 218.839C217.594 215.315 208.2 216.951 200.548 221.66C195.775 224.597 191.767 228.689 188.61 233.299C187.237 235.304 189.858 234.314 191.001 235.434Z" fill="#211D1D" stroke="#211D1D" stroke-width="1.77082" mask="url(#path-5-inside-5_5368_3941)"/>
<mask id="path-6-inside-6_5368_3941" fill="white">
<path d="M114.511 14.7946C112.62 36.4348 95.9811 87.9345 85.1204 127.935C82.2754 138.413 77.155 151.401 74.5885 161.952C74.4031 162.717 75.0693 163.685 75.7851 163.921C108.857 174.841 140.369 189.669 169.62 208.435C177.927 213.769 187.838 220.76 195.915 226.435C197.903 227.831 200.116 226.337 198.12 224.935C169.523 204.839 129.12 182.01 104.62 171.435C95.4446 167.474 85.4917 165.066 75.9998 161.934C76.3986 162.591 76.6009 162.278 76.9998 162.934C86.4489 124.094 99.6377 85.3183 110.115 46.7479C112.961 36.27 114.053 25.3451 116.62 14.7945C116 14.4343 115.892 14.7948 114.511 14.7946Z"/>
</mask>
<path d="M114.511 14.7946C112.62 36.4348 95.9811 87.9345 85.1204 127.935C82.2754 138.413 77.155 151.401 74.5885 161.952C74.4031 162.717 75.0693 163.685 75.7851 163.921C108.857 174.841 140.369 189.669 169.62 208.435C177.927 213.769 187.838 220.76 195.915 226.435C197.903 227.831 200.116 226.337 198.12 224.935C169.523 204.839 129.12 182.01 104.62 171.435C95.4446 167.474 85.4917 165.066 75.9998 161.934C76.3986 162.591 76.6009 162.278 76.9998 162.934C86.4489 124.094 99.6377 85.3183 110.115 46.7479C112.961 36.27 114.053 25.3451 116.62 14.7945C116 14.4343 115.892 14.7948 114.511 14.7946Z" fill="#211D1D" stroke="#211D1D" stroke-width="1.77082" mask="url(#path-6-inside-6_5368_3941)"/>
<mask id="path-7-inside-7_5368_3941" fill="white">
<path d="M127.62 12.4347C124.172 50.5668 123.12 67.4349 102.62 124.935C99.0508 134.929 94.1123 144.937 89.9639 154.699C89.5701 155.626 90.1053 156.803 91.0408 157.149C126.64 167.935 152.777 182.254 180.62 201.435C188.54 206.891 196.506 214.72 204.017 220.726C205.919 222.246 208.519 220.953 206.62 219.435C180.076 198.216 150.535 178.608 119.544 164.658C110.637 160.649 101.583 156.978 92.4099 153.621C92.7695 154.436 93.1296 155.252 93.4893 156.067C108.59 120.54 119.78 82.9471 126.62 44.9348C128.497 34.5105 129.167 23.9814 130.12 13.4348C130.339 11.0138 127.842 9.99937 127.62 12.4347Z"/>
</mask>
<path d="M127.62 12.4347C124.172 50.5668 123.12 67.4349 102.62 124.935C99.0508 134.929 94.1123 144.937 89.9639 154.699C89.5701 155.626 90.1053 156.803 91.0408 157.149C126.64 167.935 152.777 182.254 180.62 201.435C188.54 206.891 196.506 214.72 204.017 220.726C205.919 222.246 208.519 220.953 206.62 219.435C180.076 198.216 150.535 178.608 119.544 164.658C110.637 160.649 101.583 156.978 92.4099 153.621C92.7695 154.436 93.1296 155.252 93.4893 156.067C108.59 120.54 119.78 82.9471 126.62 44.9348C128.497 34.5105 129.167 23.9814 130.12 13.4348C130.339 11.0138 127.842 9.99937 127.62 12.4347Z" fill="#211D1D" stroke="#211D1D" stroke-width="1.77082" mask="url(#path-7-inside-7_5368_3941)"/>
<mask id="path-8-inside-8_5368_3941" fill="white">
<path d="M220.973 216.328C197.421 191.074 170.372 166.005 137.736 153.26C128.737 149.742 118.149 149.164 108.5 148.435C109.017 149.291 109.106 148.081 109.625 148.935C126.603 106.244 138.366 61.101 141.142 15.2393C141.166 14.8593 141.334 13.9686 141.242 13.5461C141.259 13.2627 141.273 12.9832 141.289 12.6998C139.665 13.8032 139.219 14.2992 139.957 14.1813C139.991 14.2546 139.517 13.94 140.093 14.2393C140.244 14.319 140.975 14.4702 141.573 14.6623C143.597 15.3223 146.154 15.6237 148.12 16.4348C153.778 18.7752 154.62 18.089 166.12 23.4348C171.604 25.9837 176.208 28.2399 181.62 30.9348C186.312 33.2662 190.626 35.885 195.12 38.9348C215.316 52.6477 233.057 71.4687 240.62 95.4348C241.352 97.7618 243.658 94.7987 242.932 92.4969C236.087 70.8046 220.238 54.5045 202.214 41.4002C196.704 37.3969 191.125 33.3535 185.052 30.2424C179.967 27.6406 174.812 25.1745 169.647 22.7383C163.694 19.9313 157.713 17.1739 151.664 14.5809C149.308 13.5766 146.944 12.5826 144.54 11.6992C143.191 11.2011 141.615 10.5031 140.156 10.4343C136.798 10.2704 138.27 13.6122 138.12 15.9348C138.12 21.9348 137.905 28.5348 137.278 34.4349C136.007 46.3778 133.265 57.6387 131 69.4346C125.888 96.0641 117.672 122.61 107.655 147.802C107.214 148.908 107.991 150.275 109.207 150.368C133.12 151.569 144.433 157.121 159.12 165.935C174.069 174.9 186.05 185.664 199.12 198.935C205.786 205.183 211.761 211.975 217.991 218.657C219.64 220.425 222.632 218.109 220.973 216.328Z"/>
</mask>
<path d="M220.973 216.328C197.421 191.074 170.372 166.005 137.736 153.26C128.737 149.742 118.149 149.164 108.5 148.435C109.017 149.291 109.106 148.081 109.625 148.935C126.603 106.244 138.366 61.101 141.142 15.2393C141.166 14.8593 141.334 13.9686 141.242 13.5461C141.259 13.2627 141.273 12.9832 141.289 12.6998C139.665 13.8032 139.219 14.2992 139.957 14.1813C139.991 14.2546 139.517 13.94 140.093 14.2393C140.244 14.319 140.975 14.4702 141.573 14.6623C143.597 15.3223 146.154 15.6237 148.12 16.4348C153.778 18.7752 154.62 18.089 166.12 23.4348C171.604 25.9837 176.208 28.2399 181.62 30.9348C186.312 33.2662 190.626 35.885 195.12 38.9348C215.316 52.6477 233.057 71.4687 240.62 95.4348C241.352 97.7618 243.658 94.7987 242.932 92.4969C236.087 70.8046 220.238 54.5045 202.214 41.4002C196.704 37.3969 191.125 33.3535 185.052 30.2424C179.967 27.6406 174.812 25.1745 169.647 22.7383C163.694 19.9313 157.713 17.1739 151.664 14.5809C149.308 13.5766 146.944 12.5826 144.54 11.6992C143.191 11.2011 141.615 10.5031 140.156 10.4343C136.798 10.2704 138.27 13.6122 138.12 15.9348C138.12 21.9348 137.905 28.5348 137.278 34.4349C136.007 46.3778 133.265 57.6387 131 69.4346C125.888 96.0641 117.672 122.61 107.655 147.802C107.214 148.908 107.991 150.275 109.207 150.368C133.12 151.569 144.433 157.121 159.12 165.935C174.069 174.9 186.05 185.664 199.12 198.935C205.786 205.183 211.761 211.975 217.991 218.657C219.64 220.425 222.632 218.109 220.973 216.328Z" fill="#211D1D" stroke="#211D1D" stroke-width="1.77082" mask="url(#path-8-inside-8_5368_3941)"/>
<mask id="path-9-inside-9_5368_3941" fill="white">
<path d="M359.28 66.7021C359.621 65.435 366.411 67.9963 369.621 69.435C369.221 68.7806 370.018 68.5929 369.621 67.9346C363.278 102.628 357.871 138.397 356.939 173.647C356.673 183.66 357.83 194.421 358 204.435C358.698 203.876 358.302 203.993 359 203.435C326.67 201.559 293.848 207.449 265.377 222.898C257.436 227.207 249.836 232.127 242.658 237.616C240.722 239.097 243.052 242.075 244.985 240.598C268.121 218.435 299.776 208.984 331.121 205.773C340.039 204.86 349.533 205.255 358.477 205.773C359.395 205.826 360.586 205.169 360.569 204.101C357.101 168.435 360.789 133.872 365.621 98.9348C366.991 89.0172 369.86 78.805 371.66 68.9567C371.815 68.1087 371.193 67.3118 370.465 66.9859C367.257 65.5433 363.465 65.0255 360.121 63.9348C359.095 64.1929 358.621 64.9349 359.28 66.7021Z"/>
</mask>
<path d="M359.28 66.7021C359.621 65.435 366.411 67.9963 369.621 69.435C369.221 68.7806 370.018 68.5929 369.621 67.9346C363.278 102.628 357.871 138.397 356.939 173.647C356.673 183.66 357.83 194.421 358 204.435C358.698 203.876 358.302 203.993 359 203.435C326.67 201.559 293.848 207.449 265.377 222.898C257.436 227.207 249.836 232.127 242.658 237.616C240.722 239.097 243.052 242.075 244.985 240.598C268.121 218.435 299.776 208.984 331.121 205.773C340.039 204.86 349.533 205.255 358.477 205.773C359.395 205.826 360.586 205.169 360.569 204.101C357.101 168.435 360.789 133.872 365.621 98.9348C366.991 89.0172 369.86 78.805 371.66 68.9567C371.815 68.1087 371.193 67.3118 370.465 66.9859C367.257 65.5433 363.465 65.0255 360.121 63.9348C359.095 64.1929 358.621 64.9349 359.28 66.7021Z" fill="#211D1D" stroke="#211D1D" stroke-width="1.77082" mask="url(#path-9-inside-9_5368_3941)"/>
<mask id="path-10-inside-10_5368_3941" fill="white">
<path d="M348.956 39.53C335.484 42.329 322.248 46.5977 309.391 51.4531C292.968 57.6561 276.83 65.1466 262.228 74.9576C254.5 80.1501 247.232 86.0922 241.13 93.149C239.538 94.9912 242.579 97.2393 244.165 95.4043C254.121 81.4348 269.419 72.3249 284.121 64.9348C298.621 56.9348 313.621 51.9654 330.121 46.9348C336.422 45.0137 343.167 44.2761 349.621 42.9348C351.621 43.9348 351.345 39.0332 348.956 39.53Z"/>
</mask>
<path d="M348.956 39.53C335.484 42.329 322.248 46.5977 309.391 51.4531C292.968 57.6561 276.83 65.1466 262.228 74.9576C254.5 80.1501 247.232 86.0922 241.13 93.149C239.538 94.9912 242.579 97.2393 244.165 95.4043C254.121 81.4348 269.419 72.3249 284.121 64.9348C298.621 56.9348 313.621 51.9654 330.121 46.9348C336.422 45.0137 343.167 44.2761 349.621 42.9348C351.621 43.9348 351.345 39.0332 348.956 39.53Z" fill="#211D1D" stroke="#211D1D" stroke-width="1.77082" mask="url(#path-10-inside-10_5368_3941)"/>
<mask id="path-11-inside-11_5368_3941" fill="white">
<path d="M240.063 229.315C261.2 211.435 287.016 198.479 316.621 193.435C334.121 190.22 338.788 192.136 347.189 191.814C348.151 191.777 349.001 190.582 348.784 189.668C347.435 183.96 346.399 178.151 345.518 172.355C345.151 169.944 343.254 169.024 343.621 171.435C344.505 177.233 345.273 185.227 346.621 190.935C347.153 190.218 346.106 188.791 346.639 188.074C316.174 189.24 286.032 197.666 259.359 212.442C251.855 216.6 244.519 223.338 237.621 228.435C235.66 229.883 238.208 230.884 240.063 229.315Z"/>
</mask>
<path d="M240.063 229.315C261.2 211.435 287.016 198.479 316.621 193.435C334.121 190.22 338.788 192.136 347.189 191.814C348.151 191.777 349.001 190.582 348.784 189.668C347.435 183.96 346.399 178.151 345.518 172.355C345.151 169.944 343.254 169.024 343.621 171.435C344.505 177.233 345.273 185.227 346.621 190.935C347.153 190.218 346.106 188.791 346.639 188.074C316.174 189.24 286.032 197.666 259.359 212.442C251.855 216.6 244.519 223.338 237.621 228.435C235.66 229.883 238.208 230.884 240.063 229.315Z" fill="#211D1D" stroke="#211D1D" stroke-width="1.77082" mask="url(#path-11-inside-11_5368_3941)"/>
<path d="M347.5 48.9346C353.144 49.5939 359.533 50.8876 365.002 52.4346C364.641 51.6206 363.861 52.2485 363.5 51.4346C353.323 79.2013 346.967 108.502 344.121 137.935C343.313 146.299 342.974 159.935 341.368 163.059C341.901 162.507 342.438 161.952 342.974 161.396C325.748 163.519 308.931 167.141 292.589 173.07C276.113 179.049 260.373 187.045 245.816 196.8C237.587 202.316 229.764 208.416 222.388 215.025C220.579 216.646 222.899 219.634 224.714 218.006C250.348 195.037 280.121 175.435 315.621 168.435C325.026 166.58 333.507 165.623 343.121 164.435C343.89 164.339 345.107 164.285 345.126 163.472C345.836 134.095 348.992 104.683 357.121 76.4349C361.621 61.9349 363.237 60.7831 366.079 53.0276C366.407 52.134 366.003 50.8624 365.002 50.5783C359.217 48.9458 353.336 47.7823 347.366 47.0872C344.949 46.8078 345.075 48.6553 347.5 48.9346Z" fill="#211D1D"/>
<path d="M93.1201 26.9345C98.3388 28.0406 108.244 29.66 112.964 32.1412C112.999 32.9346 112.159 33.8097 112.499 32.9346C112.902 31.8962 112.661 30.846 111.753 30.3702C106.725 27.7295 99.6743 26.1074 94.12 24.9347C92.62 24.4345 92.62 24.4345 93.12 26.434C92.12 27.4341 92.1156 26.7253 93.1201 26.9345Z" fill="#211D1D"/>
<path d="M116.178 16.9294C116.412 16.9478 116.642 16.9786 116.869 17.0242C116.965 17.0418 117.06 17.0636 117.157 17.082C116.903 17.0279 116.998 17.0392 117.192 17.0974C117.655 17.2374 118.108 17.397 118.557 17.58C119.063 17.7895 119.559 18.0238 120.047 18.2732C120.18 18.3401 120.311 18.4105 120.442 18.4808C120.472 18.4979 120.791 18.6708 120.616 18.5731C120.413 18.4592 120.828 18.6983 120.866 18.7211C120.735 18.6449 120.997 18.797 120.866 18.7211C122.662 19.7974 126.949 21.1761 128.621 22.4344C129.412 23.0279 128.507 22.9591 129.077 22.1151C129.652 21.2638 129.469 21.07 128.621 20.4344C126.852 19.1039 124.914 18.2133 123 17.0974C120.976 15.9158 117.592 14.8399 116 14.4341C116 14.4341 114.622 13.8121 114.508 14.8398C114.397 15.8428 115.159 16.833 116.178 16.9294Z" fill="#211D1D"/>
<path d="M128.194 13.578C134.621 14.9345 138.422 16.4323 139.621 17.9345C140.566 18.2127 139.421 17.881 139.768 16.8551C140.073 15.9533 139.704 14.7073 138.689 14.4091C137.173 13.9648 135.693 13.4079 134.263 12.7371C133.92 12.5736 133.579 12.4061 133.242 12.2309C133.059 12.138 132.878 12.0414 132.698 11.9448C133.067 12.1386 132.561 11.865 132.53 11.8469C131.818 11.4417 131.127 11.003 130.452 10.5392C129.637 9.98193 128.708 10.0655 128.121 10.9346C127.565 11.7571 127.321 12.978 128.194 13.578Z" fill="#211D1D"/>
<path d="M368.842 76.5022C370.734 76.614 372.628 76.7261 374.518 76.8419C375.492 76.8961 376.464 76.9539 377.436 77.0118C377.896 77.0407 378.357 77.066 378.816 77.0947C379.025 77.1076 379.32 77.191 379.526 77.1397C379.849 77.0615 379.803 77.396 379.593 76.9621C379.445 76.8807 379.374 76.7599 379.375 76.6068C379.358 76.4181 379.347 76.4044 379.34 76.5693C379.276 76.7265 379.281 76.9571 379.246 77.1303C379.156 77.58 379.05 78.0292 378.954 78.4749C378.748 79.4231 378.544 80.3675 378.337 81.3155C377.926 83.2073 377.534 86.0433 377.121 87.9346C376.637 92.3765 376.685 91.8293 377.621 91.9347C378.724 92.0554 378.906 88.4415 379.12 87.437C379.598 85.2481 380.647 82.1262 381.121 79.9346C381.35 78.8895 381.899 77.4784 382.121 76.4346C382.354 75.341 382.42 74.4347 381.621 74.4347C380.621 74.4347 381.256 74.5056 380.121 74.4347C378.996 74.3649 376.748 73.9995 375.621 73.9345C373.371 73.8009 371.372 73.4785 369.121 73.3448C368.105 73.2822 368.956 73.5187 368.842 74.5691C368.732 75.5491 367.816 76.4441 368.842 76.5022Z" fill="#211D1D"/>
<mask id="path-17-inside-12_5368_3941" fill="white">
<path d="M231.881 222.768C259.583 203.654 288.734 184.394 321.786 176.122C330.971 173.824 340.366 172.456 349.829 172.158C350.857 172.13 351.558 170.934 351.423 170.013C349.415 155.985 346.737 142.14 347.685 127.991C348.623 113.884 351.63 99.2375 354.621 85.4345C355.135 83.0594 354.131 83.0732 353.621 85.4345C350.58 99.4697 346.69 113.643 345.787 127.991C344.892 142.217 347.1 156.836 349.121 170.935C349.653 170.218 349.299 169.647 349.829 168.935C315.135 170.025 277.408 190.215 248.621 208.435C240.358 213.664 237.669 216.381 229.621 221.935C227.613 223.321 229.887 224.143 231.881 222.768Z"/>
</mask>
<path d="M231.881 222.768C259.583 203.654 288.734 184.394 321.786 176.122C330.971 173.824 340.366 172.456 349.829 172.158C350.857 172.13 351.558 170.934 351.423 170.013C349.415 155.985 346.737 142.14 347.685 127.991C348.623 113.884 351.63 99.2375 354.621 85.4345C355.135 83.0594 354.131 83.0732 353.621 85.4345C350.58 99.4697 346.69 113.643 345.787 127.991C344.892 142.217 347.1 156.836 349.121 170.935C349.653 170.218 349.299 169.647 349.829 168.935C315.135 170.025 277.408 190.215 248.621 208.435C240.358 213.664 237.669 216.381 229.621 221.935C227.613 223.321 229.887 224.143 231.881 222.768Z" fill="#211D1D" stroke="#211D1D" stroke-width="1.77082" mask="url(#path-17-inside-12_5368_3941)"/>
<path d="M346.977 41.9514C339.121 72.4344 336.56 104.338 338.121 135.934C338.567 144.944 339.172 153.964 340.121 162.935C340.38 165.36 343.384 164.943 343.125 162.524C339.837 131.492 338.981 99.8395 344.334 68.9781C345.84 60.2994 347.872 51.7253 350.502 43.3198C351.226 41.0106 347.708 39.619 346.977 41.9514Z" fill="#211D1D"/>
<path d="M280.925 85.2185C292.577 79.2413 304.686 74.0483 317.359 70.6671C318.521 70.3595 318.259 68.4845 317.083 68.7979C304.244 72.2237 291.99 77.4229 280.186 83.4766C279.107 84.0301 279.841 85.7737 280.925 85.2185Z" fill="#211D1D"/>
<path d="M251.327 103.963C258.145 98.5102 265.485 93.7573 273.074 89.4534C274.121 88.8614 273.39 87.1149 272.333 87.715C264.6 92.1004 257.112 96.9152 250.163 102.474C249.212 103.234 250.377 104.723 251.327 103.963Z" fill="#211D1D"/>
<path d="M306.604 92.8315C309.871 91.6976 313.17 90.646 316.491 89.681C316.98 89.5398 317.172 88.8714 316.99 88.4404C316.77 87.9228 316.242 87.7984 315.749 87.9426C312.428 88.9075 309.13 89.9594 305.862 91.0928C305.38 91.2607 305.173 91.8862 305.363 92.3336C305.576 92.8301 306.121 92.9986 306.604 92.8315" fill="#211D1D"/>
<path d="M251.066 122.136C264.732 112.8 278.951 104.21 294.175 97.6544C295.295 97.171 294.553 95.4321 293.435 95.9125C278.063 102.535 263.699 111.221 249.904 120.643C248.896 121.334 250.065 122.82 251.066 122.136Z" fill="#211D1D"/>
<path d="M292.922 116.124C299.32 113.427 305.86 111.055 312.568 109.255C313.73 108.943 313.469 107.067 312.294 107.381C305.425 109.228 298.731 111.624 292.181 114.385C291.058 114.857 291.801 116.596 292.922 116.124" fill="#211D1D"/>
<path d="M247.297 140.695C258.752 133.579 270.397 126.755 282.526 120.85C283.618 120.319 282.88 118.578 281.784 119.112C269.51 125.086 257.727 132.001 246.135 139.202C245.1 139.846 246.274 141.331 247.297 140.695Z" fill="#211D1D"/>
<path d="M260.205 149.357C273.809 142.329 287.821 135.986 302.455 131.416C306.707 130.089 311.008 128.924 315.35 127.933C316.531 127.661 316.265 125.787 315.077 126.059C299.904 129.531 285.321 135.128 271.27 141.764C267.298 143.642 263.368 145.6 259.466 147.616C258.388 148.173 259.125 149.914 260.205 149.357Z" fill="#211D1D"/>
<path d="M243.392 158.54C245.319 157.436 247.254 156.343 249.197 155.263C249.628 155.024 249.933 154.515 249.697 154.022C249.496 153.599 248.918 153.266 248.456 153.524C246.515 154.602 244.577 155.697 242.65 156.801C242.222 157.047 241.914 157.543 242.151 158.042C242.35 158.459 242.932 158.805 243.392 158.54Z" fill="#211D1D"/>
<path d="M279.888 159.832C287.563 156.569 295.314 153.476 303.24 150.862C304.398 150.481 303.646 148.746 302.499 149.123C294.575 151.734 286.821 154.83 279.146 158.093C278.024 158.57 278.766 160.309 279.888 159.832Z" fill="#211D1D"/>
<path d="M237.829 181.025C248.786 173.986 260.577 168.399 272.443 163.082C273.553 162.586 272.811 160.847 271.701 161.344C259.685 166.726 247.761 172.407 236.664 179.536C235.64 180.193 236.813 181.678 237.829 181.025" fill="#211D1D"/>
<path d="M191.583 56.982C206.278 65.8444 219.324 77.3441 229.359 91.3067C230.07 92.2972 231.56 91.1267 230.85 90.1425C219.12 75.9346 209.62 67.9346 192.712 55.4627C191.68 54.8404 190.541 56.3526 191.583 56.982Z" fill="#211D1D"/>
<path d="M159.136 42.2399C166.613 44.7392 174.605 47.4478 181.675 50.9346C182.763 51.4744 182.76 49.9693 181.675 49.4318C172.62 45.9346 169.42 45.3931 159.62 40.9346C158.472 40.549 157.978 41.8519 159.136 42.2399Z" fill="#211D1D"/>
<path d="M159.894 60.5084C178.077 69.2177 196.709 78.2549 211.466 92.2938C215.604 96.2337 219.347 100.579 222.605 105.272C223.298 106.276 224.786 105.104 224.096 104.108C209.621 86.9346 194.683 76.7469 176.621 67.4346C171.377 64.7302 165.898 61.2955 160.578 58.7446C159.482 58.2202 158.8 59.9855 159.894 60.5084Z" fill="#211D1D"/>
<path d="M189.426 96.6373C203.121 104.935 210.121 110.935 219.879 120.642C220.765 121.472 221.886 119.947 221.008 119.123C211.559 110.269 201.381 102.223 190.555 95.1179C189.543 94.4519 188.408 95.9667 189.426 96.6373Z" fill="#211D1D"/>
<path d="M156.133 78.5152C166.121 81.9346 169.621 83.9346 178.766 90.0695C179.807 90.6708 180.947 89.1599 179.895 88.5501C172.405 84.2304 164.698 80.3085 156.817 76.7515C155.709 76.2506 155.025 78.0146 156.133 78.5152Z" fill="#211D1D"/>
<path d="M211.797 135.748C213.867 137.48 215.917 139.235 217.949 141.013C218.334 141.348 218.985 141.203 219.273 140.815C219.597 140.379 219.464 139.829 219.078 139.494C217.044 137.719 214.993 135.964 212.923 134.232C212.532 133.904 211.895 134.032 211.601 134.427C211.282 134.856 211.404 135.419 211.797 135.748Z" fill="#211D1D"/>
<path d="M153.102 99.6375C167.199 104.72 180.267 112.207 192.486 120.824C195.93 123.255 199.31 125.777 202.642 128.361C203.603 129.107 204.732 127.588 203.771 126.841C190.621 117.935 188.121 115.435 168.621 104.935C164.734 103.11 157.827 99.3291 153.787 97.8738C152.643 97.4647 151.953 99.2241 153.102 99.6375Z" fill="#211D1D"/>
<path d="M170.852 127.515C179.621 131.435 195.621 141.244 211.981 156.687C212.898 157.486 214.022 155.964 213.11 155.167C200.409 144.101 186.619 134.332 171.981 125.996C170.937 125.402 169.796 126.913 170.852 127.515Z" fill="#211D1D"/>
<path d="M148.521 116.297C152.372 117.999 156.178 119.796 159.941 121.684C161.027 122.227 161.708 120.461 160.625 119.92C156.863 118.032 153.057 116.235 149.206 114.534C148.095 114.041 147.409 115.804 148.521 116.297Z" fill="#211D1D"/>
<path d="M189.932 162.178C199.621 167.935 206.952 173.53 212.621 178.935C213.574 179.692 213.871 178.076 212.919 177.32C205.733 171.636 198.078 166.261 190.621 160.935C189.633 160.227 188.938 161.472 189.932 162.178Z" fill="#211D1D"/>
<path d="M140.674 137.479C157.12 141.06 167.861 147.641 180.058 155.469C181.076 156.124 182.212 154.61 181.185 153.953C168.852 146.035 155.615 139.358 141.358 135.715C140.197 135.416 139.494 137.177 140.674 137.479Z" fill="#211D1D"/>
<mask id="path-40-inside-13_5368_3941" fill="white">
<path d="M190.063 231.392C188.673 232.455 187.42 233.839 186.8 235.5C186.269 236.927 186.253 238.435 186.738 239.876C187.6 242.434 190.327 244.074 192.979 243.74C194.725 243.522 196.213 242.447 197.281 241.097C197.895 240.323 197.721 239.012 196.893 238.45C196.022 237.862 194.906 238.01 194.247 238.842C194.15 238.964 194.045 239.085 193.943 239.202C193.825 239.34 193.617 239.448 194.089 239.058C194.034 239.103 193.986 239.159 193.932 239.21C193.729 239.397 193.512 239.569 193.282 239.721C193.228 239.756 193.17 239.788 193.117 239.824C193.64 239.46 193.466 239.627 193.317 239.699C193.222 239.746 193.132 239.792 193.036 239.834C192.926 239.88 192.81 239.923 192.697 239.963C192.541 240.019 192.318 240.02 192.937 239.9C192.87 239.914 192.806 239.931 192.739 239.946C192.525 239.991 192.31 240.003 192.093 240.025C192.78 239.955 192.413 240.026 192.215 240.013C192.097 240.006 191.979 239.993 191.863 239.972C191.663 239.941 191.282 239.787 191.967 240.011C191.88 239.985 191.793 239.963 191.707 239.936C191.606 239.899 191.505 239.861 191.405 239.819C191.208 239.732 190.813 239.455 191.462 239.873C191.295 239.765 191.126 239.666 190.968 239.543C190.884 239.475 190.805 239.401 190.721 239.333C190.61 239.234 190.49 239.054 190.966 239.574C190.92 239.518 190.867 239.468 190.817 239.415C190.683 239.267 190.558 239.109 190.447 238.941C190.186 238.549 190.669 239.375 190.497 239.032C190.437 238.918 190.377 238.803 190.328 238.681C190.292 238.595 190.256 238.509 190.228 238.418C190.072 237.97 190.326 238.878 190.246 238.502C190.197 238.272 190.162 238.047 190.141 237.811C190.105 237.424 190.128 238.365 190.144 237.873C190.146 237.761 190.154 237.649 190.168 237.535C190.18 237.421 190.197 237.305 190.218 237.192C190.232 237.126 190.249 237.064 190.258 237.001C190.157 237.651 190.175 237.332 190.229 237.157C190.319 236.863 190.44 236.588 190.569 236.314C190.647 236.151 190.815 235.997 190.465 236.494C190.524 236.409 190.571 236.315 190.624 236.23C190.71 236.096 190.8 235.964 190.895 235.836C191.013 235.676 191.138 235.522 191.266 235.375C191.325 235.306 191.384 235.243 191.442 235.178C191.661 234.933 191.086 235.526 191.341 235.281C191.674 234.959 192.02 234.657 192.387 234.377C193.174 233.774 193.376 232.49 192.716 231.72C192.044 230.936 190.904 230.749 190.063 231.392Z"/>
</mask>
<path d="M190.063 231.392C188.673 232.455 187.42 233.839 186.8 235.5C186.269 236.927 186.253 238.435 186.738 239.876C187.6 242.434 190.327 244.074 192.979 243.74C194.725 243.522 196.213 242.447 197.281 241.097C197.895 240.323 197.721 239.012 196.893 238.45C196.022 237.862 194.906 238.01 194.247 238.842C194.15 238.964 194.045 239.085 193.943 239.202C193.825 239.34 193.617 239.448 194.089 239.058C194.034 239.103 193.986 239.159 193.932 239.21C193.729 239.397 193.512 239.569 193.282 239.721C193.228 239.756 193.17 239.788 193.117 239.824C193.64 239.46 193.466 239.627 193.317 239.699C193.222 239.746 193.132 239.792 193.036 239.834C192.926 239.88 192.81 239.923 192.697 239.963C192.541 240.019 192.318 240.02 192.937 239.9C192.87 239.914 192.806 239.931 192.739 239.946C192.525 239.991 192.31 240.003 192.093 240.025C192.78 239.955 192.413 240.026 192.215 240.013C192.097 240.006 191.979 239.993 191.863 239.972C191.663 239.941 191.282 239.787 191.967 240.011C191.88 239.985 191.793 239.963 191.707 239.936C191.606 239.899 191.505 239.861 191.405 239.819C191.208 239.732 190.813 239.455 191.462 239.873C191.295 239.765 191.126 239.666 190.968 239.543C190.884 239.475 190.805 239.401 190.721 239.333C190.61 239.234 190.49 239.054 190.966 239.574C190.92 239.518 190.867 239.468 190.817 239.415C190.683 239.267 190.558 239.109 190.447 238.941C190.186 238.549 190.669 239.375 190.497 239.032C190.437 238.918 190.377 238.803 190.328 238.681C190.292 238.595 190.256 238.509 190.228 238.418C190.072 237.97 190.326 238.878 190.246 238.502C190.197 238.272 190.162 238.047 190.141 237.811C190.105 237.424 190.128 238.365 190.144 237.873C190.146 237.761 190.154 237.649 190.168 237.535C190.18 237.421 190.197 237.305 190.218 237.192C190.232 237.126 190.249 237.064 190.258 237.001C190.157 237.651 190.175 237.332 190.229 237.157C190.319 236.863 190.44 236.588 190.569 236.314C190.647 236.151 190.815 235.997 190.465 236.494C190.524 236.409 190.571 236.315 190.624 236.23C190.71 236.096 190.8 235.964 190.895 235.836C191.013 235.676 191.138 235.522 191.266 235.375C191.325 235.306 191.384 235.243 191.442 235.178C191.661 234.933 191.086 235.526 191.341 235.281C191.674 234.959 192.02 234.657 192.387 234.377C193.174 233.774 193.376 232.49 192.716 231.72C192.044 230.936 190.904 230.749 190.063 231.392Z" fill="#211D1D" stroke="#211D1D" stroke-width="1.77082" mask="url(#path-40-inside-13_5368_3941)"/>
<mask id="path-41-inside-14_5368_3941" fill="white">
<path d="M236.875 249.15C237.942 251.496 239.65 253.839 242.322 254.369C244.536 254.811 246.554 253.162 247.175 251.12C247.607 249.701 247.623 248.214 247.374 246.761C247.209 245.784 246.249 244.968 245.228 245.166C244.24 245.356 242.624 242.563 243.103 243.675C243.103 244.101 243.767 248.271 243.779 248.758C243.777 248.595 243.775 248.432 243.77 248.273C243.781 248.834 243.738 249.394 243.61 249.943C243.649 249.784 243.688 249.625 243.727 249.466C243.637 249.829 243.513 250.177 243.338 250.504C243.421 250.356 243.503 250.207 243.583 250.063C243.452 250.299 243.293 250.524 243.103 250.722C243.222 250.6 243.34 250.479 243.459 250.357C243.312 250.506 243.155 250.631 242.977 250.74C243.118 250.657 243.259 250.574 243.4 250.491C243.227 250.593 243.047 250.669 242.854 250.725C243.011 250.679 243.164 250.638 243.321 250.593C243.139 250.641 242.956 250.666 242.77 250.667C242.932 250.664 243.091 250.664 243.252 250.66C243.041 250.659 242.832 250.633 242.624 250.585C242.783 250.623 242.942 250.661 243.099 250.702C242.821 250.63 242.555 250.524 242.303 250.385C242.451 250.468 242.598 250.55 242.745 250.633C242.362 250.417 242.017 250.146 241.7 249.84C241.82 249.961 241.941 250.078 242.063 250.195C241.54 249.683 241.11 249.09 240.736 248.463C240.818 248.604 240.9 248.746 240.985 248.884C240.752 248.491 240.544 248.084 240.356 247.665C239.947 246.765 238.811 246.221 237.877 246.666C236.97 247.099 235.064 243.971 235.5 244.935"/>
</mask>
<path d="M236.875 249.15C237.942 251.496 239.65 253.839 242.322 254.369C244.536 254.811 246.554 253.162 247.175 251.12C247.607 249.701 247.623 248.214 247.374 246.761C247.209 245.784 246.249 244.968 245.228 245.166C244.24 245.356 242.624 242.563 243.103 243.675C243.103 244.101 243.767 248.271 243.779 248.758C243.777 248.595 243.775 248.432 243.77 248.273C243.781 248.834 243.738 249.394 243.61 249.943C243.649 249.784 243.688 249.625 243.727 249.466C243.637 249.829 243.513 250.177 243.338 250.504C243.421 250.356 243.503 250.207 243.583 250.063C243.452 250.299 243.293 250.524 243.103 250.722C243.222 250.6 243.34 250.479 243.459 250.357C243.312 250.506 243.155 250.631 242.977 250.74C243.118 250.657 243.259 250.574 243.4 250.491C243.227 250.593 243.047 250.669 242.854 250.725C243.011 250.679 243.164 250.638 243.321 250.593C243.139 250.641 242.956 250.666 242.77 250.667C242.932 250.664 243.091 250.664 243.252 250.66C243.041 250.659 242.832 250.633 242.624 250.585C242.783 250.623 242.942 250.661 243.099 250.702C242.821 250.63 242.555 250.524 242.303 250.385C242.451 250.468 242.598 250.55 242.745 250.633C242.362 250.417 242.017 250.146 241.7 249.84C241.82 249.961 241.941 250.078 242.063 250.195C241.54 249.683 241.11 249.09 240.736 248.463C240.818 248.604 240.9 248.746 240.985 248.884C240.752 248.491 240.544 248.084 240.356 247.665C239.947 246.765 238.811 246.221 237.877 246.666C236.97 247.099 235.064 243.971 235.5 244.935" fill="#211D1D"/>
<path d="M242.322 254.369L242.494 253.501L242.495 253.501L242.322 254.369ZM247.175 251.12L246.327 250.863L246.328 250.862L247.175 251.12ZM247.374 246.761L246.501 246.91L246.501 246.908L247.374 246.761ZM245.228 245.166L245.397 246.036L245.395 246.036L245.228 245.166ZM243.103 243.675L243.916 243.324L243.989 243.492L243.989 243.675L243.103 243.675ZM243.779 248.758L244.664 248.746L242.894 248.779L243.779 248.758ZM243.77 248.273L242.885 248.29L244.655 248.249L243.77 248.273ZM243.61 249.943L244.47 250.155L242.748 249.741L243.61 249.943ZM243.727 249.466L242.868 249.253L244.587 249.676L243.727 249.466ZM243.338 250.504L244.113 250.934L242.558 250.087L243.338 250.504ZM243.583 250.063L242.808 249.635L244.359 250.489L243.583 250.063ZM243.103 250.722L243.738 251.339L242.464 250.109L243.103 250.722ZM243.459 250.357L242.829 249.734L244.093 250.974L243.459 250.357ZM242.977 250.74L243.426 251.504L242.512 249.987L242.977 250.74ZM243.4 250.491L242.952 249.728L243.849 251.254L243.4 250.491ZM242.854 250.725L243.1 251.575L242.608 249.874L242.854 250.725ZM243.321 250.593L243.096 249.737L243.565 251.444L243.321 250.593ZM242.77 250.667L242.779 251.553L242.751 249.782L242.77 250.667ZM243.252 250.66L243.258 249.775L243.272 251.546L243.252 250.66ZM242.624 250.585L242.419 251.447L242.82 249.722L242.624 250.585ZM243.099 250.702L243.326 249.846L242.876 251.559L243.099 250.702ZM242.303 250.385L241.87 251.157L242.731 249.61L242.303 250.385ZM242.745 250.633L243.179 249.861L242.312 251.405L242.745 250.633ZM241.7 249.84L241.07 250.462L242.315 249.203L241.7 249.84ZM242.063 250.195L242.682 249.563L241.448 250.833L242.063 250.195ZM240.736 248.463L239.97 248.907L241.496 248.009L240.736 248.463ZM240.985 248.884L241.747 248.433L240.23 249.347L240.985 248.884ZM240.356 247.665L241.163 247.299L241.164 247.303L240.356 247.665ZM237.877 246.666L237.495 245.867L237.496 245.866L237.877 246.666ZM237.681 248.784C238.719 251.066 240.262 253.058 242.494 253.501L242.15 255.238C239.038 254.62 237.165 251.925 236.069 249.517L237.681 248.784ZM242.495 253.501C244.143 253.829 245.801 252.596 246.327 250.863L248.022 251.377C247.308 253.729 244.928 255.792 242.149 255.237L242.495 253.501ZM246.328 250.862C246.711 249.603 246.733 248.26 246.501 246.91L248.247 246.611C248.513 248.167 248.503 249.798 248.022 251.378L246.328 250.862ZM246.501 246.908C246.403 246.33 245.842 245.949 245.397 246.036L245.06 244.297C246.655 243.987 248.015 245.239 248.247 246.614L246.501 246.908ZM245.395 246.036C244.738 246.162 244.173 245.79 243.872 245.559C243.517 245.286 243.191 244.935 242.948 244.657C242.824 244.515 242.712 244.38 242.625 244.276C242.527 244.16 242.48 244.104 242.459 244.082C242.423 244.046 242.495 244.132 242.626 244.2C242.669 244.223 242.758 244.265 242.882 244.286C243.01 244.308 243.225 244.312 243.449 244.189C243.908 243.936 243.902 243.463 243.902 243.434C243.903 243.273 243.853 243.16 243.873 243.217C243.877 243.229 243.889 243.262 243.916 243.324L242.29 244.026C242.257 243.949 242.226 243.873 242.202 243.804C242.193 243.78 242.13 243.613 242.131 243.422C242.131 243.377 242.128 242.895 242.594 242.638C242.821 242.513 243.041 242.517 243.174 242.54C243.302 242.561 243.398 242.606 243.447 242.632C243.604 242.714 243.715 242.834 243.729 242.849C243.807 242.929 243.904 243.045 243.983 243.14C244.074 243.248 244.173 243.367 244.282 243.492C244.507 243.75 244.74 243.992 244.952 244.155C245.217 244.359 245.224 244.266 245.062 244.297L245.395 246.036ZM243.989 243.675C243.989 243.667 243.992 243.724 244.011 243.893C244.028 244.041 244.054 244.234 244.084 244.461C244.146 244.915 244.229 245.487 244.313 246.067C244.396 246.644 244.481 247.228 244.545 247.698C244.605 248.136 244.659 248.551 244.664 248.736L242.894 248.779C242.894 248.782 242.893 248.763 242.888 248.71C242.883 248.662 242.876 248.599 242.867 248.522C242.849 248.368 242.823 248.169 242.791 247.938C242.728 247.476 242.644 246.9 242.56 246.32C242.477 245.743 242.393 245.163 242.33 244.7C242.273 244.279 242.218 243.858 242.218 243.675L243.989 243.675ZM242.893 248.769C242.891 248.605 242.889 248.449 242.885 248.297L244.655 248.249C244.66 248.416 244.662 248.585 244.664 248.746L242.893 248.769ZM244.656 248.257C244.667 248.873 244.621 249.508 244.472 250.144L242.748 249.741C242.856 249.28 242.894 248.796 242.885 248.29L244.656 248.257ZM242.75 249.731C242.789 249.572 242.828 249.414 242.867 249.256L244.587 249.676C244.548 249.836 244.509 249.996 244.47 250.155L242.75 249.731ZM244.586 249.679C244.483 250.098 244.335 250.517 244.119 250.921L242.558 250.087C242.691 249.837 242.792 249.56 242.868 249.253L244.586 249.679ZM242.564 250.075C242.647 249.926 242.728 249.779 242.807 249.636L244.359 250.489C244.278 250.636 244.195 250.786 244.113 250.934L242.564 250.075ZM244.358 250.49C244.195 250.785 243.992 251.074 243.743 251.334L242.464 250.109C242.594 249.974 242.71 249.812 242.808 249.635L244.358 250.49ZM242.469 250.104C242.528 250.043 242.588 249.982 242.647 249.921C242.706 249.86 242.765 249.8 242.824 249.74L244.093 250.974C244.034 251.036 243.974 251.097 243.915 251.157C243.856 251.218 243.797 251.279 243.738 251.339L242.469 250.104ZM244.088 250.979C243.892 251.178 243.68 251.347 243.442 251.494L242.512 249.987C242.629 249.915 242.731 249.834 242.829 249.734L244.088 250.979ZM242.528 249.977C242.598 249.936 242.668 249.895 242.739 249.853C242.809 249.812 242.88 249.77 242.951 249.728L243.849 251.254C243.779 251.295 243.709 251.337 243.639 251.378C243.568 251.42 243.497 251.462 243.426 251.504L242.528 249.977ZM243.849 251.254C243.609 251.395 243.361 251.5 243.1 251.575L242.609 249.874C242.734 249.838 242.844 249.791 242.952 249.728L243.849 251.254ZM242.608 249.874C242.734 249.838 242.969 249.773 243.076 249.742L243.565 251.444C243.359 251.503 243.287 251.521 243.101 251.575L242.608 249.874ZM243.546 251.449C243.295 251.515 243.039 251.55 242.779 251.553L242.762 249.782C242.873 249.781 242.983 249.766 243.096 249.737L243.546 251.449ZM242.751 249.782C242.837 249.78 242.922 249.779 243.002 249.779C243.082 249.778 243.158 249.777 243.233 249.775L243.272 251.546C243.185 251.547 243.101 251.548 243.021 251.549C242.94 251.55 242.865 251.551 242.79 251.553L242.751 249.782ZM243.246 251.546C242.965 251.544 242.692 251.509 242.427 251.449L242.82 249.722C242.972 249.757 243.117 249.774 243.258 249.775L243.246 251.546ZM242.828 249.724C242.985 249.761 243.156 249.802 243.326 249.846L242.873 251.558C242.729 251.52 242.58 251.485 242.419 251.447L242.828 249.724ZM242.876 251.559C242.526 251.468 242.192 251.335 241.876 251.16L242.731 249.61C242.919 249.713 243.116 249.792 243.322 249.846L242.876 251.559ZM242.737 249.613C242.81 249.654 242.884 249.695 242.958 249.737C243.031 249.778 243.105 249.819 243.179 249.861L242.312 251.405C242.239 251.364 242.165 251.323 242.091 251.281C242.018 251.24 241.944 251.199 241.87 251.157L242.737 249.613ZM242.312 251.405C241.848 251.145 241.444 250.823 241.086 250.478L242.315 249.203C242.591 249.469 242.875 249.69 243.179 249.861L242.312 251.405ZM242.331 249.218C242.441 249.33 242.554 249.439 242.677 249.558L241.448 250.833C241.328 250.717 241.198 250.592 241.07 250.462L242.331 249.218ZM241.443 250.828C240.85 250.247 240.376 249.587 239.975 248.916L241.496 248.009C241.844 248.593 242.23 249.119 242.682 249.563L241.443 250.828ZM241.502 248.018C241.585 248.161 241.661 248.294 241.74 248.421L240.23 249.347C240.139 249.198 240.051 249.047 239.97 248.907L241.502 248.018ZM240.223 249.335C239.971 248.91 239.749 248.473 239.549 248.027L241.164 247.303C241.34 247.695 241.533 248.071 241.747 248.433L240.223 249.335ZM239.55 248.031C239.308 247.498 238.666 247.271 238.258 247.465L237.496 245.866C238.956 245.171 240.587 246.031 241.163 247.299L239.55 248.031ZM238.259 247.465C237.885 247.643 237.514 247.607 237.238 247.523C236.969 247.441 236.732 247.297 236.542 247.159C236.16 246.882 235.798 246.501 235.521 246.187C235.377 246.024 235.247 245.868 235.139 245.738C235.025 245.599 234.948 245.505 234.892 245.441C234.862 245.407 234.861 245.407 234.877 245.423C234.88 245.425 234.925 245.469 235 245.513C235.035 245.534 235.122 245.584 235.247 245.613C235.373 245.641 235.636 245.669 235.904 245.504C236.176 245.336 236.269 245.085 236.299 244.952C236.329 244.823 236.321 244.719 236.317 244.678C236.308 244.59 236.288 244.529 236.287 244.527C236.28 244.508 236.281 244.515 236.306 244.569L234.693 245.3C234.663 245.234 234.628 245.153 234.602 245.073C234.592 245.04 234.565 244.957 234.555 244.853C234.55 244.803 234.542 244.693 234.573 244.558C234.604 244.421 234.7 244.166 234.974 243.997C235.246 243.829 235.512 243.857 235.643 243.887C235.773 243.916 235.867 243.969 235.909 243.994C235.996 244.046 236.059 244.103 236.082 244.125C236.139 244.178 236.192 244.237 236.227 244.278C236.303 244.365 236.405 244.49 236.503 244.609C236.608 244.735 236.724 244.875 236.849 245.016C237.107 245.309 237.364 245.568 237.582 245.726C237.632 245.763 237.674 245.789 237.707 245.807C237.74 245.825 237.756 245.83 237.755 245.83C237.755 245.829 237.728 245.821 237.681 245.822C237.629 245.823 237.563 245.834 237.495 245.867L238.259 247.465Z" fill="#211D1D" mask="url(#path-41-inside-14_5368_3941)"/>
</g>
<defs>
<clipPath id="clip0_5368_3941">
<rect width="450" height="269" fill="white"/>
</clipPath>
</defs>
</svg>
