<svg width="378" height="446" viewBox="0 0 378 446" fill="none" xmlns="http://www.w3.org/2000/svg">
<path d="M33.8216 138.168L33.9681 138.646L34.4463 138.5L34.2998 138.022L33.8216 138.168ZM14.5043 144.074L14.0261 144.22L14.1726 144.698L14.6508 144.552L14.5043 144.074ZM2.7565 105.734L3.23465 105.587L2.25726 105.704L2.7565 105.734ZM0.255332 148.43L0.401813 148.909L0.734238 148.807L0.75456 148.46L0.255332 148.43ZM-8.35141 151.062L-8.74861 151.365L-8.53736 151.642L-8.20493 151.54L-8.35141 151.062ZM-34.3481 117.078L-33.9509 116.774L-34.8263 117.224L-34.3481 117.078ZM-22.6004 155.418L-22.4539 155.896L-21.9757 155.75L-22.1222 155.272L-22.6004 155.418ZM-41.9177 161.324L-42.3959 161.47L-42.2494 161.948L-41.7712 161.802L-41.9177 161.324ZM-61.4583 97.5506L-61.6048 97.0725L-62.0829 97.2187L-61.9364 97.6968L-61.4583 97.5506ZM-34.7774 89.3934L-34.3786 89.0919L-34.5896 88.8131L-34.9239 88.9153L-34.7774 89.3934ZM-14.2138 116.569L-14.6126 116.87L-13.7873 117.961L-13.7145 116.595L-14.2138 116.569ZM-12.3998 82.5519L-12.5463 82.0738L-12.8806 82.176L-12.8992 82.525L-12.3998 82.5519ZM14.2811 74.3947L14.7592 74.2485L14.6127 73.7705L14.1346 73.9167L14.2811 74.3947ZM33.6751 137.69L14.3578 143.596L14.6508 144.552L33.9681 138.646L33.6751 137.69ZM14.9824 143.928L3.23465 105.587L2.27834 105.88L14.0261 144.22L14.9824 143.928ZM2.25726 105.704L-0.243901 148.401L0.75456 148.46L3.25573 105.763L2.25726 105.704ZM0.10885 147.952L-8.49789 150.584L-8.20493 151.54L0.401813 148.909L0.10885 147.952ZM-7.95422 150.758L-33.9509 116.774L-34.7453 117.381L-8.74861 151.365L-7.95422 150.758ZM-34.8263 117.224L-23.0785 155.564L-22.1222 155.272L-33.87 116.931L-34.8263 117.224ZM-22.7468 154.94L-42.0642 160.846L-41.7712 161.802L-22.4539 155.896L-22.7468 154.94ZM-41.4396 161.178L-60.9801 97.4044L-61.9364 97.6968L-42.3959 161.47L-41.4396 161.178ZM-61.3118 98.0286L-34.6309 89.8715L-34.9239 88.9153L-61.6048 97.0725L-61.3118 98.0286ZM-35.1762 89.6949L-14.6126 116.87L-13.8151 116.267L-34.3786 89.0919L-35.1762 89.6949ZM-13.7145 116.595L-11.9005 82.5788L-12.8992 82.525L-14.7132 116.542L-13.7145 116.595ZM-12.2534 83.03L14.4275 74.8728L14.1346 73.9167L-12.5463 82.0738L-12.2534 83.03ZM13.8029 74.5409L33.3435 138.314L34.2998 138.022L14.7592 74.2485L13.8029 74.5409Z" fill="#1E1F21"/>
<path d="M83.0083 141.832L82.9994 142.332L83.4993 142.34L83.5082 141.841L83.0083 141.832ZM37.5152 141.038L37.0153 141.029L37.0064 141.529L37.5063 141.538L37.5152 141.038ZM38.7075 74.3484L38.7164 73.8485L38.2165 73.8398L38.2075 74.3397L38.7075 74.3484ZM58.9044 74.7009L59.4043 74.7097L59.4132 74.2098L58.9133 74.201L58.9044 74.7009ZM58.0268 123.793L57.5268 123.784L57.5179 124.284L58.0178 124.293L58.0268 123.793ZM83.3229 124.235L83.8228 124.243L83.8318 123.743L83.3318 123.735L83.3229 124.235ZM83.0173 141.332L37.5242 140.538L37.5063 141.538L82.9994 142.332L83.0173 141.332ZM38.0152 141.046L39.2074 74.3571L38.2075 74.3397L37.0153 141.029L38.0152 141.046ZM38.6985 74.8483L58.8954 75.2009L58.9133 74.201L38.7164 73.8485L38.6985 74.8483ZM58.4045 74.6922L57.5268 123.784L58.5267 123.802L59.4043 74.7097L58.4045 74.6922ZM58.0178 124.293L83.314 124.735L83.3318 123.735L58.0357 123.293L58.0178 124.293ZM82.823 124.226L82.5084 141.823L83.5082 141.841L83.8228 124.243L82.823 124.226Z" fill="#1E1F21"/>
<path d="M157.401 164.252L157.254 164.73L157.94 164.939L157.901 164.223L157.401 164.252ZM135.502 157.556L135.002 157.557L135.002 157.926L135.355 158.034L135.502 157.556ZM135.496 149.398L135.996 149.397L135.996 149.028L135.643 148.92L135.496 149.398ZM112.545 142.381L112.692 141.903L112.338 141.795L112.131 142.101L112.545 142.381ZM107.96 149.136L107.813 149.614L108.167 149.722L108.374 149.416L107.96 149.136ZM86.0608 142.441L85.6629 142.138L85.228 142.709L85.914 142.919L86.0608 142.441ZM129.164 85.871L129.311 85.393L128.977 85.2911L128.766 85.5684L129.164 85.871ZM153.454 93.2972L153.953 93.269L153.934 92.9211L153.601 92.8192L153.454 93.2972ZM135.498 130.995L135.351 131.473L135.998 131.67L135.998 130.994L135.498 130.995ZM135.497 108.512L135.997 108.511L135.997 106.883L135.083 108.232L135.497 108.512ZM122.875 127.135L122.461 126.855L122.081 127.415L122.728 127.613L122.875 127.135ZM157.548 163.774L135.648 157.078L135.355 158.034L157.254 164.73L157.548 163.774ZM136.002 157.555L135.996 149.397L134.996 149.399L135.002 157.557L136.002 157.555ZM135.643 148.92L112.692 141.903L112.398 142.859L135.349 149.876L135.643 148.92ZM112.131 142.101L107.546 148.856L108.374 149.416L112.959 142.662L112.131 142.101ZM108.107 148.658L86.2075 141.963L85.914 142.919L107.813 149.614L108.107 148.658ZM86.4586 142.743L129.562 86.1735L128.766 85.5684L85.6629 142.138L86.4586 142.743ZM129.017 86.349L153.307 93.7752L153.601 92.8192L129.311 85.393L129.017 86.349ZM152.955 93.3255L156.902 164.28L157.901 164.223L153.953 93.269L152.955 93.3255ZM135.998 130.994L135.997 108.511L134.997 108.512L134.998 130.995L135.998 130.994ZM135.083 108.232L122.461 126.855L123.289 127.415L135.911 108.792L135.083 108.232ZM122.728 127.613L135.351 131.473L135.645 130.517L123.022 126.657L122.728 127.613Z" fill="#1E1F21"/>
<path d="M202.571 189.466L202.642 189.96L202.645 189.96L202.571 189.466ZM162.187 161.188L161.696 161.287L161.698 161.293L162.187 161.188ZM189.942 107.254L190.229 106.845L189.82 106.558L189.532 106.967L189.942 107.254ZM206.734 119.012L207.144 119.299L207.431 118.89L207.022 118.603L206.734 119.012ZM182.391 159.221L181.897 159.3L181.898 159.308L181.9 159.315L182.391 159.221ZM197.464 169.775L197.377 169.283L197.464 169.775ZM227.131 133.294L227.419 132.885L227.009 132.598L226.722 133.008L227.131 133.294ZM243.924 145.053L244.333 145.339L244.621 144.93L244.211 144.644L243.924 145.053ZM202.5 188.971C195.149 190.027 187.065 187.52 178.223 181.329L177.648 182.147C186.609 188.421 194.949 191.066 202.642 189.96L202.5 188.971ZM178.223 181.329C169.382 175.138 164.238 168.384 162.676 161.084L161.698 161.293C163.331 168.927 168.687 175.872 177.648 182.147L178.223 181.329ZM162.678 161.09C161.204 153.758 162.88 146.636 167.756 139.696L166.937 139.122C161.925 146.255 160.161 153.652 161.697 161.287L162.678 161.09ZM167.756 139.696L190.351 107.541L189.532 106.967L166.937 139.122L167.756 139.696ZM189.654 107.663L206.447 119.421L207.022 118.603L190.229 106.845L189.654 107.663ZM206.325 118.726L184.132 150.308L184.951 150.882L207.144 119.299L206.325 118.726ZM184.132 150.308C182.148 153.131 181.392 156.136 181.897 159.3L182.885 159.142C182.425 156.259 183.103 153.513 184.951 150.882L184.132 150.308ZM181.9 159.315C182.506 162.486 184.533 165.238 187.882 167.583L188.457 166.765C185.253 164.521 183.427 161.972 182.883 159.127L181.9 159.315ZM187.882 167.583C191.178 169.891 194.409 170.818 197.55 170.267L197.377 169.283C194.57 169.776 191.605 168.969 188.457 166.765L187.882 167.583ZM197.55 170.267C200.758 169.704 203.362 167.991 205.348 165.164L204.529 164.59C202.683 167.217 200.304 168.77 197.377 169.283L197.55 170.267ZM205.348 165.164L227.541 133.581L226.722 133.008L204.529 164.59L205.348 165.164ZM226.844 133.703L243.636 145.462L244.211 144.644L227.419 132.885L226.844 133.703ZM243.514 144.766L220.977 176.839L221.796 177.413L244.333 145.339L243.514 144.766ZM220.977 176.839C216.061 183.835 209.904 187.859 202.497 188.972L202.645 189.96C210.36 188.801 216.746 184.599 221.796 177.413L220.977 176.839Z" fill="#1E1F21"/>
<path d="M244.668 252.033L244.268 252.333L244.569 252.732L244.969 252.432L244.668 252.033ZM232.992 236.539L232.514 236.393L232.439 236.636L232.593 236.839L232.992 236.539ZM245.211 196.591L245.69 196.737L246.139 195.269L244.911 196.192L245.211 196.591ZM218.188 216.893L217.788 217.193L218.089 217.592L218.489 217.292L218.188 216.893ZM206.031 200.76L205.73 200.361L205.33 200.661L205.631 201.06L206.031 200.76ZM259.359 160.697L259.759 160.397L259.458 159.998L259.058 160.298L259.359 160.697ZM271.877 177.309L272.356 177.453L272.429 177.211L272.277 177.009L271.877 177.309ZM260.574 214.818L260.095 214.673L259.655 216.133L260.875 215.217L260.574 214.818ZM285.839 195.837L286.239 195.537L285.938 195.138L285.538 195.438L285.839 195.837ZM297.996 211.97L298.296 212.369L298.696 212.069L298.395 211.669L297.996 211.97ZM245.067 251.732L233.392 236.239L232.593 236.839L244.268 252.333L245.067 251.732ZM233.471 236.685L245.69 196.737L244.733 196.445L232.514 236.393L233.471 236.685ZM244.911 196.192L217.887 216.493L218.489 217.292L245.512 196.99L244.911 196.192ZM218.588 216.592L206.431 200.46L205.631 201.06L217.788 217.193L218.588 216.592ZM206.332 201.159L259.66 161.097L259.058 160.298L205.73 200.361L206.332 201.159ZM258.959 160.998L271.477 177.609L272.277 177.009L259.759 160.397L258.959 160.998ZM271.398 177.165L260.095 214.673L261.053 214.962L272.356 177.453L271.398 177.165ZM260.875 215.217L286.14 196.237L285.538 195.438L260.273 214.418L260.875 215.217ZM285.439 196.138L297.596 212.27L298.395 211.669L286.239 195.537L285.439 196.138ZM297.695 211.57L244.367 251.633L244.969 252.432L298.296 212.369L297.695 211.57Z" fill="#1E1F21"/>
<path d="M254.801 257.537L254.344 257.333L254.342 257.338L254.801 257.537ZM301.899 241.357L301.662 241.797L301.899 241.357ZM320.528 283.173L320.053 283.015L320.052 283.018L320.528 283.173ZM311.058 298.058L310.698 298.404L311.037 298.757L311.397 298.425L311.058 298.058ZM297.732 284.237L297.431 283.838L296.98 284.177L297.372 284.584L297.732 284.237ZM302.568 277.395L302.098 277.225L302.095 277.233L302.568 277.395ZM294.357 259.386L294.562 258.93L294.357 259.386ZM271.849 267.118L271.406 266.884L271.849 267.118ZM276.371 286.395L276.097 286.813L276.105 286.818L276.371 286.395ZM284.492 288.786L284.989 288.836L285.045 288.277L284.483 288.286L284.492 288.786ZM282.591 307.837L282.552 308.335L283.04 308.373L283.088 307.887L282.591 307.837ZM274.763 306.297L274.602 306.77L274.609 306.772L274.763 306.297ZM267.04 302.605L267.299 302.178L267.04 302.605ZM259.603 295.75L259.204 296.051L259.208 296.056L259.603 295.75ZM254.757 285.361C251.363 275.505 251.541 266.307 255.259 257.736L254.342 257.338C250.513 266.163 250.346 275.622 253.811 285.686L254.757 285.361ZM255.257 257.741C259.055 249.22 265.664 243.337 275.127 240.087L274.801 239.141C265.096 242.475 258.263 248.541 254.344 257.333L255.257 257.741ZM275.127 240.087C284.653 236.814 293.485 237.393 301.662 241.797L302.136 240.917C293.692 236.369 284.568 235.786 274.801 239.141L275.127 240.087ZM301.662 241.797C309.847 246.206 315.652 253.348 319.068 263.268L320.013 262.943C316.527 252.817 310.571 245.461 302.136 240.917L301.662 241.797ZM319.068 263.268C321.647 270.76 321.956 277.332 320.054 283.015L321.002 283.332C322.993 277.386 322.643 270.579 320.013 262.943L319.068 263.268ZM320.052 283.018C318.153 288.817 315.042 293.705 310.719 297.69L311.397 298.425C315.851 294.32 319.053 289.285 321.003 283.329L320.052 283.018ZM311.418 297.711L298.092 283.89L297.372 284.584L310.698 298.404L311.418 297.711ZM298.033 284.637C300.36 282.886 302.028 280.519 303.041 277.557L302.095 277.233C301.14 280.022 299.584 282.217 297.431 283.838L298.033 284.637ZM303.038 277.565C304.122 274.566 304.173 271.613 303.179 268.726L302.233 269.051C303.149 271.711 303.108 274.429 302.098 277.225L303.038 277.565ZM303.179 268.726C301.576 264.071 298.704 260.789 294.562 258.93L294.153 259.842C298.017 261.576 300.711 264.63 302.233 269.051L303.179 268.726ZM294.562 258.93C290.433 257.076 286.061 256.949 281.475 258.524L281.801 259.47C286.168 257.97 290.275 258.101 294.153 259.842L294.562 258.93ZM281.475 258.524C276.889 260.1 273.52 262.886 271.406 266.884L272.291 267.352C274.276 263.597 277.434 260.97 281.801 259.47L281.475 258.524ZM271.406 266.884C269.286 270.895 269.042 275.247 270.645 279.903L271.591 279.578C270.069 275.156 270.312 271.094 272.291 267.352L271.406 266.884ZM270.645 279.903C271.638 282.785 273.461 285.092 276.097 286.813L276.644 285.976C274.187 284.372 272.508 282.242 271.591 279.578L270.645 279.903ZM276.105 286.818C278.788 288.505 281.59 289.334 284.5 289.286L284.483 288.286C281.786 288.331 279.173 287.566 276.637 285.971L276.105 286.818ZM283.994 288.736L282.093 307.787L283.088 307.887L284.989 288.836L283.994 288.736ZM282.629 307.339C279.988 307.134 277.417 306.629 274.916 305.821L274.609 306.772C277.185 307.604 279.833 308.125 282.552 308.335L282.629 307.339ZM274.923 305.823C272.488 304.996 269.947 303.782 267.299 302.178L266.781 303.033C269.479 304.668 272.086 305.915 274.602 306.77L274.923 305.823ZM267.299 302.178C264.688 300.596 262.253 298.356 259.998 295.444L259.208 296.056C261.523 299.046 264.047 301.376 266.781 303.033L267.299 302.178ZM260.002 295.449C257.837 292.586 256.087 289.226 254.757 285.361L253.811 285.686C255.171 289.637 256.968 293.094 259.204 296.051L260.002 295.449Z" fill="#1E1F21"/>
<path d="M263.949 374.773L263.449 374.773V375.273L263.949 375.273V374.773ZM263.949 354.573V354.073L263.449 354.073V354.573L263.949 354.573ZM289.449 354.564V355.064L289.949 355.064V354.564L289.449 354.564ZM289.449 330.664L289.949 330.664V330.164L289.449 330.164V330.664ZM263.949 330.673L263.449 330.673V331.173L263.949 331.173V330.673ZM263.949 310.473V309.973L263.449 309.973V310.473L263.949 310.473ZM330.649 310.451L331.149 310.451V309.951L330.649 309.951V310.451ZM330.649 330.651V331.151L331.149 331.151V330.651L330.649 330.651ZM307.049 330.659V330.159L306.549 330.159V330.659L307.049 330.659ZM307.049 354.559L306.549 354.559V355.059L307.049 355.059V354.559ZM330.649 354.551L331.149 354.551V354.051L330.649 354.051V354.551ZM330.649 374.751V375.251L331.149 375.251V374.751L330.649 374.751ZM264.449 374.772V354.572L263.449 354.573V374.773L264.449 374.772ZM263.949 355.073L289.449 355.064V354.064L263.949 354.073V355.073ZM289.949 354.564V330.664L288.949 330.665V354.565L289.949 354.564ZM289.449 330.164L263.949 330.173V331.173L289.449 331.164V330.164ZM264.449 330.672V310.472L263.449 310.473V330.673L264.449 330.672ZM263.949 310.973L330.649 310.951V309.951L263.949 309.973V310.973ZM330.149 310.451V330.651L331.149 330.651V310.451L330.149 310.451ZM330.649 330.151L307.049 330.159V331.159L330.649 331.151V330.151ZM306.549 330.659V354.559L307.549 354.559V330.659L306.549 330.659ZM307.049 355.059L330.649 355.051V354.051L307.049 354.059V355.059ZM330.149 354.551V374.751L331.149 374.751V354.551L330.149 354.551ZM330.649 374.251L263.949 374.273V375.273L330.649 375.251V374.251Z" fill="#1E1F21"/>
</svg>
