<svg width="254" height="275" viewBox="0 0 254 275" fill="none" xmlns="http://www.w3.org/2000/svg">
<path d="M27.7079 89.3799L27.2297 89.5259L27.3762 90.0039L27.8544 89.8579L27.7079 89.3799ZM39.6589 85.7321L39.8054 86.2102L40.2837 86.0642L40.1371 85.5862L39.6589 85.7321ZM27.5674 46.2844L28.0456 46.1385L27.8991 45.6604L27.4209 45.8064L27.5674 46.2844ZM11.0608 51.3227L10.9143 50.8446L10.5731 50.9488L10.561 51.3052L11.0608 51.3227ZM10.3023 73.5438L9.89779 73.8373L10.7526 75.0129L10.8022 73.5613L10.3023 73.5438ZM-2.78339 55.5483L-2.37887 55.2547L-2.58874 54.9661L-2.92992 55.0703L-2.78339 55.5483ZM-19.29 60.5866L-19.4365 60.1085L-19.9147 60.2545L-19.7682 60.7325L-19.29 60.5866ZM-7.19847 100.034L-7.67669 100.18L-7.53016 100.658L-7.05194 100.512L-7.19847 100.034ZM4.75253 96.3865L4.89906 96.8645L5.37728 96.7186L5.23075 96.2405L4.75253 96.3865ZM-2.87943 71.4877L-2.4775 71.1906L-3.35765 71.6337L-2.87943 71.4877ZM13.5679 93.6958L13.1659 93.9929L13.3764 94.277L13.7144 94.1739L13.5679 93.6958ZM18.8926 92.0706L19.0391 92.5486L19.3771 92.4454L19.3923 92.0925L18.8926 92.0706ZM20.076 64.4811L20.5542 64.3352L19.5762 64.4592L20.076 64.4811ZM27.8544 89.8579L39.8054 86.2102L39.5124 85.2541L27.5614 88.9018L27.8544 89.8579ZM40.1371 85.5862L28.0456 46.1385L27.0892 46.4304L39.1807 85.8781L40.1371 85.5862ZM27.4209 45.8064L10.9143 50.8446L11.2074 51.8007L27.7139 46.7625L27.4209 45.8064ZM10.561 51.3052L9.80243 73.5262L10.8022 73.5613L11.5607 51.3402L10.561 51.3052ZM10.7068 73.2502L-2.37887 55.2547L-3.1879 55.8419L9.89779 73.8373L10.7068 73.2502ZM-2.92992 55.0703L-19.4365 60.1085L-19.1434 61.0646L-2.63686 56.0264L-2.92992 55.0703ZM-19.7682 60.7325L-7.67669 100.18L-6.72025 99.8883L-18.8117 60.4406L-19.7682 60.7325ZM-7.05194 100.512L4.89906 96.8645L4.606 95.9084L-7.345 99.5562L-7.05194 100.512ZM5.23075 96.2405L-2.40121 71.3418L-3.35765 71.6337L4.27431 96.5325L5.23075 96.2405ZM-3.28136 71.7848L13.1659 93.9929L13.9698 93.3987L-2.4775 71.1906L-3.28136 71.7848ZM13.7144 94.1739L19.0391 92.5486L18.746 91.5925L13.4213 93.2178L13.7144 94.1739ZM19.3923 92.0925L20.5757 64.503L19.5762 64.4592L18.3929 92.0487L19.3923 92.0925ZM19.5977 64.6271L27.2297 89.5259L28.1861 89.2339L20.5542 64.3352L19.5977 64.6271Z" fill="#1E1F21"/>
<path d="M42.431 87.5357L41.9311 87.5271L41.9221 88.0271L42.422 88.0356L42.431 87.5357ZM70.5722 88.0185L70.5632 88.5185L71.0632 88.527L71.0721 88.0271L70.5722 88.0185ZM70.7674 77.1333L71.2673 77.1419L71.2763 76.642L70.7764 76.6334L70.7674 77.1333ZM55.1196 76.8648L54.6197 76.8562L54.6108 77.3562L55.1107 77.3647L55.1196 76.8648ZM55.6642 46.4975L56.1641 46.506L56.1731 46.0061L55.6731 45.9975L55.6642 46.4975ZM43.1707 46.2831L43.1797 45.7832L42.6797 45.7746L42.6708 46.2745L43.1707 46.2831ZM42.422 88.0356L70.5632 88.5185L70.5812 87.5186L42.44 87.0358L42.422 88.0356ZM71.0721 88.0271L71.2673 77.1419L70.2675 77.1247L70.0723 88.01L71.0721 88.0271ZM70.7764 76.6334L55.1286 76.3649L55.1107 77.3647L70.7584 77.6332L70.7764 76.6334ZM55.6196 76.8734L56.1641 46.506L55.1642 46.4889L54.6197 76.8562L55.6196 76.8734ZM55.6731 45.9975L43.1797 45.7832L43.1617 46.783L55.6552 46.9974L55.6731 45.9975ZM42.6708 46.2745L41.9311 87.5271L42.9309 87.5443L43.6706 46.2917L42.6708 46.2745Z" fill="#1E1F21"/>
<path d="M103.585 97.9744L103.085 97.9731L103.083 98.3441L103.438 98.4523L103.585 97.9744ZM116.544 101.924L116.397 102.402L117.083 102.611L117.043 101.895L116.544 101.924ZM114.106 58.0479L114.605 58.0193L114.586 57.6715L114.252 57.5699L114.106 58.0479ZM99.0761 53.4675L99.223 52.9895L98.8896 52.8879L98.6782 53.1653L99.0761 53.4675ZM72.4021 88.4709L72.0042 88.1687L71.5691 88.7397L72.2552 88.9488L72.4021 88.4709ZM85.3605 92.4202L85.2137 92.8981L85.5688 93.0063L85.7759 92.698L85.3605 92.4202ZM88.4614 87.8038L88.6083 87.3259L88.2532 87.2177L88.0461 87.526L88.4614 87.8038ZM103.609 92.4203L104.11 92.4215L104.111 92.0506L103.756 91.9424L103.609 92.4203ZM103.357 66.2828L103.857 66.2744L103.834 64.7296L102.947 65.997L103.357 66.2828ZM103.585 81.5488L103.438 82.0268L104.095 82.2271L104.085 81.5404L103.585 81.5488ZM94.5905 78.8078L94.1806 78.522L93.7863 79.0854L94.4437 79.2857L94.5905 78.8078ZM103.438 98.4523L116.397 102.402L116.691 101.446L103.732 97.4964L103.438 98.4523ZM117.043 101.895L114.605 58.0193L113.606 58.0765L116.044 101.952L117.043 101.895ZM114.252 57.5699L99.223 52.9895L98.9293 53.9454L113.959 58.5258L114.252 57.5699ZM98.6782 53.1653L72.0042 88.1687L72.8 88.773L99.474 53.7696L98.6782 53.1653ZM72.2552 88.9488L85.2137 92.8981L85.5074 91.9422L72.5489 87.9929L72.2552 88.9488ZM85.7759 92.698L88.8767 88.0817L88.0461 87.526L84.9452 92.1423L85.7759 92.698ZM88.3146 88.2818L103.462 92.8983L103.756 91.9424L88.6083 87.3259L88.3146 88.2818ZM103.109 92.4191L103.085 97.9731L104.086 97.9756L104.11 92.4215L103.109 92.4191ZM102.857 66.2912L103.084 81.5572L104.085 81.5404L103.857 66.2744L102.857 66.2912ZM103.731 81.0709L94.7374 78.3298L94.4437 79.2857L103.438 82.0268L103.731 81.0709ZM95.0004 79.0935L103.767 66.5685L102.947 65.997L94.1806 78.522L95.0004 79.0935Z" fill="#1E1F21"/>
<path d="M168.956 89.4095L169.366 89.6958L169.654 89.2867L169.244 89.0005L168.956 89.4095ZM158.56 82.1487L158.847 81.7397L158.438 81.4534L158.15 81.8624L158.56 82.1487ZM146.845 73.967L147.255 74.2533L147.542 73.8443L147.132 73.558L146.845 73.967ZM136.448 66.7063L136.736 66.2972L136.326 66.0109L136.039 66.42L136.448 66.7063ZM122.057 86.3069C119.067 90.5598 117.681 95.1626 118.546 99.7495C119.411 104.335 122.507 108.81 128.283 112.844L128.858 112.026C123.224 108.091 120.333 103.819 119.53 99.564C118.728 95.3097 119.996 90.9762 122.877 86.8795L122.057 86.3069ZM128.283 112.844C134.06 116.878 139.324 118.243 143.937 117.471C148.55 116.7 152.413 113.809 155.42 109.532L154.6 108.96C151.701 113.083 148.05 115.771 143.772 116.487C139.495 117.202 134.492 115.961 128.858 112.026L128.283 112.844ZM155.42 109.532L169.366 89.6958L168.546 89.1232L154.6 108.96L155.42 109.532ZM169.244 89.0005L158.847 81.7397L158.272 82.5577L168.669 89.8185L169.244 89.0005ZM158.15 81.8624L144.417 101.395L145.237 101.968L158.97 82.435L158.15 81.8624ZM144.417 101.395C143.324 102.95 141.977 104.014 140.456 104.372C138.949 104.727 137.182 104.409 135.191 103.019L134.616 103.837C136.784 105.351 138.84 105.779 140.686 105.344C142.518 104.913 144.053 103.652 145.237 101.968L144.417 101.395ZM135.191 103.019C133.174 101.61 132.258 100.053 132.073 98.5156C131.886 96.9657 132.429 95.3405 133.522 93.7861L132.702 93.2135C131.518 94.8977 130.853 96.7666 131.078 98.636C131.305 100.518 132.424 102.306 134.616 103.837L135.191 103.019ZM133.522 93.7861L147.255 74.2533L146.435 73.6808L132.702 93.2135L133.522 93.7861ZM147.132 73.558L136.736 66.2972L136.161 67.1153L146.557 74.3761L147.132 73.558ZM136.039 66.42L122.057 86.3069L122.877 86.8795L136.858 66.9925L136.039 66.42Z" fill="#1E1F21"/>
<path d="M163.389 146.281L162.914 146.122L162.83 146.371L162.989 146.581L163.389 146.281ZM170.621 155.857L170.221 156.157L170.523 156.556L170.922 156.256L170.621 155.857ZM203.614 131.083L203.916 131.482L204.316 131.182L204.014 130.783L203.614 131.083ZM196.084 121.112L196.484 120.812L196.182 120.413L195.782 120.713L196.084 121.112ZM179.463 133.592L178.988 133.434L178.482 134.954L179.765 133.991L179.463 133.592ZM187.435 109.66L187.91 109.818L187.993 109.569L187.834 109.36L187.435 109.66ZM179.68 99.3928L180.08 99.0926L179.779 98.6936L179.379 98.9938L179.68 99.3928ZM146.687 124.167L146.386 123.768L145.986 124.068L146.287 124.467L146.687 124.167ZM154.218 134.138L153.818 134.438L154.119 134.837L154.519 134.537L154.218 134.138ZM171.926 120.841L172.401 121L172.913 119.475L171.625 120.442L171.926 120.841ZM162.989 146.581L170.221 156.157L171.021 155.557L163.788 145.981L162.989 146.581ZM170.922 156.256L203.916 131.482L203.313 130.684L170.32 155.458L170.922 156.256ZM204.014 130.783L196.484 120.812L195.684 121.412L203.215 131.383L204.014 130.783ZM195.782 120.713L179.162 133.193L179.765 133.991L196.385 121.511L195.782 120.713ZM179.939 133.75L187.91 109.818L186.959 109.502L178.988 133.434L179.939 133.75ZM187.834 109.36L180.08 99.0926L179.28 99.693L187.035 109.96L187.834 109.36ZM179.379 98.9938L146.386 123.768L146.988 124.566L179.982 99.7918L179.379 98.9938ZM146.287 124.467L153.818 134.438L154.617 133.838L147.087 123.867L146.287 124.467ZM154.519 134.537L172.227 121.24L171.625 120.442L153.916 133.739L154.519 134.537ZM171.451 120.682L162.914 146.122L163.863 146.44L172.401 121L171.451 120.682Z" fill="#1E1F21"/>
<path d="M194.255 189.675L194.215 190.173L194.704 190.214L194.753 189.725L194.255 189.675ZM195.426 177.893L195.924 177.943L195.979 177.385L195.418 177.393L195.426 177.893ZM203.617 175.08L203.315 174.682L202.865 175.021L203.257 175.427L203.617 175.08ZM211.865 183.628L211.505 183.975L211.844 184.326L212.203 183.997L211.865 183.628ZM176.161 175.744C179.874 186.508 188.082 189.669 194.215 190.173L194.296 189.177C188.442 188.696 180.656 185.708 177.107 175.42L176.161 175.744ZM194.753 189.725L195.924 177.943L194.928 177.843L193.757 189.625L194.753 189.725ZM195.418 177.393C192.229 177.441 188.755 175.421 187.521 171.843L186.575 172.168C187.963 176.193 191.853 178.446 195.434 178.393L195.418 177.393ZM187.521 171.843C185.768 166.76 188.598 161.734 193.815 159.943L193.489 158.997C187.824 160.943 184.617 166.492 186.575 172.168L187.521 171.843ZM193.815 159.943C199.032 158.151 204.363 160.375 206.116 165.458L207.062 165.133C205.104 159.457 199.153 157.052 193.489 158.997L193.815 159.943ZM206.116 165.458C207.35 169.036 205.858 172.761 203.315 174.682L203.919 175.479C206.774 173.323 208.45 169.158 207.062 165.133L206.116 165.458ZM203.257 175.427L211.505 183.975L212.225 183.281L203.977 174.734L203.257 175.427ZM212.203 183.997C214.538 181.86 216.789 178.944 217.988 175.204C219.189 171.457 219.324 166.916 217.475 161.557L216.53 161.882C218.312 167.05 218.166 171.369 217.035 174.898C215.901 178.434 213.768 181.209 211.527 183.259L212.203 183.997ZM217.475 161.557C213.282 149.4 201.698 142.771 189.354 147.01L189.68 147.955C201.439 143.917 212.494 150.181 216.53 161.882L217.475 161.557ZM189.354 147.01C177.069 151.228 171.967 163.586 176.161 175.744L177.107 175.42C173.072 163.72 177.978 151.973 189.68 147.955L189.354 147.01Z" fill="#1E1F21"/>
<path d="M182.192 217.975L182.192 217.475L181.692 217.475L181.692 217.975L182.192 217.975ZM182.189 230.47L181.689 230.47L181.689 230.97L182.189 230.97L182.189 230.47ZM223.448 230.454L223.448 230.954L223.948 230.954L223.948 230.454L223.448 230.454ZM223.452 217.958L223.952 217.958L223.952 217.458L223.452 217.458L223.452 217.958ZM208.853 217.964L208.353 217.964L208.353 218.464L208.853 218.464L208.853 217.964ZM208.857 203.18L208.857 202.68L208.357 202.68L208.357 203.18L208.857 203.18ZM223.455 203.174L223.455 203.674L223.955 203.674L223.955 203.174L223.455 203.174ZM223.459 190.679L223.959 190.679L223.959 190.179L223.459 190.179L223.459 190.679ZM182.199 190.695L182.199 190.195L181.699 190.195L181.699 190.695L182.199 190.695ZM182.196 203.19L181.696 203.191L181.696 203.691L182.196 203.69L182.196 203.19ZM197.97 203.184L198.47 203.184L198.47 202.684L197.97 202.684L197.97 203.184ZM197.966 217.968L197.966 218.468L198.466 218.468L198.466 217.968L197.966 217.968ZM181.692 217.975L181.689 230.47L182.689 230.47L182.692 217.974L181.692 217.975ZM182.189 230.97L223.448 230.954L223.449 229.954L182.189 229.97L182.189 230.97ZM223.948 230.454L223.952 217.958L222.952 217.959L222.948 230.454L223.948 230.454ZM223.452 217.458L208.853 217.464L208.853 218.464L223.451 218.458L223.452 217.458ZM209.353 217.964L209.357 203.18L208.357 203.18L208.353 217.964L209.353 217.964ZM208.857 203.68L223.455 203.674L223.456 202.674L208.857 202.68L208.857 203.68ZM223.955 203.174L223.959 190.679L222.959 190.679L222.955 203.175L223.955 203.174ZM223.459 190.179L182.199 190.195L182.199 191.195L223.458 191.179L223.459 190.179ZM181.699 190.695L181.696 203.191L182.696 203.19L182.699 190.695L181.699 190.695ZM182.196 203.69L197.97 203.684L197.97 202.684L182.196 202.69L182.196 203.69ZM197.47 203.185L197.466 217.969L198.466 217.968L198.47 203.184L197.47 203.185ZM197.966 217.468L182.192 217.475L182.192 218.475L197.966 218.468L197.966 217.468Z" fill="#1E1F21"/>
</svg>
