<svg width="80" height="36" viewBox="0 0 80 36" xmlns="http://www.w3.org/2000/svg">
<path d="M5.86748 13.0485C4.74245 13.0485 3.64338 12.8773 2.57027 12.5348C1.51447 12.1923 0.657712 11.73 0 11.1477L1.66159 8.42503C2.14622 8.85313 2.82124 9.23842 3.68665 9.5809C4.56937 9.90626 5.36555 10.0689 6.07518 10.0689C7.20022 10.0689 7.76273 9.75214 7.76273 9.11855C7.76273 8.82744 7.51176 8.61339 7.00983 8.4764C6.50789 8.32228 5.9021 8.19385 5.19246 8.09111C4.48283 7.97124 3.76454 7.8 3.03759 7.57739C2.32795 7.35478 1.72217 6.95236 1.22023 6.37014C0.718291 5.78793 0.467322 5.03447 0.467322 4.10977C0.467322 2.96246 0.943298 1.99495 1.89525 1.20724C2.8472 0.419539 4.16262 0.0256857 5.84152 0.0256857C7.81466 0.0256857 9.56279 0.573655 11.0859 1.66959L9.55413 4.28957C9.15604 3.91284 8.61949 3.59605 7.94447 3.33919C7.26945 3.0652 6.57712 2.92821 5.86748 2.92821C5.40016 2.92821 5.01938 3.01383 4.72514 3.18507C4.4309 3.35631 4.28378 3.57036 4.28378 3.82722C4.28378 4.08408 4.53475 4.28101 5.03669 4.418C5.53863 4.53787 6.14441 4.6663 6.85405 4.80329C7.56369 4.92316 8.27332 5.10296 8.98296 5.3427C9.70991 5.58244 10.3243 6.01054 10.8263 6.627C11.3282 7.22635 11.5792 7.99693 11.5792 8.93875C11.5792 10.1546 11.0686 11.1477 10.0474 11.9183C9.02623 12.6718 7.63292 13.0485 5.86748 13.0485Z"/>
<path d="M19.6632 13.0485C17.6901 13.0485 16.0544 12.4492 14.7563 11.2505C13.4582 10.0347 12.8092 8.45928 12.8092 6.52426C12.8092 4.60637 13.4582 3.04808 14.7563 1.8494C16.0544 0.633589 17.6901 0.0256857 19.6632 0.0256857C20.9094 0.0256857 21.9652 0.248298 22.8306 0.693524C23.7133 1.13875 24.371 1.67816 24.8037 2.31175L22.2075 4.70055C21.671 3.91284 20.8834 3.51899 19.8449 3.51899C18.9968 3.51899 18.2959 3.79297 17.742 4.34094C17.1881 4.87179 16.9112 5.59956 16.9112 6.52426C16.9112 7.44896 17.1881 8.18529 17.742 8.73326C18.2959 9.28123 18.9968 9.55521 19.8449 9.55521C20.8488 9.55521 21.6363 9.1528 22.2075 8.34797L24.8037 10.7625C24.371 11.396 23.7133 11.9355 22.8306 12.3807C21.9652 12.8259 20.9094 13.0485 19.6632 13.0485Z" />
<path d="M30.6193 12.7403H26.6211V0.333919H30.6193V1.8494C31.052 1.33568 31.6318 0.899012 32.3588 0.539407C33.0857 0.179802 33.8127 0 34.5396 0V3.80154C34.2281 3.73304 33.8992 3.69879 33.553 3.69879C32.9992 3.69879 32.428 3.8101 31.8395 4.03271C31.2684 4.2382 30.8616 4.50362 30.6193 4.82898V12.7403Z" />
<path d="M48.8189 12.7403H44.8207V11.2505C43.7476 12.4492 42.3024 13.0485 40.485 13.0485C39.1003 13.0485 38.0618 12.706 37.3695 12.0211C36.6945 11.319 36.357 10.3686 36.357 9.16992V0.333919H40.3552V7.5517C40.3552 8.88738 41.0475 9.55521 42.4322 9.55521C43.3841 9.55521 44.1803 9.1528 44.8207 8.34797V0.333919H48.8189V12.7403Z" />
<path d="M71.5047 12.7403H67.5324V5.18858C67.5324 4.07552 66.9786 3.51899 65.8709 3.51899C64.9708 3.51899 64.2179 3.92141 63.6121 4.72624V12.7403H59.6139V5.18858C59.6139 4.07552 59.0601 3.51899 57.9524 3.51899C57.1216 3.51899 56.3773 3.92141 55.7196 4.72624V12.7403H51.7214V0.333919H55.7196V1.8494C56.0484 1.4213 56.5937 1.01032 57.3552 0.616465C58.1168 0.222612 58.9476 0.0256857 59.8476 0.0256857C61.6996 0.0256857 62.8852 0.76202 63.4044 2.23469C63.8025 1.63535 64.391 1.12162 65.1699 0.693524C65.9661 0.248298 66.8228 0.0256857 67.7402 0.0256857C68.9344 0.0256857 69.8604 0.342481 70.5181 0.97607C71.1758 1.59254 71.5047 2.51723 71.5047 3.75016V12.7403Z" />
<path d="M6.55322 35.6918H2.55502V18.5592H6.55322V35.6918Z" />
<path d="M20.8487 35.6918H16.8505V34.4588C16.4524 34.9212 15.8986 35.2979 15.1889 35.589C14.4966 35.863 13.7524 36 12.9562 36C11.8658 36 10.8705 35.649 9.97051 34.9469C9.08779 34.2277 8.64643 33.2173 8.64643 31.9159C8.64643 30.546 9.07914 29.5442 9.94455 28.9106C10.81 28.2599 11.8138 27.9346 12.9562 27.9346C14.7735 27.9346 16.0717 28.4141 16.8505 29.373V27.8832C16.8505 27.3352 16.6255 26.8986 16.1755 26.5732C15.7255 26.2479 15.1024 26.0852 14.3062 26.0852C12.9735 26.0852 11.7879 26.5218 10.7494 27.3952L9.32145 24.9036C10.8446 23.6193 12.7398 22.9772 15.0072 22.9772C15.8034 22.9772 16.5303 23.0628 17.188 23.234C17.8631 23.3881 18.4775 23.645 19.0314 24.0046C19.6025 24.3642 20.0439 24.8779 20.3554 25.5458C20.6843 26.2136 20.8487 27.0099 20.8487 27.9346V35.6918ZM14.6178 33.4057C15.6909 33.4057 16.4351 33.106 16.8505 32.5067V31.4022C16.4178 30.82 15.6736 30.5289 14.6178 30.5289C14.0466 30.5289 13.5706 30.6573 13.1898 30.9142C12.8091 31.1539 12.6187 31.5049 12.6187 31.9673C12.6187 32.4296 12.8091 32.7892 13.1898 33.0461C13.5706 33.2858 14.0466 33.4057 14.6178 33.4057Z" />
<path d="M36.2127 35.6918H32.2145V34.202C31.1414 35.4007 29.6962 36 27.8788 36C26.4942 36 25.4557 35.6575 24.7634 34.9726C24.0883 34.2705 23.7508 33.3201 23.7508 32.1214V23.2854H27.749V30.5032C27.749 31.8389 28.4413 32.5067 29.826 32.5067C30.778 32.5067 31.5741 32.1043 32.2145 31.2995V23.2854H36.2127V35.6918Z" />
<path d="M51.6031 35.6918H47.6049V28.5254C47.6049 27.1554 46.9212 26.4705 45.5539 26.4705C44.5846 26.4705 43.7711 26.8729 43.1134 27.6777V35.6918H39.1152V23.2854H43.1134V24.8009C44.1692 23.5851 45.6145 22.9772 47.4491 22.9772C48.8338 22.9772 49.8723 23.3368 50.5646 24.056C51.257 24.7581 51.6031 25.7085 51.6031 26.9071V35.6918Z" />
<path d="M60.5283 36C58.5551 36 56.9195 35.4007 55.6214 34.202C54.3233 32.9862 53.6742 31.4108 53.6742 29.4757C53.6742 27.5578 54.3233 25.9996 55.6214 24.8009C56.9195 23.5851 58.5551 22.9772 60.5283 22.9772C61.7745 22.9772 62.8303 23.1998 63.6957 23.645C64.5784 24.0902 65.2361 24.6296 65.6688 25.2632L63.0726 27.652C62.536 26.8643 61.7485 26.4705 60.71 26.4705C59.8619 26.4705 59.1609 26.7445 58.6071 27.2924C58.0532 27.8233 57.7763 28.551 57.7763 29.4757C57.7763 30.4004 58.0532 31.1368 58.6071 31.6847C59.1609 32.2327 59.8619 32.5067 60.71 32.5067C61.7139 32.5067 62.5014 32.1043 63.0726 31.2995L65.6688 33.7139C65.2361 34.3475 64.5784 34.8869 63.6957 35.3322C62.8303 35.7774 61.7745 36 60.5283 36Z" />
<path d="M80 35.6918H76.0018V28.474C76.0018 27.1383 75.3095 26.4705 73.9248 26.4705C72.9729 26.4705 72.168 26.8729 71.5103 27.6777V35.6918H67.5121V18.5592H71.5103V24.8009C72.5661 23.5851 74.0114 22.9772 75.846 22.9772C77.2307 22.9772 78.2692 23.3282 78.9615 24.0303C79.6538 24.7153 80 25.6571 80 26.8558V35.6918Z" />
<path d="M67.5145 11.5631H71.5003V18.8788H67.5145V11.5631Z" />
</svg>
