<svg width="60" height="27" viewBox="0 0 60 27" fill="none" xmlns="http://www.w3.org/2000/svg">
<path d="M4.40061 9.78639C3.55684 9.78639 2.73253 9.65796 1.9277 9.4011C1.13585 9.14424 0.493284 8.79748 0 8.36081L1.24619 6.31877C1.60966 6.63985 2.11593 6.92881 2.76499 7.18568C3.42703 7.42969 4.02416 7.5517 4.55639 7.5517C5.40016 7.5517 5.82205 7.31411 5.82205 6.83891C5.82205 6.62058 5.63382 6.46004 5.25737 6.3573C4.88092 6.24171 4.42658 6.14539 3.89435 6.06833C3.36212 5.97843 2.8234 5.85 2.27819 5.68304C1.74597 5.51608 1.29163 5.21427 0.915172 4.77761C0.538718 4.34094 0.350491 3.77585 0.350491 3.08233C0.350491 2.22184 0.707473 1.49621 1.42144 0.905433C2.1354 0.314654 3.12197 0.0192643 4.38114 0.0192643C5.86099 0.0192643 7.17209 0.430241 8.31443 1.2522L7.1656 3.21718C6.86703 2.93463 6.46462 2.69704 5.95835 2.50439C5.45209 2.2989 4.93284 2.19616 4.40061 2.19616C4.05012 2.19616 3.76454 2.26037 3.54386 2.3888C3.32318 2.51723 3.21284 2.67777 3.21284 2.87042C3.21284 3.06306 3.40106 3.21076 3.77752 3.3135C4.15397 3.4034 4.60831 3.49973 5.14054 3.60247C5.67277 3.69237 6.20499 3.82722 6.73722 4.00703C7.28243 4.18683 7.74326 4.5079 8.11971 4.97025C8.49617 5.41976 8.6844 5.99769 8.6844 6.70406C8.6844 7.61592 8.30145 8.36081 7.53556 8.93875C6.76967 9.50384 5.72469 9.78639 4.40061 9.78639Z" fill="white"/>
<path d="M14.7474 9.78639C13.2676 9.78639 12.0408 9.33688 11.0672 8.43787C10.0937 7.52602 9.60687 6.34446 9.60687 4.89319C9.60687 3.45478 10.0937 2.28606 11.0672 1.38705C12.0408 0.475192 13.2676 0.0192643 14.7474 0.0192643C15.6821 0.0192643 16.4739 0.186224 17.123 0.520143C17.785 0.854061 18.2783 1.25862 18.6028 1.73381L16.6556 3.52541C16.2532 2.93463 15.6626 2.63924 14.8837 2.63924C14.2476 2.63924 13.7219 2.84473 13.3065 3.25571C12.8911 3.65384 12.6834 4.19967 12.6834 4.89319C12.6834 5.58672 12.8911 6.13897 13.3065 6.54995C13.7219 6.96092 14.2476 7.16641 14.8837 7.16641C15.6366 7.16641 16.2273 6.8646 16.6556 6.26098L18.6028 8.07184C18.2783 8.54704 17.785 8.95159 17.123 9.28551C16.4739 9.61943 15.6821 9.78639 14.7474 9.78639Z" fill="white"/>
<path d="M22.9645 9.55521H19.9658V0.250439H22.9645V1.38705C23.289 1.00176 23.7239 0.674259 24.2691 0.404555C24.8143 0.134852 25.3595 0 25.9047 0V2.85115C25.6711 2.79978 25.4244 2.77409 25.1648 2.77409C24.7494 2.77409 24.321 2.85757 23.8797 3.02453C23.4513 3.17865 23.1462 3.37772 22.9645 3.62173V9.55521Z" fill="white"/>
<path d="M36.6142 9.55521H33.6155V8.43787C32.8107 9.33688 31.7268 9.78639 30.3637 9.78639C29.3252 9.78639 28.5464 9.52953 28.0271 9.01581C27.5209 8.48924 27.2677 7.77645 27.2677 6.87744V0.250439H30.2664V5.66378C30.2664 6.66553 30.7856 7.16641 31.8241 7.16641C32.5381 7.16641 33.1352 6.8646 33.6155 6.26098V0.250439H36.6142V9.55521Z" fill="white"/>
<path d="M53.6285 9.55521H50.6493V3.89144C50.6493 3.05664 50.2339 2.63924 49.4031 2.63924C48.7281 2.63924 48.1634 2.94105 47.7091 3.54468V9.55521H44.7105V3.89144C44.7105 3.05664 44.2951 2.63924 43.4643 2.63924C42.8412 2.63924 42.283 2.94105 41.7897 3.54468V9.55521H38.791V0.250439H41.7897V1.38705C42.0363 1.06597 42.4452 0.757739 43.0164 0.462349C43.5876 0.166959 44.2107 0.0192643 44.8857 0.0192643C46.2747 0.0192643 47.1639 0.571515 47.5533 1.67602C47.8519 1.22651 48.2933 0.841218 48.8774 0.520143C49.4745 0.186224 50.1171 0.0192643 50.8051 0.0192643C51.7008 0.0192643 52.3953 0.25686 52.8886 0.732052C53.3819 1.1944 53.6285 1.88793 53.6285 2.81262V9.55521Z" fill="white"/>
<path d="M4.91492 26.7688H1.91627V13.9194H4.91492V26.7688Z" fill="white"/>
<path d="M15.6365 26.7688H12.6379V25.8441C12.3393 26.1909 11.9239 26.4734 11.3917 26.6918C10.8725 26.8973 10.3143 27 9.71713 27C8.89932 27 8.1529 26.7367 7.47788 26.2102C6.81584 25.6707 6.48482 24.913 6.48482 23.9369C6.48482 22.9095 6.80935 22.1582 7.45841 21.683C8.10747 21.195 8.86038 20.9509 9.71713 20.9509C11.0802 20.9509 12.0537 21.3105 12.6379 22.0297V20.9124C12.6379 20.5014 12.4691 20.1739 12.1316 19.9299C11.7941 19.6859 11.3268 19.5639 10.7297 19.5639C9.73011 19.5639 8.8409 19.8914 8.06204 20.5464L6.99109 18.6777C8.13343 17.7145 9.55487 17.2329 11.2554 17.2329C11.8525 17.2329 12.3977 17.2971 12.891 17.4255C13.3973 17.5411 13.8581 17.7338 14.2735 18.0035C14.7019 18.2732 15.0329 18.6585 15.2666 19.1593C15.5132 19.6602 15.6365 20.2574 15.6365 20.9509V26.7688ZM10.9633 25.0543C11.7682 25.0543 12.3263 24.8295 12.6379 24.38V23.5516C12.3134 23.115 11.7552 22.8967 10.9633 22.8967C10.5349 22.8967 10.178 22.993 9.89238 23.1856C9.60679 23.3654 9.464 23.6287 9.464 23.9755C9.464 24.3222 9.60679 24.5919 9.89238 24.7846C10.178 24.9644 10.5349 25.0543 10.9633 25.0543Z" fill="white"/>
<path d="M27.1596 26.7688H24.1609V25.6515C23.3561 26.5505 22.2721 27 20.9091 27C19.8706 27 19.0918 26.7431 18.5725 26.2294C18.0662 25.7029 17.8131 24.9901 17.8131 24.0911V17.4641H20.8118V22.8774C20.8118 23.8791 21.331 24.38 22.3695 24.38C23.0835 24.38 23.6806 24.0782 24.1609 23.4746V17.4641H27.1596V26.7688Z" fill="white"/>
<path d="M38.7023 26.7688H35.7037V21.394C35.7037 20.3666 35.1909 19.8529 34.1654 19.8529C33.4385 19.8529 32.8284 20.1547 32.3351 20.7583V26.7688H29.3364V17.4641H32.3351V18.6007C33.1269 17.6888 34.2109 17.2329 35.5869 17.2329C36.6253 17.2329 37.4042 17.5026 37.9235 18.042C38.4427 18.5686 38.7023 19.2813 38.7023 20.1803V26.7688Z" fill="white"/>
<path d="M45.3962 27C43.9163 27 42.6896 26.5505 41.716 25.6515C40.7425 24.7396 40.2557 23.5581 40.2557 22.1068C40.2557 20.6684 40.7425 19.4997 41.716 18.6007C42.6896 17.6888 43.9163 17.2329 45.3962 17.2329C46.3308 17.2329 47.1227 17.3998 47.7718 17.7338C48.4338 18.0677 48.9271 18.4722 49.2516 18.9474L47.3044 20.739C46.902 20.1482 46.3114 19.8529 45.5325 19.8529C44.8964 19.8529 44.3707 20.0583 43.9553 20.4693C43.5399 20.8675 43.3322 21.4133 43.3322 22.1068C43.3322 22.8003 43.5399 23.3526 43.9553 23.7636C44.3707 24.1745 44.8964 24.38 45.5325 24.38C46.2854 24.38 46.8761 24.0782 47.3044 23.4746L49.2516 25.2855C48.9271 25.7606 48.4338 26.1652 47.7718 26.4991C47.1227 26.833 46.3308 27 45.3962 27Z" fill="white"/>
<path d="M60 26.7688H57.0014V21.3555C57.0014 20.3537 56.4821 19.8529 55.4436 19.8529C54.7297 19.8529 54.126 20.1547 53.6327 20.7583V26.7688H50.6341V13.9194H53.6327V18.6007C54.4246 17.6888 55.5085 17.2329 56.8845 17.2329C57.923 17.2329 58.7019 17.4962 59.2211 18.0227C59.7404 18.5364 60 19.2428 60 20.1418V26.7688Z" fill="white"/>
<path d="M50.6359 8.67229H53.6252V14.1591H50.6359V8.67229Z" fill="white"/>
</svg>
