<svg width="242" height="252" viewBox="0 0 242 252" fill="none" xmlns="http://www.w3.org/2000/svg">
<path d="M60.9309 215.843L61.4174 215.435L61.009 214.948L60.5226 215.357L60.9309 215.843ZM65.55 221.348L65.9583 221.835L66.4448 221.426L66.0365 220.94L65.55 221.348ZM52.1737 232.581L51.7654 232.094L51.2789 232.503L51.6872 232.989L52.1737 232.581ZM56.2669 237.459L56.6752 237.946L57.1617 237.537L56.7534 237.05L56.2669 237.459ZM51.4721 241.485L50.9856 241.894L51.394 242.381L51.8805 241.972L51.4721 241.485ZM38.6896 226.252L38.2812 225.765L37.7948 226.174L38.2031 226.66L38.6896 226.252ZM43.4843 222.225L43.9708 221.817L43.5625 221.33L43.076 221.739L43.4843 222.225ZM47.5546 227.076L47.0681 227.485L47.4765 227.971L47.963 227.563L47.5546 227.076ZM60.4444 216.252L65.0635 221.757L66.0365 220.94L61.4174 215.435L60.4444 216.252ZM65.1417 220.862L51.7654 232.094L52.5821 233.068L65.9583 221.835L65.1417 220.862ZM51.6872 232.989L55.7804 237.868L56.7534 237.05L52.6602 232.172L51.6872 232.989ZM55.8585 236.972L51.0638 240.999L51.8805 241.972L56.6752 237.946L55.8585 236.972ZM51.9586 241.077L39.176 225.843L38.2031 226.66L50.9856 241.894L51.9586 241.077ZM39.0979 226.738L43.8927 222.712L43.076 221.739L38.2812 225.765L39.0979 226.738ZM42.9978 222.634L47.0681 227.485L48.0411 226.668L43.9708 221.817L42.9978 222.634ZM47.963 227.563L61.3392 216.33L60.5226 215.357L47.1463 226.589L47.963 227.563Z" fill="#1E1F21"/>
<path d="M45.0589 188.954L45.6194 188.655L45.3212 188.094L44.7607 188.393L45.0589 188.954ZM48.4325 195.299L48.7308 195.86L49.2913 195.561L48.9931 195L48.4325 195.299ZM40.428 199.567L40.1298 199.007L39.5693 199.305L39.8675 199.866L40.428 199.567ZM44.4196 207.074L43.8591 207.373L44.1573 207.934L44.7179 207.635L44.4196 207.074ZM52.4241 202.806L52.9847 202.507L52.6864 201.946L52.1259 202.245L52.4241 202.806ZM55.7978 209.151L56.096 209.712L56.6565 209.413L56.3583 208.852L55.7978 209.151ZM34.8605 220.316L34.3 220.615L34.5982 221.176L35.1588 220.877L34.8605 220.316ZM31.4869 213.971L31.1887 213.41L30.6281 213.709L30.9264 214.27L31.4869 213.971ZM38.895 210.021L39.1932 210.581L39.7537 210.283L39.4555 209.722L38.895 210.021ZM34.9034 202.514L35.4639 202.215L35.1657 201.654L34.6051 201.953L34.9034 202.514ZM27.4953 206.464L26.9348 206.763L27.233 207.324L27.7935 207.025L27.4953 206.464ZM24.1217 200.119L23.8234 199.558L23.2629 199.857L23.5611 200.418L24.1217 200.119ZM44.4984 189.253L47.872 195.598L48.9931 195L45.6194 188.655L44.4984 189.253ZM48.1343 194.738L40.1298 199.007L40.7263 200.128L48.7308 195.86L48.1343 194.738ZM39.8675 199.866L43.8591 207.373L44.9802 206.776L40.9886 199.268L39.8675 199.866ZM44.7179 207.635L52.7224 203.367L52.1259 202.245L44.1214 206.514L44.7179 207.635ZM51.8636 203.105L55.2372 209.45L56.3583 208.852L52.9847 202.507L51.8636 203.105ZM55.4995 208.59L34.5623 219.755L35.1588 220.877L56.096 209.712L55.4995 208.59ZM35.4211 220.017L32.0474 213.672L30.9264 214.27L34.3 220.615L35.4211 220.017ZM31.7851 214.532L39.1932 210.581L38.5967 209.46L31.1887 213.41L31.7851 214.532ZM39.4555 209.722L35.4639 202.215L34.3428 202.812L38.3344 210.32L39.4555 209.722ZM34.6051 201.953L27.1971 205.903L27.7935 207.025L35.2016 203.074L34.6051 201.953ZM28.0558 206.165L24.6822 199.82L23.5611 200.418L26.9348 206.763L28.0558 206.165ZM24.4199 200.68L45.3571 189.515L44.7607 188.393L23.8234 199.558L24.4199 200.68Z" fill="#1E1F21"/>
<path d="M39.7452 169.319L40.3556 169.142L40.1805 168.532L39.5701 168.708L39.7452 169.319ZM44.7069 186.622L44.882 187.233L45.4923 187.056L45.3172 186.446L44.7069 186.622ZM21.9099 193.204L21.2996 193.38L21.4747 193.991L22.085 193.815L21.9099 193.204ZM16.9482 175.901L16.7731 175.29L16.1628 175.466L16.3379 176.077L16.9482 175.901ZM22.9636 174.164L23.574 173.988L23.3989 173.377L22.7885 173.553L22.9636 174.164ZM25.9446 184.56L25.3342 184.736L25.5093 185.347L26.1197 185.17L25.9446 184.56ZM28.2003 183.908L28.3754 184.519L28.9858 184.343L28.8107 183.732L28.2003 183.908ZM25.2881 173.752L25.113 173.141L24.5026 173.318L24.6777 173.928L25.2881 173.752ZM31.3034 172.015L31.9138 171.839L31.7387 171.228L31.1283 171.405L31.3034 172.015ZM34.2157 182.172L33.6054 182.348L33.7805 182.958L34.3908 182.782L34.2157 182.172ZM36.7107 181.451L36.8858 182.062L37.4962 181.886L37.3211 181.275L36.7107 181.451ZM33.7298 171.055L33.5547 170.445L32.9444 170.621L33.1195 171.232L33.7298 171.055ZM39.1349 169.495L44.0966 186.798L45.3172 186.446L40.3556 169.142L39.1349 169.495ZM44.5318 186.011L21.7348 192.593L22.085 193.815L44.882 187.233L44.5318 186.011ZM22.5202 193.028L17.5586 175.725L16.3379 176.077L21.2996 193.38L22.5202 193.028ZM17.1233 176.511L23.1387 174.775L22.7885 173.553L16.7731 175.29L17.1233 176.511ZM22.3533 174.34L25.3342 184.736L26.5549 184.383L23.574 173.988L22.3533 174.34ZM26.1197 185.17L28.3754 184.519L28.0252 183.298L25.7695 183.949L26.1197 185.17ZM28.8107 183.732L25.8984 173.576L24.6777 173.928L27.59 184.085L28.8107 183.732ZM25.4632 174.363L31.4786 172.626L31.1283 171.405L25.113 173.141L25.4632 174.363ZM30.6931 172.191L33.6054 182.348L34.8261 181.995L31.9138 171.839L30.6931 172.191ZM34.3908 182.782L36.8858 182.062L36.5356 180.841L34.0406 181.561L34.3908 182.782ZM37.3211 181.275L34.3402 170.879L33.1195 171.232L36.1004 181.627L37.3211 181.275ZM33.9049 171.666L39.9203 169.929L39.5701 168.708L33.5547 170.445L33.9049 171.666Z" fill="#1E1F21"/>
<path d="M38.5819 136.109L39.2172 136.107V135.068L38.2921 135.544L38.5819 136.109ZM38.5819 144.291L38.8369 144.872L39.2172 144.705V144.29L38.5819 144.291ZM31.1113 147.58L30.8564 146.999L30.4761 147.166V147.581L31.1113 147.58ZM31.1113 150.177L30.4761 150.178V150.813L31.1113 150.812V150.177ZM38.5819 150.161L39.2172 150.159V149.524L38.5819 149.525V150.161ZM38.5819 157.347V157.982L39.2172 157.981V157.345L38.5819 157.347ZM14.8538 157.398L14.2186 157.399V158.034L14.8538 158.033V157.398ZM17.2017 138.467L17.6404 138.926L17.6474 138.919L17.2017 138.467ZM27.5539 137.449L27.1827 137.965L27.1896 137.97L27.5539 137.449ZM30.1864 140.431L29.6159 140.712L29.9005 141.293L30.4762 140.996L30.1864 140.431ZM24.3878 144.144L24.912 143.784L24.9058 143.775L24.8992 143.766L24.3878 144.144ZM21.613 144.15L22.1244 144.525L22.131 144.516L22.1372 144.507L21.613 144.15ZM21.1149 150.198L20.4797 150.2V150.835L21.1149 150.834V150.198ZM24.8502 150.19V150.826L25.4855 150.824V150.189L24.8502 150.19ZM37.9467 136.11V144.292L39.2172 144.29V136.107L37.9467 136.11ZM38.327 143.71L30.8564 146.999L31.3662 148.161L38.8369 144.872L38.327 143.71ZM30.4761 147.581V150.178L31.7466 150.175V147.579L30.4761 147.581ZM31.1113 150.812L38.5819 150.796V149.525L31.1113 149.542V150.812ZM37.9467 150.162V157.348L39.2172 157.345V150.159L37.9467 150.162ZM38.5819 156.712L14.8538 156.763V158.033L38.5819 157.982V156.712ZM15.4891 157.397V144.732L14.2186 144.735V157.399L15.4891 157.397ZM15.4891 144.732C15.4891 142.181 16.2294 140.276 17.6404 138.926L16.7631 138.009C15.0435 139.654 14.2186 141.925 14.2186 144.735L15.4891 144.732ZM17.6474 138.919C19.0608 137.524 20.8293 136.818 23.0004 136.813V135.543C20.5231 135.548 18.4258 136.368 16.756 138.015L17.6474 138.919ZM23.0004 136.813C24.7527 136.809 26.1307 137.21 27.1827 137.965L27.9251 136.932C26.6054 135.985 24.9478 135.539 23.0004 135.543V136.813ZM27.1896 137.97C28.298 138.744 29.0993 139.659 29.6159 140.712L30.7569 140.151C30.135 138.883 29.1814 137.809 27.9182 136.928L27.1896 137.97ZM30.4762 140.996L38.8718 136.674L38.2921 135.544L29.8966 139.867L30.4762 140.996ZM25.4855 145.813C25.4855 145.049 25.307 144.36 24.912 143.784L23.8635 144.503C24.0851 144.827 24.215 145.252 24.215 145.816L25.4855 145.813ZM24.8992 143.766C24.434 143.135 23.7595 142.834 22.9648 142.836V144.106C23.4033 144.105 23.6775 144.252 23.8763 144.522L24.8992 143.766ZM22.9648 142.836C22.1834 142.837 21.5269 143.151 21.0887 143.792L22.1372 144.507C22.3156 144.246 22.5603 144.107 22.9648 144.106V142.836ZM21.1015 143.774C20.6749 144.354 20.4797 145.05 20.4797 145.824L21.7502 145.821C21.7502 145.267 21.887 144.848 22.1244 144.525L21.1015 143.774ZM20.4797 145.824V150.2L21.7502 150.197V145.821L20.4797 145.824ZM21.1149 150.834L24.8502 150.826V149.555L21.1149 149.563V150.834ZM25.4855 150.189V145.813L24.215 145.816V150.192L25.4855 150.189Z" fill="#1E1F21"/>
<path d="M40.2517 127.249L40.8793 127.347L40.9787 126.72L40.3511 126.622L40.2517 127.249ZM39.1276 134.347L39.0282 134.974L39.6558 135.072L39.7552 134.445L39.1276 134.347ZM15.684 130.683L15.0563 130.585L14.9569 131.212L15.5846 131.31L15.684 130.683ZM16.8081 123.585L16.9075 122.958L16.2798 122.86L16.1805 123.487L16.8081 123.585ZM39.6241 127.151L38.4999 134.248L39.7552 134.445L40.8793 127.347L39.6241 127.151ZM39.2269 133.719L15.7833 130.055L15.5846 131.31L39.0282 134.974L39.2269 133.719ZM16.3116 130.781L17.4357 123.683L16.1805 123.487L15.0563 130.585L16.3116 130.781ZM16.7087 124.213L40.1523 127.876L40.3511 126.622L16.9075 122.958L16.7087 124.213Z" fill="#1E1F21"/>
<path d="M38.5666 120.676L38.8832 121.227L38.8886 121.223L38.5666 120.676ZM21.6066 115.198L22.1879 114.941L22.1878 114.94L21.6066 115.198ZM24.9752 99.6504L25.363 100.153L25.3661 100.15L24.9752 99.6504ZM30.3821 97.2846L31.0096 97.1832L30.911 96.5689L30.2942 96.6559L30.3821 97.2846ZM31.4584 103.988L31.5382 104.617L32.19 104.534L32.086 103.886L31.4584 103.988ZM28.9563 105.011L29.3118 105.537L29.3209 105.531L29.3297 105.524L28.9563 105.011ZM27.6352 111.725L27.0786 112.032L27.6352 111.725ZM35.6921 114.327L35.9623 114.902L35.6921 114.327ZM38.7309 107.047L39.3323 106.841L39.2295 106.54L38.9272 106.443L38.7309 107.047ZM37.9184 106.784L38.1147 106.18L37.5102 105.985L37.3139 106.589L37.9184 106.784ZM36.5553 110.98L36.359 111.584L36.9635 111.779L37.1598 111.175L36.5553 110.98ZM30.5973 109.055L29.9928 108.86L29.7965 109.464L30.401 109.66L30.5973 109.055ZM34.1701 98.0595L34.3664 97.4554L33.7619 97.2601L33.5655 97.8643L34.1701 98.0595ZM43.4117 101.045L43.9627 100.727L43.8407 100.516L43.608 100.44L43.4117 101.045ZM44.0244 112.645C42.9239 116.032 40.9949 118.511 38.2445 120.13L38.8886 121.223C41.9348 119.431 44.0474 116.686 45.2334 113.035L44.0244 112.645ZM38.25 120.126C35.5091 121.703 32.4809 121.969 29.1117 120.88L28.7191 122.089C32.3911 123.275 35.7971 123.002 38.8831 121.227L38.25 120.126ZM29.1117 120.88C25.7424 119.792 23.4584 117.811 22.1879 114.941L21.0252 115.456C22.4585 118.693 25.047 120.902 28.7191 122.089L29.1117 120.88ZM22.1878 114.94C20.8903 112.014 20.7754 108.876 21.8753 105.49L20.6663 105.1C19.4797 108.752 19.5886 112.216 21.0254 115.456L22.1878 114.94ZM21.8753 105.49C22.6516 103.101 23.8234 101.339 25.363 100.153L24.5873 99.1479C22.8001 100.525 21.5024 102.527 20.6663 105.1L21.8753 105.49ZM25.3661 100.15C26.9566 98.9085 28.656 98.169 30.47 97.9133L30.2942 96.6559C28.2404 96.9453 26.3352 97.783 24.5842 99.1503L25.3661 100.15ZM29.7545 97.386L30.8308 104.089L32.086 103.886L31.0096 97.1832L29.7545 97.386ZM31.3786 103.358C30.379 103.486 29.4453 103.871 28.5829 104.498L29.3297 105.524C30.0343 105.012 30.7687 104.716 31.5382 104.617L31.3786 103.358ZM28.6008 104.485C27.6802 105.107 27.042 105.969 26.692 107.046L27.901 107.437C28.1666 106.619 28.6349 105.994 29.3118 105.537L28.6008 104.485ZM26.692 107.046C26.1158 108.82 26.2318 110.498 27.0786 112.032L28.1919 111.418C27.5317 110.222 27.4219 108.911 27.901 107.437L26.692 107.046ZM27.0786 112.032C27.9165 113.55 29.23 114.59 30.9727 115.153L31.3653 113.944C29.9032 113.472 28.8609 112.63 28.1919 111.418L27.0786 112.032ZM30.9727 115.153C32.7153 115.716 34.3909 115.641 35.9623 114.902L35.4218 113.753C34.1671 114.344 32.8273 114.417 31.3653 113.944L30.9727 115.153ZM35.9623 114.902C37.5503 114.154 38.6314 112.862 39.2077 111.089L37.9987 110.698C37.5196 112.173 36.66 113.17 35.4218 113.753L35.9623 114.902ZM39.2077 111.089C39.4341 110.392 39.5535 109.643 39.5715 108.846L38.3007 108.819C38.2852 109.507 38.1827 110.132 37.9987 110.698L39.2077 111.089ZM39.5715 108.846C39.5891 108.067 39.5198 107.388 39.3323 106.841L38.1295 107.253C38.2492 107.603 38.3166 108.114 38.3007 108.819L39.5715 108.846ZM38.9272 106.443L38.1147 106.18L37.7221 107.389L38.5346 107.651L38.9272 106.443ZM37.3139 106.589L35.9508 110.785L37.1598 111.175L38.5229 106.98L37.3139 106.589ZM36.7516 110.376L30.7936 108.451L30.401 109.66L36.359 111.584L36.7516 110.376ZM31.2018 109.251L34.7746 98.2548L33.5655 97.8643L29.9928 108.86L31.2018 109.251ZM33.9737 98.6637L43.2154 101.649L43.608 100.44L34.3664 97.4554L33.9737 98.6637ZM42.8608 101.362C44.9232 104.941 45.3104 108.687 44.0244 112.645L45.2334 113.035C46.6297 108.738 46.2055 104.62 43.9627 100.727L42.8608 101.362Z" fill="#1E1F21"/>
<path d="M60.2294 81.554L60.7743 81.8806L61.1014 81.3361L60.5566 81.0094L60.2294 81.554ZM56.5283 87.7136L56.2011 88.2581L56.746 88.5848L57.0732 88.0402L56.5283 87.7136ZM48.7479 83.0492L49.0751 82.5047L48.5302 82.1781L48.203 82.7226L48.7479 83.0492ZM44.3689 90.3371L43.824 90.0105L43.4968 90.555L44.0417 90.8816L44.3689 90.3371ZM52.1493 95.0015L52.6942 95.3281L53.0214 94.7836L52.4765 94.457L52.1493 95.0015ZM48.4482 101.161L48.1211 101.706L48.6659 102.032L48.9931 101.488L48.4482 101.161ZM28.097 88.9606L27.5522 88.634L27.225 89.1785L27.7698 89.5051L28.097 88.9606ZM31.7981 82.801L32.1253 82.2564L31.5804 81.9298L31.2532 82.4743L31.7981 82.801ZM38.9988 87.1178L38.6716 87.6623L39.2165 87.9889L39.5437 87.4444L38.9988 87.1178ZM43.3778 79.8299L43.9227 80.1565L44.2499 79.612L43.705 79.2854L43.3778 79.8299ZM36.1771 75.5131L35.6322 75.1864L35.3051 75.731L35.8499 76.0576L36.1771 75.5131ZM39.8782 69.3534L40.2054 68.8089L39.6605 68.4823L39.3333 69.0268L39.8782 69.3534ZM59.6846 81.2273L55.9835 87.387L57.0732 88.0402L60.7743 81.8806L59.6846 81.2273ZM56.8555 87.1691L49.0751 82.5047L48.4207 83.5938L56.2011 88.2581L56.8555 87.1691ZM48.203 82.7226L43.824 90.0105L44.9137 90.6638L49.2927 83.3759L48.203 82.7226ZM44.0417 90.8816L51.8221 95.546L52.4765 94.457L44.696 89.7926L44.0417 90.8816ZM51.6045 94.6749L47.9034 100.835L48.9931 101.488L52.6942 95.3281L51.6045 94.6749ZM48.7754 100.617L28.4242 88.4161L27.7698 89.5051L48.1211 101.706L48.7754 100.617ZM28.6419 89.2872L32.3429 83.1276L31.2532 82.4743L27.5522 88.634L28.6419 89.2872ZM31.4709 83.3455L38.6716 87.6623L39.326 86.5733L32.1253 82.2564L31.4709 83.3455ZM39.5437 87.4444L43.9227 80.1565L42.833 79.5033L38.454 86.7912L39.5437 87.4444ZM43.705 79.2854L36.5043 74.9685L35.8499 76.0576L43.0506 80.3744L43.705 79.2854ZM36.7219 75.8397L40.423 69.6801L39.3333 69.0268L35.6322 75.1864L36.7219 75.8397ZM39.551 69.8979L59.9022 82.0985L60.5566 81.0094L40.2054 68.8089L39.551 69.8979Z" fill="#1E1F21"/>
<path d="M70.7565 71.0403L71.2211 71.4734L71.6544 71.0088L71.1897 70.5757L70.7565 71.0403ZM65.8556 76.2958L65.4224 76.7604L65.887 77.1936L66.3203 76.729L65.8556 76.2958ZM53.0792 64.3852L53.5125 63.9206L53.0478 63.4874L52.6146 63.952L53.0792 64.3852ZM48.7364 69.0423L48.3031 69.5069L48.7678 69.9401L49.201 69.4755L48.7364 69.0423ZM44.1567 64.773L43.692 64.3398L43.2587 64.8044L43.7234 65.2376L44.1567 64.773ZM57.719 50.2292L58.1522 49.7646L57.6875 49.3314L57.2543 49.796L57.719 50.2292ZM62.2987 54.4986L62.7633 54.9317L63.1966 54.4671L62.7319 54.034L62.2987 54.4986ZM57.9801 59.1297L57.5154 58.6965L57.0822 59.1611L57.5468 59.5943L57.9801 59.1297ZM70.2918 70.6071L65.3909 75.8626L66.3203 76.729L71.2211 71.4734L70.2918 70.6071ZM66.2889 75.8312L53.5125 63.9206L52.646 64.8498L65.4224 76.7604L66.2889 75.8312ZM52.6146 63.952L48.2717 68.6092L49.201 69.4755L53.5439 64.8184L52.6146 63.952ZM49.1696 68.5777L44.5899 64.3084L43.7234 65.2376L48.3031 69.5069L49.1696 68.5777ZM44.6213 65.2061L58.1836 50.6623L57.2543 49.796L43.692 64.3398L44.6213 65.2061ZM57.2857 50.6938L61.8654 54.9632L62.7319 54.034L58.1522 49.7646L57.2857 50.6938ZM61.834 54.0654L57.5154 58.6965L58.4448 59.5628L62.7633 54.9317L61.834 54.0654ZM57.5468 59.5943L70.3232 71.5049L71.1897 70.5757L58.4133 58.6651L57.5468 59.5943Z" fill="#1E1F21"/>
<path d="M90.0157 55.5013L90.3423 56.0462L90.8868 55.719L90.5602 55.1742L90.0157 55.5013ZM83.856 59.2024L83.3115 59.5296L83.6382 60.0745L84.1827 59.7473L83.856 59.2024ZM71.6552 38.8514L71.3285 38.3065L70.784 38.6337L71.1107 39.1786L71.6552 38.8514ZM87.0848 29.5803L87.6293 29.2532L87.3027 28.7083L86.7581 29.0355L87.0848 29.5803ZM90.3042 34.9503L90.6308 35.4952L91.1754 35.168L90.8487 34.6231L90.3042 34.9503ZM81.0342 40.5203L80.7076 39.9754L80.1631 40.3026L80.4897 40.8475L81.0342 40.5203ZM82.2415 42.534L81.697 42.8612L82.0236 43.4061L82.5682 43.0789L82.2415 42.534ZM91.298 37.0923L91.8425 36.7652L91.5159 36.2203L90.9714 36.5475L91.298 37.0923ZM94.5174 42.4623L94.8441 43.0072L95.3886 42.68L95.062 42.1351L94.5174 42.4623ZM85.4609 47.904L85.1343 47.3592L84.5898 47.6864L84.9164 48.2312L85.4609 47.904ZM89.689 54.9565L83.5294 58.6576L84.1827 59.7473L90.3423 56.0462L89.689 54.9565ZM84.4006 58.8752L72.1997 38.5242L71.1107 39.1786L83.3115 59.5296L84.4006 58.8752ZM71.9818 39.3962L87.4114 30.1252L86.7581 29.0355L71.3285 38.3065L71.9818 39.3962ZM86.5403 29.9075L89.7597 35.2775L90.8487 34.6231L87.6293 29.2532L86.5403 29.9075ZM89.9776 34.4055L80.7076 39.9754L81.3609 41.0651L90.6308 35.4952L89.9776 34.4055ZM80.4897 40.8475L81.697 42.8612L82.786 42.2068L81.5788 40.1931L80.4897 40.8475ZM82.5682 43.0789L91.6247 37.6372L90.9714 36.5475L81.9149 41.9892L82.5682 43.0789ZM90.7535 37.4195L93.9729 42.7895L95.062 42.1351L91.8425 36.7652L90.7535 37.4195ZM94.1908 41.9175L85.1343 47.3592L85.7876 48.4489L94.8441 43.0072L94.1908 41.9175ZM84.9164 48.2312L89.4711 55.8285L90.5602 55.1742L86.0055 47.5768L84.9164 48.2312Z" fill="#1E1F21"/>
<path d="M119.388 39.5556L119.947 39.857L119.947 39.8567L119.388 39.5556ZM101.864 45.5898L101.604 46.1704L101.61 46.1729L101.864 45.5898ZM96.1354 28.8629L96.6941 29.1642L96.6942 29.164L96.1354 28.8629ZM113.66 22.8287L113.401 23.4093L113.407 23.4118L113.66 22.8287ZM105.242 39.5352L104.939 40.0938L104.945 40.0971L105.242 39.5352ZM113.012 36.8598L112.433 36.5996L112.431 36.6061L113.012 36.8598ZM110.269 28.8497L109.966 29.4083L109.972 29.4116L110.269 28.8497ZM102.499 31.5251L101.92 31.2649L101.918 31.2715L102.499 31.5251ZM118.829 39.2543C117.319 42.0557 114.907 44.0386 111.543 45.1969L111.955 46.3989C115.587 45.1481 118.268 42.9695 119.947 39.857L118.829 39.2543ZM111.543 45.1969C108.179 46.3552 105.049 46.2805 102.117 45.0067L101.61 46.1729C104.862 47.5856 108.322 47.6496 111.955 46.3989L111.543 45.1969ZM102.123 45.0092C99.218 43.7129 97.2114 41.4639 96.0962 38.2072L94.8949 38.6209C96.1154 42.1851 98.3542 44.7199 101.604 46.1704L102.123 45.0092ZM96.0962 38.2072C94.981 34.9506 95.1905 31.9525 96.6941 29.1642L95.5768 28.5616C93.8913 31.6872 93.6743 35.0566 94.8949 38.6209L96.0962 38.2072ZM96.6942 29.164C98.2204 26.331 100.64 24.3341 104.002 23.1764L103.591 21.9744C99.9565 23.2258 97.269 25.4205 95.5767 28.5618L96.6942 29.164ZM104.002 23.1764C107.365 22.0187 110.485 22.108 113.401 23.4093L113.919 22.2482C110.68 20.8027 107.225 20.7231 103.591 21.9744L104.002 23.1764ZM113.407 23.4118C116.323 24.6788 118.335 26.9114 119.449 30.1661L120.651 29.7524C119.429 26.1862 117.181 23.6651 113.913 22.2456L113.407 23.4118ZM119.449 30.1661C120.564 33.4208 120.349 36.4343 118.829 39.2545L119.947 39.8567C121.646 36.7027 121.872 33.3186 120.651 29.7524L119.449 30.1661ZM104.945 40.0971C106.491 40.9157 108.16 41.0085 109.903 40.4082L109.492 39.2062C108.051 39.7023 106.75 39.6137 105.54 38.9733L104.945 40.0971ZM109.903 40.4082C111.647 39.8078 112.898 38.7093 113.594 37.1134L112.431 36.6061C111.891 37.8437 110.932 38.7101 109.492 39.2062L109.903 40.4082ZM113.591 37.1199C114.303 35.5359 114.349 33.8592 113.755 32.1267L112.554 32.5404C113.052 33.9939 113.002 35.3348 112.434 36.5996L113.591 37.1199ZM113.755 32.1267C113.162 30.3942 112.099 29.099 110.567 28.2878L109.972 29.4116C111.196 30.0594 112.056 31.0868 112.554 32.5404L113.755 32.1267ZM110.573 28.2911C109.046 27.4607 107.386 27.3648 105.642 27.9651L106.054 29.1671C107.495 28.671 108.782 28.7642 109.966 29.4083L110.573 28.2911ZM105.642 27.9651C103.899 28.5655 102.639 29.6666 101.921 31.265L103.078 31.7853C103.641 30.5348 104.613 29.6632 106.054 29.1671L105.642 27.9651ZM101.918 31.2715C101.23 32.8477 101.198 34.5179 101.79 36.2466L102.992 35.8329C102.493 34.3755 102.533 33.036 103.081 31.7788L101.918 31.2715ZM101.79 36.2466C102.382 37.9752 103.431 39.2735 104.939 40.0938L105.546 38.9766C104.343 38.3224 103.491 37.2904 102.992 35.8329L101.79 36.2466Z" fill="#1E1F21"/>
<path d="M145.361 36.2232L145.841 36.6382L145.843 36.6351L145.361 36.2232ZM127.918 38.0564L127.53 38.5599L127.536 38.5646L127.918 38.0564ZM122.792 17.0972L122.727 16.4653L122.095 16.5317L122.16 17.1636L122.792 17.0972ZM130.045 16.3349L130.676 16.2685L130.611 15.6366L129.98 15.703L130.045 16.3349ZM132.886 32.8126L132.478 33.3002L132.485 33.3065L132.493 33.3125L132.886 32.8126ZM139.396 32.1284L138.903 31.7285L139.396 32.1284ZM138.854 15.409L138.789 14.7771L138.157 14.8435L138.222 15.4754L138.854 15.409ZM146.107 14.6467L146.739 14.5803L146.674 13.9484L146.042 14.0148L146.107 14.6467ZM144.88 35.8081C143.256 37.6875 140.629 38.8718 136.876 39.2662L137.006 40.53C140.943 40.1163 143.929 38.8506 145.841 36.6382L144.88 35.8081ZM136.876 39.2662C133.124 39.6606 130.298 39.0498 128.301 37.5481L127.536 38.5646C129.88 40.3268 133.07 40.9438 137.006 40.53L136.876 39.2662ZM128.307 37.5529C126.313 36.0149 125.154 33.8323 124.856 30.9381L123.592 31.0709C123.921 34.2632 125.225 36.782 127.53 38.5599L128.307 37.5529ZM124.856 30.9381L123.424 17.0308L122.16 17.1636L123.592 31.0709L124.856 30.9381ZM122.857 17.7292L130.11 16.9669L129.98 15.703L122.727 16.4653L122.857 17.7292ZM129.413 16.4013L130.819 30.0609L132.083 29.9281L130.676 16.2685L129.413 16.4013ZM130.819 30.0609C130.956 31.3889 131.505 32.4853 132.478 33.3002L133.294 32.325C132.597 31.7415 132.189 30.9592 132.083 29.9281L130.819 30.0609ZM132.493 33.3125C133.514 34.1158 134.83 34.3916 136.358 34.2311L136.228 32.9673C134.925 33.1042 133.969 32.8557 133.279 32.3127L132.493 33.3125ZM136.358 34.2311C137.864 34.0728 139.076 33.5298 139.888 32.5283L138.903 31.7285C138.362 32.3955 137.505 32.833 136.228 32.9673L136.358 34.2311ZM139.888 32.5283C140.701 31.527 141.03 30.3361 140.893 29.0021L139.629 29.1349C139.735 30.1602 139.487 31.0091 138.903 31.7285L139.888 32.5283ZM140.893 29.0021L139.486 15.3426L138.222 15.4754L139.629 29.1349L140.893 29.0021ZM138.919 16.0409L146.172 15.2786L146.042 14.0148L138.789 14.7771L138.919 16.0409ZM145.475 14.7131L146.904 28.585L148.167 28.4522L146.739 14.5803L145.475 14.7131ZM146.904 28.585C147.204 31.5044 146.515 33.8925 144.878 35.8112L145.843 36.6351C147.738 34.4148 148.498 31.6665 148.167 28.4522L146.904 28.585Z" fill="#1E1F21"/>
<path d="M174.18 41.2894L174.101 41.9198L174.732 41.9972L174.811 41.3668L174.18 41.2894ZM167.33 40.4484L166.774 40.7567L166.93 41.0393L167.251 41.0787L167.33 40.4484ZM160.134 27.4504L160.69 27.142L159.746 25.4356L159.504 27.373L160.134 27.4504ZM158.644 39.3818L158.565 40.0122L159.196 40.0896L159.275 39.4593L158.644 39.3818ZM151.512 38.5061L150.881 38.4287L150.802 39.059L151.433 39.1364L151.512 38.5061ZM154.452 14.9608L154.531 14.3305L153.901 14.2531L153.822 14.8834L154.452 14.9608ZM161.797 15.8626L162.352 15.552L162.195 15.2715L161.875 15.2323L161.797 15.8626ZM168.595 28.0233L168.04 28.3339L168.985 30.0245L169.226 28.1007L168.595 28.0233ZM169.988 16.8684L170.067 16.2381L169.437 16.1607L169.358 16.791L169.988 16.8684ZM177.121 17.7442L177.751 17.8216L177.83 17.1913L177.2 17.1138L177.121 17.7442ZM174.259 40.6591L167.409 39.818L167.251 41.0787L174.101 41.9198L174.259 40.6591ZM167.886 40.14L160.69 27.142L159.578 27.7587L166.774 40.7567L167.886 40.14ZM159.504 27.373L158.014 39.3044L159.275 39.4593L160.765 27.5278L159.504 27.373ZM158.723 38.7515L151.59 37.8757L151.433 39.1364L158.565 40.0122L158.723 38.7515ZM152.142 38.5835L155.083 15.0383L153.822 14.8834L150.881 38.4287L152.142 38.5835ZM154.374 15.5912L161.718 16.493L161.875 15.2323L154.531 14.3305L154.374 15.5912ZM161.242 16.1733L168.04 28.3339L169.15 27.7127L162.352 15.552L161.242 16.1733ZM169.226 28.1007L170.619 16.9459L169.358 16.791L167.965 27.9459L169.226 28.1007ZM169.91 17.4988L177.042 18.3746L177.2 17.1138L170.067 16.2381L169.91 17.4988ZM176.49 17.6668L173.55 41.212L174.811 41.3668L177.751 17.8216L176.49 17.6668Z" fill="#1E1F21"/>
<path d="M175.92 42.5989L175.327 42.3712L175.098 42.9639L175.691 43.1916L175.92 42.5989ZM184.459 20.4605L184.688 19.8679L184.095 19.6402L183.866 20.2329L184.459 20.4605ZM201.984 30.5793L201.422 30.8763L201.424 30.8794L201.984 30.5793ZM195.724 46.8097L195.942 47.406L195.724 46.8097ZM192.545 40.5212L192.274 39.947L192.545 40.5212ZM195.538 33.0583L196.125 32.8141L195.538 33.0583ZM188.914 28.8774L189.143 28.2847L188.55 28.057L188.321 28.6497L188.914 28.8774ZM184.882 39.3325L184.289 39.1049L184.06 39.6976L184.653 39.9252L184.882 39.3325ZM186.079 45.8181L176.148 42.0062L175.691 43.1916L185.621 47.0035L186.079 45.8181ZM176.513 42.8265L185.052 20.6882L183.866 20.2329L175.327 42.3712L176.513 42.8265ZM184.23 21.0532L194.127 24.8524L194.585 23.667L184.688 19.8679L184.23 21.0532ZM194.127 24.8524C197.601 26.1856 200.009 28.2013 201.422 30.8763L202.547 30.2824C200.963 27.2849 198.285 25.0875 194.585 23.667L194.127 24.8524ZM201.424 30.8794C202.83 33.5043 202.932 36.4409 201.655 39.7506L202.841 40.206C204.228 36.6119 204.154 33.2826 202.545 30.2793L201.424 30.8794ZM201.655 39.7506C200.379 43.0602 198.325 45.1839 195.506 46.2134L195.942 47.406C199.159 46.2306 201.455 43.8001 202.841 40.206L201.655 39.7506ZM195.506 46.2134C192.659 47.2535 189.528 47.1424 186.079 45.8181L185.621 47.0035C189.301 48.4159 192.753 48.5707 195.942 47.406L195.506 46.2134ZM187.841 41.1491C189.594 41.8217 191.268 41.8244 192.815 41.0954L192.274 39.947C191.088 40.5059 189.779 40.532 188.299 39.9637L187.841 41.1491ZM192.815 41.0954C194.336 40.379 195.413 39.1993 196.033 37.5925L194.847 37.1371C194.34 38.4511 193.487 39.3757 192.274 39.947L192.815 41.0954ZM196.033 37.5925C196.685 35.9007 196.74 34.2932 196.125 32.8141L194.951 33.3026C195.417 34.4233 195.406 35.6868 194.847 37.1371L196.033 37.5925ZM196.125 32.8141C195.498 31.3081 194.201 30.2261 192.365 29.5213L191.907 30.7067C193.525 31.3278 194.496 32.2087 194.951 33.3026L196.125 32.8141ZM192.365 29.5213L189.143 28.2847L188.686 29.4701L191.907 30.7067L192.365 29.5213ZM188.321 28.6497L184.289 39.1049L185.475 39.5602L189.508 29.1051L188.321 28.6497ZM184.653 39.9252L187.841 41.1491L188.299 39.9637L185.11 38.7398L184.653 39.9252Z" fill="#1E1F21"/>
<path d="M219.601 64.3928L219.255 64.9253L220.019 65.4217L220.221 64.5332L219.601 64.3928ZM212.769 59.9559L212.158 59.7818L212.029 60.2328L212.423 60.4884L212.769 59.9559ZM213.566 57.165L214.177 57.3391L214.306 56.8881L213.913 56.6326L213.566 57.165ZM206.406 52.515L206.752 51.9825L206.359 51.727L205.998 52.0277L206.406 52.515ZM204.176 54.3758L203.83 54.9083L204.223 55.1638L204.584 54.8631L204.176 54.3758ZM197.344 49.9389L196.964 49.43L196.233 49.975L196.998 50.4714L197.344 49.9389ZM217.624 34.8161L217.97 34.2836L217.599 34.0425L217.244 34.3073L217.624 34.8161ZM225.202 39.7374L225.822 39.8778L225.92 39.4461L225.548 39.205L225.202 39.7374ZM215.37 50.8707L215.023 51.4032L215.744 51.8713L215.981 51.0452L215.37 50.8707ZM217.572 43.1809L218.183 43.3554L218.752 41.3664L217.164 42.6939L217.572 43.1809ZM211.431 48.3131L211.024 47.8261L210.364 48.3775L211.085 48.8456L211.431 48.3131ZM219.948 63.8604L213.115 59.4234L212.423 60.4884L219.255 64.9253L219.948 63.8604ZM213.38 60.13L214.177 57.3391L212.955 56.9909L212.158 59.7818L213.38 60.13ZM213.913 56.6326L206.752 51.9825L206.059 53.0475L213.22 57.6975L213.913 56.6326ZM205.998 52.0277L203.769 53.8886L204.584 54.8631L206.813 53.0023L205.998 52.0277ZM204.523 53.8434L197.691 49.4064L196.998 50.4714L203.83 54.9083L204.523 53.8434ZM197.724 50.4478L218.004 35.325L217.244 34.3073L196.964 49.43L197.724 50.4478ZM217.277 35.3486L224.856 40.2699L225.548 39.205L217.97 34.2836L217.277 35.3486ZM224.582 39.5971L218.981 64.2525L220.221 64.5332L225.822 39.8778L224.582 39.5971ZM215.981 51.0452L218.183 43.3554L216.961 43.0064L214.759 50.6962L215.981 51.0452ZM217.164 42.6939L211.024 47.8261L211.839 48.8002L217.979 43.6679L217.164 42.6939ZM211.085 48.8456L215.023 51.4032L215.716 50.3382L211.778 47.7807L211.085 48.8456Z" fill="#1E1F21"/>
<path d="M228 73.9941L227.55 74.4433L228 74.8925L228.449 74.4433L228 73.9941ZM222.918 68.9128L222.469 68.4636L222.02 68.9128L222.469 69.362L222.918 68.9128ZM235.269 56.5617L235.719 57.0109L236.168 56.5617L235.719 56.1125L235.269 56.5617ZM230.767 52.059L230.317 51.6098L229.868 52.059L230.317 52.5082L230.767 52.059ZM235.194 47.6317L235.643 47.1825L235.194 46.7333L234.745 47.1825L235.194 47.6317ZM249.256 61.6933L249.705 62.1425L250.154 61.6933L249.705 61.2441L249.256 61.6933ZM244.828 66.1206L244.379 66.5698L244.828 67.019L245.277 66.5698L244.828 66.1206ZM240.351 61.643L240.8 61.1938L240.351 60.7446L239.901 61.1938L240.351 61.643ZM228.449 73.5449L223.368 68.4636L222.469 69.362L227.55 74.4433L228.449 73.5449ZM223.368 69.362L235.719 57.0109L234.82 56.1125L222.469 68.4636L223.368 69.362ZM235.719 56.1125L231.216 51.6098L230.317 52.5082L234.82 57.0109L235.719 56.1125ZM231.216 52.5082L235.643 48.0809L234.745 47.1825L230.317 51.6098L231.216 52.5082ZM234.745 48.0809L248.806 62.1425L249.705 61.2441L235.643 47.1825L234.745 48.0809ZM248.806 61.2441L244.379 65.6714L245.277 66.5698L249.705 62.1425L248.806 61.2441ZM245.277 65.6714L240.8 61.1938L239.901 62.0922L244.379 66.5698L245.277 65.6714ZM239.901 61.1938L227.55 73.5449L228.449 74.4433L240.8 62.0922L239.901 61.1938Z" fill="#1E1F21"/>
<path d="M237.708 85.6943L237.2 86.0769L237.583 86.5842L238.09 86.2016L237.708 85.6943ZM233.383 79.9552L233.001 79.4479L232.494 79.8305L232.876 80.3378L233.383 79.9552ZM252.325 65.6641L252.832 65.2815L252.449 64.7741L251.942 65.1567L252.325 65.6641ZM256.649 71.4031L257.032 71.9105L257.539 71.5278L257.156 71.0205L256.649 71.4031ZM238.215 85.3116L233.89 79.5726L232.876 80.3378L237.2 86.0769L238.215 85.3116ZM233.765 80.4626L252.707 66.1714L251.942 65.1567L233.001 79.4479L233.765 80.4626ZM251.818 66.0467L256.142 71.7857L257.156 71.0205L252.832 65.2815L251.818 66.0467ZM256.267 70.8958L237.325 85.1869L238.09 86.2016L257.032 71.9105L256.267 70.8958Z" fill="#1E1F21"/>
<path d="M251.717 104.923L251.497 105.52L251.498 105.52L251.717 104.923ZM243.303 88.409L242.693 88.2343L242.691 88.2404L243.303 88.409ZM259.047 80.3627L258.827 80.9591L258.827 80.9592L259.047 80.3627ZM267.461 96.8769L266.851 96.7022L266.849 96.7083L267.461 96.8769ZM249.763 90.9004L249.168 90.6785L249.166 90.6852L249.763 90.9004ZM253.494 98.2224L253.67 97.6117L253.663 97.6098L253.494 98.2224ZM261.033 94.3693L260.438 94.1474L260.436 94.1541L261.033 94.3693ZM257.302 87.0473L257.479 86.4366L257.472 86.4347L257.302 87.0473ZM251.937 104.327C248.956 103.226 246.658 101.117 245.043 97.947L243.912 98.5252C245.656 101.948 248.185 104.297 251.497 105.52L251.937 104.327ZM245.043 97.947C243.428 94.7771 243.065 91.6641 243.915 88.5776L242.691 88.2404C241.748 91.6637 242.168 95.1022 243.912 98.5252L245.043 97.947ZM243.913 88.5836C244.79 85.5211 246.734 83.2138 249.799 81.6473L249.223 80.5152C245.868 82.2298 243.674 84.8077 242.693 88.2343L243.913 88.5836ZM249.799 81.6473C252.865 80.0807 255.859 79.8638 258.827 80.9591L259.267 79.7664C255.94 78.5386 252.577 78.8007 249.223 80.5152L249.799 81.6473ZM258.827 80.9592C261.842 82.0705 264.155 84.1861 265.769 87.3544L266.9 86.7762C265.155 83.3514 262.609 80.9986 259.266 79.7663L258.827 80.9592ZM265.769 87.3544C267.383 90.5227 267.731 93.6279 266.851 96.7022L268.071 97.0515C269.049 93.6366 268.645 90.2008 266.9 86.7762L265.769 87.3544ZM266.849 96.7083C266.003 99.7784 264.076 102.088 261.012 103.654L261.589 104.786C264.946 103.071 267.125 100.485 268.073 97.0455L266.849 96.7083ZM261.012 103.654C257.949 105.22 254.939 105.433 251.937 104.327L251.498 105.52C254.854 106.757 258.233 106.502 261.589 104.786L261.012 103.654ZM249.166 90.6852C248.572 92.3335 248.713 94.0005 249.55 95.6435L250.682 95.0653C249.99 93.7076 249.896 92.4052 250.36 91.1156L249.166 90.6852ZM249.55 95.6435C250.387 97.2864 251.649 98.3713 253.324 98.835L253.663 97.6098C252.364 97.2502 251.373 96.423 250.682 95.0653L249.55 95.6435ZM253.317 98.8331C254.983 99.3144 256.648 99.1217 258.278 98.2883L257.702 97.1562C256.334 97.8554 255 97.9961 253.67 97.6118L253.317 98.8331ZM258.278 98.2883C259.909 97.4548 261.042 96.2181 261.63 94.5845L260.436 94.1541C259.966 95.4585 259.07 96.457 257.702 97.1562L258.278 98.2883ZM261.628 94.5912C262.236 92.9602 262.099 91.3009 261.262 89.6579L260.13 90.2361C260.822 91.5938 260.91 92.8826 260.438 94.1474L261.628 94.5912ZM261.262 89.6579C260.425 88.015 259.16 86.9223 257.479 86.4366L257.126 87.6579C258.441 88.0379 259.439 88.8784 260.13 90.2361L261.262 89.6579ZM257.472 86.4347C255.817 85.9766 254.16 86.1816 252.533 87.0131L253.11 88.1452C254.482 87.4441 255.812 87.2945 257.132 87.6599L257.472 86.4347ZM252.533 87.0131C250.906 87.8447 249.769 89.0676 249.168 90.6785L250.358 91.1223C250.837 89.8375 251.738 88.8463 253.11 88.1452L252.533 87.0131Z" fill="#1E1F21"/>
</svg>
