<svg width="628" height="628" viewBox="0 0 628 628" fill="none" xmlns="http://www.w3.org/2000/svg">
<path d="M192.119 435.409L192.885 434.766L192.242 434L191.476 434.643L192.119 435.409ZM199.39 444.074L200.033 444.84L200.799 444.197L200.156 443.431L199.39 444.074ZM178.334 461.756L177.691 460.99L176.925 461.633L177.568 462.399L178.334 461.756ZM184.777 469.435L185.42 470.201L186.186 469.558L185.543 468.792L184.777 469.435ZM177.229 475.773L176.463 476.416L177.106 477.182L177.872 476.539L177.229 475.773ZM157.107 451.793L156.465 451.027L155.699 451.67L156.342 452.436L157.107 451.793ZM164.655 445.455L165.421 444.812L164.778 444.046L164.012 444.689L164.655 445.455ZM171.062 453.091L170.297 453.734L170.939 454.5L171.705 453.857L171.062 453.091ZM191.353 436.052L198.624 444.717L200.156 443.431L192.885 434.766L191.353 436.052ZM198.747 443.308L177.691 460.99L178.976 462.522L200.033 444.84L198.747 443.308ZM177.568 462.399L184.011 470.078L185.543 468.792L179.099 461.113L177.568 462.399ZM184.134 468.669L176.586 475.007L177.872 476.539L185.42 470.201L184.134 468.669ZM177.995 475.13L157.873 451.15L156.342 452.436L176.463 476.416L177.995 475.13ZM157.75 452.559L165.298 446.221L164.012 444.689L156.465 451.027L157.75 452.559ZM163.889 446.098L170.297 453.734L171.828 452.448L165.421 444.812L163.889 446.098ZM171.705 453.857L192.762 436.175L191.476 434.643L170.42 452.325L171.705 453.857Z" fill="#1E1F21"/>
<path d="M167.038 392.94L167.921 392.469L167.451 391.586L166.569 392.057L167.038 392.94ZM172.349 402.928L172.818 403.811L173.701 403.34L173.231 402.457L172.349 402.928ZM159.749 409.647L159.279 408.764L158.397 409.235L158.866 410.118L159.749 409.647ZM166.032 421.464L165.15 421.935L165.619 422.818L166.501 422.347L166.032 421.464ZM178.632 414.745L179.515 414.274L179.045 413.392L178.163 413.862L178.632 414.745ZM183.943 424.733L184.412 425.616L185.295 425.145L184.825 424.262L183.943 424.733ZM150.984 442.309L150.102 442.779L150.571 443.662L151.454 443.192L150.984 442.309ZM145.674 432.321L145.204 431.438L144.322 431.908L144.791 432.791L145.674 432.321ZM157.335 426.102L157.805 426.985L158.687 426.514L158.218 425.631L157.335 426.102ZM151.052 414.285L151.934 413.814L151.465 412.931L150.582 413.402L151.052 414.285ZM139.39 420.503L138.508 420.974L138.977 421.857L139.86 421.386L139.39 420.503ZM134.08 410.515L133.61 409.632L132.728 410.103L133.197 410.986L134.08 410.515ZM166.156 393.41L171.466 403.398L173.231 402.457L167.921 392.469L166.156 393.41ZM171.879 402.045L159.279 408.764L160.218 410.53L172.818 403.811L171.879 402.045ZM158.866 410.118L165.15 421.935L166.914 420.994L160.631 409.176L158.866 410.118ZM166.501 422.347L179.102 415.628L178.163 413.862L165.562 420.581L166.501 422.347ZM177.75 415.216L183.061 425.203L184.825 424.262L179.515 414.274L177.75 415.216ZM183.473 423.85L150.515 441.426L151.454 443.192L184.412 425.616L183.473 423.85ZM151.867 441.838L146.556 431.85L144.791 432.791L150.102 442.779L151.867 441.838ZM146.143 433.204L157.805 426.985L156.866 425.219L145.204 431.438L146.143 433.204ZM158.218 425.631L151.934 413.814L150.169 414.755L156.453 426.573L158.218 425.631ZM150.582 413.402L138.921 419.62L139.86 421.386L151.521 415.168L150.582 413.402ZM140.273 420.033L134.962 410.045L133.197 410.986L138.508 420.974L140.273 420.033ZM134.549 411.398L167.508 393.823L166.569 392.057L133.61 409.632L134.549 411.398Z" fill="#1E1F21"/>
<path d="M158.61 361.872L159.571 361.595L159.295 360.634L158.334 360.911L158.61 361.872ZM166.421 389.111L166.696 390.072L167.657 389.794L167.381 388.833L166.421 389.111ZM130.534 399.472L129.574 399.749L129.849 400.71L130.81 400.433L130.534 399.472ZM122.724 372.233L122.448 371.272L121.488 371.55L121.763 372.511L122.724 372.233ZM132.193 369.499L133.154 369.222L132.878 368.261L131.918 368.538L132.193 369.499ZM136.886 385.864L135.925 386.141L136.201 387.103L137.161 386.825L136.886 385.864ZM140.437 384.839L140.712 385.8L141.673 385.523L141.397 384.561L140.437 384.839ZM135.852 368.851L135.577 367.89L134.616 368.167L134.891 369.128L135.852 368.851ZM145.321 366.117L146.282 365.84L146.007 364.878L145.046 365.156L145.321 366.117ZM149.906 382.105L148.945 382.382L149.221 383.343L150.181 383.066L149.906 382.105ZM153.833 380.971L154.109 381.932L155.07 381.655L154.794 380.693L153.833 380.971ZM149.141 364.606L148.865 363.645L147.905 363.922L148.18 364.884L149.141 364.606ZM157.649 362.15L165.46 389.388L167.381 388.833L159.571 361.595L157.649 362.15ZM166.145 388.149L130.259 398.511L130.81 400.433L166.696 390.072L166.145 388.149ZM131.495 399.194L123.685 371.956L121.763 372.511L129.574 399.749L131.495 399.194ZM123 373.195L132.469 370.461L131.918 368.538L122.448 371.272L123 373.195ZM131.232 369.777L135.925 386.141L137.846 385.587L133.154 369.222L131.232 369.777ZM137.161 386.825L140.712 385.8L140.161 383.877L136.61 384.903L137.161 386.825ZM141.397 384.561L136.813 368.574L134.891 369.128L139.476 385.116L141.397 384.561ZM136.128 369.812L145.597 367.078L145.046 365.156L135.577 367.89L136.128 369.812ZM144.361 366.394L148.945 382.382L150.867 381.827L146.282 365.84L144.361 366.394ZM150.181 383.066L154.109 381.932L153.558 380.009L149.63 381.143L150.181 383.066ZM154.794 380.693L150.102 364.329L148.18 364.884L152.873 381.248L154.794 380.693ZM149.417 365.567L158.886 362.833L158.334 360.911L148.865 363.645L149.417 365.567Z" fill="#1E1F21"/>
<path d="M156.746 309.37L157.746 309.367V307.731L156.29 308.481L156.746 309.37ZM156.746 322.25L157.147 323.165L157.746 322.901V322.247L156.746 322.25ZM144.986 327.427L144.585 326.512L143.986 326.775V327.429L144.986 327.427ZM144.986 331.515L143.986 331.517V332.517L144.986 332.515V331.515ZM156.746 331.49L157.746 331.487V330.487L156.746 330.49V331.49ZM156.746 342.802V343.802L157.746 343.799V342.799L156.746 342.802ZM119.394 342.882L118.394 342.884V343.884L119.394 343.882V342.882ZM123.09 313.082L123.781 313.804L123.786 313.799L123.792 313.793L123.09 313.082ZM139.386 311.479L138.802 312.292L138.813 312.299L139.386 311.479ZM143.53 316.174L142.632 316.616L143.08 317.53L143.986 317.063L143.53 316.174ZM134.402 322.018L135.227 321.451L135.217 321.437L135.207 321.423L134.402 322.018ZM130.034 322.027L130.839 322.619L130.849 322.604L130.859 322.59L130.034 322.027ZM129.25 331.549L128.25 331.551V332.551L129.25 332.549V331.549ZM135.13 331.536V332.536L136.13 332.534V331.534L135.13 331.536ZM155.746 309.372V322.252L157.746 322.247V309.367L155.746 309.372ZM156.345 321.335L144.585 326.512L145.387 328.342L157.147 323.165L156.345 321.335ZM143.986 327.429V331.517L145.986 331.513V327.425L143.986 327.429ZM144.986 332.515L156.746 332.49V330.49L144.986 330.515V332.515ZM155.746 331.492V342.804L157.746 342.799V331.487L155.746 331.492ZM156.746 341.802L119.394 341.882V343.882L156.746 343.802V341.802ZM120.394 342.88V322.944L118.394 322.948V342.884L120.394 342.88ZM120.394 322.944C120.394 318.929 121.559 315.929 123.781 313.804L122.4 312.36C119.693 314.95 118.394 318.526 118.394 322.948L120.394 322.944ZM123.792 313.793C126.016 311.598 128.8 310.486 132.218 310.478V308.478C128.318 308.487 125.017 309.777 122.388 312.371L123.792 313.793ZM132.218 310.478C134.976 310.472 137.146 311.103 138.802 312.292L139.97 310.666C137.893 309.175 135.284 308.472 132.218 308.478V310.478ZM138.813 312.299C140.557 313.517 141.819 314.958 142.632 316.616L144.428 315.732C143.449 313.736 141.948 312.046 139.959 310.659L138.813 312.299ZM143.986 317.063L157.202 310.258L156.29 308.481L143.074 315.285L143.986 317.063ZM136.13 324.646C136.13 323.443 135.849 322.359 135.227 321.451L133.577 322.584C133.926 323.093 134.13 323.762 134.13 324.65L136.13 324.646ZM135.207 321.423C134.475 320.431 133.413 319.956 132.162 319.959V321.959C132.852 321.957 133.284 322.188 133.597 322.613L135.207 321.423ZM132.162 319.959C130.932 319.961 129.899 320.455 129.209 321.464L130.859 322.59C131.14 322.179 131.525 321.96 132.162 321.959V319.959ZM129.229 321.436C128.557 322.349 128.25 323.445 128.25 324.663L130.25 324.659C130.25 323.786 130.465 323.127 130.839 322.619L129.229 321.436ZM128.25 324.663V331.551L130.25 331.547V324.659L128.25 324.663ZM129.25 332.549L135.13 332.536V330.536L129.25 330.549V332.549ZM136.13 331.534V324.646L134.13 324.65V331.538L136.13 331.534Z" fill="#1E1F21"/>
<path d="M159.385 295.294L160.373 295.449L160.529 294.461L159.541 294.307L159.385 295.294ZM157.615 306.467L157.459 307.455L158.447 307.609L158.603 306.622L157.615 306.467ZM120.711 300.7L119.723 300.545L119.567 301.533L120.555 301.687L120.711 300.7ZM122.481 289.527L122.637 288.539L121.649 288.385L121.493 289.372L122.481 289.527ZM158.397 295.14L156.627 306.313L158.603 306.622L160.373 295.449L158.397 295.14ZM157.772 305.479L120.868 299.712L120.555 301.687L157.459 307.455L157.772 305.479ZM121.699 300.854L123.469 289.681L121.493 289.372L119.723 300.545L121.699 300.854ZM122.325 290.515L159.229 296.282L159.541 294.307L122.637 288.539L122.325 290.515Z" fill="#1E1F21"/>
<path d="M156.762 284.823L157.261 285.689L157.269 285.684L156.762 284.823ZM130.064 276.199L130.979 275.794L130.979 275.793L130.064 276.199ZM135.367 251.724L135.978 252.515L135.983 252.511L135.367 251.724ZM143.878 248L144.866 247.841L144.711 246.874L143.74 247.011L143.878 248ZM145.573 258.552L145.698 259.543L146.724 259.412L146.561 258.392L145.573 258.552ZM141.634 260.163L142.194 260.991L142.208 260.981L142.222 260.971L141.634 260.163ZM139.554 270.732L138.678 271.215L139.554 270.732ZM152.237 274.828L152.663 275.732L152.237 274.828ZM157.021 263.368L157.968 263.043L157.806 262.57L157.33 262.417L157.021 263.368ZM155.742 262.955L156.051 262.004L155.099 261.696L154.79 262.647L155.742 262.955ZM153.596 269.559L153.287 270.51L154.239 270.817L154.548 269.866L153.596 269.559ZM144.217 266.529L143.266 266.222L142.957 267.173L143.908 267.48L144.217 266.529ZM149.841 249.22L150.15 248.269L149.199 247.962L148.89 248.913L149.841 249.22ZM164.389 253.919L165.257 253.42L165.065 253.086L164.698 252.968L164.389 253.919ZM165.354 272.18C163.621 277.511 160.585 281.414 156.255 283.962L157.269 285.684C162.064 282.862 165.39 278.54 167.257 272.794L165.354 272.18ZM156.264 283.957C151.949 286.439 147.182 286.857 141.879 285.144L141.261 287.046C147.041 288.913 152.403 288.483 157.261 285.689L156.264 283.957ZM141.879 285.144C136.575 283.43 132.979 280.311 130.979 275.794L129.149 276.605C131.405 281.701 135.48 285.179 141.261 287.046L141.879 285.144ZM130.979 275.793C128.937 271.187 128.756 266.246 130.487 260.917L128.584 260.303C126.716 266.052 126.888 271.504 129.149 276.605L130.979 275.793ZM130.487 260.917C131.709 257.157 133.554 254.383 135.978 252.515L134.757 250.933C131.943 253.102 129.9 256.252 128.584 260.303L130.487 260.917ZM135.983 252.511C138.486 250.556 141.161 249.392 144.017 248.99L143.74 247.011C140.507 247.466 137.508 248.785 134.752 250.937L135.983 252.511ZM142.891 248.16L144.585 258.711L146.561 258.392L144.866 247.841L142.891 248.16ZM145.447 257.56C143.874 257.761 142.404 258.369 141.046 259.355L142.222 260.971C143.331 260.165 144.487 259.698 145.698 259.543L145.447 257.56ZM141.074 259.335C139.625 260.314 138.621 261.671 138.07 263.367L139.973 263.981C140.391 262.694 141.128 261.711 142.194 260.991L141.074 259.335ZM138.07 263.367C137.163 266.158 137.345 268.801 138.678 271.215L140.431 270.248C139.391 268.365 139.219 266.302 139.973 263.981L138.07 263.367ZM138.678 271.215C139.997 273.604 142.065 275.241 144.808 276.128L145.426 274.225C143.125 273.482 141.484 272.156 140.431 270.248L138.678 271.215ZM144.808 276.128C147.551 277.014 150.189 276.896 152.663 275.732L151.812 273.924C149.837 274.854 147.728 274.969 145.426 274.225L144.808 276.128ZM152.663 275.732C155.162 274.556 156.864 272.522 157.771 269.73L155.868 269.116C155.114 271.437 153.761 273.007 151.812 273.924L152.663 275.732ZM157.771 269.73C158.128 268.633 158.316 267.455 158.344 266.2L156.344 266.158C156.319 267.241 156.158 268.224 155.868 269.116L157.771 269.73ZM158.344 266.2C158.372 264.973 158.263 263.905 157.968 263.043L156.074 263.692C156.263 264.242 156.369 265.048 156.344 266.158L158.344 266.2ZM157.33 262.417L156.051 262.004L155.433 263.906L156.712 264.319L157.33 262.417ZM154.79 262.647L152.645 269.251L154.548 269.866L156.694 263.262L154.79 262.647ZM153.905 268.608L144.526 265.578L143.908 267.48L153.287 270.51L153.905 268.608ZM145.169 266.837L150.793 249.527L148.89 248.913L143.266 266.222L145.169 266.837ZM149.532 250.171L164.08 254.87L164.698 252.968L150.15 248.269L149.532 250.171ZM163.522 254.419C166.769 260.053 167.378 265.949 165.354 272.18L167.257 272.794C169.455 266.029 168.787 259.547 165.257 253.42L163.522 254.419Z" fill="#1E1F21"/>
<path d="M190.939 223.069L191.797 223.583L192.312 222.726L191.454 222.212L190.939 223.069ZM185.113 232.765L184.598 233.622L185.456 234.136L185.971 233.279L185.113 232.765ZM172.865 225.423L173.38 224.565L172.523 224.051L172.008 224.908L172.865 225.423ZM165.972 236.895L165.114 236.381L164.599 237.238L165.457 237.752L165.972 236.895ZM178.22 244.237L179.077 244.752L179.593 243.894L178.735 243.38L178.22 244.237ZM172.394 253.934L171.879 254.791L172.736 255.305L173.251 254.448L172.394 253.934ZM140.358 234.728L139.5 234.214L138.985 235.071L139.843 235.585L140.358 234.728ZM146.184 225.032L146.699 224.175L145.841 223.66L145.326 224.518L146.184 225.032ZM157.519 231.827L157.004 232.684L157.861 233.199L158.376 232.341L157.519 231.827ZM164.412 220.355L165.27 220.869L165.785 220.012L164.927 219.498L164.412 220.355ZM153.077 213.56L152.219 213.045L151.704 213.902L152.562 214.417L153.077 213.56ZM158.903 203.863L159.418 203.006L158.56 202.492L158.045 203.349L158.903 203.863ZM190.082 222.555L184.255 232.251L185.971 233.279L191.797 223.583L190.082 222.555ZM185.628 231.908L173.38 224.565L172.35 226.28L184.598 233.622L185.628 231.908ZM172.008 224.908L165.114 236.381L166.83 237.409L173.723 225.937L172.008 224.908ZM165.457 237.752L177.705 245.095L178.735 243.38L166.487 236.038L165.457 237.752ZM177.362 243.723L171.536 253.42L173.251 254.448L179.077 244.752L177.362 243.723ZM172.909 253.077L140.873 233.871L139.843 235.585L171.879 254.791L172.909 253.077ZM141.215 235.242L147.041 225.546L145.326 224.518L139.5 234.214L141.215 235.242ZM145.669 225.889L157.004 232.684L158.034 230.97L146.699 224.175L145.669 225.889ZM158.376 232.341L165.27 220.869L163.554 219.841L156.661 231.313L158.376 232.341ZM164.927 219.498L153.592 212.702L152.562 214.417L163.897 221.212L164.927 219.498ZM153.935 214.074L159.761 204.377L158.045 203.349L152.219 213.045L153.935 214.074ZM158.388 204.72L190.424 223.926L191.454 222.212L159.418 203.006L158.388 204.72Z" fill="#1E1F21"/>
<path d="M207.615 206.381L208.346 207.063L209.028 206.332L208.297 205.65L207.615 206.381ZM199.9 214.654L199.218 215.386L199.949 216.067L200.631 215.336L199.9 214.654ZM179.788 195.905L180.47 195.174L179.738 194.492L179.056 195.223L179.788 195.905ZM172.952 203.236L172.27 203.967L173.001 204.649L173.683 203.918L172.952 203.236ZM165.742 196.515L165.011 195.833L164.329 196.565L165.06 197.247L165.742 196.515ZM187.092 173.621L187.774 172.89L187.042 172.208L186.36 172.939L187.092 173.621ZM194.301 180.342L195.032 181.024L195.714 180.292L194.983 179.61L194.301 180.342ZM187.503 187.632L186.771 186.95L186.089 187.681L186.821 188.363L187.503 187.632ZM206.883 205.699L199.169 213.972L200.631 215.336L208.346 207.063L206.883 205.699ZM200.582 213.923L180.47 195.174L179.106 196.636L199.218 215.386L200.582 213.923ZM179.056 195.223L172.22 202.554L173.683 203.918L180.519 196.587L179.056 195.223ZM173.634 202.505L166.424 195.784L165.06 197.247L172.27 203.967L173.634 202.505ZM166.474 197.197L187.823 174.303L186.36 172.939L165.011 195.833L166.474 197.197ZM186.41 174.352L193.619 181.073L194.983 179.61L187.774 172.89L186.41 174.352ZM193.569 179.66L186.771 186.95L188.234 188.314L195.032 181.024L193.569 179.66ZM186.821 188.363L206.933 207.112L208.297 205.65L188.185 186.901L186.821 188.363Z" fill="#1E1F21"/>
<path d="M238.108 181.776L238.623 182.634L239.48 182.119L238.966 181.261L238.108 181.776ZM228.412 187.602L227.555 188.117L228.069 188.975L228.926 188.46L228.412 187.602ZM209.206 155.566L208.692 154.709L207.835 155.224L208.349 156.081L209.206 155.566ZM233.495 140.972L234.352 140.457L233.838 139.6L232.981 140.115L233.495 140.972ZM238.563 149.426L239.077 150.283L239.934 149.768L239.42 148.91L238.563 149.426ZM223.97 158.194L223.456 157.336L222.599 157.851L223.113 158.709L223.97 158.194ZM225.871 161.363L225.013 161.879L225.528 162.736L226.385 162.221L225.871 161.363ZM240.127 152.797L240.984 152.282L240.47 151.425L239.613 151.94L240.127 152.797ZM245.195 161.251L245.709 162.108L246.566 161.593L246.052 160.736L245.195 161.251ZM230.939 169.817L230.424 168.959L229.567 169.474L230.081 170.332L230.939 169.817ZM237.594 180.918L227.898 186.745L228.926 188.46L238.623 182.634L237.594 180.918ZM229.269 187.087L210.063 155.051L208.349 156.081L227.555 188.117L229.269 187.087ZM209.72 156.424L234.009 141.83L232.981 140.115L208.692 154.709L209.72 156.424ZM232.638 141.487L237.705 149.941L239.42 148.91L234.352 140.457L232.638 141.487ZM238.048 148.568L223.456 157.336L224.484 159.051L239.077 150.283L238.048 148.568ZM223.113 158.709L225.013 161.879L226.728 160.848L224.827 157.678L223.113 158.709ZM226.385 162.221L240.641 153.655L239.613 151.94L225.356 160.506L226.385 162.221ZM239.27 153.312L244.338 161.766L246.052 160.736L240.984 152.282L239.27 153.312ZM244.681 160.393L230.424 168.959L231.453 170.674L245.709 162.108L244.681 160.393ZM230.081 170.332L237.251 182.291L238.966 181.261L231.796 169.302L230.081 170.332Z" fill="#1E1F21"/>
<path d="M284.501 156.603L285.381 157.078L285.381 157.077L284.501 156.603ZM256.915 166.102L256.507 167.016L256.516 167.02L256.915 166.102ZM247.898 139.771L248.777 140.246L248.777 140.245L247.898 139.771ZM275.484 130.272L275.076 131.186L275.085 131.19L275.484 130.272ZM262.234 156.571L261.756 157.45L261.766 157.456L262.234 156.571ZM274.465 152.36L273.554 151.95L273.549 151.96L274.465 152.36ZM270.147 139.75L269.669 140.63L269.679 140.635L270.147 139.75ZM257.916 143.962L257.004 143.552L257 143.563L257.916 143.962ZM283.622 156.129C281.244 160.539 277.447 163.66 272.152 165.484L272.8 167.376C278.518 165.407 282.739 161.977 285.381 157.078L283.622 156.129ZM272.152 165.484C266.857 167.307 261.929 167.189 257.314 165.184L256.516 167.02C261.635 169.244 267.082 169.345 272.8 167.376L272.152 165.484ZM257.323 165.188C252.75 163.148 249.592 159.607 247.836 154.481L245.945 155.132C247.866 160.743 251.39 164.733 256.507 167.016L257.323 165.188ZM247.836 154.481C246.08 149.354 246.41 144.635 248.777 140.246L247.018 139.297C244.365 144.217 244.024 149.521 245.945 155.132L247.836 154.481ZM248.777 140.245C251.18 135.786 254.989 132.642 260.282 130.82L259.634 128.928C253.913 130.897 249.682 134.352 247.018 139.297L248.777 140.245ZM260.282 130.82C265.574 128.997 270.486 129.138 275.076 131.186L275.892 129.359C270.794 127.083 265.355 126.958 259.634 128.928L260.282 130.82ZM275.085 131.19C279.676 133.185 282.843 136.699 284.598 141.823L286.489 141.171C284.566 135.558 281.027 131.589 275.883 129.355L275.085 131.19ZM284.598 141.823C286.352 146.946 286.013 151.69 283.622 156.129L285.381 157.077C288.055 152.112 288.411 146.785 286.489 141.171L284.598 141.823ZM261.766 157.456C264.199 158.744 266.826 158.89 269.571 157.945L268.923 156.053C266.655 156.834 264.606 156.695 262.702 155.687L261.766 157.456ZM269.571 157.945C272.315 157 274.285 155.271 275.381 152.759L273.549 151.96C272.699 153.908 271.191 155.272 268.923 156.053L269.571 157.945ZM275.376 152.769C276.497 150.276 276.568 147.636 275.634 144.909L273.743 145.56C274.527 147.848 274.449 149.959 273.554 151.95L275.376 152.769ZM275.634 144.909C274.7 142.182 273.027 140.143 270.615 138.866L269.679 140.635C271.605 141.655 272.96 143.272 273.743 145.56L275.634 144.909ZM270.625 138.871C268.222 137.564 265.608 137.413 262.863 138.358L263.511 140.25C265.779 139.469 267.805 139.616 269.669 140.63L270.625 138.871ZM262.863 138.358C260.119 139.303 258.135 141.036 257.004 143.552L258.827 144.371C259.712 142.403 261.243 141.031 263.511 140.25L262.863 138.358ZM257 143.563C255.918 146.044 255.868 148.673 256.8 151.394L258.691 150.743C257.905 148.449 257.969 146.34 258.832 144.361L257 143.563ZM256.8 151.394C257.731 154.115 259.382 156.159 261.756 157.45L262.712 155.692C260.818 154.662 259.476 153.037 258.691 150.743L256.8 151.394Z" fill="#1E1F21"/>
<path d="M325.568 151.317L326.324 151.971L326.328 151.966L325.568 151.317ZM298.111 154.203L297.5 154.996L297.509 155.003L298.111 154.203ZM290.041 121.21L289.939 120.215L288.944 120.32L289.046 121.315L290.041 121.21ZM301.458 120.01L302.453 119.906L302.35 118.911L301.356 119.015L301.458 120.01ZM305.931 145.949L305.288 146.716L305.3 146.726L305.312 146.736L305.931 145.949ZM316.178 144.872L315.402 144.242L316.178 144.872ZM315.326 118.553L315.223 117.558L314.229 117.662L314.331 118.657L315.326 118.553ZM326.743 117.353L327.737 117.248L327.635 116.253L326.64 116.358L326.743 117.353ZM324.812 150.664C322.255 153.623 318.12 155.487 312.212 156.108L312.417 158.097C318.613 157.446 323.314 155.453 326.324 151.971L324.812 150.664ZM312.212 156.108C306.306 156.729 301.857 155.767 298.713 153.403L297.509 155.003C301.199 157.777 306.22 158.749 312.417 158.097L312.212 156.108ZM298.722 153.411C295.583 150.99 293.759 147.554 293.29 142.998L291.301 143.207C291.818 148.232 293.871 152.197 297.5 154.996L298.722 153.411ZM293.29 142.998L291.035 121.106L289.046 121.315L291.301 143.207L293.29 142.998ZM290.143 122.205L301.561 121.005L301.356 119.015L289.939 120.215L290.143 122.205ZM300.464 120.115L302.678 141.617L304.667 141.408L302.453 119.906L300.464 120.115ZM302.678 141.617C302.893 143.708 303.756 145.434 305.288 146.716L306.573 145.181C305.476 144.263 304.834 143.031 304.667 141.408L302.678 141.617ZM305.312 146.736C306.92 148 308.992 148.434 311.396 148.182L311.191 146.192C309.14 146.408 307.636 146.017 306.549 145.162L305.312 146.736ZM311.396 148.182C313.767 147.932 315.674 147.078 316.954 145.501L315.402 144.242C314.55 145.292 313.201 145.981 311.191 146.192L311.396 148.182ZM316.954 145.501C318.233 143.925 318.751 142.05 318.534 139.95L316.545 140.159C316.712 141.773 316.321 143.11 315.402 144.242L316.954 145.501ZM318.534 139.95L316.32 118.448L314.331 118.657L316.545 140.159L318.534 139.95ZM315.428 119.547L326.845 118.347L326.64 116.358L315.223 117.558L315.428 119.547ZM325.748 117.457L327.997 139.294L329.986 139.085L327.737 117.248L325.748 117.457ZM327.997 139.294C328.47 143.889 327.385 147.649 324.808 150.669L326.328 151.966C329.31 148.471 330.507 144.145 329.986 139.085L327.997 139.294Z" fill="#1E1F21"/>
<path d="M371.119 159.295L370.995 160.287L371.988 160.409L372.112 159.416L371.119 159.295ZM360.336 157.971L359.461 158.456L359.707 158.901L360.212 158.963L360.336 157.971ZM349.009 137.51L349.884 137.024L348.397 134.338L348.016 137.388L349.009 137.51ZM346.663 156.292L346.539 157.284L347.532 157.406L347.656 156.414L346.663 156.292ZM335.435 154.913L334.443 154.791L334.319 155.784L335.311 155.905L335.435 154.913ZM340.065 117.849L340.189 116.857L339.196 116.735L339.072 117.727L340.065 117.849ZM351.626 119.269L352.499 118.78L352.252 118.338L351.75 118.276L351.626 119.269ZM362.328 138.412L361.454 138.901L362.942 141.562L363.32 138.533L362.328 138.412ZM364.521 120.852L364.645 119.86L363.652 119.738L363.528 120.73L364.521 120.852ZM375.749 122.231L376.741 122.352L376.865 121.36L375.873 121.238L375.749 122.231ZM371.243 158.302L360.46 156.978L360.212 158.963L370.995 160.287L371.243 158.302ZM361.212 157.485L349.884 137.024L348.133 137.995L359.461 158.456L361.212 157.485ZM348.016 137.388L345.67 156.17L347.656 156.414L350.001 137.632L348.016 137.388ZM346.787 155.299L335.559 153.921L335.311 155.905L346.539 157.284L346.787 155.299ZM336.428 155.035L341.057 117.971L339.072 117.727L334.443 154.791L336.428 155.035ZM339.941 118.841L351.502 120.261L351.75 118.276L340.189 116.857L339.941 118.841ZM350.752 119.758L361.454 138.901L363.201 137.923L352.499 118.78L350.752 119.758ZM363.32 138.533L365.513 120.974L363.528 120.73L361.335 138.29L363.32 138.533ZM364.397 121.844L375.625 123.223L375.873 121.238L364.645 119.86L364.397 121.844ZM374.756 122.109L370.127 159.173L372.112 159.416L376.741 122.352L374.756 122.109Z" fill="#1E1F21"/>
<path d="M374.051 161.404L373.117 161.046L372.758 161.979L373.691 162.337L374.051 161.404ZM387.493 126.555L387.853 125.622L386.92 125.264L386.56 126.197L387.493 126.555ZM415.081 142.484L414.196 142.951L414.199 142.956L415.081 142.484ZM405.226 168.033L405.569 168.972L405.569 168.972L405.226 168.033ZM400.221 158.134L399.796 157.23L400.221 158.134ZM404.933 146.386L405.857 146.002L404.933 146.386ZM394.507 139.805L394.867 138.872L393.933 138.513L393.573 139.446L394.507 139.805ZM388.159 156.263L387.225 155.904L386.865 156.837L387.799 157.196L388.159 156.263ZM390.043 166.472L374.411 160.471L373.691 162.337L389.323 168.338L390.043 166.472ZM374.985 161.763L388.427 126.914L386.56 126.197L373.117 161.046L374.985 161.763ZM387.133 127.488L402.713 133.469L403.433 131.603L387.853 125.622L387.133 127.488ZM402.713 133.469C408.18 135.567 411.971 138.74 414.196 142.951L415.966 142.016C413.473 137.298 409.258 133.839 403.433 131.603L402.713 133.469ZM414.199 142.956C416.412 147.088 416.573 151.711 414.563 156.921L416.43 157.638C418.612 151.98 418.496 146.739 415.964 142.011L414.199 142.956ZM414.563 156.921C412.553 162.131 409.32 165.474 404.884 167.094L405.569 168.972C410.634 167.121 414.248 163.295 416.43 157.638L414.563 156.921ZM404.884 167.094C400.402 168.732 395.474 168.557 390.043 166.472L389.323 168.338C395.115 170.561 400.549 170.805 405.569 168.972L404.884 167.094ZM392.818 159.122C395.576 160.181 398.212 160.185 400.647 159.038L399.796 157.23C397.928 158.11 395.868 158.151 393.538 157.256L392.818 159.122ZM400.647 159.038C403.041 157.91 404.737 156.053 405.713 153.524L403.845 152.807C403.048 154.875 401.705 156.331 399.796 157.23L400.647 159.038ZM405.713 153.524C406.74 150.86 406.826 148.33 405.857 146.002L404.009 146.771C404.743 148.535 404.726 150.524 403.845 152.807L405.713 153.524ZM405.857 146.002C404.871 143.631 402.828 141.928 399.938 140.818L399.218 142.684C401.765 143.662 403.293 145.049 404.009 146.771L405.857 146.002ZM399.938 140.818L394.867 138.872L394.147 140.738L399.218 142.684L399.938 140.818ZM393.573 139.446L387.225 155.904L389.092 156.621L395.441 140.163L393.573 139.446ZM387.799 157.196L392.818 159.122L393.538 157.256L388.519 155.33L387.799 157.196Z" fill="#1E1F21"/>
<path d="M442.964 195.789L442.419 196.628L443.622 197.409L443.94 196.01L442.964 195.789ZM432.209 188.805L431.247 188.531L431.044 189.241L431.664 189.643L432.209 188.805ZM433.464 184.412L434.426 184.686L434.629 183.976L434.009 183.573L433.464 184.412ZM422.192 177.092L422.738 176.254L422.118 175.851L421.551 176.325L422.192 177.092ZM418.683 180.021L418.138 180.859L418.757 181.261L419.324 180.788L418.683 180.021ZM407.928 173.037L407.33 172.236L406.179 173.093L407.383 173.875L407.928 173.037ZM439.852 149.231L440.397 148.393L439.812 148.013L439.253 148.43L439.852 149.231ZM451.781 156.978L452.756 157.199L452.911 156.519L452.326 156.14L451.781 156.978ZM436.303 174.503L435.758 175.342L436.892 176.078L437.265 174.778L436.303 174.503ZM439.769 162.398L440.731 162.673L441.628 159.542L439.128 161.632L439.769 162.398ZM430.103 170.477L429.462 169.711L428.423 170.579L429.558 171.316L430.103 170.477ZM443.51 194.951L432.754 187.967L431.664 189.643L442.419 196.628L443.51 194.951ZM433.171 189.079L434.426 184.686L432.502 184.138L431.247 188.531L433.171 189.079ZM434.009 183.573L422.738 176.254L421.647 177.93L432.919 185.25L434.009 183.573ZM421.551 176.325L418.042 179.254L419.324 180.788L422.834 177.859L421.551 176.325ZM419.228 179.183L408.473 172.198L407.383 173.875L418.138 180.859L419.228 179.183ZM408.526 173.838L440.45 150.032L439.253 148.43L407.33 172.236L408.526 173.838ZM439.306 150.069L451.235 157.816L452.326 156.14L440.397 148.393L439.306 150.069ZM450.805 156.757L441.989 195.568L443.94 196.01L452.756 157.199L450.805 156.757ZM437.265 174.778L440.731 162.673L438.807 162.124L435.341 174.229L437.265 174.778ZM439.128 161.632L429.462 169.711L430.745 171.244L440.411 163.165L439.128 161.632ZM429.558 171.316L435.758 175.342L436.848 173.665L430.649 169.639L429.558 171.316Z" fill="#1E1F21"/>
<path d="M456.318 211.01L455.611 211.717L456.318 212.424L457.025 211.717L456.318 211.01ZM448.319 203.011L447.612 202.304L446.905 203.011L447.612 203.718L448.319 203.011ZM467.762 183.569L468.469 184.276L469.176 183.569L468.469 182.862L467.762 183.569ZM460.674 176.481L459.967 175.774L459.26 176.481L459.967 177.188L460.674 176.481ZM467.643 169.511L468.35 168.804L467.643 168.097L466.936 168.804L467.643 169.511ZM489.778 191.647L490.485 192.354L491.193 191.647L490.485 190.94L489.778 191.647ZM482.809 198.616L482.102 199.323L482.809 200.03L483.516 199.323L482.809 198.616ZM475.761 191.567L476.468 190.86L475.761 190.153L475.054 190.86L475.761 191.567ZM457.025 210.303L449.026 202.304L447.612 203.718L455.611 211.717L457.025 210.303ZM449.026 203.718L468.469 184.276L467.055 182.862L447.612 202.304L449.026 203.718ZM468.469 182.862L461.381 175.774L459.967 177.188L467.055 184.276L468.469 182.862ZM461.381 177.188L468.35 170.218L466.936 168.804L459.967 175.774L461.381 177.188ZM466.936 170.218L489.071 192.354L490.485 190.94L468.35 168.804L466.936 170.218ZM489.071 190.94L482.102 197.909L483.516 199.323L490.485 192.354L489.071 190.94ZM483.516 197.909L476.468 190.86L475.054 192.275L482.102 199.323L483.516 197.909ZM475.054 190.86L455.611 210.303L457.025 211.717L476.468 192.275L475.054 190.86Z" fill="#1E1F21"/>
<path d="M471.675 229.514L470.877 230.116L471.478 230.915L472.277 230.313L471.675 229.514ZM464.867 220.48L464.265 219.681L463.467 220.283L464.069 221.082L464.867 220.48ZM494.684 197.983L495.483 197.381L494.881 196.582L494.083 197.185L494.684 197.983ZM501.492 207.017L502.094 207.816L502.892 207.214L502.29 206.415L501.492 207.017ZM472.473 228.912L465.665 219.878L464.069 221.082L470.877 230.116L472.473 228.912ZM465.469 221.278L495.286 198.782L494.083 197.185L464.265 219.681L465.469 221.278ZM493.886 198.585L500.694 207.62L502.29 206.415L495.483 197.381L493.886 198.585ZM500.89 206.219L471.073 228.715L472.277 230.313L502.094 207.816L500.89 206.219Z" fill="#1E1F21"/>
<path d="M493.803 259.904L493.456 260.843L493.457 260.843L493.803 259.904ZM480.557 233.908L479.596 233.633L479.593 233.643L480.557 233.908ZM505.34 221.242L504.993 222.181L504.994 222.181L505.34 221.242ZM518.585 247.238L517.625 246.963L517.622 246.972L518.585 247.238ZM490.726 237.83L489.789 237.481L489.786 237.491L490.726 237.83ZM496.599 249.356L496.876 248.395L496.866 248.392L496.599 249.356ZM508.466 243.29L507.53 242.941L507.526 242.952L508.466 243.29ZM502.594 231.764L502.871 230.803L502.861 230.8L502.594 231.764ZM494.149 258.965C489.455 257.233 485.838 253.912 483.296 248.922L481.515 249.833C484.261 255.221 488.242 258.918 493.456 260.843L494.149 258.965ZM483.296 248.922C480.753 243.932 480.182 239.032 481.52 234.173L479.593 233.643C478.109 239.031 478.769 244.444 481.515 249.833L483.296 248.922ZM481.518 234.183C482.898 229.362 485.958 225.73 490.783 223.264L489.875 221.482C484.594 224.181 481.14 228.239 479.596 233.633L481.518 234.183ZM490.783 223.264C495.608 220.798 500.322 220.456 504.993 222.181L505.686 220.303C500.45 218.37 495.156 218.783 489.875 221.482L490.783 223.264ZM504.994 222.181C509.74 223.93 513.381 227.26 515.922 232.248L517.703 231.338C514.956 225.947 510.948 222.243 505.686 220.303L504.994 222.181ZM515.922 232.248C518.463 237.235 519.01 242.123 517.625 246.963L519.546 247.513C521.085 242.137 520.45 236.729 517.703 231.338L515.922 232.248ZM517.622 246.972C516.29 251.805 513.257 255.442 508.434 257.906L509.342 259.688C514.626 256.988 518.057 252.918 519.549 247.503L517.622 246.972ZM508.434 257.906C503.612 260.371 498.873 260.707 494.149 258.965L493.457 260.843C498.74 262.791 504.059 262.389 509.342 259.688L508.434 257.906ZM489.786 237.491C488.851 240.086 489.073 242.71 490.391 245.296L492.172 244.386C491.083 242.249 490.935 240.199 491.666 238.169L489.786 237.491ZM490.391 245.296C491.709 247.883 493.694 249.59 496.332 250.32L496.866 248.392C494.82 247.825 493.261 246.523 492.172 244.386L490.391 245.296ZM496.321 250.317C498.943 251.075 501.564 250.771 504.131 249.46L503.223 247.678C501.069 248.778 498.971 249 496.876 248.395L496.321 250.317ZM504.131 249.46C506.698 248.148 508.48 246.201 509.407 243.629L507.526 242.952C506.787 245.005 505.376 246.577 503.223 247.678L504.131 249.46ZM509.403 243.64C510.36 241.072 510.145 238.46 508.827 235.874L507.046 236.784C508.135 238.921 508.273 240.95 507.53 242.941L509.403 243.64ZM508.827 235.874C507.509 233.288 505.518 231.568 502.871 230.803L502.316 232.726C504.386 233.324 505.957 234.647 507.046 236.784L508.827 235.874ZM502.861 230.8C500.256 230.079 497.648 230.402 495.087 231.711L495.995 233.493C498.154 232.389 500.249 232.154 502.327 232.729L502.861 230.8ZM495.087 231.711C492.526 233.02 490.735 234.945 489.789 237.481L491.662 238.179C492.416 236.157 493.836 234.596 495.995 233.493L495.087 231.711Z" fill="#1E1F21"/>
<path d="M501.955 304.2L500.985 304.443L501.227 305.414L502.197 305.17L501.955 304.2ZM499.327 293.658L498.56 293.017L498.234 293.408L498.357 293.902L499.327 293.658ZM514.351 275.678L515.117 276.319L517.09 273.958L514.109 274.707L514.351 275.678ZM495.994 280.291L495.024 280.535L495.266 281.505L496.236 281.262L495.994 280.291ZM493.257 269.315L493.015 268.345L492.046 268.589L492.288 269.559L493.257 269.315ZM529.483 260.211L530.452 259.967L530.211 258.997L529.241 259.24L529.483 260.211ZM532.301 271.513L533.07 272.15L533.393 271.76L533.27 271.269L532.301 271.513ZM518.281 288.432L517.512 287.794L515.564 290.146L518.523 289.403L518.281 288.432ZM535.444 284.119L536.413 283.875L536.172 282.905L535.202 283.148L535.444 284.119ZM538.18 295.095L538.422 296.065L539.392 295.821L539.15 294.851L538.18 295.095ZM502.925 303.956L500.297 293.414L498.357 293.902L500.985 304.443L502.925 303.956ZM500.093 294.299L515.117 276.319L513.585 275.036L498.56 293.017L500.093 294.299ZM514.109 274.707L495.752 279.321L496.236 281.262L514.593 276.648L514.109 274.707ZM496.964 280.048L494.227 269.072L492.288 269.559L495.024 280.535L496.964 280.048ZM493.499 270.286L529.725 261.181L529.241 259.24L493.015 268.345L493.499 270.286ZM528.513 260.454L531.331 271.756L533.27 271.269L530.452 259.967L528.513 260.454ZM531.532 270.875L517.512 287.794L519.05 289.07L533.07 272.15L531.532 270.875ZM518.523 289.403L535.686 285.089L535.202 283.148L518.039 287.462L518.523 289.403ZM534.474 284.362L537.21 295.338L539.15 294.851L536.413 283.875L534.474 284.362ZM537.938 294.124L501.713 303.229L502.197 305.17L538.422 296.065L537.938 294.124Z" fill="#1E1F21"/>
</svg>
