<svg width="176" height="266" viewBox="0 0 176 266" fill="none" xmlns="http://www.w3.org/2000/svg">
<path d="M81.7983 183.63L82.1219 183.358L81.8503 183.035L81.5268 183.306L81.7983 183.63ZM84.8704 187.291L85.1419 187.615L85.4655 187.343L85.1939 187.019L84.8704 187.291ZM75.9742 194.762L75.7026 194.438L75.3791 194.71L75.6507 195.033L75.9742 194.762ZM78.6964 198.006L78.968 198.33L79.2915 198.058L79.02 197.734L78.6964 198.006ZM75.5076 200.684L75.184 200.955L75.4556 201.279L75.7792 201.007L75.5076 200.684ZM67.0063 190.552L66.7347 190.229L66.4112 190.5L66.6828 190.824L67.0063 190.552ZM70.1951 187.874L70.5187 187.603L70.2471 187.279L69.9236 187.551L70.1951 187.874ZM72.9022 191.101L72.5786 191.372L72.8502 191.696L73.1737 191.424L72.9022 191.101ZM81.4748 183.902L84.5468 187.563L85.1939 187.019L82.1219 183.358L81.4748 183.902ZM84.5988 186.967L75.7026 194.438L76.2458 195.085L85.1419 187.615L84.5988 186.967ZM75.6507 195.033L78.3729 198.278L79.02 197.734L76.2977 194.49L75.6507 195.033ZM78.4249 197.682L75.236 200.36L75.7792 201.007L78.968 198.33L78.4249 197.682ZM75.8311 200.412L67.3298 190.281L66.6828 190.824L75.184 200.955L75.8311 200.412ZM67.2779 190.876L70.4667 188.198L69.9236 187.551L66.7347 190.229L67.2779 190.876ZM69.8716 188.146L72.5786 191.372L73.2257 190.829L70.5187 187.603L69.8716 188.146ZM73.1737 191.424L82.0699 183.954L81.5268 183.306L72.6306 190.777L73.1737 191.424Z" fill="#1E1F21"/>
<path d="M71.2101 165.7L71.5829 165.501L71.3846 165.128L71.0118 165.327L71.2101 165.7ZM73.4538 169.92L73.6522 170.293L74.025 170.094L73.8266 169.721L73.4538 169.92ZM68.1303 172.759L67.932 172.386L67.5592 172.584L67.7575 172.957L68.1303 172.759ZM70.785 177.751L70.4122 177.95L70.6105 178.323L70.9833 178.124L70.785 177.751ZM76.1085 174.912L76.4813 174.714L76.283 174.341L75.9102 174.539L76.1085 174.912ZM78.3522 179.132L78.5506 179.505L78.9234 179.306L78.725 178.933L78.3522 179.132ZM64.4275 186.558L64.0547 186.757L64.2531 187.13L64.6259 186.931L64.4275 186.558ZM62.1838 182.338L61.9855 181.965L61.6127 182.164L61.811 182.537L62.1838 182.338ZM67.1107 179.711L67.3091 180.084L67.6818 179.885L67.4835 179.512L67.1107 179.711ZM64.456 174.718L64.8288 174.519L64.6305 174.146L64.2577 174.345L64.456 174.718ZM59.5291 177.345L59.1563 177.544L59.3547 177.917L59.7275 177.718L59.5291 177.345ZM57.2854 173.125L57.0871 172.752L56.7143 172.951L56.9126 173.324L57.2854 173.125ZM70.8373 165.899L73.081 170.119L73.8266 169.721L71.5829 165.501L70.8373 165.899ZM73.2555 169.547L67.932 172.386L68.3287 173.132L73.6522 170.293L73.2555 169.547ZM67.7575 172.957L70.4122 177.95L71.1578 177.553L68.5031 172.56L67.7575 172.957ZM70.9833 178.124L76.3069 175.285L75.9102 174.539L70.5866 177.378L70.9833 178.124ZM75.7357 175.111L77.9794 179.331L78.725 178.933L76.4813 174.714L75.7357 175.111ZM78.1539 178.759L64.2292 186.185L64.6259 186.931L78.5506 179.505L78.1539 178.759ZM64.8003 186.359L62.5566 182.139L61.811 182.537L64.0547 186.757L64.8003 186.359ZM62.3822 182.711L67.3091 180.084L66.9124 179.338L61.9855 181.965L62.3822 182.711ZM67.4835 179.512L64.8288 174.519L64.0832 174.917L66.7379 179.909L67.4835 179.512ZM64.2577 174.345L59.3308 176.972L59.7275 177.718L64.6544 175.091L64.2577 174.345ZM59.9019 177.146L57.6582 172.927L56.9126 173.324L59.1563 177.544L59.9019 177.146ZM57.4838 173.499L71.4085 166.073L71.0118 165.327L57.0871 172.752L57.4838 173.499Z" fill="#1E1F21"/>
<path d="M67.6556 152.588L68.0615 152.471L67.945 152.065L67.5391 152.182L67.6556 152.588ZM70.9554 164.096L71.0719 164.502L71.4778 164.385L71.3613 163.979L70.9554 164.096ZM55.7938 168.474L55.3879 168.591L55.5044 168.997L55.9103 168.88L55.7938 168.474ZM52.494 156.966L52.3775 156.56L51.9716 156.677L52.0881 157.083L52.494 156.966ZM56.4946 155.811L56.9006 155.694L56.7841 155.288L56.3782 155.405L56.4946 155.811ZM58.4772 162.725L58.0713 162.842L58.1877 163.248L58.5936 163.131L58.4772 162.725ZM59.9774 162.292L60.0939 162.698L60.4998 162.58L60.3833 162.174L59.9774 162.292ZM58.0405 155.537L57.9241 155.131L57.5182 155.248L57.6346 155.654L58.0405 155.537ZM62.0412 154.382L62.4471 154.265L62.3307 153.858L61.9247 153.976L62.0412 154.382ZM63.9781 161.136L63.5722 161.254L63.6886 161.66L64.0945 161.543L63.9781 161.136ZM65.6374 160.657L65.7539 161.063L66.1598 160.946L66.0433 160.54L65.6374 160.657ZM63.6549 153.744L63.5385 153.337L63.1325 153.455L63.249 153.861L63.6549 153.744ZM67.2497 152.706L70.5495 164.214L71.3613 163.979L68.0615 152.471L67.2497 152.706ZM70.839 163.69L55.6774 168.068L55.9103 168.88L71.0719 164.502L70.839 163.69ZM56.1998 168.357L52.8999 156.849L52.0881 157.083L55.3879 168.591L56.1998 168.357ZM52.6104 157.372L56.6111 156.217L56.3782 155.405L52.3775 156.56L52.6104 157.372ZM56.0887 155.928L58.0713 162.842L58.8831 162.608L56.9006 155.694L56.0887 155.928ZM58.5936 163.131L60.0939 162.698L59.861 161.885L58.3607 162.319L58.5936 163.131ZM60.3833 162.174L58.4465 155.42L57.6346 155.654L59.5715 162.409L60.3833 162.174ZM58.157 155.943L62.1577 154.788L61.9247 153.976L57.9241 155.131L58.157 155.943ZM61.6353 154.499L63.5722 161.254L64.384 161.019L62.4471 154.265L61.6353 154.499ZM64.0945 161.543L65.7539 161.063L65.521 160.251L63.8616 160.73L64.0945 161.543ZM66.0433 160.54L64.0608 153.626L63.249 153.861L65.2315 160.775L66.0433 160.54ZM63.7714 154.15L67.772 152.995L67.5391 152.182L63.5385 153.337L63.7714 154.15Z" fill="#1E1F21"/>
<path d="M66.871 130.426L67.2935 130.425V129.734L66.6783 130.051L66.871 130.426ZM66.871 135.868L67.0406 136.255L67.2935 136.143V135.867L66.871 135.868ZM61.9026 138.055L61.733 137.669L61.4801 137.78V138.056L61.9026 138.055ZM61.9026 139.783L61.4801 139.783V140.206L61.9026 140.205V139.783ZM66.871 139.772L67.2935 139.771V139.348L66.871 139.349V139.772ZM66.871 144.551V144.974L67.2935 144.973V144.55L66.871 144.551ZM51.0902 144.585L50.6677 144.586V145.008L51.0902 145.008V144.585ZM52.6517 131.995L52.9435 132.3L52.9481 132.295L52.6517 131.995ZM59.5366 131.318L59.2897 131.661L59.2943 131.664L59.5366 131.318ZM61.2874 133.301L60.908 133.488L61.0973 133.874L61.4802 133.677L61.2874 133.301ZM57.4309 135.77L57.7796 135.531L57.7754 135.525L57.771 135.519L57.4309 135.77ZM55.5855 135.774L55.9256 136.024L55.93 136.018L55.9342 136.012L55.5855 135.774ZM55.2543 139.797L54.8318 139.798V140.22L55.2543 140.219V139.797ZM57.7385 139.792V140.214L58.161 140.213V139.791L57.7385 139.792ZM66.4485 130.427V135.869L67.2935 135.867V130.425L66.4485 130.427ZM66.7015 135.481L61.733 137.669L62.0721 138.442L67.0406 136.255L66.7015 135.481ZM61.4801 138.056V139.783L62.325 139.782V138.055L61.4801 138.056ZM61.9026 140.205L66.871 140.194V139.349L61.9026 139.36V140.205ZM66.4485 139.773V144.552L67.2935 144.55V139.771L66.4485 139.773ZM66.871 144.129L51.0902 144.163V145.008L66.871 144.974V144.129ZM51.5127 144.584V136.161L50.6677 136.163V144.586L51.5127 144.584ZM51.5127 136.161C51.5127 134.465 52.005 133.198 52.9434 132.3L52.36 131.69C51.2164 132.784 50.6677 134.295 50.6677 136.163L51.5127 136.161ZM52.9481 132.295C53.8881 131.368 55.0643 130.898 56.5082 130.895V130.05C54.8606 130.053 53.4658 130.599 52.3553 131.694L52.9481 132.295ZM56.5082 130.895C57.6736 130.892 58.5901 131.159 59.2897 131.661L59.7835 130.974C58.9058 130.344 57.8034 130.047 56.5082 130.05V130.895ZM59.2943 131.664C60.0315 132.179 60.5645 132.787 60.908 133.488L61.6668 133.115C61.2533 132.271 60.619 131.557 59.7789 130.971L59.2943 131.664ZM61.4802 133.677L67.0638 130.802L66.6783 130.051L61.0947 132.926L61.4802 133.677ZM58.161 136.881C58.161 136.372 58.0423 135.914 57.7796 135.531L57.0822 136.009C57.2296 136.225 57.316 136.507 57.316 136.882L58.161 136.881ZM57.771 135.519C57.4617 135.1 57.0131 134.899 56.4845 134.9V135.745C56.7762 135.744 56.9585 135.842 57.0908 136.021L57.771 135.519ZM56.4845 134.9C55.9649 134.901 55.5283 135.11 55.2368 135.536L55.9342 136.012C56.0528 135.838 56.2156 135.746 56.4845 135.745V134.9ZM55.2454 135.524C54.9616 135.91 54.8318 136.373 54.8318 136.888L55.6767 136.886C55.6767 136.517 55.7677 136.239 55.9256 136.024L55.2454 135.524ZM54.8318 136.888V139.798L55.6767 139.796V136.886L54.8318 136.888ZM55.2543 140.219L57.7385 140.214V139.369L55.2543 139.374V140.219ZM58.161 139.791V136.881L57.316 136.882V139.792L58.161 139.791Z" fill="#1E1F21"/>
<path d="M67.9845 124.492L68.4019 124.557L68.468 124.139L68.0506 124.074L67.9845 124.492ZM67.2369 129.212L67.1708 129.629L67.5882 129.694L67.6543 129.277L67.2369 129.212ZM51.6453 126.775L51.2278 126.71L51.1618 127.127L51.5792 127.192L51.6453 126.775ZM52.3929 122.055L52.459 121.638L52.0416 121.572L51.9755 121.99L52.3929 122.055ZM67.5671 124.426L66.8195 129.147L67.6543 129.277L68.4019 124.557L67.5671 124.426ZM67.303 128.795L51.7114 126.358L51.5792 127.192L67.1708 129.629L67.303 128.795ZM52.0627 126.84L52.8103 122.12L51.9755 121.99L51.2278 126.71L52.0627 126.84ZM52.3268 122.472L67.9184 124.909L68.0506 124.074L52.459 121.638L52.3268 122.472Z" fill="#1E1F21"/>
<path d="M66.8742 120.078L67.0848 120.444L67.0884 120.442L66.8742 120.078ZM55.5946 116.435L55.9812 116.264L55.9812 116.264L55.5946 116.435ZM57.835 106.095L58.0929 106.429L58.095 106.427L57.835 106.095ZM61.4309 104.521L61.8483 104.454L61.7827 104.045L61.3725 104.103L61.4309 104.521ZM62.1468 108.979L62.1998 109.398L62.6333 109.343L62.5641 108.912L62.1468 108.979ZM60.4827 109.66L60.7191 110.01L60.7252 110.006L60.7311 110.001L60.4827 109.66ZM59.6041 114.125L59.2339 114.329L59.6041 114.125ZM64.9625 115.856L65.1422 116.238L64.9625 115.856ZM66.9835 111.014L67.3835 110.877L67.3151 110.677L67.114 110.612L66.9835 111.014ZM66.4431 110.839L66.5737 110.438L66.1717 110.308L66.0411 110.709L66.4431 110.839ZM65.5366 113.63L65.406 114.031L65.808 114.161L65.9386 113.759L65.5366 113.63ZM61.5741 112.35L61.172 112.22L61.0415 112.622L61.4435 112.751L61.5741 112.35ZM63.9502 105.037L64.0808 104.635L63.6787 104.505L63.5482 104.907L63.9502 105.037ZM70.0966 107.022L70.463 106.811L70.3819 106.67L70.2271 106.62L70.0966 107.022ZM70.504 114.737C69.7721 116.989 68.4892 118.638 66.66 119.715L67.0884 120.442C69.1143 119.25 70.5193 117.424 71.3081 114.997L70.504 114.737ZM66.6637 119.713C64.8408 120.761 62.8268 120.938 60.586 120.214L60.3249 121.018C62.7671 121.806 65.0323 121.625 67.0847 120.444L66.6637 119.713ZM60.586 120.214C58.3453 119.49 56.8262 118.172 55.9812 116.264L55.208 116.606C56.1612 118.759 57.8828 120.229 60.3249 121.018L60.586 120.214ZM55.9812 116.264C55.1182 114.317 55.0418 112.23 55.7733 109.979L54.9693 109.719C54.1801 112.148 54.2525 114.451 55.2081 116.607L55.9812 116.264ZM55.7733 109.979C56.2896 108.39 57.069 107.218 58.0929 106.429L57.577 105.76C56.3884 106.677 55.5253 108.008 54.9693 109.719L55.7733 109.979ZM58.095 106.427C59.1528 105.601 60.283 105.109 61.4894 104.939L61.3725 104.103C60.0066 104.296 58.7395 104.853 57.5749 105.762L58.095 106.427ZM61.0136 104.589L61.7294 109.047L62.5641 108.912L61.8483 104.454L61.0136 104.589ZM62.0937 108.56C61.4289 108.645 60.8079 108.902 60.2344 109.319L60.7311 110.001C61.1997 109.661 61.6881 109.463 62.1998 109.398L62.0937 108.56ZM60.2463 109.31C59.634 109.724 59.2096 110.297 58.9768 111.013L59.7809 111.273C59.9575 110.729 60.269 110.314 60.7191 110.01L60.2463 109.31ZM58.9768 111.013C58.5935 112.193 58.6707 113.309 59.2339 114.329L59.9743 113.921C59.5352 113.125 59.4622 112.254 59.7809 111.273L58.9768 111.013ZM59.2339 114.329C59.7911 115.339 60.6647 116.03 61.8237 116.405L62.0848 115.601C61.1125 115.287 60.4193 114.727 59.9743 113.921L59.2339 114.329ZM61.8237 116.405C62.9827 116.779 64.0971 116.73 65.1422 116.238L64.7827 115.474C63.9482 115.867 63.0572 115.915 62.0848 115.601L61.8237 116.405ZM65.1422 116.238C66.1983 115.741 66.9173 114.882 67.3006 113.702L66.4965 113.442C66.1779 114.423 65.6062 115.086 64.7827 115.474L65.1422 116.238ZM67.3006 113.702C67.4512 113.239 67.5306 112.741 67.5426 112.211L66.6974 112.193C66.6871 112.65 66.6189 113.066 66.4965 113.442L67.3006 113.702ZM67.5426 112.211C67.5543 111.692 67.5081 111.241 67.3835 110.877L66.5835 111.151C66.6631 111.383 66.708 111.724 66.6974 112.193L67.5426 112.211ZM67.114 110.612L66.5737 110.438L66.3126 111.241L66.8529 111.416L67.114 110.612ZM66.0411 110.709L65.1345 113.5L65.9386 113.759L66.8452 110.969L66.0411 110.709ZM65.6671 113.228L61.7046 111.948L61.4435 112.751L65.406 114.031L65.6671 113.228ZM61.9761 112.479L64.3522 105.166L63.5482 104.907L61.172 112.22L61.9761 112.479ZM63.8197 105.438L69.966 107.424L70.2271 106.62L64.0808 104.635L63.8197 105.438ZM69.7301 107.233C71.1018 109.614 71.3593 112.104 70.504 114.737L71.3081 114.997C72.2367 112.138 71.9546 109.4 70.463 106.811L69.7301 107.233Z" fill="#1E1F21"/>
<path d="M81.3071 94.0029L81.6695 94.2201L81.8871 93.858L81.5247 93.6407L81.3071 94.0029ZM78.8456 98.0995L78.628 98.4616L78.9904 98.6788L79.208 98.3167L78.8456 98.0995ZM73.6711 94.9973L73.8887 94.6352L73.5263 94.4179L73.3087 94.7801L73.6711 94.9973ZM70.7587 99.8443L70.3964 99.627L70.1788 99.9892L70.5411 100.206L70.7587 99.8443ZM75.9333 102.946L76.2956 103.164L76.5132 102.802L76.1509 102.584L75.9333 102.946ZM73.4718 107.043L73.2542 107.405L73.6166 107.622L73.8342 107.26L73.4718 107.043ZM59.9368 98.9288L59.5744 98.7116L59.3568 99.0737L59.7192 99.2909L59.9368 98.9288ZM62.3983 94.8322L62.6159 94.4701L62.2535 94.2528L62.0359 94.615L62.3983 94.8322ZM67.1873 97.7032L66.9697 98.0653L67.332 98.2826L67.5496 97.9204L67.1873 97.7032ZM70.0996 92.8562L70.462 93.0735L70.6796 92.7113L70.3172 92.4941L70.0996 92.8562ZM65.3106 89.9852L64.9483 89.768L64.7307 90.1302L65.093 90.3474L65.3106 89.9852ZM67.7721 85.8887L67.9897 85.5265L67.6273 85.3093L67.4097 85.6714L67.7721 85.8887ZM80.9447 93.7856L78.4833 97.8822L79.208 98.3167L81.6695 94.2201L80.9447 93.7856ZM79.0632 97.7373L73.8887 94.6352L73.4535 95.3595L78.628 98.4616L79.0632 97.7373ZM73.3087 94.7801L70.3964 99.627L71.1211 100.062L74.0334 95.2146L73.3087 94.7801ZM70.5411 100.206L75.7157 103.309L76.1509 102.584L70.9763 99.4821L70.5411 100.206ZM75.5709 102.729L73.1094 106.826L73.8342 107.26L76.2956 103.164L75.5709 102.729ZM73.6894 106.681L60.1544 98.5666L59.7192 99.2909L73.2542 107.405L73.6894 106.681ZM60.2992 99.146L62.7607 95.0494L62.0359 94.615L59.5744 98.7116L60.2992 99.146ZM62.1807 95.1943L66.9697 98.0653L67.4049 97.3411L62.6159 94.4701L62.1807 95.1943ZM67.5496 97.9204L70.462 93.0735L69.7373 92.639L66.8249 97.486L67.5496 97.9204ZM70.3172 92.4941L65.5282 89.6231L65.093 90.3474L69.882 93.2184L70.3172 92.4941ZM65.673 90.2025L68.1345 86.1059L67.4097 85.6714L64.9483 89.768L65.673 90.2025ZM67.5545 86.2508L81.0895 94.365L81.5247 93.6407L67.9897 85.5265L67.5545 86.2508Z" fill="#1E1F21"/>
<path d="M88.3429 86.9649L88.6519 87.253L88.94 86.944L88.631 86.6559L88.3429 86.9649ZM85.0834 90.4602L84.7953 90.7692L85.1043 91.0573L85.3925 90.7483L85.0834 90.4602ZM76.5863 82.5388L76.8744 82.2299L76.5654 81.9418L76.2772 82.2508L76.5863 82.5388ZM73.698 85.6362L73.4098 85.9452L73.7189 86.2332L74.007 85.9243L73.698 85.6362ZM70.6521 82.7967L70.3431 82.5086L70.055 82.8176L70.364 83.1057L70.6521 82.7967ZM79.672 73.1241L79.9601 72.8151L79.6511 72.527L79.363 72.836L79.672 73.1241ZM82.7178 75.9635L83.0269 76.2516L83.315 75.9426L83.006 75.6545L82.7178 75.9635ZM79.8457 79.0435L79.5366 78.7555L79.2485 79.0644L79.5575 79.3525L79.8457 79.0435ZM88.0338 86.6768L84.7744 90.1721L85.3925 90.7483L88.6519 87.253L88.0338 86.6768ZM85.3716 90.1512L76.8744 82.2299L76.2981 82.8478L84.7953 90.7692L85.3716 90.1512ZM76.2772 82.2508L73.3889 85.3481L74.007 85.9243L76.8953 82.8269L76.2772 82.2508ZM73.9861 85.3272L70.9403 82.4877L70.364 83.1057L73.4098 85.9452L73.9861 85.3272ZM70.9612 83.0848L79.981 73.4122L79.363 72.836L70.3431 82.5086L70.9612 83.0848ZM79.3839 73.4331L82.4297 76.2725L83.006 75.6545L79.9601 72.8151L79.3839 73.4331ZM82.4088 75.6754L79.5366 78.7555L80.1547 79.3316L83.0269 76.2516L82.4088 75.6754ZM79.5575 79.3525L88.0547 87.2739L88.631 86.6559L80.1338 78.7346L79.5575 79.3525Z" fill="#1E1F21"/>
<path d="M101.21 76.5822L101.428 76.9445L101.79 76.7269L101.572 76.3646L101.21 76.5822ZM97.1137 79.0436L96.7515 79.2612L96.9688 79.6236L97.3309 79.406L97.1137 79.0436ZM88.9993 65.5088L88.782 65.1464L88.4199 65.364L88.6371 65.7264L88.9993 65.5088ZM99.261 59.3429L99.6232 59.1253L99.4059 58.7629L99.0438 58.9805L99.261 59.3429ZM101.402 62.9143L101.619 63.2767L101.982 63.0591L101.764 62.6967L101.402 62.9143ZM95.237 66.6187L95.0198 66.2563L94.6576 66.4739L94.8749 66.8363L95.237 66.6187ZM96.0399 67.958L95.6778 68.1756L95.895 68.5379L96.2572 68.3204L96.0399 67.958ZM102.063 64.3389L102.425 64.1213L102.208 63.7589L101.846 63.9765L102.063 64.3389ZM104.204 67.9103L104.422 68.2727L104.784 68.0551L104.566 67.6927L104.204 67.9103ZM98.1811 71.5294L97.9638 71.167L97.6017 71.3846L97.8189 71.747L98.1811 71.5294ZM100.993 76.2198L96.8964 78.6813L97.3309 79.406L101.428 76.9445L100.993 76.2198ZM97.4758 78.826L89.3614 65.2912L88.6371 65.7264L96.7515 79.2612L97.4758 78.826ZM89.2165 65.8711L99.4783 59.7052L99.0438 58.9805L88.782 65.1464L89.2165 65.8711ZM98.8989 59.5605L101.04 63.1319L101.764 62.6967L99.6232 59.1253L98.8989 59.5605ZM101.185 62.5519L95.0198 66.2563L95.4542 66.9811L101.619 63.2767L101.185 62.5519ZM94.8749 66.8363L95.6778 68.1756L96.4021 67.7404L95.5992 66.4011L94.8749 66.8363ZM96.2572 68.3204L102.28 64.7012L101.846 63.9765L95.8227 67.5956L96.2572 68.3204ZM101.701 64.5565L103.842 68.1279L104.566 67.6927L102.425 64.1213L101.701 64.5565ZM103.987 67.5479L97.9638 71.167L98.3983 71.8918L104.422 68.2727L103.987 67.5479ZM97.8189 71.747L100.848 76.7998L101.572 76.3646L98.5432 71.3118L97.8189 71.747Z" fill="#1E1F21"/>
<path d="M120.797 65.9532L121.168 66.1536L121.169 66.1535L120.797 65.9532ZM109.142 69.9663L108.97 70.3525L108.973 70.3541L109.142 69.9663ZM105.332 58.8418L105.704 59.0422L105.704 59.042L105.332 58.8418ZM116.987 54.8286L116.815 55.2148L116.819 55.2164L116.987 54.8286ZM111.389 65.9396L111.187 66.3111L111.191 66.3133L111.389 65.9396ZM116.557 64.1603L116.172 63.9872L116.17 63.9916L116.557 64.1603ZM114.732 58.833L114.53 59.2045L114.535 59.2067L114.732 58.833ZM109.565 60.6123L109.18 60.4393L109.178 60.4436L109.565 60.6123ZM120.425 65.7528C119.421 67.6159 117.817 68.9347 115.58 69.705L115.853 70.5044C118.269 69.6726 120.052 68.2236 121.168 66.1536L120.425 65.7528ZM115.58 69.705C113.342 70.4754 111.261 70.4257 109.31 69.5785L108.973 70.3541C111.136 71.2937 113.437 71.3363 115.853 70.5044L115.58 69.705ZM109.314 69.5802C107.382 68.7181 106.048 67.2223 105.306 65.0564L104.507 65.3315C105.319 67.702 106.808 69.3878 108.97 70.3525L109.314 69.5802ZM105.306 65.0564C104.565 62.8905 104.704 60.8966 105.704 59.0422L104.961 58.6414C103.84 60.7202 103.696 62.961 104.507 65.3315L105.306 65.0564ZM105.704 59.042C106.719 57.1579 108.328 55.8298 110.564 55.0599L110.291 54.2605C107.874 55.0927 106.086 56.5523 104.961 58.6415L105.704 59.042ZM110.564 55.0599C112.8 54.2899 114.876 54.3493 116.815 55.2148L117.16 54.4425C115.006 53.4812 112.708 53.4282 110.291 54.2605L110.564 55.0599ZM116.819 55.2164C118.759 56.0591 120.096 57.5439 120.838 59.7085L121.637 59.4334C120.824 57.0616 119.329 55.3849 117.156 54.4408L116.819 55.2164ZM120.838 59.7085C121.579 61.8731 121.436 63.8773 120.425 65.7529L121.169 66.1535C122.299 64.0558 122.449 61.8051 121.637 59.4334L120.838 59.7085ZM111.191 66.3133C112.22 66.8577 113.329 66.9194 114.489 66.5202L114.215 65.7208C113.257 66.0507 112.391 65.9918 111.587 65.5659L111.191 66.3133ZM114.489 66.5202C115.648 66.1209 116.481 65.3903 116.944 64.3289L116.17 63.9916C115.811 64.8146 115.173 65.3908 114.215 65.7208L114.489 66.5202ZM116.942 64.3333C117.415 63.2798 117.445 62.1647 117.051 61.0125L116.252 61.2876C116.583 62.2543 116.55 63.146 116.172 63.9872L116.942 64.3333ZM117.051 61.0125C116.656 59.8602 115.949 58.9988 114.93 58.4593L114.535 59.2067C115.348 59.6375 115.921 60.3208 116.252 61.2876L117.051 61.0125ZM114.934 58.4615C113.919 57.9092 112.815 57.8454 111.655 58.2447L111.929 59.0441C112.887 58.7142 113.743 58.7762 114.53 59.2045L114.934 58.4615ZM111.655 58.2447C110.495 58.644 109.658 59.3763 109.18 60.4393L109.95 60.7854C110.324 59.9537 110.971 59.3741 111.929 59.0441L111.655 58.2447ZM109.178 60.4436C108.721 61.492 108.7 62.6028 109.093 63.7524L109.892 63.4773C109.56 62.508 109.587 61.6172 109.952 60.781L109.178 60.4436ZM109.093 63.7524C109.487 64.9021 110.184 65.7655 111.187 66.3111L111.591 65.5681C110.791 65.133 110.224 64.4466 109.892 63.4773L109.093 63.7524Z" fill="#1E1F21"/>
<path d="M138.131 63.7238L138.451 63.9998L138.452 63.9977L138.131 63.7238ZM126.531 64.943L126.273 65.2779L126.277 65.281L126.531 64.943ZM123.121 51.0037L123.078 50.5834L122.658 50.6276L122.701 51.0479L123.121 51.0037ZM127.945 50.4967L128.365 50.4526L128.322 50.0323L127.902 50.0764L127.945 50.4967ZM129.835 61.4555L129.563 61.7799L129.573 61.788L129.835 61.4555ZM133.804 49.8809L133.761 49.4606L133.341 49.5048L133.384 49.9251L133.804 49.8809ZM138.628 49.3739L139.048 49.3298L139.005 48.9095L138.584 48.9537L138.628 49.3739ZM137.812 63.4477C136.732 64.6977 134.985 65.4853 132.489 65.7476L132.575 66.5881C135.193 66.313 137.179 65.4712 138.451 63.9998L137.812 63.4477ZM132.489 65.7476C129.993 66.0099 128.114 65.6036 126.785 64.605L126.277 65.281C127.836 66.453 129.957 66.8633 132.575 66.5881L132.489 65.7476ZM126.789 64.6081C125.463 63.5852 124.692 62.1337 124.494 60.2088L123.654 60.2971C123.872 62.4203 124.74 64.0954 126.273 65.2779L126.789 64.6081ZM124.494 60.2088L123.542 50.9595L122.701 51.0479L123.654 60.2971L124.494 60.2088ZM123.165 51.424L127.988 50.917L127.902 50.0764L123.078 50.5834L123.165 51.424ZM127.525 50.5409L128.46 59.6254L129.301 59.5371L128.365 50.4526L127.525 50.5409ZM128.46 59.6254C128.551 60.5086 128.916 61.2379 129.563 61.7798L130.106 61.1312C129.643 60.7431 129.371 60.2229 129.301 59.5371L128.46 59.6254ZM129.573 61.788C130.253 62.3222 131.128 62.5057 132.144 62.3989L132.057 61.5584C131.191 61.6494 130.555 61.4842 130.096 61.1231L129.573 61.788ZM132.144 62.3989C133.146 62.2936 133.951 61.9325 134.492 61.2664L133.836 60.7345C133.476 61.1781 132.907 61.4691 132.057 61.5584L132.144 62.3989ZM134.492 61.2664C135.032 60.6005 135.251 59.8084 135.16 58.9213L134.319 59.0096C134.39 59.6914 134.225 60.2561 133.836 60.7345L134.492 61.2664ZM135.16 58.9213L134.224 49.8368L133.384 49.9251L134.319 59.0096L135.16 58.9213ZM133.847 50.3012L138.671 49.7942L138.584 48.9537L133.761 49.4606L133.847 50.3012ZM138.207 49.4181L139.158 58.6438L139.998 58.5555L139.048 49.3298L138.207 49.4181ZM139.158 58.6438C139.357 60.5855 138.899 62.1737 137.81 63.4498L138.452 63.9977C139.712 62.5211 140.218 60.6933 139.998 58.5555L139.158 58.6438Z" fill="#1E1F21"/>
<path d="M157.359 67.0939L157.307 67.5131L157.726 67.5646L157.778 67.1454L157.359 67.0939ZM152.803 66.5345L152.434 66.7396L152.538 66.9275L152.751 66.9537L152.803 66.5345ZM148.018 57.8899L148.388 57.6849L147.759 56.55L147.598 57.8384L148.018 57.8899ZM147.027 65.8252L146.974 66.2444L147.394 66.2959L147.446 65.8767L147.027 65.8252ZM142.283 65.2427L141.864 65.1913L141.811 65.6105L142.231 65.662L142.283 65.2427ZM144.239 49.5835L144.291 49.1643L143.872 49.1128L143.819 49.532L144.239 49.5835ZM149.123 50.1833L149.492 49.9767L149.388 49.7901L149.176 49.764L149.123 50.1833ZM153.645 58.271L153.276 58.4776L153.904 59.6019L154.064 58.3225L153.645 58.271ZM154.571 50.8522L154.624 50.433L154.204 50.3815L154.152 50.8007L154.571 50.8522ZM159.315 51.4346L159.734 51.4861L159.787 51.0669L159.367 51.0154L159.315 51.4346ZM157.411 66.6746L152.856 66.1153L152.751 66.9537L157.307 67.5131L157.411 66.6746ZM153.173 66.3294L148.388 57.6849L147.648 58.095L152.434 66.7396L153.173 66.3294ZM147.598 57.8384L146.607 65.7737L147.446 65.8767L148.437 57.9414L147.598 57.8384ZM147.079 65.4059L142.335 64.8235L142.231 65.662L146.974 66.2444L147.079 65.4059ZM142.702 65.2942L144.658 49.635L143.819 49.532L141.864 65.1913L142.702 65.2942ZM144.186 50.0028L149.071 50.6025L149.176 49.764L144.291 49.1643L144.186 50.0028ZM148.754 50.3899L153.276 58.4776L154.014 58.0644L149.492 49.9767L148.754 50.3899ZM154.064 58.3225L154.991 50.9037L154.152 50.8007L153.225 58.2195L154.064 58.3225ZM154.519 51.2714L159.263 51.8539L159.367 51.0154L154.624 50.433L154.519 51.2714ZM158.896 51.3832L156.94 67.0424L157.778 67.1454L159.734 51.4861L158.896 51.3832Z" fill="#1E1F21"/>
<path d="M158.581 67.9808L158.186 67.8294L158.034 68.2235L158.429 68.375L158.581 67.9808ZM164.26 53.2572L164.412 52.863L164.018 52.7116L163.866 53.1058L164.26 53.2572ZM175.916 59.9869L175.542 60.1844L175.543 60.1865L175.916 59.9869ZM171.752 70.7812L171.897 71.1778L171.752 70.7812ZM169.638 66.599L169.458 66.2171L169.638 66.599ZM171.628 61.6356L172.018 61.4732L171.628 61.6356ZM167.223 58.855L167.375 58.4608L166.981 58.3094L166.829 58.7036L167.223 58.855ZM164.541 65.8084L164.147 65.657L163.995 66.0512L164.389 66.2026L164.541 65.8084ZM165.337 70.1217L158.733 67.5866L158.429 68.375L165.033 70.9101L165.337 70.1217ZM158.975 68.1322L164.654 53.4086L163.866 53.1058L158.186 67.8294L158.975 68.1322ZM164.108 53.6514L170.69 56.1781L170.994 55.3897L164.412 52.863L164.108 53.6514ZM170.69 56.1781C173 57.0648 174.602 58.4054 175.542 60.1844L176.29 59.7895C175.236 57.7959 173.455 56.3345 170.994 55.3897L170.69 56.1781ZM175.543 60.1865C176.478 61.9322 176.546 63.8853 175.697 66.0865L176.485 66.3893C177.407 63.999 177.358 61.7848 176.288 59.7874L175.543 60.1865ZM175.697 66.0865C174.848 68.2876 173.482 69.7 171.607 70.3847L171.897 71.1778C174.037 70.3961 175.563 68.7796 176.485 66.3893L175.697 66.0865ZM171.607 70.3847C169.714 71.0764 167.632 71.0025 165.337 70.1217L165.033 70.9101C167.48 71.8495 169.776 71.9525 171.897 71.1778L171.607 70.3847ZM166.509 67.0166C167.675 67.4639 168.788 67.4656 169.817 66.9809L169.458 66.2171C168.669 66.5888 167.798 66.6061 166.814 66.2282L166.509 67.0166ZM169.817 66.9809C170.829 66.5044 171.545 65.7198 171.957 64.6511L171.169 64.3483C170.831 65.2222 170.264 65.8371 169.458 66.2171L169.817 66.9809ZM171.957 64.6511C172.391 63.526 172.428 62.4569 172.018 61.4732L171.238 61.7981C171.548 62.5434 171.541 63.3838 171.169 64.3483L171.957 64.6511ZM172.018 61.4732C171.602 60.4716 170.739 59.752 169.518 59.2833L169.214 60.0716C170.29 60.4847 170.935 61.0706 171.238 61.7981L172.018 61.4732ZM169.518 59.2833L167.375 58.4608L167.071 59.2492L169.214 60.0716L169.518 59.2833ZM166.829 58.7036L164.147 65.657L164.936 65.9598L167.618 59.0064L166.829 58.7036ZM164.389 66.2026L166.509 67.0166L166.814 66.2282L164.693 65.4142L164.389 66.2026Z" fill="#1E1F21"/>
<path d="M187.682 82.5012L187.452 82.8553L187.96 83.1854L188.095 82.5945L187.682 82.5012ZM183.139 79.5503L182.732 79.4345L182.646 79.7345L182.908 79.9044L183.139 79.5503ZM183.669 77.6942L184.075 77.81L184.161 77.51L183.899 77.34L183.669 77.6942ZM178.907 74.6016L179.137 74.2474L178.875 74.0775L178.636 74.2775L178.907 74.6016ZM177.424 75.8392L177.193 76.1933L177.455 76.3633L177.695 76.1632L177.424 75.8392ZM172.88 72.8883L172.627 72.5499L172.141 72.9123L172.65 73.2424L172.88 72.8883ZM186.367 62.8306L186.598 62.4765L186.351 62.3161L186.115 62.4922L186.367 62.8306ZM191.407 66.1036L191.82 66.197L191.885 65.9099L191.638 65.7495L191.407 66.1036ZM184.868 73.508L184.638 73.8621L185.117 74.1735L185.274 73.624L184.868 73.508ZM186.333 68.3938L186.739 68.5098L187.118 67.187L186.062 68.0699L186.333 68.3938ZM182.249 71.8071L181.978 71.4832L181.539 71.8499L182.019 72.1612L182.249 71.8071ZM187.913 82.147L183.369 79.1962L182.908 79.9044L187.452 82.8553L187.913 82.147ZM183.545 79.6661L184.075 77.81L183.262 77.5784L182.732 79.4345L183.545 79.6661ZM183.899 77.34L179.137 74.2474L178.676 74.9557L183.438 78.0483L183.899 77.34ZM178.636 74.2775L177.153 75.5151L177.695 76.1632L179.177 74.9256L178.636 74.2775ZM177.654 75.485L173.11 72.5342L172.65 73.2424L177.193 76.1933L177.654 75.485ZM173.133 73.2267L186.62 63.169L186.115 62.4922L172.627 72.5499L173.133 73.2267ZM186.137 63.1847L191.177 66.4578L191.638 65.7495L186.598 62.4765L186.137 63.1847ZM190.995 66.0103L187.27 82.4078L188.095 82.5945L191.82 66.197L190.995 66.0103ZM185.274 73.624L186.739 68.5098L185.926 68.2777L184.462 73.3919L185.274 73.624ZM186.062 68.0699L181.978 71.4832L182.52 72.131L186.604 68.7176L186.062 68.0699ZM182.019 72.1612L184.638 73.8621L185.099 73.1539L182.479 71.4529L182.019 72.1612Z" fill="#1E1F21"/>
</svg>
