<svg width="22" height="36" viewBox="0 0 22 36" fill="none" xmlns="http://www.w3.org/2000/svg">
<mask id="path-1-inside-1" fill="white">
<path fill-rule="evenodd" clip-rule="evenodd" d="M-1.90735e-06 19L11 36L22 19H17L17 0H5V19H-1.90735e-06Z"/>
</mask>
<path d="M11 36L10.1604 36.5433L11 37.8408L11.8396 36.5433L11 36ZM-1.90735e-06 19V18H-1.83815L-0.839573 19.5433L-1.90735e-06 19ZM22 19L22.8396 19.5433L23.8381 18H22V19ZM17 19H16V20H17V19ZM17 0H18V-1H17V0ZM5 0V-1H4V0H5ZM5 19V20H6V19H5ZM11.8396 35.4567L0.839569 18.4568L-0.839573 19.5433L10.1604 36.5433L11.8396 35.4567ZM21.1604 18.4568L10.1604 35.4567L11.8396 36.5433L22.8396 19.5433L21.1604 18.4568ZM17 20H22V18H17V20ZM16 0L16 19H18V0H16ZM5 1H17V-1H5V1ZM6 19L6 0H4V19H6ZM-1.90735e-06 20L5 20V18H-1.90735e-06V20Z" fill="#fff" mask="url(#path-1-inside-1)"/>
</svg>
