<svg width="19" height="19" viewBox="0 0 19 19" fill="none" xmlns="http://www.w3.org/2000/svg">
<path d="M12.3516 10.3547C13.2778 12.706 13.9666 15.1285 14.4178 17.6223C15.0591 17.2423 15.6528 16.7673 16.1991 16.221C17.6241 14.796 18.5266 13.0147 18.8591 11.091C17.4578 10.521 15.9378 10.1885 14.3466 10.1885C13.6816 10.1885 13.0166 10.236 12.3516 10.3547Z" fill="#1E1F21"/>
<path d="M16.2201 2.80251C16.2201 2.77876 16.2201 2.77876 16.2201 2.80251C14.415 0.997505 12.04 0 9.49876 0C8.50126 0 7.5275 0.142501 6.625 0.451252C8.09751 2.30376 9.40376 4.27502 10.4963 6.34128C12.5863 5.46253 14.51 4.25127 16.2201 2.80251Z" fill="#1E1F21"/>
<path d="M16.9808 3.63379C15.1758 5.17755 13.1808 6.41255 11.0195 7.33881C11.3283 7.98006 11.637 8.64507 11.922 9.31007C12.7295 9.16757 13.537 9.07257 14.3683 9.07257C15.9596 9.07257 17.5271 9.35757 18.9996 9.92757C18.9996 9.78507 18.9996 9.64257 18.9996 9.50007C18.9996 7.33881 18.2871 5.2963 16.9808 3.63379Z" fill="#1E1F21"/>
<path d="M3.65625 16.9811C5.31876 18.2873 7.36127 18.9998 9.49878 18.9998C10.8525 18.9998 12.1825 18.7148 13.3938 18.1686C12.9425 15.5561 12.2063 13.0148 11.2563 10.5923C7.88377 11.5185 5.10501 13.8936 3.65625 16.9811Z" fill="#1E1F21"/>
<path d="M9.31005 10.0939C9.8088 9.88012 10.3076 9.71387 10.8063 9.57137C10.5451 8.95386 10.2601 8.36011 9.9513 7.76636C7.38629 8.71636 4.67877 9.19136 1.92376 9.19136C1.28251 9.19136 0.641253 9.16761 0 9.12011V9.50012C0 12.0414 0.997505 14.4164 2.77876 16.2214C3.39627 14.9864 4.20377 13.8701 5.20128 12.8726C6.38878 11.6851 7.79004 10.7351 9.31005 10.0939Z" fill="#1E1F21"/>
<path d="M9.45099 6.76894C8.31098 4.67893 7.00472 2.70767 5.50847 0.878906C4.51096 1.35391 3.58471 1.99516 2.7772 2.77892C1.32844 4.22767 0.425939 6.03268 0.117188 8.00394C0.710941 8.05144 1.32844 8.07519 1.9222 8.07519C4.55846 8.07519 7.09972 7.62394 9.45099 6.76894Z" fill="#1E1F21"/>
</svg>
