<svg width="27" height="27" viewBox="0 0 27 27" fill="none" xmlns="http://www.w3.org/2000/svg">
<path d="M13.3663 10.2444C11.646 10.2444 10.2421 11.6484 10.2421 13.3687C10.2421 15.089 11.646 16.4929 13.3663 16.4929C15.0866 16.4929 16.4905 15.089 16.4905 13.3687C16.4905 11.6484 15.0866 10.2444 13.3663 10.2444ZM22.7366 13.3687C22.7366 12.0749 22.7484 10.7929 22.6757 9.50148C22.603 8.00148 22.2609 6.67023 21.164 5.57335C20.0648 4.47413 18.7359 4.13429 17.2359 4.06163C15.9421 3.98898 14.6601 4.0007 13.3687 4.0007C12.0749 4.0007 10.7929 3.98898 9.50148 4.06163C8.00148 4.13429 6.67023 4.47648 5.57335 5.57335C4.47413 6.67257 4.13429 8.00148 4.06163 9.50148C3.98898 10.7952 4.0007 12.0773 4.0007 13.3687C4.0007 14.6601 3.98898 15.9444 4.06163 17.2359C4.13429 18.7359 4.47648 20.0671 5.57335 21.164C6.67257 22.2632 8.00148 22.603 9.50148 22.6757C10.7952 22.7484 12.0773 22.7366 13.3687 22.7366C14.6624 22.7366 15.9444 22.7484 17.2359 22.6757C18.7359 22.603 20.0671 22.2609 21.164 21.164C22.2632 20.0648 22.603 18.7359 22.6757 17.2359C22.7507 15.9444 22.7366 14.6624 22.7366 13.3687ZM13.3663 18.1757C10.7062 18.1757 8.55929 16.0288 8.55929 13.3687C8.55929 10.7085 10.7062 8.56163 13.3663 8.56163C16.0265 8.56163 18.1734 10.7085 18.1734 13.3687C18.1734 16.0288 16.0265 18.1757 13.3663 18.1757ZM18.3702 9.48742C17.7491 9.48742 17.2476 8.98585 17.2476 8.36476C17.2476 7.74367 17.7491 7.2421 18.3702 7.2421C18.9913 7.2421 19.4929 7.74367 19.4929 8.36476C19.4931 8.51224 19.4642 8.65831 19.4078 8.7946C19.3515 8.93089 19.2688 9.05473 19.1645 9.15901C19.0602 9.2633 18.9364 9.34598 18.8001 9.40234C18.6638 9.45869 18.5177 9.4876 18.3702 9.48742Z" fill="#1E1F21"/>
</svg>
