<svg width="34" height="22" viewBox="0 0 34 22" fill="none" xmlns="http://www.w3.org/2000/svg">
<path d="M2.33333 22C1.81389 22 1.37878 21.824 1.028 21.472C0.676 21.1212 0.5 20.6861 0.5 20.1667C0.5 19.6472 0.676 19.2121 1.028 18.8613C1.37878 18.5093 1.81389 18.3333 2.33333 18.3333H31.6667C32.1861 18.3333 32.6212 18.5093 32.972 18.8613C33.324 19.2121 33.5 19.6472 33.5 20.1667C33.5 20.6861 33.324 21.1212 32.972 21.472C32.6212 21.824 32.1861 22 31.6667 22H2.33333ZM2.33333 12.8333C1.81389 12.8333 1.37878 12.6573 1.028 12.3053C0.676 11.9546 0.5 11.5194 0.5 11C0.5 10.4806 0.676 10.0448 1.028 9.69283C1.37878 9.34206 1.81389 9.16667 2.33333 9.16667H31.6667C32.1861 9.16667 32.6212 9.34206 32.972 9.69283C33.324 10.0448 33.5 10.4806 33.5 11C33.5 11.5194 33.324 11.9546 32.972 12.3053C32.6212 12.6573 32.1861 12.8333 31.6667 12.8333H2.33333ZM2.33333 3.66667C1.81389 3.66667 1.37878 3.49128 1.028 3.1405C0.676 2.7885 0.5 2.35278 0.5 1.83333C0.5 1.31389 0.676 0.878167 1.028 0.526167C1.37878 0.175389 1.81389 0 2.33333 0H31.6667C32.1861 0 32.6212 0.175389 32.972 0.526167C33.324 0.878167 33.5 1.31389 33.5 1.83333C33.5 2.35278 33.324 2.7885 32.972 3.1405C32.6212 3.49128 32.1861 3.66667 31.6667 3.66667H2.33333Z" fill="black"/>
</svg>
