<svg width="49" height="24" viewBox="0 0 49 24" fill="none" xmlns="http://www.w3.org/2000/svg">
<mask id="path-1-inside-1_6670_80" fill="white">
<path fill-rule="evenodd" clip-rule="evenodd" d="M25.48 24L49 12L25.48 0V5.18919L0 5.18919V18.8108L25.48 18.8108V24Z"/>
</mask>
<path d="M49 12L49.4545 12.8908L51.2004 12L49.4545 11.1092L49 12ZM25.48 24H24.48V25.6328L25.9345 24.8908L25.48 24ZM25.48 0L25.9345 -0.890762L24.48 -1.63284V0L25.48 0ZM25.48 5.18919V6.18919H26.48V5.18919H25.48ZM0 5.18919V4.18919H-1V5.18919H0ZM0 18.8108H-1V19.8108H0V18.8108ZM25.48 18.8108H26.48V17.8108H25.48V18.8108ZM48.5455 11.1092L25.0255 23.1092L25.9345 24.8908L49.4545 12.8908L48.5455 11.1092ZM25.0255 0.890762L48.5455 12.8908L49.4545 11.1092L25.9345 -0.890762L25.0255 0.890762ZM26.48 5.18919V0L24.48 0V5.18919H26.48ZM0 6.18919L25.48 6.18919V4.18919L0 4.18919V6.18919ZM1 18.8108V5.18919H-1V18.8108H1ZM25.48 17.8108L0 17.8108V19.8108L25.48 19.8108V17.8108ZM26.48 24V18.8108H24.48V24H26.48Z" fill="#1E1F21" mask="url(#path-1-inside-1_6670_80)"/>
</svg>
