<svg width="24" height="24" viewBox="0 0 24 24" fill="none" xmlns="http://www.w3.org/2000/svg">
<path d="M20.4987 14.2833L12.5247 6.51029C12.3846 6.37377 12.1968 6.29736 12.0012 6.29736C11.8056 6.29736 11.6178 6.37377 11.4777 6.51029L3.50071 14.2833C3.43539 14.3469 3.38348 14.4229 3.34803 14.5069C3.31258 14.5909 3.29432 14.6811 3.29432 14.7723C3.29432 14.8635 3.31258 14.9537 3.34803 15.0377C3.38348 15.1217 3.43539 15.1977 3.50071 15.2613C3.63465 15.3921 3.81447 15.4654 4.00171 15.4654C4.18895 15.4654 4.36876 15.3921 4.50271 15.2613L12.0012 7.95179L19.4982 15.2613C19.6321 15.3917 19.8116 15.4646 19.9984 15.4646C20.1853 15.4646 20.3648 15.3917 20.4987 15.2613C20.564 15.1977 20.6159 15.1217 20.6514 15.0377C20.6868 14.9537 20.7051 14.8635 20.7051 14.7723C20.7051 14.6811 20.6868 14.5909 20.6514 14.5069C20.6159 14.4229 20.564 14.3469 20.4987 14.2833Z" fill="black"/>
</svg>
