<svg width="69" height="68" viewBox="0 0 69 68" fill="none" xmlns="http://www.w3.org/2000/svg">
<path d="M34.5003 45.3332C40.7596 45.3332 45.8337 40.2591 45.8337 33.9998C45.8337 27.7406 40.7596 22.6665 34.5003 22.6665C28.2411 22.6665 23.167 27.7406 23.167 33.9998C23.167 40.2591 28.2411 45.3332 34.5003 45.3332Z" fill="#EF4335"/>
<path d="M61.4797 54.6905C57.2159 60.2503 51.3387 64.357 44.6519 66.449C37.9651 68.541 30.7952 68.5162 24.1231 66.3778C17.4509 64.2394 11.6024 60.0919 7.37734 54.5027C3.15232 48.9135 0.757182 42.1555 0.519559 35.1531C0.281937 28.1507 2.21343 21.2459 6.04984 15.3831C9.88625 9.52035 15.4402 4.98596 21.952 2.40018C28.4639 -0.185597 35.6155 -0.696479 42.4288 0.937415C49.242 2.57131 55.3841 6.27019 60.015 11.5281L48.6436 21.5432C46.0767 18.6286 42.6719 16.5782 38.8951 15.6725C35.1184 14.7668 31.154 15.05 27.5443 16.4834C23.9346 17.9167 20.8559 20.4303 18.7293 23.6802C16.6027 26.93 15.532 30.7576 15.6637 34.6392C15.7954 38.5208 17.1231 42.267 19.4652 45.3652C21.8072 48.4635 25.0492 50.7625 28.7478 51.9479C32.4463 53.1332 36.4208 53.147 40.1275 51.9874C43.8342 50.8277 47.0921 48.5512 49.4556 45.4693L61.4797 54.6905Z" fill="#1E1F21"/>
</svg>
