<svg width="147" height="54" viewBox="0 0 147 54" fill="none" xmlns="http://www.w3.org/2000/svg">
<mask id="mask0_1413_1738" style="mask-type:alpha" maskUnits="userSpaceOnUse" x="50" y="0" width="46" height="39">
<path d="M58.542 0L95.7874 9.97907L88.1907 38.5797L50.9452 28.6006L58.542 0Z" fill="#C4C4C4"/>
</mask>
<g mask="url(#mask0_1413_1738)">
<path d="M77.3073 17.6726C78.3077 9.99828 74.3468 4.26493 74.3468 4.26493C74.3468 4.26493 72.7237 7.68529 71.0074 11.1191C69.5656 14.0037 67.936 17.0214 67.8513 18.2927C67.4326 24.5779 72.6676 28.4133 72.6676 28.4133C72.6676 28.4133 76.5122 23.7725 77.3073 17.6726Z" fill="#1E1F21"/>
<path d="M82.0856 31.3792C87.6382 31.1351 91.2039 27.5694 91.2039 27.5694C91.2039 27.5694 88.5836 26.8322 85.9422 26.0298C83.7232 25.3557 81.3869 24.5633 80.4771 24.662C75.9792 25.1498 73.9137 29.3929 73.9137 29.3929C73.9137 29.3929 77.6722 31.5732 82.0856 31.3792Z" fill="#1E1F21"/>
<path fill-rule="evenodd" clip-rule="evenodd" d="M69.6274 10.7485C68.9311 10.3878 68.1858 10.0963 67.3978 9.88516C61.4918 8.30279 55.4256 11.8335 53.8484 17.7713C52.2712 23.7091 55.7804 29.8054 61.6864 31.3878C65.3251 32.3627 69.0246 31.3967 71.6977 29.1228L68.3886 26.9959C66.7197 28.0208 64.6561 28.3819 62.6291 27.8388C58.6984 26.7857 56.3347 22.7158 57.3956 18.7217C58.4564 14.7277 62.5245 12.381 66.4552 13.4341C66.9877 13.5768 67.4916 13.7749 67.962 14.0207L69.6274 10.7485Z" fill="#1E1F21"/>
<path fill-rule="evenodd" clip-rule="evenodd" d="M67.2404 15.4924C66.8582 15.2888 66.4474 15.1252 66.0117 15.0085C62.9003 14.1748 59.7014 16.046 58.8669 19.1878C58.1345 21.9452 59.4666 24.765 61.9069 25.9773L63.327 23.1856C62.1926 22.6376 61.5408 21.3224 61.8924 19.9985C62.2899 18.5021 63.7934 17.6566 65.2077 18.0355C65.4252 18.0938 65.6302 18.1783 65.8199 18.2849L67.2404 15.4924Z" fill="#1E1F21"/>
<path d="M65.4397 18.77L61.5448 19.7906L61.0682 20.9193C61.0682 20.9193 61.5295 21.5083 61.9248 21.6873C62.1985 21.8112 62.4797 21.9275 62.6674 21.8863C63.2484 21.7588 64.0832 21.5476 64.0832 21.5476L65.4397 18.77Z" fill="#1E1F21"/>
</g>
<path d="M73.6334 51.3422C73.4277 51.5079 73.1728 51.6346 72.8688 51.7223C72.5736 51.8002 72.2606 51.8392 71.9297 51.8392C71.0712 51.8392 70.4049 51.6004 69.931 51.123C69.4659 50.6455 69.2334 49.9439 69.2334 49.0182V45.7879V44.0339V42.1191H71.3261V44.0339H72.9514C72.9514 44.0339 73.0567 44.0261 73.1236 44.0339C73.7487 44.1068 73.7487 45.715 73.1236 45.7879C73.0567 45.7957 72.9514 45.7879 72.9514 45.7879H71.3261V48.9889C71.3261 49.3203 71.4021 49.5785 71.5541 49.7636C71.7151 49.939 71.9387 50.0267 72.2249 50.0267C72.4025 50.0267 72.566 49.9986 72.7154 49.9424C72.8647 49.8862 73.8391 51.1766 73.6334 51.3422Z" fill="#1E1F21"/>
<path d="M67.3607 51.7379C67.6645 51.6624 67.9191 51.5533 68.1246 51.4106C68.3301 51.268 67.3566 50.1568 67.2074 50.2052C67.0582 50.2536 66.8949 50.2778 66.7174 50.2778C66.4314 50.2778 66.2081 50.2023 66.0472 50.0512C65.8953 49.8918 65.8194 49.6694 65.8194 49.3841V46.6275V45.2235V45.1171C65.8194 45.0406 63.8144 44.1438 63.7286 44.9106C63.7196 44.9908 63.7286 45.1171 63.7286 45.1171V46.6275V49.4093C63.7286 50.2064 63.9609 50.8106 64.4255 51.2218C64.8991 51.633 65.5647 51.8386 66.4225 51.8386C66.7531 51.8386 67.0658 51.805 67.3607 51.7379Z" fill="#1E1F21"/>
<path d="M83.1397 44.9197C83.127 44.9505 83.1036 44.9971 83.1036 44.9971L79.8801 51.9261C79.5492 52.6868 79.1379 53.2226 78.646 53.5335C78.1631 53.8443 77.5774 53.9997 76.8888 53.9997C76.5132 53.9997 76.1421 53.9466 75.7755 53.8402C75.4088 53.7339 75.1092 53.5866 74.8767 53.3985C74.6442 53.2104 75.9767 52.2696 76.1913 52.3432C76.4059 52.4169 76.6161 52.4537 76.8217 52.4537C77.1079 52.4537 77.3404 52.3882 77.5193 52.2574C77.6981 52.1347 77.8591 51.9261 78.0022 51.6316L78.029 51.5702L74.9948 45.1138C74.9948 45.1138 74.9305 44.9984 74.9036 44.9197C74.6513 44.1835 76.669 44.2377 77.0632 44.9197C77.1051 44.9922 77.151 45.1138 77.151 45.1138L79.0887 49.3984L81.0923 44.9971C81.0923 44.9971 81.1125 44.9494 81.1276 44.9197C81.4594 44.2681 83.4161 44.2469 83.1397 44.9197Z" fill="#1E1F21"/>
<path d="M5.09925 51.8392C4.1395 51.8392 3.26944 51.6333 2.48908 51.2216C1.71769 50.801 1.10775 50.2237 0.65927 49.4897C0.219757 48.7469 0 47.91 0 46.9792C0 46.0483 0.219757 45.216 0.65927 44.482C1.10775 43.7391 1.71769 43.1619 2.48908 42.7501C3.26944 42.3295 4.14398 42.1191 5.11271 42.1191C5.92895 42.1191 6.66446 42.2623 7.31925 42.5488C7.97403 42.8352 8.30699 45.5816 7.58834 45.0727C6.86968 44.5638 6.16216 43.9719 5.22034 43.9719C4.63732 43.9719 4.11708 44.1016 3.65962 44.3612C3.20217 44.6118 2.84338 44.9653 2.58326 45.4218C2.33211 45.8783 2.20654 46.3974 2.20654 46.9792C2.20654 47.5609 2.33211 48.0801 2.58326 48.5365C2.84338 48.993 3.20217 49.351 3.65962 49.6106C4.11708 49.8612 4.63732 49.9865 5.22034 49.9865C6.16216 49.9865 6.95149 49.615 7.58834 48.8722C8.22518 48.1293 7.983 51.1232 7.31925 51.4096C6.65549 51.696 5.91549 51.8392 5.09925 51.8392Z" fill="#1E1F21"/>
<path d="M13.4539 51.8397C12.6979 51.8397 12.0175 51.6828 11.4127 51.3689C10.8168 51.0461 10.3498 50.6022 10.0119 50.0373C9.67387 49.4723 9.50488 48.8311 9.50488 48.1137C9.50488 47.3963 9.67387 46.7551 10.0119 46.1902C10.3498 45.6252 10.8168 45.1858 11.4127 44.8719C12.0175 44.5491 12.6979 44.3877 13.4539 44.3877C14.2099 44.3877 14.8859 44.5491 15.4818 44.8719C16.0777 45.1858 16.5446 45.6252 16.8826 46.1902C17.2206 46.7551 17.3896 47.3963 17.3896 48.1137C17.3896 48.8311 17.2206 49.4723 16.8826 50.0373C16.5446 50.6022 16.0777 51.0461 15.4818 51.3689C14.8859 51.6828 14.2099 51.8397 13.4539 51.8397ZM13.4539 50.118C13.9875 50.118 14.4234 49.9386 14.7613 49.5799C15.1082 49.2122 15.2816 48.7235 15.2816 48.1137C15.2816 47.5039 15.1082 47.0197 14.7613 46.661C14.4234 46.2933 13.9875 46.1095 13.4539 46.1095C12.9202 46.1095 12.48 46.2933 12.1331 46.661C11.7862 47.0197 11.6128 47.5039 11.6128 48.1137C11.6128 48.7235 11.7862 49.2122 12.1331 49.5799C12.48 49.9386 12.9202 50.118 13.4539 50.118Z" fill="#1E1F21"/>
<path fill-rule="evenodd" clip-rule="evenodd" d="M46.8384 50.9766C47.3888 51.5291 48.6359 51.8397 49.577 51.8397C50.5181 51.8397 51.7652 51.5291 52.3157 50.9766C52.8661 50.4241 53.1413 49.6045 53.1413 48.5177V44.3877H51.0638V48.2052C51.0638 49.3826 50.5447 49.9895 49.577 49.9895C48.6093 49.9895 48.0902 49.3826 48.0902 48.2052V44.3877H46.0127V48.5177C46.0127 49.6045 46.2879 50.4241 46.8384 50.9766Z" fill="#1E1F21"/>
<path fill-rule="evenodd" clip-rule="evenodd" d="M97.1684 50.9766C97.7189 51.5291 98.966 51.8397 99.9071 51.8397C100.848 51.8397 102.095 51.5291 102.646 50.9766C103.196 50.4241 103.471 49.6045 103.471 48.5177V44.3877H101.394V48.2052C101.394 49.3826 100.875 49.9895 99.9071 49.9895C98.9394 49.9895 98.4202 49.3826 98.4202 48.2052V44.3877H96.3428V48.5177C96.3428 49.6045 96.618 50.4241 97.1684 50.9766Z" fill="#1E1F21"/>
<path fill-rule="evenodd" clip-rule="evenodd" d="M55.6114 45.1564C56.1785 44.5959 57.4635 44.2808 58.4331 44.2808V46.1578C57.436 46.1578 56.9012 46.7735 56.9012 47.968V51.8408H54.7607V47.651C54.7607 46.5484 55.0443 45.7169 55.6114 45.1564ZM61.3627 45.1564C60.7956 44.5959 59.5107 44.2808 58.5411 44.2808V46.1578C59.5381 46.1578 60.073 46.7735 60.073 47.968V51.8408H62.2134V47.651C62.2134 46.5484 61.9298 45.7169 61.3627 45.1564Z" fill="#1E1F21"/>
<path fill-rule="evenodd" clip-rule="evenodd" d="M108.82 44.2811C108.838 44.2809 108.856 44.2808 108.874 44.2808V44.282C109.858 44.3036 111.108 44.6159 111.671 45.1564C112.254 45.7169 112.546 46.5484 112.546 47.651V51.8408H110.343V47.968C110.343 46.7947 109.812 46.1798 108.82 46.1584C107.828 46.1798 107.297 46.7947 107.297 47.968V51.8408H105.094V47.651C105.094 46.5484 105.386 45.7169 105.969 45.1564C106.532 44.6159 107.783 44.3036 108.766 44.282V44.2808C108.784 44.2808 108.802 44.2809 108.82 44.2811Z" fill="#1E1F21"/>
<path fill-rule="evenodd" clip-rule="evenodd" d="M21.972 44.4956C21.0654 44.4956 20.3473 44.7646 19.8177 45.3026C19.2791 45.8317 19.0098 46.6298 19.0098 47.6969V51.8396H21.1103V48.0197C21.1103 47.4458 21.2315 47.0198 21.4738 46.7419C21.7072 46.4549 22.0438 46.3114 22.4837 46.3114C22.9774 46.3114 23.3679 46.4728 23.6551 46.7957C23.9307 47.0968 23.9304 47.5424 23.9299 48.1324C23.9299 48.1574 23.9299 48.1825 23.9299 48.208V51.8396H23.9782H26.0304H26.0787V48.208C26.0787 48.1825 26.0787 48.1574 26.0787 48.1324C26.0782 47.5424 26.0778 47.0968 26.3534 46.7957C26.6407 46.4728 27.0312 46.3114 27.5249 46.3114C27.9647 46.3114 28.3013 46.4549 28.5347 46.7419C28.7771 47.0198 28.8983 47.4458 28.8983 48.0197V51.8396H30.9988V47.6969C30.9988 46.6298 30.7295 45.8317 30.1909 45.3026C29.6613 44.7646 28.9432 44.4956 28.0365 44.4956C27.4979 44.4956 26.9997 44.5987 26.5419 44.805C26.0931 45.0112 25.7206 45.3026 25.4244 45.6793C25.4244 45.6793 25.3376 45.7728 25.0358 46.225C25.0255 46.2404 25.015 46.2563 25.0043 46.2727C24.9936 46.2563 24.9831 46.2404 24.9727 46.225C24.671 45.7728 24.5842 45.6793 24.5842 45.6793C24.288 45.3026 23.9155 45.0112 23.4666 44.805C23.0088 44.5987 22.5106 44.4956 21.972 44.4956Z" fill="#1E1F21"/>
<path fill-rule="evenodd" clip-rule="evenodd" d="M35.473 44.4956C34.5664 44.4956 33.8482 44.7646 33.3186 45.3026C32.78 45.8317 32.5107 46.6298 32.5107 47.6969V51.8396H34.6113V48.0197C34.6113 47.4458 34.7324 47.0198 34.9748 46.7419C35.2082 46.4549 35.5448 46.3114 35.9847 46.3114C36.4784 46.3114 36.8689 46.4728 37.1561 46.7957C37.4317 47.0968 37.4314 47.5424 37.4309 48.1324C37.4309 48.1574 37.4308 48.1825 37.4308 48.208V51.8396H37.4792H39.5313H39.5797V48.208C39.5797 48.1825 39.5797 48.1574 39.5796 48.1324C39.5792 47.5424 39.5788 47.0968 39.8544 46.7957C40.1417 46.4728 40.5321 46.3114 41.0258 46.3114C41.4657 46.3114 41.8023 46.4549 42.0357 46.7419C42.2781 47.0198 42.3993 47.4458 42.3993 48.0197V51.8396H44.4998V47.6969C44.4998 46.6298 44.2305 45.8317 43.6919 45.3026C43.1623 44.7646 42.4441 44.4956 41.5375 44.4956C40.9989 44.4956 40.5007 44.5987 40.0429 44.805C39.5941 45.0112 39.2216 45.3026 38.9253 45.6793C38.9253 45.6793 38.8386 45.7728 38.5368 46.225C38.5265 46.2404 38.516 46.2563 38.5053 46.2727C38.4946 46.2563 38.484 46.2404 38.4737 46.225C38.1719 45.7728 38.0852 45.6793 38.0852 45.6793C37.789 45.3026 37.4164 45.0112 36.9676 44.805C36.5098 44.5987 36.0116 44.4956 35.473 44.4956Z" fill="#1E1F21"/>
<path d="M65.7773 43.1451C65.7773 43.7118 65.3178 44.1712 64.751 44.1712C64.1841 44.1712 63.7246 43.7118 63.7246 43.1451C63.7246 42.5785 64.1841 42.1191 64.751 42.1191C65.3178 42.1191 65.7773 42.5785 65.7773 43.1451Z" fill="#1E1F21"/>
<path d="M142.913 42.4925H142.14V42.1191H144.12V42.4925H143.347V44.4952H142.913V42.4925Z" fill="#1E1F21"/>
<path d="M146.59 44.4952L146.587 42.9202L145.82 44.2236H145.626L144.859 42.9406V44.4952H144.446V42.1191H144.803L145.73 43.6941L146.64 42.1191H146.997L147 44.4952H146.59Z" fill="#1E1F21"/>
<path fill-rule="evenodd" clip-rule="evenodd" d="M125.656 48.8135C125.754 49.2619 125.985 49.6161 126.349 49.8761C126.714 50.1362 127.167 50.2662 127.71 50.2662C128.083 50.2662 128.412 50.2124 128.696 50.1048C128.905 50.0218 129.103 49.907 129.289 49.7604C129.475 49.6138 131.292 49.9972 130.616 50.7774C129.941 51.5576 128.954 51.9476 127.656 51.9476C126.847 51.9476 126.132 51.7907 125.509 51.4768C124.887 51.154 124.407 50.7101 124.069 50.1452C123.731 49.5802 123.562 48.939 123.562 48.2216C123.562 47.5132 123.727 46.8765 124.056 46.3115C124.394 45.7376 124.852 45.2937 125.429 44.9799C126.016 44.657 126.669 44.4956 127.389 44.4956C128.092 44.4956 128.727 44.6481 129.296 44.953C129.865 45.2578 130.31 45.6973 130.63 46.2712C130.959 46.8361 131.123 47.6836 131.123 48.2485C131.123 48.8135 130.755 48.8135 130.755 48.8135H125.656ZM126.216 46.4864C126.536 46.2174 126.932 46.0829 127.403 46.0829C127.865 46.0829 128.256 46.2219 128.576 46.4999C128.896 46.7689 129.092 47.1321 129.163 47.5894H125.629C125.7 47.1231 125.896 46.7554 126.216 46.4864Z" fill="#1E1F21"/>
<path fill-rule="evenodd" clip-rule="evenodd" d="M120.713 51.0692C119.687 51.801 118.771 51.8392 117.784 51.8392C117.102 51.8392 116.483 51.6923 115.927 51.3985C115.38 51.1048 114.95 50.6857 114.636 50.1414C114.322 49.5971 114.165 48.9664 114.165 48.2493C114.165 47.5321 114.322 46.9014 114.636 46.3571C114.95 45.8128 115.38 45.3937 115.927 45.1C116.483 44.8062 117.102 44.6593 117.784 44.6593C118.708 44.6593 119.43 44.9401 119.95 45.5017V42.1191H122.049V48.6011C122.049 48.6011 122.082 49.2241 121.776 49.8307C121.633 50.1152 121.542 50.281 121.277 50.5546C121.009 50.8309 120.713 51.0692 120.713 51.0692ZM119.466 49.6619C119.116 50.0075 118.676 50.1803 118.147 50.1803C117.609 50.1803 117.165 50.0075 116.815 49.6619C116.466 49.3077 116.291 48.8368 116.291 48.2493C116.291 47.6617 116.466 47.1952 116.815 46.8496C117.165 46.4953 117.609 46.3182 118.147 46.3182C118.676 46.3182 119.116 46.4953 119.466 46.8496C119.815 47.1952 119.99 47.6617 119.99 48.2493C119.99 48.8368 119.815 49.3077 119.466 49.6619Z" fill="#1E1F21"/>
<path fill-rule="evenodd" clip-rule="evenodd" d="M139.291 51.0692C138.265 51.801 137.349 51.8392 136.362 51.8392C135.68 51.8392 135.062 51.6923 134.506 51.3985C133.958 51.1048 133.528 50.6857 133.214 50.1414C132.9 49.5971 132.743 48.9664 132.743 48.2493C132.743 47.5321 132.9 46.9014 133.214 46.3571C133.528 45.8128 133.958 45.3937 134.506 45.1C135.062 44.8062 135.68 44.6593 136.362 44.6593C137.286 44.6593 138.008 44.9401 138.528 45.5017V42.1191H140.627V48.6011C140.627 48.6011 140.66 49.2241 140.355 49.8307C140.211 50.1152 140.12 50.281 139.855 50.5546C139.587 50.8309 139.291 51.0692 139.291 51.0692ZM138.044 49.6619C137.694 50.0075 137.255 50.1803 136.725 50.1803C136.187 50.1803 135.743 50.0075 135.393 49.6619C135.044 49.3077 134.869 48.8368 134.869 48.2493C134.869 47.6617 135.044 47.1952 135.393 46.8496C135.743 46.4953 136.187 46.3182 136.725 46.3182C137.255 46.3182 137.694 46.4953 138.044 46.8496C138.394 47.1952 138.568 47.6617 138.568 48.2493C138.568 48.8368 138.394 49.3077 138.044 49.6619Z" fill="#1E1F21"/>
<path d="M90.0995 45.9456V43.9312H94.1953C94.1953 43.9312 94.3868 43.9505 94.5071 43.9312C95.2129 43.8182 95.7444 42.2459 95.0394 42.1277C94.9252 42.1085 94.743 42.1277 94.743 42.1277H87.9189V51.8392H90.0995V47.7492H93.7389C93.7389 47.7492 93.8671 47.7518 93.9102 47.7492C94.6047 47.706 95.0481 46.0027 94.3545 45.9456C94.299 45.941 94.2119 45.9456 94.2119 45.9456H90.0995Z" fill="#1E1F21"/>
<path d="M90.0995 43.9312V45.9456H94.2119C94.2119 45.9456 94.299 45.941 94.3545 45.9456C95.0481 46.0027 94.6047 47.706 93.9102 47.7492C93.8671 47.7518 93.7389 47.7492 93.7389 47.7492H90.0995V51.8392H87.9189V42.1277H94.743C94.743 42.1277 94.9252 42.1085 95.0394 42.1277C95.7444 42.2459 95.2129 43.8182 94.5071 43.9312C94.3868 43.9505 94.1953 43.9312 94.1953 43.9312H90.0995Z" fill="#1E1F21"/>
</svg>
