<svg width="916" height="232" viewBox="0 0 916 232" fill="none" xmlns="http://www.w3.org/2000/svg">
<path fill-rule="evenodd" clip-rule="evenodd" d="M100 0L200 58V174L100 232L0 174V58L100 0ZM130.093 23.5001L100 6.04591L5.21199 61.0229V93.7547L130.093 23.5001ZM135.337 26.5412C135.277 26.5816 135.215 26.6198 135.151 26.6558L103.642 44.3817L194.788 96.3505V61.0229L135.337 26.5412ZM40.0621 80.15L98.3623 47.3521C98.471 47.4401 98.5883 47.5205 98.7137 47.592L159.938 82.5004V113.382H40.0621V80.15ZM40.0621 118.618V152.978L97.8976 186.076C98.0888 186.186 98.261 186.316 98.413 186.462L159.938 151.85V118.618H40.0621ZM165.15 148.918V85.4721L194.788 102.371V132.244L165.15 148.918ZM93.1833 189.404L5.21199 139.059V170.977L65.0318 205.673L64.8488 205.344L93.1833 189.404ZM69.9065 208.5L100 225.954L194.788 170.977V138.245L69.9065 208.5ZM34.8501 83.0822L5.21199 99.7557V133.034L34.8501 149.995V83.0822Z" fill="#00487A"/>
<path d="M432.884 184.327V48.0586H510.884V52.9692H449.77V112.305H485.956V115.988H449.77V179.417H510.884V184.327H432.884Z" fill="black"/>
<path d="M789.362 47.6484H691.362V53.7949H732.432V184.919H750.324V53.7949H789.362V47.6484Z" fill="black"/>
<path d="M895.608 186H916L866.651 49.7315H862.573L812 186H818.118L858.086 78.9319L895.608 186Z" fill="black"/>
<path d="M300.196 48.4688H280L328.875 185.739H332.914L383 48.4688H376.941L337.357 156.324L300.196 48.4688Z" fill="black"/>
<path d="M596.33 99.5939C576.03 93.0487 574.58 81.1855 574.58 75.8675C574.58 67.277 581.17 50.5049 602.775 50.5049C620.058 50.5049 632.801 62.5044 637.011 68.5042L639.831 65.6407L638.219 63.5953C631.372 55.4138 619.692 46.0051 602.775 46.0051C570.15 45.596 561.288 70.1133 561.288 82.4128C561.288 95.4981 568.931 113.13 590.289 119.23C621 128 627.344 141.5 627.344 150.728C627.344 161.364 619.692 180.056 598.747 179.773C581.991 179.546 568.404 165.77 563.705 158.91L559.677 162.182L561.288 164.228C573.775 180.591 586.261 184.272 598.747 184.272C611.233 184.272 615.664 184.55 627.344 176.5C639.025 168.45 643.903 153.545 643.5 142.5C643.097 131.455 640 125 634.192 119.23C629.863 114.929 621.705 107.775 596.33 99.5939Z" fill="black"/>
</svg>
