<svg width="428" height="336" viewBox="0 0 428 336" fill="none" xmlns="http://www.w3.org/2000/svg">
<g clip-path="url(#clip0_6633_4134)">
<path d="M209.646 135.446C211.755 128.159 213.888 120.575 216.32 112.719L217.808 115.197C203.91 114.717 190.095 117.528 177.492 123.401C170.049 126.747 162.11 134.43 155.708 139.263C160.348 126.474 165.633 112.57 173.274 101.467C189.128 76.9056 215.848 58.8131 246.117 64.8605L242.618 66.2979C273.16 31.6 317.967 5.32871 365.404 9.17026H366.992L367.265 10.7812C372.028 42.2324 361.261 74.1545 343.124 99.6575C334.638 111.131 324.985 121.696 314.32 131.183L315.908 126.226C320.572 149.895 308.862 174.159 291.519 189.847C288.141 192.963 284.587 195.884 280.876 198.596C277.129 201.075 273.234 203.553 269.389 206.032L257.43 212.277L238.574 221.968C243.536 215.127 254.428 202.487 257.331 194.705C262.334 183.264 264.438 170.768 263.459 158.322L268.644 161.346L242.842 171.507L241.006 172.226L239.765 170.937L231.454 162.114L233.736 162.733C223.639 165.708 213.07 155.794 215.997 145.533C216.32 144.22 216.717 143.055 217.064 141.915L217.411 143.005C214.732 140.527 212.201 137.9 209.745 135.57L209.646 135.446ZM210.613 135.198C213.591 137.454 216.419 139.511 219.198 141.667C218.448 144.138 218.145 146.723 218.305 149.3C218.607 151.424 219.528 153.411 220.953 155.015C222.378 156.619 224.244 157.769 226.318 158.322C228.808 158.857 231.401 158.633 233.761 157.677C234.158 158 243.09 166.302 243.685 166.872L240.609 166.302L265.642 154.431L270.282 152.225L270.828 157.454C273.422 176.069 269.288 194.997 259.167 210.84L253.212 203.578C260.702 199.692 267.914 195.295 274.797 190.417C276.484 189.079 280.479 185.783 282.091 184.494C283.704 183.205 287.302 179.339 288.716 177.926C300.699 164.691 309.035 146.698 306.281 128.68L305.76 125.681L307.869 123.748C324.57 109.865 338.537 92.9972 349.054 74.0058C358.854 55.0707 365.379 33.0623 363.047 11.6735L364.908 13.3836C353.66 11.8381 342.231 12.2321 331.116 14.5484C297.647 21.4385 268.892 44.1408 248.523 70.7095L247.308 72.3205L245.025 72.1222C236.542 71.1567 227.95 71.9646 219.796 74.4948C211.643 77.025 204.105 81.2221 197.662 86.8193C184.483 98.4267 174.144 112.9 167.444 129.126L161.588 124.962C178.261 112.322 200.218 109.125 220.587 111.876C217.436 119.584 214.112 127.069 210.663 135.248L210.613 135.198Z" fill="white"/>
<path d="M335.632 66.0499C336.004 92.3708 309.11 104.862 290.701 84.9851C273.185 66.6447 283.382 37.0771 309.656 36.5071C325.931 36.3088 336.078 51.1794 335.632 66.0499ZM334.888 66.0499C334.615 46.6934 307.472 37.6967 294.05 50.4606C281.843 61.2418 283.382 83.0519 300.649 87.7857C314.915 91.429 334.788 82.5066 334.888 66.0499Z" fill="white"/>
<path d="M210.142 135.446C202.314 142.06 195.479 149.764 189.847 158.322C169.999 181.545 158.462 210.79 151.268 240.11L146.157 235.822C155.088 231.832 163.995 227.371 172.679 222.711C189.897 213.343 206.892 202.884 221.455 189.922C229.246 184.147 236.813 177.753 241.626 168.88C236.962 189.376 218.875 202.983 202.228 213.839C185.295 224.77 167.554 234.397 149.159 242.638L142.286 245.711C145.089 233.005 148.744 220.502 153.228 208.287C164.442 179.587 180.122 147.813 210.291 135.372L210.142 135.446Z" fill="white"/>
<path d="M214.484 139.04C192.477 160.924 178.038 189.401 168.114 218.473L163.797 214.755C170.247 211.112 176.623 207.171 182.876 203.156C193.916 196.068 209.695 186.402 220.289 178.992C226.437 174.775 232.335 170.207 237.954 165.311L238.525 165.807C219.396 193.218 188.508 209.179 159.281 223.752C168.908 199.389 180.519 175.348 197.489 155.273C202.447 149.173 207.98 143.562 214.012 138.519L214.484 139.089V139.04Z" fill="white"/>
<path d="M164.02 180.305C142.584 189.971 121.098 199.439 101.424 212.277C82.6674 226.107 68.5504 245.761 58.8497 266.802C52.5304 280.979 48.3499 296.013 46.4446 311.414H45.9484C44.9031 295.37 47.657 279.305 53.9869 264.522C63.4147 242.216 81.2781 225.264 100.431 210.939C112.491 200.56 126.212 192.282 141.021 186.452C148.401 183.524 156.044 181.308 163.846 179.834L163.995 180.305H164.02Z" fill="white"/>
<path d="M137.622 219.712C130.874 226.528 123.828 232.476 116.682 238.747C99.8857 254.509 87.7287 276.22 87.7039 299.592C86.9527 304.282 86.5299 309.019 86.4386 313.768C84.6509 309.197 83.4101 304.43 82.7419 299.567C82.7419 274.783 95.5439 251.758 113.258 235.128C119.99 228.064 128.356 222.761 137.622 219.688V219.712Z" fill="white"/>
<path d="M196.893 222.959C174.564 252.7 163.921 283.928 167.593 321.278H167.096C156.254 295.428 166.352 266.48 180.469 243.976C185.29 236.457 190.655 229.3 196.521 222.562L196.893 222.86V222.959Z" fill="white"/>
<path d="M156.453 242.266C149.433 251.856 144.189 262.626 140.971 274.064C138.541 285.573 136.883 297.231 136.009 308.96H135.513C129.013 291.165 135.786 271.784 145.015 256.318C148.2 251.171 151.872 246.34 155.981 241.894L156.378 242.191L156.453 242.266Z" fill="white"/>
<path d="M122.513 268.19C113.025 286.192 107.429 305.984 106.088 326.284H105.592C100.977 316.371 103.111 304.871 107.205 295.23C110.941 285.48 115.946 276.263 122.091 267.818L122.513 268.066V268.19Z" fill="white"/>
<path d="M26.9438 292.231C23.1727 284.796 21.4112 274.882 26.5965 267.447C29.7474 263.382 34.8583 264.597 37.5626 268.166C38.6714 269.462 39.5522 270.937 40.1677 272.528C38.7287 271.66 37.3889 270.718 36.0244 270.049C34.238 269.157 32.675 268.314 31.236 269.207C30.0302 270.493 29.2281 272.104 28.9287 273.841C27.4401 279.74 27.6881 286.06 26.9438 292.305V292.231Z" fill="white"/>
<path d="M38.8527 281.45C37.9808 279.007 37.7973 276.373 38.3223 273.833C38.8473 271.294 40.0607 268.947 41.8299 267.05C42.6866 265.916 43.8284 265.028 45.1396 264.476C46.4508 263.925 47.8846 263.73 49.2956 263.911C50.7065 264.093 52.0443 264.644 53.1733 265.508C54.3022 266.373 55.1821 267.52 55.7236 268.835C46.3454 264.249 42.3013 274.56 38.8527 281.45Z" fill="white"/>
<path d="M19.8481 317.734C19.683 316.038 19.9436 314.327 20.6063 312.756C21.2691 311.185 22.3131 309.804 23.6441 308.737C25.112 307.905 26.6281 307.16 28.1844 306.507C31.0623 304.921 33.3449 301.971 36.7935 301.352C38.1113 300.984 39.491 300.893 40.8459 301.084C42.2007 301.274 43.5015 301.743 44.6664 302.46C45.8313 303.177 46.8353 304.126 47.6152 305.249C48.3952 306.372 48.9342 307.644 49.1986 308.985L48.8016 309.283C46.3556 307.944 43.7206 306.983 40.9864 306.433C37.2897 305.962 32.2532 305.193 29.0279 307.796C28.0058 308.921 27.1684 310.201 26.5469 311.588C24.7913 314.035 22.6456 316.179 20.1955 317.932L19.7489 317.734H19.8481Z" fill="white"/>
<path d="M75.6958 331.241C73.5869 320.287 90.4578 308.812 96.6604 321.08C87.6295 316.941 80.8067 324.599 75.6958 331.241Z" fill="white"/>
<path d="M105.245 325.913C106.864 323.458 109.274 321.628 112.075 320.727C114.877 319.826 117.902 319.907 120.652 320.956C126.656 322.592 131.469 330.87 126.681 336.05H126.209C127.152 325.169 113.358 322.691 105.443 326.433L105.245 325.987V325.913Z" fill="white"/>
<path d="M135.315 307.077C142.088 304.276 152.037 318.626 143.428 321.947C143.849 318.577 145.115 316.321 142.832 313.223C141.021 310.299 137.572 309.654 135.389 307.151L135.315 307.077Z" fill="white"/>
<path d="M184.712 306.284C186.738 305.135 189.13 304.811 191.389 305.379C193.649 305.947 195.602 307.362 196.844 309.332C199.97 313.198 198.829 321.179 192.949 321.476L192.576 321.154C197.538 315.206 190.74 308.043 184.612 306.755V306.284H184.712Z" fill="white"/>
<path d="M171.934 291.735C173.353 290.816 174.946 290.197 176.613 289.915C178.281 289.633 179.989 289.695 181.631 290.096C183.274 290.498 184.817 291.231 186.166 292.25C187.515 293.269 188.641 294.553 189.475 296.023C193.147 301.847 192.552 310.894 185.605 313.372C187.041 311.093 187.742 308.429 187.614 305.739C187.378 301.815 185.595 298.144 182.657 295.529C179.719 292.914 175.863 291.568 171.934 291.785V291.735Z" fill="white"/>
<path d="M195.206 312.133C200.168 305.813 209.646 310.646 212.772 316.421C215.898 322.195 217.535 333.125 208.877 333.77C209.229 332.24 209.429 330.679 209.472 329.11C210.077 328.234 210.413 327.2 210.44 326.136C210.412 323.62 209.737 321.154 208.48 318.973C207.61 317.407 206.321 316.113 204.756 315.238C203.192 314.362 201.414 313.939 199.623 314.017C198.203 313.28 196.726 312.658 195.206 312.158V312.133Z" fill="white"/>
<path d="M74.2568 307.647C73.7328 307.479 73.2491 307.205 72.8361 306.842C72.4232 306.479 72.0898 306.034 71.8568 305.536C71.6239 305.038 71.4964 304.497 71.4825 303.948C71.4685 303.399 71.5684 302.852 71.7757 302.343C72.036 300.28 72.8232 298.319 74.0615 296.648C75.2999 294.977 76.9477 293.652 78.8467 292.801C79.9291 292.421 81.0747 292.253 82.2208 292.305C83.2575 293.062 84.0507 294.104 84.5034 295.304C82.2705 296.469 82.8163 297.213 80.5089 297.46C79.1862 298.248 78.1108 299.389 77.4048 300.756C76.6987 302.123 76.3903 303.66 76.5145 305.193C75.7124 305.98 74.9506 306.808 74.232 307.672L74.2568 307.647Z" fill="white"/>
<path d="M64.3328 316.371C62.5472 314.999 61.3689 312.985 61.0491 310.758C60.7292 308.531 61.2933 306.267 62.6209 304.449C65.1019 300.286 72.5449 298.476 75.0259 303.755L74.8523 304.226C67.831 301.748 63.9358 310.422 64.9282 316.296H64.432L64.3328 316.371Z" fill="white"/>
<path d="M0.0247803 321.328C0.0479403 317.802 1.11916 314.362 3.1025 311.446C5.08584 308.529 7.89188 306.266 11.1645 304.946C17.9377 301.699 27.8122 304.524 29.0279 312.604C18.0121 306.185 8.46023 314.364 0.0247803 321.328Z" fill="white"/>
<path d="M426.412 104.416C422.219 105.011 417.853 106.151 413.461 106.895L414.95 106.002L405.969 125.384L403.488 117.056L399.965 104.813L401.528 106.176L387.609 101.492C388.155 101.021 397.31 92.0983 398.178 91.3052L397.359 93.2136L395.251 80.6232L394.184 73.4854L400.51 77.4756L411.253 84.2417L407.978 83.9195L427.975 75.3194C426.065 79.9788 421.723 90.413 419.763 95.1468L419.341 93.288C421.822 96.956 423.956 100.996 426.387 104.416H426.412ZM425.717 104.143C422.517 100.822 418.919 98.2944 415.645 95.4194L415.843 94.0811L417.505 81.3915L422.467 85.7783L408.871 91.1565L407.383 90.1651L396.814 83.0769L401.974 80.0036C401.974 80.6728 401.974 93.9571 401.974 94.1306L401.155 94.6759L390.561 101.789L390.115 99.8558L402.743 101.739L403.711 101.888L404.306 103.103L409.913 114.578L403.81 114.008L412.469 103.028C416.811 103.35 421.103 104.094 425.668 104.143H425.717Z" fill="white"/>
<path d="M251.575 281.673C250.334 280.31 248.771 278.872 247.308 277.212L247.878 277.46L239.964 278.501L244.058 271.487L243.909 272.776L241.428 267.422L240.063 264.324L249.317 266.456L247.506 266.852C249.689 264.374 253.039 261.4 255.47 259.07C255.743 262.49 256.165 267.026 256.19 270.396L254.974 268.29C257.678 270.074 260.978 272.652 263.583 274.61C260.457 275.452 256.736 276.518 253.659 277.088L254.602 276.022C253.758 277.946 252.797 279.817 251.724 281.624L251.575 281.673ZM251.575 281.202C251.873 278.872 251.575 276.915 251.575 274.783C253.609 273.643 255.693 272.528 257.802 271.536L257.381 275.551C255.247 274.461 253.138 273.271 251.079 272.032C250.905 269.554 250.756 267.075 250.756 264.597L254.974 266.456C253.072 267.922 251.065 269.247 248.97 270.421L242.619 268.314L244.678 266.034C244.827 266.505 246.762 272.181 246.836 272.429L242.891 277.683L241.949 276.047H248.275C249.367 277.609 250.26 279.269 251.55 281.004L251.575 281.202Z" fill="white"/>
<path d="M214.782 27.2131C213.194 25.7013 211.085 24.2638 209.373 22.5041L210.936 23.2972L193.221 27.4609L201.607 19.5052L206.569 14.8705L206.247 16.9276L205.18 10.3102L204.932 8.60013L206.619 8.89755L213.243 9.96327L211.184 10.2855L215.848 5.45253L221.083 0C221.083 3.69285 221.232 11.1777 221.257 14.8705L219.768 11.9212L234.357 21.6862L217.411 22.5537L218.751 21.1905C217.635 23.3963 215.948 25.3791 214.881 27.2627L214.782 27.2131ZM214.657 26.4944C214.955 24.1492 214.955 21.776 214.657 19.4309L221.877 15.044L220.81 21.6119L214.012 16.4815C214.012 15.3167 214.335 9.39323 214.385 8.10445L219.719 10.8555L212.276 14.5979L205.701 11.029L207.115 9.61629L210.638 16.2089L209.944 17.572L206.867 23.545L204.163 18.1916L210.787 19.6043L212.152 19.9017C212.765 22.1818 213.62 24.373 214.657 26.4944Z" fill="white"/>
<path d="M315.883 56.1363C311.864 58.4165 307.795 60.5727 303.676 62.6546L303.9 58.6148C311.02 61.2171 319.282 63.9929 326.229 67.3636L317.669 71.0069C313.151 72.7021 308.267 73.1891 303.503 72.4196L303.255 71.7008C304.86 69.7818 306.741 68.1114 308.837 66.744C310.764 65.4169 312.858 64.3502 315.064 63.5716L314.667 70.6599C312.459 69.4703 310.474 67.8345 308.316 66.5705C304.917 64.5134 300.873 61.9111 297.523 59.6805C303.453 58.1439 309.631 56.6568 315.635 55.4424L315.883 56.1363Z" fill="white"/>
</g>
<defs>
<clipPath id="clip0_6633_4134">
<rect width="428" height="336" fill="white"/>
</clipPath>
</defs>
</svg>
