<svg width="428" height="336" viewBox="0 0 428 336" fill="none" xmlns="http://www.w3.org/2000/svg">
<g clip-path="url(#clip0_8249_4733)">
<path d="M209.648 135.446C211.757 128.159 213.891 120.575 216.322 112.719L217.811 115.197C203.912 114.717 190.097 117.528 177.494 123.401C170.051 126.747 162.112 134.43 155.711 139.263C160.35 126.474 165.635 112.57 173.277 101.467C189.13 76.9056 215.851 58.8131 246.119 64.8605L242.621 66.2979C273.162 31.6 317.969 5.32871 365.406 9.17026H366.994L367.267 10.7812C372.031 42.2324 361.263 74.1545 343.127 99.6575C334.641 111.131 324.988 121.696 314.322 131.183L315.91 126.226C320.574 149.895 308.864 174.159 291.522 189.847C288.143 192.963 284.59 195.884 280.878 198.596C277.132 201.075 273.237 203.553 269.391 206.032L257.433 212.277L238.577 221.968C243.539 215.127 254.431 202.487 257.333 194.705C262.336 183.264 264.441 170.768 263.461 158.322L268.647 161.346L242.844 171.507L241.008 172.226L239.768 170.937L231.456 162.114L233.739 162.733C223.641 165.708 213.072 155.794 216 145.533C216.322 144.22 216.719 143.055 217.066 141.915L217.414 143.005C214.734 140.527 212.204 137.9 209.747 135.57L209.648 135.446ZM210.616 135.198C213.593 137.454 216.421 139.511 219.2 141.667C218.45 144.138 218.148 146.723 218.307 149.3C218.609 151.424 219.53 153.411 220.955 155.015C222.38 156.619 224.246 157.769 226.321 158.322C228.81 158.857 231.403 158.633 233.764 157.677C234.161 158 243.092 166.302 243.688 166.872L240.611 166.302L265.645 154.431L270.284 152.225L270.83 157.454C273.425 176.069 269.29 194.997 259.169 210.84L253.215 203.578C260.704 199.692 267.916 195.295 274.8 190.417C276.487 189.079 280.481 185.783 282.094 184.494C283.707 183.205 287.304 179.339 288.718 177.926C300.702 164.691 309.038 146.698 306.284 128.68L305.763 125.681L307.872 123.748C324.573 109.865 338.539 92.9972 349.057 74.0058C358.857 55.0707 365.382 33.0623 363.049 11.6735L364.91 13.3836C353.663 11.8381 342.233 12.2321 331.119 14.5484C297.65 21.4385 268.895 44.1408 248.526 70.7095L247.31 72.3205L245.028 72.1222C236.544 71.1567 227.953 71.9646 219.799 74.4948C211.645 77.025 204.107 81.2221 197.665 86.8193C184.485 98.4267 174.147 112.9 167.446 129.126L161.591 124.962C178.263 112.322 200.22 109.125 220.59 111.876C217.439 119.584 214.114 127.069 210.665 135.248L210.616 135.198Z" fill="#1E1F21"/>
<path d="M335.632 66.0497C336.004 92.3705 309.11 104.862 290.701 84.9848C273.185 66.6445 283.382 37.0769 309.656 36.5068C325.932 36.3086 336.079 51.1791 335.632 66.0497ZM334.888 66.0497C334.615 46.6932 307.473 37.6965 294.05 50.4604C281.844 61.2415 283.382 83.0517 300.65 87.7854C314.916 91.4287 334.789 82.5064 334.888 66.0497Z" fill="#1E1F21"/>
<path d="M210.141 135.445C202.313 142.059 195.478 149.763 189.846 158.321C169.998 181.544 158.461 210.79 151.266 240.109L146.156 235.822C155.087 231.831 163.994 227.37 172.678 222.711C189.896 213.342 206.891 202.883 221.454 189.921C229.245 184.146 236.812 177.752 241.625 168.879C236.961 189.376 218.874 202.983 202.226 213.838C185.294 224.769 167.553 234.397 149.158 242.637L142.285 245.711C145.088 233.005 148.743 220.502 153.226 208.286C164.441 179.586 180.121 147.813 210.29 135.371L210.141 135.445Z" fill="#1E1F21"/>
<path d="M214.484 139.04C192.477 160.924 178.038 189.402 168.114 218.474L163.797 214.756C170.247 211.113 176.624 207.172 182.876 203.157C193.916 196.069 209.695 186.403 220.289 178.992C226.437 174.776 232.335 170.208 237.954 165.311L238.525 165.807C219.396 193.218 188.508 209.179 159.281 223.753C168.908 199.39 180.519 175.349 197.489 155.274C202.447 149.173 207.98 143.563 214.012 138.52L214.484 139.09V139.04Z" fill="#1E1F21"/>
<path d="M164.022 180.305C142.586 189.971 121.101 199.438 101.426 212.277C82.6697 226.106 68.5527 245.76 58.8519 266.802C52.5327 280.978 48.3522 296.012 46.4469 311.413H45.9507C44.9054 295.369 47.6593 279.304 53.9891 264.522C63.417 242.216 81.2803 225.263 100.434 210.938C112.493 200.56 126.214 192.282 141.023 186.451C148.403 183.523 156.046 181.307 163.848 179.834L163.997 180.305H164.022Z" fill="#1E1F21"/>
<path d="M137.622 219.712C130.874 226.528 123.828 232.476 116.682 238.747C99.886 254.509 87.729 276.22 87.7042 299.592C86.953 304.282 86.5303 309.019 86.4389 313.768C84.6513 309.197 83.4104 304.43 82.7422 299.567C82.7422 274.783 95.5442 251.758 113.259 235.128C119.99 228.064 128.357 222.761 137.622 219.688V219.712Z" fill="#1E1F21"/>
<path d="M196.891 222.959C174.562 252.7 163.918 283.928 167.59 321.278H167.094C156.252 295.428 166.35 266.48 180.467 243.976C185.288 236.457 190.653 229.3 196.519 222.562L196.891 222.86V222.959Z" fill="#1E1F21"/>
<path d="M156.454 242.266C149.433 251.857 144.19 262.626 140.972 274.064C138.541 285.573 136.884 297.231 136.01 308.961H135.514C129.014 291.166 135.787 271.784 145.016 256.319C148.201 251.171 151.873 246.341 155.982 241.895L156.379 242.192L156.454 242.266Z" fill="#1E1F21"/>
<path d="M122.51 268.19C113.022 286.192 107.427 305.984 106.085 326.284H105.589C100.975 316.371 103.108 304.871 107.202 295.23C110.938 285.48 115.943 276.263 122.088 267.818L122.51 268.066V268.19Z" fill="#1E1F21"/>
<path d="M26.9451 292.231C23.174 284.796 21.4125 274.882 26.5978 267.447C29.7487 263.382 34.8596 264.597 37.5639 268.166C38.6727 269.462 39.5535 270.937 40.1689 272.528C38.73 271.66 37.3902 270.718 36.0257 270.049C34.2393 269.157 32.6763 268.314 31.2373 269.207C30.0315 270.493 29.2294 272.104 28.9299 273.841C27.4413 279.74 27.6894 286.06 26.9451 292.305V292.231Z" fill="#1E1F21"/>
<path d="M38.8545 281.45C37.9825 279.007 37.799 276.373 38.3241 273.833C38.8491 271.294 40.0625 268.947 41.8317 267.05C42.6883 265.916 43.8302 265.028 45.1414 264.476C46.4526 263.925 47.8864 263.73 49.2973 263.911C50.7083 264.093 52.0461 264.644 53.1751 265.508C54.304 266.373 55.1839 267.52 55.7254 268.835C46.3471 264.249 42.3031 274.56 38.8545 281.45Z" fill="#1E1F21"/>
<path d="M19.8492 317.734C19.6841 316.037 19.9447 314.326 20.6074 312.755C21.2702 311.185 22.3142 309.804 23.6452 308.737C25.1131 307.904 26.6292 307.159 28.1855 306.506C31.0634 304.92 33.346 301.971 36.7946 301.351C38.1124 300.984 39.4921 300.893 40.847 301.083C42.2018 301.274 43.5026 301.742 44.6675 302.459C45.8324 303.176 46.8364 304.126 47.6163 305.249C48.3963 306.372 48.9353 307.644 49.1997 308.985L48.8027 309.282C46.3567 307.943 43.7217 306.982 40.9875 306.432C37.2908 305.961 32.2543 305.193 29.029 307.795C28.0069 308.92 27.1695 310.2 26.548 311.587C24.7924 314.035 22.6467 316.178 20.1966 317.932L19.75 317.734H19.8492Z" fill="#1E1F21"/>
<path d="M75.6968 331.241C73.5879 320.287 90.4589 308.812 96.6614 321.08C87.6305 316.941 80.8077 324.599 75.6968 331.241Z" fill="#1E1F21"/>
<path d="M105.242 325.913C106.862 323.458 109.271 321.628 112.073 320.727C114.874 319.826 117.9 319.907 120.649 320.956C126.653 322.592 131.467 330.87 126.678 336.05H126.207C127.15 325.169 113.355 322.691 105.441 326.433L105.242 325.987V325.913Z" fill="#1E1F21"/>
<path d="M135.312 307.077C142.086 304.276 152.035 318.626 143.425 321.947C143.847 318.577 145.112 316.321 142.83 313.223C141.019 310.299 137.57 309.654 135.387 307.151L135.312 307.077Z" fill="#1E1F21"/>
<path d="M184.713 306.284C186.739 305.135 189.131 304.811 191.39 305.379C193.65 305.947 195.603 307.362 196.845 309.332C199.971 313.198 198.829 321.179 192.949 321.476L192.577 321.154C197.539 315.206 190.741 308.043 184.613 306.755V306.284H184.713Z" fill="#1E1F21"/>
<path d="M171.934 291.735C173.353 290.816 174.945 290.197 176.613 289.915C178.28 289.633 179.988 289.695 181.631 290.096C183.273 290.498 184.817 291.231 186.166 292.25C187.514 293.269 188.64 294.553 189.474 296.023C193.146 301.847 192.551 310.894 185.604 313.372C187.04 311.093 187.741 308.429 187.614 305.739C187.377 301.815 185.595 298.144 182.656 295.529C179.718 292.914 175.863 291.568 171.934 291.785V291.735Z" fill="#1E1F21"/>
<path d="M195.207 312.133C200.169 305.813 209.647 310.646 212.773 316.421C215.899 322.195 217.536 333.125 208.877 333.77C209.23 332.24 209.429 330.679 209.473 329.11C210.078 328.234 210.414 327.2 210.44 326.136C210.413 323.62 209.738 321.154 208.48 318.973C207.611 317.407 206.322 316.113 204.757 315.238C203.193 314.362 201.415 313.939 199.623 314.017C198.203 313.28 196.726 312.658 195.207 312.158V312.133Z" fill="#1E1F21"/>
<path d="M74.256 307.647C73.732 307.479 73.2484 307.205 72.8354 306.842C72.4224 306.479 72.089 306.034 71.8561 305.536C71.6231 305.038 71.4957 304.497 71.4818 303.948C71.4678 303.399 71.5676 302.852 71.775 302.343C72.0353 300.28 72.8225 298.319 74.0608 296.648C75.2991 294.977 76.947 293.652 78.8459 292.801C79.9283 292.421 81.074 292.253 82.2201 292.305C83.2568 293.062 84.05 294.104 84.5026 295.304C82.2697 296.469 82.8155 297.213 80.5082 297.46C79.1855 298.248 78.1101 299.389 77.4041 300.756C76.698 302.123 76.3896 303.66 76.5138 305.193C75.7116 305.98 74.9498 306.808 74.2312 307.672L74.256 307.647Z" fill="#1E1F21"/>
<path d="M64.3321 316.37C62.5466 314.999 61.3683 312.985 61.0485 310.757C60.7286 308.53 61.2927 306.267 62.6203 304.449C65.1013 300.285 72.5443 298.476 75.0253 303.755L74.8517 304.226C67.8304 301.747 63.9352 310.422 64.9276 316.296H64.4314L64.3321 316.37Z" fill="#1E1F21"/>
<path d="M0.0234375 321.327C0.0465976 317.801 1.11782 314.362 3.10116 311.445C5.0845 308.528 7.89054 306.266 11.1632 304.945C17.9364 301.698 27.8108 304.524 29.0265 312.603C18.0108 306.184 8.45889 314.363 0.0234375 321.327Z" fill="#1E1F21"/>
<path d="M426.412 104.416C422.22 105.011 417.853 106.151 413.462 106.895L414.95 106.002L405.969 125.384L403.488 117.056L399.965 104.813L401.528 106.176L387.609 101.492C388.155 101.021 397.31 92.0983 398.179 91.3052L397.36 93.2136L395.251 80.6232L394.184 73.4854L400.511 77.4756L411.253 84.2417L407.979 83.9195L427.976 75.3194C426.065 79.9788 421.723 90.413 419.763 95.1468L419.342 93.288C421.823 96.956 423.956 100.996 426.388 104.416H426.412ZM425.718 104.143C422.517 100.822 418.92 98.2944 415.645 95.4194L415.843 94.0811L417.506 81.3915L422.468 85.7783L408.872 91.1565L407.383 90.1651L396.814 83.0769L401.975 80.0036C401.975 80.6728 401.975 93.9571 401.975 94.1306L401.156 94.6759L390.562 101.789L390.115 99.8558L402.744 101.739L403.711 101.888L404.307 103.103L409.914 114.578L403.81 114.008L412.469 103.028C416.811 103.35 421.103 104.094 425.668 104.143H425.718Z" fill="#1E1F21"/>
<path d="M251.576 281.674C250.335 280.31 248.772 278.873 247.309 277.212L247.879 277.46L239.965 278.501L244.059 271.487L243.91 272.776L241.429 267.423L240.064 264.325L249.318 266.456L247.507 266.853C249.69 264.374 253.04 261.4 255.471 259.07C255.744 262.491 256.166 267.026 256.191 270.397L254.975 268.29C257.679 270.075 260.979 272.652 263.584 274.61C260.458 275.453 256.736 276.518 253.66 277.089L254.603 276.023C253.759 277.947 252.798 279.818 251.725 281.624L251.576 281.674ZM251.576 281.203C251.874 278.873 251.576 276.915 251.576 274.784C253.61 273.643 255.694 272.528 257.803 271.537L257.382 275.552C255.248 274.461 253.139 273.272 251.08 272.033C250.906 269.554 250.757 267.076 250.757 264.597L254.975 266.456C253.073 267.922 251.066 269.248 248.971 270.422L242.62 268.315L244.679 266.035C244.828 266.506 246.763 272.181 246.837 272.429L242.892 277.683L241.95 276.048H248.276C249.368 277.609 250.261 279.27 251.551 281.004L251.576 281.203Z" fill="#1E1F21"/>
<path d="M214.779 27.2131C213.191 25.7013 211.082 24.2638 209.37 22.5041L210.933 23.2972L193.219 27.4609L201.605 19.5052L206.567 14.8705L206.244 16.9276L205.177 10.3102L204.929 8.60013L206.616 8.89755L213.241 9.96327L211.181 10.2855L215.846 5.45253L221.081 0C221.081 3.69285 221.229 11.1777 221.254 14.8705L219.766 11.9212L234.354 21.6862L217.409 22.5537L218.748 21.1905C217.632 23.3963 215.945 25.3791 214.878 27.2627L214.779 27.2131ZM214.655 26.4944C214.952 24.1492 214.952 21.776 214.655 19.4309L221.874 15.044L220.808 21.6119L214.01 16.4815C214.01 15.3167 214.332 9.39323 214.382 8.10445L219.716 10.8555L212.273 14.5979L205.698 11.029L207.112 9.61629L210.635 16.2089L209.941 17.572L206.864 23.545L204.16 18.1916L210.784 19.6043L212.149 19.9017C212.762 22.1818 213.618 24.373 214.655 26.4944Z" fill="#1E1F21"/>
<path d="M315.883 56.1363C311.864 58.4165 307.795 60.5727 303.676 62.6546L303.9 58.6148C311.02 61.2171 319.282 63.9929 326.229 67.3636L317.669 71.0069C313.151 72.7021 308.267 73.1891 303.503 72.4196L303.255 71.7008C304.86 69.7818 306.741 68.1114 308.837 66.744C310.764 65.4169 312.857 64.3502 315.064 63.5716L314.667 70.6599C312.459 69.4703 310.474 67.8345 308.316 66.5705C304.917 64.5134 300.873 61.9111 297.523 59.6805C303.453 58.1439 309.631 56.6568 315.635 55.4424L315.883 56.1363Z" fill="#1E1F21"/>
</g>
<defs>
<clipPath id="clip0_8249_4733">
<rect width="428" height="336" fill="white"/>
</clipPath>
</defs>
</svg>
