<svg width="626" height="635" viewBox="0 0 626 635" fill="none" xmlns="http://www.w3.org/2000/svg">
<path d="M111.083 312.531L110.684 312.634L110.775 312.987L111.137 312.939L111.083 312.531ZM107.316 297.935L107.274 297.526L106.797 297.574L106.917 298.038L107.316 297.935ZM122.204 283.584L122.447 283.917L122.449 283.915L122.204 283.584ZM116.035 288.384L116.294 288.704L116.295 288.703L116.035 288.384ZM108.383 293.649L108.59 294.005L108.592 294.004L108.383 293.649ZM99.2096 295.879L99.1939 296.29L99.1992 296.291L99.2096 295.879ZM83.7442 278.864L83.3323 278.869L83.3324 278.872L83.7442 278.864ZM111.574 249.904L111.976 249.816L111.891 249.429L111.5 249.499L111.574 249.904ZM114.742 264.313L114.83 264.715L115.233 264.627L115.145 264.225L114.742 264.313ZM102.211 277.43L102.412 277.79L102.416 277.787L102.211 277.43ZM106.907 273.971L107.178 274.281L107.185 274.274L106.907 273.971ZM112.925 269.475L113.144 269.824L113.152 269.818L112.925 269.475ZM119.872 265.666L120.036 266.044L119.872 265.666ZM127.457 264.785L127.397 265.192L127.408 265.194L127.457 264.785ZM141.797 282.355L141.386 282.339L141.386 282.342L141.797 282.355ZM134.004 298.549C127.202 306.494 119.544 311.001 111.029 312.123L111.137 312.939C119.894 311.786 127.725 307.15 134.63 299.084L134.004 298.549ZM111.482 312.428L107.714 297.833L106.917 298.038L110.684 312.634L111.482 312.428ZM107.357 298.345C114.264 297.65 119.994 294.651 124.524 289.359L123.898 288.824C119.505 293.956 113.97 296.853 107.274 297.526L107.357 298.345ZM124.524 289.359C125.858 287.801 126.71 286.426 127.018 285.243C127.174 284.645 127.196 284.081 127.056 283.562C126.916 283.04 126.62 282.594 126.188 282.224L125.652 282.849C125.972 283.122 126.168 283.43 126.261 283.776C126.355 284.125 126.35 284.54 126.221 285.035C125.96 286.037 125.206 287.297 123.898 288.824L124.524 289.359ZM126.188 282.224C125.692 281.8 125.044 281.751 124.347 281.948C123.658 282.142 122.859 282.589 121.96 283.253L122.449 283.915C123.317 283.275 124.022 282.895 124.571 282.74C125.113 282.587 125.439 282.667 125.652 282.849L126.188 282.224ZM121.962 283.252C120.222 284.521 118.159 286.125 115.775 288.065L116.295 288.703C118.673 286.769 120.723 285.174 122.447 283.917L121.962 283.252ZM115.776 288.064C113.448 289.945 110.915 291.688 108.175 293.294L108.592 294.004C111.365 292.379 113.932 290.612 116.294 288.704L115.776 288.064ZM108.177 293.293C105.528 294.825 102.546 295.553 99.22 295.468L99.1992 296.291C102.664 296.379 105.798 295.62 108.59 294.005L108.177 293.293ZM99.2252 295.468C95.9753 295.344 92.8582 294.023 89.8683 291.467L89.3328 292.092C92.4357 294.745 95.7246 296.158 99.1939 296.29L99.2252 295.468ZM89.8683 291.467C86.1672 288.302 84.2605 284.111 84.156 278.856L83.3324 278.872C83.4412 284.343 85.4387 288.762 89.3328 292.092L89.8683 291.467ZM84.156 278.859C84.0867 273.582 86.3149 268.263 90.9117 262.894L90.2857 262.358C85.6012 267.83 83.2597 273.336 83.3323 278.869L84.156 278.859ZM90.9117 262.894C96.8925 255.908 103.804 251.725 111.647 250.309L111.5 249.499C103.443 250.953 96.3706 255.251 90.2857 262.358L90.9117 262.894ZM111.172 249.992L114.34 264.401L115.145 264.225L111.976 249.816L111.172 249.992ZM114.655 263.911C108.707 265.202 103.752 268.158 99.8028 272.771L100.429 273.306C104.261 268.83 109.058 265.968 114.83 264.715L114.655 263.911ZM99.8028 272.771C98.8751 273.855 98.2929 274.854 98.1317 275.76C97.9635 276.705 98.2602 277.518 98.9952 278.147L99.5306 277.521C99.0136 277.079 98.8265 276.558 98.9427 275.904C99.0658 275.212 99.536 274.349 100.429 273.306L99.8028 272.771ZM98.9952 278.147C99.401 278.494 99.9223 278.594 100.494 278.515C101.057 278.438 101.7 278.186 102.412 277.789L102.01 277.07C101.341 277.443 100.802 277.642 100.382 277.7C99.9712 277.756 99.709 277.674 99.5306 277.521L98.9952 278.147ZM102.416 277.787C103.863 276.959 105.451 275.788 107.178 274.281L106.636 273.661C104.935 275.145 103.392 276.28 102.006 277.073L102.416 277.787ZM107.185 274.274C108.836 272.763 110.821 271.279 113.144 269.824L112.706 269.126C110.35 270.603 108.323 272.116 106.629 273.667L107.185 274.274ZM113.152 269.818C115.468 268.287 117.762 267.029 120.036 266.044L119.708 265.288C117.386 266.295 115.049 267.576 112.697 269.132L113.152 269.818ZM120.036 266.044C122.256 265.082 124.706 264.794 127.397 265.192L127.517 264.378C124.692 263.959 122.085 264.259 119.708 265.288L120.036 266.044ZM127.408 265.194C130.068 265.514 132.58 266.674 134.948 268.699L135.484 268.074C133.011 265.959 130.351 264.719 127.506 264.376L127.408 265.194ZM134.948 268.699C139.456 272.554 141.583 277.094 141.386 282.339L142.209 282.37C142.417 276.841 140.157 272.069 135.484 268.074L134.948 268.699ZM141.386 282.342C141.222 287.563 138.786 292.964 134.004 298.549L134.63 299.084C139.487 293.411 142.038 287.837 142.209 282.368L141.386 282.342Z" fill="#1E1F21"/>
<path d="M149.371 270.799L149.303 271.205L149.307 271.206L149.371 270.799ZM126.718 236.61L127.118 236.708L126.718 236.61ZM156.234 213.18L156.205 213.591L156.208 213.591L156.234 213.18ZM170.07 217.665L170.421 217.881L170.632 217.538L170.293 217.32L170.07 217.665ZM161.798 231.118L161.541 231.44L161.906 231.73L162.149 231.334L161.798 231.118ZM155.337 228.672L155.299 229.082L155.306 229.083L155.337 228.672ZM142.664 238.912L142.258 238.843L142.664 238.912ZM153.49 255.252L153.395 255.652L153.49 255.252ZM167.938 247.69L168.328 247.821L168.33 247.815L167.938 247.69ZM168.166 240.73L168.103 240.323L167.645 240.394L167.769 240.84L168.166 240.73ZM183.762 238.33L184.168 238.258L184.097 237.862L183.699 237.923L183.762 238.33ZM184.152 244.882L184.563 244.912L184.564 244.906L184.152 244.882ZM182.804 251.791L182.409 251.672L182.804 251.791ZM178.871 259.123L179.194 259.379L179.197 259.375L178.871 259.123ZM171.583 265.118C164.421 269.846 157.043 271.594 149.435 270.393L149.307 271.206C157.142 272.442 164.724 270.632 172.038 265.804L171.583 265.118ZM149.439 270.394C141.854 269.119 135.793 265.064 131.241 258.195L130.554 258.648C135.222 265.693 141.476 269.89 149.303 271.205L149.439 270.394ZM131.241 258.195C126.659 251.279 125.295 244.125 127.118 236.708L126.318 236.511C124.435 244.171 125.857 251.559 130.554 258.648L131.241 258.195ZM127.118 236.708C128.944 229.282 133.442 223.191 140.651 218.433L140.196 217.746C132.837 222.604 128.199 228.859 126.318 236.511L127.118 236.708ZM140.651 218.433C146.096 214.839 151.277 213.243 156.205 213.591L156.263 212.77C151.105 212.406 145.746 214.083 140.196 217.746L140.651 218.433ZM156.208 213.591C161.229 213.912 165.772 215.386 169.847 218.011L170.293 217.32C166.096 214.615 161.416 213.099 156.26 212.77L156.208 213.591ZM169.719 217.45L161.447 230.903L162.149 231.334L170.421 217.881L169.719 217.45ZM162.054 230.797C160.176 229.303 157.942 228.461 155.369 228.262L155.306 229.083C157.729 229.27 159.803 230.058 161.541 231.44L162.054 230.797ZM155.376 228.263C152.759 228.016 150.392 228.582 148.293 229.967L148.748 230.653C150.681 229.377 152.859 228.852 155.299 229.082L155.376 228.263ZM148.293 229.967C144.91 232.2 142.885 235.162 142.258 238.843L143.07 238.982C143.655 235.547 145.535 232.774 148.748 230.653L148.293 229.967ZM142.258 238.843C141.633 242.512 142.436 246.021 144.641 249.35L145.329 248.897C143.228 245.727 142.484 242.428 143.07 238.982L142.258 238.843ZM144.641 249.35C146.847 252.679 149.768 254.79 153.395 255.652L153.586 254.852C150.179 254.042 147.429 252.067 145.329 248.897L144.641 249.35ZM153.395 255.652C157.034 256.518 160.558 255.817 163.941 253.584L163.486 252.897C160.273 255.018 156.981 255.659 153.586 254.852L153.395 255.652ZM163.941 253.584C166.036 252.201 167.5 250.275 168.328 247.821L167.547 247.558C166.775 249.845 165.423 251.619 163.486 252.897L163.941 253.584ZM168.33 247.815C169.122 245.331 169.204 242.929 168.563 240.62L167.769 240.84C168.363 242.979 168.293 245.217 167.545 247.565L168.33 247.815ZM168.229 241.137L183.825 238.737L183.699 237.923L168.103 240.323L168.229 241.137ZM183.357 238.402C183.74 240.548 183.868 242.699 183.741 244.857L184.564 244.906C184.695 242.683 184.563 240.467 184.168 238.258L183.357 238.402ZM183.741 244.851C183.584 246.96 183.142 249.234 182.409 251.672L183.199 251.909C183.945 249.425 184.401 247.092 184.563 244.912L183.741 244.851ZM182.409 251.672C181.687 254.077 180.403 256.477 178.546 258.871L179.197 259.375C181.105 256.916 182.442 254.428 183.199 251.909L182.409 251.672ZM178.548 258.867C176.712 261.18 174.392 263.264 171.583 265.118L172.038 265.804C174.91 263.909 177.297 261.768 179.194 259.379L178.548 258.867Z" fill="#1E1F21"/>
<path d="M238.084 238.553L238.202 238.947L238.848 238.757L238.382 238.269L238.084 238.553ZM219.918 243.908L219.603 244.173L219.777 244.379L220.035 244.303L219.918 243.908ZM207.723 229.474L208.038 229.209L207.864 229.003L207.606 229.079L207.723 229.474ZM201.957 231.174L201.84 230.779L201.445 230.895L201.562 231.29L201.957 231.174ZM206.885 247.75L207.003 248.145L207.398 248.028L207.28 247.633L206.885 247.75ZM190.93 252.453L190.535 252.57L190.653 252.964L191.048 252.848L190.93 252.453ZM175.277 199.804L175.16 199.41L174.765 199.526L174.882 199.921L175.277 199.804ZM218.846 192.627L218.642 192.984L218.647 192.987L218.846 192.627ZM227.887 214.945L227.498 214.809L227.496 214.814L227.887 214.945ZM222.989 222.742L222.71 222.438L222.401 222.722L222.691 223.025L222.989 222.742ZM210.949 212.297L211.269 212.557L211.273 212.551L211.278 212.546L210.949 212.297ZM209.119 206.14L208.979 206.527L208.986 206.529L208.992 206.532L209.119 206.14ZM195.363 208.993L195.245 208.599L194.85 208.715L194.968 209.11L195.363 208.993ZM197.827 217.281L197.432 217.398L197.549 217.792L197.944 217.676L197.827 217.281ZM237.967 238.158L219.801 243.513L220.035 244.303L238.202 238.947L237.967 238.158ZM220.233 243.643L208.038 229.209L207.408 229.739L219.603 244.173L220.233 243.643ZM207.606 229.079L201.84 230.779L202.074 231.568L207.84 229.869L207.606 229.079ZM201.562 231.29L206.49 247.866L207.28 247.633L202.352 231.057L201.562 231.29ZM206.768 247.355L190.813 252.058L191.048 252.848L207.003 248.145L206.768 247.355ZM191.325 252.337L175.672 199.688L174.882 199.921L190.535 252.57L191.325 252.337ZM175.394 200.199L203.513 191.91L203.279 191.121L175.16 199.41L175.394 200.199ZM203.513 191.91C209.383 190.18 214.412 190.557 218.642 192.984L219.051 192.27C214.581 189.706 209.309 189.343 203.279 191.121L203.513 191.91ZM218.647 192.987C222.932 195.357 225.827 199.058 227.332 204.119L228.121 203.887C226.56 198.634 223.534 194.751 219.045 192.267L218.647 192.987ZM227.332 204.119C228.534 208.163 228.576 211.72 227.498 214.809L228.276 215.081C229.425 211.79 229.36 208.052 228.121 203.887L227.332 204.119ZM227.496 214.814C226.455 217.93 224.857 220.467 222.71 222.438L223.268 223.045C225.53 220.969 227.198 218.308 228.278 215.076L227.496 214.814ZM222.691 223.025L237.787 238.836L238.382 238.269L223.287 222.458L222.691 223.025ZM207.659 214.812C209.196 214.359 210.409 213.613 211.269 212.557L210.629 212.037C209.895 212.939 208.837 213.606 207.425 214.023L207.659 214.812ZM211.278 212.546C212.147 211.398 212.346 210.06 211.906 208.581L211.116 208.814C211.49 210.071 211.314 211.133 210.62 212.048L211.278 212.546ZM211.906 208.581C211.48 207.148 210.591 206.184 209.245 205.749L208.992 206.532C210.054 206.875 210.76 207.615 211.116 208.814L211.906 208.581ZM209.258 205.753C207.942 205.276 206.503 205.28 204.96 205.735L205.195 206.524C206.601 206.11 207.857 206.12 208.979 206.527L209.258 205.753ZM204.96 205.735L195.245 208.599L195.48 209.388L205.195 206.524L204.96 205.735ZM194.968 209.11L197.432 217.398L198.222 217.165L195.757 208.877L194.968 209.11ZM197.944 217.676L207.659 214.812L207.425 214.023L197.709 216.887L197.944 217.676Z" fill="#1E1F21"/>
<path d="M284.168 234.273L284.442 234.581L284.444 234.579L284.168 234.273ZM243.582 233.158L243.291 233.448L243.295 233.452L243.582 233.158ZM238.006 183.5L238.017 183.088L237.605 183.077L237.594 183.489L238.006 183.5ZM254.882 183.964L255.294 183.975L255.304 183.563L254.893 183.552L254.882 183.964ZM256.536 222.641L256.233 222.92L256.242 222.929L256.536 222.641ZM271.684 223.057L271.4 222.758L271.684 223.057ZM275.381 184.527L275.391 184.115L274.98 184.104L274.969 184.516L275.381 184.527ZM292.257 184.991L292.669 185.002L292.679 184.59L292.268 184.579L292.257 184.991ZM283.893 233.966C279.336 238.026 272.65 239.97 263.764 239.726L263.743 240.549C272.748 240.796 279.672 238.831 284.442 234.581L283.893 233.966ZM263.764 239.726C254.878 239.482 248.271 237.173 243.87 232.864L243.295 233.452C247.897 237.957 254.737 240.301 263.743 240.549L263.764 239.726ZM243.874 232.868C239.519 228.498 237.419 222.842 237.596 215.86L236.773 215.838C236.59 223.014 238.756 228.898 243.291 233.448L243.874 232.868ZM237.596 215.86L238.418 183.511L237.594 183.489L236.773 215.838L237.596 215.86ZM237.996 183.912L254.872 184.375L254.893 183.552L238.017 183.088L237.996 183.912ZM254.471 183.952L253.664 215.725L254.487 215.748L255.294 183.975L254.471 183.952ZM253.664 215.725C253.591 218.566 254.444 220.974 256.233 222.919L256.839 222.363C255.208 220.59 254.42 218.395 254.487 215.748L253.664 215.725ZM256.242 222.929C258.104 224.832 260.749 225.805 264.115 225.897L264.136 225.074C260.916 224.985 258.501 224.062 256.83 222.354L256.242 222.929ZM264.115 225.897C267.427 225.988 270.065 225.16 271.967 223.356L271.4 222.758C269.7 224.37 267.299 225.161 264.136 225.074L264.115 225.897ZM271.967 223.356C273.91 221.514 274.913 219.156 274.985 216.311L274.162 216.289C274.095 218.932 273.172 221.078 271.4 222.758L271.967 223.356ZM274.985 216.311L275.792 184.538L274.969 184.516L274.162 216.289L274.985 216.311ZM275.37 184.939L292.247 185.402L292.268 184.579L275.391 184.115L275.37 184.939ZM291.846 184.979L291.026 217.246L291.849 217.269L292.669 185.002L291.846 184.979ZM291.026 217.246C290.847 224.284 288.462 229.843 283.891 233.967L284.444 234.579C289.204 230.283 291.665 224.499 291.849 217.269L291.026 217.246Z" fill="#1E1F21"/>
<path d="M352.308 262.955L352.157 263.338L352.54 263.489L352.691 263.106L352.308 262.955ZM336.836 256.839L336.453 256.687L336.302 257.07L336.685 257.222L336.836 256.839ZM348.947 226.124L349.33 226.276L348.641 225.849L348.947 226.124ZM325.424 252.327L325.273 252.71L325.539 252.816L325.73 252.603L325.424 252.327ZM318.53 249.602L318.119 249.594L318.113 249.88L318.379 249.985L318.53 249.602ZM319.229 214.377L319.64 214.385L318.846 214.225L319.229 214.377ZM307.118 245.091L306.967 245.474L307.35 245.625L307.501 245.242L307.118 245.091ZM291.646 238.975L291.263 238.824L291.112 239.207L291.495 239.358L291.646 238.975ZM311.79 187.887L311.941 187.504L311.558 187.352L311.407 187.735L311.79 187.887ZM333.16 196.334L333.572 196.345L333.579 196.057L333.311 195.951L333.16 196.334ZM332.457 224.387L332.045 224.376L332.017 225.502L332.765 224.66L332.457 224.387ZM351.083 203.419L351.234 203.036L350.966 202.93L350.775 203.145L351.083 203.419ZM372.453 211.866L372.836 212.018L372.987 211.635L372.604 211.483L372.453 211.866ZM352.459 262.572L336.987 256.456L336.685 257.222L352.157 263.338L352.459 262.572ZM337.219 256.99L349.33 226.276L348.564 225.973L336.453 256.687L337.219 256.99ZM348.641 225.849L325.117 252.052L325.73 252.603L349.253 226.4L348.641 225.849ZM325.575 251.944L318.681 249.219L318.379 249.985L325.273 252.71L325.575 251.944ZM318.942 249.611L319.64 214.385L318.817 214.368L318.119 249.594L318.942 249.611ZM318.846 214.225L306.735 244.94L307.501 245.242L319.612 214.528L318.846 214.225ZM307.269 244.708L291.797 238.592L291.495 239.358L306.967 245.474L307.269 244.708ZM292.029 239.126L312.173 188.038L311.407 187.735L291.263 238.824L292.029 239.126ZM311.639 188.27L333.009 196.717L333.311 195.951L311.941 187.504L311.639 188.27ZM332.749 196.323L332.045 224.376L332.869 224.397L333.572 196.345L332.749 196.323ZM332.765 224.66L351.391 203.693L350.775 203.145L332.149 224.113L332.765 224.66ZM350.932 203.802L372.302 212.249L372.604 211.483L351.234 203.036L350.932 203.802ZM372.07 211.715L351.925 262.803L352.691 263.106L372.836 212.018L372.07 211.715Z" fill="#1E1F21"/>
<path d="M382.165 290.604L381.903 290.922L382.22 291.184L382.483 290.867L382.165 290.604ZM353.275 266.736L352.958 266.474L352.695 266.791L353.013 267.053L353.275 266.736ZM388.278 224.42L388.54 224.103L388.223 223.841L387.96 224.158L388.278 224.42ZM401.104 235.017L401.421 235.279L401.683 234.962L401.366 234.7L401.104 235.017ZM375.337 266.167L375.02 265.905L374.757 266.222L375.075 266.484L375.337 266.167ZM391.401 279.439L391.719 279.701L391.981 279.384L391.664 279.121L391.401 279.439ZM382.428 290.287L353.538 266.419L353.013 267.053L381.903 290.922L382.428 290.287ZM353.593 266.999L388.595 224.683L387.96 224.158L352.958 266.474L353.593 266.999ZM388.015 224.738L400.841 235.334L401.366 234.7L388.54 224.103L388.015 224.738ZM400.786 234.755L375.02 265.905L375.655 266.429L401.421 235.279L400.786 234.755ZM375.075 266.484L391.139 279.756L391.664 279.121L375.6 265.85L375.075 266.484ZM391.084 279.176L381.848 290.342L382.483 290.867L391.719 279.701L391.084 279.176Z" fill="#1E1F21"/>
<path d="M418.617 343.279L418.277 343.511L418.612 343.999L418.953 343.517L418.617 343.279ZM407.951 327.726L407.628 327.469L407.439 327.707L407.611 327.958L407.951 327.726ZM412.136 322.472L412.458 322.728L412.647 322.491L412.475 322.24L412.136 322.472ZM400.957 306.171L401.296 305.939L401.124 305.688L400.834 305.779L400.957 306.171ZM394.536 308.165L394.196 308.397L394.368 308.648L394.659 308.558L394.536 308.165ZM383.869 292.611L383.769 292.212L383.195 292.356L383.53 292.843L383.869 292.611ZM440.672 278.335L441.012 278.103L440.85 277.866L440.571 277.936L440.672 278.335ZM452.503 295.587L452.839 295.825L453.005 295.591L452.843 295.354L452.503 295.587ZM421.585 310.629L421.245 310.861L421.56 311.321L421.907 310.885L421.585 310.629ZM433.127 296.159L433.449 296.415L434.285 295.367L433.004 295.766L433.127 296.159ZM415.437 301.663L415.314 301.271L414.782 301.436L415.097 301.896L415.437 301.663ZM418.957 343.047L408.291 327.493L407.611 327.958L418.277 343.511L418.957 343.047ZM408.273 327.982L412.458 322.728L411.813 322.216L407.628 327.469L408.273 327.982ZM412.475 322.24L401.296 305.939L400.617 306.404L411.796 322.704L412.475 322.24ZM400.834 305.779L394.413 307.772L394.659 308.558L401.079 306.564L400.834 305.779ZM394.876 307.932L384.209 292.379L383.53 292.843L394.196 308.397L394.876 307.932ZM383.97 293.01L440.773 278.734L440.571 277.936L383.769 292.212L383.97 293.01ZM440.332 278.567L452.163 295.819L452.843 295.354L441.012 278.103L440.332 278.567ZM452.167 295.348L418.281 343.041L418.953 343.517L452.839 295.825L452.167 295.348ZM421.907 310.885L433.449 296.415L432.805 295.902L421.263 310.372L421.907 310.885ZM433.004 295.766L415.314 301.271L415.56 302.056L433.25 296.551L433.004 295.766ZM415.097 301.896L421.245 310.861L421.925 310.397L415.777 301.431L415.097 301.896Z" fill="#1E1F21"/>
<path d="M434.805 382.775L434.596 383.13L434.599 383.131L434.805 382.775ZM423.312 343.838L422.945 343.649L422.943 343.654L423.312 343.838ZM468.874 323.383L469.27 323.267L469.153 322.872L468.758 322.988L468.874 323.383ZM473.653 339.574L473.77 339.968L474.165 339.853L474.049 339.458L473.653 339.574ZM437.334 352.948L436.975 352.745L436.969 352.756L437.334 352.948ZM441.623 367.48L441.82 367.119L441.623 367.48ZM479.458 359.24L479.853 359.124L479.737 358.729L479.342 358.845L479.458 359.24ZM484.237 375.431L484.354 375.825L484.749 375.71L484.632 375.315L484.237 375.431ZM435.013 382.42C429.736 379.325 425.817 373.559 423.3 365.034L422.51 365.266C425.06 373.905 429.074 379.89 434.596 383.13L435.013 382.42ZM423.3 365.034C420.784 356.509 420.939 349.522 423.681 344.022L422.943 343.654C420.076 349.405 419.96 356.625 422.51 365.266L423.3 365.034ZM423.678 344.026C426.492 338.551 431.228 334.829 437.932 332.867L437.699 332.077C430.809 334.093 425.876 337.948 422.945 343.649L423.678 344.026ZM437.932 332.867L468.991 323.778L468.758 322.988L437.699 332.077L437.932 332.867ZM468.479 323.498L473.258 339.689L474.049 339.458L469.27 323.267L468.479 323.498ZM473.537 339.179L443.031 348.106L443.264 348.896L473.77 339.968L473.537 339.179ZM443.031 348.106C440.304 348.904 438.274 350.45 436.975 352.745L437.693 353.151C438.876 351.059 440.722 349.64 443.264 348.896L443.031 348.106ZM436.969 352.756C435.732 355.108 435.625 357.919 436.578 361.149L437.368 360.918C436.456 357.828 436.589 355.25 437.699 353.14L436.969 352.756ZM436.578 361.149C437.516 364.327 439.12 366.583 441.426 367.841L441.82 367.119C439.76 365.995 438.264 363.952 437.368 360.918L436.578 361.149ZM441.426 367.841C443.781 369.126 446.338 369.361 449.069 368.562L448.836 367.772C446.298 368.515 443.969 368.292 441.82 367.119L441.426 367.841ZM449.069 368.562L479.575 359.635L479.342 358.845L448.836 367.772L449.069 368.562ZM479.063 359.355L483.842 375.546L484.632 375.315L479.853 359.124L479.063 359.355ZM484.121 375.036L453.14 384.102L453.374 384.892L484.354 375.825L484.121 375.036ZM453.14 384.102C446.383 386.079 440.351 385.507 435.01 382.419L434.599 383.131C440.162 386.348 446.432 386.923 453.374 384.892L453.14 384.102Z" fill="#1E1F21"/>
<path d="M429.816 444.754L429.405 444.741L429.394 445.153L429.805 445.165L429.816 444.754ZM430.25 428.785L430.017 428.446L429.844 428.564L429.839 428.773L430.25 428.785ZM458.625 409.351L458.858 409.69L459.901 408.976L458.636 408.939L458.625 409.351ZM430.801 408.537L430.389 408.525L430.378 408.937L430.789 408.949L430.801 408.537ZM431.252 391.911L431.264 391.499L430.852 391.487L430.841 391.899L431.252 391.911ZM486.159 393.516L486.571 393.528L486.582 393.116L486.171 393.104L486.159 393.516ZM485.694 410.636L485.929 410.975L486.1 410.856L486.106 410.648L485.694 410.636ZM459.162 428.971L458.928 428.633L457.895 429.346L459.151 429.383L459.162 428.971ZM485.175 429.732L485.587 429.744L485.598 429.332L485.186 429.32L485.175 429.732ZM484.723 446.358L484.712 446.77L485.124 446.782L485.135 446.37L484.723 446.358ZM430.228 444.766L430.662 428.798L429.839 428.773L429.405 444.741L430.228 444.766ZM430.484 429.125L458.858 409.69L458.391 409.011L430.017 428.446L430.484 429.125ZM458.636 408.939L430.812 408.126L430.789 408.949L458.613 409.762L458.636 408.939ZM431.212 408.549L431.664 391.923L430.841 391.899L430.389 408.525L431.212 408.549ZM431.241 392.322L486.148 393.927L486.171 393.104L431.264 391.499L431.241 392.322ZM485.748 393.504L485.283 410.624L486.106 410.648L486.571 393.528L485.748 393.504ZM485.46 410.297L458.928 428.633L459.397 429.31L485.929 410.975L485.46 410.297ZM459.151 429.383L485.164 430.143L485.186 429.32L459.174 428.56L459.151 429.383ZM484.764 429.72L484.312 446.346L485.135 446.37L485.587 429.744L484.764 429.72ZM484.735 445.947L429.828 444.342L429.805 445.165L484.712 446.77L484.735 445.947Z" fill="#1E1F21"/>
<path d="M433.503 453.602L433.313 453.237L433.31 453.239L433.503 453.602ZM472.138 467.373L471.759 467.535L472.138 467.373ZM462.671 503.857L462.447 503.511L462.444 503.512L462.671 503.857ZM448.932 508.575L448.522 508.613L448.56 509.014L448.962 508.986L448.932 508.575ZM447.445 492.836L447.456 492.424L446.991 492.411L447.035 492.874L447.445 492.836ZM454.071 490.915L453.855 490.563L453.849 490.567L454.071 490.915ZM458.028 475.105L458.394 474.917L458.028 475.105ZM439.564 468.524L439.399 468.147L439.564 468.524ZM432.582 483.255L432.191 483.384L432.193 483.391L432.582 483.255ZM436.584 488.964L436.879 489.252L437.202 488.921L436.835 488.638L436.584 488.964ZM425.581 500.251L425.3 500.553L425.595 500.827L425.876 500.539L425.581 500.251ZM421.33 495.24L420.984 495.462L420.987 495.468L421.33 495.24ZM418.252 488.898L418.638 488.756L418.252 488.898ZM416.982 480.666L416.57 480.655L416.57 480.66L416.982 480.666ZM419.193 471.49C422.067 463.403 426.903 457.574 433.696 453.966L433.31 453.239C426.314 456.953 421.352 462.956 418.418 471.214L419.193 471.49ZM433.693 453.968C440.512 450.434 447.787 450.041 455.549 452.807L455.825 452.031C447.864 449.194 440.35 449.589 433.313 453.237L433.693 453.968ZM455.549 452.807C463.364 455.593 468.754 460.501 471.759 467.535L472.516 467.212C469.413 459.948 463.837 454.887 455.825 452.031L455.549 452.807ZM471.759 467.535C474.767 474.576 474.839 482.155 471.947 490.294L472.723 490.57C475.675 482.262 475.616 474.468 472.516 467.212L471.759 467.535ZM471.947 490.294C469.763 496.441 466.588 500.83 462.447 503.511L462.894 504.203C467.229 501.397 470.497 496.836 472.723 490.57L471.947 490.294ZM462.444 503.512C458.245 506.27 453.732 507.819 448.903 508.164L448.962 508.986C453.937 508.63 458.584 507.033 462.897 504.201L462.444 503.512ZM449.342 508.536L447.855 492.797L447.035 492.874L448.522 508.613L449.342 508.536ZM447.434 493.247C449.831 493.315 452.12 492.648 454.293 491.262L453.849 490.567C451.803 491.873 449.674 492.487 447.456 492.424L447.434 493.247ZM454.287 491.266C456.524 489.892 458.072 488.017 458.914 485.648L458.138 485.372C457.363 487.554 455.941 489.283 453.855 490.564L454.287 491.266ZM458.914 485.648C460.271 481.828 460.106 478.241 458.394 474.917L457.662 475.294C459.26 478.395 459.427 481.744 458.138 485.372L458.914 485.648ZM458.394 474.917C456.686 471.604 453.936 469.277 450.174 467.936L449.898 468.712C453.48 469.988 456.058 472.182 457.662 475.294L458.394 474.917ZM450.174 467.936C446.412 466.595 442.812 466.659 439.399 468.147L439.728 468.902C442.934 467.504 446.316 467.435 449.898 468.712L450.174 467.936ZM439.399 468.147C435.975 469.639 433.584 472.316 432.227 476.136L433.003 476.412C434.292 472.784 436.534 470.294 439.728 468.902L439.399 468.147ZM432.227 476.136C431.386 478.501 431.377 480.922 432.191 483.384L432.972 483.126C432.213 480.831 432.226 478.598 433.003 476.412L432.227 476.136ZM432.193 483.391C433.055 485.855 434.433 487.827 436.333 489.291L436.835 488.638C435.074 487.282 433.785 485.448 432.97 483.119L432.193 483.391ZM436.289 488.677L425.286 499.964L425.876 500.539L436.879 489.252L436.289 488.677ZM425.861 499.95C424.265 498.463 422.869 496.817 421.673 495.013L420.987 495.468C422.219 497.326 423.657 499.021 425.3 500.553L425.861 499.95ZM421.677 495.018C420.534 493.235 419.52 491.149 418.638 488.756L417.866 489.041C418.764 491.478 419.803 493.62 420.984 495.462L421.677 495.018ZM418.638 488.756C417.769 486.397 417.351 483.705 417.393 480.673L416.57 480.66C416.526 483.774 416.955 486.57 417.866 489.041L418.638 488.756ZM417.393 480.677C417.468 477.723 418.067 474.661 419.193 471.49L418.418 471.214C417.265 474.456 416.648 477.604 416.57 480.655L417.393 480.677Z" fill="#1E1F21"/>
<path d="M379.167 533.867L378.845 533.611L378.588 533.933L378.91 534.189L379.167 533.867ZM389.536 520.864L389.792 520.542L389.47 520.285L389.214 520.607L389.536 520.864ZM405.963 533.949L405.706 534.271L406.028 534.528L406.285 534.206L405.963 533.949ZM418.231 518.564L418.553 518.821L418.809 518.499L418.487 518.242L418.231 518.564ZM401.803 505.478L401.481 505.222L401.225 505.544L401.547 505.8L401.803 505.478ZM412.172 492.475L412.429 492.153L412.107 491.896L411.85 492.218L412.172 492.475ZM455.14 526.703L455.462 526.96L455.719 526.638L455.397 526.381L455.14 526.703ZM444.772 539.707L444.515 540.029L444.837 540.285L445.094 539.963L444.772 539.707ZM429.569 527.596L429.825 527.274L429.503 527.017L429.246 527.339L429.569 527.596ZM417.301 542.981L416.979 542.725L416.722 543.047L417.044 543.303L417.301 542.981ZM432.504 555.092L432.826 555.349L433.083 555.027L432.761 554.77L432.504 555.092ZM422.135 568.096L421.879 568.417L422.201 568.674L422.457 568.352L422.135 568.096ZM379.489 534.124L389.858 521.12L389.214 520.607L378.845 533.611L379.489 534.124ZM389.279 521.186L405.706 534.271L406.219 533.628L389.792 520.542L389.279 521.186ZM406.285 534.206L418.553 518.821L417.908 518.308L405.641 533.693L406.285 534.206ZM418.487 518.242L402.06 505.156L401.547 505.8L417.974 518.886L418.487 518.242ZM402.126 505.735L412.494 492.731L411.85 492.218L401.481 505.222L402.126 505.735ZM411.915 492.797L454.884 527.025L455.397 526.381L412.429 492.153L411.915 492.797ZM454.818 526.447L444.45 539.45L445.094 539.963L455.462 526.96L454.818 526.447ZM445.028 539.385L429.825 527.274L429.312 527.918L444.515 540.029L445.028 539.385ZM429.246 527.339L416.979 542.725L417.623 543.238L429.891 527.852L429.246 527.339ZM417.044 543.303L432.247 555.414L432.761 554.77L417.557 542.659L417.044 543.303ZM432.182 554.835L421.813 567.839L422.457 568.352L432.826 555.349L432.182 554.835ZM422.392 567.774L379.424 533.545L378.91 534.189L421.879 568.417L422.392 567.774Z" fill="#1E1F21"/>
</svg>
