<svg width="1234" height="415" viewBox="0 0 1234 415" fill="none" xmlns="http://www.w3.org/2000/svg">
<path d="M224.804 198.422C218.457 198.422 213.436 196.611 209.74 192.99L215.004 186.27C217.655 188.697 220.884 189.91 224.692 189.91C226.633 189.91 228.127 189.499 229.172 188.678C230.255 187.857 230.796 186.83 230.796 185.598C230.796 184.291 230.292 183.246 229.284 182.462C228.276 181.678 226.839 181.286 224.972 181.286C222.023 181.286 219.559 182.219 217.58 184.086L210.916 182.462V160.398H238.02V168.798H220.548V176.022C222.601 174.043 225.271 173.054 228.556 173.054C231.841 173.054 234.66 174.174 237.012 176.414C239.401 178.654 240.596 181.585 240.596 185.206C240.596 189.238 239.177 192.449 236.34 194.838C233.503 197.227 229.657 198.422 224.804 198.422Z" fill="white"/>
<path d="M153.976 248.75H152.076L150.896 245.79H144.256L143.076 248.75H141.176L146.536 235.41H148.596L153.976 248.75ZM150.396 244.31L147.576 237.13L144.736 244.31H150.396ZM159.49 248.75H157.85L153.83 239.09H155.45L158.67 247.01L161.87 239.09H163.51L159.49 248.75ZM169.434 248.99C167.994 248.99 166.814 248.523 165.894 247.59C164.974 246.643 164.514 245.417 164.514 243.91C164.514 242.497 164.968 241.303 165.874 240.33C166.781 239.343 167.914 238.85 169.274 238.85C170.701 238.85 171.828 239.343 172.654 240.33C173.494 241.303 173.914 242.537 173.914 244.03V244.41H166.094C166.161 245.357 166.508 246.15 167.134 246.79C167.761 247.43 168.574 247.75 169.574 247.75C170.774 247.75 171.768 247.343 172.554 246.53L173.274 247.51C172.288 248.497 171.008 248.99 169.434 248.99ZM172.434 243.31C172.421 242.483 172.141 241.743 171.594 241.09C171.048 240.423 170.268 240.09 169.254 240.09C168.294 240.09 167.534 240.417 166.974 241.07C166.428 241.723 166.134 242.47 166.094 243.31H172.434ZM177.844 248.75H176.344V239.09H177.844V240.65C178.737 239.477 179.81 238.89 181.064 238.89V240.43C180.877 240.39 180.677 240.37 180.464 240.37C180.01 240.37 179.517 240.53 178.984 240.85C178.45 241.17 178.07 241.523 177.844 241.91V248.75ZM190.485 248.75H188.985V247.65C188.172 248.543 187.105 248.99 185.785 248.99C184.892 248.99 184.105 248.703 183.425 248.13C182.745 247.557 182.405 246.777 182.405 245.79C182.405 244.777 182.739 243.997 183.405 243.45C184.085 242.89 184.879 242.61 185.785 242.61C187.159 242.61 188.225 243.05 188.985 243.93V242.19C188.985 241.55 188.759 241.05 188.305 240.69C187.852 240.33 187.265 240.15 186.545 240.15C185.412 240.15 184.425 240.597 183.585 241.49L182.885 240.45C183.912 239.383 185.199 238.85 186.745 238.85C187.852 238.85 188.752 239.117 189.445 239.65C190.139 240.183 190.485 241.003 190.485 242.11V248.75ZM186.325 247.91C187.525 247.91 188.412 247.51 188.985 246.71V244.89C188.412 244.09 187.525 243.69 186.325 243.69C185.632 243.69 185.059 243.89 184.605 244.29C184.165 244.677 183.945 245.183 183.945 245.81C183.945 246.423 184.165 246.93 184.605 247.33C185.059 247.717 185.632 247.91 186.325 247.91ZM197.372 252.67C196.519 252.67 195.792 252.563 195.192 252.35C194.592 252.15 194.019 251.777 193.472 251.23L194.232 250.11C194.966 250.99 196.012 251.43 197.372 251.43C198.266 251.43 199.006 251.19 199.592 250.71C200.179 250.243 200.472 249.517 200.472 248.53V247.15C200.112 247.657 199.646 248.07 199.072 248.39C198.499 248.71 197.886 248.87 197.232 248.87C195.952 248.87 194.912 248.423 194.112 247.53C193.326 246.623 192.932 245.403 192.932 243.87C192.932 242.337 193.326 241.117 194.112 240.21C194.912 239.303 195.952 238.85 197.232 238.85C198.552 238.85 199.632 239.417 200.472 240.55V239.09H201.972V248.47C201.972 249.95 201.539 251.017 200.672 251.67C199.806 252.337 198.706 252.67 197.372 252.67ZM197.592 247.55C198.166 247.55 198.719 247.397 199.252 247.09C199.799 246.783 200.206 246.41 200.472 245.97V241.75C200.206 241.31 199.806 240.943 199.272 240.65C198.739 240.343 198.179 240.19 197.592 240.19C196.632 240.19 195.872 240.53 195.312 241.21C194.766 241.89 194.492 242.777 194.492 243.87C194.492 244.95 194.772 245.837 195.332 246.53C195.892 247.21 196.646 247.55 197.592 247.55ZM209.337 248.99C207.897 248.99 206.717 248.523 205.797 247.59C204.877 246.643 204.417 245.417 204.417 243.91C204.417 242.497 204.87 241.303 205.777 240.33C206.683 239.343 207.817 238.85 209.177 238.85C210.603 238.85 211.73 239.343 212.557 240.33C213.397 241.303 213.817 242.537 213.817 244.03V244.41H205.997C206.063 245.357 206.41 246.15 207.037 246.79C207.663 247.43 208.477 247.75 209.477 247.75C210.677 247.75 211.67 247.343 212.457 246.53L213.177 247.51C212.19 248.497 210.91 248.99 209.337 248.99ZM212.337 243.31C212.323 242.483 212.043 241.743 211.497 241.09C210.95 240.423 210.17 240.09 209.157 240.09C208.197 240.09 207.437 240.417 206.877 241.07C206.33 241.723 206.037 242.47 205.997 243.31H212.337ZM229.902 248.75H228.402V247.31C227.576 248.43 226.489 248.99 225.142 248.99C223.862 248.99 222.822 248.537 222.022 247.63C221.236 246.71 220.842 245.477 220.842 243.93C220.842 242.397 221.236 241.17 222.022 240.25C222.822 239.317 223.862 238.85 225.142 238.85C226.476 238.85 227.562 239.417 228.402 240.55V235.41H229.902V248.75ZM225.502 247.65C226.089 247.65 226.649 247.503 227.182 247.21C227.716 246.917 228.122 246.557 228.402 246.13V241.75C228.122 241.31 227.709 240.943 227.162 240.65C226.629 240.343 226.076 240.19 225.502 240.19C224.556 240.19 223.802 240.543 223.242 241.25C222.682 241.943 222.402 242.837 222.402 243.93C222.402 245.023 222.682 245.917 223.242 246.61C223.802 247.303 224.556 247.65 225.502 247.65ZM237.266 248.99C235.826 248.99 234.646 248.523 233.726 247.59C232.806 246.643 232.346 245.417 232.346 243.91C232.346 242.497 232.8 241.303 233.706 240.33C234.613 239.343 235.746 238.85 237.106 238.85C238.533 238.85 239.66 239.343 240.486 240.33C241.326 241.303 241.746 242.537 241.746 244.03V244.41H233.926C233.993 245.357 234.34 246.15 234.966 246.79C235.593 247.43 236.406 247.75 237.406 247.75C238.606 247.75 239.6 247.343 240.386 246.53L241.106 247.51C240.12 248.497 238.84 248.99 237.266 248.99ZM240.266 243.31C240.253 242.483 239.973 241.743 239.426 241.09C238.88 240.423 238.1 240.09 237.086 240.09C236.126 240.09 235.366 240.417 234.806 241.07C234.26 241.723 233.966 242.47 233.926 243.31H240.266ZM248.396 248.75H246.756L242.736 239.09H244.356L247.576 247.01L250.776 239.09H252.416L248.396 248.75ZM258.34 248.99C256.9 248.99 255.72 248.523 254.8 247.59C253.88 246.643 253.42 245.417 253.42 243.91C253.42 242.497 253.874 241.303 254.78 240.33C255.687 239.343 256.82 238.85 258.18 238.85C259.607 238.85 260.734 239.343 261.56 240.33C262.4 241.303 262.82 242.537 262.82 244.03V244.41H255C255.067 245.357 255.414 246.15 256.04 246.79C256.667 247.43 257.48 247.75 258.48 247.75C259.68 247.75 260.674 247.343 261.46 246.53L262.18 247.51C261.194 248.497 259.914 248.99 258.34 248.99ZM261.34 243.31C261.327 242.483 261.047 241.743 260.5 241.09C259.954 240.423 259.174 240.09 258.16 240.09C257.2 240.09 256.44 240.417 255.88 241.07C255.334 241.723 255.04 242.47 255 243.31H261.34ZM266.75 248.75H265.25V235.41H266.75V248.75ZM277.422 247.53C276.556 248.503 275.402 248.99 273.962 248.99C272.522 248.99 271.362 248.503 270.482 247.53C269.616 246.557 269.182 245.35 269.182 243.91C269.182 242.47 269.616 241.27 270.482 240.31C271.362 239.337 272.522 238.85 273.962 238.85C275.402 238.85 276.556 239.337 277.422 240.31C278.302 241.27 278.742 242.47 278.742 243.91C278.742 245.35 278.302 246.557 277.422 247.53ZM271.602 246.57C272.189 247.29 272.976 247.65 273.962 247.65C274.949 247.65 275.729 247.29 276.302 246.57C276.876 245.837 277.162 244.95 277.162 243.91C277.162 242.87 276.876 241.99 276.302 241.27C275.729 240.55 274.949 240.19 273.962 240.19C272.976 240.19 272.189 240.557 271.602 241.29C271.029 242.01 270.742 242.883 270.742 243.91C270.742 244.95 271.029 245.837 271.602 246.57ZM285.948 248.99C284.588 248.99 283.501 248.423 282.688 247.29V252.43H281.188V239.09H282.688V240.53C283.048 240.023 283.514 239.617 284.088 239.31C284.661 239.003 285.281 238.85 285.948 238.85C287.228 238.85 288.261 239.31 289.048 240.23C289.848 241.137 290.247 242.363 290.247 243.91C290.247 245.457 289.848 246.69 289.048 247.61C288.261 248.53 287.228 248.99 285.948 248.99ZM285.567 247.65C286.514 247.65 287.268 247.303 287.828 246.61C288.388 245.903 288.668 245.003 288.668 243.91C288.668 242.817 288.388 241.923 287.828 241.23C287.268 240.537 286.514 240.19 285.567 240.19C284.994 240.19 284.434 240.343 283.888 240.65C283.354 240.943 282.954 241.303 282.688 241.73V246.09C282.954 246.53 283.354 246.903 283.888 247.21C284.434 247.503 284.994 247.65 285.567 247.65ZM296.993 248.99C295.553 248.99 294.373 248.523 293.453 247.59C292.533 246.643 292.073 245.417 292.073 243.91C292.073 242.497 292.526 241.303 293.433 240.33C294.339 239.343 295.473 238.85 296.833 238.85C298.259 238.85 299.386 239.343 300.213 240.33C301.053 241.303 301.473 242.537 301.473 244.03V244.41H293.653C293.719 245.357 294.066 246.15 294.693 246.79C295.319 247.43 296.133 247.75 297.133 247.75C298.333 247.75 299.326 247.343 300.113 246.53L300.833 247.51C299.846 248.497 298.566 248.99 296.993 248.99ZM299.993 243.31C299.979 242.483 299.699 241.743 299.153 241.09C298.606 240.423 297.826 240.09 296.813 240.09C295.853 240.09 295.093 240.417 294.533 241.07C293.986 241.723 293.693 242.47 293.653 243.31H299.993ZM305.402 248.75H303.902V239.09H305.402V240.65C306.296 239.477 307.369 238.89 308.622 238.89V240.43C308.436 240.39 308.236 240.37 308.022 240.37C307.569 240.37 307.076 240.53 306.542 240.85C306.009 241.17 305.629 241.523 305.402 241.91V248.75ZM139.358 282.53L139.598 281.17C139.838 281.277 140.112 281.33 140.418 281.33C140.765 281.33 141.052 281.257 141.278 281.11C141.505 280.963 141.698 280.697 141.858 280.31L142.498 278.85L138.458 269.09H140.078L143.298 277.01L146.498 269.09H148.138L143.298 280.71C142.765 281.99 141.818 282.643 140.458 282.67C140.058 282.67 139.692 282.623 139.358 282.53ZM154.063 278.99C152.623 278.99 151.443 278.523 150.523 277.59C149.603 276.643 149.143 275.417 149.143 273.91C149.143 272.497 149.596 271.303 150.503 270.33C151.41 269.343 152.543 268.85 153.903 268.85C155.33 268.85 156.456 269.343 157.283 270.33C158.123 271.303 158.543 272.537 158.543 274.03V274.41H150.723C150.79 275.357 151.136 276.15 151.763 276.79C152.39 277.43 153.203 277.75 154.203 277.75C155.403 277.75 156.396 277.343 157.183 276.53L157.903 277.51C156.916 278.497 155.636 278.99 154.063 278.99ZM157.063 273.31C157.05 272.483 156.77 271.743 156.223 271.09C155.676 270.423 154.896 270.09 153.883 270.09C152.923 270.09 152.163 270.417 151.603 271.07C151.056 271.723 150.763 272.47 150.723 273.31H157.063ZM168.513 278.75H167.013V277.65C166.199 278.543 165.133 278.99 163.813 278.99C162.919 278.99 162.133 278.703 161.453 278.13C160.773 277.557 160.433 276.777 160.433 275.79C160.433 274.777 160.766 273.997 161.433 273.45C162.113 272.89 162.906 272.61 163.813 272.61C165.186 272.61 166.253 273.05 167.013 273.93V272.19C167.013 271.55 166.786 271.05 166.333 270.69C165.879 270.33 165.293 270.15 164.573 270.15C163.439 270.15 162.453 270.597 161.613 271.49L160.913 270.45C161.939 269.383 163.226 268.85 164.773 268.85C165.879 268.85 166.779 269.117 167.473 269.65C168.166 270.183 168.513 271.003 168.513 272.11V278.75ZM164.353 277.91C165.553 277.91 166.439 277.51 167.013 276.71V274.89C166.439 274.09 165.553 273.69 164.353 273.69C163.659 273.69 163.086 273.89 162.633 274.29C162.193 274.677 161.973 275.183 161.973 275.81C161.973 276.423 162.193 276.93 162.633 277.33C163.086 277.717 163.659 277.91 164.353 277.91ZM173.02 278.75H171.52V269.09H173.02V270.65C173.913 269.477 174.986 268.89 176.24 268.89V270.43C176.053 270.39 175.853 270.37 175.64 270.37C175.186 270.37 174.693 270.53 174.16 270.85C173.626 271.17 173.246 271.523 173.02 271.91V278.75ZM181.181 278.99C179.541 278.99 178.241 278.483 177.281 277.47L178.061 276.39C178.394 276.777 178.848 277.103 179.421 277.37C180.008 277.637 180.614 277.77 181.241 277.77C181.961 277.77 182.521 277.617 182.921 277.31C183.321 277.003 183.521 276.603 183.521 276.11C183.521 275.683 183.314 275.35 182.901 275.11C182.488 274.857 181.988 274.67 181.401 274.55C180.828 274.417 180.248 274.27 179.661 274.11C179.074 273.937 178.574 273.65 178.161 273.25C177.748 272.837 177.541 272.297 177.541 271.63C177.541 270.843 177.861 270.183 178.501 269.65C179.154 269.117 180.034 268.85 181.141 268.85C182.594 268.85 183.788 269.317 184.721 270.25L184.021 271.29C183.341 270.477 182.381 270.07 181.141 270.07C180.488 270.07 179.968 270.217 179.581 270.51C179.194 270.79 179.001 271.15 179.001 271.59C179.001 271.977 179.208 272.283 179.621 272.51C180.034 272.723 180.528 272.897 181.101 273.03C181.688 273.15 182.274 273.297 182.861 273.47C183.448 273.643 183.948 273.95 184.361 274.39C184.774 274.817 184.981 275.377 184.981 276.07C184.981 276.923 184.648 277.623 183.981 278.17C183.314 278.717 182.381 278.99 181.181 278.99ZM200.254 277.53C199.388 278.503 198.234 278.99 196.794 278.99C195.354 278.99 194.194 278.503 193.314 277.53C192.448 276.557 192.014 275.35 192.014 273.91C192.014 272.47 192.448 271.27 193.314 270.31C194.194 269.337 195.354 268.85 196.794 268.85C198.234 268.85 199.388 269.337 200.254 270.31C201.134 271.27 201.574 272.47 201.574 273.91C201.574 275.35 201.134 276.557 200.254 277.53ZM194.434 276.57C195.021 277.29 195.808 277.65 196.794 277.65C197.781 277.65 198.561 277.29 199.134 276.57C199.708 275.837 199.994 274.95 199.994 273.91C199.994 272.87 199.708 271.99 199.134 271.27C198.561 270.55 197.781 270.19 196.794 270.19C195.808 270.19 195.021 270.557 194.434 271.29C193.861 272.01 193.574 272.883 193.574 273.91C193.574 274.95 193.861 275.837 194.434 276.57ZM205.94 278.75H204.44V270.41H202.84V269.09H204.44V268.35C204.44 267.363 204.686 266.597 205.18 266.05C205.686 265.49 206.373 265.21 207.24 265.21C208.066 265.21 208.746 265.457 209.28 265.95L208.66 266.93C208.3 266.61 207.9 266.45 207.46 266.45C206.966 266.45 206.586 266.617 206.32 266.95C206.066 267.27 205.94 267.737 205.94 268.35V269.09H207.9V270.41H205.94V278.75ZM219.2 278.99C217.76 278.99 216.58 278.523 215.66 277.59C214.74 276.643 214.28 275.417 214.28 273.91C214.28 272.497 214.733 271.303 215.64 270.33C216.547 269.343 217.68 268.85 219.04 268.85C220.467 268.85 221.593 269.343 222.42 270.33C223.26 271.303 223.68 272.537 223.68 274.03V274.41H215.86C215.927 275.357 216.273 276.15 216.9 276.79C217.527 277.43 218.34 277.75 219.34 277.75C220.54 277.75 221.533 277.343 222.32 276.53L223.04 277.51C222.053 278.497 220.773 278.99 219.2 278.99ZM222.2 273.31C222.187 272.483 221.907 271.743 221.36 271.09C220.813 270.423 220.033 270.09 219.02 270.09C218.06 270.09 217.3 270.417 216.74 271.07C216.193 271.723 215.9 272.47 215.86 273.31H222.2ZM234.109 278.75H232.369L229.469 274.79L226.569 278.75H224.849L228.549 273.79L225.049 269.09H226.789L229.469 272.77L232.149 269.09H233.889L230.389 273.79L234.109 278.75ZM240.596 278.99C239.236 278.99 238.149 278.423 237.336 277.29V282.43H235.836V269.09H237.336V270.53C237.696 270.023 238.163 269.617 238.736 269.31C239.309 269.003 239.929 268.85 240.596 268.85C241.876 268.85 242.909 269.31 243.696 270.23C244.496 271.137 244.896 272.363 244.896 273.91C244.896 275.457 244.496 276.69 243.696 277.61C242.909 278.53 241.876 278.99 240.596 278.99ZM240.216 277.65C241.163 277.65 241.916 277.303 242.476 276.61C243.036 275.903 243.316 275.003 243.316 273.91C243.316 272.817 243.036 271.923 242.476 271.23C241.916 270.537 241.163 270.19 240.216 270.19C239.643 270.19 239.083 270.343 238.536 270.65C238.003 270.943 237.603 271.303 237.336 271.73V276.09C237.603 276.53 238.003 276.903 238.536 277.21C239.083 277.503 239.643 277.65 240.216 277.65ZM251.641 278.99C250.201 278.99 249.021 278.523 248.101 277.59C247.181 276.643 246.721 275.417 246.721 273.91C246.721 272.497 247.175 271.303 248.081 270.33C248.988 269.343 250.121 268.85 251.481 268.85C252.908 268.85 254.035 269.343 254.861 270.33C255.701 271.303 256.121 272.537 256.121 274.03V274.41H248.301C248.368 275.357 248.715 276.15 249.341 276.79C249.968 277.43 250.781 277.75 251.781 277.75C252.981 277.75 253.975 277.343 254.761 276.53L255.481 277.51C254.495 278.497 253.215 278.99 251.641 278.99ZM254.641 273.31C254.628 272.483 254.348 271.743 253.801 271.09C253.255 270.423 252.475 270.09 251.461 270.09C250.501 270.09 249.741 270.417 249.181 271.07C248.635 271.723 248.341 272.47 248.301 273.31H254.641ZM260.051 278.75H258.551V269.09H260.051V270.65C260.944 269.477 262.017 268.89 263.271 268.89V270.43C263.084 270.39 262.884 270.37 262.671 270.37C262.217 270.37 261.724 270.53 261.191 270.85C260.657 271.17 260.277 271.523 260.051 271.91V278.75ZM265.892 267.71C265.626 267.71 265.392 267.617 265.192 267.43C264.992 267.23 264.892 266.99 264.892 266.71C264.892 266.43 264.992 266.19 265.192 265.99C265.392 265.79 265.626 265.69 265.892 265.69C266.172 265.69 266.412 265.79 266.612 265.99C266.812 266.19 266.912 266.43 266.912 266.71C266.912 266.99 266.812 267.23 266.612 267.43C266.412 267.617 266.172 267.71 265.892 267.71ZM266.652 278.75H265.152V269.09H266.652V278.75ZM274.005 278.99C272.565 278.99 271.385 278.523 270.465 277.59C269.545 276.643 269.085 275.417 269.085 273.91C269.085 272.497 269.538 271.303 270.445 270.33C271.351 269.343 272.485 268.85 273.845 268.85C275.271 268.85 276.398 269.343 277.225 270.33C278.065 271.303 278.485 272.537 278.485 274.03V274.41H270.665C270.731 275.357 271.078 276.15 271.705 276.79C272.331 277.43 273.145 277.75 274.145 277.75C275.345 277.75 276.338 277.343 277.125 276.53L277.845 277.51C276.858 278.497 275.578 278.99 274.005 278.99ZM277.005 273.31C276.991 272.483 276.711 271.743 276.165 271.09C275.618 270.423 274.838 270.09 273.825 270.09C272.865 270.09 272.105 270.417 271.545 271.07C270.998 271.723 270.705 272.47 270.665 273.31H277.005ZM288.934 278.75H287.434V272.43C287.434 271.617 287.247 271.043 286.874 270.71C286.501 270.363 285.967 270.19 285.274 270.19C284.714 270.19 284.167 270.337 283.634 270.63C283.114 270.923 282.707 271.277 282.414 271.69V278.75H280.914V269.09H282.414V270.49C282.787 270.05 283.287 269.67 283.914 269.35C284.541 269.017 285.187 268.85 285.854 268.85C287.907 268.85 288.934 269.89 288.934 271.97V278.75ZM296.19 278.99C294.763 278.99 293.603 278.51 292.71 277.55C291.816 276.577 291.37 275.363 291.37 273.91C291.37 272.457 291.816 271.25 292.71 270.29C293.603 269.33 294.763 268.85 296.19 268.85C297.683 268.85 298.863 269.41 299.73 270.53L298.73 271.45C298.116 270.61 297.296 270.19 296.27 270.19C295.256 270.19 294.443 270.537 293.83 271.23C293.23 271.923 292.93 272.817 292.93 273.91C292.93 275.003 293.23 275.903 293.83 276.61C294.443 277.303 295.256 277.65 296.27 277.65C297.283 277.65 298.103 277.23 298.73 276.39L299.73 277.31C298.863 278.43 297.683 278.99 296.19 278.99ZM306.192 278.99C304.752 278.99 303.572 278.523 302.652 277.59C301.732 276.643 301.272 275.417 301.272 273.91C301.272 272.497 301.725 271.303 302.632 270.33C303.539 269.343 304.672 268.85 306.032 268.85C307.459 268.85 308.585 269.343 309.412 270.33C310.252 271.303 310.672 272.537 310.672 274.03V274.41H302.852C302.919 275.357 303.265 276.15 303.892 276.79C304.519 277.43 305.332 277.75 306.332 277.75C307.532 277.75 308.525 277.343 309.312 276.53L310.032 277.51C309.045 278.497 307.765 278.99 306.192 278.99ZM309.192 273.31C309.179 272.483 308.899 271.743 308.352 271.09C307.805 270.423 307.025 270.09 306.012 270.09C305.052 270.09 304.292 270.417 303.732 271.07C303.185 271.723 302.892 272.47 302.852 273.31H309.192Z" fill="white"/>
<path d="M570.752 197.75H541.464V190.246C549.752 184.273 555.016 180.241 557.256 178.15C559.533 176.059 560.672 174.099 560.672 172.27C560.672 171.038 560.168 170.086 559.16 169.414C558.189 168.705 556.976 168.35 555.52 168.35C551.787 168.35 548.464 169.713 545.552 172.438L540.232 166.054C542.136 163.963 544.432 162.414 547.12 161.406C549.808 160.361 552.552 159.838 555.352 159.838C559.795 159.838 563.416 160.977 566.216 163.254C569.053 165.531 570.472 168.537 570.472 172.27C570.472 175.07 569.427 177.795 567.336 180.446C565.245 183.097 561.829 186.065 557.088 189.35H570.752V197.75ZM597.544 196.798C595.49 197.881 593.138 198.422 590.488 198.422C587.837 198.422 585.466 197.881 583.376 196.798C581.322 195.715 579.642 194.259 578.336 192.43C577.066 190.601 576.096 188.566 575.424 186.326C574.789 184.049 574.472 181.641 574.472 179.102C574.472 175.667 575.032 172.531 576.152 169.694C577.272 166.857 579.064 164.505 581.528 162.638C584.029 160.771 587.016 159.838 590.488 159.838C593.96 159.838 596.928 160.771 599.392 162.638C601.893 164.505 603.704 166.857 604.824 169.694C605.944 172.531 606.504 175.667 606.504 179.102C606.504 181.641 606.168 184.049 605.496 186.326C604.861 188.566 603.89 190.601 602.584 192.43C601.314 194.259 599.634 195.715 597.544 196.798ZM584.216 179.102C584.216 186.307 586.306 189.91 590.488 189.91C594.669 189.91 596.76 186.307 596.76 179.102C596.76 171.934 594.669 168.35 590.488 168.35C586.306 168.35 584.216 171.934 584.216 179.102ZM632.489 196.798C630.436 197.881 628.084 198.422 625.433 198.422C622.782 198.422 620.412 197.881 618.321 196.798C616.268 195.715 614.588 194.259 613.281 192.43C612.012 190.601 611.041 188.566 610.369 186.326C609.734 184.049 609.417 181.641 609.417 179.102C609.417 175.667 609.977 172.531 611.097 169.694C612.217 166.857 614.009 164.505 616.473 162.638C618.974 160.771 621.961 159.838 625.433 159.838C628.905 159.838 631.873 160.771 634.337 162.638C636.838 164.505 638.649 166.857 639.769 169.694C640.889 172.531 641.449 175.667 641.449 179.102C641.449 181.641 641.113 184.049 640.441 186.326C639.806 188.566 638.836 190.601 637.529 192.43C636.26 194.259 634.58 195.715 632.489 196.798ZM619.161 179.102C619.161 186.307 621.252 189.91 625.433 189.91C629.614 189.91 631.705 186.307 631.705 179.102C631.705 171.934 629.614 168.35 625.433 168.35C621.252 168.35 619.161 171.934 619.161 179.102ZM667.434 196.798C665.381 197.881 663.029 198.422 660.378 198.422C657.728 198.422 655.357 197.881 653.266 196.798C651.213 195.715 649.533 194.259 648.226 192.43C646.957 190.601 645.986 188.566 645.314 186.326C644.68 184.049 644.362 181.641 644.362 179.102C644.362 175.667 644.922 172.531 646.042 169.694C647.162 166.857 648.954 164.505 651.418 162.638C653.92 160.771 656.906 159.838 660.378 159.838C663.85 159.838 666.818 160.771 669.282 162.638C671.784 164.505 673.594 166.857 674.714 169.694C675.834 172.531 676.394 175.667 676.394 179.102C676.394 181.641 676.058 184.049 675.386 186.326C674.752 188.566 673.781 190.601 672.474 192.43C671.205 194.259 669.525 195.715 667.434 196.798ZM654.106 179.102C654.106 186.307 656.197 189.91 660.378 189.91C664.56 189.91 666.65 186.307 666.65 179.102C666.65 171.934 664.56 168.35 660.378 168.35C656.197 168.35 654.106 171.934 654.106 179.102ZM704.62 181.454H694.876V192.542H689.22V181.454H679.476V176.302H689.22V165.606H694.876V176.302H704.62V181.454Z" fill="white"/>
<path d="M578.671 248.75H574.111V235.41H578.671C580.711 235.41 582.357 236.043 583.611 237.31C584.877 238.577 585.511 240.17 585.511 242.09C585.511 244.023 584.877 245.617 583.611 246.87C582.357 248.123 580.711 248.75 578.671 248.75ZM578.671 247.27C580.244 247.27 581.491 246.777 582.411 245.79C583.331 244.803 583.791 243.57 583.791 242.09C583.791 240.597 583.337 239.357 582.431 238.37C581.524 237.383 580.271 236.89 578.671 236.89H575.771V247.27H578.671ZM592.415 248.99C590.975 248.99 589.795 248.523 588.875 247.59C587.955 246.643 587.495 245.417 587.495 243.91C587.495 242.497 587.948 241.303 588.855 240.33C589.761 239.343 590.895 238.85 592.255 238.85C593.681 238.85 594.808 239.343 595.635 240.33C596.475 241.303 596.895 242.537 596.895 244.03V244.41H589.075C589.141 245.357 589.488 246.15 590.115 246.79C590.741 247.43 591.555 247.75 592.555 247.75C593.755 247.75 594.748 247.343 595.535 246.53L596.255 247.51C595.268 248.497 593.988 248.99 592.415 248.99ZM595.415 243.31C595.401 242.483 595.121 241.743 594.575 241.09C594.028 240.423 593.248 240.09 592.235 240.09C591.275 240.09 590.515 240.417 589.955 241.07C589.408 241.723 589.115 242.47 589.075 243.31H595.415ZM603.544 248.75H601.904L597.884 239.09H599.504L602.724 247.01L605.924 239.09H607.564L603.544 248.75ZM613.489 248.99C612.049 248.99 610.869 248.523 609.949 247.59C609.029 246.643 608.569 245.417 608.569 243.91C608.569 242.497 609.022 241.303 609.929 240.33C610.836 239.343 611.969 238.85 613.329 238.85C614.756 238.85 615.882 239.343 616.709 240.33C617.549 241.303 617.969 242.537 617.969 244.03V244.41H610.149C610.216 245.357 610.562 246.15 611.189 246.79C611.816 247.43 612.629 247.75 613.629 247.75C614.829 247.75 615.822 247.343 616.609 246.53L617.329 247.51C616.342 248.497 615.062 248.99 613.489 248.99ZM616.489 243.31C616.476 242.483 616.196 241.743 615.649 241.09C615.102 240.423 614.322 240.09 613.309 240.09C612.349 240.09 611.589 240.417 611.029 241.07C610.482 241.723 610.189 242.47 610.149 243.31H616.489ZM621.898 248.75H620.398V235.41H621.898V248.75ZM632.571 247.53C631.704 248.503 630.551 248.99 629.111 248.99C627.671 248.99 626.511 248.503 625.631 247.53C624.764 246.557 624.331 245.35 624.331 243.91C624.331 242.47 624.764 241.27 625.631 240.31C626.511 239.337 627.671 238.85 629.111 238.85C630.551 238.85 631.704 239.337 632.571 240.31C633.451 241.27 633.891 242.47 633.891 243.91C633.891 245.35 633.451 246.557 632.571 247.53ZM626.751 246.57C627.337 247.29 628.124 247.65 629.111 247.65C630.097 247.65 630.877 247.29 631.451 246.57C632.024 245.837 632.311 244.95 632.311 243.91C632.311 242.87 632.024 241.99 631.451 241.27C630.877 240.55 630.097 240.19 629.111 240.19C628.124 240.19 627.337 240.557 626.751 241.29C626.177 242.01 625.891 242.883 625.891 243.91C625.891 244.95 626.177 245.837 626.751 246.57ZM641.096 248.99C639.736 248.99 638.649 248.423 637.836 247.29V252.43H636.336V239.09H637.836V240.53C638.196 240.023 638.663 239.617 639.236 239.31C639.809 239.003 640.429 238.85 641.096 238.85C642.376 238.85 643.409 239.31 644.196 240.23C644.996 241.137 645.396 242.363 645.396 243.91C645.396 245.457 644.996 246.69 644.196 247.61C643.409 248.53 642.376 248.99 641.096 248.99ZM640.716 247.65C641.663 247.65 642.416 247.303 642.976 246.61C643.536 245.903 643.816 245.003 643.816 243.91C643.816 242.817 643.536 241.923 642.976 241.23C642.416 240.537 641.663 240.19 640.716 240.19C640.143 240.19 639.583 240.343 639.036 240.65C638.503 240.943 638.103 241.303 637.836 241.73V246.09C638.103 246.53 638.503 246.903 639.036 247.21C639.583 247.503 640.143 247.65 640.716 247.65ZM652.141 248.99C650.701 248.99 649.521 248.523 648.601 247.59C647.681 246.643 647.221 245.417 647.221 243.91C647.221 242.497 647.675 241.303 648.581 240.33C649.488 239.343 650.621 238.85 651.981 238.85C653.408 238.85 654.535 239.343 655.361 240.33C656.201 241.303 656.621 242.537 656.621 244.03V244.41H648.801C648.868 245.357 649.215 246.15 649.841 246.79C650.468 247.43 651.281 247.75 652.281 247.75C653.481 247.75 654.475 247.343 655.261 246.53L655.981 247.51C654.995 248.497 653.715 248.99 652.141 248.99ZM655.141 243.31C655.128 242.483 654.848 241.743 654.301 241.09C653.755 240.423 652.975 240.09 651.961 240.09C651.001 240.09 650.241 240.417 649.681 241.07C649.135 241.723 648.841 242.47 648.801 243.31H655.141ZM660.551 248.75H659.051V239.09H660.551V240.65C661.444 239.477 662.517 238.89 663.771 238.89V240.43C663.584 240.39 663.384 240.37 663.171 240.37C662.717 240.37 662.224 240.53 661.691 240.85C661.157 241.17 660.777 241.523 660.551 241.91V248.75ZM668.712 248.99C667.072 248.99 665.772 248.483 664.812 247.47L665.592 246.39C665.926 246.777 666.379 247.103 666.952 247.37C667.539 247.637 668.146 247.77 668.772 247.77C669.492 247.77 670.052 247.617 670.452 247.31C670.852 247.003 671.052 246.603 671.052 246.11C671.052 245.683 670.846 245.35 670.432 245.11C670.019 244.857 669.519 244.67 668.932 244.55C668.359 244.417 667.779 244.27 667.192 244.11C666.606 243.937 666.106 243.65 665.692 243.25C665.279 242.837 665.072 242.297 665.072 241.63C665.072 240.843 665.392 240.183 666.032 239.65C666.686 239.117 667.566 238.85 668.672 238.85C670.126 238.85 671.319 239.317 672.252 240.25L671.552 241.29C670.872 240.477 669.912 240.07 668.672 240.07C668.019 240.07 667.499 240.217 667.112 240.51C666.726 240.79 666.532 241.15 666.532 241.59C666.532 241.977 666.739 242.283 667.152 242.51C667.566 242.723 668.059 242.897 668.632 243.03C669.219 243.15 669.806 243.297 670.392 243.47C670.979 243.643 671.479 243.95 671.892 244.39C672.306 244.817 672.512 245.377 672.512 246.07C672.512 246.923 672.179 247.623 671.512 248.17C670.846 248.717 669.912 248.99 668.712 248.99ZM597.638 278.99C595.998 278.99 594.698 278.483 593.738 277.47L594.518 276.39C594.851 276.777 595.305 277.103 595.878 277.37C596.465 277.637 597.071 277.77 597.698 277.77C598.418 277.77 598.978 277.617 599.378 277.31C599.778 277.003 599.978 276.603 599.978 276.11C599.978 275.683 599.771 275.35 599.358 275.11C598.945 274.857 598.445 274.67 597.858 274.55C597.285 274.417 596.705 274.27 596.118 274.11C595.531 273.937 595.031 273.65 594.618 273.25C594.205 272.837 593.998 272.297 593.998 271.63C593.998 270.843 594.318 270.183 594.958 269.65C595.611 269.117 596.491 268.85 597.598 268.85C599.051 268.85 600.245 269.317 601.178 270.25L600.478 271.29C599.798 270.477 598.838 270.07 597.598 270.07C596.945 270.07 596.425 270.217 596.038 270.51C595.651 270.79 595.458 271.15 595.458 271.59C595.458 271.977 595.665 272.283 596.078 272.51C596.491 272.723 596.985 272.897 597.558 273.03C598.145 273.15 598.731 273.297 599.318 273.47C599.905 273.643 600.405 273.95 600.818 274.39C601.231 274.817 601.438 275.377 601.438 276.07C601.438 276.923 601.105 277.623 600.438 278.17C599.771 278.717 598.838 278.99 597.638 278.99ZM606.315 278.99C605.608 278.99 605.075 278.797 604.715 278.41C604.355 278.023 604.175 277.463 604.175 276.73V270.41H602.575V269.09H604.175V266.45H605.675V269.09H607.635V270.41H605.675V276.41C605.675 276.783 605.755 277.083 605.915 277.31C606.088 277.537 606.335 277.65 606.655 277.65C607.095 277.65 607.435 277.517 607.675 277.25L608.115 278.37C607.675 278.783 607.075 278.99 606.315 278.99ZM617.294 278.75H615.794V277.65C614.981 278.543 613.914 278.99 612.594 278.99C611.701 278.99 610.914 278.703 610.234 278.13C609.554 277.557 609.214 276.777 609.214 275.79C609.214 274.777 609.547 273.997 610.214 273.45C610.894 272.89 611.687 272.61 612.594 272.61C613.967 272.61 615.034 273.05 615.794 273.93V272.19C615.794 271.55 615.567 271.05 615.114 270.69C614.661 270.33 614.074 270.15 613.354 270.15C612.221 270.15 611.234 270.597 610.394 271.49L609.694 270.45C610.721 269.383 612.007 268.85 613.554 268.85C614.661 268.85 615.561 269.117 616.254 269.65C616.947 270.183 617.294 271.003 617.294 272.11V278.75ZM613.134 277.91C614.334 277.91 615.221 277.51 615.794 276.71V274.89C615.221 274.09 614.334 273.69 613.134 273.69C612.441 273.69 611.867 273.89 611.414 274.29C610.974 274.677 610.754 275.183 610.754 275.81C610.754 276.423 610.974 276.93 611.414 277.33C611.867 277.717 612.441 277.91 613.134 277.91ZM622.221 278.75H620.721V270.41H619.121V269.09H620.721V268.35C620.721 267.363 620.967 266.597 621.461 266.05C621.967 265.49 622.654 265.21 623.521 265.21C624.347 265.21 625.027 265.457 625.561 265.95L624.941 266.93C624.581 266.61 624.181 266.45 623.741 266.45C623.247 266.45 622.867 266.617 622.601 266.95C622.347 267.27 622.221 267.737 622.221 268.35V269.09H624.181V270.41H622.221V278.75ZM627.881 278.75H626.381V270.41H624.781V269.09H626.381V268.35C626.381 267.363 626.627 266.597 627.121 266.05C627.627 265.49 628.314 265.21 629.181 265.21C630.007 265.21 630.687 265.457 631.221 265.95L630.601 266.93C630.241 266.61 629.841 266.45 629.401 266.45C628.907 266.45 628.527 266.617 628.261 266.95C628.007 267.27 627.881 267.737 627.881 268.35V269.09H629.841V270.41H627.881V278.75ZM636.008 278.99C634.568 278.99 633.388 278.523 632.468 277.59C631.548 276.643 631.088 275.417 631.088 273.91C631.088 272.497 631.542 271.303 632.448 270.33C633.355 269.343 634.488 268.85 635.848 268.85C637.275 268.85 638.402 269.343 639.228 270.33C640.068 271.303 640.488 272.537 640.488 274.03V274.41H632.668C632.735 275.357 633.082 276.15 633.708 276.79C634.335 277.43 635.148 277.75 636.148 277.75C637.348 277.75 638.342 277.343 639.128 276.53L639.848 277.51C638.862 278.497 637.582 278.99 636.008 278.99ZM639.008 273.31C638.995 272.483 638.715 271.743 638.168 271.09C637.622 270.423 636.842 270.09 635.828 270.09C634.868 270.09 634.108 270.417 633.548 271.07C633.002 271.723 632.708 272.47 632.668 273.31H639.008ZM651.418 278.75H649.918V277.31C649.091 278.43 648.005 278.99 646.658 278.99C645.378 278.99 644.338 278.537 643.538 277.63C642.751 276.71 642.358 275.477 642.358 273.93C642.358 272.397 642.751 271.17 643.538 270.25C644.338 269.317 645.378 268.85 646.658 268.85C647.991 268.85 649.078 269.417 649.918 270.55V265.41H651.418V278.75ZM647.018 277.65C647.605 277.65 648.165 277.503 648.698 277.21C649.231 276.917 649.638 276.557 649.918 276.13V271.75C649.638 271.31 649.225 270.943 648.678 270.65C648.145 270.343 647.591 270.19 647.018 270.19C646.071 270.19 645.318 270.543 644.758 271.25C644.198 271.943 643.918 272.837 643.918 273.93C643.918 275.023 644.198 275.917 644.758 276.61C645.318 277.303 646.071 277.65 647.018 277.65Z" fill="white"/>
<path d="M996.672 197.75H987.04V172.718L980.768 179.046L975.28 173.278L988.328 160.398H996.672V197.75ZM1025.25 197.75H1003.41V160.398H1024.57C1028.05 160.398 1030.73 161.35 1032.64 163.254C1034.54 165.121 1035.49 167.342 1035.49 169.918C1035.49 172.158 1034.88 174.043 1033.65 175.574C1032.45 177.105 1030.94 178.075 1029.11 178.486C1031.13 178.785 1032.81 179.811 1034.15 181.566C1035.53 183.283 1036.22 185.299 1036.22 187.614C1036.22 190.489 1035.27 192.897 1033.37 194.838C1031.46 196.779 1028.76 197.75 1025.25 197.75ZM1022.39 174.734C1023.36 174.734 1024.15 174.454 1024.74 173.894C1025.38 173.297 1025.69 172.531 1025.69 171.598C1025.69 170.702 1025.38 169.974 1024.74 169.414C1024.15 168.817 1023.36 168.518 1022.39 168.518H1013.04V174.734H1022.39ZM1022.73 189.63C1023.88 189.63 1024.78 189.331 1025.41 188.734C1026.09 188.099 1026.42 187.278 1026.42 186.27C1026.42 185.299 1026.09 184.497 1025.41 183.862C1024.78 183.227 1023.88 182.91 1022.73 182.91H1013.04V189.63H1022.73ZM1064.88 181.454H1055.13V192.542H1049.48V181.454H1039.73V176.302H1049.48V165.606H1055.13V176.302H1064.88V181.454Z" fill="white"/>
<path d="M937.86 247.55C936.94 248.51 935.594 248.99 933.82 248.99C932.047 248.99 930.694 248.51 929.76 247.55C928.84 246.577 928.38 245.25 928.38 243.57V235.41H930.04V243.53C930.04 244.77 930.367 245.743 931.02 246.45C931.674 247.157 932.607 247.51 933.82 247.51C935.034 247.51 935.967 247.157 936.62 246.45C937.274 245.743 937.6 244.77 937.6 243.53V235.41H939.26V243.55C939.26 245.243 938.794 246.577 937.86 247.55ZM945.384 248.99C943.744 248.99 942.444 248.483 941.484 247.47L942.264 246.39C942.598 246.777 943.051 247.103 943.624 247.37C944.211 247.637 944.818 247.77 945.444 247.77C946.164 247.77 946.724 247.617 947.124 247.31C947.524 247.003 947.724 246.603 947.724 246.11C947.724 245.683 947.518 245.35 947.104 245.11C946.691 244.857 946.191 244.67 945.604 244.55C945.031 244.417 944.451 244.27 943.864 244.11C943.278 243.937 942.778 243.65 942.364 243.25C941.951 242.837 941.744 242.297 941.744 241.63C941.744 240.843 942.064 240.183 942.704 239.65C943.358 239.117 944.238 238.85 945.344 238.85C946.798 238.85 947.991 239.317 948.924 240.25L948.224 241.29C947.544 240.477 946.584 240.07 945.344 240.07C944.691 240.07 944.171 240.217 943.784 240.51C943.398 240.79 943.204 241.15 943.204 241.59C943.204 241.977 943.411 242.283 943.824 242.51C944.238 242.723 944.731 242.897 945.304 243.03C945.891 243.15 946.478 243.297 947.064 243.47C947.651 243.643 948.151 243.95 948.564 244.39C948.978 244.817 949.184 245.377 949.184 246.07C949.184 246.923 948.851 247.623 948.184 248.17C947.518 248.717 946.584 248.99 945.384 248.99ZM955.981 248.99C954.541 248.99 953.361 248.523 952.441 247.59C951.521 246.643 951.061 245.417 951.061 243.91C951.061 242.497 951.514 241.303 952.421 240.33C953.328 239.343 954.461 238.85 955.821 238.85C957.248 238.85 958.374 239.343 959.201 240.33C960.041 241.303 960.461 242.537 960.461 244.03V244.41H952.641C952.708 245.357 953.054 246.15 953.681 246.79C954.308 247.43 955.121 247.75 956.121 247.75C957.321 247.75 958.314 247.343 959.101 246.53L959.821 247.51C958.834 248.497 957.554 248.99 955.981 248.99ZM958.981 243.31C958.968 242.483 958.688 241.743 958.141 241.09C957.594 240.423 956.814 240.09 955.801 240.09C954.841 240.09 954.081 240.417 953.521 241.07C952.974 241.723 952.681 242.47 952.641 243.31H958.981ZM964.391 248.75H962.891V239.09H964.391V240.65C965.284 239.477 966.357 238.89 967.611 238.89V240.43C967.424 240.39 967.224 240.37 967.011 240.37C966.557 240.37 966.064 240.53 965.531 240.85C964.997 241.17 964.617 241.523 964.391 241.91V248.75ZM972.552 248.99C970.912 248.99 969.612 248.483 968.652 247.47L969.432 246.39C969.766 246.777 970.219 247.103 970.792 247.37C971.379 247.637 971.986 247.77 972.612 247.77C973.332 247.77 973.892 247.617 974.292 247.31C974.692 247.003 974.892 246.603 974.892 246.11C974.892 245.683 974.686 245.35 974.272 245.11C973.859 244.857 973.359 244.67 972.772 244.55C972.199 244.417 971.619 244.27 971.032 244.11C970.446 243.937 969.946 243.65 969.532 243.25C969.119 242.837 968.912 242.297 968.912 241.63C968.912 240.843 969.232 240.183 969.872 239.65C970.526 239.117 971.406 238.85 972.512 238.85C973.966 238.85 975.159 239.317 976.092 240.25L975.392 241.29C974.712 240.477 973.752 240.07 972.512 240.07C971.859 240.07 971.339 240.217 970.952 240.51C970.566 240.79 970.372 241.15 970.372 241.59C970.372 241.977 970.579 242.283 970.992 242.51C971.406 242.723 971.899 242.897 972.472 243.03C973.059 243.15 973.646 243.297 974.232 243.47C974.819 243.643 975.319 243.95 975.732 244.39C976.146 244.817 976.352 245.377 976.352 246.07C976.352 246.923 976.019 247.623 975.352 248.17C974.686 248.717 973.752 248.99 972.552 248.99ZM986.385 248.99C985.679 248.99 985.145 248.797 984.785 248.41C984.425 248.023 984.245 247.463 984.245 246.73V240.41H982.645V239.09H984.245V236.45H985.745V239.09H987.705V240.41H985.745V246.41C985.745 246.783 985.825 247.083 985.985 247.31C986.159 247.537 986.405 247.65 986.725 247.65C987.165 247.65 987.505 247.517 987.745 247.25L988.185 248.37C987.745 248.783 987.145 248.99 986.385 248.99ZM997.504 247.53C996.638 248.503 995.484 248.99 994.044 248.99C992.604 248.99 991.444 248.503 990.564 247.53C989.698 246.557 989.264 245.35 989.264 243.91C989.264 242.47 989.698 241.27 990.564 240.31C991.444 239.337 992.604 238.85 994.044 238.85C995.484 238.85 996.638 239.337 997.504 240.31C998.384 241.27 998.824 242.47 998.824 243.91C998.824 245.35 998.384 246.557 997.504 247.53ZM991.684 246.57C992.271 247.29 993.058 247.65 994.044 247.65C995.031 247.65 995.811 247.29 996.384 246.57C996.958 245.837 997.244 244.95 997.244 243.91C997.244 242.87 996.958 241.99 996.384 241.27C995.811 240.55 995.031 240.19 994.044 240.19C993.058 240.19 992.271 240.557 991.684 241.29C991.111 242.01 990.824 242.883 990.824 243.91C990.824 244.95 991.111 245.837 991.684 246.57ZM1009.29 248.75H1007.79V247.39C1007.39 247.843 1006.88 248.223 1006.27 248.53C1005.67 248.837 1005.03 248.99 1004.35 248.99C1002.3 248.99 1001.27 247.963 1001.27 245.91V239.09H1002.77V245.45C1002.77 246.25 1002.95 246.817 1003.31 247.15C1003.68 247.483 1004.22 247.65 1004.93 247.65C1005.49 247.65 1006.03 247.51 1006.55 247.23C1007.08 246.95 1007.5 246.603 1007.79 246.19V239.09H1009.29V248.75ZM1016.55 248.99C1015.12 248.99 1013.96 248.51 1013.07 247.55C1012.17 246.577 1011.73 245.363 1011.73 243.91C1011.73 242.457 1012.17 241.25 1013.07 240.29C1013.96 239.33 1015.12 238.85 1016.55 238.85C1018.04 238.85 1019.22 239.41 1020.09 240.53L1019.09 241.45C1018.47 240.61 1017.65 240.19 1016.63 240.19C1015.61 240.19 1014.8 240.537 1014.19 241.23C1013.59 241.923 1013.29 242.817 1013.29 243.91C1013.29 245.003 1013.59 245.903 1014.19 246.61C1014.8 247.303 1015.61 247.65 1016.63 247.65C1017.64 247.65 1018.46 247.23 1019.09 246.39L1020.09 247.31C1019.22 248.43 1018.04 248.99 1016.55 248.99ZM1030.23 248.75H1028.73V242.39C1028.73 241.59 1028.54 241.023 1028.17 240.69C1027.79 240.357 1027.25 240.19 1026.55 240.19C1026 240.19 1025.46 240.337 1024.93 240.63C1024.41 240.923 1023.99 241.277 1023.69 241.69V248.75H1022.19V235.41H1023.69V240.49C1024.06 240.05 1024.56 239.67 1025.19 239.35C1025.81 239.017 1026.47 238.85 1027.15 238.85C1029.2 238.85 1030.23 239.877 1030.23 241.93V248.75ZM1037.58 248.99C1036.14 248.99 1034.96 248.523 1034.04 247.59C1033.12 246.643 1032.66 245.417 1032.66 243.91C1032.66 242.497 1033.12 241.303 1034.02 240.33C1034.93 239.343 1036.06 238.85 1037.42 238.85C1038.85 238.85 1039.98 239.343 1040.8 240.33C1041.64 241.303 1042.06 242.537 1042.06 244.03V244.41H1034.24C1034.31 245.357 1034.66 246.15 1035.28 246.79C1035.91 247.43 1036.72 247.75 1037.72 247.75C1038.92 247.75 1039.92 247.343 1040.7 246.53L1041.42 247.51C1040.44 248.497 1039.16 248.99 1037.58 248.99ZM1040.58 243.31C1040.57 242.483 1040.29 241.743 1039.74 241.09C1039.2 240.423 1038.42 240.09 1037.4 240.09C1036.44 240.09 1035.68 240.417 1035.12 241.07C1034.58 241.723 1034.28 242.47 1034.24 243.31H1040.58ZM1052.99 248.75H1051.49V247.31C1050.67 248.43 1049.58 248.99 1048.23 248.99C1046.95 248.99 1045.91 248.537 1045.11 247.63C1044.33 246.71 1043.93 245.477 1043.93 243.93C1043.93 242.397 1044.33 241.17 1045.11 240.25C1045.91 239.317 1046.95 238.85 1048.23 238.85C1049.57 238.85 1050.65 239.417 1051.49 240.55V235.41H1052.99V248.75ZM1048.59 247.65C1049.18 247.65 1049.74 247.503 1050.27 247.21C1050.81 246.917 1051.21 246.557 1051.49 246.13V241.75C1051.21 241.31 1050.8 240.943 1050.25 240.65C1049.72 240.343 1049.17 240.19 1048.59 240.19C1047.65 240.19 1046.89 240.543 1046.33 241.25C1045.77 241.943 1045.49 242.837 1045.49 243.93C1045.49 245.023 1045.77 245.917 1046.33 246.61C1046.89 247.303 1047.65 247.65 1048.59 247.65ZM1062.65 246.13C1062.92 246.557 1063.32 246.917 1063.85 247.21C1064.4 247.503 1064.96 247.65 1065.53 247.65C1066.49 247.65 1067.25 247.303 1067.81 246.61C1068.37 245.917 1068.65 245.023 1068.65 243.93C1068.65 242.837 1068.37 241.943 1067.81 241.25C1067.25 240.543 1066.49 240.19 1065.53 240.19C1064.96 240.19 1064.4 240.343 1063.85 240.65C1063.32 240.943 1062.92 241.31 1062.65 241.75V246.13ZM1062.65 248.75H1061.15V235.41H1062.65V240.55C1063.49 239.417 1064.58 238.85 1065.91 238.85C1067.18 238.85 1068.21 239.317 1069.01 240.25C1069.81 241.17 1070.21 242.397 1070.21 243.93C1070.21 245.477 1069.81 246.71 1069.01 247.63C1068.23 248.537 1067.19 248.99 1065.91 248.99C1064.57 248.99 1063.48 248.43 1062.65 247.31V248.75ZM1072.12 252.53L1072.36 251.17C1072.6 251.277 1072.87 251.33 1073.18 251.33C1073.52 251.33 1073.81 251.257 1074.04 251.11C1074.26 250.963 1074.46 250.697 1074.62 250.31L1075.26 248.85L1071.22 239.09H1072.84L1076.06 247.01L1079.26 239.09H1080.9L1076.06 250.71C1075.52 251.99 1074.58 252.643 1073.22 252.67C1072.82 252.67 1072.45 252.623 1072.12 252.53ZM1095.3 247.53C1094.43 248.503 1093.28 248.99 1091.84 248.99C1090.4 248.99 1089.24 248.503 1088.36 247.53C1087.49 246.557 1087.06 245.35 1087.06 243.91C1087.06 242.47 1087.49 241.27 1088.36 240.31C1089.24 239.337 1090.4 238.85 1091.84 238.85C1093.28 238.85 1094.43 239.337 1095.3 240.31C1096.18 241.27 1096.62 242.47 1096.62 243.91C1096.62 245.35 1096.18 246.557 1095.3 247.53ZM1089.48 246.57C1090.06 247.29 1090.85 247.65 1091.84 247.65C1092.82 247.65 1093.6 247.29 1094.18 246.57C1094.75 245.837 1095.04 244.95 1095.04 243.91C1095.04 242.87 1094.75 241.99 1094.18 241.27C1093.6 240.55 1092.82 240.19 1091.84 240.19C1090.85 240.19 1090.06 240.557 1089.48 241.29C1088.9 242.01 1088.62 242.883 1088.62 243.91C1088.62 244.95 1088.9 245.837 1089.48 246.57ZM1107.08 248.75H1105.58V247.39C1105.18 247.843 1104.68 248.223 1104.06 248.53C1103.46 248.837 1102.82 248.99 1102.14 248.99C1100.09 248.99 1099.06 247.963 1099.06 245.91V239.09H1100.56V245.45C1100.56 246.25 1100.74 246.817 1101.1 247.15C1101.48 247.483 1102.02 247.65 1102.72 247.65C1103.28 247.65 1103.82 247.51 1104.34 247.23C1104.88 246.95 1105.29 246.603 1105.58 246.19V239.09H1107.08V248.75ZM1111.58 248.75H1110.08V239.09H1111.58V240.65C1112.47 239.477 1113.54 238.89 1114.8 238.89V240.43C1114.61 240.39 1114.41 240.37 1114.2 240.37C1113.74 240.37 1113.25 240.53 1112.72 240.85C1112.18 241.17 1111.8 241.523 1111.58 241.91V248.75ZM965.49 278.99C964.064 278.99 962.904 278.51 962.01 277.55C961.117 276.577 960.67 275.363 960.67 273.91C960.67 272.457 961.117 271.25 962.01 270.29C962.904 269.33 964.064 268.85 965.49 268.85C966.984 268.85 968.164 269.41 969.03 270.53L968.03 271.45C967.417 270.61 966.597 270.19 965.57 270.19C964.557 270.19 963.744 270.537 963.13 271.23C962.53 271.923 962.23 272.817 962.23 273.91C962.23 275.003 962.53 275.903 963.13 276.61C963.744 277.303 964.557 277.65 965.57 277.65C966.584 277.65 967.404 277.23 968.03 276.39L969.03 277.31C968.164 278.43 966.984 278.99 965.49 278.99ZM972.633 278.75H971.133V265.41H972.633V278.75ZM976.365 267.71C976.098 267.71 975.865 267.617 975.665 267.43C975.465 267.23 975.365 266.99 975.365 266.71C975.365 266.43 975.465 266.19 975.665 265.99C975.865 265.79 976.098 265.69 976.365 265.69C976.645 265.69 976.885 265.79 977.085 265.99C977.285 266.19 977.385 266.43 977.385 266.71C977.385 266.99 977.285 267.23 977.085 267.43C976.885 267.617 976.645 267.71 976.365 267.71ZM977.125 278.75H975.625V269.09H977.125V278.75ZM984.477 278.99C983.037 278.99 981.857 278.523 980.937 277.59C980.017 276.643 979.557 275.417 979.557 273.91C979.557 272.497 980.011 271.303 980.917 270.33C981.824 269.343 982.957 268.85 984.317 268.85C985.744 268.85 986.871 269.343 987.697 270.33C988.537 271.303 988.957 272.537 988.957 274.03V274.41H981.137C981.204 275.357 981.551 276.15 982.177 276.79C982.804 277.43 983.617 277.75 984.617 277.75C985.817 277.75 986.811 277.343 987.597 276.53L988.317 277.51C987.331 278.497 986.051 278.99 984.477 278.99ZM987.477 273.31C987.464 272.483 987.184 271.743 986.637 271.09C986.091 270.423 985.311 270.09 984.297 270.09C983.337 270.09 982.577 270.417 982.017 271.07C981.471 271.723 981.177 272.47 981.137 273.31H987.477ZM999.407 278.75H997.907V272.43C997.907 271.617 997.72 271.043 997.347 270.71C996.973 270.363 996.44 270.19 995.747 270.19C995.187 270.19 994.64 270.337 994.107 270.63C993.587 270.923 993.18 271.277 992.887 271.69V278.75H991.387V269.09H992.887V270.49C993.26 270.05 993.76 269.67 994.387 269.35C995.013 269.017 995.66 268.85 996.327 268.85C998.38 268.85 999.407 269.89 999.407 271.97V278.75ZM1004.84 278.99C1004.14 278.99 1003.6 278.797 1003.24 278.41C1002.88 278.023 1002.7 277.463 1002.7 276.73V270.41H1001.1V269.09H1002.7V266.45H1004.2V269.09H1006.16V270.41H1004.2V276.41C1004.2 276.783 1004.28 277.083 1004.44 277.31C1004.62 277.537 1004.86 277.65 1005.18 277.65C1005.62 277.65 1005.96 277.517 1006.2 277.25L1006.64 278.37C1006.2 278.783 1005.6 278.99 1004.84 278.99ZM1018.2 278.99C1016.84 278.99 1015.75 278.423 1014.94 277.29V282.43H1013.44V269.09H1014.94V270.53C1015.3 270.023 1015.76 269.617 1016.34 269.31C1016.91 269.003 1017.53 268.85 1018.2 268.85C1019.48 268.85 1020.51 269.31 1021.3 270.23C1022.1 271.137 1022.5 272.363 1022.5 273.91C1022.5 275.457 1022.1 276.69 1021.3 277.61C1020.51 278.53 1019.48 278.99 1018.2 278.99ZM1017.82 277.65C1018.76 277.65 1019.52 277.303 1020.08 276.61C1020.64 275.903 1020.92 275.003 1020.92 273.91C1020.92 272.817 1020.64 271.923 1020.08 271.23C1019.52 270.537 1018.76 270.19 1017.82 270.19C1017.24 270.19 1016.68 270.343 1016.14 270.65C1015.6 270.943 1015.2 271.303 1014.94 271.73V276.09C1015.2 276.53 1015.6 276.903 1016.14 277.21C1016.68 277.503 1017.24 277.65 1017.82 277.65ZM1026.38 278.75H1024.88V269.09H1026.38V270.65C1027.28 269.477 1028.35 268.89 1029.6 268.89V270.43C1029.42 270.39 1029.22 270.37 1029 270.37C1028.55 270.37 1028.06 270.53 1027.52 270.85C1026.99 271.17 1026.61 271.523 1026.38 271.91V278.75ZM1039.16 277.53C1038.3 278.503 1037.14 278.99 1035.7 278.99C1034.26 278.99 1033.1 278.503 1032.22 277.53C1031.36 276.557 1030.92 275.35 1030.92 273.91C1030.92 272.47 1031.36 271.27 1032.22 270.31C1033.1 269.337 1034.26 268.85 1035.7 268.85C1037.14 268.85 1038.3 269.337 1039.16 270.31C1040.04 271.27 1040.48 272.47 1040.48 273.91C1040.48 275.35 1040.04 276.557 1039.16 277.53ZM1033.34 276.57C1033.93 277.29 1034.72 277.65 1035.7 277.65C1036.69 277.65 1037.47 277.29 1038.04 276.57C1038.62 275.837 1038.9 274.95 1038.9 273.91C1038.9 272.87 1038.62 271.99 1038.04 271.27C1037.47 270.55 1036.69 270.19 1035.7 270.19C1034.72 270.19 1033.93 270.557 1033.34 271.29C1032.77 272.01 1032.48 272.883 1032.48 273.91C1032.48 274.95 1032.77 275.837 1033.34 276.57ZM1043.67 267.71C1043.4 267.71 1043.17 267.617 1042.97 267.43C1042.77 267.23 1042.67 266.99 1042.67 266.71C1042.67 266.43 1042.77 266.19 1042.97 265.99C1043.17 265.79 1043.4 265.69 1043.67 265.69C1043.95 265.69 1044.19 265.79 1044.39 265.99C1044.59 266.19 1044.69 266.43 1044.69 266.71C1044.69 266.99 1044.59 267.23 1044.39 267.43C1044.19 267.617 1043.95 267.71 1043.67 267.71ZM1041.57 282.67C1040.78 282.67 1040.08 282.43 1039.45 281.95L1039.99 280.81C1040.4 281.223 1040.86 281.43 1041.37 281.43C1041.85 281.43 1042.23 281.283 1042.51 280.99C1042.79 280.71 1042.93 280.277 1042.93 279.69V269.09H1044.43V279.69C1044.43 280.637 1044.18 281.37 1043.69 281.89C1043.2 282.41 1042.49 282.67 1041.57 282.67ZM1051.78 278.99C1050.34 278.99 1049.16 278.523 1048.24 277.59C1047.32 276.643 1046.86 275.417 1046.86 273.91C1046.86 272.497 1047.32 271.303 1048.22 270.33C1049.13 269.343 1050.26 268.85 1051.62 268.85C1053.05 268.85 1054.18 269.343 1055 270.33C1055.84 271.303 1056.26 272.537 1056.26 274.03V274.41H1048.44C1048.51 275.357 1048.86 276.15 1049.48 276.79C1050.11 277.43 1050.92 277.75 1051.92 277.75C1053.12 277.75 1054.12 277.343 1054.9 276.53L1055.62 277.51C1054.64 278.497 1053.36 278.99 1051.78 278.99ZM1054.78 273.31C1054.77 272.483 1054.49 271.743 1053.94 271.09C1053.4 270.423 1052.62 270.09 1051.6 270.09C1050.64 270.09 1049.88 270.417 1049.32 271.07C1048.78 271.723 1048.48 272.47 1048.44 273.31H1054.78ZM1062.95 278.99C1061.52 278.99 1060.36 278.51 1059.47 277.55C1058.58 276.577 1058.13 275.363 1058.13 273.91C1058.13 272.457 1058.58 271.25 1059.47 270.29C1060.36 269.33 1061.52 268.85 1062.95 268.85C1064.44 268.85 1065.62 269.41 1066.49 270.53L1065.49 271.45C1064.88 270.61 1064.06 270.19 1063.03 270.19C1062.02 270.19 1061.2 270.537 1060.59 271.23C1059.99 271.923 1059.69 272.817 1059.69 273.91C1059.69 275.003 1059.99 275.903 1060.59 276.61C1061.2 277.303 1062.02 277.65 1063.03 277.65C1064.04 277.65 1064.86 277.23 1065.49 276.39L1066.49 277.31C1065.62 278.43 1064.44 278.99 1062.95 278.99ZM1071.03 278.99C1070.33 278.99 1069.79 278.797 1069.43 278.41C1069.07 278.023 1068.89 277.463 1068.89 276.73V270.41H1067.29V269.09H1068.89V266.45H1070.39V269.09H1072.35V270.41H1070.39V276.41C1070.39 276.783 1070.47 277.083 1070.63 277.31C1070.81 277.537 1071.05 277.65 1071.37 277.65C1071.81 277.65 1072.15 277.517 1072.39 277.25L1072.83 278.37C1072.39 278.783 1071.79 278.99 1071.03 278.99ZM1077.53 278.99C1075.89 278.99 1074.59 278.483 1073.63 277.47L1074.41 276.39C1074.75 276.777 1075.2 277.103 1075.77 277.37C1076.36 277.637 1076.97 277.77 1077.59 277.77C1078.31 277.77 1078.87 277.617 1079.27 277.31C1079.67 277.003 1079.87 276.603 1079.87 276.11C1079.87 275.683 1079.67 275.35 1079.25 275.11C1078.84 274.857 1078.34 274.67 1077.75 274.55C1077.18 274.417 1076.6 274.27 1076.01 274.11C1075.43 273.937 1074.93 273.65 1074.51 273.25C1074.1 272.837 1073.89 272.297 1073.89 271.63C1073.89 270.843 1074.21 270.183 1074.85 269.65C1075.51 269.117 1076.39 268.85 1077.49 268.85C1078.95 268.85 1080.14 269.317 1081.07 270.25L1080.37 271.29C1079.69 270.477 1078.73 270.07 1077.49 270.07C1076.84 270.07 1076.32 270.217 1075.93 270.51C1075.55 270.79 1075.35 271.15 1075.35 271.59C1075.35 271.977 1075.56 272.283 1075.97 272.51C1076.39 272.723 1076.88 272.897 1077.45 273.03C1078.04 273.15 1078.63 273.297 1079.21 273.47C1079.8 273.643 1080.3 273.95 1080.71 274.39C1081.13 274.817 1081.33 275.377 1081.33 276.07C1081.33 276.923 1081 277.623 1080.33 278.17C1079.67 278.717 1078.73 278.99 1077.53 278.99Z" fill="white"/>
<path d="M425 214.75C425 241.014 419.827 267.022 409.776 291.287C399.725 315.552 384.993 337.6 366.421 356.171C347.85 374.743 325.802 389.475 301.537 399.526C277.272 409.577 251.264 414.75 225 414.75C198.736 414.75 172.728 409.577 148.463 399.526C124.198 389.475 102.15 374.743 83.5786 356.171C65.0069 337.6 50.275 315.552 40.2241 291.287C30.1731 267.022 25 241.014 25 214.75L27 214.75C27 240.752 32.1214 266.499 42.0718 290.521C52.0223 314.544 66.6068 336.371 84.9928 354.757C103.379 373.143 125.206 387.728 149.229 397.678C173.251 407.629 198.998 412.75 225 412.75C251.002 412.75 276.749 407.629 300.771 397.678C324.794 387.728 346.621 373.143 365.007 354.757C383.393 336.371 397.978 314.544 407.928 290.521C417.879 266.499 423 240.752 423 214.75H425Z" fill="white"/>
<path opacity="0.2" d="M53.341 112.119C77.5855 71.5679 115.403 40.9093 160.091 25.5759C204.779 10.2426 253.453 11.2246 297.487 28.348C341.52 45.4714 378.07 77.6305 400.659 119.126C423.248 160.622 430.418 208.775 420.897 255.051C411.377 301.328 385.782 342.74 348.647 371.949C311.512 401.158 265.236 416.277 218.019 414.628C170.802 412.979 125.693 394.668 90.6867 362.939C55.6803 331.21 33.0365 288.113 26.7681 241.285L28.7504 241.02C34.9561 287.38 57.3735 330.046 92.0298 361.457C126.686 392.868 171.344 410.997 218.089 412.629C264.833 414.262 310.647 399.294 347.41 370.377C384.174 341.46 409.513 300.462 418.938 254.648C428.364 208.834 421.266 161.163 398.902 120.082C376.539 79.0017 340.355 47.1642 296.762 30.212C253.169 13.2599 204.982 12.2877 160.74 27.4677C116.499 42.6477 79.0596 72.9997 55.0576 113.145L53.341 112.119Z" fill="white"/>
<path d="M53.341 112.119C70.988 82.6026 95.9477 58.1355 125.81 41.0801C155.671 24.0247 189.426 14.9573 223.815 14.7535L223.827 16.7535C189.782 16.9552 156.365 25.9319 126.801 42.8168C97.2382 59.7016 72.5282 83.9241 55.0576 113.145L53.341 112.119Z" fill="white"/>
<path opacity="0.2" d="M1221 214.75C1221 170.656 1206.43 127.798 1179.55 92.8422C1152.67 57.8864 1115 32.7925 1072.38 21.4637C1029.77 10.1349 984.608 13.2062 943.92 30.2C903.232 47.1938 869.301 77.1574 847.404 115.43C825.507 153.703 816.872 198.139 822.841 241.827C828.811 285.515 849.051 326.006 880.413 357.001C911.775 387.996 952.501 407.758 996.256 413.213C1040.01 418.669 1084.34 409.511 1122.36 387.165L1121.34 385.441C1083.71 407.564 1039.82 416.63 996.504 411.229C953.186 405.828 912.867 386.264 881.819 355.578C850.77 324.893 830.733 284.807 824.823 241.556C818.913 198.305 827.462 154.313 849.14 116.423C870.818 78.5333 904.41 48.8694 944.691 32.0455C984.972 15.2217 1029.68 12.181 1071.87 23.3966C1114.06 34.6121 1151.36 59.4551 1177.97 94.0613C1204.57 128.668 1219 171.097 1219 214.75H1221Z" fill="white"/>
<path opacity="0.2" d="M612.225 15.0405C659.652 12.4816 706.442 26.8848 744.22 55.6722C781.998 84.4596 808.298 125.752 818.412 172.159C828.527 218.565 821.796 267.057 799.424 308.954C777.053 350.852 740.5 383.42 696.31 400.83C652.12 418.239 603.176 419.354 558.239 403.975C513.302 388.595 475.304 357.725 451.048 316.89C426.792 276.055 417.86 227.92 425.851 181.101C433.842 134.282 458.235 91.8345 494.662 61.3568L495.946 62.8907C459.882 93.0636 435.734 135.086 427.823 181.437C419.911 227.788 428.754 275.442 452.768 315.868C476.781 356.295 514.398 386.857 558.886 402.082C603.374 417.308 651.829 416.204 695.577 398.969C739.325 381.733 775.512 349.491 797.66 308.012C819.808 266.534 826.472 218.527 816.458 172.585C806.445 126.642 780.408 85.7625 743.008 57.263C705.608 28.7635 659.286 14.5043 612.333 17.0376L612.225 15.0405Z" fill="white"/>
<path d="M423 214.75C423 184.279 429.962 154.212 443.355 126.842C456.748 99.4731 476.218 75.5257 500.277 56.8286L501.505 58.4078C477.685 76.918 458.411 100.626 445.152 127.722C431.893 154.817 425 184.584 425 214.75L423 214.75Z" fill="white"/>
<path d="M611.372 15.0883C638.556 13.5052 665.777 17.4897 691.367 26.7978C716.956 36.1059 740.376 50.5414 760.189 69.2197C780.003 87.8981 795.794 110.426 806.595 135.422C817.395 160.418 822.978 187.357 823 214.587L821 214.589C820.978 187.631 815.451 160.962 804.759 136.215C794.066 111.469 778.433 89.1666 758.818 70.675C739.202 52.1835 716.017 37.8923 690.683 28.6773C665.349 19.4623 638.4 15.5176 611.488 17.0849L611.372 15.0883Z" fill="white"/>
<path d="M1162.42 356.171C1134.39 384.199 1098.67 403.267 1059.78 410.953C1020.9 418.64 980.607 414.599 944.023 399.343C907.439 384.087 876.214 358.305 854.31 325.269C832.407 292.233 820.813 253.434 821.002 213.797L823.002 213.807C822.815 253.047 834.293 291.459 855.977 324.164C877.661 356.869 908.575 382.394 944.793 397.497C981.011 412.6 1020.9 416.601 1059.4 408.991C1097.89 401.382 1133.26 382.505 1161.01 354.757L1162.42 356.171Z" fill="white"/>
<path d="M925.657 38.9385C960.5 20.0427 1000.17 11.9265 1039.64 15.6203C1079.1 19.3141 1116.58 34.6512 1147.31 59.6846C1178.04 84.718 1200.64 118.319 1212.24 156.221C1223.84 194.123 1223.92 234.617 1212.46 272.562L1210.55 271.984C1221.89 234.418 1221.82 194.329 1210.33 156.806C1198.85 119.283 1176.47 86.0183 1146.05 61.2353C1115.62 36.4522 1078.52 21.2684 1039.45 17.6116C1000.38 13.9548 961.105 21.9898 926.61 40.6966L925.657 38.9385Z" fill="white"/>
<path d="M70 173.5L49 159.86L49 187.14L70 173.5Z" fill="#12E2B0"/>
<path d="M0 156.875L36.75 186.428L36.75 127.322L0 156.875Z" fill="white"/>
<rect x="550.5" width="36.25" height="36.25" transform="rotate(45 550.5 0)" fill="white"/>
<rect x="571.75" y="47.5" width="17.5" height="17.5" fill="#12E2B0"/>
<path d="M1155 313.75L1176 300.11V327.39L1155 313.75Z" fill="white"/>
<path d="M1184.75 312.875L1221.5 283.322V342.428L1184.75 312.875Z" fill="#12E2B0"/>
</svg>
