<svg width="580" height="380" viewBox="0 0 580 380" fill="none" xmlns="http://www.w3.org/2000/svg">
<path d="M75.161 12.1994C61.661 0.199363 50.161 8.69936 42.661 12.1994C39.6603 10.1993 20.6603 5.19934 23.6603 30.6993C26.7571 57.0225 1.66098 52.6993 6.66098 72.1993C11.661 91.6993 35.6603 89.1993 39.6603 79.1993C42.1517 72.9709 44.661 69.6993 51.161 69.6993C56.361 69.6993 54.3276 75.866 55.161 79.1993C71.1607 114.199 105.63 81.4464 89.6603 64.1993C77.1601 50.6993 79.1603 49.1993 83.1603 43.6993C87.1603 38.1993 88.661 24.1994 75.161 12.1994Z" fill="black" stroke="black"/>
<path d="M72.6602 39.6995C72.6602 29.6995 65.1602 23.6995 56.1602 21.1995C49.6602 19.6995 39.5664 22.105 40.1602 32.1995C40.6602 40.6995 39.6602 43.6995 38.6602 47.6995C37.5755 52.0381 36.6602 52.7408 36.6602 49.6995C36.6602 45.1995 30.2327 44.2147 30.6602 50.1995C31.1602 57.1995 32.6602 57.6995 35.1602 58.6995C37.6602 59.6995 36.6602 72.1995 42.1602 75.1995C58.6602 86.1995 62.6602 79.6995 63.6602 77.6995C64.6602 75.6995 72.6602 61.6995 71.1602 56.6995C69.6602 51.6995 72.6602 49.6995 72.6602 39.6995Z" fill="white" stroke="black"/>
<path d="M63.1602 67.1992C62.9258 67.4335 62.5817 67.6313 62.1602 67.7905C60.4341 68.4424 57.4102 68.4486 55.3129 67.6783C54.6435 67.4325 54.0685 67.1075 53.6602 66.6992" stroke="black"/>
<path d="M57.66 60.6992C59.66 62.1992 63.16 63.1992 62.16 59.1992C61.16 55.1992 60.16 49.6992 61.16 46.6992" stroke="black" stroke-linecap="round" stroke-linejoin="round"/>
<path d="M63.6602 41.1995C66.1602 39.6994 69.1602 39.6995 71.1602 40.1995" stroke="black" stroke-linecap="round" stroke-linejoin="round"/>
<path d="M55.6602 41.6992C54.1602 39.6992 49.1602 38.6992 45.6602 39.1992" stroke="black" stroke-linecap="round" stroke-linejoin="round"/>
<path d="M43.1601 43.5041C47.6601 40.0041 54.1604 42.004 56.6604 46.004M43.1601 43.5041C42.6601 52.5088 50.66 55.0041 53.7198 53.989C56.9087 52.9311 59.1308 49.9567 56.6604 46.004M43.1601 43.5041C41.6601 42.4024 36.66 40.1992 34.6602 40.6992M56.6604 46.004C56.6604 46.004 58.6087 47.0041 59.6601 47.0041C60.7116 47.004 61.6601 46.0041 61.6601 46.0041M61.6601 46.0041C63.6601 41.5041 71.1601 41.0041 73.1601 45.0041C72.1601 53.5041 66.491 54.5225 64.2774 53.2576C61.6601 51.762 60.3268 49.0041 61.6601 46.0041Z" stroke="black" stroke-linecap="round" stroke-linejoin="round"/>
<path d="M49.6602 50.1993C47.6602 50.1993 46.9935 47.709 47.1602 46.1992C48.5179 45.4685 50.3611 45.3547 51.6602 45.6993C51.8268 47.044 51.1899 50.1993 49.6602 50.1993Z" fill="black"/>
<path d="M55.6602 48.1993C54.4024 46.9416 53.0568 46.0697 51.6602 45.6993M45.6602 47.6993C46.1602 46.6992 46.7346 46.4282 47.1602 46.1992M47.1602 46.1992C46.9935 47.709 47.6602 50.1993 49.6602 50.1993C51.1899 50.1993 51.8268 47.044 51.6602 45.6993M47.1602 46.1992C48.5179 45.4685 50.3611 45.3547 51.6602 45.6993" stroke="black" stroke-linecap="round" stroke-linejoin="round"/>
<path d="M62.6602 47.6994C63.6602 46.1994 65.5522 45.7398 66.6602 45.6995C66.8555 47.221 66.2602 50.1995 64.6602 50.1995C63.1602 50.1995 62.8268 48.5328 62.6602 47.6994L62.6602 47.6994Z" fill="black"/>
<path d="M70.6602 47.6994C69.0456 46.3539 67.9514 45.6525 66.6602 45.6995M66.6602 45.6995C65.5522 45.7398 63.6602 46.1994 62.6602 47.6994C62.8268 48.5327 63.1602 50.1995 64.6602 50.1995C66.2602 50.1995 66.8555 47.221 66.6602 45.6995Z" stroke="black"/>
<path d="M146.598 57.4947C144.598 48.9947 138.598 32.9947 144.598 32.9947C141.098 17.9948 156.598 16.9947 162.098 15.9947C167.598 14.9947 170.098 10.4944 169.598 14.4944C169.098 18.4944 164.598 17.9947 169.598 17.9947C185.598 14.4944 180.598 1.99459 187.098 11.4946C193.598 20.9946 187.098 27.2504 189.598 27.677C193.083 28.2717 191.455 19.4944 194.598 24.9947C196.598 28.4947 194.598 39.4947 196.098 36.4947C196.805 35.0805 196.598 29.9944 198.098 40.4944C199.598 50.9944 186.598 64.4947 187.098 59.9947C187.598 55.4947 185.598 43.4947 185.598 39.4947C185.598 35.4947 167.598 36.9948 162.598 33.4948C157.598 29.9948 155.098 34.4948 152.098 37.9948C149.098 41.4948 151.598 59.9948 150.098 58.4948C148.598 56.9948 149.598 56.4947 146.598 57.4947Z" fill="black" stroke="black"/>
<path d="M194.098 62.4941C195.598 55.9941 188.098 53.4943 187.098 60.9943C189.098 56.4943 193.735 56.7614 193.098 62.4941C192.598 66.9941 186.282 72.7465 189.098 70.4942C191.098 68.9943 193.211 66.3354 194.098 62.4941Z" fill="black"/>
<path d="M142.817 62.7621C141.15 56.0885 149.486 53.522 150.598 61.2222C148.375 56.6021 143.221 56.8763 143.929 62.7621C144.484 67.3822 151.504 73.2882 148.375 70.9758C146.152 69.4358 143.803 66.7059 142.817 62.7621Z" fill="black"/>
<path d="M184.098 77.4941C189.098 67.4941 188.098 54.4941 188.098 45.4941C188.078 43.4941 189.098 37.4941 184.598 37.4941C176.098 37.4941 161.598 29.9941 157.098 29.9941C152.598 29.9941 150.098 40.4941 149.598 42.9941C149.098 45.4941 149.098 53.9941 151.098 69.9941C153.098 85.9941 164.098 91.9941 169.098 91.9941C174.098 91.9941 179.098 87.4941 184.098 77.4941Z" fill="white" stroke="black"/>
<path d="M163.598 77.9941C167.098 79.4941 169.598 79.9941 173.098 77.4941" stroke="black" stroke-linecap="round"/>
<path d="M166.598 56.9941C166.598 61.9941 165.098 66.9941 164.598 68.4941C164.098 69.9941 164.098 69.9941 166.098 70.9941C166.765 71.9941 169.098 72.9941 171.098 70.9941C171.598 70.4941 173.598 70.4941 172.598 68.4941" stroke="black" stroke-linecap="round" stroke-linejoin="round"/>
<path d="M174.761 58.5001C176.261 58.5001 177.761 56.0001 176.761 55.0002C175.21 54.3555 174.006 54.5475 172.733 55.6429C172.761 57.0001 173.761 58.5001 174.761 58.5001Z" fill="black"/>
<path d="M171.761 56.5001C172.261 56.0001 172.261 56.049 172.733 55.6429M179.261 57.0001C178.761 56.0001 177.478 55.2983 176.761 55.0002M176.761 55.0002C177.761 56.0001 176.261 58.5001 174.761 58.5001C173.761 58.5001 172.761 57.0001 172.733 55.6429M176.761 55.0002C175.21 54.3555 174.006 54.5475 172.733 55.6429" stroke="black" stroke-linecap="round" stroke-linejoin="round"/>
<path d="M171.598 52.9943C174.76 50 178.26 50 181.26 52.5" stroke="black" stroke-linecap="round" stroke-linejoin="round"/>
<path d="M154.261 53.0002C157.761 50.0001 163.761 52.5002 164.261 53.5002" stroke="black" stroke-linecap="round" stroke-linejoin="round"/>
<path d="M159.261 59.0002C157.844 59.0742 157.181 57.4946 157.222 55.9946C158.857 54.9619 160.261 55.0002 161.261 55.5002C161.948 56.819 160.746 58.9227 159.261 59.0002Z" fill="black"/>
<path d="M156.261 56.9946C156.578 56.5975 156.797 56.2635 157.222 55.9946M157.222 55.9946C157.181 57.4946 157.844 59.0742 159.261 59.0002C160.746 58.9227 161.948 56.819 161.261 55.5002M157.222 55.9946C158.857 54.9619 160.261 55.0002 161.261 55.5002M161.261 55.5002C161.927 55.6669 162.761 56.5002 163.261 57.0002" stroke="black" stroke-linecap="round" stroke-linejoin="round"/>
<path d="M282.012 85.4834C302.025 81.9603 300.024 76.4238 305.527 64.8477C304.527 70.3841 300.924 82.0609 294.52 84.4768C286.515 87.4967 284.013 88 280.511 88C277.009 88 270.504 88 268.003 78.9404C265.501 69.8808 264 65.351 264 61.8278C264 58.3046 265.001 50.7907 265.001 47.2318C265.001 43.7086 266.502 34.1457 266.502 32.1325C266.502 30.5219 266.335 28.1711 266.502 27.5C266.001 21.9636 274.491 12 288.5 12C302.509 12 307.88 13.3817 314.033 22.5695C317 27 316.426 39.9757 314 46C319.941 49.5 316 60 309.5 64C308.5 63 320.5 54 313.533 47.7351C310.07 45.2468 308.535 49.8837 308.017 51.4479L308 51.5C306.762 55.2351 308.039 63.4726 305.527 61.8278C303.5 60.5 301.632 55.5323 305.527 44C311.001 27.7947 305.332 25.0328 301.5 23.5C294 20.5 292.5 28.3711 278.5 29C271.989 29.2925 275 18.5913 270 22.5695C267.558 24.5123 267.083 31.5073 267.01 33.1588C267.009 33.2754 267.005 33.3893 267 33.5C266.762 38.409 266.001 43.6954 266.001 47.7351C266.001 53.2715 264 60.8212 265.501 64.8477C269.003 76.9272 269.681 87.6542 282.012 85.4834Z" fill="black"/>
<path d="M278 71C279.714 71.4159 285.532 70.4769 287 69.5" stroke="black"/>
<path d="M285 43.9354C287.5 40.9164 291 39.9101 295 42.4259M269 42.929C271.5 40.4132 276 40.9163 277.831 42.4259C279.827 44.0721 280.5 46.4512 279.5 51.9861C278.5 57.521 274.5 62.5527 276.5 62.5527C278.5 62.5527 281 63.5591 281.5 62.5527" stroke="black" stroke-linecap="round" stroke-linejoin="round"/>
<path d="M292 53C290.4 53 290 50.4276 290 49.1414C291.397 48.8891 292.835 48.9456 294.196 49.5473C294.131 50.6982 293.6 53 292 53Z" fill="black"/>
<path d="M285 51.1868C286.419 50.329 288.174 49.4713 290 49.1414M296 50.7335C295.422 50.2097 294.817 49.8218 294.196 49.5473M290 49.1414C290 50.4276 290.4 53 292 53C293.6 53 294.131 50.6982 294.196 49.5473M290 49.1414C291.397 48.8891 292.835 48.9456 294.196 49.5473" stroke="black" stroke-linecap="round" stroke-linejoin="round"/>
<path d="M274.842 53C273.158 53 272.737 50.4376 272.737 49.1564C274.039 48.8596 275.345 48.9495 276.597 49.7366C276.714 50.8244 276.526 53 274.842 53Z" fill="black"/>
<path d="M268 51.4663C269.498 50.4963 271.114 49.5262 272.737 49.1564M278 50.955C277.542 50.4365 277.074 50.0361 276.597 49.7366M272.737 49.1564C272.737 50.4376 273.158 53 274.842 53C276.526 53 276.714 50.8244 276.597 49.7366M272.737 49.1564C274.039 48.8596 275.345 48.9495 276.597 49.7366" stroke="black" stroke-linecap="round" stroke-linejoin="round"/>
<path d="M407.542 46.5017C407.266 46.4788 407.025 46.6833 407.002 46.9585C406.979 47.2337 407.183 47.4753 407.458 47.4983L407.542 46.5017ZM417.053 51.7236C417.176 51.9706 417.477 52.0707 417.724 51.9472C417.971 51.8237 418.071 51.5234 417.947 51.2764L417.053 51.7236ZM407.458 47.4983C413.396 47.9931 416.17 49.9589 417.053 51.7236L417.947 51.2764C416.83 49.0411 413.604 47.0069 407.542 46.5017L407.458 47.4983Z" fill="black"/>
<path d="M380.478 65.3423C380.478 58.811 381.42 46.6007 382 42.5C383.022 35.2759 392.671 28.206 397 26.6567C399.455 25.7781 401.653 26.1224 402.5 26.1542C404.948 26.6567 405.448 28.6663 405.448 36.2025C405.448 43.7387 400.953 48.7628 399.455 50.27C397.957 51.7773 398.955 50.7725 398.456 57.8062C396.458 51.2749 390.965 50.27 390.965 55.7966C390.965 61.3231 396.958 67.352 400.953 68.3569C401.119 69.5292 401.452 70.3665 401.452 72.3762C401.452 74.3858 407.197 80.8684 410.442 83.4291C413.701 86.0015 416.201 87.2695 418.335 87.4441C419.072 87.4279 419.733 87.3673 420.328 87.2712C421.95 86.8362 423.406 85.6816 424.924 83.9316C435.412 69.8641 435.911 65.3424 436.91 55.7966C437.709 48.1599 435.245 39.8869 433.914 36.7049C431.417 30.676 426.506 26.4259 417 24.5C396.567 20.3602 390.965 29.329 390.965 27.5C390.965 14.4373 401.452 9.74211 404.948 9.0722C420.43 5.0529 429.419 13.0916 435.412 20.6277C438.413 24.4017 440.276 29.0535 441.405 33.9328C441.922 36.1697 442.285 38.4544 442.533 40.7242C442.717 42.4158 442.837 44.0992 442.91 45.7483C443.277 54.1325 442.403 61.6326 442.403 64.84V87.4484C439.906 82.4243 438.408 86.946 435.412 86.946C431.017 87.3479 429.419 82.4244 427.421 82.4244C425.649 82.4244 425.842 86.3792 420.328 87.2712C419.694 87.4411 419.034 87.5012 418.335 87.4441C418.204 87.447 418.069 87.4484 417.933 87.4484C413.937 87.4484 408.444 83.9316 401.452 74.3858C399.455 88.4533 391.464 91.4677 385.472 91.9701C379.479 92.4725 380.977 86.4436 378.48 88.4532C375.983 90.4629 375.483 88.4532 376.482 87.4484C377.481 86.4436 380.478 71.8737 380.478 65.3423Z" fill="black" stroke="black" stroke-linecap="round" stroke-linejoin="round"/>
<path d="M415.5 75C416.634 75.842 418.518 76.1202 419.546 76.2786C420.781 76.4689 422.108 76.0663 423.199 75.5515" stroke="black" stroke-linecap="round"/>
<path d="M412.5 57.5C414.187 57.767 415.187 56.0714 415.281 54.8835C414.204 54.2871 412.151 53.721 410.275 53.7634C410.076 55.0223 410.814 57.233 412.5 57.5Z" fill="black"/>
<path d="M417.437 57.2498C417.1 56.184 416.357 55.48 415.281 54.8835M406.235 54.4641C407.301 54.1266 409.528 53.7803 410.275 53.7634M415.281 54.8835C415.187 56.0714 414.187 57.767 412.5 57.5C410.814 57.233 410.076 55.0223 410.275 53.7634M415.281 54.8835C414.204 54.2871 412.151 53.721 410.275 53.7634" stroke="black" stroke-linecap="round"/>
<path d="M428.5 57.5C430.405 57.5 430.667 55.9047 430.667 54.0886C428.893 53.7655 427.724 54.1259 426.5 55C426.437 56.074 426.942 57.5 428.5 57.5Z" fill="black"/>
<path d="M424 57.3891C424.457 56.7026 425.583 55.6544 426.5 55M434 55.7781C432.841 54.7981 431.719 54.2804 430.667 54.0886M430.667 54.0886C430.667 55.9047 430.405 57.5 428.5 57.5C426.942 57.5 426.437 56.074 426.5 55M430.667 54.0886C428.893 53.7655 427.724 54.1259 426.5 55" stroke="black" stroke-linecap="round"/>
<path d="M433.5 48.9999C428 47.4999 424.5 50.5001 423 54.5C421.792 57.7219 421.76 60.9111 422.5 63.5C423.5 67 425 66.5 424 68C423.167 69.3334 420.5 69.5 418.5 67.5" stroke="black" stroke-linecap="round"/>
<path d="M506.815 23.6571C498.315 27.1201 500.815 34.6571 503.815 46.1571C506.315 55.1571 504.315 52.657 506.815 52.157C509.315 51.657 509.315 56.157 510.315 49.157C511.315 42.157 517.815 36.657 526.315 31.157C534.815 25.657 546.315 31.157 545.315 40.157C544.315 49.157 547.815 50.657 551.815 50.157C555.815 49.657 553.815 42.6571 557.815 34.6571C561.815 26.6571 550.315 26.657 550.315 25.657C553.315 10.657 544.315 4.15707 533.815 8.15707C523.315 12.1571 520.315 18.1571 506.815 23.6571Z" fill="black" stroke="black"/>
<path d="M547.539 52.271C547.462 52.3948 547.387 52.5236 547.314 52.6574C547.265 52.5589 547.352 52.4217 547.539 52.271C550.603 47.3041 556.302 50.2668 555.815 54.6573C555.315 59.1573 550.315 66.6572 550.815 64.1572C559.379 48.3801 549.25 50.8908 547.539 52.271Z" fill="black"/>
<path d="M511.12 54.2432C511.196 54.367 511.271 54.4958 511.344 54.6296C511.393 54.5311 511.307 54.3939 511.12 54.2432C508.056 49.2763 502.356 52.2389 502.844 56.6295C503.344 61.1295 508.344 68.6294 507.844 66.1294C499.279 50.3523 509.408 52.863 511.12 54.2432Z" fill="black"/>
<path d="M533.814 24.6574C540.814 23.1574 550.314 29.6574 549.814 41.6574C549.191 56.6145 549.814 73.6573 546.314 80.1573C541.814 86.1573 536.314 91.1573 531.314 92.1574C527.814 92.1574 518.482 85.0876 515.814 81.6573C512.314 77.1573 510.291 57.9083 508.314 41.6574C524.314 38.1573 526.814 26.1574 533.814 24.6574Z" fill="white" stroke="black"/>
<path d="M538.314 77.1572C534.814 78.6572 525.314 78.1572 523.314 77.1572" stroke="black" stroke-linecap="round" stroke-linejoin="round"/>
<path d="M529.815 55.1572C530.315 62.1572 529.815 68.6572 529.315 70.1572C528.815 71.6572 528.815 72.6572 530.815 72.6572C532.815 72.6572 533.315 72.1572 533.315 71.1572" stroke="black" stroke-linecap="round" stroke-linejoin="round"/>
<path d="M533.314 52.1572C537.814 48.1572 539.814 48.6572 545.314 49.6573" stroke="black" stroke-linecap="round" stroke-linejoin="round"/>
<path d="M527.814 52.5513C521.314 48.5513 518.314 50.157 514.814 51.657" stroke="black" stroke-linecap="round" stroke-linejoin="round"/>
<path d="M538.314 58.6569C539.814 58.6569 540.01 56.6569 540.01 55.5267C538.739 55.4442 537.305 55.5491 535.997 55.8941C536.18 57.1314 536.814 58.6569 538.314 58.6569Z" fill="black"/>
<path d="M533.314 57.1569C534.042 56.5747 534.982 56.1621 535.997 55.8941M542.814 56.1569C542.146 55.8227 541.143 55.6002 540.01 55.5267M540.01 55.5267C540.01 56.6569 539.814 58.6569 538.314 58.6569C536.814 58.6569 536.18 57.1314 535.997 55.8941M540.01 55.5267C538.739 55.4442 537.305 55.5491 535.997 55.8941" stroke="black" stroke-linecap="round" stroke-linejoin="round"/>
<path d="M522.359 58.9102C520.359 58.9102 519.92 57.0506 520.087 56.1327C521.277 56.003 523.019 55.914 524.087 56.1327C524.254 56.9981 523.959 58.9102 522.359 58.9102Z" fill="black"/>
<path d="M516.587 57.3864C517.478 56.6735 518.75 56.2782 520.087 56.1327M526.587 57.3864C526.098 56.8974 525.184 56.3571 524.087 56.1327M520.087 56.1327C519.92 57.0506 520.359 58.9102 522.359 58.9102C523.959 58.9102 524.254 56.9981 524.087 56.1327M520.087 56.1327C521.277 56.003 523.019 55.914 524.087 56.1327" stroke="black" stroke-linecap="round" stroke-linejoin="round"/>
<path d="M124.5 212.431C121.5 214.431 115 214.431 112.5 212.931" stroke="black" stroke-linecap="round" stroke-linejoin="round"/>
<path d="M134 182.931C135 176.431 134 172.431 129.5 165.931C128.167 166.431 124.2 167.631 119 168.431C112.5 169.431 93.5 160.931 95.5 167.431C97.5 173.931 93.5 188.931 92.5 192.931C91.5 196.931 90 195.431 90 193.931C90 192.431 86.5 188.431 84.5 190.431C81.5 193.931 83.5 199.431 84.5 200.931C85.5001 202.431 90 208.931 84 201.931C81 195.431 82 192.431 83 190.431C84.25 187.931 86.323 188.931 86 187.931C79.378 167.431 84 168.431 91.5 158.931C99 149.431 108 156.431 125 153.431C142 150.431 137 163.931 136 168.431C135 172.931 139 182.431 134.802 190.931C135.102 194.553 135.217 198.541 134.5 200.931C133.908 202.905 131 210.431 130.5 212.431C130 214.431 128 221.931 125 224.431C122 226.931 115.5 226.431 114 226.431C112.5 226.431 109 224.431 107.5 223.931C101.5 222.519 96.5 217.931 95.5 216.431C94.7 215.231 93.5 208.431 94.5 208.431C94.5 219.931 103.25 221.431 112 224.931C114.5 225.931 120 225.931 123.5 224.431C127 222.931 127.5 215.431 132 204.931C136.5 194.431 133 189.431 134 182.931Z" fill="black"/>
<path d="M126 194C128.8 194 128.954 191.597 128.681 189.931C126.742 188.57 125.005 189.285 123 191.018C122.833 192.322 123.2 194 126 194Z" fill="black"/>
<path d="M121.5 192.431C122.02 191.911 122.518 191.435 123 191.018M131 192.431C130.181 191.261 129.417 190.446 128.681 189.931M128.681 189.931C128.954 191.597 128.8 194 126 194C123.2 194 122.833 192.322 123 191.018M128.681 189.931C126.742 188.57 125.005 189.285 123 191.018" stroke="black" stroke-linecap="round" stroke-linejoin="round"/>
<path d="M109.5 194.5C107.5 194.5 107 193.431 106.5 191.431C108.494 189.931 110.494 189.506 112.5 190.431C112.5 192.431 112.5 194.5 109.5 194.5Z" fill="black"/>
<path d="M104.5 193.431C105.146 192.704 105.817 191.944 106.5 191.431M114.5 192.431C114 191.431 113.56 190.919 112.5 190.431M106.5 191.431C107 193.431 107.5 194.5 109.5 194.5C112.5 194.5 112.5 192.431 112.5 190.431M106.5 191.431C108.494 189.931 110.494 189.506 112.5 190.431" stroke="black" stroke-linecap="round" stroke-linejoin="round"/>
<path d="M103.5 184.431C108 182.431 115 183.931 115.5 184.431" stroke="black" stroke-linecap="round" stroke-linejoin="round"/>
<path d="M130.5 183.931C128.5 182.431 121 181.931 119.5 188.431C118.393 193.229 119 194.431 120.5 197.931C121.336 199.881 124.5 205.931 120.5 206.431C117 206.868 112.205 206.131 116 202.931" stroke="black" stroke-linecap="round" stroke-linejoin="round"/>
<path d="M203.457 174.706C203.457 161.706 211.457 154.706 219.957 153.206C224.664 152.375 229.852 151.887 232.957 153.206C234.957 151.206 248.657 149.206 253.457 169.206C259.457 194.206 240.07 188.072 252.457 197.706C265.957 208.206 266.472 224.564 265.957 223.706C264.457 221.206 263.957 223.206 263.457 225.706C263.019 227.899 262.105 224.724 258.957 222.206C256.457 220.206 254.957 220.206 255.957 222.206C256.457 223.206 256.639 225.809 254.957 223.706C252.957 221.206 248.957 225.206 246.457 218.706C243.957 212.206 225.957 211.706 226.957 214.706C227.957 217.706 226.457 220.706 225.957 222.706C225.457 224.706 214.957 226.706 211.957 225.706C208.957 224.706 208.957 223.206 208.957 221.706C208.957 220.206 204.457 219.206 205.457 220.706C206.457 222.206 208.957 229.706 206.957 226.706C204.957 223.706 195.457 224.206 193.457 219.206C191.457 214.206 196.457 203.206 199.957 199.206C203.457 195.206 203.457 187.706 203.457 174.706Z" fill="black"/>
<path d="M241.957 161.706C238.61 157.69 236.062 154.525 232.957 153.206M232.957 153.206C229.852 151.887 224.664 152.375 219.957 153.206C211.457 154.706 203.457 161.706 203.457 174.706C203.457 187.706 203.457 195.206 199.957 199.206C196.457 203.206 191.457 214.206 193.457 219.206C195.457 224.206 204.957 223.706 206.957 226.706C208.957 229.706 206.457 222.206 205.457 220.706C204.457 219.206 208.957 220.206 208.957 221.706C208.957 223.206 208.957 224.706 211.957 225.706C214.957 226.706 225.457 224.706 225.957 222.706C226.457 220.706 227.957 217.706 226.957 214.706C225.957 211.706 243.957 212.206 246.457 218.706C248.957 225.206 252.957 221.206 254.957 223.706C256.639 225.809 256.457 223.206 255.957 222.206C254.957 220.206 256.457 220.206 258.957 222.206C262.105 224.724 263.019 227.899 263.457 225.706C263.957 223.206 264.457 221.206 265.957 223.706C266.472 224.564 265.957 208.206 252.457 197.706C240.07 188.072 259.457 194.206 253.457 169.206C248.657 149.206 234.957 151.206 232.957 153.206Z" stroke="black"/>
<path d="M251.457 208.706C253.457 203.706 253.957 198.206 253.957 191.206C253.957 184.706 253.478 170.974 247.457 165.706C243.457 162.206 236.457 161.206 231.457 163.706C226.358 166.256 224.957 174.706 223.457 181.206C222.35 186.004 220.457 190.206 218.957 190.206C214.957 185.706 212.957 189.706 212.957 195.706C212.957 201.206 218.957 201.706 219.957 206.706C221.957 214.706 229.457 220.706 234.957 222.706C240.457 224.706 244.457 223.706 245.457 221.706C246.457 219.706 249.457 213.706 251.457 208.706Z" fill="white" stroke="black"/>
<path d="M244.457 211.206C244.124 211.873 242.957 213.206 240.957 213.206C238.957 213.206 237.79 211.873 237.457 211.206" stroke="black" stroke-linecap="round" stroke-linejoin="round"/>
<path d="M252.457 187.206C249.957 185.206 243.957 186.206 242.957 188.206C241.957 190.206 240.457 193.206 242.957 198.706C245.457 204.206 246.957 205.206 243.457 206.706C242.29 207.206 239.624 206.539 239.457 205.706" stroke="black" stroke-linecap="round" stroke-linejoin="round"/>
<path d="M246.457 194.706C248.057 194.706 248.124 192.119 247.957 190.825C246.788 190.739 245.765 191.097 244.953 191.706C244.787 192.706 244.857 194.706 246.457 194.706Z" fill="black"/>
<path d="M243.957 192.706C244.238 192.331 244.572 191.991 244.953 191.706M251.957 192.706C250.516 191.47 249.159 190.913 247.957 190.825M247.957 190.825C248.124 192.119 248.057 194.706 246.457 194.706C244.857 194.706 244.787 192.706 244.953 191.706M247.957 190.825C246.788 190.739 245.765 191.097 244.953 191.706" stroke="black" stroke-linecap="round" stroke-linejoin="round"/>
<path d="M229.248 194.53C228.055 194.399 227.421 192.653 227.253 191.796C228.613 191.004 230.182 190.609 231.176 190.718C231.154 192.099 231.236 194.749 229.248 194.53Z" fill="black"/>
<path d="M235.928 193.253C234.786 191.829 233.164 190.937 231.176 190.718M225.933 192.657C226.392 192.327 226.831 192.041 227.253 191.796M227.253 191.796C227.421 192.653 228.055 194.399 229.248 194.53C231.236 194.749 231.154 192.099 231.176 190.718M227.253 191.796C228.613 191.004 230.182 190.609 231.176 190.718" stroke="black" stroke-linecap="round" stroke-linejoin="round"/>
<path d="M237.457 187.206C234.457 185.206 227.457 185.206 225.457 187.206" stroke="black" stroke-linecap="round" stroke-linejoin="round"/>
<path d="M369.567 205.035L366.28 217.508C364.944 222.346 360.179 232.522 351.755 232.522C338.567 232.522 334.569 210.037 333.567 207.535C332.366 204.535 331.567 209.035 328.067 203.035C324.567 197.035 326.067 192.035 331.567 195.035C329.567 191.035 319.065 184.543 320.067 175.535C322.071 166.026 327.333 169.176 326.067 164.535C324.567 159.035 327.067 155.535 330.567 154.035C334.067 152.535 336.567 154.535 339.067 153.035C341.567 151.535 342.176 148.874 348.067 147.535C359.067 145.035 360.269 151.946 362.774 154.949C365.567 154.949 370.287 153.747 374.294 156.95C380.028 161.535 382.361 166.035 379.567 175.535C378.685 178.535 375.796 181.534 374.294 182.035C372.791 182.535 374.07 188.034 372.567 189.035C371.064 190.036 368.784 195.487 370.287 194.486C375.567 190.035 377.503 197.308 374.067 203.035C371.067 208.035 371.404 204.367 369.567 205.035Z" fill="black" stroke="black"/>
<path d="M354.067 177.535C350.567 179.025 348.067 182.508 341.567 178.535C341.401 179.031 341.567 181.535 339.567 184.035C336.491 187.88 333.067 187.442 333.067 189.429C333.067 191.416 333.567 205.821 336.067 215.755C338.067 223.702 343.401 228.71 345.567 230.035C349.067 233.015 354.567 231.859 356.567 230.535C365.567 224.574 366.067 215.521 366.567 213.535C367.067 211.548 368.067 206.002 368.567 201.035C368.816 198.563 369.067 191.989 369.567 185.035C364.567 184.041 364.567 181.035 361.567 182.535C357.967 183.329 355.067 180.535 354.067 177.535Z" fill="white" stroke="black" stroke-linecap="round" stroke-linejoin="round"/>
<path d="M356.067 218.535C356.067 218.535 353.532 219.397 351.832 219.517C349.965 219.648 347.067 219.026 347.067 219.026" stroke="black" stroke-linecap="round"/>
<path d="M358.303 202.535C359.362 202.535 359.891 201.069 360.205 199.535C359.102 199.528 357.794 199.692 356.481 200.191C356.911 200.972 357.456 202.535 358.303 202.535Z" fill="black"/>
<path d="M354.067 201.557C354.842 200.945 355.662 200.503 356.481 200.191M363.067 200.091C362.826 199.868 361.705 199.544 360.205 199.535M360.205 199.535C359.891 201.069 359.362 202.535 358.303 202.535C357.456 202.535 356.911 200.972 356.481 200.191M360.205 199.535C359.102 199.528 357.794 199.692 356.481 200.191" stroke="black" stroke-linecap="round"/>
<path d="M341.303 203.533C339.794 203.604 339.434 200.596 339.434 200.596C340.431 200.478 341.675 200.513 343.126 200.858C343.126 200.858 342.716 203.467 341.303 203.533Z" fill="black"/>
<path d="M337.067 201.356C337.502 201.058 338.31 200.729 339.434 200.596M346.067 201.9C345.013 201.407 344.03 201.072 343.126 200.858M339.434 200.596C339.434 200.596 339.794 203.604 341.303 203.533C342.716 203.467 343.126 200.858 343.126 200.858M339.434 200.596C340.431 200.478 341.675 200.513 343.126 200.858" stroke="black" stroke-linecap="round"/>
<path d="M355.067 194.753C357.067 193.276 360.067 191.798 362.067 193.276M338.067 193.276C340.067 191.798 344.849 192.406 347.067 196.231C349.067 199.679 349.567 208.545 348.067 210.023C346.567 211.5 345.067 213.963 354.067 213.471" stroke="black" stroke-linecap="round"/>
<path d="M369.567 207.035C369.916 205.188 370.159 202.61 370.159 198.843C370.159 194.041 374.692 194.41 373.994 200.32C373.631 203.399 372.734 205.735 370.159 208.379C370.008 208.535 371.901 204.768 369.567 207.035Z" fill="white"/>
<path d="M334.068 211.034C333.251 208.317 331.57 201.333 331.321 198.315C331.074 195.337 327.068 197.535 328.096 201.527C328.277 202.231 329.047 203.931 329.991 205.132C330.432 205.694 331.179 206.295 331.321 206.634C333.568 212.034 334.699 213.138 334.068 211.034Z" fill="white"/>
<path d="M434.023 192.355C433.431 173.812 444.317 163.493 452.323 158.875C455.754 155.989 462.153 149.279 465.476 149.063C483.205 147.908 502.076 162.916 504.364 179.656C506.651 196.396 502.076 210.827 501.505 220.062C501.341 222.706 501.505 224.681 500.361 222.372C499.423 220.479 499.217 220.063 495.786 220.64C487.808 221.982 484.92 213.713 483.205 213.136C480.492 212.223 471.195 206.786 463.761 209.672C456.326 212.558 461.638 218.33 458.042 220.639C455.754 222.948 446.604 226.412 445.461 226.412C444.317 226.412 443.745 227.567 442.601 226.99C441.457 226.412 441.458 228.721 440.886 228.144C440.314 227.566 439.17 225.257 439.17 228.144C439.17 231.03 438.598 231.03 437.454 224.68C436.311 218.33 434.595 210.249 434.023 192.355Z" fill="black" stroke="black"/>
<path d="M445 188.39C445 181.046 447.289 172.572 455.298 168.052C469.03 166.922 480.663 184.436 484.478 191.78C490.771 187.26 491.498 193.993 490.771 196.865C489.627 201.384 487.093 199.124 486.194 205.339C485.622 209.293 484.239 212.046 477.612 216.073C470.174 220.592 465.025 221.722 460.448 220.592C458.159 220.028 455.298 216.073 453.01 212.118C451.574 209.636 451.294 209.293 449.577 205.904C447.861 202.514 445 192.91 445 188.39Z" fill="white" stroke="black"/>
<path d="M465 187C467.316 184.296 473.684 182.96 476 184.964" stroke="black" stroke-linecap="round" stroke-linejoin="round"/>
<path d="M461 204.495C460.278 204.876 458.617 205.41 457.75 204.495C455.583 202.207 456.125 202.779 457.75 199.92C458.292 198.967 459.375 196.603 459.375 194.773C459.375 192.486 459.917 187.625 456.125 185.623C453.958 184.48 449.625 185.052 448 186.195" stroke="black" stroke-linecap="round" stroke-linejoin="round"/>
<path d="M458.949 193.151C459.861 192.694 461.608 192.961 462.367 193.151M458.949 193.151C458.38 192.388 456.899 190.748 455.532 190.29C453.823 189.718 448.696 188.001 443 191.435C444.139 194.296 447.165 198.391 449.266 199.446C451.544 200.59 454.962 200.59 456.671 198.301C458.38 196.012 458.949 193.724 458.949 193.151ZM462.367 193.151C464.646 190.862 466.947 189.469 469.203 189.146C473.19 188.574 477.747 189.718 482.304 192.007M462.367 193.151C462.367 193.724 462.481 194.181 462.937 196.012C463.392 197.844 464.076 199.827 466.354 200.59C467.77 201.064 470.114 201.391 473.759 200.018C476.583 198.954 479.475 196.449 481.165 194.044M482.304 192.007C482.047 192.652 481.657 193.344 481.165 194.044M482.304 192.007L488 189.718V190.863L481.165 194.044" stroke="black" stroke-linecap="round" stroke-linejoin="round"/>
<path d="M471.739 196.391C473.096 196.391 473.812 194.361 474 193.345C473.301 192.807 472.042 192.156 470.609 192.024C470.42 193.48 470.383 196.391 471.739 196.391Z" fill="black"/>
<path d="M454.217 197C455.348 197 455.913 194.563 455.913 193.345C454.783 192.736 454.176 192.571 452.522 192.664C452.522 194.109 453.087 197 454.217 197Z" fill="black"/>
<path d="M466.652 193.345C467.928 192.2 469.337 191.907 470.609 192.024M470.609 192.024C472.042 192.156 473.301 192.807 474 193.345C473.812 194.361 473.096 196.391 471.739 196.391C470.383 196.391 470.42 193.48 470.609 192.024ZM448 194.564C449.114 193.363 450.914 192.754 452.522 192.664M452.522 192.664C454.176 192.571 454.783 192.736 455.913 193.345C455.913 194.564 455.348 197 454.217 197C453.087 197 452.522 194.109 452.522 192.664Z" stroke="black" stroke-linecap="round" stroke-linejoin="round"/>
<path d="M462 211.707C463.2 212.414 466.8 211.707 468 211" stroke="black" stroke-linecap="round" stroke-linejoin="round"/>
<path d="M33.0042 293.358C38.5042 290.358 52.4701 287.392 58.5042 293.858C66.5495 290.873 75.4985 302.384 76.5042 307.358C77.5098 312.331 79.9197 314.98 79.9197 324.928C79.9197 330.52 77.9083 333.383 77.4055 338.855C76.9026 344.326 83.431 350.294 83.9339 356.263C84.4367 362.232 82.4253 371.184 71.8658 369.692C61.3062 368.2 61.058 353.865 61.058 349.389C58.5438 352.373 54.0183 355.357 51.5041 355.357C48.9899 355.357 45.4701 354.86 40.4417 350.881C42.9559 362.818 33.6502 368.698 27.6161 368.698C21.5821 368.698 14.5424 363.226 14.0395 356.263C13.5367 349.3 18.007 345.81 17.5042 336.857C16.6102 320.941 17.4843 310.329 21.0042 304.858C24.5137 299.403 28.0042 296.085 33.0042 293.358Z" fill="black"/>
<path d="M41.0039 312.358C37.5039 312.881 33.5039 317.145 33.5039 323.858C33.5039 324.017 33.0039 326.048 33.0039 331.802C33.0039 338.994 35.3301 343.525 37.9335 346.186C42.5039 350.858 45.8208 353.857 50.7504 353.857C55.68 353.857 59.5039 349.858 63.5673 344.268C66.6435 340.036 67.5109 333.72 68.0039 323.651C68.0039 322.692 68.5039 319.858 68.0039 317.358C60.0039 316.858 59.9969 309.419 59.5039 310.858C55.0039 319.858 47.4124 311.399 41.0039 312.358Z" fill="white"/>
<path d="M48.0039 345.357C49.0039 345.855 50.8302 346.359 52.0039 346.357C52.9271 346.356 54.0039 346.355 55.5039 345.857" stroke="black" stroke-linecap="round" stroke-linejoin="round"/>
<path d="M38.0039 325.857C40.0039 321.956 46.0039 321.956 49.0039 325.3C47.6706 324.743 47.5191 323.628 43.0039 323.628C40.1918 323.628 39.0039 325.114 38.0039 325.857Z" fill="black" stroke="black" stroke-linecap="round" stroke-linejoin="round"/>
<path d="M57.957 322.849C62.357 321.642 64.957 323.519 65.957 324.86C65.957 324.86 63.957 323.73 60.957 323.352C57.6677 322.937 55.5039 324.358 55.5039 324.358C56.1452 323.653 56.9507 323.125 57.957 322.849Z" fill="black"/>
<path d="M49.5039 338.86C50.3372 338.86 52.5039 340.86 53.5039 340.358C56.5039 338.849 53.7275 337.157 53.5039 335.358C53.0954 332.071 52.64 327.502 55.5039 324.358M55.5039 324.358C56.1452 323.653 56.9507 323.125 57.957 322.849C62.357 321.642 64.957 323.519 65.957 324.86C65.957 324.86 63.957 323.73 60.957 323.352C57.6677 322.937 55.5039 324.358 55.5039 324.358Z" stroke="black" stroke-linecap="round" stroke-linejoin="round"/>
<path d="M44.5039 329.857C46.2368 329.857 46.5511 327.83 46.5746 326.578C45.1797 325.676 43.6095 325.723 42.2059 326.162C42.2319 326.154 42.0039 329.857 44.5039 329.857Z" fill="black"/>
<path d="M39.0039 327.957C39.7465 327.315 40.9046 326.569 42.2059 326.162M48.0039 327.957C47.5612 327.356 47.0794 326.905 46.5746 326.578M46.5746 326.578C46.5511 327.83 46.2368 329.857 44.5039 329.857C42.0039 329.857 42.2319 326.154 42.2059 326.162M46.5746 326.578C45.1797 325.676 43.6095 325.723 42.2059 326.162" stroke="black" stroke-linecap="round" stroke-linejoin="round"/>
<path d="M59.7934 329.857C61.3872 329.857 62.032 327.831 62.1618 326.383C61.0332 325.829 59.1935 325.549 57.8986 326.383C57.9809 326.328 57.8986 329.857 59.7934 329.857Z" fill="black"/>
<path d="M56.0039 328.368C56.3864 327.7 56.9513 326.992 57.8986 326.383M65.0039 328.368C64.1781 327.503 62.7416 326.667 62.1618 326.383M62.1618 326.383C62.032 327.831 61.3872 329.857 59.7934 329.857C57.8986 329.857 57.9809 326.328 57.8986 326.383M62.1618 326.383C61.0332 325.829 59.1935 325.549 57.8986 326.383" stroke="black" stroke-linecap="round" stroke-linejoin="round"/>
<path d="M69.5042 323.358C71.8112 318.743 76.5869 324.325 68.5042 332.858C68.2184 333.143 68.8233 329.918 69.0042 327.358C69.1397 325.438 69.0042 324.358 69.5042 323.358Z" fill="white"/>
<path d="M29.0038 319.857C31.1082 318.805 31.5038 320.876 31.5038 322.357C31.5038 324.357 31.4822 324.956 31.5038 326.357C31.528 327.931 31.5038 328.857 31.5038 330.857C31.5038 331.843 31.9232 334.21 31.151 333.357C29.3407 331.358 25.0038 321.857 29.0038 319.857Z" fill="white"/>
<path d="M20.3496 367.248C17.6335 365.749 16.0039 361.252 16.0039 355.256C16.0039 352.461 17.6335 349.26 17.0903 351.758C16.0039 359.253 18.7199 363.251 20.3496 365.25C21.9792 367.248 23.0656 368.747 20.3496 367.248Z" fill="white"/>
<path d="M81.2968 368.551C82.0676 368.551 84.7359 363.428 81.7284 358.084C79.6839 355.061 82.4418 360.63 82.0003 364.037C81.5588 367.443 78.9948 368.553 81.2968 368.551Z" fill="white"/>
<path d="M84.2417 365.743C84.9861 365.545 86.2377 359.909 81.9495 355.515C79.1922 353.118 83.2974 357.793 83.7527 361.199C84.208 364.605 82.0184 366.335 84.2417 365.743Z" fill="white"/>
<path d="M185.162 332.601C186.648 329.604 191.705 328.469 187.5 339.568C186.374 342.54 185.482 343.569 183.5 345.068C183.004 349.897 181.5 360.068 179 364.068C178.062 365.568 173 369.568 169 369.568C165 369.568 158.399 367.57 156.912 362.075C155.425 356.58 153.491 350.062 152.5 344.068C151.717 339.334 148.487 345.09 147 334.1C147 326.107 150.469 329.104 150.965 331.102V325.108C149.5 305.568 146.798 305.181 149.5 298.568C152.969 290.075 162.859 289.639 168.311 290.139C173.763 290.638 177.067 294.968 178.223 297.632C179.5 294.568 185.162 295.503 187.144 298.068C189.075 300.565 188.5 302.569 188.5 304.568C188.5 306.166 187.82 309.068 187.144 313.068C186.299 318.068 186.541 319.073 186.299 321.611C185.649 328.447 185.282 331.994 185.162 332.601Z" fill="black"/>
<path d="M178.223 297.632C179.5 294.568 185.162 295.503 187.144 298.068C189.075 300.565 188.5 302.569 188.5 304.568C188.5 306.166 187.82 309.068 187.144 313.068C186.299 318.068 186.541 319.073 186.299 321.611M178.223 297.632C178.223 298.631 178.223 297.632 177.728 300.13M178.223 297.632C177.067 294.968 173.763 290.638 168.311 290.139C162.859 289.639 152.969 290.075 149.5 298.568C146.798 305.181 149.5 305.568 150.965 325.108M177.728 300.13C177.232 302.628 176.241 317.614 183.675 320.612C184.864 321.011 185.92 321.444 186.299 321.611M177.728 300.13C177.632 301.129 172.956 308.569 168 310.568C163.044 312.566 157.903 310.121 155.425 309.621C152.947 309.122 151.46 309.621 150.965 310.121C150.568 310.521 150.8 320.279 150.965 325.108M186.299 321.611C185.649 328.447 185.282 331.994 185.162 332.601C186.648 329.604 191.705 328.469 187.5 339.568C186.374 342.54 185.482 343.569 183.5 345.068C183.004 349.897 181.5 360.068 179 364.068C178.062 365.568 173 369.568 169 369.568C165 369.568 158.399 367.57 156.912 362.075C155.425 356.58 153.491 350.062 152.5 344.068C151.717 339.334 148.487 345.09 147 334.1C147 326.107 150.469 329.104 150.965 331.102V325.108" stroke="black"/>
<path d="M184.5 333.567C186 331.067 190.381 327.896 187.5 339.067C186.339 343.567 185.078 344.559 182.216 346.067C181.735 350.763 180.134 360.519 178.213 363.239C175.812 366.639 171.5 369.067 168.609 369.067C165.5 369.067 158.441 366.91 157 361.567C155.559 356.225 153.96 349.896 153 344.067C152.795 342.822 151.309 343.398 150.842 343.067C149.583 342.176 148.551 341.861 147.5 334.067C147.5 326.296 150.63 330.453 151 331.567L151 325.567C150.84 320.872 150.457 311.17 150.842 310.782C151.322 310.296 152.762 309.81 155.163 310.296C157.564 310.782 160.32 313.067 165.5 313.067C170.84 313.067 174.207 310.684 174.483 309.656C174.489 309.626 174.494 309.596 174.5 309.567C174.497 309.596 174.492 309.625 174.483 309.656C174.052 312.141 175.418 318.102 182.535 320.982C183.687 321.37 184.71 321.791 185.078 321.953C184.447 328.6 184.617 332.977 184.5 333.567Z" fill="white"/>
<path d="M164 355.067C165.5 356.067 171.127 355.466 171.5 355.067" stroke="black" stroke-linecap="round" stroke-linejoin="round"/>
<path d="M154 324.729C156.455 323.239 165.291 322.245 166.764 328.207C168.236 334.169 164.509 344.074 165 345.067C165.393 345.862 167.273 347.067 168.5 347.067M171.182 325.723C172.164 324.729 176.582 321.749 181 323.736" stroke="black" stroke-linecap="round" stroke-linejoin="round"/>
<path d="M189.109 321.508C188.899 319.394 187.867 317.47 185.479 315.427C183.644 313.858 183.588 315 185.441 316.734C186.34 317.575 188.574 321.2 188.784 323.314C188.995 325.428 189.319 323.623 189.109 321.508Z" fill="white"/>
<path d="M187.109 321.508C186.899 319.394 185.867 317.47 183.479 315.427C181.644 313.858 181.588 315 183.441 316.734C184.34 317.575 186.574 321.2 186.784 323.314C186.995 325.428 187.319 323.623 187.109 321.508Z" fill="white"/>
<path d="M176.706 333.067C175.294 333.067 175.2 331.27 174.824 330.187C176.089 330.004 177.464 330.015 178.588 330.336C178.588 330.336 178.118 333.067 176.706 333.067Z" fill="#040404"/>
<path d="M172 331.031C172.698 330.654 173.719 330.346 174.824 330.187M180 331.031C179.615 330.719 179.131 330.491 178.588 330.336M174.824 330.187C175.2 331.27 175.294 333.067 176.706 333.067C178.118 333.067 178.588 330.336 178.588 330.336M174.824 330.187C176.089 330.004 177.464 330.015 178.588 330.336" stroke="black" stroke-linecap="round" stroke-linejoin="round"/>
<path d="M161 333.067C159 333.067 158.5 330.312 158.5 330.312C159.776 329.964 161.539 330.008 162.5 330.312C162.5 330.312 162.159 333.067 161 333.067Z" fill="#040404"/>
<path d="M164 331.414C163.62 330.995 163 330.471 162.5 330.312M156 331.414C156.845 330.749 157.69 330.533 158.5 330.312M158.5 330.312C158.5 330.312 159 333.067 161 333.067C162.159 333.067 162.5 330.312 162.5 330.312M158.5 330.312C159.776 329.964 161.539 330.008 162.5 330.312" stroke="black" stroke-linecap="round" stroke-linejoin="round"/>
<path d="M273 327.458C274.256 326.791 278.385 326.906 280 327.458" stroke="black"/>
<path d="M295 329C297.692 327.268 301.462 328.134 302 329" stroke="black"/>
<path d="M266.552 304.977C265.553 304.479 262.556 307.97 263.056 319.443C263.222 321.106 263.655 323.833 264.055 321.439C264.554 318.446 269.549 310.963 269.549 312.959C269.549 314.954 270.048 317.947 271.047 315.453C272.046 312.959 277.541 306.973 283.535 312.959C289.528 318.945 299.019 315.952 302.515 315.453C306.011 314.954 308.009 315.952 308.009 317.947C308.009 319.942 310.507 317.947 311.506 321.439C312.505 324.931 310.397 334.128 312.505 329.919C316.001 322.935 317 316.45 317 313.956C317 311.462 313.504 311.462 313.504 309.966C313.504 300.987 311.506 299.989 309.508 298.991C307.897 298.187 303.014 297.994 302.015 295.5C301.017 293.005 304.014 293.504 302.515 292.507C301.017 291.509 297.021 293.005 295.023 293.005C293.025 293.005 291.526 290.511 295.522 290.511C296.521 290.511 293.524 286.521 287.531 291.509C283.826 295.001 279.539 294.003 282.536 292.507C283.535 292.008 283.035 291.01 279.039 293.005C274.623 295.211 272.047 301.486 272.047 304.977C272.047 304.645 271.247 304.079 270.049 304.478C268.051 305.144 267.052 308.968 266.552 307.471C265.92 305.579 267.184 305.293 266.552 304.977Z" fill="black"/>
<path d="M314.764 301.418C310.807 302.365 306.098 314.7 300.491 316.556C297.552 317.529 294.395 320.291 296.922 319.975C308.647 318.51 310.075 304.396 315.274 301.906C316.293 301.418 318.842 300.441 314.764 301.418Z" fill="white"/>
<path d="M312.107 309.185C311.012 311.639 306.797 317.21 302.957 318.458C300.943 319.112 300.285 321.476 301.929 320.915C309.121 318.458 310.628 314.618 312.204 311.089C313.328 308.571 313.231 306.667 312.107 309.185Z" fill="white"/>
<path d="M318.919 336.375C319.691 332.402 314.733 331.968 312.64 334.906L312.117 337.354C313.163 334.906 316.721 334.319 316.303 337.844C315.78 342.251 310.389 345.292 310.024 346.658C309.5 348.617 317.873 341.761 318.919 336.375Z" fill="black"/>
<path d="M261.03 335.902C260.623 332.184 264.432 331.798 265.816 336.154C265.816 336.333 266 337.098 266 338.387C265.529 335.7 263.811 334.633 262.765 336.154C261.403 338.504 264.086 344.53 263.386 343.963C263.076 343.712 261.501 340.201 261.03 335.902Z" fill="black"/>
<path d="M292 369.055C308 357.541 310 352.535 313 334.513H312.5C311 339.519 310.5 347.529 306.5 354.037C303.498 358.92 294.833 366.385 291.5 368.554C286.5 371.558 281.5 370.056 276.5 364.549C270.139 358.324 268 353.035 267.5 350.532C267.167 347.195 266.5 341.221 266.5 340.02C266.5 338.518 266 333.512 265.5 331.009C265 328.505 265 328.005 264.5 324C264.5 324.167 264.4 324.901 264 326.503C264.5 328.005 265 332.01 265.5 335.013C266 338.017 266.5 346.527 267 352.034C267.409 356.54 279 368.054 281 369.556C283 371.057 288 372.059 292 369.055Z" fill="black"/>
<path d="M280 355C282.105 356.865 287.053 357.735 290 356.243" stroke="black" stroke-linecap="round" stroke-linejoin="round"/>
<path d="M309 331L313 333.727L312 337L309 335.364V331Z" fill="black"/>
<path d="M265 331.111L266.5 330L267 334.444L265.5 335L265 331.111Z" fill="black"/>
<path d="M266.5 329.71C275 328.691 280 328.691 284.5 330.219C284.5 331.324 284.471 332.756 284.314 334.291M266.5 329.71L265 330.728L265.5 334.291L266.821 333.782M266.5 329.71C266.5 330.798 266.585 332.23 266.821 333.782M284.314 334.291C283.822 339.121 282.07 344.982 276 344.982C271.716 344.982 269.296 341.916 267.972 338.364C267.411 336.858 267.046 335.266 266.821 333.782M284.314 334.291H290.5M290.5 334.291C290.5 333.782 290.5 332.357 290.5 330.728C296.9 328.691 305.5 330.219 309 331.237M290.5 334.291C291 340.4 292.5 346 299 346C304.396 346 307.725 341.439 308.7 335.229M309 331.237L313 333.782L312 336.837L308.7 335.229M309 331.237C309 332.62 308.899 333.959 308.7 335.229" stroke="black" stroke-linecap="round" stroke-linejoin="round"/>
<path d="M298.413 339C296.381 339 296.889 336.659 296.889 335.489C297.987 335.285 299.273 335.276 300.796 335.694C300.509 336.796 300.444 339 298.413 339Z" fill="black"/>
<path d="M277.079 338.517C275.08 338.517 275.386 336.25 275.556 335.132C276.746 334.942 278.062 334.952 279.294 335.196C279.233 336.303 279.079 338.517 277.079 338.517Z" fill="black"/>
<path d="M293.841 336.583C294.667 336.19 295.66 335.717 296.889 335.489M304 337.066C302.828 336.397 301.764 335.959 300.796 335.694M296.889 335.489C296.889 336.659 296.381 339 298.413 339C300.444 339 300.509 336.796 300.796 335.694M296.889 335.489C297.987 335.285 299.273 335.276 300.796 335.694M272 336.583C272.664 335.95 274.003 335.38 275.556 335.132M281.651 336.099C280.95 335.654 280.142 335.363 279.294 335.196M275.556 335.132C275.386 336.25 275.08 338.517 277.079 338.517C279.079 338.517 279.233 336.303 279.294 335.196M275.556 335.132C276.746 334.942 278.062 334.952 279.294 335.196" stroke="black" stroke-linecap="round" stroke-linejoin="round"/>
<path d="M281 346C281 348.222 283.357 351 285 351C286.643 351 289.5 349.333 291 347.111" stroke="black" stroke-linecap="round" stroke-linejoin="round"/>
<path d="M265.628 307.348C266.491 305.561 263.215 310.846 264.18 318.839C264.542 321.837 264.714 318.371 266.11 315.842C268.041 312.345 270.936 310.346 270.454 311.345C269.971 312.344 270.936 316.841 270.936 315.342C270.936 309.347 272.384 309.347 271.902 308.347C271.419 307.348 266.593 313.843 265.145 315.842C263.697 317.84 264.662 309.347 265.628 307.348Z" fill="white"/>
<path d="M382.455 304.8C394.455 290.8 415.455 287.8 426.955 303.8C446.955 307.3 430.955 344.8 444.955 366.3C439.955 367.8 424.455 370.8 420.455 359.3C416.455 347.8 418.455 352.8 399.955 357.8C381.455 362.8 376.455 365.8 376.455 363.3C379.455 331.3 370.455 318.8 382.455 304.8Z" fill="black" stroke="black"/>
<path d="M419.955 328.8C414.955 324.3 409.955 321.3 413.955 309.8C410.955 307.3 401.455 302.8 391.455 308.8C381.455 314.8 379.955 327.3 382.955 338.8C385.955 350.3 383.955 353.8 396.455 362.3C401.955 366.8 415.955 357.8 419.955 343.8C432.455 334.3 427.955 328.8 425.455 328.8C422.955 328.8 421.955 329.8 420.955 332.8C419.955 335.8 419.955 332.3 419.955 328.8V328.8Z" fill="white" stroke="black"/>
<path d="M390.5 335.3C392 335.3 392.5 334.3 393.082 332.3C391.551 331.488 389.641 331.247 387.955 331.309C387.955 334.8 389.5 335.3 390.5 335.3Z" fill="black"/>
<path d="M394.455 333.3C394.053 332.898 393.588 332.568 393.082 332.3M384.5 332.3C384.96 331.839 386.041 331.379 387.955 331.309M393.082 332.3C392.5 334.3 392 335.3 390.5 335.3C389.5 335.3 387.955 334.8 387.955 331.309M393.082 332.3C391.551 331.488 389.641 331.247 387.955 331.309" stroke="black" stroke-linecap="round" stroke-linejoin="round"/>
<path d="M396.455 332.8C397.455 336.8 397.455 341.8 394.955 345.3C394.955 345.966 395.555 347.3 397.955 347.3C399.555 347.3 400.955 346.633 401.455 346.3" stroke="black" stroke-linecap="round" stroke-linejoin="round"/>
<path d="M404.955 351.8C400.455 354.3 397.455 353.8 394.455 352.3" stroke="black" stroke-linecap="round" stroke-linejoin="round"/>
<path d="M407.455 334.8C409.455 334.8 410.103 332.017 410.177 330.626C408.37 330.153 406.696 330.348 405.28 330.837C405.171 332.158 405.455 334.8 407.455 334.8Z" fill="black"/>
<path d="M401.455 333.3C402.179 332.495 403.533 331.442 405.28 330.837M411.955 331.3C411.352 330.998 410.757 330.777 410.177 330.626M410.177 330.626C410.103 332.017 409.455 334.8 407.455 334.8C405.455 334.8 405.171 332.158 405.28 330.837M410.177 330.626C408.37 330.153 406.696 330.348 405.28 330.837" stroke="black" stroke-linecap="round" stroke-linejoin="round"/>
<path d="M400.455 326.3C402.455 325.133 407.155 322.9 409.955 323.3" stroke="black" stroke-linecap="round" stroke-linejoin="round"/>
<path d="M392.455 326.3C388.455 324.3 385.122 323.8 383.955 323.8" stroke="black" stroke-linecap="round" stroke-linejoin="round"/>
<path d="M552 310.041C554 313.541 553 317.541 554 317.041C554.5 302.041 549.535 299.532 546.5 297.542C543.465 295.551 536.296 293.244 527.191 294.239C518.086 295.234 511.51 300.708 507.97 306.679C504.706 312.183 505.441 322.104 505.946 327.08C504.935 327.578 501.9 330.066 503.417 335.041C503.417 329.568 503.638 328.713 505.946 327.578C507.97 326.582 510.499 328.512 510.499 331.041C510.499 334.01 513 336.541 512.5 325.041C512.347 321.53 515.004 320.518 515.5 317.541C517 308.541 510.5 307.904 510.5 306.541C510.5 304.404 515.419 309.657 519 310.541C522.581 311.426 528.495 312.963 536.5 312.541C546 312.041 551 308.291 552 310.041Z" fill="black"/>
<path d="M554.069 332.073C554.069 334.373 553.134 339.031 552.5 343.042M552.5 343.042C551.71 348.034 550.952 350.553 548.5 354.542C543.889 362.042 540.5 365.542 534 365.542C527.5 365.542 514.367 359.042 511.353 346.06C509.614 338.567 507.836 342.563 504.821 338.068C501.805 333.572 502.81 328.576 505.826 327.078C505.156 322.915 504.821 314.589 506.328 310.094C507.964 305.215 513.386 293.032 533.967 294.109C553.063 295.108 554.069 310.593 554.069 325.579C560.5 325.579 555.866 338.046 552.5 343.042Z" stroke="black" stroke-linecap="round" stroke-linejoin="round"/>
<path d="M549 324.644C547 323.634 542.5 323.639 540 326.671" stroke="black" stroke-linecap="round" stroke-linejoin="round"/>
<path d="M532.5 326.485C530.5 324.486 527 322.986 522 324.986M537.5 328.984C538 332.483 538.5 337.042 540.5 343.542C540.1 345.141 536.833 345.208 536 345.042" stroke="black" stroke-linecap="round" stroke-linejoin="round"/>
<path d="M529 350.042C532 351.042 536 351.542 539 351.042" stroke="black" stroke-linecap="round" stroke-linejoin="round"/>
<path d="M545.235 334.042C547.353 334.042 547.706 330.913 547.882 329.348C546.237 328.79 544.623 329.038 543.118 329.734C542.765 331.17 543.355 334.042 545.235 334.042Z" fill="black"/>
<path d="M541 331.031C541.674 330.52 542.383 330.074 543.118 329.734M550 330.53C549.292 329.971 548.584 329.586 547.882 329.348M547.882 329.348C547.706 330.913 547.353 334.042 545.235 334.042C543.355 334.042 542.765 331.17 543.118 329.734M547.882 329.348C546.237 328.79 544.623 329.038 543.118 329.734" stroke="black" stroke-linecap="round" stroke-linejoin="round"/>
<path d="M527.5 334.042C529.5 334.042 529.898 331.101 529.847 329.63C528.037 328.751 526.497 328.945 525.134 329.63C525.09 331.101 525.5 334.042 527.5 334.042Z" fill="black"/>
<path d="M522 332.081C523 331.101 523.98 330.212 525.134 329.63M532 331.101C531.241 330.44 530.525 329.96 529.847 329.63M529.847 329.63C529.898 331.101 529.5 334.042 527.5 334.042C525.5 334.042 525.09 331.101 525.134 329.63M529.847 329.63C528.037 328.751 526.497 328.945 525.134 329.63" stroke="black" stroke-linecap="round" stroke-linejoin="round"/>
<path d="M513.444 323.416C512.597 320.985 512.571 321.103 511.111 317.685C511.142 317.13 511.501 316.68 512.691 319.319C513.88 321.959 513.99 324.981 513.444 323.416Z" fill="white"/>
<path d="M515.999 324.294C515.031 321.516 515.01 321.648 513.376 317.731C513.382 317.106 513.727 316.614 515.052 319.642C516.377 322.671 516.623 326.084 515.999 324.294Z" fill="white"/>
</svg>
