<svg width="143" height="34" viewBox="0 0 143 34" fill="none" xmlns="http://www.w3.org/2000/svg">
<path d="M32.6768 17C32.6768 26.3888 25.3619 34 16.3384 34C7.31496 34 0 26.3888 0 17C0 7.61116 7.31496 0 16.3384 0C25.3619 0 32.6768 7.61116 32.6768 17ZM2.00484 17C2.00484 25.2368 8.4222 31.914 16.3384 31.914C24.2546 31.914 30.672 25.2368 30.672 17C30.672 8.76323 24.2546 2.08602 16.3384 2.08602C8.4222 2.08602 2.00484 8.76323 2.00484 17Z" fill="#1E1F21"/>
<path fill-rule="evenodd" clip-rule="evenodd" d="M16.3383 27.1647C21.7338 27.1647 26.1077 22.6137 26.1077 16.9998C26.1077 11.3858 21.7338 6.83482 16.3383 6.83482C10.9429 6.83482 6.56896 11.3858 6.56896 16.9998C6.56896 22.6137 10.9429 27.1647 16.3383 27.1647ZM18.191 18.5777C20.1911 18.5777 21.8124 16.8907 21.8124 14.8096C21.8124 12.7286 20.1911 11.0416 18.191 11.0416C16.191 11.0416 14.5696 12.7286 14.5696 14.8096C14.5696 16.8907 16.191 18.5777 18.191 18.5777Z" fill="#1E1F21"/>
<path d="M49.7864 13.007C49.5058 12.6516 49.1582 12.3787 48.7434 12.1883C48.3408 11.9979 47.8711 11.9027 47.3344 11.9027C46.7976 11.9027 46.2974 12.0106 45.8338 12.2264C45.3825 12.4422 44.986 12.7468 44.6444 13.1403C44.315 13.5211 44.0527 13.9781 43.8576 14.5112C43.6746 15.0443 43.5831 15.6219 43.5831 16.2438C43.5831 16.8785 43.6746 17.4624 43.8576 17.9955C44.0527 18.5159 44.315 18.9729 44.6444 19.3664C44.9738 19.7472 45.3581 20.0455 45.7972 20.2613C46.2486 20.4771 46.7305 20.585 47.2429 20.585C47.8284 20.585 48.3469 20.458 48.7983 20.2042C49.2497 19.9503 49.6217 19.5949 49.9145 19.1379L52.2934 20.9848C51.7444 21.7845 51.0491 22.3747 50.2073 22.7555C49.3656 23.1363 48.4994 23.3267 47.6089 23.3267C46.5963 23.3267 45.6631 23.1617 44.8091 22.8317C43.9551 22.5017 43.2171 22.032 42.5949 21.4227C41.9727 20.8007 41.4848 20.0518 41.131 19.176C40.7894 18.3002 40.6186 17.3228 40.6186 16.2438C40.6186 15.1649 40.7894 14.1875 41.131 13.3117C41.4848 12.4358 41.9727 11.6933 42.5949 11.084C43.2171 10.462 43.9551 9.98603 44.8091 9.656C45.6631 9.32597 46.5963 9.16096 47.6089 9.16096C47.9748 9.16096 48.353 9.19904 48.7434 9.2752C49.146 9.33867 49.5363 9.44656 49.9145 9.59888C50.3049 9.7512 50.677 9.95429 51.0308 10.2082C51.3846 10.462 51.7017 10.773 51.9823 11.1411L49.7864 13.007Z" fill="#1E1F21"/>
<path d="M59.0745 21.8226H59.0379C58.7329 22.3176 58.3242 22.673 57.8118 22.8888C57.3117 23.1046 56.781 23.2125 56.2198 23.2125C55.8051 23.2125 55.4025 23.149 55.0121 23.0221C54.6339 22.9078 54.2984 22.7301 54.0056 22.489C53.7129 22.2478 53.4811 21.9495 53.3103 21.5941C53.1395 21.2387 53.0541 20.8261 53.0541 20.3565C53.0541 19.8234 53.1456 19.3727 53.3286 19.0046C53.5238 18.6365 53.78 18.3319 54.0971 18.0907C54.4265 17.8495 54.7986 17.6655 55.2134 17.5386C55.6282 17.3989 56.0551 17.2974 56.4943 17.2339C56.9457 17.1705 57.391 17.1324 57.8301 17.1197C58.2815 17.107 58.6963 17.1006 59.0745 17.1006C59.0745 16.5929 58.8976 16.1931 58.5438 15.9011C58.2022 15.5965 57.7935 15.4442 57.3178 15.4442C56.8664 15.4442 56.4516 15.5457 56.0734 15.7488C55.7075 15.9392 55.3781 16.2058 55.0853 16.5485L53.6214 14.9872C54.1337 14.4922 54.7315 14.1241 55.4147 13.8829C56.0978 13.629 56.8054 13.5021 57.5374 13.5021C58.3425 13.5021 59.0013 13.61 59.5137 13.8258C60.0382 14.0289 60.453 14.3335 60.758 14.7397C61.0752 15.1459 61.2948 15.6473 61.4168 16.2438C61.5388 16.8277 61.5997 17.5068 61.5997 18.2811V22.984H59.0745V21.8226ZM58.3974 18.9285C58.19 18.9285 57.9277 18.9412 57.6106 18.9666C57.3056 18.9793 57.0067 19.03 56.7139 19.1189C56.4333 19.2077 56.1893 19.341 55.9819 19.5187C55.7867 19.6964 55.6892 19.9439 55.6892 20.2613C55.6892 20.604 55.8295 20.8579 56.11 21.0229C56.3906 21.1879 56.6834 21.2704 56.9884 21.2704C57.2568 21.2704 57.513 21.2323 57.757 21.1562C58.0131 21.08 58.2388 20.9721 58.434 20.8325C58.6292 20.6929 58.7817 20.5151 58.8915 20.2994C59.0135 20.0836 59.0745 19.8297 59.0745 19.5378V18.9285H58.3974Z" fill="#1E1F21"/>
<path d="M63.3219 13.7306H65.9569V14.9872H65.9935C66.0789 14.8095 66.2009 14.6318 66.3595 14.4541C66.5181 14.2764 66.7072 14.1177 66.9268 13.9781C67.1464 13.8385 67.3964 13.7242 67.677 13.6354C67.9576 13.5465 68.2626 13.5021 68.592 13.5021C69.2141 13.5021 69.7631 13.6354 70.2389 13.9019C70.7269 14.1685 71.0928 14.5874 71.3368 15.1586C71.654 14.562 72.0383 14.1367 72.4897 13.8829C72.9411 13.629 73.4961 13.5021 74.1549 13.5021C74.7527 13.5021 75.2528 13.61 75.6554 13.8258C76.0702 14.0289 76.3935 14.3145 76.6253 14.6826C76.8692 15.038 77.04 15.4632 77.1376 15.9582C77.2474 16.4406 77.3023 16.961 77.3023 17.5195V22.984H74.5575V17.5957C74.5575 17.1641 74.466 16.796 74.283 16.4914C74.1122 16.174 73.8011 16.0154 73.3497 16.0154C73.0325 16.0154 72.7642 16.0725 72.5446 16.1867C72.3372 16.2883 72.1664 16.4342 72.0322 16.6246C71.9102 16.815 71.8187 17.0372 71.7577 17.291C71.7089 17.5449 71.6845 17.8115 71.6845 18.0907V22.984H68.9397V18.0907C68.9397 17.9257 68.9336 17.7226 68.9214 17.4814C68.9092 17.2403 68.8665 17.0118 68.7933 16.796C68.7201 16.5802 68.5981 16.3962 68.4273 16.2438C68.2687 16.0915 68.0308 16.0154 67.7136 16.0154C67.3598 16.0154 67.0732 16.0852 66.8536 16.2248C66.634 16.3517 66.4632 16.5294 66.3412 16.7579C66.2314 16.9737 66.1582 17.2212 66.1216 17.5005C66.085 17.7797 66.0667 18.0717 66.0667 18.3763V22.984H63.3219V13.7306Z" fill="#1E1F21"/>
<path d="M79.5004 13.7306H82.0256V14.9491H82.0622C82.172 14.7841 82.3123 14.6191 82.4831 14.4541C82.6661 14.2764 82.8735 14.1177 83.1053 13.9781C83.3493 13.8385 83.6115 13.7242 83.8921 13.6354C84.1727 13.5465 84.4716 13.5021 84.7888 13.5021C85.4475 13.5021 86.0453 13.6227 86.5821 13.8638C87.1188 14.0923 87.5763 14.4223 87.9545 14.8539C88.3449 15.2728 88.6438 15.7742 88.8512 16.3581C89.0585 16.942 89.1622 17.583 89.1622 18.2811C89.1622 18.9285 89.0646 19.5505 88.8695 20.147C88.6865 20.7309 88.4181 21.2514 88.0643 21.7083C87.7227 22.1653 87.3018 22.5334 86.8017 22.8126C86.3015 23.0792 85.7342 23.2125 85.0999 23.2125C84.5265 23.2125 83.9897 23.1236 83.4895 22.9459C83.0016 22.7555 82.599 22.4382 82.2818 21.9939H82.2452V27.3251H79.5004V13.7306ZM82.0256 18.3573C82.0256 19.0554 82.2147 19.6203 82.5929 20.0518C82.9833 20.4834 83.5261 20.6992 84.2215 20.6992C84.9169 20.6992 85.4536 20.4834 85.8318 20.0518C86.2222 19.6203 86.4174 19.0554 86.4174 18.3573C86.4174 17.6591 86.2222 17.0943 85.8318 16.6627C85.4536 16.2311 84.9169 16.0154 84.2215 16.0154C83.5261 16.0154 82.9833 16.2311 82.5929 16.6627C82.2147 17.0943 82.0256 17.6591 82.0256 18.3573Z" fill="#1E1F21"/>
<path d="M99.3344 22.984H96.6993V21.7274H96.6627C96.5651 21.9051 96.437 22.0828 96.2784 22.2605C96.132 22.4382 95.949 22.5969 95.7294 22.7365C95.5098 22.8761 95.2598 22.9903 94.9792 23.0792C94.6986 23.1681 94.3936 23.2125 94.0642 23.2125C93.3689 23.2125 92.8016 23.1046 92.3624 22.8888C91.9354 22.6603 91.6 22.3493 91.356 21.9558C91.1242 21.5623 90.9656 21.099 90.8802 20.5659C90.807 20.0328 90.7704 19.4553 90.7704 18.8333V13.7306H93.5153V18.2621C93.5153 18.5286 93.5214 18.8079 93.5336 19.0998C93.558 19.3791 93.6129 19.6393 93.6982 19.8805C93.7958 20.1217 93.9361 20.3184 94.1191 20.4707C94.3143 20.623 94.5888 20.6992 94.9426 20.6992C95.2964 20.6992 95.583 20.6357 95.8026 20.5088C96.0222 20.3692 96.1869 20.1915 96.2967 19.9757C96.4187 19.7472 96.498 19.4933 96.5346 19.2141C96.5712 18.9348 96.5895 18.6429 96.5895 18.3382V13.7306H99.3344V22.984Z" fill="#1E1F21"/>
<path d="M106.31 16.4533C105.908 15.9329 105.377 15.6726 104.718 15.6726C104.486 15.6726 104.261 15.7298 104.041 15.844C103.822 15.9582 103.712 16.155 103.712 16.4342C103.712 16.6627 103.822 16.8341 104.041 16.9483C104.273 17.0499 104.56 17.1451 104.901 17.2339C105.255 17.3101 105.627 17.3989 106.017 17.5005C106.42 17.5893 106.792 17.7353 107.134 17.9384C107.488 18.1415 107.774 18.4207 107.994 18.7762C108.226 19.1189 108.341 19.5822 108.341 20.1661C108.341 20.7627 108.213 21.2577 107.957 21.6512C107.713 22.032 107.396 22.343 107.006 22.5842C106.615 22.8126 106.176 22.9713 105.688 23.0602C105.2 23.1617 104.718 23.2125 104.242 23.2125C103.62 23.2125 102.992 23.1236 102.358 22.9459C101.723 22.7555 101.187 22.4255 100.747 21.9558L102.413 20.0328C102.669 20.3628 102.949 20.6167 103.254 20.7944C103.572 20.9594 103.938 21.0419 104.352 21.0419C104.669 21.0419 104.956 20.9975 105.212 20.9086C105.469 20.8071 105.597 20.6294 105.597 20.3755C105.597 20.1343 105.481 19.9566 105.249 19.8424C105.029 19.7155 104.743 19.6139 104.389 19.5378C104.047 19.4489 103.675 19.3601 103.273 19.2712C102.882 19.1697 102.51 19.0237 102.156 18.8333C101.815 18.6429 101.528 18.3763 101.296 18.0336C101.077 17.6782 100.967 17.2085 100.967 16.6246C100.967 16.0788 101.071 15.6092 101.278 15.2157C101.498 14.8222 101.778 14.4985 102.12 14.2446C102.474 13.9908 102.876 13.8067 103.328 13.6925C103.779 13.5655 104.236 13.5021 104.7 13.5021C105.286 13.5021 105.877 13.5909 106.475 13.7686C107.073 13.9463 107.579 14.2637 107.994 14.7206L106.31 16.4533Z" fill="#1E1F21"/>
<path d="M108.225 22.5006C108.66 22.4448 108.981 22.3332 109.19 22.1659C109.398 21.9985 109.571 21.6545 109.708 21.1339L111.951 12.5901C111.992 12.4166 112.028 12.2647 112.058 12.1345C112.111 11.868 112.138 11.6604 112.138 11.5117C112.138 11.208 112.055 11.0158 111.888 10.9353C111.721 10.8547 111.361 10.7896 110.807 10.74V10.2473H115.846C116.972 10.2473 117.845 10.3619 118.464 10.5913C119.602 11.0127 120.171 11.8185 120.171 13.0085C120.171 13.4051 120.076 13.8297 119.885 14.2821C119.694 14.7284 119.376 15.1343 118.929 15.5C118.613 15.7603 118.244 15.9711 117.821 16.1322C117.571 16.2252 117.181 16.3367 116.65 16.4669C116.704 16.6652 116.74 16.7892 116.758 16.8388L118.178 21.1339C118.369 21.7103 118.571 22.0791 118.786 22.2403C119.006 22.3952 119.34 22.482 119.787 22.5006V22.984H116.105L114.131 16.69H113.604L112.522 20.6505L112.371 21.3106C112.359 21.3601 112.35 21.4159 112.344 21.4779C112.338 21.5337 112.335 21.5926 112.335 21.6545C112.335 21.9954 112.412 22.2093 112.567 22.296C112.728 22.3828 113.094 22.451 113.666 22.5006V22.984H108.225V22.5006ZM113.773 16.0671C114.429 16.0547 114.917 16.0113 115.239 15.937C115.811 15.813 116.248 15.5713 116.552 15.2118C116.761 14.9639 116.954 14.6168 117.133 14.1706C117.318 13.7181 117.41 13.2316 117.41 12.711C117.41 12.1779 117.282 11.7379 117.026 11.3908C116.77 11.0375 116.335 10.8609 115.721 10.8609C115.465 10.8609 115.28 10.9198 115.167 11.0375C115.054 11.1491 114.956 11.3722 114.872 11.7069L113.773 16.0671Z" fill="#1E1F21"/>
<path d="M126.953 15.593C126.953 15.3761 126.914 15.1932 126.836 15.0445C126.759 14.8895 126.619 14.812 126.416 14.812C125.988 14.812 125.565 15.1715 125.148 15.8905C124.737 16.6094 124.37 17.6166 124.049 18.912C125.103 18.6641 125.851 18.1868 126.291 17.4802C126.732 16.7737 126.953 16.1446 126.953 15.593ZM121.449 20.2972C121.449 18.8593 121.979 17.4926 123.039 16.1973C124.135 14.8585 125.338 14.1892 126.649 14.1892C127.215 14.1892 127.682 14.3348 128.052 14.6261C128.427 14.9174 128.615 15.3296 128.615 15.8626C128.615 16.6683 128.18 17.4307 127.31 18.1496C126.44 18.8686 125.312 19.3272 123.924 19.5256C123.888 19.7177 123.861 19.8974 123.843 20.0648C123.825 20.2321 123.816 20.3685 123.816 20.4738C123.816 20.8643 123.87 21.1711 123.977 21.3942C124.168 21.8095 124.534 22.0171 125.076 22.0171C125.517 22.0171 125.955 21.7816 126.39 21.3106C126.622 21.0626 126.872 20.7187 127.14 20.2786L127.676 20.604C127.218 21.4035 126.786 21.9892 126.381 22.3611C125.737 22.9561 124.984 23.2536 124.12 23.2536C123.477 23.2536 122.869 23.0119 122.297 22.5285C121.732 22.0388 121.449 21.2951 121.449 20.2972Z" fill="#1E1F21"/>
<path d="M135.083 15.593C135.083 15.3761 135.045 15.1932 134.967 15.0445C134.89 14.8895 134.75 14.812 134.547 14.812C134.119 14.812 133.696 15.1715 133.279 15.8905C132.868 16.6094 132.501 17.6166 132.18 18.912C133.234 18.6641 133.982 18.1868 134.422 17.4802C134.863 16.7737 135.083 16.1446 135.083 15.593ZM129.579 20.2972C129.579 18.8593 130.11 17.4926 131.17 16.1973C132.266 14.8585 133.469 14.1892 134.78 14.1892C135.346 14.1892 135.813 14.3348 136.183 14.6261C136.558 14.9174 136.745 15.3296 136.745 15.8626C136.745 16.6683 136.311 17.4307 135.441 18.1496C134.571 18.8686 133.442 19.3272 132.055 19.5256C132.019 19.7177 131.992 19.8974 131.974 20.0648C131.956 20.2321 131.947 20.3685 131.947 20.4738C131.947 20.8643 132.001 21.1711 132.108 21.3942C132.299 21.8095 132.665 22.0171 133.207 22.0171C133.648 22.0171 134.086 21.7816 134.521 21.3106C134.753 21.0626 135.003 20.7187 135.271 20.2786L135.807 20.604C135.349 21.4035 134.917 21.9892 134.512 22.3611C133.868 22.9561 133.115 23.2536 132.251 23.2536C131.608 23.2536 131 23.0119 130.428 22.5285C129.862 22.0388 129.579 21.2951 129.579 20.2972Z" fill="#1E1F21"/>
<path d="M137.728 21.887C137.728 21.7258 137.767 21.4717 137.844 21.1246C137.88 20.9573 137.94 20.7125 138.023 20.3902L140.185 12.1903C140.239 11.9796 140.278 11.8092 140.302 11.679C140.325 11.5488 140.337 11.4373 140.337 11.3443C140.337 11.0654 140.248 10.895 140.069 10.833C139.891 10.771 139.599 10.7462 139.194 10.7586V10.2473C140.099 10.1543 140.71 10.0861 141.025 10.0428C141.347 9.99317 142.005 9.87231 143 9.68017L140.355 19.6371C140.224 20.1392 140.144 20.4583 140.114 20.5947C140.007 21.0472 139.953 21.3478 139.953 21.4965C139.953 21.6267 139.986 21.7134 140.051 21.7568C140.117 21.8002 140.176 21.8219 140.23 21.8219C140.409 21.8219 140.635 21.6607 140.909 21.3385C141.189 21.0162 141.436 20.6691 141.651 20.2972L142.053 20.5668C141.517 21.4221 141.082 22.0171 140.748 22.3518C140.194 22.9096 139.605 23.1885 138.979 23.1885C138.64 23.1885 138.345 23.0708 138.095 22.8353C137.85 22.5935 137.728 22.2774 137.728 21.887Z" fill="#1E1F21"/>
</svg>
