<svg width="104" height="30" viewBox="0 0 104 30" fill="none" xmlns="http://www.w3.org/2000/svg">
<path d="M27.04 0H31.824V30H27.04V0Z" fill="#1E1F21"/>
<path d="M48.4639 20.4929C48.4639 25.1408 44.7199 25.5633 43.4719 25.5633C40.5599 25.5633 40.1439 22.8169 40.1439 21.338V9.71826H35.3599V21.1267C35.3599 23.8732 36.1919 26.4084 37.8559 27.8873C39.3119 29.3661 41.1839 30 43.4719 30C45.1359 30 47.2159 29.5774 48.4639 28.3098V30H53.2479V9.71826H48.4639V20.4929Z" fill="#1E1F21"/>
<path d="M62.6081 2.32373H57.8241V9.7181H54.2881V14.366H57.8241V29.9998H62.6081V14.366H66.1441V9.7181H62.6081V2.32373Z" fill="#1E1F21"/>
<path d="M81.1201 23.8729C80.0801 24.7179 78.6241 25.3517 77.1681 25.3517C73.8401 25.3517 71.5521 22.8165 71.5521 19.4363C71.5521 16.056 73.8401 13.732 77.1681 13.732C78.6241 13.732 80.0801 14.1546 81.1201 15.2109L81.7441 15.8447L85.0721 12.6757L84.2401 12.0419C82.3681 10.3517 79.8721 9.29541 77.1681 9.29541C71.3441 9.29541 66.9761 13.732 66.9761 19.6475C66.9761 25.563 71.3441 29.9996 77.1681 29.9996C79.8721 29.9996 82.3681 28.9433 84.2401 27.2532L85.0721 26.6194L81.7441 23.2391L81.1201 23.8729Z" fill="#1E1F21"/>
<path d="M101.92 11.4085C100.464 9.92958 99.0079 9.29578 96.7199 9.29578C95.0559 9.29578 93.3919 9.71831 92.1439 10.9859V0H87.3599V30H92.1439V18.8028C92.1439 14.1549 95.2639 13.7324 96.5119 13.7324C99.4239 13.7324 99.2159 16.4789 99.2159 17.9577V29.7887H104V18.169C104 15.4225 103.376 12.8873 101.92 11.4085Z" fill="#1E1F21"/>
<path d="M76.9598 23.0281C78.7978 23.0281 80.2878 21.5147 80.2878 19.6479C80.2878 17.781 78.7978 16.2676 76.9598 16.2676C75.1218 16.2676 73.6318 17.781 73.6318 19.6479C73.6318 21.5147 75.1218 23.0281 76.9598 23.0281Z" fill="#EF4335"/>
<path d="M20.384 22.6052C18.72 24.2953 16.224 25.3517 13.52 25.3517C8.32001 25.3517 4.57601 21.1263 4.57601 15.4221C4.57601 9.71789 8.32001 5.49253 13.728 5.49253C16.224 5.49253 18.72 6.54887 20.592 8.45028L21.216 9.08408L24.336 5.91507L23.712 5.28126C21.008 2.53479 17.472 1.05591 13.728 1.05591C5.82401 0.844645 0 7.18267 0 15.4221C0 23.6615 5.82401 29.9996 13.52 29.9996C17.264 29.9996 21.008 28.5207 23.504 25.7742L24.128 25.1404L21.008 21.9714L20.384 22.6052Z" fill="#1E1F21"/>
</svg>
