<svg width="148" height="39" viewBox="0 0 148 39" fill="none" xmlns="http://www.w3.org/2000/svg">
<mask id="path-1-outside-1_1413_1721" maskUnits="userSpaceOnUse" x="46.1514" y="-0.0756836" width="102" height="35" fill="black">
<rect fill="white" x="46.1514" y="-0.0756836" width="102" height="35"/>
<path d="M65.7566 24.5256C65.7566 27.6954 64.9344 30.0958 63.29 31.7266C61.6691 33.3804 59.1907 34.2073 55.8549 34.2073C54.328 34.2073 52.8245 34.0351 51.3446 33.6905C49.8646 33.3689 48.5021 32.7258 47.2571 31.7611L50.1818 27.4887C51.004 28.1548 51.8614 28.6831 52.7541 29.0736C53.6702 29.4641 54.6686 29.6593 55.7492 29.6593C57.3701 29.6593 58.5564 29.2689 59.3082 28.4879C60.0834 27.7299 60.471 26.7537 60.471 25.5593V23.9399H60.4005C59.7897 24.7438 59.0263 25.3181 58.1101 25.6626C57.2174 25.9842 56.3717 26.145 55.573 26.145C54.3045 26.145 53.1534 25.9383 52.1198 25.5248C51.0862 25.0884 50.1935 24.4912 49.4418 23.7332C48.7135 22.9522 48.1498 22.0334 47.7504 20.9768C47.351 19.9202 47.1514 18.7602 47.1514 17.4969C47.1514 16.3944 47.3276 15.3148 47.6799 14.2582C48.0558 13.2016 48.5726 12.2713 49.2304 11.4674C49.9116 10.6634 50.7338 10.0203 51.697 9.53793C52.6601 9.0326 53.7525 8.77994 54.974 8.77994C55.7257 8.77994 56.407 8.86033 57.0178 9.02112C57.652 9.1819 58.2158 9.38863 58.7091 9.6413C59.2025 9.89396 59.6253 10.1811 59.9777 10.5027C60.3301 10.8013 60.6119 11.0999 60.8234 11.3985H60.8938V9.19339H65.7566V24.5256ZM52.4369 17.4625C52.4369 18.0137 52.5426 18.542 52.7541 19.0474C52.9655 19.5297 53.2591 19.9662 53.635 20.3566C54.0344 20.7242 54.4807 21.0228 54.974 21.2525C55.4908 21.4822 56.0546 21.597 56.6654 21.597C57.2527 21.597 57.8047 21.4822 58.3215 21.2525C58.8383 21.0228 59.2847 20.7242 59.6605 20.3566C60.0599 19.9662 60.3653 19.5297 60.5767 19.0474C60.7881 18.542 60.8938 18.0137 60.8938 17.4625C60.8938 16.9112 60.7881 16.3944 60.5767 15.912C60.3653 15.4067 60.0599 14.9703 59.6605 14.6027C59.2847 14.2123 58.8383 13.9022 58.3215 13.6725C57.8047 13.4428 57.2527 13.3279 56.6654 13.3279C56.0546 13.3279 55.4908 13.4428 54.974 13.6725C54.4807 13.9022 54.0344 14.2123 53.635 14.6027C53.2591 14.9703 52.9655 15.4067 52.7541 15.912C52.5426 16.3944 52.4369 16.9112 52.4369 17.4625Z"/>
<path d="M68.2895 9.19339H73.5751V25.9383H68.2895V9.19339ZM67.8667 3.92185C67.8667 3.09495 68.1603 2.39437 68.7476 1.82013C69.3584 1.22292 70.0866 0.924316 70.9323 0.924316C71.778 0.924316 72.4945 1.22292 73.0818 1.82013C73.6925 2.39437 73.9979 3.09495 73.9979 3.92185C73.9979 4.74876 73.6925 5.46082 73.0818 6.05803C72.4945 6.63227 71.778 6.91939 70.9323 6.91939C70.0866 6.91939 69.3584 6.63227 68.7476 6.05803C68.1603 5.46082 67.8667 4.74876 67.8667 3.92185Z"/>
<path d="M76.1039 9.19339H80.9666V11.3985H81.0371C81.2485 11.0999 81.5187 10.8013 81.8475 10.5027C82.1999 10.1811 82.5993 9.89396 83.0456 9.6413C83.5154 9.38863 84.0205 9.1819 84.5608 9.02112C85.1011 8.86033 85.6766 8.77994 86.2874 8.77994C87.556 8.77994 88.707 8.99815 89.7407 9.43457C90.7743 9.84802 91.6552 10.4452 92.3834 11.2262C93.1352 11.9842 93.7107 12.8915 94.1101 13.9481C94.5094 15.0047 94.7091 16.1647 94.7091 17.428C94.7091 18.5995 94.5212 19.725 94.1453 20.8045C93.7929 21.8612 93.2761 22.8029 92.5949 23.6298C91.9371 24.4567 91.1267 25.1228 90.1635 25.6282C89.2004 26.1105 88.108 26.3517 86.8865 26.3517C85.7824 26.3517 84.7487 26.1909 83.7856 25.8694C82.8459 25.5248 82.0707 24.9506 81.4599 24.1466H81.3895V33.7939H76.1039V9.19339ZM80.9666 17.5658C80.9666 18.8292 81.3307 19.8513 82.059 20.6323C82.8107 21.4132 83.8561 21.8037 85.1951 21.8037C86.5341 21.8037 87.5677 21.4132 88.2959 20.6323C89.0477 19.8513 89.4235 18.8292 89.4235 17.5658C89.4235 16.3025 89.0477 15.2803 88.2959 14.4994C87.5677 13.7184 86.5341 13.3279 85.1951 13.3279C83.8561 13.3279 82.8107 13.7184 82.059 14.4994C81.3307 15.2803 80.9666 16.3025 80.9666 17.5658Z"/>
<path d="M96.5373 9.19339H101.4V11.3985H101.47C101.682 11.0999 101.952 10.8013 102.281 10.5027C102.633 10.1811 103.033 9.89396 103.479 9.6413C103.949 9.38863 104.454 9.1819 104.994 9.02112C105.535 8.86033 106.11 8.77994 106.721 8.77994C107.989 8.77994 109.14 8.99815 110.174 9.43457C111.208 9.84802 112.089 10.4452 112.817 11.2262C113.569 11.9842 114.144 12.8915 114.543 13.9481C114.943 15.0047 115.142 16.1647 115.142 17.428C115.142 18.5995 114.955 19.725 114.579 20.8045C114.226 21.8612 113.71 22.8029 113.028 23.6298C112.371 24.4567 111.56 25.1228 110.597 25.6282C109.634 26.1105 108.541 26.3517 107.32 26.3517C106.216 26.3517 105.182 26.1909 104.219 25.8694C103.279 25.5248 102.504 24.9506 101.893 24.1466H101.823V33.7939H96.5373V9.19339ZM101.4 17.5658C101.4 18.8292 101.764 19.8513 102.492 20.6323C103.244 21.4132 104.289 21.8037 105.628 21.8037C106.967 21.8037 108.001 21.4132 108.729 20.6323C109.481 19.8513 109.857 18.8292 109.857 17.5658C109.857 16.3025 109.481 15.2803 108.729 14.4994C108.001 13.7184 106.967 13.3279 105.628 13.3279C104.289 13.3279 103.244 13.7184 102.492 14.4994C101.764 15.2803 101.4 16.3025 101.4 17.5658Z"/>
<path d="M132.686 23.0441C131.841 24.1007 130.772 24.9161 129.48 25.4904C128.188 26.0646 126.849 26.3517 125.463 26.3517C124.147 26.3517 122.902 26.145 121.728 25.7315C120.577 25.3181 119.566 24.7324 118.697 23.9744C117.852 23.1934 117.182 22.2631 116.689 21.1835C116.195 20.104 115.949 18.8981 115.949 17.5658C115.949 16.2336 116.195 15.0277 116.689 13.9481C117.182 12.8685 117.852 11.9497 118.697 11.1917C119.566 10.4108 120.577 9.81357 121.728 9.40012C122.902 8.98666 124.147 8.77994 125.463 8.77994C126.684 8.77994 127.788 8.98666 128.775 9.40012C129.785 9.81357 130.631 10.4108 131.312 11.1917C132.017 11.9497 132.557 12.8685 132.933 13.9481C133.309 15.0277 133.497 16.2336 133.497 17.5658V19.1852H121.234C121.446 20.1729 121.904 20.9653 122.609 21.5625C123.313 22.1368 124.183 22.4239 125.216 22.4239C126.085 22.4239 126.814 22.2402 127.401 21.8726C128.012 21.4822 128.54 20.9883 128.987 20.3911L132.686 23.0441ZM128.211 15.6708C128.235 14.798 127.941 14.0515 127.33 13.4313C126.72 12.8111 125.933 12.501 124.97 12.501C124.382 12.501 123.865 12.5929 123.419 12.7767C122.973 12.9604 122.585 13.2016 122.256 13.5002C121.951 13.7758 121.704 14.1089 121.516 14.4994C121.352 14.8669 121.258 15.2574 121.234 15.6708H128.211Z"/>
<path d="M134.949 9.19339H140.235V11.8808H140.305C140.869 10.8472 141.539 10.0777 142.314 9.57239C143.089 9.04409 144.064 8.77994 145.239 8.77994C145.544 8.77994 145.849 8.79142 146.155 8.81439C146.46 8.83736 146.742 8.8833 147 8.95221V13.6725C146.625 13.5576 146.249 13.4772 145.873 13.4313C145.52 13.3624 145.145 13.3279 144.745 13.3279C143.735 13.3279 142.936 13.4657 142.349 13.7414C141.762 14.017 141.304 14.4075 140.975 14.9128C140.669 15.3952 140.47 15.9809 140.376 16.67C140.282 17.3591 140.235 18.1171 140.235 18.944V25.9383H134.949V9.19339Z"/>
</mask>
<path d="M65.7566 24.5256C65.7566 27.6954 64.9344 30.0958 63.29 31.7266C61.6691 33.3804 59.1907 34.2073 55.8549 34.2073C54.328 34.2073 52.8245 34.0351 51.3446 33.6905C49.8646 33.3689 48.5021 32.7258 47.2571 31.7611L50.1818 27.4887C51.004 28.1548 51.8614 28.6831 52.7541 29.0736C53.6702 29.4641 54.6686 29.6593 55.7492 29.6593C57.3701 29.6593 58.5564 29.2689 59.3082 28.4879C60.0834 27.7299 60.471 26.7537 60.471 25.5593V23.9399H60.4005C59.7897 24.7438 59.0263 25.3181 58.1101 25.6626C57.2174 25.9842 56.3717 26.145 55.573 26.145C54.3045 26.145 53.1534 25.9383 52.1198 25.5248C51.0862 25.0884 50.1935 24.4912 49.4418 23.7332C48.7135 22.9522 48.1498 22.0334 47.7504 20.9768C47.351 19.9202 47.1514 18.7602 47.1514 17.4969C47.1514 16.3944 47.3276 15.3148 47.6799 14.2582C48.0558 13.2016 48.5726 12.2713 49.2304 11.4674C49.9116 10.6634 50.7338 10.0203 51.697 9.53793C52.6601 9.0326 53.7525 8.77994 54.974 8.77994C55.7257 8.77994 56.407 8.86033 57.0178 9.02112C57.652 9.1819 58.2158 9.38863 58.7091 9.6413C59.2025 9.89396 59.6253 10.1811 59.9777 10.5027C60.3301 10.8013 60.6119 11.0999 60.8234 11.3985H60.8938V9.19339H65.7566V24.5256ZM52.4369 17.4625C52.4369 18.0137 52.5426 18.542 52.7541 19.0474C52.9655 19.5297 53.2591 19.9662 53.635 20.3566C54.0344 20.7242 54.4807 21.0228 54.974 21.2525C55.4908 21.4822 56.0546 21.597 56.6654 21.597C57.2527 21.597 57.8047 21.4822 58.3215 21.2525C58.8383 21.0228 59.2847 20.7242 59.6605 20.3566C60.0599 19.9662 60.3653 19.5297 60.5767 19.0474C60.7881 18.542 60.8938 18.0137 60.8938 17.4625C60.8938 16.9112 60.7881 16.3944 60.5767 15.912C60.3653 15.4067 60.0599 14.9703 59.6605 14.6027C59.2847 14.2123 58.8383 13.9022 58.3215 13.6725C57.8047 13.4428 57.2527 13.3279 56.6654 13.3279C56.0546 13.3279 55.4908 13.4428 54.974 13.6725C54.4807 13.9022 54.0344 14.2123 53.635 14.6027C53.2591 14.9703 52.9655 15.4067 52.7541 15.912C52.5426 16.3944 52.4369 16.9112 52.4369 17.4625Z" fill="#1E1F21"/>
<path d="M68.2895 9.19339H73.5751V25.9383H68.2895V9.19339ZM67.8667 3.92185C67.8667 3.09495 68.1603 2.39437 68.7476 1.82013C69.3584 1.22292 70.0866 0.924316 70.9323 0.924316C71.778 0.924316 72.4945 1.22292 73.0818 1.82013C73.6925 2.39437 73.9979 3.09495 73.9979 3.92185C73.9979 4.74876 73.6925 5.46082 73.0818 6.05803C72.4945 6.63227 71.778 6.91939 70.9323 6.91939C70.0866 6.91939 69.3584 6.63227 68.7476 6.05803C68.1603 5.46082 67.8667 4.74876 67.8667 3.92185Z" fill="#1E1F21"/>
<path d="M76.1039 9.19339H80.9666V11.3985H81.0371C81.2485 11.0999 81.5187 10.8013 81.8475 10.5027C82.1999 10.1811 82.5993 9.89396 83.0456 9.6413C83.5154 9.38863 84.0205 9.1819 84.5608 9.02112C85.1011 8.86033 85.6766 8.77994 86.2874 8.77994C87.556 8.77994 88.707 8.99815 89.7407 9.43457C90.7743 9.84802 91.6552 10.4452 92.3834 11.2262C93.1352 11.9842 93.7107 12.8915 94.1101 13.9481C94.5094 15.0047 94.7091 16.1647 94.7091 17.428C94.7091 18.5995 94.5212 19.725 94.1453 20.8045C93.7929 21.8612 93.2761 22.8029 92.5949 23.6298C91.9371 24.4567 91.1267 25.1228 90.1635 25.6282C89.2004 26.1105 88.108 26.3517 86.8865 26.3517C85.7824 26.3517 84.7487 26.1909 83.7856 25.8694C82.8459 25.5248 82.0707 24.9506 81.4599 24.1466H81.3895V33.7939H76.1039V9.19339ZM80.9666 17.5658C80.9666 18.8292 81.3307 19.8513 82.059 20.6323C82.8107 21.4132 83.8561 21.8037 85.1951 21.8037C86.5341 21.8037 87.5677 21.4132 88.2959 20.6323C89.0477 19.8513 89.4235 18.8292 89.4235 17.5658C89.4235 16.3025 89.0477 15.2803 88.2959 14.4994C87.5677 13.7184 86.5341 13.3279 85.1951 13.3279C83.8561 13.3279 82.8107 13.7184 82.059 14.4994C81.3307 15.2803 80.9666 16.3025 80.9666 17.5658Z" fill="#1E1F21"/>
<path d="M96.5373 9.19339H101.4V11.3985H101.47C101.682 11.0999 101.952 10.8013 102.281 10.5027C102.633 10.1811 103.033 9.89396 103.479 9.6413C103.949 9.38863 104.454 9.1819 104.994 9.02112C105.535 8.86033 106.11 8.77994 106.721 8.77994C107.989 8.77994 109.14 8.99815 110.174 9.43457C111.208 9.84802 112.089 10.4452 112.817 11.2262C113.569 11.9842 114.144 12.8915 114.543 13.9481C114.943 15.0047 115.142 16.1647 115.142 17.428C115.142 18.5995 114.955 19.725 114.579 20.8045C114.226 21.8612 113.71 22.8029 113.028 23.6298C112.371 24.4567 111.56 25.1228 110.597 25.6282C109.634 26.1105 108.541 26.3517 107.32 26.3517C106.216 26.3517 105.182 26.1909 104.219 25.8694C103.279 25.5248 102.504 24.9506 101.893 24.1466H101.823V33.7939H96.5373V9.19339ZM101.4 17.5658C101.4 18.8292 101.764 19.8513 102.492 20.6323C103.244 21.4132 104.289 21.8037 105.628 21.8037C106.967 21.8037 108.001 21.4132 108.729 20.6323C109.481 19.8513 109.857 18.8292 109.857 17.5658C109.857 16.3025 109.481 15.2803 108.729 14.4994C108.001 13.7184 106.967 13.3279 105.628 13.3279C104.289 13.3279 103.244 13.7184 102.492 14.4994C101.764 15.2803 101.4 16.3025 101.4 17.5658Z" fill="#1E1F21"/>
<path d="M132.686 23.0441C131.841 24.1007 130.772 24.9161 129.48 25.4904C128.188 26.0646 126.849 26.3517 125.463 26.3517C124.147 26.3517 122.902 26.145 121.728 25.7315C120.577 25.3181 119.566 24.7324 118.697 23.9744C117.852 23.1934 117.182 22.2631 116.689 21.1835C116.195 20.104 115.949 18.8981 115.949 17.5658C115.949 16.2336 116.195 15.0277 116.689 13.9481C117.182 12.8685 117.852 11.9497 118.697 11.1917C119.566 10.4108 120.577 9.81357 121.728 9.40012C122.902 8.98666 124.147 8.77994 125.463 8.77994C126.684 8.77994 127.788 8.98666 128.775 9.40012C129.785 9.81357 130.631 10.4108 131.312 11.1917C132.017 11.9497 132.557 12.8685 132.933 13.9481C133.309 15.0277 133.497 16.2336 133.497 17.5658V19.1852H121.234C121.446 20.1729 121.904 20.9653 122.609 21.5625C123.313 22.1368 124.183 22.4239 125.216 22.4239C126.085 22.4239 126.814 22.2402 127.401 21.8726C128.012 21.4822 128.54 20.9883 128.987 20.3911L132.686 23.0441ZM128.211 15.6708C128.235 14.798 127.941 14.0515 127.33 13.4313C126.72 12.8111 125.933 12.501 124.97 12.501C124.382 12.501 123.865 12.5929 123.419 12.7767C122.973 12.9604 122.585 13.2016 122.256 13.5002C121.951 13.7758 121.704 14.1089 121.516 14.4994C121.352 14.8669 121.258 15.2574 121.234 15.6708H128.211Z" fill="#1E1F21"/>
<path d="M134.949 9.19339H140.235V11.8808H140.305C140.869 10.8472 141.539 10.0777 142.314 9.57239C143.089 9.04409 144.064 8.77994 145.239 8.77994C145.544 8.77994 145.849 8.79142 146.155 8.81439C146.46 8.83736 146.742 8.8833 147 8.95221V13.6725C146.625 13.5576 146.249 13.4772 145.873 13.4313C145.52 13.3624 145.145 13.3279 144.745 13.3279C143.735 13.3279 142.936 13.4657 142.349 13.7414C141.762 14.017 141.304 14.4075 140.975 14.9128C140.669 15.3952 140.47 15.9809 140.376 16.67C140.282 17.3591 140.235 18.1171 140.235 18.944V25.9383H134.949V9.19339Z" fill="#1E1F21"/>
<path d="M65.7566 24.5256C65.7566 27.6954 64.9344 30.0958 63.29 31.7266C61.6691 33.3804 59.1907 34.2073 55.8549 34.2073C54.328 34.2073 52.8245 34.0351 51.3446 33.6905C49.8646 33.3689 48.5021 32.7258 47.2571 31.7611L50.1818 27.4887C51.004 28.1548 51.8614 28.6831 52.7541 29.0736C53.6702 29.4641 54.6686 29.6593 55.7492 29.6593C57.3701 29.6593 58.5564 29.2689 59.3082 28.4879C60.0834 27.7299 60.471 26.7537 60.471 25.5593V23.9399H60.4005C59.7897 24.7438 59.0263 25.3181 58.1101 25.6626C57.2174 25.9842 56.3717 26.145 55.573 26.145C54.3045 26.145 53.1534 25.9383 52.1198 25.5248C51.0862 25.0884 50.1935 24.4912 49.4418 23.7332C48.7135 22.9522 48.1498 22.0334 47.7504 20.9768C47.351 19.9202 47.1514 18.7602 47.1514 17.4969C47.1514 16.3944 47.3276 15.3148 47.6799 14.2582C48.0558 13.2016 48.5726 12.2713 49.2304 11.4674C49.9116 10.6634 50.7338 10.0203 51.697 9.53793C52.6601 9.0326 53.7525 8.77994 54.974 8.77994C55.7257 8.77994 56.407 8.86033 57.0178 9.02112C57.652 9.1819 58.2158 9.38863 58.7091 9.6413C59.2025 9.89396 59.6253 10.1811 59.9777 10.5027C60.3301 10.8013 60.6119 11.0999 60.8234 11.3985H60.8938V9.19339H65.7566V24.5256ZM52.4369 17.4625C52.4369 18.0137 52.5426 18.542 52.7541 19.0474C52.9655 19.5297 53.2591 19.9662 53.635 20.3566C54.0344 20.7242 54.4807 21.0228 54.974 21.2525C55.4908 21.4822 56.0546 21.597 56.6654 21.597C57.2527 21.597 57.8047 21.4822 58.3215 21.2525C58.8383 21.0228 59.2847 20.7242 59.6605 20.3566C60.0599 19.9662 60.3653 19.5297 60.5767 19.0474C60.7881 18.542 60.8938 18.0137 60.8938 17.4625C60.8938 16.9112 60.7881 16.3944 60.5767 15.912C60.3653 15.4067 60.0599 14.9703 59.6605 14.6027C59.2847 14.2123 58.8383 13.9022 58.3215 13.6725C57.8047 13.4428 57.2527 13.3279 56.6654 13.3279C56.0546 13.3279 55.4908 13.4428 54.974 13.6725C54.4807 13.9022 54.0344 14.2123 53.635 14.6027C53.2591 14.9703 52.9655 15.4067 52.7541 15.912C52.5426 16.3944 52.4369 16.9112 52.4369 17.4625Z" stroke="#1E1F21" stroke-width="0.334308" mask="url(#path-1-outside-1_1413_1721)"/>
<path d="M68.2895 9.19339H73.5751V25.9383H68.2895V9.19339ZM67.8667 3.92185C67.8667 3.09495 68.1603 2.39437 68.7476 1.82013C69.3584 1.22292 70.0866 0.924316 70.9323 0.924316C71.778 0.924316 72.4945 1.22292 73.0818 1.82013C73.6925 2.39437 73.9979 3.09495 73.9979 3.92185C73.9979 4.74876 73.6925 5.46082 73.0818 6.05803C72.4945 6.63227 71.778 6.91939 70.9323 6.91939C70.0866 6.91939 69.3584 6.63227 68.7476 6.05803C68.1603 5.46082 67.8667 4.74876 67.8667 3.92185Z" stroke="#1E1F21" stroke-width="0.334308" mask="url(#path-1-outside-1_1413_1721)"/>
<path d="M76.1039 9.19339H80.9666V11.3985H81.0371C81.2485 11.0999 81.5187 10.8013 81.8475 10.5027C82.1999 10.1811 82.5993 9.89396 83.0456 9.6413C83.5154 9.38863 84.0205 9.1819 84.5608 9.02112C85.1011 8.86033 85.6766 8.77994 86.2874 8.77994C87.556 8.77994 88.707 8.99815 89.7407 9.43457C90.7743 9.84802 91.6552 10.4452 92.3834 11.2262C93.1352 11.9842 93.7107 12.8915 94.1101 13.9481C94.5094 15.0047 94.7091 16.1647 94.7091 17.428C94.7091 18.5995 94.5212 19.725 94.1453 20.8045C93.7929 21.8612 93.2761 22.8029 92.5949 23.6298C91.9371 24.4567 91.1267 25.1228 90.1635 25.6282C89.2004 26.1105 88.108 26.3517 86.8865 26.3517C85.7824 26.3517 84.7487 26.1909 83.7856 25.8694C82.8459 25.5248 82.0707 24.9506 81.4599 24.1466H81.3895V33.7939H76.1039V9.19339ZM80.9666 17.5658C80.9666 18.8292 81.3307 19.8513 82.059 20.6323C82.8107 21.4132 83.8561 21.8037 85.1951 21.8037C86.5341 21.8037 87.5677 21.4132 88.2959 20.6323C89.0477 19.8513 89.4235 18.8292 89.4235 17.5658C89.4235 16.3025 89.0477 15.2803 88.2959 14.4994C87.5677 13.7184 86.5341 13.3279 85.1951 13.3279C83.8561 13.3279 82.8107 13.7184 82.059 14.4994C81.3307 15.2803 80.9666 16.3025 80.9666 17.5658Z" stroke="#1E1F21" stroke-width="0.334308" mask="url(#path-1-outside-1_1413_1721)"/>
<path d="M96.5373 9.19339H101.4V11.3985H101.47C101.682 11.0999 101.952 10.8013 102.281 10.5027C102.633 10.1811 103.033 9.89396 103.479 9.6413C103.949 9.38863 104.454 9.1819 104.994 9.02112C105.535 8.86033 106.11 8.77994 106.721 8.77994C107.989 8.77994 109.14 8.99815 110.174 9.43457C111.208 9.84802 112.089 10.4452 112.817 11.2262C113.569 11.9842 114.144 12.8915 114.543 13.9481C114.943 15.0047 115.142 16.1647 115.142 17.428C115.142 18.5995 114.955 19.725 114.579 20.8045C114.226 21.8612 113.71 22.8029 113.028 23.6298C112.371 24.4567 111.56 25.1228 110.597 25.6282C109.634 26.1105 108.541 26.3517 107.32 26.3517C106.216 26.3517 105.182 26.1909 104.219 25.8694C103.279 25.5248 102.504 24.9506 101.893 24.1466H101.823V33.7939H96.5373V9.19339ZM101.4 17.5658C101.4 18.8292 101.764 19.8513 102.492 20.6323C103.244 21.4132 104.289 21.8037 105.628 21.8037C106.967 21.8037 108.001 21.4132 108.729 20.6323C109.481 19.8513 109.857 18.8292 109.857 17.5658C109.857 16.3025 109.481 15.2803 108.729 14.4994C108.001 13.7184 106.967 13.3279 105.628 13.3279C104.289 13.3279 103.244 13.7184 102.492 14.4994C101.764 15.2803 101.4 16.3025 101.4 17.5658Z" stroke="#1E1F21" stroke-width="0.334308" mask="url(#path-1-outside-1_1413_1721)"/>
<path d="M132.686 23.0441C131.841 24.1007 130.772 24.9161 129.48 25.4904C128.188 26.0646 126.849 26.3517 125.463 26.3517C124.147 26.3517 122.902 26.145 121.728 25.7315C120.577 25.3181 119.566 24.7324 118.697 23.9744C117.852 23.1934 117.182 22.2631 116.689 21.1835C116.195 20.104 115.949 18.8981 115.949 17.5658C115.949 16.2336 116.195 15.0277 116.689 13.9481C117.182 12.8685 117.852 11.9497 118.697 11.1917C119.566 10.4108 120.577 9.81357 121.728 9.40012C122.902 8.98666 124.147 8.77994 125.463 8.77994C126.684 8.77994 127.788 8.98666 128.775 9.40012C129.785 9.81357 130.631 10.4108 131.312 11.1917C132.017 11.9497 132.557 12.8685 132.933 13.9481C133.309 15.0277 133.497 16.2336 133.497 17.5658V19.1852H121.234C121.446 20.1729 121.904 20.9653 122.609 21.5625C123.313 22.1368 124.183 22.4239 125.216 22.4239C126.085 22.4239 126.814 22.2402 127.401 21.8726C128.012 21.4822 128.54 20.9883 128.987 20.3911L132.686 23.0441ZM128.211 15.6708C128.235 14.798 127.941 14.0515 127.33 13.4313C126.72 12.8111 125.933 12.501 124.97 12.501C124.382 12.501 123.865 12.5929 123.419 12.7767C122.973 12.9604 122.585 13.2016 122.256 13.5002C121.951 13.7758 121.704 14.1089 121.516 14.4994C121.352 14.8669 121.258 15.2574 121.234 15.6708H128.211Z" stroke="#1E1F21" stroke-width="0.334308" mask="url(#path-1-outside-1_1413_1721)"/>
<path d="M134.949 9.19339H140.235V11.8808H140.305C140.869 10.8472 141.539 10.0777 142.314 9.57239C143.089 9.04409 144.064 8.77994 145.239 8.77994C145.544 8.77994 145.849 8.79142 146.155 8.81439C146.46 8.83736 146.742 8.8833 147 8.95221V13.6725C146.625 13.5576 146.249 13.4772 145.873 13.4313C145.52 13.3624 145.145 13.3279 144.745 13.3279C143.735 13.3279 142.936 13.4657 142.349 13.7414C141.762 14.017 141.304 14.4075 140.975 14.9128C140.669 15.3952 140.47 15.9809 140.376 16.67C140.282 17.3591 140.235 18.1171 140.235 18.944V25.9383H134.949V9.19339Z" stroke="#1E1F21" stroke-width="0.334308" mask="url(#path-1-outside-1_1413_1721)"/>
<rect width="38.8302" height="38.8302" rx="1.67154" fill="#1E1F21"/>
<path fill-rule="evenodd" clip-rule="evenodd" d="M30.4811 6.84064C30.7278 8.13366 29.2961 18.7717 29.1484 19.7709C29.0719 20.3398 28.7866 20.3398 28.7535 20.3398H27.259C26.9194 20.3398 26.9245 19.9122 26.9269 19.7095L26.9271 19.6924L26.9273 19.6674C26.9273 19.4262 27.9938 9.97273 28.2186 7.98203C28.241 7.78376 28.0852 7.61647 27.8856 7.6165L26.5845 7.61663C26.4148 7.61665 26.272 7.74385 26.2524 7.91244L25.3477 15.7167C25.2978 16.1504 25.051 16.1504 24.9063 16.1504L23.5512 16.1502C23.0767 16.1504 23.0946 15.92 23.1284 15.5098C23.1544 15.1936 23.1892 14.7766 23.2303 14.2966H21.576C21.4124 14.2966 21.2729 14.415 21.2462 14.5764L20.8489 16.9806C20.7675 17.4686 20.6111 17.5662 20.244 17.5662H18.9335C18.6187 17.5662 18.4174 17.3679 18.515 16.9806L18.7005 15.7172H17.1182C17.0564 15.7172 16.9982 15.734 16.9481 15.7637L16.764 16.1755L16.3802 19.0038C16.3258 19.4153 16.0739 19.4153 15.8224 19.4153H14.3166C14.0668 19.4153 13.8161 19.4153 13.8774 18.953L14.0038 18.0214H13.7023C13.3629 18.0214 13.0776 18.2756 13.0408 18.613C12.9195 19.7248 12.6669 22.1708 12.592 23.9099C12.538 25.1637 12.6194 26.8007 12.7046 28.0304C12.7747 29.0414 13.6108 29.8159 14.624 29.8392L19.5435 29.9521L25.3471 29.8189C25.8551 29.8072 26.274 29.4176 26.3225 28.9118L26.7525 24.422H21.2944C21.168 24.422 21.0525 24.4932 20.9957 24.6061L20.8308 24.934C20.5734 25.4461 20.3159 25.4973 19.801 25.4973H18.7711C18.2562 25.4973 17.9987 25.19 17.9987 24.678V24.1236C17.9987 23.0158 18.8968 22.1178 20.0046 22.1178H28.8267C29.229 22.1178 29.5402 22.4705 29.4901 22.8698L28.518 30.603C28.3919 31.6062 27.5389 32.3587 26.5278 32.3587H13.5842C11.2448 32.3587 9.4016 30.365 9.58484 28.0328L10.3927 17.7495C10.4723 16.7363 11.2972 15.9428 12.3127 15.9024L14.3022 15.8232L14.3712 15.3148C14.4837 14.4862 15.1913 13.8681 16.0275 13.8681H18.9719L19.0278 13.4875C19.1242 12.831 19.6873 12.3445 20.3508 12.3445H22.8651C23.087 12.3445 23.262 12.3116 23.4098 12.2668C23.566 10.563 23.7503 8.72153 23.901 7.70077C24.0789 7.08582 24.2952 6.59877 24.5581 6.32343C25.0519 5.80638 25.3416 5.74324 26.0377 5.6511C26.6115 5.57516 26.9389 5.54612 27.5185 5.5474C28.1468 5.5488 29.1226 5.67671 29.1226 5.67671C29.1226 5.67671 30.2836 5.80622 30.4811 6.84064Z" fill="white"/>
</svg>
