<svg width="136" height="44" viewBox="0 0 136 44" fill="none" xmlns="http://www.w3.org/2000/svg">
<path d="M96.1679 34.4302V37.6464H96.1958C96.2515 37.57 96.3227 37.4905 96.4093 37.4078C96.496 37.3251 96.5981 37.2487 96.7157 37.1787C96.8395 37.1087 96.9819 37.0515 97.1428 37.0069C97.3038 36.956 97.4864 36.9306 97.6906 36.9306C98.0063 36.9306 98.2973 36.9942 98.5634 37.1215C98.8296 37.2423 99.0586 37.4109 99.2505 37.6273C99.4424 37.8436 99.591 38.0981 99.6962 38.3907C99.8014 38.6834 99.8541 38.9984 99.8541 39.3356C99.8541 39.6728 99.8014 39.9909 99.6962 40.2899C99.5972 40.5826 99.4517 40.8403 99.2598 41.0629C99.0741 41.2793 98.8451 41.4542 98.5727 41.5878C98.3066 41.7151 98.0032 41.7787 97.6628 41.7787C97.3471 41.7787 97.05 41.7087 96.7714 41.5688C96.4991 41.4288 96.2855 41.2252 96.1308 40.958H96.1122V41.6451H95.0537V34.4302H96.1679ZM98.7213 39.3356C98.7213 39.1574 98.6934 38.9825 98.6377 38.8107C98.5882 38.6325 98.5108 38.4735 98.4056 38.3335C98.3004 38.1935 98.1673 38.0822 98.0063 37.9995C97.8454 37.9104 97.6566 37.8659 97.44 37.8659C97.2357 37.8659 97.0531 37.9104 96.8921 37.9995C96.7312 38.0885 96.5919 38.2031 96.4743 38.343C96.3629 38.483 96.2762 38.6421 96.2143 38.8202C96.1586 38.9984 96.1308 39.1765 96.1308 39.3546C96.1308 39.5328 96.1586 39.7109 96.2143 39.8891C96.2762 40.0609 96.3629 40.2167 96.4743 40.3567C96.5919 40.4967 96.7312 40.6112 96.8921 40.7003C97.0531 40.783 97.2357 40.8244 97.44 40.8244C97.6566 40.8244 97.8454 40.7798 98.0063 40.6907C98.1673 40.6017 98.3004 40.4872 98.4056 40.3472C98.5108 40.2072 98.5882 40.0481 98.6377 39.87C98.6934 39.6919 98.7213 39.5137 98.7213 39.3356Z" fill="#1E1F21"/>
<path d="M100.26 37.0642H101.495L102.74 40.3949H102.758L103.863 37.0642H105.024L102.916 42.6281C102.835 42.838 102.749 43.0226 102.656 43.1816C102.563 43.347 102.452 43.4838 102.322 43.592C102.192 43.7065 102.037 43.7924 101.857 43.8497C101.684 43.9069 101.474 43.9356 101.226 43.9356C101.133 43.9356 101.037 43.9292 100.938 43.9165C100.845 43.9101 100.749 43.8942 100.65 43.8687L100.743 42.8762C100.818 42.9017 100.889 42.9176 100.957 42.9239C101.031 42.9367 101.099 42.943 101.161 42.943C101.279 42.943 101.378 42.9271 101.458 42.8953C101.539 42.8699 101.607 42.8253 101.662 42.7617C101.718 42.7044 101.768 42.6313 101.811 42.5422C101.854 42.4531 101.901 42.3481 101.95 42.2273L102.173 41.6451L100.26 37.0642Z" fill="#1E1F21"/>
<path d="M110.777 41.0629H110.75C110.638 41.2665 110.459 41.4351 110.211 41.5688C109.964 41.696 109.682 41.7596 109.366 41.7596C109.187 41.7596 108.998 41.7342 108.8 41.6833C108.608 41.6387 108.428 41.5624 108.261 41.4542C108.1 41.3397 107.964 41.1934 107.853 41.0152C107.747 40.8307 107.695 40.6049 107.695 40.3376C107.695 39.9941 107.788 39.7205 107.973 39.5169C108.165 39.3133 108.41 39.1574 108.707 39.0493C109.004 38.9411 109.332 38.8711 109.691 38.8393C110.056 38.8011 110.412 38.782 110.759 38.782V38.6675C110.759 38.3812 110.657 38.1712 110.453 38.0376C110.254 37.8977 110.016 37.8277 109.738 37.8277C109.502 37.8277 109.276 37.8786 109.06 37.9804C108.843 38.0822 108.664 38.2062 108.521 38.3526L107.946 37.6559C108.199 37.4141 108.49 37.2328 108.818 37.1119C109.153 36.991 109.49 36.9306 109.83 36.9306C110.227 36.9306 110.552 36.9878 110.805 37.1024C111.065 37.2169 111.27 37.3664 111.418 37.5509C111.567 37.7354 111.669 37.9422 111.725 38.1712C111.786 38.4003 111.817 38.6293 111.817 38.8584V41.6451H110.777V41.0629ZM110.759 39.5551H110.508C110.329 39.5551 110.14 39.5646 109.942 39.5837C109.744 39.5964 109.561 39.6314 109.394 39.6887C109.227 39.7396 109.088 39.8159 108.976 39.9177C108.865 40.0132 108.809 40.1468 108.809 40.3185C108.809 40.4267 108.831 40.519 108.874 40.5953C108.924 40.6653 108.985 40.7226 109.06 40.7671C109.134 40.8116 109.218 40.8434 109.31 40.8625C109.403 40.8816 109.496 40.8912 109.589 40.8912C109.973 40.8912 110.264 40.7862 110.462 40.5762C110.66 40.3663 110.759 40.08 110.759 39.7173V39.5551Z" fill="#1E1F21"/>
<path d="M116.161 38.3335C116.074 38.2062 115.944 38.1013 115.771 38.0186C115.598 37.9295 115.421 37.8849 115.242 37.8849C115.037 37.8849 114.858 37.9295 114.703 38.0186C114.548 38.1013 114.418 38.2126 114.313 38.3526C114.214 38.4925 114.14 38.6516 114.09 38.8298C114.041 39.0015 114.016 39.1765 114.016 39.3546C114.016 39.5328 114.041 39.7109 114.09 39.8891C114.146 40.0609 114.227 40.2167 114.332 40.3567C114.437 40.4967 114.567 40.6112 114.722 40.7003C114.883 40.783 115.068 40.8244 115.279 40.8244C115.452 40.8244 115.626 40.7894 115.799 40.7194C115.972 40.6494 116.111 40.5476 116.217 40.414L116.913 41.1393C116.727 41.3429 116.489 41.5019 116.198 41.6165C115.913 41.7246 115.604 41.7787 115.27 41.7787C114.942 41.7787 114.629 41.7246 114.332 41.6165C114.041 41.5083 113.784 41.3493 113.561 41.1393C113.345 40.9293 113.171 40.6748 113.041 40.3758C112.917 40.0768 112.856 39.7364 112.856 39.3546C112.856 38.9856 112.917 38.6516 113.041 38.3526C113.171 38.0535 113.345 37.799 113.561 37.5891C113.778 37.3791 114.029 37.2169 114.313 37.1024C114.604 36.9878 114.914 36.9306 115.242 36.9306C115.57 36.9306 115.886 36.9942 116.189 37.1215C116.498 37.2487 116.743 37.4237 116.922 37.6464L116.161 38.3335Z" fill="#1E1F21"/>
<path d="M117.389 39.3356C117.389 38.9729 117.451 38.6452 117.575 38.3526C117.705 38.0535 117.878 37.799 118.095 37.5891C118.312 37.3791 118.568 37.2169 118.866 37.1024C119.163 36.9878 119.478 36.9306 119.813 36.9306C120.147 36.9306 120.463 36.9878 120.76 37.1024C121.057 37.2169 121.314 37.3791 121.53 37.5891C121.747 37.799 121.917 38.0535 122.041 38.3526C122.171 38.6452 122.236 38.9729 122.236 39.3356C122.236 39.6982 122.171 40.0291 122.041 40.3281C121.917 40.6271 121.747 40.8848 121.53 41.1011C121.314 41.3111 121.057 41.4765 120.76 41.5974C120.463 41.7183 120.147 41.7787 119.813 41.7787C119.478 41.7787 119.163 41.7183 118.866 41.5974C118.568 41.4765 118.312 41.3111 118.095 41.1011C117.878 40.8848 117.705 40.6271 117.575 40.3281C117.451 40.0291 117.389 39.6982 117.389 39.3356ZM118.522 39.3356C118.522 39.5137 118.547 39.6919 118.596 39.87C118.652 40.0481 118.732 40.2072 118.838 40.3472C118.943 40.4872 119.076 40.6017 119.237 40.6907C119.398 40.7798 119.59 40.8244 119.813 40.8244C120.035 40.8244 120.227 40.7798 120.388 40.6907C120.549 40.6017 120.682 40.4872 120.788 40.3472C120.893 40.2072 120.97 40.0481 121.02 39.87C121.075 39.6919 121.103 39.5137 121.103 39.3356C121.103 39.1574 121.075 38.9825 121.02 38.8107C120.97 38.6325 120.893 38.4735 120.788 38.3335C120.682 38.1935 120.549 38.0822 120.388 37.9995C120.227 37.9104 120.035 37.8659 119.813 37.8659C119.59 37.8659 119.398 37.9104 119.237 37.9995C119.076 38.0822 118.943 38.1935 118.838 38.3335C118.732 38.4735 118.652 38.6325 118.596 38.8107C118.547 38.9825 118.522 39.1574 118.522 39.3356Z" fill="#1E1F21"/>
<path d="M123.316 37.0642H124.384V37.8277H124.403C124.526 37.5605 124.7 37.3441 124.923 37.1787C125.145 37.0133 125.405 36.9306 125.703 36.9306C125.746 36.9306 125.792 36.9338 125.842 36.9401C125.891 36.9401 125.935 36.9465 125.972 36.9592V38.009C125.898 37.9899 125.833 37.9772 125.777 37.9708C125.727 37.9645 125.678 37.9613 125.628 37.9613C125.374 37.9613 125.17 38.009 125.015 38.1044C124.861 38.1999 124.74 38.3144 124.653 38.448C124.567 38.5816 124.508 38.7184 124.477 38.8584C124.446 38.9984 124.43 39.1097 124.43 39.1924V41.6451H123.316V37.0642Z" fill="#1E1F21"/>
<path d="M126.698 37.0642H127.757V37.799H127.775C127.875 37.57 128.045 37.3696 128.286 37.1978C128.534 37.0197 128.825 36.9306 129.159 36.9306C129.45 36.9306 129.697 36.9847 129.902 37.0928C130.112 37.1946 130.282 37.3314 130.412 37.5032C130.549 37.675 130.648 37.8722 130.71 38.0949C130.771 38.3176 130.802 38.5466 130.802 38.782V41.6451H129.688V39.1065C129.688 38.9729 129.679 38.8329 129.66 38.6866C129.642 38.5403 129.602 38.4098 129.54 38.2953C129.478 38.1744 129.391 38.0758 129.28 37.9995C129.174 37.9231 129.032 37.8849 128.853 37.8849C128.673 37.8849 128.518 37.9231 128.388 37.9995C128.258 38.0695 128.15 38.1617 128.063 38.2762C127.983 38.3908 127.921 38.5244 127.878 38.6771C127.834 38.8234 127.813 38.9729 127.813 39.1256V41.6451H126.698V37.0642Z" fill="#1E1F21"/>
<path d="M134.545 38.2858C134.445 38.1522 134.309 38.0376 134.136 37.9422C133.963 37.8404 133.774 37.7895 133.57 37.7895C133.39 37.7895 133.226 37.8277 133.078 37.904C132.929 37.9804 132.855 38.1076 132.855 38.2858C132.855 38.4639 132.935 38.5912 133.096 38.6675C133.263 38.7375 133.505 38.8107 133.82 38.887C133.987 38.9252 134.155 38.9761 134.322 39.0397C134.495 39.1033 134.65 39.1892 134.786 39.2974C134.928 39.3992 135.043 39.5296 135.129 39.6887C135.216 39.8414 135.259 40.0291 135.259 40.2517C135.259 40.5317 135.207 40.7703 135.102 40.9675C135.003 41.1584 134.866 41.3143 134.693 41.4351C134.526 41.556 134.328 41.6419 134.099 41.6928C133.876 41.7501 133.644 41.7787 133.402 41.7787C133.056 41.7787 132.718 41.7151 132.39 41.5878C132.062 41.4542 131.79 41.2665 131.573 41.0248L132.307 40.3185C132.431 40.484 132.592 40.6208 132.79 40.7289C132.988 40.8371 133.207 40.8912 133.449 40.8912C133.529 40.8912 133.61 40.8816 133.69 40.8625C133.777 40.8434 133.854 40.8148 133.922 40.7766C133.997 40.7321 134.056 40.6748 134.099 40.6049C134.142 40.5349 134.164 40.449 134.164 40.3472C134.164 40.1563 134.077 40.0195 133.904 39.9368C133.737 39.8541 133.483 39.7714 133.143 39.6887C132.975 39.6505 132.811 39.6028 132.65 39.5455C132.496 39.4819 132.356 39.4024 132.233 39.3069C132.109 39.2051 132.01 39.0811 131.935 38.9347C131.861 38.7884 131.824 38.6071 131.824 38.3907C131.824 38.1363 131.874 37.9168 131.973 37.7322C132.078 37.5477 132.214 37.3982 132.381 37.2837C132.548 37.1628 132.737 37.0737 132.948 37.0165C133.158 36.9592 133.375 36.9306 133.597 36.9306C133.919 36.9306 134.232 36.9878 134.535 37.1024C134.845 37.2169 135.089 37.3919 135.269 37.6273L134.545 38.2858Z" fill="#1E1F21"/>
<path d="M33.2785 14.5444C33.668 13.7141 34.3326 13.0024 35.2722 12.4094C36.2118 11.8163 37.2659 11.5198 38.4346 11.5198C39.4888 11.5198 40.394 11.7095 41.1502 12.0891C41.9065 12.4449 42.5366 12.9313 43.0408 13.548C43.545 14.1648 43.9116 14.8884 44.1408 15.7186C44.3929 16.5489 44.5189 17.4385 44.5189 18.3874V28.8491H41.2877V19.5261C41.2877 18.8382 41.2304 18.1858 41.1158 17.569C41.0242 16.9522 40.8408 16.4066 40.5658 15.9322C40.2909 15.4577 39.9127 15.0781 39.4315 14.7935C38.9732 14.5088 38.3659 14.3665 37.6096 14.3665C36.3263 14.3665 35.2722 14.8765 34.4472 15.8966C33.6222 16.8929 33.2097 18.2332 33.2097 19.9175V28.8491H29.9785V5.18262H33.2097V14.5444H33.2785Z" fill="#1E1F21"/>
<path d="M58.9994 17.9248C58.9994 16.6675 58.6327 15.7424 57.8994 15.1493C57.1661 14.5325 56.1921 14.2241 54.9776 14.2241C54.0609 14.2241 53.1901 14.4139 52.3651 14.7935C51.5631 15.1493 50.887 15.6119 50.337 16.1812L48.6183 14.0462C49.4204 13.2634 50.3943 12.6466 51.5401 12.1959C52.7089 11.7451 53.9578 11.5198 55.287 11.5198C56.4557 11.5198 57.464 11.6977 58.3119 12.0535C59.1827 12.3856 59.8931 12.8482 60.4431 13.4413C60.9931 14.0343 61.4056 14.7342 61.6806 15.5407C61.9556 16.3473 62.0931 17.2132 62.0931 18.1383V25.5042C62.0931 26.0735 62.1046 26.6784 62.1275 27.319C62.1733 27.9357 62.2421 28.4458 62.3337 28.8491H59.4119C59.2286 28.0425 59.1369 27.2359 59.1369 26.4294H59.0338C58.4379 27.3308 57.6817 28.0306 56.7651 28.5288C55.8713 29.027 54.8057 29.2761 53.5682 29.2761C52.9266 29.2761 52.2505 29.1812 51.5401 28.9914C50.8526 28.8253 50.2225 28.5407 49.6495 28.1374C49.0766 27.7341 48.5954 27.2003 48.2058 26.5361C47.8392 25.8719 47.6558 25.0535 47.6558 24.0808C47.6558 22.7998 47.9881 21.7916 48.6527 21.0562C49.3173 20.2971 50.1881 19.7278 51.2651 19.3482C52.3422 18.9449 53.5568 18.684 54.9088 18.5654C56.2609 18.4467 57.6244 18.3874 58.9994 18.3874V17.9248ZM58.2088 20.8071C57.4067 20.8071 56.5703 20.8427 55.6994 20.9139C54.8515 20.985 54.0724 21.1274 53.362 21.3409C52.6745 21.5544 52.1016 21.8746 51.6433 22.3016C51.1849 22.7286 50.9558 23.298 50.9558 24.0097C50.9558 24.5078 51.0474 24.923 51.2308 25.2551C51.437 25.5872 51.7006 25.86 52.0214 26.0735C52.3422 26.287 52.6974 26.4412 53.087 26.5361C53.4766 26.6073 53.8776 26.6429 54.2901 26.6429C55.8026 26.6429 56.9598 26.1803 57.7619 25.2551C58.5869 24.3062 58.9994 23.1201 58.9994 21.6967V20.8071H58.2088Z" fill="#1E1F21"/>
<path d="M66.3646 15.6119C66.3646 15.1612 66.3532 14.58 66.3303 13.8683C66.3073 13.1566 66.273 12.528 66.2271 11.9824H69.2865C69.3323 12.4094 69.3667 12.9075 69.3896 13.4769C69.4125 14.0225 69.424 14.4732 69.424 14.8291H69.5271C69.9854 13.8327 70.65 13.038 71.5208 12.4449C72.4145 11.8282 73.4114 11.5198 74.5114 11.5198C75.0155 11.5198 75.4395 11.5672 75.7832 11.6621L75.6457 14.7579C75.1874 14.6393 74.6947 14.58 74.1676 14.58C73.3885 14.58 72.7124 14.7342 72.1395 15.0426C71.5666 15.3272 71.0854 15.7186 70.6958 16.2168C70.3292 16.715 70.0542 17.2962 69.8708 17.9604C69.6875 18.6009 69.5958 19.277 69.5958 19.9887V28.8491H66.3646V15.6119Z" fill="#1E1F21"/>
<path d="M86.7654 28.8491H83.2592L76.6249 11.9824H80.1999L84.9779 25.2551H85.0467L89.8591 11.9824H93.2966L86.7654 28.8491Z" fill="#1E1F21"/>
<path d="M107.224 18.9212C107.201 18.257 107.087 17.6402 106.881 17.0708C106.697 16.4778 106.411 15.9677 106.021 15.5407C105.655 15.1137 105.185 14.7816 104.612 14.5444C104.062 14.2834 103.409 14.153 102.653 14.153C101.965 14.153 101.312 14.2834 100.693 14.5444C100.097 14.7816 99.5703 15.1137 99.112 15.5407C98.6766 15.9677 98.3099 16.4778 98.012 17.0708C97.737 17.6402 97.5766 18.257 97.5308 18.9212H107.224ZM110.49 20.2734C110.49 20.4632 110.49 20.6529 110.49 20.8427C110.49 21.0325 110.478 21.2223 110.456 21.4121H97.5308C97.5537 22.1237 97.7026 22.7998 97.9776 23.4403C98.2756 24.0571 98.6651 24.6027 99.1464 25.0772C99.6276 25.5279 100.178 25.8837 100.796 26.1447C101.438 26.4056 102.114 26.5361 102.824 26.5361C103.924 26.5361 104.875 26.287 105.678 25.7889C106.48 25.2907 107.11 24.6858 107.568 23.9741L109.837 25.86C108.966 27.0461 107.935 27.9239 106.743 28.4932C105.574 29.0388 104.268 29.3116 102.824 29.3116C101.587 29.3116 100.441 29.0981 99.387 28.6711C98.3328 28.2441 97.4276 27.6511 96.6714 26.892C95.9152 26.1091 95.3193 25.1721 94.8839 24.0808C94.4485 22.9896 94.2308 21.7798 94.2308 20.4513C94.2308 19.1466 94.4371 17.9486 94.8496 16.8573C95.285 15.7424 95.8808 14.7935 96.637 14.0106C97.3933 13.2278 98.287 12.6229 99.3182 12.1959C100.349 11.7451 101.461 11.5198 102.653 11.5198C103.844 11.5198 104.921 11.7214 105.884 12.1247C106.869 12.528 107.694 13.1092 108.359 13.8683C109.046 14.6274 109.573 15.5526 109.94 16.6438C110.307 17.7113 110.49 18.9212 110.49 20.2734Z" fill="#1E1F21"/>
<path d="M122.676 16.2524C122.31 15.6356 121.794 15.1374 121.129 14.7579C120.465 14.3546 119.72 14.153 118.895 14.153C118.528 14.153 118.162 14.2004 117.795 14.2953C117.428 14.3665 117.096 14.4969 116.798 14.6867C116.523 14.8528 116.294 15.0781 116.111 15.3628C115.95 15.6238 115.87 15.9559 115.87 16.3592C115.87 17.0708 116.179 17.6046 116.798 17.9604C117.417 18.2925 118.345 18.6009 119.582 18.8856C120.362 19.0754 121.084 19.3007 121.748 19.5617C122.413 19.8226 122.986 20.1548 123.467 20.558C123.971 20.9376 124.361 21.4002 124.636 21.9458C124.911 22.4914 125.048 23.1319 125.048 23.8673C125.048 24.8637 124.865 25.7058 124.498 26.3938C124.131 27.0817 123.639 27.6511 123.02 28.1018C122.424 28.5288 121.737 28.8372 120.957 29.027C120.178 29.2168 119.376 29.3116 118.551 29.3116C117.314 29.3116 116.099 29.0626 114.908 28.5644C113.739 28.0662 112.765 27.3071 111.986 26.287L114.289 24.2588C114.724 24.923 115.32 25.4805 116.076 25.9312C116.855 26.3819 117.703 26.6073 118.62 26.6073C119.032 26.6073 119.422 26.5717 119.789 26.5005C120.178 26.4056 120.522 26.2633 120.82 26.0735C121.141 25.8837 121.393 25.6347 121.576 25.3263C121.76 25.0179 121.851 24.6265 121.851 24.152C121.851 23.3692 121.485 22.788 120.751 22.4084C120.041 22.0288 118.987 21.673 117.589 21.3409C117.039 21.1985 116.477 21.0325 115.904 20.8427C115.354 20.6292 114.85 20.3445 114.392 19.9887C113.934 19.6329 113.555 19.194 113.258 18.6721C112.983 18.1265 112.845 17.4623 112.845 16.6794C112.845 15.778 113.017 15.007 113.361 14.3665C113.727 13.7022 114.197 13.1685 114.77 12.7652C115.343 12.3382 115.996 12.0298 116.729 11.84C117.463 11.6265 118.219 11.5198 118.998 11.5198C120.167 11.5198 121.29 11.757 122.367 12.2314C123.467 12.7059 124.315 13.3938 124.911 14.2953L122.676 16.2524Z" fill="#1E1F21"/>
<path d="M136 14.7223H131.669V23.5115C131.669 24.5316 131.852 25.267 132.219 25.7177C132.585 26.1447 133.17 26.3582 133.972 26.3582C134.27 26.3582 134.591 26.3226 134.934 26.2514C135.278 26.1803 135.588 26.0735 135.863 25.9312L135.966 28.6711C135.576 28.8135 135.141 28.9202 134.659 28.9914C134.201 29.0863 133.72 29.1337 133.216 29.1337C131.68 29.1337 130.5 28.6949 129.675 27.8171C128.873 26.9394 128.472 25.6228 128.472 23.8673V14.7223H125.344V11.9824H128.472V7.14296H131.669V11.9824H136V14.7223Z" fill="#1E1F21"/>
<path fill-rule="evenodd" clip-rule="evenodd" d="M9.79445 0.0644531C6.52963 3.00371 0 10.774 0 18.3413C0 26.7532 6.29345 28.3184 9.19376 28.5619V23.1796L5.62009 19.8851L6.62603 18.7215L9.19376 21.0886V17.085L6.68855 14.7521L7.70011 13.5937L9.19376 14.9846V11.6078H10.7043V14.9846L12.1979 13.5937L13.2095 14.7521L10.7043 17.085V21.0401L13.1076 18.7321L14.1363 19.8744L10.7043 23.1701V28.5806C13.9475 28.3566 19.7419 26.2752 19.7419 17.7C19.7419 10.3893 13.1103 2.89683 9.79445 0.0644531Z" fill="#1E1F21"/>
</svg>
