<svg width="69" height="38" viewBox="0 0 69 38" fill="none" xmlns="http://www.w3.org/2000/svg">
<path d="M0 0H4.92876V17.6168C6.68121 16.0233 8.6162 15.2266 10.7337 15.2266C13.1434 15.2266 15.0711 16.0159 16.5168 17.5946C17.7435 18.9668 18.3569 21.1578 18.3569 24.1677V37.3803H13.4281V24.6325C13.4281 22.9062 13.1215 21.6595 12.5081 20.8923C11.9093 20.1103 10.9382 19.7193 9.59465 19.7193C7.87141 19.7193 6.6593 20.2578 5.95832 21.3349C5.27195 22.4267 4.92876 24.3005 4.92876 26.9563V37.3803H0V0Z" fill="#1E1F21"/>
<path d="M44.9494 27.7752H29.6593C29.7907 29.5457 30.3603 30.9548 31.3679 32.0023C32.3756 33.0351 33.668 33.5515 35.2452 33.5515C36.4719 33.5515 37.4869 33.2565 38.2901 32.6663C39.0787 32.0761 39.9768 30.9843 40.9845 29.3908L45.1466 31.7368C44.504 32.8433 43.8249 33.795 43.1093 34.5917C42.3938 35.3737 41.6271 36.0229 40.8093 36.5393C39.9914 37.041 39.1079 37.4098 38.1587 37.6459C37.2094 37.882 36.1799 38 35.07 38C31.8864 38 29.3307 36.9672 27.403 34.9016C25.4753 32.8212 24.5115 30.0621 24.5115 26.6243C24.5115 23.2161 25.4461 20.457 27.3154 18.3471C29.1993 16.2667 31.6965 15.2266 34.8071 15.2266C37.9469 15.2266 40.4296 16.2372 42.255 18.2586C44.0659 20.2652 44.9713 23.0464 44.9713 26.6022L44.9494 27.7752ZM39.8892 23.703C39.2028 21.0472 37.5453 19.7193 34.9166 19.7193C34.3179 19.7193 33.7556 19.8152 33.2299 20.007C32.7042 20.184 32.2223 20.4496 31.7841 20.8037C31.3606 21.1431 30.9955 21.5562 30.6889 22.0431C30.3822 22.53 30.1485 23.0833 29.9879 23.703H39.8892Z" fill="#1E1F21"/>
<path d="M56.1861 0V37.3803H51.2573V0H56.1861Z" fill="#1E1F21"/>
<path d="M68.2552 15.8241V37.3803H63.3265V15.8241H68.2552ZM62.5817 6.8608C62.5817 5.99029 62.8956 5.23782 63.5236 4.60338C64.1516 3.96894 64.9037 3.65172 65.7799 3.65172C66.6707 3.65172 67.4301 3.96894 68.0581 4.60338C68.686 5.22306 69 5.98292 69 6.88294C69 7.78295 68.686 8.55018 68.0581 9.18462C67.4447 9.81906 66.6926 10.1363 65.8018 10.1363C64.911 10.1363 64.1516 9.81906 63.5236 9.18462C62.8956 8.55018 62.5817 7.77558 62.5817 6.8608Z" fill="#1E1F21"/>
</svg>
