<svg width="133" height="36" viewBox="0 0 133 36" fill="none" xmlns="http://www.w3.org/2000/svg">
<path fill-rule="evenodd" clip-rule="evenodd" d="M15.4375 0.0268555L30.8749 9.01334V26.9863L15.4375 35.9728L0 26.9863V9.01334L15.4375 0.0268555ZM20.0831 3.66795L15.4375 0.963605L0.804598 9.48172V14.5532L20.0831 3.66795ZM20.8925 4.13913C20.8833 4.14539 20.8738 4.15131 20.8639 4.15688L15.9997 6.90334L30.0703 14.9553V9.48172L20.8925 4.13913ZM6.18457 12.4453L15.1846 7.36357C15.2014 7.3772 15.2195 7.38966 15.2389 7.40074L24.6903 12.8094V17.5942H6.18457V12.4453ZM6.18457 18.4055V23.7291L15.1129 28.8574C15.1424 28.8743 15.169 28.8945 15.1925 28.9172L24.6903 23.5544V18.4055H6.18457ZM25.4949 23.1001V13.2699L30.0703 15.8882V20.5167L25.4949 23.1001ZM14.3851 29.373L0.804598 21.5726V26.5179L10.0393 31.8936L10.011 31.8428L14.3851 29.373ZM10.7918 32.3317L15.4375 35.0361L30.0703 26.5179V21.4465L10.7918 32.3317ZM5.37997 12.8996L0.804598 15.4829V20.639L5.37997 23.267V12.8996Z" fill="#1E1F21"/>
<path d="M62.377 27.7518V7.73291H73.718V8.45431H64.8322V17.1712H70.0935V17.7123H64.8322V27.0304H73.718V27.7518H62.377Z" fill="#1E1F21"/>
<path d="M114.443 7.21729H100.009V8.11365H106.058V27.2361H108.693V8.11365H114.443V7.21729Z" fill="#1E1F21"/>
<path d="M130.069 27.75H133L125.906 7.73114H125.32L118.05 27.75H118.93L124.675 12.0209L130.069 27.75Z" fill="#1E1F21"/>
<path d="M43.1413 7.73291H40.21L47.3037 27.7518H47.8899L55.1595 7.73291H54.2802L48.5348 23.462L43.1413 7.73291Z" fill="#1E1F21"/>
<path d="M86.345 15.1754C83.3495 14.2035 83.1356 12.442 83.1356 11.6523C83.1356 10.3767 84.108 7.88621 87.2959 7.88621C89.8462 7.88621 91.7264 9.66802 92.3477 10.5589L92.7638 10.1337L92.526 9.83C91.5157 8.61513 89.7921 7.21804 87.2959 7.21804C82.4818 7.15729 81.1743 10.7978 81.1743 12.6242C81.1743 14.5672 82.3019 17.1854 85.4535 18.0911C89.9852 19.3934 90.9213 21.398 90.9213 22.7683C90.9213 24.3477 89.7921 27.1232 86.7016 27.0811C84.2291 27.0474 82.2242 25.0018 81.5309 23.9832L80.9365 24.4691L81.1743 24.7729C83.0167 27.2026 84.8591 27.7493 86.7016 27.7493C88.544 27.7493 89.1978 27.7905 90.9213 26.5952C92.6449 25.3998 93.3646 23.1866 93.3052 21.5465C93.2458 19.9064 92.7887 18.9479 91.9317 18.0911C91.2929 17.4525 90.0893 16.3903 86.345 15.1754Z" fill="#1E1F21"/>
</svg>
