<svg width="382" height="436" viewBox="0 0 382 436" fill="none" xmlns="http://www.w3.org/2000/svg">
<g clip-path="url(#clip0_7964_7071)">
<path d="M256.002 7.90483C236.762 16.2289 217.289 23.9654 197.612 31.1855C187.738 34.7065 177.787 38.0317 167.956 41.6596C158.117 45.2696 148.392 49.1646 138.687 53.1129C128.989 57.0791 119.271 60.9919 109.503 64.78C99.7417 68.5859 89.9877 72.4096 80.1775 76.0909C60.5288 83.3822 40.8167 90.5133 20.8933 97.1103C20.7681 97.1578 20.6461 97.1222 20.6179 97.051C20.5897 96.9798 20.6625 96.8907 20.7877 96.8432C40.042 88.5548 59.5147 80.8183 79.0578 73.2599C88.8399 69.5074 98.6783 65.8973 108.51 62.2694C118.334 58.6238 128.208 55.1027 138.103 51.6351C147.99 48.1497 157.85 44.593 167.611 40.7871C177.365 36.9634 187.013 32.8726 196.732 28.9598C216.24 21.3124 235.952 14.1813 255.896 7.63776C256.021 7.59026 256.143 7.62586 256.172 7.69708C256.169 7.78017 256.096 7.8692 256.002 7.90483Z" fill="white"/>
<path d="M380.844 333.168C359.375 342.388 337.669 351.023 315.754 359.143C304.761 363.114 293.688 366.89 282.738 370.968C271.781 375.028 260.939 379.372 250.118 383.769C239.304 388.184 228.469 392.546 217.583 396.783C206.705 401.039 195.834 405.312 184.905 409.443C163.019 417.634 141.068 425.665 118.902 433.164C118.763 433.217 118.63 433.186 118.601 433.115C118.572 433.044 118.655 432.951 118.795 432.897C140.279 423.712 161.985 415.078 183.763 406.62C194.663 402.418 205.62 398.358 216.571 394.281C227.514 390.185 238.507 386.214 249.522 382.296C260.529 378.36 271.508 374.353 282.386 370.098C293.258 365.825 304.021 361.286 314.856 356.924C336.599 348.378 358.549 340.347 380.737 332.902C380.876 332.848 381.01 332.879 381.038 332.95C381.032 333.035 380.949 333.128 380.844 333.168Z" fill="white"/>
<path d="M381.572 331.699C370.104 305.183 359.282 278.395 349.026 251.368C343.997 237.813 339.182 224.168 334.035 210.663C328.907 197.15 323.466 183.768 317.967 170.411C312.448 157.062 306.988 143.689 301.665 130.258C296.322 116.835 290.96 103.42 285.754 89.9395C275.421 62.9456 265.263 35.8777 255.692 8.56279C255.625 8.39073 255.653 8.22877 255.731 8.19585C255.81 8.16293 255.919 8.26728 255.986 8.43933C267.414 34.9723 278.237 61.7605 288.864 88.6309C294.148 102.078 299.275 115.592 304.423 129.097C309.589 142.594 314.619 156.149 319.59 169.728C324.581 183.299 329.65 196.837 334.993 210.26C340.355 223.674 346.011 236.966 351.471 250.339C362.196 277.168 372.353 304.236 381.865 331.576C381.932 331.748 381.904 331.91 381.826 331.943C381.731 331.933 381.622 331.828 381.572 331.699Z" fill="white"/>
<path d="M119.863 431.443C109.058 406.55 98.9 381.388 89.3103 355.991C84.6135 343.252 80.1322 330.423 75.3177 317.733C70.5229 305.034 65.4145 292.466 60.2473 279.922C55.0604 267.386 49.9324 254.825 44.9416 242.208C39.9312 229.599 34.9012 216.998 30.0279 204.332C20.3598 178.967 10.8682 153.529 1.96447 127.848C1.90168 127.686 1.93297 127.533 2.01137 127.5C2.08976 127.468 2.19565 127.564 2.25844 127.726C13.0241 152.636 23.1821 177.797 33.1442 203.04C38.0958 215.673 42.8906 228.372 47.7051 241.062C52.5391 253.744 57.2359 266.484 61.874 279.247C66.5316 292.003 71.2677 304.726 76.2781 317.335C81.3081 329.936 86.6321 342.415 91.7602 354.975C101.82 380.177 111.312 405.615 120.157 431.321C120.22 431.483 120.188 431.636 120.11 431.669C120.016 431.661 119.91 431.564 119.863 431.443Z" fill="white"/>
<path d="M191.1 215.574C198.608 212.35 206.198 209.331 213.861 206.491C217.705 205.103 221.576 203.782 225.405 202.356C229.237 200.936 233.028 199.417 236.812 197.88C240.593 196.336 244.382 194.811 248.188 193.329C251.992 191.841 255.793 190.347 259.614 188.902C267.267 186.038 274.943 183.229 282.693 180.607C282.742 180.588 282.789 180.599 282.799 180.624C282.809 180.648 282.78 180.681 282.731 180.699C275.219 183.911 267.628 186.93 260.013 189.888C256.202 191.357 252.371 192.777 248.542 194.203C244.715 195.635 240.871 197.024 237.02 198.394C233.171 199.77 229.332 201.172 225.528 202.66C221.727 204.154 217.963 205.741 214.174 207.266C206.572 210.254 198.896 213.063 191.138 215.667C191.089 215.686 191.043 215.675 191.033 215.65C191.035 215.621 191.064 215.588 191.1 215.574Z" fill="white"/>
<path d="M147.764 102.699C155.263 99.479 162.843 96.4634 170.497 93.6275C174.336 92.2406 178.203 90.9218 182.027 89.4977C185.854 88.0798 189.641 86.5627 193.42 85.027C197.196 83.4851 200.981 81.9618 204.782 80.4819C208.582 78.9958 212.378 77.5035 216.195 76.0608C223.838 73.2001 231.505 70.3953 239.246 67.7764C239.295 67.7578 239.341 67.7686 239.351 67.7934C239.361 67.8182 239.332 67.8508 239.283 67.8693C231.78 71.0771 224.2 74.0927 216.594 77.0464C212.787 78.5139 208.96 79.9318 205.136 81.3559C201.314 82.7862 197.475 84.1732 193.628 85.5415C189.784 86.916 185.949 88.3154 182.15 89.8015C178.354 91.2938 174.595 92.8791 170.81 94.4024C163.217 97.387 155.551 100.192 147.802 102.792C147.753 102.811 147.707 102.8 147.697 102.775C147.699 102.746 147.728 102.713 147.764 102.699Z" fill="white"/>
<path d="M147.517 103.213C151.522 112.474 155.301 121.83 158.883 131.268C160.64 136.002 162.321 140.768 164.119 145.484C165.91 150.204 167.81 154.877 169.73 159.542C171.658 164.204 173.565 168.875 175.424 173.565C177.29 178.253 179.162 182.938 180.98 187.646C184.589 197.074 188.137 206.527 191.479 216.066C191.503 216.126 191.493 216.183 191.466 216.195C191.438 216.206 191.4 216.17 191.377 216.109C187.385 206.843 183.606 197.487 179.894 188.103C178.049 183.407 176.258 178.687 174.461 173.971C172.656 169.257 170.9 164.523 169.163 159.781C167.42 155.041 165.65 150.313 163.784 145.625C161.911 140.94 159.936 136.298 158.029 131.628C154.284 122.258 150.736 112.805 147.414 103.256C147.391 103.196 147.401 103.14 147.428 103.128C147.461 103.132 147.499 103.168 147.517 103.213Z" fill="white"/>
<path d="M238.91 68.3741C242.68 77.0587 246.224 85.8369 249.57 94.6975C251.208 99.142 252.771 103.618 254.451 108.045C256.124 112.475 257.906 116.86 259.709 121.237C261.519 125.61 263.308 129.992 265.049 134.394C266.797 138.793 268.552 143.189 270.252 147.608C273.625 156.457 276.936 165.332 280.042 174.292C280.064 174.348 280.053 174.402 280.026 174.413C279.998 174.425 279.961 174.391 279.94 174.335C276.183 165.644 272.639 156.866 269.164 148.06C267.436 143.652 265.763 139.222 264.084 134.794C262.397 130.37 260.759 125.925 259.141 121.472C257.516 117.022 255.864 112.583 254.116 108.184C252.361 103.788 250.503 99.4343 248.714 95.0523C245.204 86.2598 241.893 77.3851 238.807 68.4167C238.785 68.3603 238.796 68.3066 238.824 68.2953C238.857 68.298 238.894 68.3318 238.91 68.3741Z" fill="white"/>
<path d="M240.812 8.25464C239.41 6.66754 237.565 5.53484 235.514 5.00161C233.464 4.46838 231.301 4.55889 229.303 5.26155C227.305 5.96422 225.563 7.24704 224.299 8.94572C223.035 10.6444 222.308 12.6816 222.21 14.7965L222.104 18.1743C222.087 18.7157 222.623 19.1031 223.132 18.9176L224.259 18.5067C224.554 18.3989 224.754 18.1209 224.761 17.8062L224.829 14.9309C224.945 12.7964 225.904 10.7954 227.495 9.36711C229.086 7.94343 231.178 7.20812 233.311 7.32214C235.445 7.43616 237.446 8.39022 238.878 9.97548C239.595 10.759 240.15 11.6766 240.511 12.6754C240.872 13.6741 241.031 14.7343 240.98 15.7947L239.569 42.0695L238.748 57.3473C238.675 58.6854 238.073 59.9394 237.075 60.834C236.076 61.7287 234.764 62.1909 233.425 62.1192C232.086 62.0449 230.831 61.4428 229.935 60.445C229.039 59.4472 228.576 58.1351 228.647 56.7969L230.089 29.9142C230.111 29.4914 229.786 29.1303 229.363 29.1086L228.273 29.0526C227.852 29.031 227.492 29.3543 227.47 29.7755L226.03 56.6752C225.923 58.6955 226.624 60.6759 227.977 62.1813C229.33 63.6866 231.226 64.5938 233.248 64.7035C233.731 64.7255 234.215 64.7025 234.695 64.6349C236.45 64.3912 238.066 63.5459 239.267 62.2436C240.467 60.9412 241.178 59.2624 241.278 57.494L242.162 40.791L243.494 15.9177C243.576 14.5269 243.382 13.1334 242.921 11.8179C242.461 10.5025 241.744 9.29138 240.812 8.25464Z" fill="white"/>
<path d="M235.696 139.112C235.671 139.259 235.649 139.411 235.631 139.566C235.549 139.488 235.578 139.325 235.696 139.112C236.707 133.209 243.123 134.034 244.3 138.456C245.506 142.989 243.631 152.036 243.169 149.438C245.291 131.107 236.779 137.164 235.696 139.112Z" fill="white"/>
<path d="M201.331 154.806C201.448 154.898 201.566 154.996 201.684 155.099C201.693 154.986 201.561 154.885 201.331 154.806C196.628 151.098 192.415 156.006 194.501 160.079C196.64 164.253 204.089 169.718 202.694 167.479C188.845 155.282 199.223 154.083 201.331 154.806Z" fill="white"/>
<path d="M211.948 117.35C218.102 113.31 229.645 116.135 233.652 127.998C238.645 142.784 245.615 159.14 244.687 166.756C242.614 174.253 239.207 181.146 234.784 183.962C231.427 185.251 219.831 181.81 215.99 179.455C210.95 176.365 201.813 158.378 193.841 143.291C207.881 133.989 205.793 121.389 211.948 117.35Z" fill="white" stroke="white" stroke-width="0.926946"/>
<path d="M236.132 166.827C234.761 167.968 232.761 170.35 229.981 171.402C226.802 172.605 222.836 172.403 221.648 172.391" stroke="#1E1F21" stroke-width="0.926946" stroke-linecap="round" stroke-linejoin="round"/>
<path d="M219.147 148.415C222.214 154.882 224.083 161.264 224.124 162.887C224.164 164.509 224.53 165.461 226.561 164.681C228.593 163.9 228.918 163.229 228.552 162.278" stroke="#1E1F21" stroke-width="0.926946" stroke-linecap="round" stroke-linejoin="round"/>
<path d="M221.589 144.154C224.545 138.87 226.65 138.58 232.308 137.444" stroke="#1E1F21" stroke-width="0.926946" stroke-linecap="round" stroke-linejoin="round"/>
<path d="M216.805 146.821C209.324 145.734 207.015 148.211 204.198 150.778" stroke="#1E1F21" stroke-width="0.926946" stroke-linecap="round" stroke-linejoin="round"/>
<path d="M229.048 148.767C230.534 148.196 230.023 146.286 229.625 145.249C228.336 145.657 226.952 146.299 225.778 147.114C226.395 148.18 227.562 149.338 229.048 148.767Z" fill="#1E1F21"/>
<path d="M223.564 149.294C224.08 148.483 224.866 147.746 225.778 147.114M232.626 144.76C231.846 144.708 230.774 144.885 229.625 145.249M229.625 145.249C230.023 146.286 230.534 148.196 229.048 148.767C227.562 149.338 226.395 148.18 225.778 147.114M229.625 145.249C228.336 145.657 226.952 146.299 225.778 147.114" stroke="#1E1F21" stroke-width="0.926946" stroke-linecap="round" stroke-linejoin="round"/>
<path d="M213.869 155.426C211.986 156.15 210.862 154.457 210.668 153.484C211.739 152.924 213.344 152.206 214.434 152.037C214.921 152.838 215.375 154.848 213.869 155.426Z" fill="#1E1F21"/>
<path d="M207.852 155.997C208.419 154.965 209.465 154.112 210.668 153.484M217.266 152.381C216.619 152.071 215.552 151.864 214.434 152.037M210.668 153.484C210.862 154.457 211.986 156.15 213.869 155.426C215.375 154.848 214.921 152.838 214.434 152.037M210.668 153.484C211.739 152.924 213.344 152.206 214.434 152.037" stroke="#1E1F21" stroke-width="0.926946" stroke-linecap="round" stroke-linejoin="round"/>
<path d="M185.615 126.718C178.69 133.247 183.926 139.655 191.127 149.734C196.91 157.566 194.041 155.876 196.272 154.46C198.503 153.045 200.185 157.425 198.535 150.24C196.885 143.054 201.114 135.286 207.277 126.775C213.441 118.263 226.618 119.345 229.017 128.477C231.415 137.609 235.36 137.769 239.042 135.796C242.723 133.824 238.171 127.753 239.048 118.48C239.925 109.207 228.804 113.479 228.43 112.505C225.722 96.7897 214.588 93.806 205.93 101.6C197.271 109.394 196.614 116.349 185.615 126.718Z" fill="white" stroke="#1E1F21" stroke-width="0.926946"/>
<path d="M20.8489 97.0715C20.7925 96.9736 20.6531 96.969 20.5901 97.0628L20.4098 97.3318L1.86709 127.537C1.79515 127.654 1.90245 127.799 2.03543 127.765L32.2663 119.889L33.5282 119.404C33.6158 119.371 33.6526 119.267 33.6057 119.185L20.8489 97.0715Z" fill="white"/>
<rect x="55.5781" y="166.117" width="92.4628" height="3.06103" transform="rotate(-21.0139 55.5781 166.117)" fill="white"/>
<rect x="59.6016" y="177.742" width="68.1113" height="3.06103" transform="rotate(-21.0139 59.6016 177.742)" fill="white"/>
<path d="M64.0371 189.305L140.83 159.805L141.928 162.663L65.1348 192.162L64.0371 189.305Z" fill="white"/>
<path d="M69.043 201.164L155.356 168.007L156.454 170.865L70.1406 204.022L69.043 201.164Z" fill="white"/>
<rect x="194.658" y="226.789" width="100.11" height="3.06103" transform="rotate(-21.0139 194.658 226.789)" fill="white"/>
<path d="M199.168 238.195L275.135 209.013L276.233 211.871L200.266 241.053L199.168 238.195Z" fill="white"/>
<path d="M216.615 283.609L307.446 248.718L308.544 251.575L217.713 286.467L216.615 283.609Z" fill="white"/>
<path d="M203.611 249.75L284.533 218.665L285.631 221.522L204.709 252.607L203.611 249.75Z" fill="white"/>
<path d="M221.055 295.172L306.931 262.183L308.029 265.041L222.152 298.029L221.055 295.172Z" fill="white"/>
<path d="M208.125 261.836L301.577 225.937L302.675 228.795L209.223 264.693L208.125 261.836Z" fill="white"/>
<path d="M225.568 307.25L319.021 271.351L320.118 274.209L226.666 310.107L225.568 307.25Z" fill="white"/>
<rect x="107.717" y="299.431" width="24.3323" height="24.3323" transform="rotate(-21.0139 107.717 299.431)" stroke="white" stroke-width="1.39042"/>
<rect x="121.433" y="335.126" width="24.3323" height="24.3323" transform="rotate(-21.0139 121.433 335.126)" stroke="white" stroke-width="1.39042"/>
<rect x="124.912" y="251.125" width="47.9694" height="3.06103" transform="rotate(-21.0139 124.912 251.125)" fill="white"/>
<rect x="138.625" y="286.812" width="47.9694" height="3.06103" transform="rotate(-21.0139 138.625 286.812)" fill="white"/>
<rect x="152.34" y="322.508" width="47.9694" height="3.06103" transform="rotate(-21.0139 152.34 322.508)" fill="white"/>
<rect x="127.648" y="258.258" width="34.0652" height="3.06103" transform="rotate(-21.0139 127.648 258.258)" fill="white"/>
<rect x="141.365" y="293.953" width="34.0652" height="3.06103" transform="rotate(-21.0139 141.365 293.953)" fill="white"/>
<rect x="155.07" y="329.648" width="34.0652" height="3.06103" transform="rotate(-21.0139 155.07 329.648)" fill="white"/>
<g clip-path="url(#clip1_7964_7071)">
<path d="M131.535 108.433C127.695 110.13 123.806 111.739 119.946 113.383L108.2 118.226C100.353 121.411 92.4859 124.542 84.6089 127.647L72.7433 132.172L60.8226 136.55C52.8655 139.443 44.9484 142.442 37.0714 145.547L37.2683 145.302L37.2658 145.334L37.0653 144.955L41.2422 146.796C41.4182 146.879 41.5109 147.086 41.4399 147.282C41.4247 147.318 41.3969 147.359 41.3691 147.401L37.5173 151.598L37.2874 150.912L42.1365 151.698C42.3831 151.739 42.5638 151.988 42.5304 152.244C42.5252 152.307 42.5074 152.375 42.467 152.421L42.4594 152.44L40.3411 156.021L40.0737 155.197L44.4248 156.848C44.7443 156.967 44.9095 157.328 44.798 157.646C44.7802 157.714 44.7448 157.773 44.717 157.814L44.6968 157.838L42.9313 160.247C42.8277 160.394 42.6689 160.471 42.5077 160.503L42.4825 160.513L42.4699 160.518L42.7625 159.262L42.8203 159.301L42.2163 159.232C50.0483 156.008 57.9004 152.836 65.7674 149.705C73.6395 146.587 81.4815 143.389 89.3936 140.377C97.2907 137.325 105.173 134.233 113.11 131.288L124.995 126.816L136.916 122.437L136.635 123.11L131.535 108.433ZM131.684 108.253L137.575 122.728C137.688 122.989 137.571 123.293 137.319 123.391L137.294 123.401L125.553 128.257L113.778 133.021C105.941 136.232 98.0486 139.297 90.1716 142.402C82.3045 145.534 74.3774 148.506 66.4753 151.544C58.5683 154.57 50.6462 157.555 42.7041 160.488L42.6789 160.497C42.4773 160.576 42.2609 160.539 42.0951 160.406L42.0373 160.367L42.0197 160.359C41.7206 160.141 41.6336 159.718 41.8483 159.406C41.9595 159.241 42.151 159.136 42.3298 159.111L42.3424 159.107L41.8887 159.36L43.7347 157.011L44.0067 158L39.7113 156.191L39.6937 156.183C39.4221 156.076 39.2844 155.749 39.3934 155.463C39.4086 155.426 39.4238 155.39 39.444 155.367L41.6729 151.848L42.0009 152.603L37.1773 151.655L37.1647 151.66C36.9483 151.622 36.8078 151.403 36.8436 151.191C36.8564 151.11 36.8994 151.033 36.9524 150.981L40.8594 146.854L40.9813 147.445L36.8146 145.556C36.6738 145.489 36.5835 145.326 36.6141 145.177L36.6167 145.146C36.6321 145.033 36.7129 144.941 36.8137 144.901C44.7107 141.849 52.5678 138.691 60.3848 135.427L72.1254 130.571L83.9209 125.86C91.818 122.809 99.7251 119.783 107.652 116.811L119.568 112.419C123.561 111.013 127.53 109.54 131.538 108.173C131.611 108.175 131.664 108.2 131.684 108.253Z" fill="white"/>
</g>
<g clip-path="url(#clip2_7964_7071)">
<path d="M51.95 156.576C55.8001 154.9 59.6972 153.313 63.567 151.69L75.3392 146.912C83.2038 143.771 91.088 140.683 98.9822 137.622L110.873 133.163L122.817 128.851C130.79 126.002 138.724 123.047 146.618 119.986L146.42 120.229L146.423 120.198L146.621 120.578L142.454 118.714C142.279 118.63 142.187 118.422 142.259 118.227C142.275 118.191 142.303 118.15 142.331 118.108L146.206 113.932L146.432 114.62L141.587 113.807C141.341 113.765 141.162 113.515 141.196 113.258C141.202 113.195 141.22 113.128 141.261 113.082L141.268 113.064L143.407 109.493L143.669 110.319L139.327 108.645C139.009 108.524 138.845 108.161 138.959 107.844C138.977 107.777 139.013 107.717 139.041 107.676L139.061 107.653L140.84 105.254C140.944 105.107 141.103 105.031 141.265 105L141.29 104.99L141.303 104.985L141.003 106.239L140.946 106.201L141.549 106.273C133.699 109.454 125.83 112.581 117.946 115.669C110.056 118.744 102.197 121.898 94.2681 124.866C86.3542 127.874 78.4551 130.922 70.5019 133.824L58.5917 138.229L46.6469 142.542L46.9317 141.871L51.95 156.576ZM51.8 156.755L45.9897 142.247C45.8785 141.986 45.9967 141.683 46.2493 141.586L46.2745 141.576L58.0418 136.785L69.8436 132.087C77.6983 128.919 85.6072 125.898 93.5013 122.836C101.386 119.749 109.329 116.82 117.248 113.826C125.172 110.844 133.11 107.903 141.068 105.014L141.094 105.005C141.296 104.927 141.512 104.966 141.677 105.1L141.734 105.138L141.752 105.147C142.05 105.367 142.135 105.79 141.918 106.101C141.806 106.265 141.614 106.369 141.435 106.392L141.422 106.397L141.877 106.147L140.018 108.486L139.752 107.494L144.037 109.327L144.055 109.336C144.326 109.444 144.462 109.772 144.351 110.057C144.336 110.094 144.32 110.13 144.3 110.153L142.052 113.659L141.728 112.902L146.546 113.878L146.559 113.873C146.775 113.911 146.914 114.131 146.877 114.343C146.864 114.424 146.821 114.501 146.767 114.552L142.837 118.658L142.719 118.066L146.875 119.979C147.015 120.046 147.105 120.21 147.073 120.358L147.071 120.39C147.055 120.502 146.973 120.594 146.872 120.633C138.958 123.641 131.084 126.755 123.249 129.976L111.482 134.767L99.6602 139.412C91.7463 142.421 83.8226 145.402 75.8792 148.33L63.9394 152.656C59.9381 154.04 55.9615 155.491 51.9454 156.836C51.8724 156.833 51.8198 156.808 51.8 156.755Z" fill="white"/>
</g>
<g clip-path="url(#clip3_7964_7071)">
<path d="M115.522 255.186C110.051 257.671 104.51 260.027 99.0089 262.434L82.2695 269.525C71.0848 274.188 59.87 278.773 48.64 283.319L31.7197 289.943L14.7165 296.353C3.36593 300.588 -7.92432 304.978 -19.1543 309.524L-18.8779 309.166L-18.8808 309.212L-19.1788 308.657L-13.1308 311.359C-12.8758 311.481 -12.7372 311.785 -12.8339 312.071C-12.8548 312.125 -12.8936 312.185 -12.9324 312.246L-18.3522 318.397L-18.7008 317.391L-11.7155 318.548C-11.3603 318.608 -11.0942 318.973 -11.1352 319.349C-11.141 319.441 -11.1647 319.541 -11.2215 319.609L-11.2319 319.635L-14.1786 324.885L-14.5845 323.677L-8.29148 326.101C-7.82956 326.275 -7.58253 326.806 -7.73424 327.271C-7.75798 327.371 -7.80722 327.458 -7.84603 327.518L-7.87443 327.552L-10.3457 331.083C-10.4906 331.298 -10.7166 331.412 -10.9472 331.459L-10.9831 331.473L-11.0011 331.481L-10.6144 329.64L-10.5304 329.696L-11.3997 329.595C-0.237628 324.873 10.9546 320.23 22.1695 315.645C33.3919 311.08 44.5691 306.398 55.8518 301.988C67.1119 297.52 78.3494 292.994 89.6698 288.681L106.62 282.135L123.623 275.725L123.238 276.711L115.522 255.186ZM115.731 254.922L124.577 276.152C124.746 276.534 124.587 276.98 124.228 277.124L124.192 277.138L107.46 284.249L90.6753 291.223C79.5057 295.925 68.2531 300.413 57.0232 304.958C45.8083 309.543 34.503 313.895 23.2353 318.343C11.9602 322.772 0.662391 327.143 -10.6656 331.436L-10.7015 331.45C-10.9889 331.566 -11.3007 331.511 -11.5424 331.315L-11.6265 331.259L-11.6519 331.247C-12.0873 330.927 -12.2236 330.307 -11.9235 329.849C-11.7683 329.607 -11.496 329.453 -11.2398 329.418L-11.2219 329.411L-11.8668 329.782L-9.27833 326.339L-8.86129 327.79L-15.0785 325.134L-15.104 325.122C-15.497 324.964 -15.7034 324.485 -15.5546 324.066C-15.5337 324.012 -15.5129 323.959 -15.4845 323.925L-12.3773 318.768L-11.8861 319.875L-18.839 318.48L-18.857 318.487C-19.1688 318.432 -19.3763 318.111 -19.3306 317.8C-19.3144 317.681 -19.2548 317.568 -19.18 317.493L-13.679 311.443L-13.4882 312.311L-19.5228 309.537C-19.7269 309.439 -19.8608 309.2 -19.8209 308.982L-19.818 308.935C-19.7989 308.77 -19.6854 308.635 -19.5416 308.577C-8.28155 304.109 2.91825 299.486 14.0577 294.706L30.7896 287.595L47.6043 280.699C58.8644 276.231 70.1396 271.801 81.4449 267.45L98.4406 261.02C104.138 258.962 109.799 256.805 115.519 254.805C115.624 254.808 115.701 254.845 115.731 254.922Z" fill="white"/>
</g>
<g clip-path="url(#clip4_7964_7071)">
<path d="M101.815 284.88C107.302 282.432 112.857 280.11 118.373 277.739L135.155 270.75C146.367 266.153 157.607 261.633 168.863 257.15L185.818 250.616L202.853 244.291C214.223 240.111 225.537 235.781 236.792 231.298L236.511 231.649L236.515 231.604L236.804 232.144L230.818 229.532C230.565 229.414 230.432 229.117 230.532 228.838C230.554 228.786 230.593 228.726 230.633 228.667L236.123 222.641L236.456 223.623L229.513 222.522C229.16 222.465 228.9 222.109 228.947 221.742C228.954 221.652 228.979 221.555 229.037 221.489L229.047 221.463L232.06 216.327L232.447 217.505L226.213 215.165C225.755 214.996 225.517 214.48 225.675 214.025C225.7 213.928 225.75 213.842 225.79 213.783L225.819 213.75L228.333 210.294C228.48 210.083 228.707 209.972 228.938 209.925L228.974 209.91L228.992 209.903L228.579 211.702L228.496 211.647L229.361 211.742C218.171 216.395 206.952 220.973 195.711 225.493C184.463 229.995 173.258 234.61 161.952 238.96C150.668 243.366 139.405 247.83 128.063 252.085L111.079 258.543L94.0447 264.869L94.4435 263.905L101.815 284.88ZM101.602 285.138L93.1005 264.456C92.938 264.084 93.1032 263.648 93.4633 263.506L93.4993 263.492L110.274 256.484L127.099 249.608C138.296 244.974 149.573 240.548 160.829 236.066C172.07 231.545 183.397 227.252 194.689 222.865C205.987 218.496 217.308 214.184 228.657 209.948L228.693 209.934C228.981 209.82 229.291 209.873 229.529 210.062L229.611 210.117L229.637 210.129C230.066 210.439 230.192 211.044 229.887 211.491C229.728 211.728 229.455 211.88 229.199 211.915L229.181 211.922L229.829 211.558L227.2 214.928L226.806 213.514L232.961 216.081L232.986 216.092C233.375 216.244 233.574 216.711 233.419 217.121C233.398 217.173 233.376 217.225 233.347 217.259L230.176 222.304L229.703 221.226L236.609 222.559L236.627 222.552C236.937 222.604 237.139 222.917 237.089 223.22C237.071 223.336 237.01 223.448 236.935 223.521L231.365 229.447L231.188 228.601L237.159 231.284C237.361 231.379 237.491 231.611 237.448 231.825L237.444 231.87C237.423 232.031 237.308 232.163 237.164 232.22C225.88 236.627 214.653 241.185 203.485 245.895L186.71 252.903L169.856 259.703C158.572 264.11 147.273 268.478 135.946 272.771L118.918 279.116C113.211 281.149 107.54 283.276 101.811 285.252C101.707 285.249 101.631 285.214 101.602 285.138Z" fill="white"/>
</g>
<g clip-path="url(#clip5_7964_7071)">
<path d="M129.899 290.358C124.428 292.843 118.887 295.199 113.386 297.606L96.6465 304.697C85.4618 309.36 74.2469 313.945 63.017 318.49L46.0967 325.115L29.0934 331.525C17.7429 335.76 6.45262 340.15 -4.77732 344.696L-4.50098 344.338L-4.50385 344.384L-4.80188 343.829L1.24612 346.531C1.50114 346.653 1.63973 346.957 1.54302 347.243C1.52217 347.297 1.48336 347.357 1.44456 347.418L-3.97527 353.569L-4.32383 352.562L2.66143 353.719C3.01669 353.779 3.2828 354.145 3.24175 354.521C3.23599 354.613 3.21223 354.713 3.15544 354.78L3.14504 354.807L0.19838 360.057L-0.207608 358.849L6.08547 361.272C6.54739 361.447 6.79441 361.978 6.64269 362.443C6.61897 362.542 6.56974 362.63 6.53092 362.69L6.50251 362.724L4.0312 366.255C3.88637 366.47 3.66038 366.583 3.42975 366.631L3.39382 366.645L3.37587 366.652L3.7625 364.811L3.84655 364.868L2.97723 364.766C14.1393 360.045 25.3316 355.402 36.5464 350.817C47.7688 346.252 58.946 341.57 70.2287 337.16C81.4888 332.692 92.7263 328.166 104.047 323.853L120.273 319.421L138.605 311.883L137.615 311.883L129.899 290.358ZM130.108 290.094L138.954 311.324C139.123 311.706 138.964 312.152 138.605 312.296L138.569 312.31L121.837 319.421L105.052 326.395C93.8826 331.097 82.6301 335.584 71.4001 340.13C60.1853 344.715 48.8799 349.066 37.6123 353.515C26.3371 357.944 15.0393 362.315 3.71138 366.608L3.67547 366.622C3.38806 366.738 3.07625 366.683 2.83453 366.487L2.75049 366.431L2.72499 366.419C2.28969 366.099 2.15335 365.479 2.45344 365.021C2.60868 364.779 2.88099 364.625 3.13714 364.59L3.1551 364.583L2.51019 364.954L5.09861 361.511L5.51567 362.962L-0.701547 360.306L-0.727061 360.293C-1.12001 360.136 -1.32645 359.657 -1.17763 359.237C-1.15678 359.184 -1.13593 359.131 -1.10754 359.097L1.99969 353.94L2.49083 355.047L-4.46205 353.652L-4.48001 353.659C-4.7918 353.604 -4.99936 353.283 -4.95366 352.972C-4.93746 352.853 -4.87782 352.739 -4.80307 352.665L0.697914 346.615L0.888803 347.483L-5.14588 344.708C-5.3499 344.61 -5.48383 344.372 -5.44391 344.153L-5.44102 344.107C-5.42195 343.942 -5.30842 343.807 -5.1647 343.749C6.0954 339.281 17.2952 334.657 28.4347 329.878L45.1665 322.767L61.9813 315.871C73.2414 311.402 84.5165 306.973 95.8219 302.622L112.818 296.192C118.515 294.133 124.176 291.977 129.896 289.977C130.001 289.98 130.078 290.016 130.108 290.094Z" fill="white"/>
</g>
<g clip-path="url(#clip6_7964_7071)">
<path d="M122.964 334.656C125.288 340.196 127.482 345.804 129.728 351.372L136.33 368.311C140.665 379.626 144.922 390.97 149.139 402.327L155.269 419.433L161.182 436.615C165.085 448.084 169.145 459.497 173.362 470.855L173.012 470.568L173.058 470.572L172.495 470.854L175.371 464.887C175.501 464.636 175.809 464.506 176.093 464.611C176.145 464.634 176.205 464.674 176.264 464.715L182.255 470.311L181.239 470.63L182.598 463.682C182.669 463.328 183.042 463.073 183.417 463.125C183.509 463.133 183.607 463.16 183.673 463.219L183.7 463.23L188.862 466.328L187.642 466.698L190.248 460.479C190.436 460.022 190.973 459.79 191.434 459.956C191.533 459.982 191.618 460.034 191.678 460.074L191.711 460.104L195.168 462.677C195.38 462.828 195.486 463.057 195.527 463.289L195.54 463.325L195.547 463.343L193.718 462.903L193.776 462.821L193.65 463.687C189.255 452.392 184.94 441.07 180.683 429.726C176.446 418.376 172.091 407.067 168.011 395.661C163.872 384.276 159.674 372.912 155.693 361.471L151.734 345.122L144.733 326.579L144.704 327.569L122.964 334.656ZM122.706 334.439L144.184 326.213C144.57 326.056 145.012 326.228 145.145 326.591L145.158 326.628L151.78 343.559L158.263 360.539C162.638 371.841 166.796 383.219 171.014 394.577C175.271 405.92 179.291 417.347 183.41 428.739C187.51 440.139 191.55 451.559 195.512 463.007L195.525 463.043C195.632 463.334 195.568 463.644 195.366 463.88L195.307 463.962L195.294 463.987C194.962 464.413 194.338 464.531 193.889 464.218C193.652 464.056 193.506 463.779 193.478 463.522L193.471 463.504L193.823 464.159L190.457 461.472L191.92 461.097L189.084 467.235L189.071 467.26C188.902 467.648 188.417 467.84 188.002 467.679C187.95 467.657 187.897 467.635 187.864 467.605L182.799 464.349L183.92 463.891L182.324 470.8L182.331 470.818C182.267 471.128 181.939 471.326 181.63 471.272C181.512 471.252 181.4 471.189 181.327 471.112L175.44 465.438L176.313 465.272L173.364 471.223C173.26 471.425 173.018 471.552 172.801 471.505L172.755 471.501C172.59 471.477 172.458 471.36 172.405 471.214C168.266 459.829 163.97 448.5 159.517 437.226L152.895 420.294L146.49 403.286C142.352 391.901 138.252 380.502 134.232 369.075L128.299 351.899C126.407 346.144 124.416 340.423 122.582 334.647C122.588 334.542 122.627 334.467 122.706 334.439Z" fill="white"/>
</g>
<path d="M141.183 135.929C138.704 137.105 136.171 138.137 133.591 139.044C132.292 139.475 130.976 139.859 129.688 140.317C128.398 140.77 127.134 141.293 125.875 141.829C124.617 142.369 123.355 142.896 122.081 143.392C120.809 143.893 119.538 144.399 118.254 144.869C115.681 145.793 113.093 146.678 110.456 147.433C110.439 147.439 110.421 147.426 110.414 147.409C110.408 147.391 110.415 147.374 110.431 147.368C112.914 146.201 115.447 145.168 117.997 144.179C119.274 143.691 120.564 143.238 121.852 142.78C123.139 142.318 124.437 141.887 125.74 141.468C127.042 141.045 128.336 140.605 129.609 140.104C130.879 139.599 132.125 139.028 133.388 138.501C135.929 137.49 138.517 136.606 141.159 135.864C141.175 135.858 141.194 135.871 141.201 135.888C141.203 135.907 141.196 135.925 141.183 135.929Z" fill="#1E1F21"/>
<path d="M31.7939 118.786C31.1943 118.112 30.6779 117.386 30.2347 116.615C30.0256 116.221 29.8444 115.809 29.6202 115.425C29.3986 115.039 29.1366 114.678 28.8671 114.323C28.595 113.968 28.3305 113.609 28.0837 113.239C27.8343 112.871 27.5824 112.504 27.3507 112.124C26.8974 111.358 26.4667 110.579 26.1117 109.751C26.1087 109.746 26.1165 109.736 26.1266 109.73C26.1367 109.724 26.1465 109.723 26.1496 109.727C26.7441 110.404 27.2605 111.13 27.7516 111.872C27.9934 112.245 28.2151 112.631 28.4392 113.016C28.6659 113.399 28.8749 113.792 29.0764 114.191C29.2803 114.588 29.4944 114.979 29.7438 115.347C29.9956 115.714 30.2854 116.058 30.5498 116.417C31.0536 117.151 31.4843 117.93 31.8317 118.762C31.8347 118.767 31.8269 118.777 31.8168 118.784C31.806 118.789 31.7961 118.79 31.7939 118.786Z" fill="#1E1F21"/>
<path d="M32.6628 118.08C31.5505 116.604 30.5253 115.074 29.5766 113.495C29.1154 112.697 28.6833 111.881 28.2063 111.094C27.7319 110.304 27.2153 109.541 26.6909 108.783C26.1637 108.027 25.6445 107.266 25.1438 106.493C24.6404 105.722 24.1344 104.953 23.6495 104.17C22.6902 102.598 21.7547 101.011 20.8983 99.3739C20.8921 99.3639 20.8979 99.3498 20.9085 99.3432C20.919 99.3366 20.9316 99.3391 20.9379 99.349C22.0449 100.828 23.0701 102.359 24.0689 103.906C24.5644 104.683 25.0388 105.472 25.5158 106.26C25.9954 107.046 26.4566 107.843 26.9098 108.646C27.3657 109.447 27.8322 110.241 28.3355 111.012C28.8415 111.782 29.3871 112.527 29.9063 113.288C30.9184 114.827 31.8539 116.414 32.7024 118.056C32.7086 118.066 32.7028 118.08 32.6922 118.086C32.6801 118.09 32.6675 118.088 32.6628 118.08Z" fill="#1E1F21"/>
<path d="M31.4829 119.28C30.7893 119.414 30.1007 119.588 29.4166 119.796C29.0753 119.906 28.7357 120.029 28.3935 120.132C28.0514 120.236 27.7069 120.321 27.362 120.402C27.0169 120.482 26.6722 120.566 26.3286 120.658C25.9849 120.749 25.641 120.838 25.2983 120.938C24.6136 121.141 23.9303 121.355 23.2515 121.605C23.2471 121.606 23.2444 121.612 23.245 121.617C23.2457 121.621 23.2494 121.624 23.2538 121.623C23.9471 121.487 24.6356 121.313 25.3226 121.128C25.6659 121.033 26.008 120.929 26.3502 120.827C26.6926 120.725 27.0338 120.615 27.3747 120.501C27.7157 120.389 28.0573 120.281 28.401 120.19C28.7449 120.101 29.0911 120.029 29.4357 119.945C30.1235 119.766 30.8069 119.552 31.4852 119.298C31.4895 119.297 31.4922 119.291 31.4916 119.287C31.4899 119.282 31.4862 119.279 31.4829 119.28Z" fill="#1E1F21"/>
<path d="M125.996 152.71C123.516 153.886 120.983 154.918 118.403 155.825C117.105 156.257 115.789 156.64 114.501 157.098C113.211 157.551 111.946 158.074 110.687 158.61C109.43 159.15 108.167 159.677 106.893 160.174C105.621 160.675 104.35 161.18 103.067 161.651C100.493 162.575 97.9051 163.459 95.2682 164.214C95.2519 164.22 95.2331 164.207 95.2266 164.19C95.2201 164.173 95.2275 164.155 95.2439 164.149C97.7267 162.982 100.26 161.949 102.809 160.96C104.086 160.472 105.376 160.019 106.665 159.562C107.951 159.1 109.25 158.668 110.553 158.249C111.854 157.827 113.149 157.386 114.421 156.885C115.692 156.38 116.938 155.81 118.2 155.282C120.742 154.272 123.33 153.387 125.972 152.645C125.988 152.639 126.007 152.652 126.013 152.669C126.016 152.688 126.008 152.706 125.996 152.71Z" fill="#1E1F21"/>
<path d="M125.035 167.138C119.939 169.554 114.733 171.676 109.431 173.539C106.763 174.426 104.058 175.214 101.41 176.155C98.7592 177.086 96.1613 178.161 93.5733 179.262C90.9887 180.372 88.3941 181.455 85.7762 182.476C83.1616 183.505 80.5503 184.544 77.9124 185.511C72.6232 187.41 67.3041 189.228 61.8849 190.779C61.8513 190.792 61.8128 190.766 61.7994 190.73C61.7861 190.694 61.8013 190.658 61.835 190.646C66.9375 188.247 72.1434 186.125 77.3826 184.093C80.0072 183.09 82.6584 182.158 85.3063 181.218C87.9509 180.268 90.6188 179.382 93.2968 178.521C95.9713 177.652 98.6326 176.747 101.247 175.718C103.858 174.679 106.42 173.507 109.014 172.424C114.237 170.346 119.556 168.528 124.985 167.004C125.019 166.991 125.057 167.017 125.071 167.053C125.076 167.092 125.06 167.128 125.035 167.138Z" fill="#1E1F21"/>
<path d="M147.969 245.078C146.035 245.995 144.059 246.8 142.046 247.507C141.034 247.844 140.007 248.143 139.002 248.5C137.996 248.854 137.01 249.262 136.028 249.679C135.047 250.101 134.062 250.512 133.068 250.899C132.076 251.29 131.085 251.684 130.084 252.051C128.076 252.772 126.057 253.462 124 254.051C123.988 254.056 123.973 254.046 123.968 254.032C123.963 254.019 123.969 254.005 123.981 254C125.918 253.09 127.894 252.285 129.883 251.513C130.879 251.132 131.885 250.779 132.89 250.422C133.894 250.062 134.906 249.725 135.923 249.398C136.938 249.069 137.948 248.725 138.94 248.334C139.931 247.94 140.904 247.495 141.888 247.084C143.871 246.296 145.889 245.605 147.95 245.027C147.963 245.022 147.977 245.032 147.983 245.046C147.984 245.06 147.979 245.074 147.969 245.078Z" fill="#1E1F21"/>
<path d="M176.028 242.041C173.83 243.083 171.585 243.998 169.298 244.802C168.147 245.184 166.981 245.524 165.839 245.93C164.696 246.332 163.575 246.795 162.459 247.27C161.344 247.749 160.225 248.216 159.096 248.656C157.969 249.1 156.842 249.548 155.705 249.965C153.424 250.784 151.13 251.568 148.792 252.237C148.778 252.243 148.761 252.231 148.756 252.216C148.75 252.201 148.756 252.185 148.771 252.18C150.971 251.145 153.217 250.23 155.476 249.354C156.608 248.921 157.752 248.519 158.894 248.114C160.034 247.704 161.185 247.322 162.34 246.951C163.493 246.576 164.641 246.186 165.769 245.742C166.895 245.294 167.999 244.788 169.118 244.321C171.371 243.425 173.665 242.641 176.006 241.983C176.021 241.978 176.038 241.989 176.043 242.005C176.045 242.021 176.039 242.037 176.028 242.041Z" fill="#1E1F21"/>
<path d="M162.594 166.341C157.498 168.757 152.292 170.879 146.989 172.742C144.322 173.629 141.617 174.418 138.969 175.358C136.318 176.29 133.72 177.364 131.132 178.465C128.547 179.575 125.953 180.658 123.335 181.679C120.72 182.708 118.109 183.747 115.471 184.714C110.182 186.613 104.863 188.432 99.4435 189.982C99.4099 189.995 99.3714 189.969 99.358 189.933C99.3447 189.897 99.3599 189.861 99.3936 189.849C104.496 187.45 109.702 185.329 114.941 183.296C117.566 182.293 120.217 181.361 122.865 180.421C125.51 179.472 128.177 178.585 130.855 177.724C133.53 176.855 136.191 175.951 138.806 174.921C141.417 173.882 143.978 172.71 146.573 171.627C151.795 169.55 157.115 167.731 162.544 166.207C162.577 166.194 162.616 166.221 162.629 166.256C162.634 166.295 162.619 166.331 162.594 166.341Z" fill="#1E1F21"/>
<path d="M196.162 267.833C191.066 270.249 185.86 272.371 180.558 274.234C177.89 275.121 175.185 275.91 172.537 276.85C169.886 277.782 167.288 278.856 164.7 279.957C162.116 281.067 159.521 282.15 156.903 283.171C154.289 284.201 151.677 285.239 149.039 286.206C143.75 288.105 138.431 289.924 133.012 291.475C132.978 291.487 132.94 291.461 132.926 291.425C132.913 291.39 132.928 291.353 132.962 291.341C138.064 288.942 143.27 286.821 148.51 284.788C151.134 283.785 153.785 282.854 156.433 281.913C159.078 280.964 161.746 280.077 164.424 279.217C167.098 278.348 169.76 277.443 172.374 276.413C174.985 275.374 177.547 274.202 180.141 273.119C185.364 271.042 190.683 269.223 196.112 267.699C196.146 267.686 196.184 267.713 196.198 267.748C196.202 267.787 196.187 267.823 196.162 267.833Z" fill="#1E1F21"/>
<path d="M260.094 229.473C254.998 231.89 249.792 234.011 244.489 235.875C241.822 236.762 239.117 237.55 236.469 238.491C233.818 239.422 231.22 240.497 228.632 241.598C226.047 242.708 223.453 243.791 220.835 244.812C218.22 245.841 215.609 246.88 212.971 247.847C207.682 249.746 202.363 251.564 196.944 253.115C196.91 253.128 196.871 253.102 196.858 253.066C196.845 253.03 196.86 252.994 196.894 252.981C201.996 250.583 207.202 248.461 212.441 246.429C215.066 245.426 217.717 244.494 220.365 243.554C223.01 242.604 225.677 241.717 228.355 240.857C231.03 239.988 233.691 239.083 236.306 238.054C238.917 237.015 241.478 235.843 244.073 234.76C249.295 232.682 254.615 230.864 260.044 229.34C260.077 229.327 260.116 229.353 260.129 229.389C260.134 229.428 260.119 229.464 260.094 229.473Z" fill="#1E1F21"/>
<path d="M312.838 223.88C307.742 226.296 302.536 228.418 297.234 230.281C294.566 231.168 291.861 231.957 289.213 232.897C286.562 233.829 283.964 234.903 281.376 236.004C278.791 237.114 276.197 238.197 273.579 239.218C270.964 240.248 268.353 241.286 265.715 242.253C260.426 244.152 255.107 245.971 249.688 247.521C249.654 247.534 249.616 247.508 249.602 247.472C249.589 247.436 249.604 247.4 249.638 247.388C254.74 244.989 259.946 242.868 265.185 240.835C267.81 239.832 270.461 238.901 273.109 237.96C275.754 237.011 278.422 236.124 281.099 235.264C283.774 234.394 286.435 233.49 289.05 232.46C291.661 231.421 294.222 230.249 296.817 229.166C302.04 227.089 307.359 225.27 312.788 223.746C312.821 223.733 312.86 223.76 312.873 223.795C312.878 223.834 312.863 223.87 312.838 223.88Z" fill="#1E1F21"/>
<path d="M318.434 247.856C313.338 250.272 308.132 252.394 302.829 254.257C300.161 255.144 297.457 255.933 294.809 256.874C292.158 257.805 289.56 258.879 286.972 259.98C284.387 261.09 281.793 262.174 279.175 263.194C276.56 264.224 273.949 265.263 271.311 266.23C266.022 268.129 260.703 269.947 255.283 271.498C255.25 271.511 255.211 271.484 255.198 271.449C255.185 271.413 255.2 271.377 255.233 271.364C260.336 268.966 265.542 266.844 270.781 264.812C273.406 263.809 276.057 262.877 278.705 261.937C281.349 260.987 284.017 260.1 286.695 259.24C289.37 258.371 292.031 257.466 294.646 256.437C297.257 255.398 299.818 254.226 302.413 253.142C307.635 251.065 312.954 249.247 318.384 247.723C318.417 247.71 318.456 247.736 318.469 247.772C318.474 247.811 318.459 247.847 318.434 247.856Z" fill="#1E1F21"/>
<path d="M276.875 275.028C271.779 277.444 266.573 279.566 261.271 281.429C258.603 282.316 255.898 283.105 253.25 284.045C250.599 284.977 248.001 286.051 245.413 287.152C242.829 288.262 240.234 289.346 237.616 290.366C235.001 291.396 232.39 292.435 229.752 293.402C224.463 295.301 219.144 297.119 213.725 298.67C213.691 298.683 213.653 298.656 213.639 298.621C213.626 298.585 213.641 298.549 213.675 298.536C218.777 296.138 223.983 294.016 229.222 291.983C231.847 290.981 234.498 290.049 237.146 289.108C239.791 288.159 242.459 287.272 245.137 286.412C247.811 285.543 250.472 284.638 253.087 283.608C255.698 282.57 258.26 281.397 260.854 280.314C266.077 278.237 271.396 276.419 276.825 274.894C276.859 274.882 276.897 274.908 276.91 274.944C276.915 274.983 276.9 275.019 276.875 275.028Z" fill="#1E1F21"/>
<path d="M324.027 270.231C318.931 272.647 313.726 274.769 308.423 276.632C305.755 277.519 303.051 278.308 300.403 279.249C297.751 280.18 295.153 281.254 292.566 282.355C289.981 283.465 287.386 284.549 284.768 285.569C282.154 286.599 279.543 287.638 276.905 288.605C271.615 290.504 266.296 292.322 260.877 293.873C260.844 293.886 260.805 293.859 260.792 293.824C260.778 293.788 260.794 293.752 260.827 293.739C265.93 291.341 271.136 289.219 276.375 287.187C278.999 286.184 281.651 285.252 284.299 284.312C286.943 283.362 289.611 282.475 292.289 281.615C294.964 280.746 297.625 279.841 300.239 278.812C302.851 277.773 305.412 276.601 308.006 275.517C313.229 273.44 318.548 271.622 323.977 270.098C324.011 270.085 324.049 270.111 324.063 270.147C324.068 270.186 324.053 270.222 324.027 270.231Z" fill="#1E1F21"/>
<path d="M238.207 250.783C234.868 252.366 231.456 253.757 227.981 254.978C226.233 255.559 224.461 256.076 222.725 256.692C220.988 257.303 219.285 258.007 217.589 258.728C215.896 259.456 214.195 260.166 212.48 260.834C210.766 261.509 209.055 262.19 207.327 262.824C203.861 264.068 200.375 265.26 196.824 266.276C196.801 266.284 196.776 266.267 196.768 266.244C196.759 266.22 196.769 266.197 196.791 266.188C200.135 264.617 203.546 263.226 206.979 261.894C208.699 261.237 210.437 260.627 212.172 260.01C213.905 259.388 215.653 258.807 217.408 258.243C219.161 257.674 220.905 257.081 222.618 256.406C224.33 255.725 226.008 254.957 227.708 254.247C231.131 252.886 234.616 251.694 238.174 250.695C238.196 250.687 238.222 250.704 238.23 250.728C238.233 250.753 238.223 250.777 238.207 250.783Z" fill="#1E1F21"/>
<path d="M278.475 211.091C273.379 213.507 268.173 215.629 262.87 217.492C260.202 218.379 257.498 219.168 254.85 220.108C252.199 221.04 249.601 222.114 247.013 223.215C244.428 224.325 241.834 225.408 239.216 226.429C236.601 227.458 233.99 228.497 231.352 229.464C226.063 231.363 220.744 233.182 215.324 234.732C215.291 234.745 215.252 234.719 215.239 234.683C215.226 234.647 215.241 234.611 215.274 234.599C220.377 232.2 225.583 230.079 230.822 228.046C233.447 227.043 236.098 226.111 238.746 225.171C241.39 224.222 244.058 223.335 246.736 222.474C249.411 221.605 252.072 220.701 254.687 219.671C257.298 218.632 259.859 217.46 262.454 216.377C267.676 214.3 272.995 212.481 278.425 210.957C278.458 210.944 278.497 210.971 278.51 211.006C278.515 211.045 278.5 211.081 278.475 211.091Z" fill="#1E1F21"/>
<path d="M304.049 187.122C298.953 189.538 293.747 191.66 288.444 193.523C285.777 194.41 283.072 195.199 280.424 196.139C277.773 197.071 275.175 198.145 272.587 199.246C270.002 200.356 267.408 201.439 264.79 202.46C262.175 203.49 259.564 204.528 256.926 205.496C251.637 207.394 246.318 209.213 240.899 210.764C240.865 210.776 240.826 210.75 240.813 210.714C240.8 210.679 240.815 210.642 240.849 210.63C245.951 208.232 251.157 206.11 256.396 204.077C259.021 203.074 261.672 202.143 264.32 201.202C266.965 200.253 269.633 199.366 272.31 198.506C274.985 197.637 277.646 196.732 280.261 195.702C282.872 194.664 285.433 193.491 288.028 192.408C293.251 190.331 298.57 188.512 303.999 186.988C304.032 186.976 304.071 187.002 304.084 187.037C304.089 187.076 304.074 187.112 304.049 187.122Z" fill="#1E1F21"/>
<path d="M214.479 220.547C212.146 221.653 209.763 222.625 207.335 223.478C206.113 223.884 204.875 224.245 203.662 224.675C202.449 225.102 201.259 225.594 200.074 226.098C198.891 226.606 197.703 227.102 196.504 227.57C195.307 228.041 194.111 228.517 192.903 228.959C190.482 229.829 188.046 230.661 185.565 231.372C185.55 231.377 185.532 231.365 185.526 231.349C185.52 231.333 185.527 231.316 185.542 231.31C187.878 230.212 190.262 229.241 192.661 228.31C193.863 227.851 195.077 227.424 196.289 226.994C197.5 226.559 198.721 226.153 199.947 225.759C201.172 225.361 202.391 224.947 203.588 224.475C204.783 224 205.956 223.463 207.144 222.967C209.535 222.016 211.971 221.183 214.457 220.485C214.472 220.48 214.49 220.492 214.496 220.508C214.498 220.526 214.491 220.542 214.479 220.547Z" fill="#1E1F21"/>
<path d="M214.541 299.802C209.445 302.218 204.239 304.34 198.937 306.203C196.269 307.09 193.564 307.878 190.916 308.819C188.265 309.75 185.667 310.825 183.079 311.926C180.495 313.036 177.9 314.119 175.282 315.14C172.667 316.169 170.056 317.208 167.418 318.175C162.129 320.074 156.81 321.892 151.391 323.443C151.357 323.456 151.319 323.43 151.305 323.394C151.292 323.358 151.307 323.322 151.341 323.31C156.443 320.911 161.649 318.789 166.888 316.757C169.513 315.754 172.164 314.822 174.812 313.882C177.457 312.933 180.125 312.046 182.803 311.185C185.477 310.316 188.138 309.412 190.753 308.382C193.364 307.343 195.926 306.171 198.52 305.088C203.743 303.01 209.062 301.192 214.491 299.668C214.525 299.655 214.563 299.681 214.576 299.717C214.581 299.756 214.566 299.792 214.541 299.802Z" fill="#1E1F21"/>
<path d="M192.965 265.434C187.869 267.851 182.663 269.972 177.361 271.835C174.693 272.722 171.988 273.511 169.34 274.452C166.689 275.383 164.091 276.458 161.503 277.559C158.918 278.669 156.324 279.752 153.706 280.773C151.091 281.802 148.48 282.841 145.842 283.808C140.553 285.707 135.234 287.525 129.815 289.076C129.781 289.089 129.742 289.063 129.729 289.027C129.716 288.991 129.731 288.955 129.765 288.942C134.867 286.544 140.073 284.422 145.312 282.39C147.937 281.387 150.588 280.455 153.236 279.515C155.881 278.565 158.549 277.678 161.226 276.818C163.901 275.949 166.562 275.044 169.177 274.015C171.788 272.976 174.349 271.804 176.944 270.72C182.167 268.643 187.486 266.825 192.915 265.301C192.948 265.288 192.987 265.314 193 265.35C193.005 265.389 192.99 265.425 192.965 265.434Z" fill="#1E1F21"/>
<path d="M156.95 289.425C155.642 290.045 154.306 290.589 152.945 291.068C152.26 291.295 151.566 291.498 150.886 291.739C150.205 291.978 149.539 292.254 148.874 292.537C148.211 292.822 147.545 293.1 146.873 293.362C146.202 293.626 145.531 293.893 144.854 294.141C143.496 294.628 142.131 295.095 140.74 295.493C140.731 295.496 140.722 295.49 140.718 295.481C140.715 295.471 140.719 295.462 140.727 295.459C142.037 294.843 143.373 294.299 144.718 293.777C145.392 293.519 146.072 293.28 146.752 293.039C147.431 292.795 148.116 292.567 148.803 292.347C149.49 292.124 150.173 291.891 150.844 291.627C151.514 291.36 152.172 291.059 152.838 290.781C154.178 290.248 155.544 289.781 156.937 289.39C156.946 289.387 156.956 289.394 156.959 289.403C156.961 289.413 156.957 289.422 156.95 289.425Z" fill="#1E1F21"/>
<path d="M203.666 312.383C201.431 313.443 199.148 314.373 196.822 315.19C195.652 315.579 194.466 315.925 193.305 316.338C192.142 316.746 191.002 317.218 189.867 317.7C188.734 318.187 187.596 318.662 186.448 319.11C185.301 319.562 184.155 320.017 182.998 320.441C180.679 321.274 178.346 322.072 175.969 322.752C175.954 322.758 175.937 322.746 175.931 322.73C175.926 322.715 175.932 322.699 175.947 322.693C178.185 321.641 180.468 320.711 182.766 319.819C183.917 319.379 185.08 318.971 186.241 318.558C187.401 318.142 188.572 317.753 189.746 317.376C190.919 316.995 192.086 316.598 193.233 316.146C194.378 315.691 195.502 315.176 196.64 314.701C198.93 313.79 201.263 312.993 203.644 312.324C203.659 312.319 203.676 312.33 203.682 312.346C203.684 312.363 203.677 312.379 203.666 312.383Z" fill="#1E1F21"/>
<path d="M111.613 160.703C109.133 161.878 106.6 162.911 104.02 163.817C102.722 164.249 101.406 164.633 100.118 165.09C98.8277 165.543 97.5636 166.066 96.3044 166.602C95.0467 167.142 93.7843 167.669 92.5104 168.166C91.2382 168.667 89.9676 169.172 88.6841 169.643C86.1105 170.567 83.5223 171.452 80.8854 172.206C80.869 172.212 80.8503 172.2 80.8438 172.182C80.8373 172.165 80.8447 172.147 80.8611 172.141C83.3439 170.974 85.877 169.942 88.4263 168.953C89.7033 168.465 90.9934 168.011 92.2818 167.554C93.5686 167.092 94.8668 166.66 96.1698 166.242C97.4712 165.819 98.7661 165.379 100.038 164.878C101.309 164.372 102.555 163.802 103.818 163.275C106.359 162.264 108.947 161.379 111.589 160.637C111.605 160.631 111.624 160.644 111.63 160.661C111.633 160.68 111.625 160.698 111.613 160.703Z" fill="#1E1F21"/>
<path d="M86.8396 155.109C84.3601 156.284 81.827 157.317 79.2469 158.223C77.9487 158.655 76.6327 159.039 75.3443 159.496C74.0543 159.95 72.7902 160.472 71.5309 161.008C70.2733 161.548 69.0108 162.075 67.737 162.572C66.4648 163.073 65.1942 163.578 63.9106 164.049C61.337 164.973 58.7488 165.858 56.112 166.612C56.0956 166.619 56.0769 166.606 56.0704 166.588C56.0639 166.571 56.0713 166.553 56.0877 166.547C58.5705 165.38 61.1035 164.348 63.6528 163.359C64.9299 162.871 66.22 162.418 67.5084 161.96C68.7952 161.498 70.0933 161.066 71.3964 160.648C72.6978 160.225 73.9927 159.785 75.2649 159.284C76.5355 158.778 77.7817 158.208 79.0442 157.681C81.5854 156.67 84.1736 155.785 86.8153 155.044C86.8317 155.038 86.8504 155.05 86.8569 155.068C86.8593 155.087 86.8519 155.104 86.8396 155.109Z" fill="#1E1F21"/>
</g>
<defs>
<clipPath id="clip0_7964_7071">
<rect width="382" height="435.005" fill="white"/>
</clipPath>
<clipPath id="clip1_7964_7071">
<rect width="92.5723" height="18.7647" fill="white" transform="translate(45.125 140.094) rotate(-20.6716)"/>
</clipPath>
<clipPath id="clip2_7964_7071">
<rect width="92.5723" height="18.1392" fill="white" transform="translate(45.3438 140.68) rotate(-20.6716)"/>
</clipPath>
<clipPath id="clip3_7964_7071">
<rect width="24.6124" height="26.8497" fill="white" transform="matrix(0.932463 -0.361265 0.361703 0.932293 92.832 262.57)"/>
</clipPath>
<clipPath id="clip4_7964_7071">
<rect width="24.2819" height="25.9548" fill="white" transform="matrix(0.932463 -0.361265 0.361703 0.932293 92.4102 262.109)"/>
</clipPath>
<clipPath id="clip5_7964_7071">
<rect width="24.6124" height="26.8497" fill="white" transform="matrix(0.932463 -0.361265 0.361703 0.932293 107.209 297.742)"/>
</clipPath>
<clipPath id="clip6_7964_7071">
<rect width="24.6124" height="25.1589" fill="white" transform="matrix(-0.333998 -0.942574 0.942417 -0.33444 129.686 357.555)"/>
</clipPath>
</defs>
</svg>
