<svg width="524" height="445" viewBox="0 0 524 445" fill="none" xmlns="http://www.w3.org/2000/svg">
<path fill-rule="evenodd" clip-rule="evenodd" d="M112.403 75.0683C111.688 71.567 110.93 67.8584 112.719 64.883C116.707 58.2519 128.981 53.31 139.306 52.5049C143.127 52.207 147.965 53.535 152.518 54.7847C158.369 56.3905 163.749 57.8671 165.894 55.5994C171.758 49.3992 166.529 39.7931 158.804 42.3371C157.588 42.7375 156.243 43.2959 154.822 43.8857C148.731 46.4135 141.253 49.5171 136.648 43.2213C129.222 33.0694 158.309 17.9441 168.996 16.2545C175.103 15.289 182.991 15.5683 191.18 15.8582C199.411 16.1496 207.947 16.4518 215.284 15.5115C223.606 14.4449 231.09 10.9468 238.48 7.49296C243.86 4.97827 249.19 2.48704 254.757 0.974806C265.278 -1.8833 274.733 2.05549 284.633 6.18012C291.186 8.91046 297.935 11.7222 305.319 12.6978C312.63 13.6638 319.3 13.2546 325.545 12.8715C330.457 12.5701 335.107 12.2849 339.598 12.6978C345.305 13.2225 348.939 15.0341 353.163 17.1401C357.37 19.2376 362.163 21.6272 370.173 23.3278C380.069 25.4285 388.681 25.7112 395.909 25.9485C400.407 26.0961 404.37 26.2262 407.772 26.7658C416.642 28.1726 421.633 31.9498 422.852 34.2688C425.321 38.9688 423.569 41.0964 421.663 43.4121C420.492 44.8333 419.264 46.3253 418.917 48.5262C418.577 50.6837 421.693 54.2986 424.681 57.765C428.077 61.7056 431.309 65.4542 429.109 66.6513C424.234 69.3038 419.36 69.0233 413.599 63.9989C412.011 62.6134 411.34 60.4139 410.68 58.2507C409.656 54.8919 408.658 51.6207 404.294 51.6207C399.419 51.6207 378.15 52.0628 378.593 59.136C378.939 64.6572 384.727 67.0754 391.077 69.7277C394.895 71.3228 398.916 73.0026 402.078 75.4929C408.624 80.6482 410.561 88.4732 409.611 94.5022C409.148 97.4414 407.978 98.7423 406.952 99.8833C405.873 101.083 404.953 102.106 405.18 104.67C405.412 107.285 407.213 109.45 408.906 111.483C411.057 114.068 413.032 116.44 411.384 119.259C409.919 121.764 406.281 120.227 402.661 118.699C398.616 116.99 394.594 115.292 393.659 119.259C392.871 122.601 397.416 128.48 402.478 135.028C408.797 143.202 415.922 152.418 414.486 159.045C413.333 164.364 409.186 166.453 405.296 168.412C402.162 169.991 399.194 171.486 398.09 174.518C396.809 178.038 398.399 179.31 400.231 180.776C401.936 182.14 403.851 183.671 403.851 187.338C403.851 194.412 398.976 198.489 392.773 198.832C384.796 199.275 375.057 191.024 364.413 180.707C355.616 172.181 348.017 164.352 348.017 159.045C348.017 152.856 347.665 150.67 346.245 146.667C343.102 137.806 332.555 136.167 322.755 134.644C316.091 133.608 309.772 132.626 306.364 129.462C287.753 112.185 280.219 116.164 271.357 127.658C269.229 130.417 266.539 130.438 264.02 130.458C261.924 130.474 259.945 130.489 258.506 132.079C257.443 133.254 257.644 135.634 257.859 138.172C258.145 141.545 258.454 145.197 255.848 146.667C250.802 149.514 248.254 147.417 244.682 144.478C243.645 143.624 242.521 142.7 241.225 141.804C238.508 139.928 236.822 138.617 235.549 137.628C233.798 136.266 232.829 135.513 231.033 134.731C229.196 133.932 226.159 135.615 226.159 138.71C226.159 138.776 226.158 138.843 226.158 138.911C226.156 142.043 226.152 147.486 231.033 148.878C233.566 149.6 236.558 150.125 239.599 150.659C247.731 152.087 256.21 153.576 257.177 159.045C258.506 166.561 253.211 171.844 248.758 176.286C242.997 182.034 235.464 184.244 225.715 183.36C220.658 182.901 213.861 178.147 210.649 172.75C206.981 166.587 205.081 162.738 203.407 159.348C201.239 154.957 199.452 151.337 194.697 144.457C193.698 143.012 192.632 141.59 191.592 140.204C187.845 135.208 184.447 130.677 185.834 127.216C186.471 125.628 187.7 124.636 188.884 123.682C190.785 122.149 192.569 120.71 191.595 117.048C190.01 111.092 184.775 110.624 176.799 109.911C174.934 109.745 172.92 109.565 170.768 109.298C159.988 107.963 158.786 103.392 157.787 99.5881C157.733 99.3835 157.68 99.1811 157.626 98.9816C157.497 98.504 157.378 97.5781 157.227 96.399C156.61 91.5893 155.454 82.5661 150.828 82.5661C147.236 82.5661 150.344 88.8787 152.318 92.8883C152.828 93.9243 153.263 94.8065 153.486 95.3864C155.702 101.133 147.117 104.611 144.181 99.8071C143.641 98.9238 143.091 97.8428 142.504 96.6864C140.423 92.593 137.861 87.5542 133.546 86.9869C122.051 85.4757 116.813 93.7933 112.358 100.867C108.519 106.964 105.262 112.137 99.0812 109.298C91.8923 105.996 91.8924 87.567 97.3073 84.4448C100.291 82.7242 102.78 83.6902 105.067 84.5776C107.119 85.3742 109.009 86.1076 110.947 84.7765C113.964 82.7039 113.211 79.0179 112.403 75.0683ZM115.567 65.3257C119.365 59.1366 129.832 56.4839 133.988 55.5999C143.472 53.5828 149.108 55.7935 153.851 57.6538C156.938 58.8647 159.647 59.9271 162.791 59.5785C169.459 58.8393 171.867 52.3584 171.211 47.6424C170.411 41.8952 166.336 39.2429 161.462 39.2429C159.54 39.2429 156.993 40.2901 154.262 41.4132C148.861 43.6338 142.739 46.1509 139.306 41.4533C134.341 34.6594 157.917 19.3495 171.211 18.4653C176.349 18.1235 182.813 18.3102 189.667 18.5082C200.543 18.8224 212.404 19.165 221.52 17.4692C228.625 16.1474 235.184 12.912 241.626 9.73384C246.079 7.53724 250.477 5.36801 254.961 3.8769C264.812 0.600988 273.798 4.58291 283.425 8.84857C287.655 10.7231 292.009 12.6524 296.614 14.0446C305.931 16.8612 315.967 16.3614 325.004 15.9115C330.15 15.6552 334.973 15.415 339.154 15.813C343.762 16.2516 347.77 18.2342 352.078 20.3658C356.743 22.6734 361.76 25.1557 368.275 26.0427C380.808 27.7491 392.772 28.6332 398.976 28.6332C405.179 28.6332 414.773 29.4664 420.246 35.7065C422.08 37.7979 420.619 39.9791 418.96 42.4565C417.813 44.1685 416.572 46.0218 416.257 48.0846C415.721 51.6039 419.748 55.8703 422.984 59.2978C425.844 62.3285 428.086 64.7033 426.006 65.3256C419.359 67.315 414.042 62.2311 413.28 58.2525C411.701 50.0148 409.284 47.1431 392.461 50.2951C391.448 50.4849 390.499 50.6572 389.61 50.8186C382.221 52.1606 378.956 52.7536 376.82 56.4841C375.047 59.5786 377.681 64.4697 382.299 67.9781C383.8 69.1177 386.194 70.0805 388.922 71.1775C396.776 74.336 407.395 78.6064 407.395 91.4082C407.395 96.51 405.772 98.1164 404.399 99.4754C403.393 100.472 402.521 101.335 402.521 103.344C402.521 108.168 405.298 111.242 407.326 113.488C408.83 115.152 409.922 116.362 409.167 117.491C408.486 118.511 406.032 117.634 403.128 116.597C398.483 114.937 392.686 112.866 391.151 117.491C389.192 123.39 395.445 131.016 401.669 138.606C407.572 145.805 413.449 152.972 412.269 158.604C411.24 163.518 406.806 165.608 402.711 167.537C399.827 168.897 397.111 170.177 395.874 172.308C392.824 177.563 395.672 180.014 398.231 182.218C399.763 183.536 401.191 184.766 401.191 186.455C401.191 193.086 397.203 196.682 390.113 195.738C383.533 194.863 350.03 167.887 350.675 157.72C351.32 147.552 348.11 141.88 342.699 137.826C339.713 135.589 333.828 134.29 326.747 132.963C309.346 129.705 307.482 127.887 300.167 120.756C299.962 120.556 299.753 120.352 299.538 120.143C291.688 112.501 282.426 113.541 275.344 118.817C272.892 120.644 271.593 122.521 270.519 124.074C269.075 126.16 268.038 127.659 265.153 127.659C253.812 127.659 254.289 132.1 254.819 137.033C255.056 139.232 255.302 141.529 254.518 143.573C253.068 147.351 248.524 143.812 242.981 139.494C238.794 136.233 234.037 132.527 229.612 131.195C227.823 130.532 224.828 131.195 223.942 134.29C222.17 140.479 222.17 152.857 235.464 152.857C245.212 152.857 254.518 155.505 254.518 160.612C254.518 169.214 246.985 177.357 235.907 180.266C224.829 183.174 216.841 179.824 207.547 161.256C202.736 151.645 199.676 146.975 196.305 141.829C194.263 138.713 192.107 135.422 189.379 130.753C188.255 128.831 189.612 127.73 191.324 126.342C193.943 124.218 197.39 121.422 194.055 113.983C190.708 108.207 183.853 105.803 173.544 105.803C161.796 105.803 160.97 99.4938 160.446 95.4964C160.352 94.7795 160.268 94.137 160.133 93.6186C160.082 93.4239 160.018 93.1227 159.936 92.7391C159.131 88.9546 156.618 77.1451 148.168 80.3563C143.694 81.5976 145.923 86.3527 147.978 90.7374C149.582 94.1602 151.08 97.3573 149.202 98.4815C147.4 99.5601 145.632 96.5122 143.573 92.9645C141.413 89.2418 138.933 84.9688 135.761 84.335C129.565 83.0971 122.14 82.5875 117.15 89.6399C103.7 108.649 102.97 109.533 98.9817 103.786C96.5634 100.301 95.8713 96.0423 97.6523 90.9661C99.2328 86.4611 101.389 87.1208 104.178 87.9745C106.863 88.7962 110.136 89.7977 114.048 86.5453C117.402 83.7569 116.443 79.5667 115.472 75.3281C114.655 71.7587 113.83 68.1551 115.567 65.3257Z" fill="#1E1F21"/>
<path fill-rule="evenodd" clip-rule="evenodd" d="M448.84 100.358C450.43 101.838 452.095 103.389 454.546 104.068C457.312 104.835 460.017 104.786 462.687 104.739C465.848 104.682 468.961 104.627 472.07 105.925C473.115 106.361 474.29 106.44 475.495 106.521C478.022 106.689 480.681 106.867 482.557 110.371C484.849 114.652 484.802 115.334 484.38 121.463C484.364 121.701 484.347 121.947 484.329 122.202C484.203 124.052 483.14 125.234 482.039 126.457C480.772 127.864 479.455 129.327 479.455 131.928C479.455 133.574 480.354 136.002 481.275 138.489C482.162 140.883 483.069 143.332 483.213 145.19C483.458 148.355 484.68 150.718 485.881 153.038C486.638 154.501 487.386 155.948 487.874 157.568C488.764 160.517 488.452 164.899 488.155 169.081C488.024 170.929 487.895 172.738 487.874 174.367C487.869 174.831 487.867 175.295 487.866 175.755C487.858 179.067 487.85 182.198 486.055 183.934C484.283 185.647 480.981 187.104 478.569 186.745C474.992 186.213 472.745 185.32 470.393 184.386C468.159 183.497 465.829 182.572 462.173 181.882C460.187 181.508 458.644 181.048 457.291 180.644C453.257 179.441 450.914 178.742 443.562 182.324C441.412 183.372 439.529 185.14 437.712 186.845C434.035 190.297 430.628 193.494 425.83 189.954C419.245 185.095 425.804 179.319 431.987 173.874C434.951 171.264 437.829 168.73 439.131 166.41C443.679 158.307 443.375 153.86 443.129 150.255C443.039 148.942 442.957 147.741 443.119 146.516C443.377 144.568 444.28 142.852 445.206 141.09C446.484 138.66 447.807 136.143 447.55 132.812C447.107 127.065 443.821 116.68 439.131 112.034C437.02 109.943 433.073 105.511 434.7 101.866C435.943 99.0807 440.26 96.6674 443.151 97.0034C445.535 97.2807 447.145 98.7794 448.84 100.358ZM447.867 103.004C449.626 104.542 451.363 106.06 454.405 106.566C456.671 106.943 458.871 106.953 461.032 106.964C464.349 106.979 467.573 106.994 470.801 108.335C471.783 108.743 472.923 108.762 474.075 108.782C476.45 108.824 478.88 108.866 480.106 112.313C481.782 117.025 482.322 119.829 480.993 122.481C480.242 123.979 479.551 124.929 478.899 125.825C478.071 126.964 477.305 128.017 476.561 129.996C475.928 131.68 477.073 135.17 478.149 138.451C478.867 140.642 479.555 142.739 479.663 144.143C480.031 148.923 481.121 151.329 483.208 155.637C485.215 159.779 484.901 165.174 484.537 171.109C484.489 171.902 484.553 172.97 484.624 174.132C484.796 176.99 485.003 180.417 483.651 181.719C482.003 183.307 479.247 183.818 477.004 183.488C473.501 182.971 471.584 182.109 469.444 181.148C467.623 180.329 465.641 179.438 462.381 178.625C461.529 178.412 460.733 178.2 459.978 177.999C454.311 176.491 450.94 175.593 442.884 179.509C440.896 180.475 439.21 182.191 437.589 183.841C434.281 187.208 431.248 190.295 426.488 186.14C424.13 184.082 430.349 177.916 435.594 172.717C438.234 170.1 440.627 167.727 441.555 166.247C444.707 161.214 444.853 155.786 444.967 151.556C445.013 149.841 445.054 148.322 445.288 147.107C445.864 143.173 447.156 141.21 448.237 139.565C449.187 138.122 449.974 136.925 449.974 134.859C449.974 126.902 445.986 115.85 442.441 111.871C442.105 111.495 441.663 111.058 441.175 110.575C438.996 108.42 435.886 105.345 437.123 102.587C438.281 100.007 440.816 98.9329 443.327 99.9351C445.223 100.692 446.551 101.853 447.867 103.004Z" fill="#1E1F21"/>
<path fill-rule="evenodd" clip-rule="evenodd" d="M431.103 211.658C434.662 213.77 438.725 216.181 443.113 216.758C447.031 217.273 450.389 216.235 453.497 215.274C457.477 214.044 461.046 212.941 464.856 215.387C466.326 216.33 466.937 217.772 467.522 219.152C468.204 220.759 468.85 222.282 470.774 222.835C472.501 223.331 473.894 222.387 475.413 221.356C476.742 220.455 478.167 219.489 479.996 219.361C483.919 219.089 491.217 228.475 489.133 235.896C488.775 237.172 488.242 238.594 487.691 240.065C485.517 245.874 483.063 252.427 489.997 253.569C492.94 254.054 493.447 251.513 493.989 248.794C494.567 245.896 495.185 242.797 498.834 242.945C502.76 243.103 504.39 248.197 503.622 252.04C503.086 254.723 501.914 257.973 500.585 261.656C497.83 269.297 494.404 278.797 494.595 288.945C494.73 296.136 493.898 299.961 487.079 305.014C483.391 307.747 468.644 315.69 456.9 310.278C445.157 304.865 441.835 293.334 441.616 282.415C441.578 280.491 441.788 278.779 441.987 277.162C442.502 272.962 442.94 269.398 438.743 264.408C436.52 261.765 429.639 259.933 423.217 258.223C418.077 256.855 413.231 255.565 411.297 253.999C405.254 249.105 410.304 237.768 413.734 230.069C414.423 228.522 415.047 227.122 415.502 225.95C416.344 223.784 416.242 221.548 416.142 219.363C415.96 215.377 415.786 211.56 421.365 208.637C423.833 207.344 427.159 209.318 431.103 211.658ZM428.806 212.93C431.85 215.019 436.168 217.981 444.313 219.083C448.301 219.623 451.218 218.552 453.876 217.576C456.775 216.511 459.366 215.559 462.703 216.937C464.298 217.596 465.327 219.408 466.348 221.208C467.425 223.106 468.494 224.989 470.208 225.488C471.887 225.978 472.972 225.311 474.416 224.423C475.572 223.712 476.959 222.859 479.065 222.346C483.801 221.191 488.139 230.075 486.669 235.839C486.389 236.935 485.881 238.259 485.328 239.703C482.88 246.086 479.535 254.808 491.047 256.514C494.264 256.991 495.326 253.194 496.232 249.957C496.832 247.811 497.364 245.912 498.408 245.667C501.028 245.051 501.207 249.958 500.502 253.558C500.012 256.055 498.989 258.969 497.838 262.246C495.428 269.108 492.46 277.56 492.669 287.099C492.816 293.839 492.232 296.653 486.797 301.684C483.004 305.196 469.183 312.911 459.383 308.558C449.584 304.205 444.329 293.002 443.803 282.766C443.704 280.829 443.952 278.984 444.197 277.163C444.752 273.042 445.29 269.04 441.749 264.351C438.107 259.529 428.78 257.223 421.644 255.46C418.21 254.611 415.283 253.887 413.743 253.069C407.233 249.612 412.669 237.132 416.056 229.357C416.694 227.893 417.259 226.595 417.658 225.557C418.485 223.404 418.383 221.337 418.288 219.41C418.131 216.212 417.992 213.4 422.154 211.219C424.512 209.984 426.188 211.134 428.806 212.93Z" fill="#1E1F21"/>
<path fill-rule="evenodd" clip-rule="evenodd" d="M62.3563 366.48C62.7201 366.15 63.0825 365.822 63.4396 365.495C70.7612 358.794 75.9414 355.892 85.5957 354.885C91.0141 354.32 97.0766 352.945 99.7532 352.338C99.9222 352.3 100.078 352.265 100.219 352.233C111.74 349.633 125.034 345.159 133.453 342.065C138.858 340.078 148.076 336.266 148.076 333.223C148.076 328.824 150.307 327.336 151.942 326.246C152.771 325.694 153.447 325.243 153.6 324.567C153.939 323.067 153.495 321.933 153.031 320.747C152.656 319.79 152.268 318.799 152.268 317.554C152.268 314.835 154.28 307.583 158.04 303.062C159.68 301.091 161.439 300.019 163.096 299.008C165.088 297.794 166.934 296.669 168.253 294.18C168.881 292.996 169.46 291.844 170.018 290.734C173.981 282.853 176.885 277.08 188.4 277.08C191.065 277.08 193.098 278.293 194.947 279.396C196.789 280.494 198.447 281.484 200.364 281.058C207.244 279.532 210.892 278.752 217.542 278.752C221.619 278.753 230.047 282.51 233.083 285.297C237.709 289.544 237.951 298.422 238.149 305.732C238.206 307.824 238.26 309.787 238.411 311.477C238.595 313.526 239.188 315.518 239.778 317.502C240.584 320.213 241.385 322.908 241.132 325.708C240.87 328.602 240.106 331.329 239.335 334.082C238.588 336.748 237.835 339.44 237.523 342.332C237.356 343.89 237.261 345.834 237.162 347.872C236.995 351.291 236.816 354.973 236.257 357.538C235.275 362.051 232.409 366.14 229.838 369.808C227.373 373.325 225.179 376.455 225.179 379.199C225.179 381.933 226.022 383.893 227.04 386.259C228.11 388.747 229.373 391.683 230.054 396.44C230.18 397.324 230.33 398.245 230.482 399.185C231.453 405.167 232.553 411.952 228.724 415.008C223.956 418.813 220.192 418.001 214.513 416.776C213.167 416.486 211.713 416.173 210.113 415.892C209.31 415.751 208.536 415.61 207.784 415.474C200.72 414.19 195.634 413.266 187.071 415.892C183.379 417.024 179.836 413.184 176.41 409.47C174.31 407.193 172.253 404.964 170.232 403.956C168.488 403.086 166.908 403.335 165.165 403.609C163.22 403.915 161.072 404.253 158.268 403.106C155.584 402.008 153.697 400.996 151.926 400.046C148.55 398.235 145.593 396.649 138.327 395.114C137.099 394.855 136.033 395.206 134.858 395.593C132.617 396.332 129.974 397.202 125.034 394.23C121.058 391.838 118.152 389.357 115.413 387.019C110.686 382.983 106.459 379.375 98.095 377.394C91.4795 375.827 82.7109 379.209 76.1805 381.728C73.287 382.844 70.8329 383.791 69.2002 384.062C63.8827 384.946 57.679 381.852 55.5792 377.959C53.6445 374.373 58.0916 370.344 62.3563 366.48ZM59.4512 377.431C56.8591 374.788 66.0981 364.789 76.2899 360.632C80.9729 358.722 83.2426 358.498 86.4059 358.184C88.3493 357.992 90.63 357.766 94.0148 357.096C97.8165 356.343 102.418 355 106.789 353.724C108.022 353.364 109.237 353.009 110.41 352.675C122.818 349.138 140.828 342.712 147.19 338.971C150.721 336.894 151.371 334.399 151.911 332.328C152.175 331.313 152.413 330.4 152.95 329.687C153.362 329.141 153.975 328.631 154.601 328.11C155.627 327.257 156.685 326.376 156.938 325.266C157.209 324.076 156.942 323.064 156.628 321.879C156.307 320.664 155.937 319.266 156.052 317.309C156.279 313.443 157.725 308.124 160.926 304.931C162.389 303.471 163.911 302.428 165.385 301.419C167.929 299.676 170.328 298.032 172.025 294.517C172.567 293.394 173.065 292.239 173.56 291.093C176.371 284.578 179.056 278.353 188.924 279.982C191.141 280.348 192.445 281.485 193.623 282.512C194.756 283.5 195.773 284.386 197.373 284.386C200.389 284.386 203.533 283.828 206.816 283.245C210.403 282.609 214.156 281.943 218.089 281.943C223.407 281.943 229.308 285.493 231.616 288.35C235.054 292.607 234.94 298.816 234.836 304.479C234.796 306.676 234.757 308.791 234.928 310.678C235.095 312.523 235.759 314.591 236.433 316.69C237.335 319.495 238.254 322.358 238.03 324.824C237.795 327.405 237.026 330.361 236.253 333.331C235.509 336.189 234.762 339.06 234.485 341.623C234.326 343.089 234.223 344.431 234.103 346.01C233.918 348.427 233.692 351.398 233.156 356.212C232.703 360.279 229.87 364.463 227.209 368.392C224.665 372.15 222.277 375.676 222.277 378.647C222.277 382.123 223.394 384.415 224.627 386.944C225.55 388.839 226.538 390.867 227.169 393.623C228.724 400.419 230.94 410.145 225.622 413.682C221.774 416.241 218.022 415.15 213.988 413.978C212.449 413.53 210.869 413.07 209.227 412.797C208.721 412.713 208.225 412.63 207.739 412.548C200.551 411.335 195.327 410.454 188.4 413.24C185.378 414.455 181.462 410.294 177.777 406.378C175.159 403.596 172.657 400.937 170.675 400.419C169.13 400.015 167.427 400.236 165.702 400.459C163.458 400.75 161.176 401.045 159.154 399.977C151.621 395.998 145.96 393.062 138.327 391.578C136.884 391.297 135.739 391.748 134.565 392.211C132.834 392.893 131.04 393.601 128.135 392.02C124.2 389.878 121.018 387.422 117.866 384.988C113.063 381.279 108.329 377.623 101.105 375.221C92.7729 372.45 81.6073 376.105 74.5174 379.2C67.4274 382.294 62.0432 380.074 59.4512 377.431Z" fill="#1E1F21"/>
<path fill-rule="evenodd" clip-rule="evenodd" d="M403.577 336.243C406.489 335.495 409.296 334.773 412.347 332.209C413.704 331.069 414.513 329.375 415.365 327.59C416.537 325.135 417.79 322.509 420.664 320.925C427.378 317.225 429.602 319.957 432.135 323.07C433.498 324.744 434.95 326.529 437.24 327.482C437.951 327.777 438.721 327.87 439.521 327.966C440.948 328.138 442.47 328.321 443.919 329.685C449.532 334.968 454.595 334.839 459.055 334.661C461.095 334.58 462.114 335.339 463.225 336.168C464.125 336.84 465.087 337.557 466.701 337.909C468.717 338.348 470.347 337.835 471.97 337.324C473.763 336.76 475.549 336.198 477.836 336.927C479.924 337.592 484.102 342.877 485.485 345.051C487.708 348.546 489.865 357.741 489.074 362.565C488.734 364.641 487.463 365.623 486.371 366.466C484.925 367.584 483.792 368.459 485.554 371.313C486.31 372.538 487.111 373.693 487.879 374.801C491.946 380.665 495.076 385.179 485.559 391.401C482.556 393.364 481.828 396.354 481.118 399.27C480.642 401.227 480.174 403.15 479.032 404.705C476.736 407.832 470.841 413.312 466.1 409.818C464.886 408.922 464.871 406.353 464.856 403.906C464.841 401.254 464.826 398.745 463.284 398.674C459.466 398.497 455.474 403.387 452.05 407.582C450.487 409.497 449.042 411.268 447.785 412.345C446.698 413.277 445.394 414.093 444.082 414.913C442.199 416.091 440.3 417.279 439.002 418.836C438.369 419.596 437.796 420.318 437.255 421.002C433.99 425.123 431.827 427.853 423.948 429.111C422.435 429.353 420.894 429.638 419.34 429.924C410.987 431.466 402.265 433.076 395.537 428.47C392.354 426.291 391.67 422.57 391.029 419.087C390.318 415.22 389.661 411.647 385.699 410.801C382.783 410.178 380.103 412.125 377.341 414.132C375.209 415.681 373.028 417.266 370.651 417.732C364.029 419.03 357.344 418.507 357.483 411.104C357.611 404.346 364.903 402.671 372.829 400.851C381.048 398.963 389.948 396.919 392.247 388.888C393.803 383.448 390.095 380.071 386.246 376.564C383.645 374.195 380.98 371.767 379.831 368.605C377.211 361.395 380.694 358.993 384.136 356.619C386.261 355.153 388.371 353.697 389.018 351.127C390.412 345.594 391.395 342.162 395.608 339.424C398.49 337.55 401.072 336.887 403.577 336.243ZM405.338 338.525C407.944 337.991 410.447 337.477 413.31 335.066C415.834 332.94 416.855 330.81 417.797 328.844C418.714 326.933 419.556 325.177 421.633 323.732C426.681 320.219 428.415 322.537 430.709 325.606C431.804 327.07 433.027 328.705 434.798 329.959C436.597 331.234 438.077 331.187 439.309 331.147C440.231 331.118 441.015 331.093 441.69 331.631C441.824 331.738 441.961 331.849 442.102 331.961C445.196 334.444 449.783 338.123 456.667 337.156C459.198 336.8 460.195 337.737 461.255 338.733C462.021 339.453 462.82 340.203 464.254 340.518C467.033 341.128 469.093 340.858 471.561 340.536C472.662 340.391 473.845 340.237 475.209 340.145C478.428 339.928 481.829 346.379 482.918 348.572C484.797 352.355 486.458 361.537 483.85 363.238C481.242 364.939 478.867 367.241 481.8 372.002C482.699 373.461 483.735 374.845 484.724 376.167C488.701 381.482 491.937 385.807 482.619 390.1C480.356 391.143 479.878 393.677 479.363 396.405C478.962 398.527 478.539 400.767 477.237 402.514C475.039 405.46 471.698 409.32 468.387 407.857C467.419 407.43 467.343 405.605 467.257 403.538C467.099 399.773 466.908 395.206 461.235 396.837C456.473 398.205 453.165 402.447 450.348 406.059C449 407.787 447.765 409.37 446.537 410.426C445.505 411.313 444.128 412.171 442.72 413.047C440.709 414.299 438.635 415.591 437.409 417.066C436.776 417.828 436.219 418.539 435.699 419.202C432.762 422.949 431.033 425.154 423.639 426.332C421.698 426.642 419.953 426.987 418.313 427.312C412.235 428.514 407.616 429.429 399.901 427.141C395.787 425.921 394.533 421.422 393.346 417.165C392.196 413.041 391.109 409.145 387.548 408.68C387.364 408.656 387.184 408.632 387.007 408.607C384.397 408.246 382.444 407.977 376.902 411.832C369.445 417.022 358.334 416.005 360.51 409.702C361.725 406.182 367.195 404.958 373.481 403.552C382.22 401.596 392.536 399.288 395.188 389.968C396.819 384.235 392.091 379.083 387.868 374.482C385.713 372.134 383.69 369.929 382.71 367.864C380.278 362.738 383.543 360.274 386.894 357.745C389.133 356.056 391.411 354.337 392.053 351.775C392.341 350.623 392.51 349.651 392.66 348.796C393.191 345.748 393.464 344.185 397.93 341.276C400.687 339.479 403.052 338.994 405.338 338.525Z" fill="#1E1F21"/>
<path fill-rule="evenodd" clip-rule="evenodd" d="M257.748 188.198C259.588 188.009 261.436 187.82 264.635 186.49C267.385 185.346 269.128 183.691 270.815 182.09C272.824 180.182 274.754 178.349 278.213 177.548C281.165 176.864 283.715 176.906 286.444 176.951C287.769 176.972 289.135 176.994 290.61 176.935C291.475 176.9 292.298 176.856 293.089 176.813C297.394 176.581 300.801 176.398 305.305 178.019C313.003 180.79 323.007 190.534 328.3 196.626C334.952 204.283 337.106 205.111 346.678 208.354C356.988 211.847 368.702 218.387 371.443 222.425C375.276 228.073 376.218 241.146 376.888 250.452C377.025 252.35 377.151 254.092 377.287 255.582C377.385 256.655 377.476 257.728 377.567 258.798C378.59 270.84 379.587 282.582 390.508 291.249C392.407 292.757 395.344 292.856 398.311 292.956C403.152 293.12 408.073 293.286 408.696 299.581C409.16 304.272 402.895 310.401 396.919 314.831C393.326 317.494 388.798 318.827 384.261 320.164C377.402 322.184 370.521 324.21 366.811 330.847C364.735 334.561 363.703 339.816 362.675 345.049C361.523 350.912 360.377 356.747 357.774 360.355C354.676 364.648 348.506 369.44 343.163 373.566C338.383 377.257 334.625 381.717 330.897 386.139C326.959 390.812 323.055 395.445 318.016 399.087C315.319 401.036 311.55 401.153 307.302 401.283C305.61 401.335 303.842 401.39 302.035 401.563C299.958 401.763 297.9 402.751 295.876 403.722C292.984 405.11 290.162 406.465 287.452 405.441C282.846 403.701 279.407 396.113 279.05 392.246C278.729 388.764 280.574 385.594 282.316 382.601C284.125 379.495 285.823 376.578 284.869 373.701C284.305 371.998 283.318 370.143 282.251 368.135C280.424 364.701 278.361 360.821 277.766 356.488C276.971 350.698 277.826 343.386 279.073 337.898C279.714 335.078 280.942 332.664 282.148 330.292C283.288 328.05 284.409 325.846 284.995 323.374C286.457 317.208 284.992 312.37 283.502 307.45C282.425 303.895 281.335 300.297 281.327 296.123C281.319 291.919 283.088 287.918 284.718 284.234C287.215 278.59 289.384 273.688 284.335 269.929C282.518 268.576 280.127 268.343 277.293 268.067C273.734 267.72 269.476 267.305 264.778 264.519C260.204 261.808 256.39 259.649 251.529 257.586C249.477 256.716 247.995 257.08 246.445 257.462C244.729 257.884 242.929 258.326 240.179 257.139C237.169 255.838 236.706 253.565 236.188 251.025C235.806 249.148 235.394 247.125 233.903 245.24C232.356 243.284 230.741 242.43 229.234 241.633C227.61 240.774 226.111 239.981 224.953 237.948C221.86 232.518 224.71 223.129 227.387 217.125C228.773 214.018 231.154 211.711 233.291 209.642C234.544 208.427 235.714 207.294 236.548 206.13C238.226 203.787 239.399 201.724 240.444 199.888C243.176 195.086 245.023 191.838 252.68 189.228C254.818 188.499 256.28 188.349 257.748 188.198ZM259.163 190.565C261.237 190.358 263.44 190.137 266.553 188.842C269.037 187.809 270.823 186.162 272.552 184.566C274.807 182.487 276.965 180.496 280.447 180.07C282.945 179.765 285.585 180.087 288.175 180.403C290.235 180.655 292.264 180.903 294.164 180.828C295.705 180.766 296.816 180.636 297.741 180.528C299.99 180.264 301.144 180.128 304.733 181.425C312.046 184.068 322.001 195.263 327.032 201.065C332.08 206.887 334.825 207.717 340.352 209.389C341.749 209.812 343.323 210.288 345.157 210.912C354.951 214.245 365.135 221.959 367.741 225.804C371.827 231.835 373.048 245.44 373.819 254.041C373.876 254.676 373.931 255.284 373.984 255.859C374.132 257.469 374.253 259.114 374.376 260.776C375.205 272.032 376.094 284.108 385.94 291.942C389.496 294.771 393.832 295.393 397.417 295.907C401.463 296.488 404.552 296.931 404.485 300.254C404.409 304.042 400.089 308.671 394.417 312.882C390.775 315.586 386.424 316.994 382.033 318.414C376.095 320.336 370.087 322.28 365.669 327.482C362.366 331.373 360.85 338.603 359.463 345.224C358.519 349.725 357.635 353.944 356.288 356.639C354.985 359.245 349.908 365.754 342.739 370.416C337.537 373.799 332.963 379.228 328.441 384.595C324.366 389.431 320.333 394.217 315.922 397.411C313.739 398.991 311.767 398.78 309.195 398.505C307.548 398.329 305.655 398.126 303.304 398.35C300.154 398.651 297.204 400.058 294.596 401.302C293.238 401.949 291.973 402.553 290.821 402.933C286.803 404.258 284.509 398.52 282.864 394.409L282.855 394.385C281.315 390.535 283.203 387.675 285.243 384.583C287.345 381.398 289.609 377.968 288.457 372.959C287.661 369.496 286.278 367.384 284.915 365.304C283.05 362.457 281.224 359.669 280.995 353.56C280.769 347.519 280.971 342.998 282.296 337.766C282.919 335.303 284.004 333.408 285.083 331.522C286.453 329.129 287.814 326.75 288.217 323.242C288.884 317.445 287.555 311.987 286.272 306.716C285.157 302.141 284.078 297.706 284.368 293.316C284.543 290.687 285.813 287.871 287.109 284.998C289.556 279.573 292.094 273.946 287.512 268.999C285.022 266.309 279.516 265.494 275.204 264.855C273.225 264.562 271.498 264.306 270.429 263.923C267.614 262.916 262.796 260.545 258.373 258.369C255.313 256.864 252.442 255.451 250.554 254.647C248.883 253.936 247.356 254.338 245.891 254.724C244.469 255.098 243.105 255.457 241.726 254.765C240.289 254.044 239.556 251.899 238.711 249.426C237.91 247.082 237.008 244.443 235.311 242.447C234.015 240.923 232.771 240.148 231.559 239.393C230.457 238.708 229.382 238.038 228.318 236.838C224.805 232.875 226.11 223.132 231.03 216.853C232.605 214.844 234.178 213.282 235.662 211.81C237.887 209.601 239.91 207.593 241.431 204.577C241.676 204.091 241.909 203.625 242.133 203.177C245.384 196.676 246.679 194.086 254.355 191.468C256.108 190.871 257.599 190.722 259.163 190.565Z" fill="#1E1F21"/>
<path fill-rule="evenodd" clip-rule="evenodd" d="M20.896 109.118C21.1144 108.438 21.3123 107.821 21.4373 107.324C21.9391 105.331 21.7891 103.897 21.6598 102.661C21.4268 100.433 21.2606 98.8443 25.0918 95.7727C26.6098 94.5557 27.7997 94.5078 29.1465 94.4536C30.1064 94.415 31.1461 94.3732 32.4411 93.9024C33.9075 93.3694 34.9669 92.5104 35.9928 91.6787C37.3036 90.6158 38.5598 89.5974 40.5406 89.3598C42.554 89.1183 43.4156 89.5624 44.2783 90.007C44.9469 90.3516 45.6161 90.6965 46.8226 90.7229C53.2393 90.8631 58.2604 91.372 64.7827 94.3298C68.8548 96.1764 68.2842 97.9338 67.7661 99.5296C67.5076 100.325 67.2623 101.081 67.6123 101.788C70.2134 107.038 75.406 110.305 80.7968 113.698C86.8407 117.501 93.1339 121.462 96.3034 128.548C97.6554 131.57 101.611 133.721 104.966 135.545C106.158 136.193 107.274 136.8 108.17 137.39C110.043 138.622 111.668 139.518 113.192 140.359C116.143 141.986 118.716 143.404 121.974 146.652C125.05 149.717 129.037 150.824 132.854 151.639C136.401 152.395 144.475 154.156 146.96 156.717C149.803 159.648 150.82 162.578 148.293 165.503C147.388 166.55 146.295 166.482 144.955 166.399C143.692 166.32 142.209 166.228 140.455 167.041C138.278 168.051 135.476 168.613 132.657 169.179C127.006 170.312 121.289 171.459 120.402 176.251C119.892 179.012 123.142 181.999 126.669 185.241C131.093 189.307 135.954 193.774 134.379 198.699C133.11 202.672 130.725 220.159 137.556 213.159C139.244 211.431 141.152 205.418 141.478 199.63C141.637 196.79 142.391 194.665 143.103 192.658C143.435 191.72 143.759 190.808 144.008 189.861C145.169 185.46 148.403 177.501 153.935 181.798C155.487 183.004 155.773 184.103 156.148 185.547C156.32 186.208 156.51 186.942 156.85 187.791C158.07 190.84 159.636 192.524 161.189 194.194C162.791 195.916 164.379 197.624 165.559 200.801C166.572 203.528 167.205 205.309 167.742 206.819C168.703 209.526 169.355 211.361 171.333 216.212C172.766 219.73 178.625 228.465 180.76 231.606C184.108 236.533 187.087 243.82 185.02 247.486C181.224 254.216 163.593 250.461 158.444 247.996C157.022 247.315 156.22 246.496 155.467 245.726C154.525 244.764 153.66 243.88 151.754 243.445C150.365 243.128 149.027 243.701 147.441 244.38C145.616 245.163 143.463 246.085 140.527 245.951C131.411 245.536 126.409 252.399 121.557 259.058C120.744 260.173 119.936 261.282 119.113 262.351C118.198 263.539 116.288 263.878 114.502 264.196C112.493 264.553 110.641 264.883 110.535 266.359C110.355 268.851 110.752 270.568 111.162 272.341C111.481 273.718 111.807 275.13 111.877 276.967C111.979 279.632 110.196 284.694 106.204 281.604C103.371 279.411 103.787 275.814 104.167 272.52C104.43 270.252 104.675 268.128 103.832 266.704C102.326 264.159 99.9973 263.42 97.4979 262.627C96.4042 262.28 95.2777 261.922 94.173 261.398C90.9766 259.882 88.4079 258.093 86.0392 256.443C80.4598 252.557 75.9902 249.444 67.0426 252.496C59.2243 255.163 61.5647 265.264 63.0368 271.618C63.2586 272.575 63.4606 273.447 63.6053 274.196C64.1715 277.127 66.5528 281.916 69.7475 282.113C71.9703 282.25 73.3867 280.902 74.7106 279.641C76.1544 278.267 77.4882 276.997 79.6381 277.872C86.9519 280.849 85.2079 285.328 83.2555 290.342C82.2606 292.898 81.2117 295.592 81.2796 298.297C81.3802 302.303 83.5235 304.886 85.2347 306.948C86.9473 309.012 88.2269 310.554 86.5925 312.478C84.3841 315.078 79.4919 311.527 76.406 308.464C74.7471 306.818 73.1281 305.31 71.5614 303.852C66.8249 299.441 62.5654 295.475 59.1215 289.454C57.0577 285.846 54.773 282.326 52.487 278.804C45.2076 267.589 37.9144 256.353 37.6927 242.167C37.6543 239.711 38.9171 238.04 40.1626 236.391C41.4757 234.654 42.7695 232.942 42.4992 230.361C41.8611 224.27 35.4948 209.624 33.7147 207.437C33.4513 207.113 33.136 206.751 32.7965 206.361C31.4878 204.857 29.8197 202.939 29.3845 201.239C27.8689 195.317 32.1005 189.984 36.0462 185.012C37.8536 182.735 39.6011 180.533 40.7086 178.384C42.4564 174.994 44.9145 172.276 47.3279 169.608C50.3099 166.311 53.2236 163.09 54.6449 158.768C55.2038 157.068 54.8459 154.949 54.4912 152.848C54.2051 151.153 53.9211 149.471 54.1221 148.032C54.3072 146.708 54.7091 145.271 55.116 143.816C55.6426 141.933 56.1775 140.02 56.2622 138.282C56.5546 132.276 54.0631 123.794 46.4444 121.63C45.17 121.268 44.1832 121.57 43.1744 121.878C42.2622 122.156 41.332 122.44 40.155 122.244C38.4626 121.962 37.3195 121.39 36.0735 120.767C35.3043 120.382 34.4959 119.978 33.4948 119.61C31.1607 118.752 28.8352 118.612 26.7527 118.487C23.8603 118.313 21.4364 118.167 20.1087 116.165C19.1161 114.668 20.1312 111.503 20.896 109.118ZM29.9215 115.784C22.7647 116.606 22.6991 112.701 23.651 110.859C25.17 107.92 24.7867 105.664 24.4726 103.815C24.0584 101.377 23.7645 99.6469 28.1147 97.9942C29.3224 97.5353 30.4511 97.2473 31.5304 96.9719C33.6932 96.4199 35.6575 95.9186 37.6613 94.1949C41.3172 91.0501 42.6799 91.9512 44.0622 92.8653C44.8095 93.3594 45.5626 93.8574 46.6868 93.722C49.8907 93.3363 52.4795 93.2345 55.3926 93.7867C57.9433 94.2702 59.8047 94.9446 62.9287 96.4304C64.8741 97.3557 64.5871 99.2577 64.3212 101.02C64.1601 102.088 64.0067 103.105 64.3622 103.822C66.7507 108.64 72.3159 111.952 77.9585 115.309C83.9901 118.898 90.1101 122.54 92.5322 128.13C94.6382 132.991 100.713 136.889 104.407 138.795C110.41 141.891 115.398 144.604 119.826 149.012C122.581 151.756 129.649 153.581 133.071 154.309C136.25 154.985 142.792 156.463 145.005 158.114C147.284 159.815 147.709 161.532 146.32 163.254C145.669 164.062 145.281 163.996 144.521 163.867C143.514 163.697 141.855 163.415 138.067 164.899C136.101 165.67 133.627 166.239 131.071 166.827C124.981 168.228 118.424 169.736 117.156 174.33C115.718 179.535 120.163 183.629 124.415 187.544C128.18 191.011 131.793 194.338 131.029 198.172C130.99 198.371 130.929 198.616 130.853 198.923C130.544 200.176 129.983 202.45 129.567 206.757C128.973 212.894 131.24 222.077 138.217 217.33C142.501 214.414 144.089 203.973 144.156 201.217C144.258 197.049 145.03 192.953 148.058 186.08C149.092 183.734 152.216 182.284 153.759 186.91C154.778 189.968 156.604 192.52 158.415 195.052C160.091 197.395 161.755 199.721 162.755 202.413C163.622 204.748 164.249 206.497 164.809 208.06C165.884 211.062 166.713 213.376 168.527 217.825C169.462 220.12 172.716 224.917 175.292 228.716C176.251 230.13 177.116 231.405 177.733 232.362C180.734 237.016 184.076 243 182.528 245.741C179.122 251.769 167.584 248.364 162.97 246.158C160.782 245.113 159.487 244.04 158.386 243.127C156.667 241.702 155.42 240.669 151.981 240.744C150.735 240.771 149.346 241.197 147.847 241.658C146.038 242.214 144.068 242.819 141.996 242.83C132.434 242.879 128.916 245.36 123.77 252.032C123.181 252.796 122.455 253.765 121.681 254.798C120.164 256.82 118.465 259.086 117.256 260.535C116.173 261.832 114.112 262.334 112.152 262.811C110.008 263.333 107.985 263.826 107.499 265.3C107.223 266.137 107.743 268.426 108.309 270.923C109.278 275.193 110.385 280.072 107.891 279.344C105.828 278.742 106.05 275.878 106.303 272.608C106.535 269.611 106.794 266.273 105.343 264.024C104.371 262.516 102.079 261.584 99.2499 260.433C96.0568 259.135 92.18 257.559 88.746 254.562C80.7392 247.576 75.0962 247.544 68.1926 249.302C59.1606 251.601 57.2262 258.697 58.2146 263.818C58.2636 264.072 58.3274 264.463 58.4091 264.962C59.1708 269.62 61.4844 283.768 67.8325 285.437C72.2653 286.602 74.1551 284.38 75.6065 282.674C76.4565 281.675 77.1562 280.853 78.1282 280.99C81.5531 281.476 82.3961 285.377 80.3707 289.017C74.7735 299.075 80.5913 305.926 83.2166 309.018C83.9168 309.842 84.3899 310.399 84.3588 310.678C84.1619 312.447 74.6101 303.605 67.9633 296.09C64.7549 292.462 61.0768 287.439 55.1127 276.638C53.3335 273.417 51.6635 270.665 50.1381 268.152C45.2093 260.031 41.7907 254.398 41.0802 243.43C40.8966 240.594 42.1146 238.606 43.3129 236.65C44.5198 234.68 45.7066 232.743 45.4208 230.006C44.8512 224.552 38.6671 210.216 37.4665 207.85C36.5934 206.129 35.5299 204.865 34.5822 203.739C33.5273 202.485 32.6158 201.402 32.2695 200.048C31.0437 195.256 35.4163 189.835 39.3877 184.91C41.4516 182.351 43.4073 179.926 44.4124 177.794C46.0086 174.408 48.5279 171.777 50.9874 169.209C53.7466 166.328 56.4305 163.526 57.651 159.824C58.2343 158.054 57.8253 155.108 57.4571 152.456C57.2531 150.986 57.0617 149.607 57.0584 148.568C57.0508 146.134 57.7 144.226 58.2799 142.521C58.7131 141.248 59.1076 140.088 59.1605 138.908C59.3883 133.832 59.2164 128.4 54.1379 122.85C51.8284 120.325 48.4949 119.289 46.273 118.921C45.159 118.736 44.2343 118.947 43.3366 119.153C42.2571 119.399 41.2167 119.637 39.9332 119.166C38.1934 118.528 36.7916 117.885 35.585 117.332C33.3255 116.296 31.7504 115.574 29.9215 115.784Z" fill="#1E1F21"/>
</svg>
