<svg width="529" height="519" viewBox="0 0 529 519" fill="none" xmlns="http://www.w3.org/2000/svg">
<path fill-rule="evenodd" clip-rule="evenodd" d="M109.77 80.8579C109.575 77.5625 109.408 74.7588 109.932 73.9096C114.066 67.2131 131.838 60.6906 140.151 59.5894C142.933 59.2208 147.655 60.0919 152.624 61.0085C160.301 62.4245 168.566 63.9492 171.179 61.1805C177.796 54.1679 172.889 45.5742 164.172 48.4515C162.972 48.8478 161.649 49.3653 160.247 49.9135C153.181 52.677 144.115 56.2227 138.649 48.9819C132 40.1724 168.08 18.8939 175.182 17.6897C181.342 16.6453 190.169 17.015 199.516 17.4063C209.154 17.8099 219.345 18.2366 227.729 17.1595C237.12 15.9531 245.565 11.9967 253.903 8.09033C259.974 5.24613 265.988 2.42847 272.269 0.718115C281.028 -1.66679 291.866 2.3009 303.529 6.57076C311.857 9.61984 320.607 12.823 329.321 13.9771C337.619 15.0762 344.664 14.7694 351.291 14.4809C356.434 14.2569 361.324 14.044 366.354 14.5075C372.844 15.1055 378.855 17.6121 384.851 20.1126C390.732 22.5645 396.598 25.0106 402.887 25.6453C408.656 26.2276 414.326 26.7282 419.688 27.2015C429.584 28.0752 438.433 28.8564 444.925 29.8883C454.934 31.4795 460.565 35.7516 461.94 38.3744C464.739 43.7139 462.901 46.035 460.866 48.605C459.632 50.1639 458.325 51.8144 457.936 54.2856C457.688 55.8661 460.895 59.9322 464.065 63.95C467.277 68.022 470.451 72.0443 469.947 73.3791C466.799 81.7212 453.559 72.9642 449.929 69.6665C448.537 68.4022 448.271 66.4401 448.009 64.5108C447.568 61.2714 447.141 58.1245 441.421 58.5286C433.914 59.059 412.395 60.6501 411.895 62.2413C409.93 68.4899 422.346 75.2219 431.414 80.1388C434.571 81.8505 437.322 83.3422 438.919 84.517C443.423 87.8291 448.928 104.141 448.428 107.323C448.141 109.144 447.425 110.397 446.71 111.649C445.655 113.493 444.602 115.335 444.925 118.991C445.173 121.803 446.804 124.234 448.318 126.489C450.422 129.623 452.299 132.42 449.929 135.433C448.527 137.216 442.865 135.669 437.99 134.337C434.166 133.291 430.827 132.379 430.412 133.312C428.217 138.235 434.356 145.813 441.005 154.021C448.262 162.978 456.126 172.686 454.433 180.515C453.136 186.514 448.168 188.719 443.511 190.786C439.737 192.461 436.165 194.046 434.916 197.487C433.902 200.277 436.111 202.028 438.399 203.842C440.596 205.583 442.866 207.383 442.422 210.216C442.075 212.434 433.95 224.859 431.913 226.658C428.91 229.31 406.89 216.05 394.88 204.382C384.953 194.739 374.979 181.045 374.862 176.802C374.804 174.711 375.283 173.39 375.716 172.198C376.284 170.635 376.771 169.294 375.862 166.725C372.394 156.924 361.097 155.062 350.187 153.263C342.352 151.972 334.716 150.713 330.322 146.571C310.349 127.748 307.421 127.685 290.786 146.041C288.616 148.435 285.766 148.958 283.106 149.446C279.828 150.047 276.84 150.595 275.773 154.527C275.329 156.163 275.493 158.255 275.649 160.229C275.876 163.112 276.084 165.744 274.346 166.337C269.464 168.002 265.221 165.976 259.68 163.33C258.746 162.883 257.774 162.419 256.756 161.952C252.94 160.202 249.402 156.334 246.758 153.444C244.374 150.837 242.717 149.026 242.243 150.284C241.972 150.999 241.597 151.532 241.276 151.986C240.65 152.874 240.236 153.46 241.242 154.527C241.618 154.926 242.207 155.587 242.942 156.413C246.114 159.977 252.004 166.594 255.254 168.317C257.738 169.632 260.907 169.915 264.074 170.197C269.957 170.722 275.83 171.245 277.274 178.394C278.258 183.263 276.164 186.465 272.27 190.592C264.305 199.033 252.894 210.03 241.242 213.398C235.737 214.99 231.366 210.151 227.229 204.382C222.387 197.631 219.103 190.466 215.79 183.24C212.596 176.274 209.376 169.25 204.709 162.482C202.929 159.901 200.722 157.219 198.65 154.702C194.682 149.879 191.211 145.662 192.198 143.919C193.184 142.176 194.889 141.241 196.584 140.311C199.155 138.901 201.706 137.502 201.706 133.312C201.706 126 184.721 123.326 176.938 122.101C175.792 121.92 174.845 121.771 174.181 121.643C165.582 119.986 163.866 115.987 162.671 111.566C162.574 111.207 162.446 110.548 162.28 109.693C161.179 104.016 158.391 89.6476 151.661 96.1854C149.112 98.6623 151.474 102.123 153.523 105.126C154.489 106.541 155.385 107.854 155.665 108.914C156.86 113.448 151.289 115.881 148.658 111.566C147.849 110.239 147.19 108.54 146.507 106.777C144.855 102.516 143.059 97.8848 138.649 97.246C128.523 95.7791 121.723 104.332 115.492 112.169C109.492 119.716 104.02 126.599 96.6117 123.235C93.1087 121.644 91.6072 96.8602 94.61 95.1247C97.3546 93.5384 100.813 94.0248 103.65 94.424C105.957 94.7484 107.853 95.0151 108.622 94.0638C110.423 91.8373 110.064 85.7955 109.77 80.8579ZM129.629 66.9221C132.125 66.0603 134.104 65.3769 134.689 65C138.957 62.2529 148.002 64.1495 155.994 65.8254C161.093 66.8947 165.764 67.8741 168.492 67.5C174.456 66.6819 177.41 58.1742 178.902 53C180.632 47 176.138 43.5 173 43.5C170.914 43.5 167.744 44.5507 164.222 45.7181C156.841 48.1646 147.913 51.1238 144.178 46C138.576 38.3159 168.362 21.3504 178.902 19.5C184.155 18.5778 194.329 18.6538 204.937 18.7329C215.615 18.8126 226.731 18.8956 233.711 17.9673C241.622 16.915 248.736 13.4641 255.761 10.0568C260.875 7.57593 265.942 5.11823 271.234 3.62637C278.613 1.54615 287.743 5.00695 297.568 8.73132C304.585 11.3909 311.956 14.1848 319.297 15.1915C326.712 16.2082 339.145 16.6706 350.024 17.0751C357.362 17.348 363.993 17.5946 367.899 17.9673C373.364 18.4886 378.853 21.0262 384.327 23.5561C389.7 26.0397 395.058 28.516 400.359 29.07C406.286 29.6894 408.858 29.8775 410.525 29.9994C412.748 30.162 413.363 30.207 418.181 31C420.282 31.3459 423.487 31.3995 427.221 31.462C438.471 31.6501 454.536 31.9188 459.785 40.5C462.408 44.7882 460.224 46.7348 457.867 48.8359C456.292 50.24 454.639 51.713 454.292 54C454.103 55.2423 457.153 58.7781 460.312 62.4399C464.211 66.9596 468.276 71.6714 466.621 72.5C458.974 76.328 452.139 68.5 451.14 65.5C448.144 56.5 446.801 54 427.649 56.5C427.33 56.5417 426.799 56.593 426.117 56.659C421.758 57.0808 411.227 58.0998 410.347 61C408.115 68.3477 410.972 72.5319 416.183 76.5C416.93 77.0682 418.368 77.6063 420.227 78.3021C427.82 81.1435 442.437 86.6138 445.647 107.5C445.93 109.343 444.747 110.59 443.459 111.947C442.002 113.482 440.41 115.159 440.653 118C440.883 120.693 442.622 123.022 444.24 125.191C446.144 127.741 447.881 130.068 446.801 132.5C446.214 133.823 442.929 132.927 439.134 131.892C433.788 130.433 427.43 128.699 426.171 132.5C424.722 136.875 431.014 144.659 437.786 153.037C445.383 162.435 453.584 172.581 452.139 179.5C451.045 184.736 446.431 187.086 441.874 189.407C438.186 191.286 434.536 193.145 432.819 196.5C431.281 199.504 433.528 201.745 435.767 203.979C437.637 205.844 439.502 207.705 439.155 210C438.862 211.935 431.96 222 428.324 222C420.834 222 378.231 187 380.228 177C382.226 167 375.889 161 371.894 158C368.525 155.47 361.407 152 353.417 150.5C334.437 146.937 331.912 144.454 324.313 136.984C323.831 136.51 323.328 136.016 322.799 135.5C313.941 126.856 305.477 128.533 297.487 134.5C295.447 136.024 294.242 137.768 293.103 139.418C291.471 141.781 289.974 143.95 286.345 145C271.348 149.338 271.81 151.894 272.514 155.79C272.865 157.732 273.276 160.006 271.863 163C269.73 167.518 263.304 162.253 256.479 156.662C252.108 153.081 247.573 149.366 243.898 148C242.018 147.301 240.776 148.571 239.777 149.592C239.703 149.667 239.63 149.742 239.559 149.814C234.409 155 251.039 175.587 267.868 174.5C275.43 174.012 274.616 180.465 269.522 187.5C264.186 194.867 254.755 202.919 249.391 206.5C234.98 216.119 230.855 206.975 223.955 191.676C222.496 188.443 220.914 184.935 219.084 181.271C213.975 171.039 210.228 165.837 206.358 160.463C203.626 156.671 200.833 152.793 197.455 147C196.554 145.454 198.154 143.991 200.141 142.174C203.386 139.207 207.665 135.295 203.777 128.533C198.15 118.747 187.709 119.074 182.281 119.244C181.661 119.263 181.107 119.281 180.632 119.281C167.127 119.281 165.397 111.216 164.45 106.802C164.346 106.319 164.252 105.88 164.153 105.5C164.059 105.142 164.004 104.471 163.931 103.601C163.521 98.6634 162.58 87.3263 151.169 90.5C145.9 91.9653 149.072 98.4044 151.675 103.689C153.513 107.421 155.067 110.577 153.166 111C151.613 111.346 149.962 108.503 147.993 105.113C145.53 100.873 142.57 95.7781 138.684 95C131.693 93.6 120.957 98.9179 117.555 103C116.743 103.974 115.961 104.916 115.21 105.821C105.331 117.721 100.584 123.439 98.5787 117C91.1551 93.1603 101.513 95.9052 107.599 97.5179C109.299 97.9685 110.666 98.3307 111.219 98.0001C113.872 96.4122 114.188 87.7588 114.429 81.1519C114.568 77.3216 114.683 74.1792 115.214 73.5C116.925 71.309 124.408 68.7251 129.629 66.9221Z" fill="#1E1F21"/>
<path fill-rule="evenodd" clip-rule="evenodd" d="M488.201 159.973C489.817 161.616 491.512 163.339 494.002 164.587C496.898 166.039 499.903 166.573 502.87 167.1C506.382 167.724 509.841 168.338 513.001 170.455C514.075 171.174 515.514 171.456 516.965 171.739C519.957 172.325 523 172.92 523 177.39C523 183.257 523 187.525 521 194.993C520.608 196.456 519.562 196.531 518.391 196.614C517.411 196.684 516.344 196.76 515.501 197.66C513.882 199.387 514.359 206.255 514.761 212.043C514.98 215.195 515.177 218.026 515.001 219.531C514.717 221.95 515.098 224.026 515.462 226.006C515.972 228.787 516.448 231.379 515.001 234.467C514.589 235.346 514.741 237.297 514.935 239.779C515.211 243.318 515.572 247.938 514.501 252.071C514.263 252.988 514.135 253.886 514.013 254.742C513.704 256.915 513.434 258.817 511.501 260.072C509.166 261.589 507.094 260.995 504.501 260.072C497.008 257.407 493.008 255.807 485.02 252.611L485.003 252.604C483.26 251.907 481.765 251.203 480.383 250.553C475.078 248.056 471.454 246.35 462.004 248.87C459.174 249.625 457.227 250.676 455.451 251.634C452.277 253.346 449.649 254.764 443.506 253.671C440.468 253.131 451.746 241.924 460.567 233.158C465.2 228.554 469.155 224.624 470.004 223.265C471.054 221.584 471.091 219.359 471.132 216.906C471.169 214.689 471.209 212.286 472.004 209.929C472.928 207.189 474.487 204.892 475.874 202.849C477.021 201.159 478.05 199.643 478.503 198.194C480.537 191.685 480.185 174.497 476.003 168.321C474.121 165.542 471.909 161.344 474.504 157.652C476.487 154.831 478.876 154.518 482.003 155.519C484.654 156.367 486.377 158.119 488.201 159.973ZM488.644 162.604C490.147 164.125 491.723 165.721 494.038 166.876C496.731 168.22 499.525 168.715 502.283 169.203C505.549 169.781 508.765 170.349 511.703 172.309C512.702 172.975 514.04 173.236 515.388 173.498C518.171 174.04 521 174.592 521 178.73C521 182.818 520.541 184.38 519.521 187.851C519.186 188.992 518.79 190.338 518.33 192.049C517.952 193.454 516.627 193.806 515.235 194.177C514.162 194.462 513.049 194.758 512.299 195.554C510.781 197.167 511.19 204.174 511.527 209.941C511.706 213.002 511.864 215.715 511.703 217.085C511.433 219.375 511.918 221.459 512.386 223.473C513.019 226.195 513.623 228.792 512.299 231.606C511.916 232.42 512.035 233.923 512.189 235.865C512.409 238.636 512.7 242.3 511.703 246.127C511.467 247.031 511.336 248.152 511.199 249.322C510.88 252.035 510.532 255.009 508.781 256.141C506.61 257.545 502.805 256.995 500.394 256.141C496.834 254.88 495.01 253.653 493.087 252.359C491.244 251.119 489.311 249.818 485.67 248.368C484.05 247.722 482.66 247.071 481.375 246.468C476.443 244.156 473.073 242.577 464.287 244.91C461.473 245.658 459.802 246.758 458.308 247.742C455.906 249.324 453.962 250.604 448.47 249.632C445.781 249.155 455.151 240.943 463.131 233.949C467.935 229.738 472.236 225.969 473.097 224.596C474.062 223.057 474.013 220.577 473.959 217.904C473.91 215.427 473.857 212.786 474.605 210.576C475.47 208.021 477.234 206.142 478.801 204.473C480.078 203.112 481.223 201.892 481.641 200.561C483.532 194.535 483.515 174.734 479.627 169.016C479.176 168.353 478.551 167.69 477.912 167.013C476.07 165.062 474.117 162.993 475.908 160.456C477.753 157.843 479.973 157.554 482.881 158.48C485.347 159.266 486.948 160.887 488.644 162.604Z" fill="#1E1F21"/>
<path fill-rule="evenodd" clip-rule="evenodd" d="M475.709 274.135C478.154 278.117 480.944 282.661 485.024 285.542C488.667 288.114 492.568 288.836 496.178 289.505C500.8 290.361 504.946 291.128 507.466 295.577C508.438 297.292 508.29 299.057 508.149 300.746C507.985 302.712 507.829 304.576 509.461 306.14C510.966 307.582 512.492 307.308 514.128 307.014C515.474 306.773 516.895 306.518 518.438 307.196C521.856 308.698 523.923 325.681 520.931 328.85C519.569 330.293 517.972 331.321 516.45 332.301C512.28 334.985 508.667 337.311 511.954 346.807C512.504 348.395 514.599 346.62 517.13 344.476C520.491 341.628 524.621 338.129 526.916 340.998C529.685 344.46 529.704 349.172 526.916 352.617C524.969 355.022 522.088 357.662 518.825 360.653C512.054 366.858 503.635 374.573 498.489 384.834C494.842 392.106 491.482 396.253 482.53 396.982C477.364 397.403 452.446 390.416 449.615 386.419C443.214 377.381 445.837 366.446 448.357 355.94C448.795 354.111 449.231 352.295 449.615 350.504C450.193 347.811 451.48 345.794 452.751 343.801C454.878 340.467 456.96 337.203 455.6 330.963C454.769 327.149 448.859 321.705 443.342 316.623C438.928 312.557 434.765 308.722 433.657 306.14C430.194 298.069 441.2 289.367 448.676 283.456C450.177 282.269 451.537 281.194 452.608 280.26C454.588 278.532 455.662 276.24 456.711 274C458.626 269.913 460.459 266 467.569 266C470.715 266 473 269.722 475.709 274.135ZM476.7 277.953C479.312 282.29 482.23 287.134 486.039 289.844C489.415 292.246 492.561 292.878 495.383 293.445C499.029 294.177 502.134 294.801 504.491 298.994C505.38 300.575 505.392 302.218 505.404 303.796C505.418 305.696 505.431 307.501 506.974 308.992C508.394 310.362 510.397 310.14 512.443 309.912C514.081 309.73 515.747 309.545 517.162 310.171C520.346 311.581 521.187 323.513 518.4 326.488C517.296 327.666 515.953 328.512 514.611 329.357C510.191 332.142 505.799 334.909 510.11 349.483C511.362 353.715 515.141 350.064 518.659 346.665C521.375 344.042 523.935 341.569 525.059 342.984C527.638 346.234 527.656 349.576 525.059 352.81C523.14 355.199 520.122 357.708 516.7 360.553C510.182 365.974 502.195 372.615 497.536 381.976C494.139 388.802 490.474 392.289 482.136 392.974C477.324 393.369 454.625 389.227 451.988 385.475C446.302 377.384 448.967 367.056 451.461 357.388C452.038 355.154 452.605 352.955 453.058 350.827C453.597 348.298 454.795 346.404 455.979 344.534C457.96 341.404 459.899 338.34 458.632 332.482C457.854 328.881 451.788 322.893 446.182 317.358C441.754 312.987 437.613 308.899 436.589 306.492C433.292 298.749 444.601 289.517 451.718 283.707C452.964 282.69 454.081 281.778 454.969 280.997C456.804 279.384 457.739 277.418 458.627 275.549C460.261 272.111 461.741 269 468.382 269C471.306 269 473.817 273.168 476.7 277.953Z" fill="#1E1F21"/>
<path fill-rule="evenodd" clip-rule="evenodd" d="M43.1308 444.097C42.0028 442.489 48.4002 435.999 53.5261 431.296C61.7875 423.717 68.1854 418.688 79.0789 417.549C80.7253 417.377 82.3301 416.862 83.9331 416.348C84.9843 416.011 86.0346 415.674 87.0954 415.434C108.139 410.675 138.702 399.571 146.719 394.813C148.382 393.825 148.778 392.267 149.203 390.598C149.518 389.358 149.849 388.056 150.727 386.881C151.315 386.095 151.857 385.817 152.325 385.578C152.948 385.259 153.44 385.007 153.733 383.709C154.116 382.012 153.615 380.73 153.091 379.389C152.668 378.306 152.23 377.186 152.23 375.778C152.23 372.702 157.036 362.102 158.743 359.387C160.465 356.648 162.494 355.465 164.537 354.274C166.523 353.116 168.522 351.95 170.267 349.34C171.211 347.929 172.12 346.418 173.042 344.885C177.865 336.868 183.044 328.26 195.319 330.305C197.251 330.627 198.228 331.6 199.164 332.531C200.196 333.558 201.178 334.535 203.335 334.535C207.369 334.535 211.181 333.855 214.937 333.185C218.587 332.533 222.184 331.891 225.882 331.892C230.482 331.892 239.992 336.142 243.418 339.294C248.638 344.097 248.911 354.139 249.135 362.406C249.199 364.772 249.259 366.993 249.431 368.904C249.633 371.165 250.178 373.235 250.715 375.271C251.48 378.176 252.227 381.013 251.936 384.238C251.637 387.549 250.908 390.867 250.172 394.213C249.477 397.379 248.775 400.57 248.428 403.801C248.281 405.174 248.177 406.386 248.079 407.528C247.841 410.311 247.638 412.68 246.925 415.963C246.067 419.914 244.33 423.449 242.572 427.026C240.69 430.856 238.783 434.736 237.907 439.228C237.502 441.301 236.711 442.179 235.982 442.987C235.15 443.91 234.399 444.742 234.399 447.159C234.399 448.51 235.209 450.157 236.22 452.212C237.582 454.98 239.308 458.491 239.911 463.021C240.89 470.383 241.464 483.59 238.909 486.286C237.744 487.515 221.447 488.326 218.867 487.873C216.821 487.513 214.781 487.056 212.744 486.6C205.399 484.957 198.107 483.324 190.809 486.286C186.931 487.861 181.986 483.247 177.35 478.922C174.202 475.985 171.196 473.18 168.764 472.539C167.763 472.275 167.101 472.383 166.416 472.495C165.801 472.595 165.168 472.698 164.255 472.539C159.317 471.676 154.12 469.955 148.861 468.213C144.141 466.649 139.371 465.069 134.694 464.079C132.925 463.704 131.465 464.073 130.082 464.423C128.315 464.87 126.674 465.285 124.673 464.079C120.391 461.497 116.819 458.629 113.346 455.84C106.898 450.663 100.79 445.758 91.1037 443.458C85.8266 442.205 77.4656 444.105 69.4632 445.924C61.1301 447.818 53.1859 449.623 49.5179 447.688C49.1144 447.475 48.5485 447.233 47.9146 446.963C46.1875 446.226 43.9559 445.274 43.1308 444.097ZM49.0753 441.388C47.7259 439.395 64.892 427.303 70.6522 424.948C72.9104 424.025 74.4302 423.346 75.6304 422.81C78.964 421.321 79.8324 420.933 87.2115 419.468C88.4938 419.213 91.5756 418.251 94.5379 417.326C97.1346 416.516 99.6395 415.734 100.76 415.482C119.602 411.251 144.989 399.626 152.167 395.395C153.656 394.517 154.011 393.131 154.391 391.647C154.674 390.545 154.97 389.387 155.756 388.343C156.282 387.643 156.768 387.396 157.187 387.183C157.745 386.9 158.185 386.676 158.448 385.522C158.788 384.022 157.94 382.028 157.108 380.07C156.427 378.467 155.756 376.889 155.756 375.628C155.756 372.892 161.453 362.599 162.982 360.184C164.528 357.742 166.666 356.296 168.812 354.845C170.885 353.442 172.965 352.036 174.523 349.722C175.801 347.823 176.811 345.748 177.796 343.727C180.862 337.427 183.679 331.642 193.591 333.282C195.299 333.564 196.693 334.68 198.073 335.784C199.631 337.031 201.171 338.264 203.125 338.264C206.737 338.264 211.024 337.494 215.248 336.736C219.353 336 223.399 335.274 226.709 335.274C230.828 335.275 239.159 339.515 241.763 342.747C246.104 348.135 246.687 359.304 247.111 367.432C247.213 369.384 247.305 371.16 247.439 372.639C247.635 374.812 248.242 376.256 248.817 377.621C249.531 379.319 250.194 380.895 249.948 383.599C249.68 386.543 248.796 390.559 247.913 394.569C247.078 398.361 246.244 402.148 245.933 405.021C245.623 407.891 245.146 409.804 244.588 412.044C244.33 413.078 244.054 414.182 243.77 415.482C242.998 419.012 241.679 421.285 240.352 423.573C238.944 426 237.526 428.444 236.745 432.421C236.397 434.194 235.248 436.073 234.088 437.971C232.665 440.299 231.225 442.655 231.225 444.875C231.225 447.429 233.564 453.522 235.984 459.827C236.238 460.488 236.492 461.151 236.745 461.813C239.104 467.987 237.527 478.347 235.24 480.745C232.952 483.142 221.493 481.148 219.182 480.745C210.745 479.271 198.926 478.377 190.58 481.741C187.169 483.116 183.067 478.764 179.172 474.631C176.407 471.698 173.747 468.875 171.512 468.29C170.598 468.05 168.844 468.155 167.149 468.257C165.694 468.344 164.282 468.428 163.484 468.29C159.127 467.534 154.375 465.781 149.573 464.01C145.129 462.371 140.643 460.716 136.387 459.821C134.78 459.483 133.347 459.925 131.969 460.349C130.254 460.878 128.624 461.38 126.853 460.319C123.005 458.014 119.562 455.257 116.137 452.514C109.815 447.45 103.55 442.432 94.8945 440.392C85.2492 438.117 65.1339 442.907 59.2673 444.377C53.4007 445.847 50.4246 443.381 49.0753 441.388Z" fill="#1E1F21"/>
<path fill-rule="evenodd" clip-rule="evenodd" d="M393.164 393.355C397.171 393.048 401.042 392.75 405.583 390.444C407.857 389.289 410.218 386.731 412.473 384.286C414.873 381.685 417.154 379.213 419.085 378.698C428.233 376.26 429.98 380.607 431.972 385.558C433.043 388.222 434.185 391.062 436.588 393.114C437.523 393.912 438.327 394.057 439.066 394.19C439.966 394.351 440.768 394.495 441.588 395.783C445.833 402.448 445.911 403.831 446.624 404.365C447.476 405.003 449.235 404.428 460.091 410.198C462.174 411.305 463.168 412.49 464.177 413.69C465.145 414.843 466.125 416.011 468.092 417.139C470.59 418.571 473.382 418.638 475.902 418.699C478.149 418.753 480.18 418.802 481.594 419.808C483.574 421.217 485.596 428.696 486.693 432.751C486.846 433.317 486.981 433.816 487.095 434.223C488.596 439.562 488.092 453.585 486.595 457.18C485.694 459.344 484.003 460.154 482.467 460.89C480.272 461.942 478.394 462.842 479.594 467.324C480.092 469.186 480.667 470.976 481.218 472.69C484.133 481.768 486.378 488.757 473.093 493.484C471.738 493.967 470.542 495.817 469.152 497.969C467.464 500.582 465.488 503.639 462.591 505.23C461.853 505.635 460.964 506.192 459.973 506.813C455.238 509.777 448.172 514.202 444.089 510.568C442.468 509.126 443.342 505.145 444.13 501.557C444.801 498.503 445.409 495.734 444.363 495.058C438.86 491.498 432.898 497.253 427.806 502.168C425.516 504.378 423.403 506.418 421.585 507.366C419.996 508.194 418.188 508.794 416.369 509.397C413.758 510.263 411.125 511.137 409.083 512.704C408.711 512.99 408.354 513.266 408.01 513.532C401.879 518.268 399.829 519.852 389.081 518.577C383.796 517.95 379.62 516.62 375.581 515.334C370.506 513.718 365.647 512.17 359.076 512.17C356.502 512.17 355.896 507.064 355.191 501.111C354.34 493.933 353.343 485.523 348.574 483.341C346.925 482.586 344.413 482.824 341.525 483.099C338.286 483.407 334.573 483.761 331.072 482.806C324.124 480.913 314.069 475.537 315.069 473.731C319.273 466.139 328.152 466.351 337.419 466.573C347.538 466.815 358.119 467.068 363.577 457.18C367.46 450.144 363.871 442.419 360.546 435.263C358.698 431.288 356.933 427.488 356.575 424.079C355.505 413.868 360.576 412.228 365.621 410.597C368.796 409.57 371.96 408.547 373.578 405.393C374.571 403.456 375.039 402.04 375.405 400.934C376.307 398.207 376.586 397.364 382.579 395.249C386.496 393.867 389.876 393.608 393.164 393.355ZM393.069 396.593C396.864 396.301 400.53 396.018 404.831 393.826C406.985 392.729 409.22 390.297 411.356 387.974C413.629 385.502 415.789 383.153 417.618 382.664C426.282 380.347 427.937 384.477 429.823 389.183C430.838 391.715 431.919 394.413 434.195 396.364C435.08 397.122 435.843 397.26 436.542 397.386C437.394 397.54 438.154 397.676 438.931 398.9C442.953 405.237 443.025 406.55 443.701 407.057C444.508 407.662 446.176 407.118 456.455 412.6C458.427 413.652 459.369 414.777 460.324 415.918C461.241 417.014 462.17 418.124 464.033 419.196C466.319 420.511 468.974 421.207 471.403 421.843C473.728 422.452 475.847 423.007 477.237 424C478.893 425.183 480.045 430.141 480.891 433.783C481.137 434.842 481.357 435.789 481.557 436.5C482.978 441.573 480.652 453.584 479.235 457C478.434 458.93 477.321 459.764 476.367 460.478C474.853 461.613 473.741 462.446 474.926 466.889C475.532 469.161 476.345 471.382 477.129 473.522C480.19 481.879 482.806 489.021 470.898 493.273C469.594 493.739 468.086 495.657 466.354 497.861C464.313 500.458 461.959 503.452 459.253 504.943C458.443 505.39 457.663 505.909 456.896 506.418C453.844 508.448 451.002 510.338 447.265 507C446.21 506.059 446.368 503.92 446.544 501.54C446.842 497.504 447.191 492.772 441.77 492C435.755 491.144 430.468 496.012 425.96 500.162C423.785 502.164 421.792 503.999 419.986 504.943C418.481 505.73 416.769 506.3 415.046 506.874C412.573 507.697 410.079 508.527 408.146 510.017C407.794 510.288 407.456 510.55 407.13 510.803C401.323 515.304 399.381 516.809 389.201 515.598C384.197 515.002 380.242 513.738 376.416 512.516C371.61 510.98 367.008 509.509 360.784 509.509C358.346 509.509 357.773 504.657 357.105 498.999C356.299 492.178 355.355 484.185 350.838 482.111C349.276 481.393 346.897 481.62 344.162 481.881C341.094 482.174 337.578 482.51 334.262 481.603C327.682 479.804 317.872 474.501 319.106 472.978C322.06 469.33 328.581 469.435 335.992 469.553C346.822 469.726 359.554 469.93 365.841 458.5C369.508 451.832 365.812 443.999 362.436 436.845C360.546 432.84 358.756 429.047 358.416 425.792C357.403 416.088 362.205 414.529 366.983 412.979C369.99 412.003 372.987 411.03 374.519 408.033C375.46 406.193 375.903 404.847 376.25 403.796C377.103 401.204 377.367 400.402 383.044 398.393C386.754 397.08 389.955 396.833 393.069 396.593Z" fill="#1E1F21"/>
<path fill-rule="evenodd" clip-rule="evenodd" d="M313.989 184.289C316.079 184.686 318.253 185.098 322.28 184.793C325.511 184.548 328.065 183.671 330.537 182.821C333.685 181.739 336.7 180.703 340.811 181.079C344.024 181.372 346.229 182.225 348.666 183.168C350.066 183.71 351.543 184.281 353.332 184.793C355.134 185.309 356.795 185.638 358.371 185.95C362.082 186.685 365.326 187.328 368.858 190.1C376.122 195.801 383.381 209.808 386.888 218.225C391.297 228.803 393.311 230.456 402.414 237.328C412.219 244.731 422.448 255.902 423.951 261.208C426.052 268.631 422.42 283.004 419.835 293.234C419.308 295.322 418.824 297.237 418.441 298.885C418.166 300.072 417.882 301.256 417.6 302.438C414.421 315.732 411.321 328.694 419.944 341.869C421.454 344.176 424.76 345.465 428.064 346.753C433.395 348.831 438.719 350.906 436.472 357.258C434.969 361.503 426.417 366.822 418.441 369.463C413.729 371.023 408.641 371.021 403.562 371.019C395.66 371.016 387.782 371.013 381.379 376.892C377.806 380.173 374.574 385.254 371.357 390.308C367.81 395.883 364.284 401.425 360.344 404.487C357.607 406.613 344.216 412.96 340.811 414.039C334.074 416.172 328.023 419.82 322.012 423.443C316.092 427.012 310.21 430.558 303.748 432.612C300.257 433.721 295.549 432.252 290.642 430.721C288.51 430.056 286.34 429.379 284.216 428.897C281.459 428.271 278.857 428.653 276.447 429.007C273.982 429.369 271.717 429.702 269.691 428.897C265.474 427.221 265.006 417.476 264.76 412.357C264.733 411.795 264.709 411.288 264.683 410.855C264.543 408.556 267.263 405.736 270.206 402.686C273.408 399.366 276.874 395.773 277.204 392.281C277.392 390.284 277.129 388 276.844 385.526C276.372 381.428 275.841 376.81 277.204 372.116C278.109 369.001 279.115 366.427 280.178 363.709C281.469 360.409 282.842 356.898 284.216 351.951C284.742 350.053 286.63 348.314 288.751 346.36C290.662 344.599 292.764 342.663 294.232 340.277C297.863 334.376 298.292 328.354 298.719 322.362C299.052 317.677 299.384 313.011 301.244 308.437C302.403 305.586 304.697 302.878 307.057 300.091C311.633 294.688 316.46 288.988 313.765 281.373C312.9 278.928 307.549 276.131 302.687 273.59C299.108 271.72 295.795 269.988 294.733 268.637C291.208 264.155 286.216 259.769 281.888 255.967C281.66 255.767 281.434 255.568 281.211 255.371C279.483 253.852 277.441 253.789 275.605 253.733C274.048 253.685 272.639 253.641 271.695 252.718C268.569 249.662 268.286 246.024 267.996 242.308C267.811 239.929 267.623 237.518 266.686 235.206C266.232 234.086 265.6 233.322 264.986 232.58C264.239 231.677 263.52 230.807 263.18 229.369C261.558 222.493 271.309 206.226 275.701 201.774C277.485 199.966 279.196 199.161 280.999 198.313C282.331 197.686 283.715 197.035 285.217 195.937C287.711 194.114 289.649 192.416 291.377 190.9C296.235 186.642 299.448 183.825 308.757 183.732C310.936 183.71 312.44 183.995 313.989 184.289ZM315.164 186.548C317.565 187.174 320.134 187.844 323.903 187.558C327.063 187.318 329.504 186.242 331.877 185.195C334.742 183.931 337.508 182.711 341.318 183.061C344.083 183.314 346.964 184.858 349.798 186.378C351.887 187.498 353.951 188.605 355.926 189.171C357.599 189.652 358.835 189.905 359.865 190.116C362.367 190.629 363.653 190.892 367.037 193.556C373.933 198.984 380.625 214.532 383.955 222.544C387.296 230.584 389.942 232.447 395.27 236.2C396.616 237.149 398.134 238.218 399.877 239.537C409.187 246.584 417.359 258.476 418.786 263.528C421.023 271.451 417.501 286.494 415.274 296.003C415.11 296.705 414.952 297.377 414.805 298.014C414.392 299.795 413.938 301.604 413.479 303.433C410.372 315.813 407.038 329.096 414.805 340.996C417.61 345.294 422.035 347.497 425.693 349.319C429.821 351.375 432.974 352.945 431.723 356.49C430.296 360.531 424.025 363.972 416.453 366.486C411.592 368.099 406.43 368.07 401.222 368.041C394.179 368.001 387.051 367.961 380.472 371.983C376.03 374.699 372.53 380.976 369.135 387.064C366.213 392.303 363.37 397.402 360.071 399.972C357.473 401.996 343.898 408.941 340.665 409.968C334.269 411.999 327.731 415.931 321.236 419.837C314.84 423.683 308.486 427.505 302.352 429.46C299.088 430.5 297.184 429.885 294.159 428.906C292.777 428.459 291.16 427.936 289.072 427.461C286.591 426.896 283.664 426.864 280.862 426.834C277.687 426.799 274.673 426.767 272.652 425.961C269.063 424.531 269.063 418.679 269.062 414.282C269.062 413.235 269.062 412.27 269.014 411.467C268.899 409.574 270.691 408.097 272.974 406.214C276.202 403.551 280.413 400.078 281.608 393.475C281.939 391.65 281.583 389.557 281.161 387.075C280.428 382.764 279.496 377.279 281.608 369.984C282.482 366.966 283.627 364.736 284.84 362.373C286.267 359.594 287.787 356.633 289.072 351.992C289.528 350.345 291.482 348.695 293.654 346.86C296.015 344.866 298.633 342.655 299.864 339.996C302.637 334.003 303.181 327.777 303.707 321.761C304.163 316.545 304.605 311.488 306.473 306.879C307.574 304.165 309.751 301.587 311.992 298.934C316.337 293.79 320.92 288.364 318.361 281.115C317.539 278.787 312.459 276.124 307.843 273.705C304.446 271.925 301.3 270.276 300.292 268.99C296.945 264.723 292.206 260.548 288.097 256.928C287.88 256.738 287.666 256.549 287.453 256.361C285.848 254.946 282.621 253.512 279.648 252.192C277.006 251.019 274.566 249.935 273.647 249.033C270.901 246.341 271.346 244.345 271.846 242.104C272.232 240.373 272.65 238.496 271.657 236.039C271.234 234.994 270.425 233.895 269.603 232.779C268.565 231.371 267.506 229.934 267.179 228.542C265.638 221.996 274.453 206.791 278.623 202.552C280.237 200.912 282.66 200.157 285.073 199.405C287.063 198.785 289.048 198.167 290.565 197.055C293.659 194.787 295.445 192.746 296.94 191.038C299.805 187.765 301.6 185.714 309.473 185.635C311.581 185.614 313.323 186.068 315.164 186.548Z" fill="#1E1F21"/>
<path fill-rule="evenodd" clip-rule="evenodd" d="M19.2516 114.082C19.9492 113.867 20.6493 113.651 21.2683 112.507C22.4147 110.388 22.6032 108.234 22.7828 106.18C23.0889 102.68 23.3696 99.4706 28.3159 97.2193C30.3159 96.3089 31.6302 96.5883 33.1178 96.9046C34.1781 97.13 35.3265 97.3741 36.8739 97.2194C38.6438 97.0424 40.1404 96.2981 41.6049 95.5696C43.4433 94.6552 45.2313 93.766 47.4459 94.0558C49.6791 94.348 50.3693 95.1936 51.0534 96.0316C51.603 96.7048 52.1485 97.3731 53.4866 97.7459C60.4627 99.6892 65.8098 101.647 72.113 106.708C76.0483 109.867 74.9327 111.634 73.9197 113.239C73.4145 114.039 72.9348 114.799 73.1199 115.671C74.4938 122.145 79.5377 127.663 84.7818 133.399C90.6685 139.838 96.8075 146.554 98.2909 155.209C98.7353 157.801 100.486 158.904 102.357 160.082C103.795 160.988 105.304 161.938 106.346 163.644C108.579 167.303 111.634 170.107 114.629 172.856C117.573 175.559 120.46 178.209 122.455 181.568C124.346 184.751 125.723 185.317 127.983 186.246C128.716 186.547 129.542 186.887 130.509 187.366C134.175 189.185 144.252 196.643 145.108 200.019C146.242 204.49 144.102 207.926 141.081 210.035C139.778 210.945 138.982 210.268 138.103 209.522C137.3 208.84 136.428 208.1 135.04 208.454C132.489 209.104 129.549 208.886 126.629 208.669C121.341 208.277 116.119 207.89 113.393 212.671C110.978 216.907 113.822 221.621 116.739 226.455C119.691 231.349 122.719 236.367 120.441 241.139C120.396 241.233 120.299 241.422 120.161 241.69C118.576 244.772 111.665 258.205 118.427 255.373C119.762 254.814 120.637 252.769 121.709 250.266C122.658 248.048 123.762 245.47 125.475 243.248C125.886 242.715 126.273 242.237 126.638 241.787C128.135 239.938 129.249 238.562 130.006 235.867C131.43 230.796 140.263 221.18 145.108 227.432C146.468 229.186 146.473 230.471 146.479 232.158C146.482 232.931 146.485 233.788 146.619 234.813C147.101 238.504 148.63 240.96 150.151 243.403C151.713 245.913 153.266 248.407 153.666 252.21C154.205 257.324 155.168 262.44 156.132 267.556C156.889 271.578 157.646 275.6 158.197 279.623C158.502 281.845 159.111 283.469 159.728 285.115C160.293 286.621 160.865 288.146 161.218 290.167C162.42 297.052 162.224 306.509 160.714 308.091C154.681 314.408 136.456 305.376 131.516 301.238C130.153 300.095 129.505 298.973 128.897 297.92C128.136 296.603 127.437 295.393 125.475 294.384C123.845 293.546 121.848 293.625 119.643 293.712C117.687 293.789 115.567 293.873 113.393 293.33C103.51 290.858 95.7858 297.311 88.5788 303.332C87.2717 304.424 85.9816 305.502 84.6987 306.509C83.2649 307.636 81.7054 307.621 80.1372 307.606C78.6091 307.591 77.0729 307.577 75.6369 308.618C73.5622 310.122 73.5375 311.984 73.5121 313.895C73.4933 315.314 73.4741 316.76 72.6164 318.107C72.3137 318.583 71.9856 319.228 71.6223 319.943C70.0414 323.052 67.7926 327.474 64.0584 324.96C61.146 323 62.9814 318.477 64.7209 314.19C65.9354 311.197 67.1031 308.319 66.5757 306.509C65.791 303.816 63.8773 302.802 61.8116 301.707C60.3382 300.925 58.7875 300.103 57.514 298.602C55.9569 296.766 54.5709 294.972 53.2569 293.271C47.2574 285.507 42.759 279.685 30.3295 280.677C21.1749 281.408 20.9723 296.158 20.8575 304.515C20.8382 305.92 20.8213 307.144 20.7649 308.091C20.5639 311.461 22.711 312.917 25.7988 313.89C27.1875 314.327 28.9539 313.409 30.7728 312.463C33.8557 310.861 37.089 309.18 38.8878 313.89C40.6928 318.616 38.0988 323.27 35.6146 327.728C34.2297 330.213 32.879 332.636 32.3434 334.977C31.2988 339.543 33.1838 343.935 34.5482 347.113C35.8248 350.088 36.6457 352 34.1842 352C30.3295 352 27.8122 348.156 25.2954 343.939C19.8521 334.818 16.4856 328.167 13.7171 318.107C12.185 312.54 10.0449 307.102 7.91024 301.676C2.77615 288.628 -2.32715 275.658 1.13167 261.172C1.7771 258.469 3.62524 256.99 5.44806 255.531C7.36973 253.993 9.26325 252.477 9.68974 249.574C10.6965 242.72 7.78387 223.215 6.16583 221.106C5.74823 220.562 5.26437 220.08 4.7915 219.608C3.6867 218.507 2.64182 217.465 2.64182 215.834C2.64182 208.738 9.5139 203.103 15.5946 198.117C18.1512 196.02 20.5679 194.039 22.2751 192.111C25.0496 188.979 28.6465 186.271 32.2379 183.568C36.9215 180.042 41.5959 176.523 44.4254 172.078C45.4715 170.435 45.2927 168.816 45.1084 167.146C44.9468 165.683 44.781 164.18 45.4322 162.589C46.0402 161.103 47.0458 160.376 48.0053 159.682C49.1196 158.876 50.1717 158.115 50.4664 156.263C51.6487 148.833 52.1495 136.509 44.4254 132.013C43.114 131.249 41.9354 131.175 40.7277 131.1C39.6695 131.033 38.5891 130.965 37.3776 130.431C35.6062 129.65 34.5165 128.705 33.3287 127.674C32.5954 127.038 31.8247 126.369 30.8332 125.687C29.0004 124.425 26.6722 123.304 24.4507 122.235C19.9784 120.081 15.9381 118.136 17.2407 115.671C17.8517 114.514 18.5503 114.299 19.2516 114.082ZM28.2891 121.193C23.2806 119.698 18.6112 117.109 20.7763 116.211C24.295 114.753 24.8123 111.722 25.3105 108.803C25.8759 105.49 26.4166 102.322 31.2943 101.764C32.4944 101.626 33.604 101.565 34.6657 101.506C37.454 101.351 39.9122 101.215 42.814 99.7711C47.9632 97.2092 49.1366 97.9377 50.5278 98.8013C51.1664 99.1978 51.8509 99.6227 52.9868 99.771C55.1376 100.052 56.914 100.97 58.5682 101.824C59.691 102.404 60.7575 102.955 61.8465 103.258C66.4597 104.542 66.9925 105.558 67.9592 107.403C68.3032 108.059 68.7021 108.82 69.3593 109.735C70.8836 111.858 69.811 113.665 68.8505 115.283C68.2329 116.324 67.6617 117.286 67.8568 118.204C69.0941 124.027 74.4647 128.421 80.046 132.988C86.2586 138.071 92.7323 143.367 94.057 151.085C94.7616 155.19 100.067 162.045 103.573 165.164C109.271 170.233 113.333 174.412 116.941 180.478C119.186 184.253 126.425 188.689 129.963 190.442C133.249 192.069 141.216 196.885 141.983 199.907C142.186 200.703 142.375 201.325 142.527 201.825C143.14 203.838 143.151 203.875 140.982 205.387C139.794 206.215 139.567 206.163 138.561 205.932C137.675 205.729 136.185 205.387 132.9 205.387C132.351 205.387 131.756 205.383 131.123 205.379C123.66 205.328 110.921 205.241 107.424 211.365C105.264 215.15 108.585 219.709 111.987 224.378C115.445 229.125 118.987 233.987 116.941 238.268C116.838 238.482 116.612 238.747 116.317 239.093C115.159 240.453 112.934 243.064 112.934 248.73C112.934 250.483 112.681 252.142 112.453 253.635C111.774 258.081 111.319 261.059 118.443 260.686C121.524 260.525 129.119 246.251 129.963 243.25C131.014 239.511 132.22 238.002 135.534 233.852C136.245 232.962 137.053 231.951 137.977 230.77C139.763 228.487 142.759 229.866 143.141 232.788C143.571 236.078 145.062 239.083 146.552 242.085C148.095 245.194 149.637 248.301 149.997 251.719C150.36 255.163 150.512 257.347 150.651 259.332C150.841 262.062 151.005 264.417 151.655 269.155C151.939 271.22 153.294 276.229 154.58 280.985C155.667 285.004 156.706 288.844 157.009 290.578C157.269 292.063 157.569 293.554 157.857 294.98C158.762 299.47 159.539 303.325 158.512 304.399C153.103 310.055 139.4 303.25 134.971 299.546C134.039 298.766 133.301 297.504 132.491 296.12C130.91 293.417 129.056 290.248 124.954 289.296C123.583 288.977 121.351 289.161 118.934 289.36C116.026 289.6 112.85 289.861 110.585 289.296C102.92 287.382 99.7556 290.616 95.669 294.792C94.1747 296.319 92.557 297.972 90.551 299.546C89.2095 300.598 87.7231 301.366 86.2345 302.136C84.9068 302.822 83.5774 303.509 82.3475 304.399C80.754 305.553 78.7502 305.159 76.9103 304.797C75.0086 304.423 73.282 304.084 72.3645 305.523C71.8734 306.294 71.5731 308.683 71.2315 311.4C70.5629 316.719 69.736 323.298 67.0107 321.466C64.8013 319.981 66.1227 315.894 67.4472 311.797C68.7811 307.672 70.1183 303.536 67.8566 302.036C64.2586 299.65 56.5753 292.525 53.8326 289.296C46.0622 280.148 40.9919 278.622 32.9525 278.622C22.4346 278.622 19.6253 286.682 19.2735 292.57C19.2444 293.058 19.1199 293.857 18.962 294.871C18.1432 300.126 16.4258 311.15 22.4346 314.491C26.7668 316.9 29.9086 315.292 32.2565 314.091C33.7934 313.305 34.99 312.693 35.9577 313.495C38.9628 315.986 39.5305 320.723 34.8003 324.454C25.4672 331.817 29.1937 340.07 30.9106 343.872C31.6528 345.516 32.0194 346.328 30.7934 345.877C26.5826 344.327 24.8029 338.439 23.3667 333.688C22.7162 331.536 22.1363 329.618 21.4329 328.441C17.8235 322.401 16.7163 317.686 15.3803 311.997C14.9098 309.993 14.411 307.869 13.7645 305.523C12.3279 300.311 10.5564 296.038 8.91836 292.087C5.22313 283.174 2.20739 275.9 5.24949 263.177C5.80004 260.875 7.47341 259.564 9.20114 258.209C11.2039 256.64 13.2797 255.013 13.7643 251.719C14.6669 245.583 12.2099 222.221 10.7592 220.333C9.50996 218.708 8.75574 215.444 8.75574 213.359C8.75574 207.36 14.6585 203.327 20.1357 199.585C22.8987 197.698 25.5534 195.884 27.2874 193.929C29.8344 191.058 33.1531 188.782 36.4481 186.522C40.5681 183.697 44.6509 180.897 47.1414 176.991C48.1128 175.467 48.2964 172.952 48.476 170.491C48.6219 168.493 48.7651 166.531 49.3251 165.164C49.8047 163.994 50.3934 163.11 50.9559 162.266C51.7754 161.036 52.5395 159.889 52.8311 158.059C53.0607 156.618 53.4569 154.968 53.8793 153.209C55.4069 146.846 57.2754 139.063 52.8311 134.645C52.4011 134.217 51.966 133.777 51.529 133.336C49.1807 130.961 46.7786 128.533 44.8174 127.67C43.59 127.129 42.5808 127.471 41.6074 127.8C40.5435 128.16 39.5225 128.506 38.3063 127.67C36.7138 126.575 35.4254 125.609 34.3087 124.772C31.9528 123.005 30.3606 121.811 28.2891 121.193Z" fill="#1E1F21"/>
</svg>
