<svg width="387" height="318" viewBox="0 0 387 318" fill="none" xmlns="http://www.w3.org/2000/svg">
<path d="M70.1979 173.245L69.8459 173.544L70.0985 173.842L70.4339 173.642L70.1979 173.245ZM64.3565 166.367L64.0977 165.985L63.671 166.274L64.0045 166.666L64.3565 166.367ZM67.4867 159.875L67.0584 160.048L67.0628 160.058L67.4867 159.875ZM44.7602 149.697L44.3309 149.526L44.1608 149.956L44.59 150.126L44.7602 149.697ZM48.6105 139.984L48.7807 139.555L48.3514 139.385L48.1812 139.814L48.6105 139.984ZM76.961 155.063L77.3941 154.902L77.3928 154.899L76.961 155.063ZM75.9103 165.162C74.4621 168.815 72.4707 171.357 69.962 172.849L70.4339 173.642C73.166 172.018 75.269 169.285 76.7688 165.502L75.9103 165.162ZM70.5499 172.947L64.7085 166.068L64.0045 166.666L69.8459 173.544L70.5499 172.947ZM64.6153 166.75C66.1923 165.683 67.2914 164.428 67.8674 162.975L67.0088 162.634C66.5175 163.874 65.5621 164.994 64.0977 165.985L64.6153 166.75ZM67.8674 162.975C68.3238 161.823 68.3542 160.718 67.9106 159.692L67.0628 160.058C67.3931 160.822 67.3911 161.67 67.0088 162.634L67.8674 162.975ZM67.9149 159.702C67.4838 158.634 66.6259 157.868 65.4127 157.387L65.0724 158.246C66.1029 158.655 66.7411 159.261 67.0585 160.048L67.9149 159.702ZM65.4127 157.387L44.9304 149.267L44.59 150.126L65.0724 158.246L65.4127 157.387ZM45.1895 149.867L49.0398 140.155L48.1812 139.814L44.3309 149.526L45.1895 149.867ZM48.4403 140.414L69.0669 148.591L69.4072 147.732L48.7807 139.555L48.4403 140.414ZM69.0669 148.591C72.9956 150.148 75.4467 152.373 76.5292 155.226L77.3928 154.899C76.1901 151.728 73.4919 149.352 69.4072 147.732L69.0669 148.591ZM76.5279 155.223C77.5884 158.087 77.4058 161.389 75.9103 165.162L76.7688 165.502C78.323 161.582 78.5547 158.037 77.3941 154.902L76.5279 155.223Z" fill="#1E1F21"/>
<path d="M98.6076 121.039L99.0681 121.004L99.0681 121.004L98.6076 121.039ZM81.887 142.171L81.9563 142.628L81.9609 142.627L81.887 142.171ZM61.7294 126.22L62.1899 126.185L62.1899 126.184L61.7294 126.22ZM78.4501 105.088L78.5195 105.545L78.524 105.544L78.4501 105.088ZM81.2679 132.117L81.3014 132.578L81.3065 132.578L81.2679 132.117ZM88.6815 122.748L88.2247 122.816L88.2255 122.821L88.6815 122.748ZM79.0286 115.11L79.062 115.57L79.0672 115.57L79.0286 115.11ZM71.615 124.479L71.1583 124.547L71.1591 124.552L71.615 124.479ZM98.1472 121.074C98.508 125.813 97.0685 130.242 93.7948 134.379L94.5191 134.953C97.9208 130.653 99.4484 125.998 99.0681 121.004L98.1472 121.074ZM93.7948 134.379C90.5212 138.517 86.5301 140.95 81.8131 141.715L81.9609 142.627C86.9284 141.821 91.1173 139.252 94.5191 134.953L93.7948 134.379ZM81.8176 141.714C77.1057 142.43 72.754 141.214 68.7368 138.035L68.1637 138.76C72.3663 142.085 76.9724 143.385 81.9563 142.627L81.8176 141.714ZM68.7368 138.035C64.7195 134.856 62.5499 130.912 62.1899 126.185L61.269 126.255C61.6502 131.26 63.9611 135.434 68.1637 138.76L68.7368 138.035ZM62.1899 126.184C61.8233 121.397 63.261 116.943 66.5338 112.807L65.8095 112.234C62.4069 116.534 60.883 121.213 61.269 126.255L62.1899 126.184ZM66.5338 112.807C69.8066 108.671 73.7988 106.262 78.5195 105.545L78.3807 104.632C73.4056 105.388 69.2121 107.934 65.8095 112.234L66.5338 112.807ZM78.524 105.544C83.2288 104.781 87.5758 105.973 91.5918 109.151L92.1649 108.427C87.9611 105.1 83.3559 103.825 78.3762 104.632L78.524 105.544ZM91.5918 109.151C95.6079 112.329 97.7814 116.297 98.1472 121.075L99.0681 121.004C98.6813 115.952 96.3687 111.753 92.1649 108.427L91.5918 109.151ZM81.3065 132.578C83.7052 132.376 85.7084 131.251 87.2997 129.24L86.5754 128.666C85.1285 130.495 83.352 131.479 81.2293 131.657L81.3065 132.578ZM87.2997 129.24C88.891 127.229 89.5164 125.032 89.1374 122.675L88.2255 122.821C88.5595 124.898 88.0223 126.838 86.5754 128.666L87.2997 129.24ZM89.1382 122.68C88.7844 120.31 87.5896 118.327 85.5858 116.742L85.0127 117.466C86.8484 118.918 87.9085 120.698 88.2248 122.816L89.1382 122.68ZM85.5858 116.742C83.582 115.156 81.3773 114.449 78.99 114.649L79.0672 115.57C81.2012 115.391 83.177 116.013 85.0127 117.466L85.5858 116.742ZM78.9951 114.649C76.6143 114.822 74.6202 115.936 73.0289 117.947L73.7532 118.52C75.2 116.691 76.9644 115.723 79.062 115.57L78.9951 114.649ZM73.0289 117.947C71.4376 119.958 70.8028 122.166 71.1583 124.547L72.0717 124.411C71.7571 122.304 72.3063 120.348 73.7532 118.52L73.0289 117.947ZM71.1591 124.552C71.5356 126.894 72.7413 128.861 74.7428 130.445L75.3159 129.721C73.4778 128.266 72.4073 126.497 72.0709 124.405L71.1591 124.552ZM74.7428 130.445C76.7443 132.029 78.936 132.75 81.3014 132.578L81.2344 131.657C79.1212 131.81 77.154 131.175 75.3159 129.721L74.7428 130.445Z" fill="#1E1F21"/>
<path d="M118.644 112.133L118.923 112.501L119.291 112.221L119.011 111.853L118.644 112.133ZM110.332 118.464L109.965 118.744L110.245 119.111L110.612 118.831L110.332 118.464ZM89.4303 91.0189L89.1505 90.6516L88.7832 90.9314L89.063 91.2988L89.4303 91.0189ZM97.7416 84.6884L98.109 84.4085L97.8292 84.0412L97.4618 84.321L97.7416 84.6884ZM118.364 111.766L110.053 118.096L110.612 118.831L118.923 112.501L118.364 111.766ZM110.7 118.184L89.7977 90.7391L89.063 91.2988L109.965 118.744L110.7 118.184ZM89.7101 91.3863L98.0214 85.0557L97.4618 84.321L89.1505 90.6516L89.7101 91.3863ZM97.3742 84.9682L118.276 112.413L119.011 111.853L98.109 84.4085L97.3742 84.9682Z" fill="#1E1F21"/>
<path d="M153.896 95.3622L154.077 95.7869L154.502 95.6056L154.32 95.1809L153.896 95.3622ZM144.668 99.3029L144.431 99.6995L144.633 99.8199L144.849 99.7276L144.668 99.3029ZM126.102 88.2223L126.339 87.8258L125.12 87.0985L125.677 88.4037L126.102 88.2223ZM132.967 104.3L133.148 104.725L133.573 104.543L133.392 104.118L132.967 104.3ZM123.359 108.403L122.934 108.584L123.115 109.009L123.54 108.828L123.359 108.403ZM109.812 76.6761L109.63 76.2514L109.206 76.4328L109.387 76.8575L109.812 76.6761ZM119.705 72.4511L119.94 72.0536L119.739 71.9345L119.524 72.0264L119.705 72.4511ZM137.159 82.7696L136.924 83.1671L138.137 83.8843L137.583 82.5882L137.159 82.7696ZM130.741 67.7386L130.559 67.3139L130.134 67.4952L130.316 67.9199L130.741 67.7386ZM140.349 63.6354L140.773 63.454L140.592 63.0293L140.167 63.2107L140.349 63.6354ZM153.714 94.9375L144.487 98.8782L144.849 99.7276L154.077 95.7869L153.714 94.9375ZM144.905 98.9063L126.339 87.8258L125.865 88.6189L144.431 99.6995L144.905 98.9063ZM125.677 88.4037L132.542 104.481L133.392 104.118L126.527 88.041L125.677 88.4037ZM132.785 103.875L123.177 107.978L123.54 108.828L133.148 104.725L132.785 103.875ZM123.783 108.222L110.236 76.4948L109.387 76.8575L122.934 108.584L123.783 108.222ZM109.993 77.1008L119.887 72.8758L119.524 72.0264L109.63 76.2514L109.993 77.1008ZM119.47 72.8486L136.924 83.1671L137.394 82.372L119.94 72.0536L119.47 72.8486ZM137.583 82.5882L131.165 67.5572L130.316 67.9199L136.734 82.9509L137.583 82.5882ZM130.922 68.1633L140.53 64.0601L140.167 63.2107L130.559 67.3139L130.922 68.1633ZM139.924 63.8168L153.471 95.5436L154.32 95.1809L140.773 63.454L139.924 63.8168Z" fill="#1E1F21"/>
<path d="M204.856 90.9847L205.143 91.3461L205.143 91.346L204.856 90.9847ZM177.981 89.0109L177.643 89.3246L177.646 89.3279L177.981 89.0109ZM179.865 63.3746L180.152 63.7359L180.153 63.7358L179.865 63.3746ZM206.739 65.3484L206.4 65.6622L206.403 65.6655L206.739 65.3484ZM185.953 82.8545L185.591 83.1408L185.594 83.1449L185.953 82.8545ZM197.869 83.7297L197.556 83.39L197.552 83.3936L197.869 83.7297ZM198.771 71.4532L198.409 71.7395L198.412 71.7435L198.771 71.4532ZM186.855 70.578L186.543 70.2383L186.539 70.2419L186.855 70.578ZM204.568 90.6234C200.85 93.582 196.376 94.8775 191.114 94.491L191.047 95.4121C196.514 95.8137 201.224 94.4646 205.143 91.3461L204.568 90.6234ZM191.114 94.491C185.853 94.1046 181.598 92.168 178.317 88.6938L177.646 89.3279C181.101 92.9866 185.579 95.0105 191.047 95.4121L191.114 94.491ZM178.32 88.6971C175.082 85.1998 173.646 80.9158 174.021 75.8067L173.1 75.7391C172.707 81.0839 174.218 85.6253 177.643 89.3246L178.32 88.6971ZM174.021 75.8067C174.396 70.6976 176.442 66.6878 180.152 63.7359L179.577 63.0132C175.65 66.1384 173.493 70.3942 173.1 75.7391L174.021 75.8067ZM180.153 63.7358C183.909 60.7446 188.401 59.4341 193.662 59.8205L193.729 58.8994C188.26 58.4977 183.533 59.8636 179.577 63.0133L180.153 63.7358ZM193.662 59.8205C198.922 60.2068 203.156 62.1583 206.4 65.6622L207.078 65.0347C203.659 61.342 199.198 59.3011 193.729 58.8994L193.662 59.8205ZM206.403 65.6655C209.676 69.1307 211.13 73.3971 210.755 78.5048L211.676 78.5724C212.069 73.2261 210.539 68.6991 207.075 65.0314L206.403 65.6655ZM210.755 78.5048C210.38 83.6124 208.316 87.6388 204.568 90.6235L205.143 91.346C209.107 88.1897 211.283 83.9187 211.676 78.5724L210.755 78.5048ZM185.594 83.1449C187.108 85.0168 189.164 86.0427 191.721 86.2305L191.789 85.3094C189.463 85.1386 187.652 84.2208 186.313 82.5642L185.594 83.1449ZM191.721 86.2305C194.279 86.4184 196.448 85.7027 198.186 84.0658L197.552 83.3936C196.021 84.8357 194.114 85.4802 191.789 85.3094L191.721 86.2305ZM198.182 84.0694C199.944 82.4463 200.914 80.3442 201.102 77.7958L200.181 77.7281C200.009 80.0628 199.131 81.9392 197.556 83.39L198.182 84.0694ZM201.102 77.7958C201.289 75.2473 200.636 73.026 199.13 71.1629L198.412 71.7435C199.758 73.4089 200.352 75.3934 200.181 77.7281L201.102 77.7958ZM199.133 71.1669C197.653 69.2938 195.612 68.2688 193.055 68.081L192.987 69.0021C195.313 69.1729 197.105 70.0891 198.409 71.7394L199.133 71.1669ZM193.055 68.081C190.497 67.8931 188.313 68.6075 186.543 70.2383L187.168 70.9177C188.735 69.4745 190.662 68.8313 192.987 69.0021L193.055 68.081ZM186.539 70.2419C184.812 71.868 183.861 73.9703 183.674 76.5157L184.595 76.5834C184.767 74.2458 185.63 72.367 187.172 70.9141L186.539 70.2419ZM183.674 76.5157C183.487 79.0612 184.121 81.2799 185.591 83.1408L186.316 82.5683C185.002 80.9057 184.424 78.921 184.595 76.5834L183.674 76.5157Z" fill="#1E1F21"/>
<path d="M242.059 107.53L242.211 107.966L242.213 107.965L242.059 107.53ZM218.773 97.1404L218.346 97.3162L218.348 97.3214L218.773 97.1404ZM227.517 67.004L227.706 66.5822L227.284 66.3941L227.096 66.8158L227.517 67.004ZM237.2 71.3241L237.622 71.5122L237.81 71.0905L237.388 70.9024L237.2 71.3241ZM228.828 94.151L228.395 94.3095L228.397 94.3161L228.4 94.3227L228.828 94.151ZM237.519 98.0285L237.354 97.5973L237.519 98.0285ZM248.961 76.5715L249.149 76.1497L248.728 75.9616L248.54 76.3833L248.961 76.5715ZM258.644 80.8916L259.066 81.0798L259.254 80.658L258.832 80.4699L258.644 80.8916ZM241.907 107.094C238.349 108.331 234.055 107.871 228.984 105.608L228.608 106.452C233.801 108.769 238.35 109.309 242.211 107.966L241.907 107.094ZM228.984 105.608C223.913 103.346 220.685 100.451 219.198 96.9594L218.348 97.3214C219.959 101.103 223.413 104.134 228.608 106.452L228.984 105.608ZM219.2 96.9646C217.751 93.4431 217.89 89.7175 219.657 85.7549L218.814 85.3786C216.957 89.5401 216.788 93.5303 218.346 97.3161L219.2 96.9646ZM219.657 85.7549L227.939 67.1921L227.096 66.8158L218.814 85.3786L219.657 85.7549ZM227.329 67.4257L237.012 71.7458L237.388 70.9024L227.706 66.5822L227.329 67.4257ZM236.779 71.1359L228.644 89.368L229.488 89.7444L237.622 71.5122L236.779 71.1359ZM228.644 89.368C227.898 91.0416 227.806 92.6976 228.395 94.3095L229.262 93.9924C228.763 92.6269 228.83 91.2198 229.488 89.7444L228.644 89.368ZM228.4 94.3227C229.046 95.9363 230.394 97.1676 232.359 98.044L232.735 97.2006C230.921 96.391 229.79 95.3082 229.257 93.9792L228.4 94.3227ZM232.359 98.044C234.293 98.907 236.081 99.0738 237.684 98.4598L237.354 97.5973C236.043 98.0994 234.516 97.9953 232.735 97.2006L232.359 98.044ZM237.684 98.4598C239.31 97.8371 240.5 96.6692 241.249 94.9917L240.405 94.6154C239.749 96.0869 238.734 97.0689 237.354 97.5973L237.684 98.4598ZM241.249 94.9917L249.383 76.7596L248.54 76.3833L240.405 94.6154L241.249 94.9917ZM248.773 76.9932L258.456 81.3133L258.832 80.4699L249.149 76.1497L248.773 76.9932ZM258.222 80.7034L249.962 99.219L250.805 99.5953L259.066 81.0798L258.222 80.7034ZM249.962 99.219C248.179 103.214 245.492 105.821 241.904 107.095L242.213 107.965C246.072 106.595 248.935 103.787 250.805 99.5953L249.962 99.219Z" fill="#1E1F21"/>
<path d="M271.004 136.872L270.69 137.211L271.245 137.724L271.449 136.997L271.004 136.872ZM262.279 128.786L261.843 128.634L261.744 128.919L261.965 129.124L262.279 128.786ZM266.172 117.585L266.608 117.736L266.708 117.451L266.486 117.246L266.172 117.585ZM263.403 115.018L263.717 114.679L263.378 114.365L263.064 114.704L263.403 115.018ZM256.02 122.984L255.706 123.323L256.045 123.637L256.359 123.298L256.02 122.984ZM248.358 115.883L248.019 115.569L247.705 115.907L248.044 116.221L248.358 115.883ZM271.807 90.5796L272.121 90.2409L271.782 89.927L271.468 90.2657L271.807 90.5796ZM289.667 111.787L289.206 111.794L289.206 111.801L289.667 111.787ZM280.499 123.811L280.408 123.358L280.402 123.36L280.499 123.811ZM274.711 123.665L274.844 123.223L274.394 123.087L274.266 123.54L274.711 123.665ZM276.496 113.825L276.429 114.282L276.437 114.283L276.445 114.284L276.496 113.825ZM279.239 110.866L278.785 110.953L278.787 110.961L278.788 110.968L279.239 110.866ZM273.282 104.358L273.596 104.019L273.257 103.706L272.943 104.044L273.282 104.358ZM269.591 108.341L269.252 108.028L268.938 108.366L269.277 108.68L269.591 108.341ZM271.318 136.533L262.593 128.447L261.965 129.124L270.69 137.211L271.318 136.533ZM262.716 128.937L266.608 117.736L265.736 117.433L261.843 128.634L262.716 128.937ZM266.486 117.246L263.717 114.679L263.089 115.357L265.858 117.923L266.486 117.246ZM263.064 114.704L255.682 122.671L256.359 123.298L263.742 115.332L263.064 114.704ZM256.334 122.646L248.672 115.544L248.044 116.221L255.706 123.323L256.334 122.646ZM248.696 116.196L272.146 90.8935L271.468 90.2657L248.019 115.569L248.696 116.196ZM271.493 90.9183L284.998 103.435L285.625 102.757L272.121 90.2409L271.493 90.9183ZM284.998 103.435C287.786 106.019 289.162 108.804 289.206 111.794L290.129 111.781C290.081 108.48 288.552 105.47 285.625 102.757L284.998 103.435ZM289.206 111.801C289.297 114.815 288.247 117.51 286.026 119.907L286.703 120.535C289.076 117.975 290.228 115.048 290.129 111.774L289.206 111.801ZM286.026 119.907C284.246 121.828 282.372 122.961 280.408 123.358L280.591 124.264C282.79 123.819 284.827 122.56 286.703 120.535L286.026 119.907ZM280.402 123.36C278.412 123.789 276.562 123.739 274.844 123.223L274.578 124.107C276.463 124.674 278.472 124.721 280.597 124.263L280.402 123.36ZM274.266 123.54L270.56 136.747L271.449 136.997L275.156 123.79L274.266 123.54ZM273.943 113.005C274.704 113.71 275.533 114.149 276.429 114.282L276.564 113.368C275.889 113.268 275.225 112.934 274.57 112.327L273.943 113.005ZM276.445 114.284C277.415 114.394 278.265 114.042 278.962 113.29L278.285 112.662C277.763 113.224 277.195 113.439 276.548 113.366L276.445 114.284ZM278.962 113.29C279.641 112.557 279.902 111.701 279.689 110.764L278.788 110.968C278.927 111.579 278.778 112.13 278.285 112.662L278.962 113.29ZM279.692 110.78C279.518 109.866 279.028 109.054 278.262 108.344L277.634 109.021C278.284 109.623 278.654 110.267 278.785 110.953L279.692 110.78ZM278.262 108.344L273.596 104.019L272.968 104.697L277.634 109.021L278.262 108.344ZM272.943 104.044L269.252 108.028L269.929 108.655L273.621 104.672L272.943 104.044ZM269.277 108.68L273.943 113.005L274.57 112.327L269.905 108.003L269.277 108.68Z" fill="#1E1F21"/>
<path d="M286.469 169.645L286.043 169.825L286.223 170.251L286.649 170.071L286.469 169.645ZM282.401 160.022L282.221 159.597L281.796 159.777L281.976 160.202L282.401 160.022ZM305.792 150.134L305.972 150.559L306.397 150.379L306.217 149.954L305.792 150.134ZM302.187 141.606L302.008 141.181L301.582 141.361L301.762 141.786L302.187 141.606ZM310.572 138.062L310.997 137.882L310.818 137.457L310.392 137.636L310.572 138.062ZM321.828 164.693L322.008 165.118L322.433 164.938L322.254 164.513L321.828 164.693ZM313.444 168.237L313.019 168.417L313.198 168.842L313.624 168.662L313.444 168.237ZM309.86 159.757L310.285 159.577L310.105 159.152L309.68 159.332L309.86 159.757ZM286.894 169.466L282.826 159.842L281.976 160.202L286.043 169.825L286.894 169.466ZM282.581 160.448L305.972 150.559L305.612 149.708L282.221 159.597L282.581 160.448ZM306.217 149.954L302.613 141.426L301.762 141.786L305.367 150.314L306.217 149.954ZM302.367 142.032L310.752 138.487L310.392 137.636L302.008 141.181L302.367 142.032ZM310.147 138.242L321.403 164.872L322.254 164.513L310.997 137.882L310.147 138.242ZM321.649 164.267L313.264 167.812L313.624 168.662L322.008 165.118L321.649 164.267ZM313.869 168.057L310.285 159.577L309.434 159.937L313.019 168.417L313.869 168.057ZM309.68 159.332L286.289 169.22L286.649 170.071L310.039 160.183L309.68 159.332Z" fill="#1E1F21"/>
<path d="M293.14 207.893L292.682 207.951L292.74 208.409L293.198 208.351L293.14 207.893ZM289.822 181.933L289.764 181.475L289.306 181.534L289.364 181.992L289.822 181.933ZM324.042 177.558L324.5 177.5L324.441 177.042L323.983 177.1L324.042 177.558ZM327.359 203.518L327.418 203.976L327.876 203.918L327.817 203.46L327.359 203.518ZM318.33 204.672L317.872 204.731L317.93 205.189L318.388 205.13L318.33 204.672ZM316.337 189.076L316.795 189.018L316.736 188.559L316.278 188.618L316.337 189.076ZM312.951 189.509L312.892 189.051L312.434 189.109L312.493 189.568L312.951 189.509ZM314.898 204.746L314.957 205.204L315.415 205.146L315.356 204.688L314.898 204.746ZM305.869 205.901L305.411 205.959L305.469 206.417L305.927 206.359L305.869 205.901ZM303.921 190.663L304.379 190.605L304.321 190.147L303.863 190.205L303.921 190.663ZM300.176 191.142L300.117 190.684L299.659 190.743L299.718 191.201L300.176 191.142ZM302.169 206.738L302.228 207.197L302.686 207.138L302.627 206.68L302.169 206.738ZM293.598 207.834L290.28 181.875L289.364 181.992L292.682 207.951L293.598 207.834ZM289.881 182.391L324.1 178.016L323.983 177.1L289.764 181.475L289.881 182.391ZM323.584 177.617L326.901 203.577L327.817 203.46L324.5 177.5L323.584 177.617ZM327.301 203.06L318.271 204.214L318.388 205.13L327.418 203.976L327.301 203.06ZM318.788 204.614L316.795 189.018L315.879 189.135L317.872 204.731L318.788 204.614ZM316.278 188.618L312.892 189.051L313.009 189.967L316.395 189.534L316.278 188.618ZM312.493 189.568L314.44 204.805L315.356 204.688L313.409 189.45L312.493 189.568ZM314.839 204.288L305.81 205.442L305.927 206.359L314.957 205.204L314.839 204.288ZM306.327 205.842L304.379 190.605L303.463 190.722L305.411 205.959L306.327 205.842ZM303.863 190.205L300.117 190.684L300.235 191.6L303.98 191.121L303.863 190.205ZM299.718 191.201L301.711 206.797L302.627 206.68L300.634 191.084L299.718 191.201ZM302.111 206.28L293.081 207.435L293.198 208.351L302.228 207.197L302.111 206.28Z" fill="#1E1F21"/>
<path d="M287.288 246.893L286.833 246.814L286.719 247.466L287.371 247.348L287.288 246.893ZM289.328 235.226L289.271 234.768L288.932 234.811L288.873 235.147L289.328 235.226ZM293.516 234.698L293.574 235.156L293.912 235.114L293.971 234.778L293.516 234.698ZM295.654 222.471L296.109 222.55L296.168 222.214L295.864 222.059L295.654 222.471ZM291.894 220.553L291.439 220.474L291.38 220.81L291.684 220.965L291.894 220.553ZM293.934 208.886L294.166 208.487L293.593 208.154L293.479 208.807L293.934 208.886ZM325.725 227.361L326.18 227.44L326.235 227.123L325.957 226.962L325.725 227.361ZM323.462 240.302L323.545 240.756L323.862 240.698L323.917 240.381L323.462 240.302ZM302.964 233.515L302.509 233.435L302.402 234.051L303.021 233.973L302.964 233.515ZM314.506 232.068L314.563 232.526L316.056 232.339L314.715 231.656L314.506 232.068ZM304.14 226.79L304.349 226.378L303.793 226.095L303.685 226.71L304.14 226.79ZM287.743 246.973L289.783 235.306L288.873 235.147L286.833 246.814L287.743 246.973ZM289.386 235.684L293.574 235.156L293.458 234.24L289.271 234.768L289.386 235.684ZM293.971 234.778L296.109 222.55L295.199 222.391L293.061 234.619L293.971 234.778ZM295.864 222.059L292.104 220.142L291.684 220.965L295.444 222.882L295.864 222.059ZM292.349 220.633L294.389 208.966L293.479 208.807L291.439 220.474L292.349 220.633ZM293.702 209.285L325.493 227.76L325.957 226.962L294.166 208.487L293.702 209.285ZM325.27 227.281L323.007 240.222L323.917 240.381L326.18 227.44L325.27 227.281ZM323.379 239.847L287.205 246.439L287.371 247.348L323.545 240.756L323.379 239.847ZM303.021 233.973L314.563 232.526L314.448 231.609L302.907 233.057L303.021 233.973ZM314.715 231.656L304.349 226.378L303.93 227.201L314.296 232.479L314.715 231.656ZM303.685 226.71L302.509 233.435L303.419 233.594L304.595 226.869L303.685 226.71Z" fill="#1E1F21"/>
<path d="M265.168 283.039L264.77 282.804L264.535 283.202L264.933 283.437L265.168 283.039ZM270.485 274.046L270.72 273.649L270.323 273.414L270.088 273.811L270.485 274.046ZM288.338 284.603L288.103 285.001L288.696 284.312L288.338 284.603ZM274.408 267.413L274.01 267.178L273.847 267.454L274.049 267.703L274.408 267.413ZM276.777 263.406L276.859 262.951L276.543 262.895L276.38 263.171L276.777 263.406ZM298.552 267.329L298.47 267.784L298.787 266.932L298.552 267.329ZM280.7 256.772L280.302 256.537L280.067 256.935L280.465 257.17L280.7 256.772ZM286.017 247.779L286.252 247.382L285.855 247.147L285.62 247.544L286.017 247.779ZM315.712 265.339L316.109 265.574L316.344 265.177L315.947 264.942L315.712 265.339ZM308.367 277.76L308.283 278.214L308.6 278.273L308.765 277.995L308.367 277.76ZM291.041 274.545L291.125 274.091L289.883 273.86L290.684 274.837L291.041 274.545ZM302.207 288.178L302.604 288.413L302.769 288.135L302.564 287.885L302.207 288.178ZM294.862 300.599L294.627 300.997L295.025 301.232L295.26 300.834L294.862 300.599ZM265.565 283.274L270.883 274.281L270.088 273.811L264.77 282.804L265.565 283.274ZM270.25 274.444L288.103 285.001L288.573 284.206L270.72 273.649L270.25 274.444ZM288.696 284.312L274.767 267.122L274.049 267.703L287.979 284.894L288.696 284.312ZM274.805 267.648L277.175 263.641L276.38 263.171L274.01 267.178L274.805 267.648ZM276.695 263.86L298.47 267.784L298.634 266.875L276.859 262.951L276.695 263.86ZM298.787 266.932L280.935 256.375L280.465 257.17L298.317 267.727L298.787 266.932ZM281.097 257.007L286.415 248.014L285.62 247.544L280.302 256.537L281.097 257.007ZM285.782 248.177L315.477 265.737L315.947 264.942L286.252 247.382L285.782 248.177ZM315.314 265.104L307.97 277.525L308.765 277.995L316.109 265.574L315.314 265.104ZM308.451 277.306L291.125 274.091L290.957 274.999L308.283 278.214L308.451 277.306ZM290.684 274.837L301.85 288.471L302.564 287.885L291.398 274.252L290.684 274.837ZM301.809 287.943L294.465 300.364L295.26 300.834L302.604 288.413L301.809 287.943ZM295.097 300.202L265.403 282.642L264.933 283.437L294.627 300.997L295.097 300.202Z" fill="#1E1F21"/>
</svg>
