<svg width="867" height="656" viewBox="0 0 867 656" fill="none" xmlns="http://www.w3.org/2000/svg">
<path fill-rule="evenodd" clip-rule="evenodd" d="M134.592 440.48C130.922 437.65 124.547 435.176 116.541 438.738C107.466 442.776 102.605 452.177 107.6 463.396L119 489L167.423 467.455L160.955 452.927L145.419 459.84L143.081 454.59L155.672 441.06L148.307 424.519L135.048 440.844C134.901 440.722 134.749 440.601 134.592 440.48ZM148.105 426.019L135.155 441.963L134.537 441.451C131.124 438.621 124.867 435.896 116.861 439.458C112.485 441.404 109.167 444.623 107.53 448.664C105.896 452.697 105.903 457.63 108.326 463.073L119.406 487.958L166.377 467.059L160.549 453.97L145.013 460.882L142.145 454.439L154.735 440.91L148.105 426.019ZM134.269 465.663L124.323 470.088L120.064 460.522C118.862 457.823 119.422 454.259 122.567 452.86C125.777 451.431 128.804 453.389 130.01 456.097L134.269 465.663ZM129.284 456.42C128.195 453.975 125.573 452.384 122.887 453.579C120.274 454.742 119.701 457.754 120.79 460.199L124.728 469.045L133.222 465.266L129.284 456.42Z" fill="#1E1F21"/>
<path fill-rule="evenodd" clip-rule="evenodd" d="M135.174 409.085L126.832 409.238L126.422 385.763L114.664 385.978L115.074 409.453L107.288 409.595L106.868 385.567L95.1102 385.782L95.7807 424.195L147.183 423.255L146.512 384.842L134.754 385.057L135.174 409.085ZM133.946 384.281L147.293 384.037L147.991 424.031L95 425L94.3019 385.006L107.649 384.762L108.068 408.79L114.265 408.677L113.856 385.202L127.203 384.958L127.612 408.433L134.365 408.309L133.946 384.281Z" fill="#1E1F21"/>
<path fill-rule="evenodd" clip-rule="evenodd" d="M139.604 363.545L102.697 350.894L98.0093 364.51L146.642 381.18L157.848 348.638L146.121 344.618L139.604 363.545ZM145.627 343.612L158.857 348.147L147.136 382.186L97 365L102.203 349.888L139.11 362.539L145.627 343.612Z" fill="#1E1F21"/>
<path fill-rule="evenodd" clip-rule="evenodd" d="M169.634 336.234L160.457 349.34L117 319L126.177 305.894L169.634 336.234ZM126.374 306.997L118.106 318.806L160.259 348.237L168.528 336.428L126.374 306.997Z" fill="#1E1F21"/>
<path fill-rule="evenodd" clip-rule="evenodd" d="M181.342 317.904L198.45 305.013L204.209 309.23L216.667 299.842L170.62 270.168L155.457 281.594L171.36 333.983L183.817 324.596L181.342 317.904ZM184.765 324.877L170.932 335.3L154.538 281.291L170.581 269.202L218.052 299.793L204.219 310.217L198.46 306.001L182.29 318.185L184.765 324.877ZM169.526 284.474L188.479 297.801L177.142 306.344L169.526 284.474ZM171.081 286.535L177.532 305.056L187.132 297.821L171.081 286.535Z" fill="#1E1F21"/>
<path fill-rule="evenodd" clip-rule="evenodd" d="M252.839 264.234C256.765 261.749 258.946 257.01 257.722 251.241C256.435 245.179 250.249 239.02 239.512 241.302L208 248L219.001 299.846L251.602 292.916C262.029 290.7 265.479 282.818 263.945 275.589C262.663 269.549 258.158 265.521 253.034 265.048C252.487 264.997 251.933 264.987 251.375 265.019C251.886 264.791 252.375 264.528 252.839 264.234ZM219.614 298.903L251.437 292.139C256.472 291.069 259.741 288.653 261.585 285.711C263.434 282.758 263.897 279.196 263.167 275.754C261.819 269.4 256.76 265.503 251.421 265.813L251.05 264.294C255.514 262.294 258.24 257.515 256.944 251.407C256.341 248.567 254.587 245.696 251.722 243.805C248.871 241.924 244.862 240.977 239.677 242.079L208.943 248.612L219.614 298.903ZM227.194 264.879L225.479 256.795L238.395 254.05C240.459 253.611 242.656 254.97 243.126 257.187C243.606 259.445 242.21 261.687 240.11 262.134L227.194 264.879ZM231.4 284.7L229.569 276.072L242.952 273.227C245.671 272.649 247.831 274.376 248.311 276.638C248.557 277.799 248.365 278.965 247.743 279.922C247.119 280.882 246.097 281.576 244.783 281.855L231.4 284.7ZM227.807 263.936L239.945 261.356C241.579 261.009 242.744 259.218 242.348 257.352C241.969 255.565 240.194 254.48 238.56 254.827L226.422 257.407L227.807 263.936ZM232.013 283.757L244.618 281.078C246.874 280.598 247.945 278.746 247.533 276.803C247.137 274.937 245.374 273.525 243.117 274.005L230.512 276.684L232.013 283.757Z" fill="#1E1F21"/>
<path fill-rule="evenodd" clip-rule="evenodd" d="M282.314 294.376L266.402 292.704L272 240L287.912 241.673L282.314 294.376ZM287.041 242.38L272.704 240.873L267.274 291.996L281.611 293.503L287.041 242.38Z" fill="#1E1F21"/>
<path fill-rule="evenodd" clip-rule="evenodd" d="M302.863 287.589L316.896 251.186L303.453 246.025L284.961 293.995L317.093 306.329L321.552 294.763L302.863 287.589ZM322.576 294.305L317.546 307.354L283.937 294.453L303 245L317.921 250.728L303.888 287.132L322.576 294.305Z" fill="#1E1F21"/>
<path fill-rule="evenodd" clip-rule="evenodd" d="M329.826 317.914L317.048 308.285L349 266L361.778 275.629L329.826 317.914ZM360.667 275.786L349.154 267.111L318.159 308.128L329.672 316.804L360.667 275.786Z" fill="#1E1F21"/>
<path fill-rule="evenodd" clip-rule="evenodd" d="M379.033 315.251L387.465 326.441L397.371 318.989L371.839 285.106L361.933 292.558L370.412 303.81L339.233 327.264L347.855 338.705L379.033 315.251ZM347.693 339.811L338.125 327.113L369.303 303.659L360.824 292.407L372 284L398.48 319.14L387.304 327.547L378.872 316.358L347.693 339.811Z" fill="#1E1F21"/>
<path fill-rule="evenodd" clip-rule="evenodd" d="M410.315 347.306L406 330L379.76 356.794L359.329 361.893L363.169 377.293L383.599 372.194L419.306 383.366L414.991 366.06L395.325 361.089L410.315 347.306ZM414.333 366.707L393.719 361.495L409.432 347.048L405.571 331.564L380.17 357.502L360.29 362.463L363.75 376.339L383.628 371.378L418.194 382.193L414.333 366.707Z" fill="#1E1F21"/>
<path fill-rule="evenodd" clip-rule="evenodd" d="M415.186 447.606L404.605 429.997L388.525 439.645L381.09 427.271L425.176 400.823L432.611 413.196L415.235 423.62L425.815 441.229L443.191 430.805L450.626 443.179L406.54 469.627L399.105 457.253L415.186 447.606ZM406.267 470.716L451.716 443.45L443.464 429.716L426.088 440.14L416.325 423.892L433.7 413.468L425.449 399.734L380 427L388.252 440.733L404.333 431.086L414.096 447.335L398.015 456.982L406.267 470.716Z" fill="#1E1F21"/>
<path fill-rule="evenodd" clip-rule="evenodd" d="M433.88 463.858C442.061 450.29 458.141 447.283 471.844 455.517C485.548 463.751 490.414 479.344 482.234 492.912C474.053 506.48 457.973 509.488 444.269 501.253C430.566 493.019 425.7 477.427 433.88 463.858ZM469.635 485.342C473.659 478.667 472.373 470.527 465.342 466.303C458.311 462.078 450.503 464.754 446.479 471.429C442.455 478.103 443.741 486.243 450.772 490.468C457.803 494.693 465.61 492.017 469.635 485.342ZM472.256 454.835C458.227 446.405 441.636 449.455 433.199 463.449C424.762 477.443 429.828 493.506 443.858 501.936C457.887 510.366 474.478 507.315 482.915 493.321C491.352 479.328 486.285 463.264 472.256 454.835ZM464.93 466.985C471.536 470.955 472.781 478.584 468.954 484.933C465.126 491.281 457.79 493.755 451.184 489.785C444.578 485.816 443.333 478.186 447.16 471.838C450.988 465.49 458.324 463.016 464.93 466.985Z" fill="#1E1F21"/>
<path fill-rule="evenodd" clip-rule="evenodd" d="M506.521 471.288L490 471L489.025 523.991L505.069 524.271L505.593 495.829L524.608 524.612L540.017 524.881L540.992 471.89L524.948 471.61L524.457 498.304L506.521 471.288ZM525.728 472.418L525.204 500.867L506.089 472.076L490.78 471.808L489.834 523.21L504.29 523.463L504.845 493.256L525.041 523.825L539.238 524.073L540.183 472.671L525.728 472.418Z" fill="#1E1F21"/>
<path fill-rule="evenodd" clip-rule="evenodd" d="M562.425 480.805L565.279 488.644L587.341 480.614L591.365 491.665L569.303 499.695L571.967 507.012L594.549 498.793L598.573 509.843L562.471 522.983L544.881 474.675L580.983 461.535L585.007 472.585L562.425 480.805ZM586.022 473.062L581.454 460.518L543.867 474.199L562 524L599.588 510.319L595.02 497.776L572.438 505.995L570.317 500.171L592.38 492.141L587.812 479.597L565.75 487.627L563.439 481.281L586.022 473.062Z" fill="#1E1F21"/>
<path fill-rule="evenodd" clip-rule="evenodd" d="M610.435 494.9C617.568 495.294 625.228 493.229 633.611 486.678C639.065 482.417 642.342 477.738 643.413 473.075C644.477 468.442 643.388 463.722 639.905 459.273C638.103 456.971 636.084 455.622 633.964 454.929C631.835 454.233 629.557 454.183 627.227 454.556C622.542 455.308 617.798 457.743 613.91 459.814C611.432 461.146 609.569 462.054 608.143 462.397C607.418 462.572 606.736 462.619 606.107 462.456C605.457 462.287 604.94 461.913 604.527 461.385C603.991 460.7 603.624 459.761 603.936 458.613C604.232 457.523 605.107 456.373 606.71 455.121C609.976 452.569 615.502 450.353 621.16 450.124L620.85 437.465C613.567 437.449 606.42 440.153 600.01 445.161C594.459 449.498 591.564 454.313 590.696 458.84C589.83 463.362 590.973 467.659 593.611 471.028C595.578 473.541 597.722 475.003 599.932 475.751C602.15 476.502 604.487 476.553 606.857 476.159C611.402 475.402 615.925 473.038 619.742 471.044C619.935 470.943 620.127 470.842 620.317 470.744C622.659 469.522 624.515 468.726 625.982 468.468C626.727 468.337 627.421 468.335 628.052 468.523C628.698 468.715 629.225 469.09 629.641 469.622C630.554 470.788 630.357 472.204 629.761 473.406C629.162 474.617 628.084 475.801 626.85 476.766C621.406 481.019 615.093 482.394 609.654 482.007L610.435 494.9ZM609.688 495.645L608.81 481.136C609.073 481.164 609.338 481.189 609.606 481.209C614.894 481.606 621.052 480.283 626.358 476.138C628.711 474.299 630.301 471.74 629.022 470.106C627.742 468.471 625.368 469.009 620.69 471.449C620.491 471.552 620.29 471.657 620.086 471.764C612.3 475.834 600.999 481.741 592.991 471.512C587.431 464.41 588.184 453.387 599.518 444.532C606.269 439.258 613.864 436.464 621.622 436.684L621.97 450.897C621.937 450.898 621.904 450.898 621.871 450.899C616.147 450.964 610.466 453.2 607.202 455.75C604.106 458.169 604.31 459.833 605.147 460.901C606.426 462.535 608.541 461.795 613.529 459.113C621.276 454.985 632.946 449.109 640.524 458.789C647.758 468.029 645.19 478.646 634.103 487.307C625.309 494.178 617.235 496.232 609.688 495.645Z" fill="#1E1F21"/>
<path fill-rule="evenodd" clip-rule="evenodd" d="M641.666 409.518L647.808 396.925L636.658 391.508L618.06 429.64L629.209 435.057L635.386 422.393L670.478 439.443L676.758 426.567L641.666 409.518ZM677.818 426.207L670.848 440.498L635.755 423.448L629.579 436.111L617 430L636.288 390.453L648.867 396.565L642.725 409.157L677.818 426.207Z" fill="#1E1F21"/>
<path fill-rule="evenodd" clip-rule="evenodd" d="M639.79 370.384L637 388L671.629 373.557L692.43 376.826L694.913 361.15L674.112 357.881L645.604 333.677L642.814 351.293L658.976 363.536L639.79 370.384ZM643.672 350.955L660.613 363.788L640.502 370.966L638.006 386.727L671.527 372.746L691.768 375.927L694.005 361.803L673.766 358.622L646.169 335.191L643.672 350.955Z" fill="#1E1F21"/>
<path fill-rule="evenodd" clip-rule="evenodd" d="M696.163 315.722C699.453 309.446 700.764 301.646 698.37 291.28C696.813 284.536 693.986 279.581 690.266 276.625C686.569 273.688 681.909 272.658 676.503 273.907C673.707 274.553 671.671 275.802 670.18 277.421C668.681 279.048 667.698 281.084 667.072 283.348C665.813 287.9 666.033 293.224 666.281 297.619C666.449 300.426 666.492 302.496 666.211 303.93C666.068 304.66 665.83 305.296 665.425 305.794C665.007 306.31 664.46 306.617 663.819 306.765C662.987 306.957 661.997 306.888 661.101 306.117C660.251 305.385 659.585 304.104 659.127 302.122C658.195 298.083 658.492 292.146 660.618 286.938L649.192 281.819C646.178 288.391 645.648 296 647.478 303.926C649.063 310.791 652.169 315.459 655.852 318.173C659.531 320.884 663.836 321.684 667.93 320.738C670.982 320.033 673.17 318.719 674.748 317.042C676.332 315.359 677.34 313.27 677.964 310.96C679.16 306.533 678.913 301.439 678.705 297.14C678.694 296.923 678.684 296.707 678.674 296.493C678.548 293.857 678.602 291.84 678.976 290.405C679.166 289.677 679.45 289.049 679.877 288.559C680.315 288.057 680.867 287.741 681.512 287.592C682.93 287.265 684.112 288.047 684.94 289.097C685.773 290.155 686.387 291.634 686.739 293.16C688.293 299.891 686.921 306.18 684.335 310.928L696.163 315.722ZM696.52 316.714L683.21 311.319C683.344 311.094 683.475 310.864 683.603 310.631C686.135 306.024 687.49 299.897 685.976 293.337C685.304 290.427 683.674 287.899 681.689 288.358C679.704 288.817 679.206 291.19 679.456 296.456C679.467 296.68 679.478 296.907 679.489 297.137C679.915 305.906 680.534 318.633 668.106 321.504C659.477 323.498 649.95 318.117 646.715 304.102C644.787 295.755 645.422 287.703 648.813 280.789L661.642 286.536C661.628 286.566 661.616 286.596 661.603 286.626C659.304 291.824 658.959 297.91 659.891 301.945C660.775 305.774 662.344 306.299 663.642 305.999C665.627 305.54 665.837 303.314 665.498 297.665C665.004 288.906 664.566 275.858 676.326 273.141C687.551 270.548 695.969 277.395 699.134 291.103C701.645 301.978 700.152 310.147 696.52 316.714Z" fill="#1E1F21"/>
<path fill-rule="evenodd" clip-rule="evenodd" d="M689.338 265.253C693.936 262.182 697.532 256.647 699.364 248.027C701.197 239.407 700.157 232.914 697.192 228.265C694.227 223.616 689.252 220.678 682.94 219.343L653.217 213.057L650.157 227.455L679.413 233.642C682.026 234.195 684.328 235.386 685.787 237.372C687.259 239.376 687.785 242.068 687.071 245.427C686.349 248.822 684.771 251.09 682.608 252.337C680.464 253.573 677.874 253.729 675.26 253.176L646.005 246.989L642.944 261.386L672.745 267.689C679.015 269.015 684.742 268.322 689.338 265.253ZM642.001 262L645.392 246.046L675.426 252.398C680.406 253.451 684.92 251.722 686.293 245.263C687.649 238.881 684.227 235.474 679.247 234.42L649.213 228.069L652.604 212.115L683.105 218.565C696.021 221.297 703.864 230.681 700.142 248.192C696.42 265.702 685.418 271.182 672.579 268.467L642.001 262Z" fill="#1E1F21"/>
<path fill-rule="evenodd" clip-rule="evenodd" d="M721.862 175.951L708.574 183.181C708.723 183.395 708.864 183.616 708.997 183.844C711.046 187.353 711.169 192.352 708.263 196.208C703.883 202.021 696.16 202.647 690.342 198.273C684.524 193.9 682.99 186.313 687.369 180.501C690.275 176.645 695.119 175.379 699.062 176.375C699.318 176.44 699.569 176.514 699.816 176.597L703.033 161.796C695.374 159.996 684.804 160.759 676.234 172.13C666.523 185.018 667.696 201.537 680.583 211.224C693.407 220.865 709.686 217.467 719.398 204.579C727.967 193.208 725.573 182.6 721.862 175.951ZM702.099 162.398C698.532 161.66 694.403 161.528 690.191 162.779C685.693 164.115 681.048 167.043 676.86 172.601C667.379 185.183 668.559 201.196 681.059 210.593C693.497 219.943 709.292 216.69 718.772 204.109C726.817 193.434 724.926 183.502 721.541 177.018L709.691 183.466C711.871 187.223 711.998 192.553 708.888 196.679C704.21 202.888 695.98 203.501 689.866 198.905C683.752 194.309 682.065 186.24 686.744 180.031C689.852 175.906 695.012 174.552 699.23 175.604L702.099 162.398Z" fill="#1E1F21"/>
<path fill-rule="evenodd" clip-rule="evenodd" d="M767.825 153.448L752.716 154.12C752.756 154.377 752.785 154.638 752.805 154.9C753.107 158.954 751.023 163.502 746.721 165.694C740.236 168.998 733.024 166.174 729.717 159.69C726.41 153.206 728.36 145.713 734.844 142.409C739.147 140.217 744.052 141.203 747.158 143.829C747.359 143.999 747.553 144.176 747.738 144.359L757.122 132.463C751.031 127.486 741.202 123.535 728.515 130C714.136 137.326 707.943 152.691 715.268 167.052C722.557 181.344 738.672 185.43 753.05 178.104C765.737 171.64 768.241 161.053 767.825 153.448ZM756.019 132.595C753.138 130.367 749.487 128.437 745.155 127.714C740.528 126.942 735.071 127.537 728.87 130.697C714.833 137.849 708.867 152.763 715.973 166.693C723.043 180.555 738.658 184.558 752.695 177.407C764.605 171.338 767.263 161.581 767.068 154.266L753.594 154.865C753.904 159.2 751.68 164.046 747.076 166.391C740.149 169.921 732.487 166.863 729.012 160.049C725.537 153.235 727.562 145.241 734.489 141.712C739.091 139.367 744.32 140.413 747.647 143.208L756.019 132.595Z" fill="#1E1F21"/>
<path fill-rule="evenodd" clip-rule="evenodd" d="M785.941 155.29L785.364 146.966L808.785 145.328L807.971 133.597L784.55 135.234L784.011 127.466L807.984 125.79L807.17 114.058L768.845 116.738L772.403 168.025L810.728 165.345L809.914 153.613L785.941 155.29ZM810.648 152.765L811.572 166.083L771.669 168.873L768.001 116L807.904 113.21L808.827 126.527L784.854 128.203L785.283 134.386L808.704 132.749L809.628 146.066L786.207 147.704L786.675 154.442L810.648 152.765Z" fill="#1E1F21"/>
<path fill-rule="evenodd" clip-rule="evenodd" d="M813.866 158.645C817.546 164.695 823.552 169.834 833.671 173.122C840.253 175.261 845.959 175.39 850.412 173.725C854.837 172.07 858.126 168.607 859.846 163.332C860.736 160.604 860.717 158.217 860.1 156.105C859.479 153.984 858.242 152.093 856.625 150.391C853.374 146.968 848.699 144.415 844.805 142.364C842.313 141.063 840.518 140.034 839.433 139.054C838.881 138.556 838.459 138.025 838.241 137.421C838.016 136.797 838.035 136.171 838.239 135.545C838.504 134.733 839.074 133.921 840.198 133.55C841.264 133.199 842.705 133.288 844.64 133.917C848.582 135.197 853.516 138.51 856.881 143.012L867.166 135.859C863.09 129.893 856.844 125.521 849.108 123.007C842.407 120.83 836.804 121.087 832.577 122.845C828.354 124.601 825.446 127.877 824.143 131.872C823.172 134.85 823.168 137.401 823.791 139.617C824.415 141.84 825.685 143.78 827.342 145.504C830.518 148.808 835.01 151.22 838.801 153.255C838.993 153.358 839.184 153.461 839.372 153.562C841.696 154.812 843.396 155.896 844.433 156.956C844.959 157.493 845.35 158.06 845.55 158.679C845.754 159.312 845.739 159.947 845.534 160.577C845.083 161.96 843.802 162.57 842.474 162.739C841.138 162.908 839.554 162.673 838.064 162.188C831.494 160.054 826.814 155.639 824.08 150.979L813.866 158.645ZM812.832 158.44L824.326 149.813C824.45 150.044 824.579 150.275 824.712 150.505C827.353 155.047 831.904 159.363 838.307 161.443C841.147 162.366 844.154 162.272 844.786 160.335C845.418 158.397 843.641 156.749 838.999 154.251C838.802 154.145 838.602 154.038 838.399 153.929C830.665 149.778 819.441 143.755 823.396 131.629C826.142 123.209 835.672 117.817 849.351 122.262C857.498 124.909 864.07 129.599 868.244 136.065L856.697 144.097C856.678 144.07 856.659 144.044 856.64 144.017C853.372 139.37 848.336 135.942 844.397 134.662C840.66 133.447 839.4 134.521 838.987 135.788C838.355 137.725 840.154 139.052 845.17 141.67C852.93 145.758 864.337 152.101 860.594 163.575C857.021 174.528 846.808 178.215 833.428 173.867C822.813 170.418 816.584 164.933 812.832 158.44Z" fill="#1E1F21"/>
<path fill-rule="evenodd" clip-rule="evenodd" d="M858.474 173.548C859.62 180.536 863.264 187.551 871.414 194.39C876.716 198.839 881.957 201.096 886.71 201.22C891.433 201.344 895.779 199.364 899.35 195.118C901.197 192.922 902.073 190.701 902.292 188.512C902.512 186.313 902.072 184.096 901.211 181.912C899.479 177.521 896.1 173.402 893.258 170.041C891.435 167.902 890.156 166.275 889.517 164.96C889.193 164.292 889.001 163.641 889.024 163C889.049 162.337 889.301 161.763 889.725 161.259C890.275 160.606 891.107 160.066 892.288 160.144C893.408 160.217 894.711 160.84 896.27 162.147C899.445 164.811 902.779 169.731 904.212 175.166L916.427 172.386C914.883 165.328 910.73 158.934 904.499 153.705C899.102 149.177 893.81 147.316 889.232 147.362C884.659 147.409 880.736 149.357 878.032 152.573C876.015 154.971 875.056 157.335 874.803 159.622C874.55 161.918 875.001 164.192 875.891 166.411C877.598 170.665 880.86 174.584 883.612 177.891C883.752 178.058 883.89 178.225 884.027 178.389C885.713 180.419 886.883 182.061 887.448 183.432C887.734 184.127 887.884 184.8 887.838 185.447C887.79 186.111 887.538 186.695 887.112 187.202C886.175 188.315 884.76 188.402 883.466 188.06C882.163 187.717 880.783 186.905 879.583 185.898C874.291 181.457 871.605 175.611 870.816 170.266L858.474 173.548ZM857.592 172.97L871.481 169.277C871.509 169.538 871.542 169.8 871.58 170.063C872.327 175.264 874.929 180.97 880.087 185.298C882.375 187.217 885.198 188.256 886.51 186.697C887.821 185.137 886.791 182.943 883.423 178.889C883.28 178.716 883.134 178.542 882.987 178.365C877.371 171.619 869.22 161.83 877.43 152.068C883.13 145.29 893.985 143.86 905.003 153.106C911.566 158.612 915.902 165.423 917.35 172.981L903.635 176.102C903.628 176.071 903.62 176.039 903.613 176.008C902.323 170.475 898.938 165.409 895.765 162.747C892.755 160.221 891.185 160.745 890.327 161.765C889.016 163.324 890.187 165.228 893.857 169.535C899.521 176.232 907.721 186.386 899.952 195.623C892.537 204.441 881.687 204.033 870.909 194.99C862.36 187.816 858.638 180.396 857.592 172.97Z" fill="#1E1F21"/>
</svg>
