<svg width="689" height="711" viewBox="0 0 689 711" fill="none" xmlns="http://www.w3.org/2000/svg">
<path d="M258.95 594.944L258.959 595.444L259.402 595.436L259.447 594.995L258.95 594.944ZM240.647 595.271L240.151 595.204L240.074 595.781L240.656 595.771L240.647 595.271ZM227.893 573.634L228.354 573.441L228.353 573.438L227.893 573.634ZM231.823 582.275L232.274 582.06L232.273 582.058L231.823 582.275ZM235.884 592.799L236.363 592.656L236.363 592.653L235.884 592.799ZM235.932 604.264L236.414 604.398L236.415 604.392L235.932 604.264ZM211.472 617.723L211.362 618.211L211.366 618.212L211.472 617.723ZM185.112 576.677L185.121 576.177L184.639 576.169L184.612 576.65L185.112 576.677ZM203.025 577.004L203.525 577.015L203.535 576.514L203.034 576.504L203.025 577.004ZM214.986 595.509L215.467 595.373L215.465 595.368L214.986 595.509ZM212.224 588.985L212.667 588.753L212.661 588.742L212.224 588.985ZM208.61 580.609L209.084 580.449L209.08 580.437L208.61 580.609ZM206.07 571.328L206.562 571.241L206.07 571.328ZM207.168 562.121L207.632 562.308L207.637 562.295L207.168 562.121ZM231.966 550.147L231.831 550.629L231.834 550.63L231.966 550.147ZM248.897 563.924C256.364 574.202 259.529 584.519 258.453 594.892L259.447 594.995C260.554 584.327 257.286 573.769 249.706 563.336L248.897 563.924ZM258.941 594.444L240.638 594.771L240.656 595.771L258.959 595.444L258.941 594.444ZM241.142 595.338C242.27 586.984 240.343 579.37 235.369 572.525L234.56 573.113C239.383 579.751 241.244 587.106 240.151 595.204L241.142 595.338ZM235.369 572.525C233.905 570.51 232.521 569.116 231.21 568.417C230.548 568.064 229.887 567.879 229.235 567.898C228.579 567.916 227.968 568.139 227.41 568.545L227.998 569.354C228.41 569.054 228.829 568.91 229.263 568.897C229.702 568.885 230.192 569.008 230.74 569.3C231.849 569.891 233.125 571.137 234.56 573.113L235.369 572.525ZM227.41 568.545C226.769 569.011 226.529 569.762 226.564 570.641C226.599 571.51 226.902 572.579 227.433 573.83L228.353 573.438C227.841 572.232 227.591 571.293 227.563 570.6C227.535 569.917 227.722 569.554 227.998 569.354L227.41 568.545ZM227.432 573.827C228.44 576.24 229.754 579.129 231.373 582.492L232.273 582.058C230.66 578.705 229.354 575.833 228.354 573.441L227.432 573.827ZM231.372 582.491C232.937 585.772 234.282 589.256 235.406 592.945L236.363 592.653C235.225 588.919 233.862 585.388 232.274 582.06L231.372 582.491ZM235.405 592.942C236.469 596.504 236.487 600.231 235.449 604.135L236.415 604.392C237.497 600.325 237.484 596.409 236.363 592.656L235.405 592.942ZM235.451 604.129C234.388 607.932 231.949 611.241 228.086 614.05L228.674 614.859C232.683 611.943 235.279 608.458 236.414 604.398L235.451 604.129ZM228.086 614.05C223.304 617.527 217.816 618.595 211.579 617.235L211.366 618.212C217.859 619.628 223.642 618.517 228.674 614.859L228.086 614.05ZM211.582 617.235C205.33 615.827 199.675 611.693 194.629 604.748L193.82 605.336C198.962 612.414 204.806 616.734 211.362 618.211L211.582 617.235ZM194.629 604.748C188.064 595.712 185.071 586.368 185.611 576.705L184.612 576.65C184.058 586.576 187.141 596.143 193.82 605.336L194.629 604.748ZM185.102 577.177L203.016 577.504L203.034 576.504L185.121 576.177L185.102 577.177ZM202.525 576.994C202.374 584.383 204.468 591.07 208.803 597.037L209.612 596.449C205.405 590.658 203.378 584.186 203.525 577.015L202.525 576.994ZM208.803 597.037C209.822 598.439 210.838 599.408 211.863 599.855C212.932 600.32 213.976 600.2 214.926 599.509L214.338 598.7C213.67 599.186 213.001 599.259 212.262 598.938C211.48 598.597 210.592 597.798 209.612 596.449L208.803 597.037ZM214.926 599.509C215.45 599.128 215.715 598.54 215.784 597.843C215.851 597.156 215.734 596.326 215.467 595.373L214.504 595.644C214.756 596.54 214.839 597.233 214.789 597.745C214.74 598.246 214.568 598.532 214.338 598.7L214.926 599.509ZM215.465 595.368C214.895 593.424 213.96 591.218 212.667 588.753L211.781 589.218C213.055 591.646 213.96 593.789 214.506 595.649L215.465 595.368ZM212.661 588.742C211.341 586.367 210.148 583.603 209.084 580.449L208.137 580.769C209.216 583.969 210.433 586.79 211.787 589.228L212.661 588.742ZM209.08 580.437C207.923 577.27 207.085 574.205 206.562 571.241L205.578 571.415C206.112 574.442 206.967 577.564 208.141 580.78L209.08 580.437ZM206.562 571.241C206.052 568.348 206.402 565.373 207.632 562.308L206.704 561.935C205.413 565.154 205.031 568.317 205.578 571.415L206.562 571.241ZM207.637 562.295C208.765 559.244 210.844 556.604 213.904 554.379L213.316 553.57C210.121 555.894 207.906 558.685 206.699 561.948L207.637 562.295ZM213.904 554.379C219.728 550.144 225.691 548.914 231.831 550.629L232.1 549.665C225.628 547.858 219.354 549.18 213.316 553.57L213.904 554.379ZM231.834 550.63C237.956 552.297 243.649 556.7 248.897 563.924L249.706 563.336C244.374 555.998 238.51 551.411 232.097 549.665L231.834 550.63Z" fill="#1E1F21"/>
<path d="M220.5 538.041L220.96 538.236L220.962 538.231L220.5 538.041ZM173.724 555.131L173.953 554.687L173.724 555.131ZM154.371 513.654L154.848 513.804L154.849 513.801L154.371 513.654ZM163.571 498.582L163.924 498.228L163.579 497.882L163.225 498.22L163.571 498.582ZM177.13 512.152L177.438 512.546L177.882 512.198L177.484 511.799L177.13 512.152ZM172.419 519.091L172.892 519.252L172.895 519.244L172.419 519.091ZM180.941 536.95L180.745 537.411L180.941 536.95ZM203.296 528.783L203.742 529.008L203.296 528.783ZM198.436 509.584L198.702 509.16L198.695 509.156L198.436 509.584ZM190.28 507.348L189.781 507.307L189.736 507.868L190.297 507.848L190.28 507.348ZM191.843 488.252L191.872 487.752L191.384 487.724L191.344 488.211L191.843 488.252ZM199.692 489.642L199.844 489.166L199.837 489.163L199.692 489.642ZM207.473 493.187L207.222 493.62L207.473 493.187ZM215.026 499.903L215.419 499.594L215.415 499.589L215.026 499.903ZM220.052 510.204C223.617 519.998 223.602 529.205 220.038 537.85L220.962 538.231C224.632 529.328 224.631 519.862 220.991 509.86L220.052 510.204ZM220.04 537.846C216.395 546.443 209.896 552.455 200.498 555.889L200.84 556.829C210.478 553.307 217.199 547.107 220.96 538.236L220.04 537.846ZM200.498 555.889C191.037 559.346 182.201 558.936 173.953 554.687L173.495 555.576C182.013 559.964 191.14 560.373 200.84 556.829L200.498 555.889ZM173.953 554.687C165.696 550.433 159.77 543.399 156.182 533.541L155.243 533.884C158.905 543.947 164.987 551.193 173.495 555.576L173.953 554.687ZM156.182 533.541C153.472 526.095 153.048 519.525 154.848 513.804L153.894 513.504C152.01 519.492 152.48 526.294 155.243 533.884L156.182 533.541ZM154.849 513.801C156.644 507.962 159.666 503.013 163.916 498.943L163.225 498.22C158.848 502.413 155.737 507.512 153.893 513.508L154.849 513.801ZM163.217 498.935L176.776 512.506L177.484 511.799L163.924 498.228L163.217 498.935ZM176.822 511.759C174.528 513.555 172.904 515.955 171.943 518.938L172.895 519.244C173.799 516.435 175.315 514.209 177.438 512.546L176.822 511.759ZM171.946 518.929C170.916 521.95 170.917 524.906 171.961 527.775L172.901 527.432C171.939 524.788 171.932 522.068 172.892 519.252L171.946 518.929ZM171.961 527.775C173.645 532.402 176.573 535.63 180.745 537.411L181.138 536.49C177.246 534.829 174.5 531.826 172.901 527.432L171.961 527.775ZM180.745 537.411C184.903 539.185 189.274 539.229 193.829 537.565L193.487 536.625C189.15 538.21 185.043 538.157 181.138 536.49L180.745 537.411ZM193.829 537.565C198.383 535.901 201.7 533.048 203.742 529.008L202.85 528.557C200.932 532.352 197.823 535.041 193.487 536.625L193.829 537.565ZM203.742 529.008C205.79 524.955 205.956 520.596 204.272 515.969L203.333 516.312C204.932 520.707 204.761 524.776 202.85 528.557L203.742 529.008ZM204.272 515.969C203.229 513.104 201.367 510.832 198.702 509.16L198.171 510.008C200.654 511.566 202.369 513.664 203.333 516.312L204.272 515.969ZM198.695 509.156C195.984 507.519 193.17 506.743 190.262 506.848L190.297 507.848C192.992 507.751 195.616 508.466 198.178 510.013L198.695 509.156ZM190.778 507.388L192.341 488.292L191.344 488.211L189.781 507.307L190.778 507.388ZM191.813 488.751C194.456 488.904 197.034 489.361 199.547 490.121L199.837 489.163C197.248 488.381 194.593 487.91 191.872 487.752L191.813 488.751ZM199.539 490.119C201.987 490.9 204.548 492.066 207.222 493.62L207.725 492.754C205 491.171 202.373 489.973 199.844 489.166L199.539 490.119ZM207.222 493.62C209.859 495.152 212.332 497.347 214.636 500.217L215.415 499.589C213.049 496.642 210.486 494.359 207.725 492.754L207.222 493.62ZM214.632 500.212C216.846 503.034 218.654 506.363 220.052 510.204L220.991 509.86C219.562 505.933 217.706 502.509 215.419 499.594L214.632 500.212Z" fill="#1E1F21"/>
<path d="M207.438 424.266L207.938 424.239L207.895 423.422L207.187 423.834L207.438 424.266ZM208.642 447.235L208.866 447.681L209.158 447.534L209.141 447.208L208.642 447.235ZM188.154 457.556L187.93 457.109L187.638 457.257L187.655 457.583L188.154 457.556ZM188.536 464.846L188.037 464.873L188.063 465.372L188.562 465.345L188.536 464.846ZM209.506 463.712L210.005 463.685L209.979 463.186L209.479 463.213L209.506 463.712ZM210.563 483.884L210.589 484.384L211.088 484.357L211.062 483.857L210.563 483.884ZM143.96 487.486L143.461 487.513L143.487 488.012L143.986 487.985L143.96 487.486ZM147.766 434.002L148.13 434.345L148.135 434.339L147.766 434.002ZM176.677 429.635L176.407 430.056L176.412 430.06L176.677 429.635ZM184.506 437.624L184.069 437.868L184.317 438.312L184.757 438.056L184.506 437.624ZM168.774 448.89L169.171 448.586L169.166 448.579L169.16 448.572L168.774 448.89ZM160.985 449.311L161.403 449.585L161.408 449.578L161.412 449.571L160.985 449.311ZM160.477 466.363L159.978 466.39L160.004 466.89L160.503 466.863L160.477 466.363ZM170.962 465.796L170.988 466.296L171.487 466.269L171.461 465.769L170.962 465.796ZM206.939 424.293L208.143 447.262L209.141 447.208L207.938 424.239L206.939 424.293ZM208.418 446.788L187.93 457.109L188.378 458.003L208.866 447.681L208.418 446.788ZM187.655 457.583L188.037 464.873L189.035 464.819L188.653 457.529L187.655 457.583ZM188.562 465.345L209.532 464.211L209.479 463.213L188.51 464.347L188.562 465.345ZM209.006 463.739L210.063 483.911L211.062 483.857L210.005 463.685L209.006 463.739ZM210.537 483.385L143.934 486.987L143.986 487.985L210.589 484.384L210.537 483.385ZM144.459 487.459L142.596 451.908L141.598 451.962L143.461 487.513L144.459 487.459ZM142.596 451.908C142.207 444.486 144.071 438.654 148.13 434.345L147.402 433.66C143.114 438.214 141.198 444.337 141.598 451.962L142.596 451.908ZM148.135 434.339C152.143 429.949 157.33 427.577 163.734 427.23L163.681 426.232C157.037 426.591 151.597 429.066 147.397 433.666L148.135 434.339ZM163.734 427.23C168.849 426.954 173.062 427.909 176.407 430.056L176.948 429.214C173.384 426.927 168.95 425.947 163.681 426.232L163.734 427.23ZM176.412 430.06C179.8 432.17 182.346 434.774 184.069 437.868L184.943 437.38C183.128 434.122 180.456 431.4 176.942 429.21L176.412 430.06ZM184.757 438.056L207.689 424.698L207.187 423.834L184.255 437.192L184.757 438.056ZM170.817 453.486C170.716 451.543 170.176 449.9 169.171 448.586L168.377 449.194C169.235 450.316 169.725 451.755 169.819 453.54L170.817 453.486ZM169.16 448.572C168.05 447.221 166.525 446.608 164.654 446.709L164.707 447.708C166.297 447.622 167.501 448.13 168.388 449.208L169.16 448.572ZM164.654 446.709C162.842 446.807 161.452 447.585 160.559 449.051L161.412 449.571C162.117 448.414 163.191 447.79 164.707 447.708L164.654 446.709ZM160.568 449.037C159.633 450.457 159.232 452.157 159.334 454.107L160.333 454.053C160.24 452.275 160.606 450.796 161.403 449.585L160.568 449.037ZM159.334 454.107L159.978 466.39L160.976 466.336L160.333 454.053L159.334 454.107ZM160.503 466.863L170.988 466.296L170.936 465.297L160.451 465.864L160.503 466.863ZM171.461 465.769L170.817 453.486L169.819 453.54L170.463 465.823L171.461 465.769Z" fill="#1E1F21"/>
<path d="M215.357 368.73L215.798 368.493L215.796 368.491L215.357 368.73ZM202.597 416.351L202.858 416.777L202.863 416.774L202.597 416.351ZM142.374 408.899L141.89 408.771L141.761 409.254L142.244 409.382L142.374 408.899ZM147.679 389.098L147.809 388.615L147.326 388.486L147.196 388.969L147.679 389.098ZM193.828 398.078L194.071 398.514L194.078 398.511L194.084 398.507L193.828 398.078ZM198.59 380.305L198.157 380.555L198.59 380.305ZM154.124 365.046L153.641 364.918L153.511 365.401L153.995 365.529L154.124 365.046ZM159.43 345.245L159.559 344.762L159.076 344.633L158.947 345.116L159.43 345.245ZM214.916 368.967C218.427 375.498 218.838 383.945 216.044 394.371L217.01 394.628C219.842 384.062 219.472 375.329 215.798 368.493L214.916 368.967ZM216.044 394.371C213.25 404.797 208.661 411.948 202.331 415.928L202.863 416.774C209.482 412.612 214.179 405.195 217.01 394.628L216.044 394.371ZM202.336 415.924C195.947 419.833 188.675 420.714 180.479 418.531L180.22 419.497C188.645 421.741 196.204 420.847 202.858 416.777L202.336 415.924ZM180.479 418.531L142.503 408.416L142.244 409.382L180.22 419.497L180.479 418.531ZM142.857 409.028L148.163 389.227L147.196 388.969L141.89 408.771L142.857 409.028ZM147.55 389.581L184.85 399.516L185.108 398.55L147.809 388.615L147.55 389.581ZM184.85 399.516C188.184 400.404 191.269 400.078 194.071 398.514L193.584 397.642C191.03 399.067 188.216 399.377 185.108 398.55L184.85 399.516ZM194.084 398.507C196.858 396.845 198.752 393.997 199.81 390.047L198.844 389.79C197.831 393.568 196.059 396.159 193.571 397.649L194.084 398.507ZM199.81 390.047C200.851 386.16 200.617 382.811 199.023 380.054L198.157 380.555C199.581 383.019 199.838 386.078 198.844 389.79L199.81 390.047ZM199.023 380.054C197.395 377.24 194.892 375.388 191.553 374.498L191.294 375.464C194.397 376.291 196.672 377.988 198.157 380.555L199.023 380.054ZM191.553 374.498L154.253 364.563L153.995 365.529L191.294 375.464L191.553 374.498ZM154.607 365.175L159.913 345.374L158.947 345.116L153.641 364.918L154.607 365.175ZM159.3 345.728L197.18 355.817L197.439 354.851L159.559 344.762L159.3 345.728ZM197.18 355.817C205.442 358.018 211.335 362.407 214.918 368.97L215.796 368.491C212.064 361.654 205.926 357.112 197.439 354.851L197.18 355.817Z" fill="#1E1F21"/>
<path d="M268.392 296.446L268.802 296.732L269.089 296.323L268.679 296.036L268.392 296.446ZM256.806 312.993L256.519 313.402L256.929 313.689L257.216 313.279L256.806 312.993ZM223.944 290.012L224.231 289.603L223.532 290.297L223.944 290.012ZM248.26 325.198L248.669 325.484L248.869 325.2L248.671 324.914L248.26 325.198ZM243.097 332.57L242.971 333.054L243.308 333.142L243.507 332.857L243.097 332.57ZM201.689 321.796L201.815 321.312L201.402 322.205L201.689 321.796ZM234.551 344.776L234.961 345.062L235.248 344.653L234.838 344.366L234.551 344.776ZM222.965 361.323L222.678 361.732L223.088 362.019L223.375 361.609L222.965 361.323ZM168.304 323.099L167.894 322.812L167.607 323.222L168.017 323.508L168.304 323.099ZM184.307 300.244L184.435 299.761L184.097 299.672L183.897 299.958L184.307 300.244ZM217.242 308.999L217.113 309.482L218.435 309.833L217.652 308.712L217.242 308.999ZM197.728 281.076L197.319 280.79L197.118 281.076L197.318 281.363L197.728 281.076ZM213.731 258.222L214.018 257.812L213.608 257.526L213.321 257.935L213.731 258.222ZM267.982 296.159L256.396 312.706L257.216 313.279L268.802 296.732L267.982 296.159ZM257.093 312.583L224.231 289.603L223.657 290.422L256.519 313.402L257.093 312.583ZM223.532 290.297L247.848 325.482L248.671 324.914L224.355 289.728L223.532 290.297ZM247.85 324.911L242.688 332.284L243.507 332.857L248.669 325.484L247.85 324.911ZM243.224 332.087L201.815 321.312L201.563 322.279L242.971 333.054L243.224 332.087ZM201.402 322.205L234.264 345.185L234.838 344.366L201.976 321.386L201.402 322.205ZM234.141 344.489L222.555 361.036L223.375 361.609L234.961 345.062L234.141 344.489ZM223.252 360.913L168.591 322.689L168.017 323.508L222.678 361.732L223.252 360.913ZM168.714 323.385L184.716 300.531L183.897 299.958L167.894 322.812L168.714 323.385ZM184.178 300.727L217.113 309.482L217.37 308.516L184.435 299.761L184.178 300.727ZM217.652 308.712L198.138 280.79L197.318 281.363L216.832 309.285L217.652 308.712ZM198.138 281.363L214.141 258.508L213.321 257.935L197.319 280.79L198.138 281.363ZM213.444 258.631L268.105 296.855L268.679 296.036L214.018 257.812L213.444 258.631Z" fill="#1E1F21"/>
<path d="M309.407 269.05L309.708 269.45L310.107 269.149L309.807 268.749L309.407 269.05ZM273.069 296.433L272.67 296.734L272.971 297.133L273.37 296.832L273.069 296.433ZM232.951 243.147L232.65 242.748L232.251 243.048L232.551 243.448L232.951 243.147ZM249.083 230.99L249.482 230.689L249.182 230.29L248.782 230.591L249.083 230.99ZM278.616 270.216L278.216 270.517L278.517 270.916L278.916 270.615L278.616 270.216ZM298.821 254.99L299.221 254.689L298.92 254.29L298.52 254.59L298.821 254.99ZM309.106 268.651L272.769 296.034L273.37 296.832L309.708 269.45L309.106 268.651ZM273.469 296.132L233.35 242.846L232.551 243.448L272.67 296.734L273.469 296.132ZM233.251 243.546L249.384 231.39L248.782 230.591L232.65 242.748L233.251 243.546ZM248.684 231.291L278.216 270.517L279.015 269.915L249.482 230.689L248.684 231.291ZM278.916 270.615L299.122 255.389L298.52 254.59L278.315 269.816L278.916 270.615ZM298.422 255.291L309.008 269.351L309.807 268.749L299.221 254.689L298.422 255.291Z" fill="#1E1F21"/>
<path d="M381.833 240.916L382.011 241.383L382.681 241.126L382.209 240.587L381.833 240.916ZM360.454 249.123L360.06 249.432L360.287 249.722L360.632 249.59L360.454 249.123ZM355.426 242.698L355.82 242.389L355.593 242.099L355.248 242.231L355.426 242.698ZM333.021 251.299L332.842 250.832L332.497 250.964L332.522 251.333L333.021 251.299ZM333.566 259.444L333.745 259.911L334.09 259.779L334.065 259.41L333.566 259.444ZM312.187 267.651L311.688 267.657L311.696 268.375L312.366 268.118L312.187 267.651ZM311.325 196.536L311.147 196.069L310.821 196.194L310.826 196.543L311.325 196.536ZM335.038 187.434L335.414 187.104L335.185 186.842L334.86 186.967L335.038 187.434ZM344.098 228.194L344.276 228.661L344.908 228.419L344.491 227.886L344.098 228.194ZM330.255 210.478L330.649 210.17L329.647 208.887L329.757 210.513L330.255 210.478ZM331.774 232.925L331.276 232.959L331.321 233.634L331.953 233.392L331.774 232.925ZM381.654 240.449L360.275 248.656L360.632 249.59L382.011 241.383L381.654 240.449ZM360.847 248.815L355.82 242.389L355.033 243.007L360.06 249.432L360.847 248.815ZM355.248 242.231L332.842 250.832L333.199 251.766L355.605 243.165L355.248 242.231ZM332.522 251.333L333.068 259.478L334.065 259.41L333.519 251.265L332.522 251.333ZM333.388 258.977L312.009 267.184L312.366 268.118L333.745 259.911L333.388 258.977ZM312.687 267.644L311.825 196.53L310.826 196.543L311.688 267.657L312.687 267.644ZM311.504 197.003L335.217 187.901L334.86 186.967L311.147 196.069L311.504 197.003ZM334.662 187.763L381.456 241.246L382.209 240.587L335.414 187.104L334.662 187.763ZM344.491 227.886L330.649 210.17L329.861 210.787L343.704 228.503L344.491 227.886ZM329.757 210.513L331.276 232.959L332.273 232.891L330.754 210.444L329.757 210.513ZM331.953 233.392L344.276 228.661L343.919 227.727L331.596 232.458L331.953 233.392Z" fill="#1E1F21"/>
<path d="M432.951 232.976L433.312 233.322L433.314 233.319L432.951 232.976ZM383.719 235.556L383.393 235.936L383.397 235.939L383.719 235.556ZM372.384 175.967L372.359 175.468L371.86 175.494L371.885 175.994L372.384 175.967ZM392.856 174.894L393.355 174.868L393.33 174.369L392.831 174.395L392.856 174.894ZM398.429 221.567L398.088 221.933L398.093 221.938L398.099 221.943L398.429 221.567ZM416.803 220.604L416.432 220.269L416.803 220.604ZM417.722 173.591L417.697 173.092L417.197 173.118L417.223 173.617L417.722 173.591ZM438.194 172.518L438.693 172.492L438.668 171.993L438.169 172.019L438.194 172.518ZM432.591 232.63C427.448 237.988 419.534 240.989 408.755 241.554L408.805 242.552C419.73 241.98 427.929 238.929 433.312 233.322L432.591 232.63ZM408.755 241.554C397.976 242.119 389.765 239.963 384.04 235.172L383.397 235.939C389.384 240.949 397.881 243.125 408.805 242.552L408.755 241.554ZM384.045 235.176C378.369 230.306 375.305 223.662 374.875 215.191L373.877 215.243C374.318 223.95 377.483 230.865 383.393 235.936L384.045 235.176ZM374.875 215.191L372.884 175.941L371.885 175.994L373.877 215.243L374.875 215.191ZM372.41 176.467L392.882 175.394L392.831 174.395L372.359 175.468L372.41 176.467ZM392.357 174.921L394.313 213.471L395.312 213.419L393.355 174.868L392.357 174.921ZM394.313 213.471C394.488 216.917 395.742 219.751 398.088 221.933L398.769 221.2C396.631 219.211 395.475 216.63 395.312 213.419L394.313 213.471ZM398.099 221.943C400.529 224.068 403.82 224.989 407.903 224.775L407.853 223.777C403.947 223.981 400.938 223.096 398.758 221.19L398.099 221.943ZM407.903 224.775C411.922 224.565 415.039 223.306 417.174 220.938L416.432 220.269C414.524 222.386 411.69 223.575 407.853 223.777L407.903 224.775ZM417.174 220.938C419.356 218.52 420.353 215.567 420.178 212.116L419.179 212.168C419.342 215.375 418.422 218.063 416.432 220.269L417.174 220.938ZM420.178 212.116L418.221 173.565L417.223 173.617L419.179 212.168L420.178 212.116ZM417.747 174.091L438.219 173.018L438.169 172.019L417.697 173.092L417.747 174.091ZM437.695 172.545L439.681 211.694L440.68 211.642L438.693 172.492L437.695 172.545ZM439.681 211.694C440.115 220.233 437.74 227.196 432.589 232.632L433.314 233.319C438.68 227.657 441.125 220.414 440.68 211.642L439.681 211.694Z" fill="#1E1F21"/>
<path d="M504.643 256.362L504.513 256.845L504.996 256.974L505.126 256.491L504.643 256.362ZM485.904 251.341L485.437 251.52L485.528 251.758L485.774 251.824L485.904 251.341ZM470.939 212.339L471.406 212.159L470.855 210.725L470.456 212.209L470.939 212.339ZM462.142 244.974L462.012 245.457L462.495 245.586L462.625 245.103L462.142 244.974ZM442.631 239.746L442.148 239.616L442.018 240.099L442.501 240.229L442.631 239.746ZM459.989 175.344L460.119 174.861L459.636 174.732L459.506 175.215L459.989 175.344ZM480.08 180.727L480.546 180.546L480.455 180.31L480.21 180.245L480.08 180.727ZM494.266 217.243L493.8 217.425L494.352 218.846L494.749 217.373L494.266 217.243ZM502.489 186.732L502.62 186.249L502.137 186.12L502.006 186.603L502.489 186.732ZM522.001 191.96L522.484 192.09L522.614 191.607L522.131 191.477L522.001 191.96ZM504.773 255.879L486.034 250.858L485.774 251.824L504.513 256.845L504.773 255.879ZM486.371 251.161L471.406 212.159L470.471 212.518L485.437 251.52L486.371 251.161ZM470.456 212.209L461.66 244.845L462.625 245.103L471.421 212.468L470.456 212.209ZM462.273 244.491L442.761 239.263L442.501 240.229L462.012 245.457L462.273 244.491ZM443.114 239.875L460.472 175.473L459.506 175.215L442.148 239.616L443.114 239.875ZM459.859 175.827L479.95 181.21L480.21 180.245L460.119 174.861L459.859 175.827ZM479.614 180.909L493.8 217.425L494.732 217.062L480.546 180.546L479.614 180.909ZM494.749 217.373L502.972 186.861L502.006 186.603L493.783 217.114L494.749 217.373ZM502.359 187.215L521.871 192.443L522.131 191.477L502.62 186.249L502.359 187.215ZM521.518 191.831L504.16 256.233L505.126 256.491L522.484 192.09L521.518 191.831Z" fill="#1E1F21"/>
<path d="M516.017 254.461L515.531 254.582L515.533 254.587L516.017 254.461ZM543.17 212.715L543.254 213.208L543.17 212.715ZM583.594 234.197L583.122 234.364L583.123 234.367L583.594 234.197ZM585.295 251.757L585.225 252.252L585.709 252.32L585.789 251.838L585.295 251.757ZM566.286 249.07L565.803 248.941L565.656 249.486L566.216 249.565L566.286 249.07ZM565.884 240.701L565.408 240.857L565.411 240.865L565.884 240.701ZM548.326 231.564L548.207 231.079L548.326 231.564ZM535.349 251.516L534.857 251.604L535.349 251.516ZM550.781 263.922L550.823 264.42L550.832 264.419L550.781 263.922ZM558.652 260.806L559.075 260.539L558.775 260.064L558.338 260.418L558.652 260.806ZM568.883 276.989L569.16 277.405L569.567 277.135L569.306 276.722L568.883 276.989ZM561.767 280.595L561.931 281.067L561.938 281.064L561.767 280.595ZM553.409 282.44L553.35 281.944L553.409 282.44ZM543.327 281.617L543.198 282.1L543.204 282.101L543.327 281.617ZM533.112 276.414C524.37 270.737 518.847 263.379 516.501 254.336L515.533 254.587C517.949 263.899 523.641 271.455 532.567 277.252L533.112 276.414ZM516.502 254.341C514.249 245.288 515.835 236.584 521.29 228.196L520.452 227.652C514.857 236.254 513.207 245.241 515.531 254.582L516.502 254.341ZM521.29 228.196C526.783 219.752 534.099 214.771 543.254 213.208L543.085 212.222C533.632 213.837 526.082 218.995 520.452 227.652L521.29 228.196ZM543.254 213.208C552.418 211.643 561.39 213.697 570.188 219.411L570.733 218.572C561.752 212.74 552.529 210.61 543.085 212.222L543.254 213.208ZM570.188 219.411C576.833 223.726 581.123 228.715 583.122 234.364L584.065 234.031C581.973 228.119 577.507 222.971 570.733 218.572L570.188 219.411ZM583.123 234.367C585.197 240.107 585.755 245.873 584.801 251.676L585.789 251.838C586.771 245.861 586.194 239.921 584.064 234.028L583.123 234.367ZM585.365 251.262L566.356 248.575L566.216 249.565L585.225 252.252L585.365 251.262ZM566.769 249.2C567.524 246.387 567.381 243.495 566.356 240.537L565.411 240.865C566.376 243.651 566.502 246.338 565.803 248.941L566.769 249.2ZM566.359 240.545C565.367 237.515 563.589 235.157 561.028 233.494L560.483 234.332C562.842 235.864 564.483 238.031 565.408 240.857L566.359 240.545ZM561.028 233.494C556.899 230.812 552.615 229.994 548.207 231.079L548.446 232.05C552.559 231.038 556.561 231.785 560.483 234.332L561.028 233.494ZM548.207 231.079C543.812 232.161 540.288 234.752 537.644 238.817L538.483 239.361C541.001 235.491 544.318 233.065 548.446 232.05L548.207 231.079ZM537.644 238.817C535 242.882 534.062 247.152 534.857 251.604L535.842 251.428C535.095 247.247 535.966 243.232 538.483 239.361L537.644 238.817ZM534.857 251.604C535.655 256.07 538.143 259.649 542.272 262.331L542.817 261.492C538.896 258.946 536.586 255.594 535.842 251.428L534.857 251.604ZM542.272 262.331C544.829 263.991 547.686 264.686 550.823 264.42L550.739 263.423C547.814 263.672 545.181 263.027 542.817 261.492L542.272 262.331ZM550.832 264.419C553.985 264.096 556.703 263.025 558.967 261.195L558.338 260.418C556.24 262.114 553.71 263.12 550.73 263.424L550.832 264.419ZM558.23 261.073L568.461 277.256L569.306 276.722L559.075 260.539L558.23 261.073ZM568.607 276.573C566.4 278.038 564.063 279.222 561.595 280.125L561.938 281.064C564.481 280.133 566.888 278.914 569.16 277.405L568.607 276.573ZM561.602 280.123C559.173 280.97 556.424 281.578 553.35 281.944L553.468 282.937C556.6 282.564 559.422 281.942 561.931 281.067L561.602 280.123ZM553.35 281.944C550.318 282.305 547.02 282.039 543.451 281.132L543.204 282.101C546.87 283.032 550.293 283.315 553.468 282.937L553.35 281.944ZM543.456 281.134C539.988 280.211 536.54 278.64 533.112 276.414L532.567 277.252C536.072 279.528 539.616 281.147 543.198 282.1L543.456 281.134Z" fill="#1E1F21"/>
<path d="M595.403 341.212L595.01 341.52L595.317 341.914L595.711 341.606L595.403 341.212ZM582.967 325.294L582.659 324.9L582.265 325.208L582.573 325.602L582.967 325.294ZM603.056 309.588L603.364 309.982L603.758 309.674L603.45 309.28L603.056 309.588ZM588.342 290.755L588.736 290.447L588.428 290.053L588.034 290.361L588.342 290.755ZM568.253 306.461L567.859 306.768L568.167 307.162L568.561 306.855L568.253 306.461ZM555.816 290.543L555.509 290.149L555.115 290.457L555.422 290.851L555.816 290.543ZM608.364 249.461L608.757 249.153L608.45 248.759L608.056 249.067L608.364 249.461ZM620.8 265.379L621.108 265.773L621.502 265.465L621.194 265.071L620.8 265.379ZM602.208 279.915L601.9 279.521L601.506 279.829L601.814 280.223L602.208 279.915ZM616.922 298.748L616.528 299.056L616.836 299.45L617.23 299.142L616.922 298.748ZM635.514 284.212L635.908 283.905L635.6 283.511L635.206 283.818L635.514 284.212ZM647.951 300.13L648.258 300.524L648.652 300.216L648.344 299.822L647.951 300.13ZM595.797 340.904L583.361 324.986L582.573 325.602L595.01 341.52L595.797 340.904ZM583.275 325.688L603.364 309.982L602.748 309.194L582.659 324.9L583.275 325.688ZM603.45 309.28L588.736 290.447L587.948 291.063L602.662 309.896L603.45 309.28ZM588.034 290.361L567.945 306.067L568.561 306.855L588.65 291.149L588.034 290.361ZM568.647 306.153L556.21 290.235L555.422 290.851L567.859 306.768L568.647 306.153ZM556.124 290.937L608.671 249.855L608.056 249.067L555.509 290.149L556.124 290.937ZM607.97 249.769L620.406 265.687L621.194 265.071L608.757 249.153L607.97 249.769ZM620.492 264.985L601.9 279.521L602.515 280.309L621.108 265.773L620.492 264.985ZM601.814 280.223L616.528 299.056L617.316 298.44L602.601 279.607L601.814 280.223ZM617.23 299.142L635.822 284.606L635.206 283.818L616.614 298.354L617.23 299.142ZM635.12 284.52L647.557 300.438L648.344 299.822L635.908 283.905L635.12 284.52ZM647.643 299.736L595.096 340.818L595.711 341.606L648.258 300.524L647.643 299.736Z" fill="#1E1F21"/>
</svg>
