<svg width="204" height="48" viewBox="0 0 204 48" fill="none" xmlns="http://www.w3.org/2000/svg">
<path d="M46.6159 24C46.6159 37.2548 36.1806 48 23.308 48C10.4353 48 0 37.2548 0 24C0 10.7452 10.4353 0 23.308 0C36.1806 0 46.6159 10.7452 46.6159 24ZM2.86005 24C2.86005 35.6284 12.0149 45.055 23.308 45.055C34.601 45.055 43.7559 35.6284 43.7559 24C43.7559 12.3716 34.601 2.94496 23.308 2.94496C12.0149 2.94496 2.86005 12.3716 2.86005 24Z" fill="white"/>
<path fill-rule="evenodd" clip-rule="evenodd" d="M23.3078 38.3502C31.0049 38.3502 37.2445 31.9252 37.2445 23.9997C37.2445 16.0741 31.0049 9.64915 23.3078 9.64915C15.6108 9.64915 9.3711 16.0741 9.3711 23.9997C9.3711 31.9252 15.6108 38.3502 23.3078 38.3502ZM25.9508 26.2273C28.804 26.2273 31.117 23.8456 31.117 20.9077C31.117 17.9698 28.804 15.5881 25.9508 15.5881C23.0976 15.5881 20.7846 17.9698 20.7846 20.9077C20.7846 23.8456 23.0976 26.2273 25.9508 26.2273Z" fill="white"/>
<path d="M71.024 18.3629C70.6237 17.8611 70.1277 17.4758 69.536 17.207C68.9617 16.9382 68.2917 16.8038 67.526 16.8038C66.7602 16.8038 66.0467 16.9562 65.3854 17.2608C64.7414 17.5654 64.1758 17.9955 63.6885 18.551C63.2186 19.0886 62.8445 19.7338 62.566 20.4864C62.305 21.239 62.1744 22.0544 62.1744 22.9325C62.1744 23.8285 62.305 24.6528 62.566 25.4054C62.8445 26.1402 63.2186 26.7853 63.6885 27.3408C64.1584 27.8784 64.7066 28.2995 65.3331 28.6042C65.9771 28.9088 66.6645 29.0611 67.3954 29.0611C68.2308 29.0611 68.9704 28.8819 69.6143 28.5235C70.2583 28.1651 70.7891 27.6634 71.2067 27.0182L74.6004 29.6256C73.8172 30.7546 72.8253 31.5878 71.6244 32.1254C70.4236 32.663 69.188 32.9318 67.9175 32.9318C66.4731 32.9318 65.1417 32.6989 63.9235 32.233C62.7052 31.767 61.6524 31.104 60.7648 30.2438C59.8772 29.3658 59.1811 28.3085 58.6764 27.072C58.1891 25.8355 57.9455 24.4557 57.9455 22.9325C57.9455 21.4093 58.1891 20.0294 58.6764 18.793C59.1811 17.5565 59.8772 16.5082 60.7648 15.648C61.6524 14.7699 62.7052 14.0979 63.9235 13.632C65.1417 13.1661 66.4731 12.9331 67.9175 12.9331C68.4396 12.9331 68.9791 12.9869 69.536 13.0944C70.1103 13.184 70.6672 13.3363 71.2067 13.5514C71.7636 13.7664 72.2945 14.0531 72.7991 14.4115C73.3038 14.7699 73.7563 15.209 74.1566 15.7286L71.024 18.3629Z" fill="white"/>
<path d="M84.2741 30.8083H84.2219C83.7868 31.5072 83.2038 32.009 82.4728 32.3136C81.7593 32.6182 81.0023 32.7706 80.2017 32.7706C79.61 32.7706 79.0357 32.681 78.4788 32.5018C77.9393 32.3405 77.4607 32.0896 77.043 31.7491C76.6254 31.4086 76.2947 30.9875 76.051 30.4858C75.8074 29.984 75.6856 29.4016 75.6856 28.7386C75.6856 27.9859 75.8161 27.3498 76.0771 26.8301C76.3556 26.3104 76.7211 25.8803 77.1736 25.5398C77.6434 25.1994 78.1742 24.9395 78.766 24.7603C79.3577 24.5632 79.9668 24.4198 80.5933 24.3302C81.2372 24.2406 81.8724 24.1869 82.499 24.169C83.1429 24.151 83.7346 24.1421 84.2741 24.1421C84.2741 23.4253 84.0217 22.8608 83.5171 22.4486C83.0298 22.0186 82.4468 21.8035 81.768 21.8035C81.1241 21.8035 80.5324 21.9469 79.9929 22.2336C79.4708 22.5024 79.0009 22.8787 78.5832 23.3626L76.4948 21.1584C77.2258 20.4595 78.0785 19.9398 79.0531 19.5994C80.0277 19.241 81.0371 19.0618 82.0813 19.0618C83.2299 19.0618 84.1697 19.2141 84.9006 19.5187C85.6489 19.8054 86.2407 20.2355 86.6758 20.809C87.1282 21.3824 87.4415 22.0902 87.6155 22.9325C87.7896 23.7568 87.8766 24.7155 87.8766 25.8086V32.448H84.2741V30.8083ZM83.3082 26.7226C83.0124 26.7226 82.6382 26.7405 82.1857 26.7763C81.7506 26.7942 81.3242 26.8659 80.9066 26.9914C80.5063 27.1168 80.1582 27.305 79.8624 27.5558C79.5839 27.8067 79.4447 28.1562 79.4447 28.6042C79.4447 29.088 79.6448 29.4464 80.0451 29.6794C80.4454 29.9123 80.8631 30.0288 81.2981 30.0288C81.681 30.0288 82.0465 29.975 82.3945 29.8675C82.76 29.76 83.082 29.6077 83.3604 29.4106C83.6389 29.2134 83.8564 28.9626 84.013 28.6579C84.1871 28.3533 84.2741 27.9949 84.2741 27.5827V26.7226H83.3082Z" fill="white"/>
<path d="M90.3333 19.3843H94.0924V21.1584H94.1446C94.2664 20.9075 94.4405 20.6566 94.6667 20.4058C94.8929 20.1549 95.1627 19.9309 95.476 19.7338C95.7892 19.5366 96.146 19.3754 96.5463 19.2499C96.9465 19.1245 97.3816 19.0618 97.8515 19.0618C98.7391 19.0618 99.5222 19.2499 100.201 19.6262C100.897 20.0026 101.419 20.5939 101.767 21.4003C102.22 20.5581 102.768 19.9578 103.412 19.5994C104.056 19.241 104.848 19.0618 105.787 19.0618C106.64 19.0618 107.354 19.2141 107.928 19.5187C108.52 19.8054 108.981 20.2086 109.312 20.7283C109.66 21.2301 109.903 21.8304 110.042 22.5293C110.199 23.2102 110.277 23.945 110.277 24.7334V32.448H106.362V24.841C106.362 24.2317 106.231 23.712 105.97 23.2819C105.726 22.8339 105.283 22.6099 104.639 22.6099C104.186 22.6099 103.803 22.6906 103.49 22.8518C103.194 22.9952 102.951 23.2013 102.759 23.4701C102.585 23.7389 102.455 24.0525 102.368 24.4109C102.298 24.7693 102.263 25.1456 102.263 25.5398V32.448H98.3475V25.5398C98.3475 25.3069 98.3388 25.0202 98.3214 24.6797C98.304 24.3392 98.2431 24.0166 98.1387 23.712C98.0342 23.4074 97.8602 23.1475 97.6166 22.9325C97.3903 22.7174 97.051 22.6099 96.5985 22.6099C96.0938 22.6099 95.6848 22.7085 95.3715 22.9056C95.0583 23.0848 94.8146 23.3357 94.6406 23.6582C94.484 23.9629 94.3795 24.3123 94.3273 24.7066C94.2751 25.1008 94.249 25.513 94.249 25.943V32.448H90.3333V19.3843Z" fill="white"/>
<path d="M113.413 19.3843H117.016V21.1046H117.068C117.224 20.8717 117.425 20.6387 117.668 20.4058C117.929 20.1549 118.225 19.9309 118.556 19.7338C118.904 19.5366 119.278 19.3754 119.678 19.2499C120.079 19.1245 120.505 19.0618 120.957 19.0618C121.897 19.0618 122.75 19.232 123.516 19.5725C124.281 19.895 124.934 20.361 125.474 20.9702C126.03 21.5616 126.457 22.2694 126.753 23.0938C127.049 23.9181 127.196 24.823 127.196 25.8086C127.196 26.7226 127.057 27.6006 126.779 28.4429C126.518 29.2672 126.135 30.0019 125.63 30.647C125.143 31.2922 124.542 31.8118 123.829 32.2061C123.115 32.5824 122.306 32.7706 121.401 32.7706C120.583 32.7706 119.817 32.6451 119.104 32.3942C118.408 32.1254 117.834 31.6774 117.381 31.0502H117.329V38.5766H113.413V19.3843ZM117.016 25.9162C117.016 26.9018 117.285 27.6992 117.825 28.3085C118.382 28.9178 119.156 29.2224 120.148 29.2224C121.14 29.2224 121.906 28.9178 122.445 28.3085C123.002 27.6992 123.281 26.9018 123.281 25.9162C123.281 24.9306 123.002 24.1331 122.445 23.5238C121.906 22.9146 121.14 22.6099 120.148 22.6099C119.156 22.6099 118.382 22.9146 117.825 23.5238C117.285 24.1331 117.016 24.9306 117.016 25.9162Z" fill="white"/>
<path d="M141.708 32.448H137.949V30.6739H137.896C137.757 30.9248 137.574 31.1757 137.348 31.4266C137.139 31.6774 136.878 31.9014 136.565 32.0986C136.252 32.2957 135.895 32.457 135.495 32.5824C135.095 32.7078 134.659 32.7706 134.19 32.7706C133.198 32.7706 132.388 32.6182 131.762 32.3136C131.153 31.991 130.674 31.552 130.326 30.9965C129.995 30.441 129.769 29.7869 129.647 29.0342C129.543 28.2816 129.491 27.4662 129.491 26.5882V19.3843H133.406V25.7818C133.406 26.1581 133.415 26.5523 133.433 26.9645C133.467 27.3587 133.546 27.7261 133.667 28.0666C133.807 28.407 134.007 28.6848 134.268 28.8998C134.546 29.1149 134.938 29.2224 135.443 29.2224C135.947 29.2224 136.356 29.1328 136.67 28.9536C136.983 28.7565 137.218 28.5056 137.374 28.201C137.548 27.8784 137.661 27.52 137.714 27.1258C137.766 26.7315 137.792 26.3194 137.792 25.8893V19.3843H141.708V32.448Z" fill="white"/>
<path d="M151.659 23.2282C151.085 22.4934 150.328 22.1261 149.388 22.1261C149.058 22.1261 148.736 22.2067 148.422 22.368C148.109 22.5293 147.953 22.807 147.953 23.2013C147.953 23.5238 148.109 23.7658 148.422 23.927C148.753 24.0704 149.162 24.2048 149.649 24.3302C150.154 24.4378 150.685 24.5632 151.242 24.7066C151.816 24.832 152.347 25.0381 152.834 25.3248C153.339 25.6115 153.748 26.0058 154.061 26.5075C154.392 26.9914 154.557 27.6454 154.557 28.4698C154.557 29.312 154.374 30.0109 154.009 30.5664C153.661 31.104 153.208 31.543 152.651 31.8835C152.095 32.2061 151.468 32.4301 150.772 32.5555C150.076 32.6989 149.388 32.7706 148.71 32.7706C147.822 32.7706 146.926 32.6451 146.021 32.3942C145.116 32.1254 144.35 31.6595 143.724 30.9965L146.099 28.2816C146.465 28.7475 146.865 29.1059 147.3 29.3568C147.752 29.5898 148.275 29.7062 148.866 29.7062C149.319 29.7062 149.728 29.6435 150.093 29.5181C150.459 29.3747 150.641 29.1238 150.641 28.7654C150.641 28.425 150.476 28.1741 150.145 28.0128C149.832 27.8336 149.423 27.6902 148.918 27.5827C148.431 27.4573 147.9 27.3318 147.326 27.2064C146.769 27.063 146.238 26.857 145.734 26.5882C145.246 26.3194 144.837 25.943 144.507 25.4592C144.193 24.9574 144.037 24.2944 144.037 23.4701C144.037 22.6995 144.185 22.0365 144.481 21.481C144.794 20.9254 145.194 20.4685 145.681 20.1101C146.186 19.7517 146.76 19.4918 147.404 19.3306C148.048 19.1514 148.701 19.0618 149.362 19.0618C150.198 19.0618 151.042 19.1872 151.894 19.4381C152.747 19.689 153.469 20.137 154.061 20.7821L151.659 23.2282Z" fill="white"/>
<path d="M154.39 31.7655C155.011 31.6868 155.47 31.5293 155.767 31.293C156.065 31.0567 156.311 30.5711 156.506 29.8361L159.706 17.7743C159.765 17.5293 159.816 17.3149 159.859 17.1311C159.935 16.7549 159.973 16.4618 159.973 16.2517C159.973 15.823 159.854 15.5518 159.617 15.438C159.379 15.3243 158.865 15.2324 158.074 15.1624V14.4668H165.263C166.869 14.4668 168.114 14.6286 168.998 14.9524C170.621 15.5474 171.433 16.6849 171.433 18.3649C171.433 18.9249 171.297 19.5243 171.025 20.163C170.753 20.793 170.298 21.3661 169.661 21.8824C169.21 22.2499 168.684 22.5474 168.08 22.7749C167.723 22.9061 167.167 23.0636 166.41 23.2474C166.487 23.5274 166.538 23.7024 166.563 23.7724L168.59 29.8361C168.862 30.6499 169.151 31.1705 169.457 31.398C169.771 31.6167 170.247 31.7393 170.884 31.7655V32.448H165.633L162.816 23.5624H162.064L160.522 29.1536L160.305 30.0855C160.288 30.1555 160.275 30.2342 160.267 30.3218C160.258 30.4005 160.254 30.4836 160.254 30.5711C160.254 31.0524 160.364 31.3542 160.585 31.4767C160.815 31.5992 161.337 31.6955 162.153 31.7655V32.448H154.39V31.7655ZM162.306 22.683C163.241 22.6655 163.938 22.6042 164.396 22.4993C165.212 22.3243 165.837 21.983 166.27 21.4755C166.568 21.1255 166.844 20.6355 167.099 20.0055C167.362 19.3668 167.494 18.6799 167.494 17.9449C167.494 17.1924 167.311 16.5711 166.946 16.0811C166.58 15.5824 165.96 15.333 165.085 15.333C164.719 15.333 164.456 15.4161 164.295 15.5824C164.133 15.7399 163.993 16.0549 163.874 16.5274L162.306 22.683Z" fill="white"/>
<path d="M181.107 22.0136C181.107 21.7074 181.052 21.4492 180.942 21.2393C180.831 21.0205 180.631 20.9111 180.342 20.9111C179.731 20.9111 179.127 21.4186 178.532 22.4336C177.946 23.4486 177.423 24.8705 176.965 26.6992C178.469 26.3493 179.535 25.6755 180.164 24.678C180.793 23.6805 181.107 22.7924 181.107 22.0136ZM173.255 28.6549C173.255 26.6249 174.012 24.6955 175.524 22.8667C177.088 20.9767 178.804 20.0318 180.674 20.0318C181.481 20.0318 182.148 20.2374 182.675 20.6486C183.21 21.0599 183.478 21.6418 183.478 22.3943C183.478 23.5318 182.858 24.608 181.617 25.623C180.376 26.638 178.766 27.2855 176.786 27.5655C176.735 27.8367 176.697 28.0905 176.671 28.3267C176.646 28.563 176.633 28.7555 176.633 28.9042C176.633 29.4555 176.71 29.8886 176.863 30.2036C177.135 30.7899 177.657 31.083 178.43 31.083C179.059 31.083 179.684 30.7505 180.304 30.0855C180.636 29.7355 180.993 29.2499 181.375 28.6286L182.14 29.088C181.485 30.2167 180.869 31.0436 180.291 31.5686C179.374 32.4086 178.299 32.8286 177.067 32.8286C176.149 32.8286 175.282 32.4874 174.466 31.8049C173.659 31.1136 173.255 30.0636 173.255 28.6549Z" fill="white"/>
<path d="M192.707 22.0136C192.707 21.7074 192.651 21.4492 192.541 21.2393C192.43 21.0205 192.231 20.9111 191.942 20.9111C191.33 20.9111 190.727 21.4186 190.132 22.4336C189.545 23.4486 189.023 24.8705 188.564 26.6992C190.068 26.3493 191.134 25.6755 191.763 24.678C192.392 23.6805 192.707 22.7924 192.707 22.0136ZM184.855 28.6549C184.855 26.6249 185.611 24.6955 187.124 22.8667C188.687 20.9767 190.404 20.0318 192.273 20.0318C193.08 20.0318 193.748 20.2374 194.274 20.6486C194.81 21.0599 195.077 21.6418 195.077 22.3943C195.077 23.5318 194.457 24.608 193.216 25.623C191.976 26.638 190.365 27.2855 188.385 27.5655C188.335 27.8367 188.296 28.0905 188.271 28.3267C188.245 28.563 188.233 28.7555 188.233 28.9042C188.233 29.4555 188.309 29.8886 188.462 30.2036C188.734 30.7899 189.257 31.083 190.03 31.083C190.659 31.083 191.283 30.7505 191.904 30.0855C192.235 29.7355 192.592 29.2499 192.974 28.6286L193.739 29.088C193.085 30.2167 192.469 31.0436 191.891 31.5686C190.973 32.4086 189.898 32.8286 188.666 32.8286C187.748 32.8286 186.881 32.4874 186.066 31.8049C185.258 31.1136 184.855 30.0636 184.855 28.6549Z" fill="white"/>
<path d="M196.48 30.8993C196.48 30.6718 196.535 30.313 196.645 29.823C196.696 29.5868 196.781 29.2411 196.9 28.7861L199.985 17.2099C200.061 16.9124 200.117 16.6718 200.151 16.488C200.185 16.3043 200.202 16.1467 200.202 16.0155C200.202 15.6217 200.074 15.3811 199.819 15.2936C199.564 15.2061 199.148 15.1711 198.57 15.1886V14.4668C199.862 14.3355 200.733 14.2392 201.183 14.178C201.642 14.108 202.581 13.9374 204 13.6661L200.227 27.723C200.04 28.4317 199.925 28.8824 199.883 29.0749C199.73 29.7136 199.653 30.138 199.653 30.348C199.653 30.5317 199.7 30.6543 199.794 30.7155C199.887 30.7768 199.972 30.8074 200.049 30.8074C200.303 30.8074 200.626 30.5799 201.017 30.1249C201.417 29.6699 201.769 29.1799 202.075 28.6549L202.649 29.0355C201.884 30.243 201.264 31.083 200.788 31.5555C199.998 32.343 199.156 32.7368 198.264 32.7368C197.78 32.7368 197.359 32.5705 197.002 32.238C196.654 31.8968 196.48 31.4505 196.48 30.8993Z" fill="white"/>
</svg>
