<svg width="155" height="58" viewBox="0 0 155 58" fill="none" xmlns="http://www.w3.org/2000/svg">
<mask id="mask0_8033_7648" style="mask-type:alpha" maskUnits="userSpaceOnUse" x="53" y="0" width="49" height="41">
<rect width="40.7451" height="31.0643" transform="matrix(0.96591 0.25888 -0.256293 0.966599 61.8291 0)" fill="#C4C4C4"/>
</mask>
<g mask="url(#mask0_8033_7648)">
<path d="M81.7309 18.4599C82.7601 10.4475 78.5651 4.44761 78.5651 4.44761C78.5651 4.44761 76.8653 8.01512 75.0672 11.5964C73.5566 14.6049 71.8485 17.7518 71.7634 19.0794C71.3429 25.6426 76.8749 29.664 76.8749 29.664C76.8749 29.664 80.9128 24.8285 81.7309 18.4599Z" fill="white"/>
<path d="M86.8124 32.9334C92.6524 32.6817 96.4063 28.8923 96.4063 28.8923C96.4063 28.8923 93.6512 28.1041 90.874 27.2463C88.541 26.5257 86.0847 25.6791 85.1277 25.7828C80.3967 26.2954 78.2199 30.8077 78.2199 30.8077C78.2199 30.8077 82.1705 33.1335 86.8124 32.9334Z" fill="white"/>
<path fill-rule="evenodd" clip-rule="evenodd" d="M73.3917 11.3012C72.6799 10.9402 71.9205 10.6472 71.1194 10.4325C64.8874 8.76222 58.4947 12.4649 56.8407 18.7026C55.1868 24.9404 58.898 31.3511 65.1299 33.0214C69.0479 34.0714 73.0294 32.9979 75.857 30.5058L72.2652 28.2233C70.5144 29.3399 68.3185 29.7452 66.1525 29.1647C62.0499 28.0651 59.6053 23.8441 60.6947 19.7356C61.7841 15.627 65.9941 13.1896 70.0968 14.2892C70.6159 14.4283 71.1085 14.6174 71.5707 14.85L73.3917 11.3012Z" fill="white"/>
<path fill-rule="evenodd" clip-rule="evenodd" d="M71.2103 16.3933C70.7959 16.1752 70.3505 15.9993 69.8785 15.8728C66.5345 14.9765 63.1206 16.9017 62.2533 20.1727C61.4883 23.0579 62.9602 26.0266 65.6129 27.3018L67.1745 24.2584C65.8738 23.6874 65.2274 22.2999 65.5567 21.0581C65.9212 19.6833 67.4111 18.7521 69.002 19.1785C69.2347 19.2409 69.4512 19.3274 69.6501 19.4339L71.2103 16.3933Z" fill="white"/>
<path d="M69.102 19.8425L64.8879 20.8919L64.3803 22.0821C64.3803 22.0821 64.8851 22.7086 65.3152 22.901C65.6129 23.0342 65.9186 23.1593 66.1218 23.1172C66.7506 22.9869 67.6538 22.7699 67.6538 22.7699L69.102 19.8425Z" fill="white"/>
</g>
<path d="M77.471 54.1962C77.2592 54.371 76.9969 54.5047 76.6838 54.5973C76.38 54.6796 76.0578 54.7207 75.7172 54.7207C74.8333 54.7207 74.1475 54.4687 73.6595 53.9647C73.1808 53.4608 72.9414 52.7202 72.9414 51.743V48.3334V46.4819V44.4608H75.0957V46.4819H76.7689C76.7689 46.4819 76.8774 46.4737 76.9462 46.4819C77.5897 46.5589 77.5897 48.2564 76.9462 48.3334C76.8774 48.3416 76.7689 48.3334 76.7689 48.3334H75.0957V51.7122C75.0957 52.0619 75.174 52.3345 75.3305 52.5299C75.4962 52.715 75.7264 52.8076 76.021 52.8076C76.2039 52.8076 76.3722 52.778 76.5259 52.7186C76.6796 52.6593 77.6827 54.0213 77.471 54.1962Z" fill="white"/>
<path d="M70.9854 54.6141C71.2981 54.5338 71.5602 54.4178 71.7718 54.2661C71.9834 54.1144 70.9812 52.9327 70.8276 52.9842C70.674 53.0357 70.5058 53.0614 70.3231 53.0614C70.0287 53.0614 69.7988 52.9811 69.6332 52.8205C69.4769 52.6509 69.3987 52.4144 69.3987 52.111V49.1797V47.6866V47.5734C69.3987 47.4921 67.3347 46.5384 67.2463 47.3539C67.2371 47.4391 67.2463 47.5734 67.2463 47.5734V49.1797V52.1378C67.2463 52.9856 67.4854 53.6281 67.9638 54.0653C68.4513 54.5026 69.1365 54.7212 70.0195 54.7212C70.3599 54.7212 70.6818 54.6855 70.9854 54.6141Z" fill="white"/>
<path d="M87.7287 47.5783C87.7153 47.6103 87.6905 47.6587 87.6905 47.6587L84.2669 54.8492C83.9155 55.6387 83.4786 56.1947 82.9563 56.5173C82.4434 56.8399 81.8213 57.0012 81.09 57.0012C80.6911 57.0012 80.297 56.946 79.9076 56.8356C79.5182 56.7253 79.2001 56.5725 78.9531 56.3772C78.7062 56.182 80.1213 55.2057 80.3492 55.2821C80.5772 55.3585 80.8004 55.3967 81.0188 55.3967C81.3227 55.3967 81.5696 55.3288 81.7596 55.193C81.9495 55.0657 82.1205 54.8492 82.2725 54.5436L82.3009 54.4799L79.0785 47.7797C79.0785 47.7797 79.0103 47.66 78.9816 47.5783C78.7137 46.8144 80.8566 46.8706 81.2752 47.5783C81.3197 47.6536 81.3684 47.7797 81.3684 47.7797L83.4264 52.2261L85.5544 47.6587C85.5544 47.6587 85.5757 47.6091 85.5918 47.5783C85.9441 46.9022 88.0223 46.8801 87.7287 47.5783Z" fill="white"/>
<path d="M5.27162 54.7207C4.27942 54.7207 3.37996 54.5034 2.57322 54.0689C1.77575 53.6248 1.1452 53.0155 0.681555 52.2408C0.227185 51.4566 0 50.5733 0 49.5908C0 48.6082 0.227185 47.7296 0.681555 46.9549C1.1452 46.1708 1.77575 45.5614 2.57322 45.1269C3.37996 44.6828 4.28406 44.4608 5.28553 44.4608C6.12936 44.4608 6.88973 44.612 7.56665 44.9143C8.24357 45.2166 8.58778 48.1156 7.84484 47.5785C7.10189 47.0413 6.37045 46.4164 5.3968 46.4164C4.79407 46.4164 4.25624 46.5534 3.78332 46.8274C3.31041 47.0919 2.9395 47.4651 2.67058 47.9469C2.41094 48.4287 2.28112 48.9767 2.28112 49.5908C2.28112 50.2049 2.41094 50.7528 2.67058 51.2346C2.9395 51.7165 3.31041 52.0944 3.78332 52.3683C4.25624 52.6329 4.79407 52.7651 5.3968 52.7651C6.37045 52.7651 7.18646 52.3731 7.84484 51.5889C8.50321 50.8048 8.25284 53.9649 7.56665 54.2673C6.88046 54.5696 6.11545 54.7207 5.27162 54.7207Z" fill="white"/>
<path d="M14.1106 54.7212C13.3183 54.7212 12.6053 54.5591 11.9715 54.235C11.347 53.9017 10.8576 53.4433 10.5035 52.86C10.1493 52.2766 9.97217 51.6145 9.97217 50.8737C9.97217 50.1329 10.1493 49.4708 10.5035 48.8875C10.8576 48.3041 11.347 47.8504 11.9715 47.5263C12.6053 47.1929 13.3183 47.0262 14.1106 47.0262C14.9029 47.0262 15.6112 47.1929 16.2357 47.5263C16.8602 47.8504 17.3495 48.3041 17.7037 48.8875C18.0579 49.4708 18.235 50.1329 18.235 50.8737C18.235 51.6145 18.0579 52.2766 17.7037 52.86C17.3495 53.4433 16.8602 53.9017 16.2357 54.235C15.6112 54.5591 14.9029 54.7212 14.1106 54.7212ZM14.1106 52.9433C14.6698 52.9433 15.1265 52.7581 15.4807 52.3877C15.8442 52.008 16.026 51.5034 16.026 50.8737C16.026 50.244 15.8442 49.744 15.4807 49.3736C15.1265 48.994 14.6698 48.8041 14.1106 48.8041C13.5513 48.8041 13.09 48.994 12.7265 49.3736C12.3629 49.744 12.1812 50.244 12.1812 50.8737C12.1812 51.5034 12.3629 52.008 12.7265 52.3877C13.09 52.7581 13.5513 52.9433 14.1106 52.9433Z" fill="white"/>
<path fill-rule="evenodd" clip-rule="evenodd" d="M52.2839 54.7203C52.3321 54.7215 52.3796 54.7222 52.4265 54.7222V54.7148C53.4341 54.6638 54.6445 54.3512 55.2063 53.8309C55.8224 53.2604 56.1304 52.4141 56.1304 51.2918V47.0272H53.8054V50.9692C53.8054 52.1305 53.2753 52.7543 52.2839 52.8079C51.2926 52.7543 50.7625 52.1305 50.7625 50.9692V47.0272H48.4375V51.2918C48.4375 52.4141 48.7455 53.2604 49.3615 53.8309C49.9234 54.3512 51.1338 54.6638 52.1414 54.7148V54.7222C52.1883 54.7222 52.2358 54.7215 52.2839 54.7203Z" fill="white"/>
<path fill-rule="evenodd" clip-rule="evenodd" d="M105.565 54.4351C105.613 54.4364 105.661 54.437 105.708 54.437V54.4296C106.715 54.3787 107.926 54.0661 108.488 53.5458C109.104 52.9753 109.412 52.1289 109.412 51.0067V46.7421H107.087V50.684C107.087 51.8453 106.557 52.4692 105.565 52.5227C104.574 52.4692 104.044 51.8453 104.044 50.684V46.7421H101.719V51.0067C101.719 52.1289 102.027 52.9753 102.643 53.5458C103.205 54.0661 104.415 54.3787 105.423 54.4296V54.437C105.47 54.437 105.517 54.4364 105.565 54.4351Z" fill="white"/>
<path fill-rule="evenodd" clip-rule="evenodd" d="M61.6861 46.7426C61.7341 46.7413 61.7815 46.7406 61.8283 46.7406V46.7483C62.836 46.801 64.0468 47.1252 64.6087 47.6649C65.2248 48.2565 65.5328 49.1342 65.5328 50.298V54.7206H63.2078V50.6326C63.2078 49.4282 62.6776 48.7813 61.6861 48.7258C60.6945 48.7813 60.1643 49.4282 60.1643 50.6326V54.7206H57.8394V50.298C57.8394 49.1342 58.1474 48.2565 58.7634 47.6649C59.3253 47.1252 60.5361 46.801 61.5438 46.7483V46.7406C61.5906 46.7406 61.638 46.7413 61.6861 46.7426Z" fill="white"/>
<path fill-rule="evenodd" clip-rule="evenodd" d="M114.682 46.7426C114.73 46.7413 114.778 46.7406 114.824 46.7406V46.7483C115.832 46.801 117.043 47.1252 117.605 47.6649C118.221 48.2565 118.529 49.1342 118.529 50.298V54.7206H116.204V50.6326C116.204 49.4282 115.674 48.7813 114.682 48.7258C113.691 48.7813 113.16 49.4282 113.16 50.6326V54.7206H110.835V50.298C110.835 49.1342 111.143 48.2565 111.759 47.6649C112.321 47.1252 113.532 46.801 114.54 46.7483V46.7406C114.587 46.7406 114.634 46.7413 114.682 46.7426Z" fill="white"/>
<path fill-rule="evenodd" clip-rule="evenodd" d="M23.0706 47.0272C22.1139 47.0272 21.3561 47.3091 20.7973 47.8728C20.229 48.4272 19.9448 49.2634 19.9448 50.3814V54.7222H22.1613V50.7197C22.1613 50.1184 22.2891 49.6721 22.5449 49.3808C22.7912 49.0801 23.1464 48.9298 23.6105 48.9298C24.1314 48.9298 24.5435 49.0989 24.8466 49.4372C25.1001 49.7122 25.1323 50.1023 25.1361 50.6074C25.0961 50.6785 25.0732 50.7197 25.0732 50.7197V54.7222H25.1365H27.2896H27.3529V50.7197C27.3529 50.7197 27.33 50.6785 27.29 50.6074C27.2938 50.1023 27.326 49.7122 27.5795 49.4372C27.8826 49.0989 28.2947 48.9298 28.8156 48.9298C29.2797 48.9298 29.6349 49.0801 29.8812 49.3808C30.137 49.6721 30.2648 50.1184 30.2648 50.7197V54.7222H32.4813V50.3814C32.4813 49.2634 32.1971 48.4272 31.6288 47.8728C31.07 47.3091 30.3122 47.0272 29.3555 47.0272C28.7872 47.0272 28.2615 47.1353 27.7784 47.3514C27.3048 47.5675 26.9118 47.8728 26.5992 48.2674C26.5992 48.2674 26.5122 48.3605 26.2131 48.8038C25.9139 48.3605 25.8269 48.2674 25.8269 48.2674C25.5143 47.8728 25.1213 47.5675 24.6477 47.3514C24.1646 47.1353 23.6389 47.0272 23.0706 47.0272Z" fill="white"/>
<path fill-rule="evenodd" clip-rule="evenodd" d="M37.3174 47.0262C36.3607 47.0262 35.603 47.3081 35.0441 47.8718C34.4758 48.4262 34.1917 49.2624 34.1917 50.3805V54.7212H36.4081V50.7187C36.4081 50.1174 36.536 49.6711 36.7917 49.3798C37.038 49.0792 37.3932 48.9288 37.8573 48.9288C38.3783 48.9288 38.7903 49.098 39.0934 49.4362C39.3469 49.7112 39.3791 50.1012 39.3829 50.6062C39.3429 50.6774 39.3199 50.7187 39.3199 50.7187V54.7212H39.3833H41.5363H41.5997V50.7187C41.5997 50.7187 41.5768 50.6774 41.5367 50.6062C41.5405 50.1012 41.5728 49.7112 41.8262 49.4362C42.1293 49.098 42.5414 48.9288 43.0623 48.9288C43.5264 48.9288 43.8816 49.0792 44.1279 49.3798C44.3837 49.6711 44.5115 50.1174 44.5115 50.7187V54.7212H46.728V50.3805C46.728 49.2624 46.4438 48.4262 45.8755 47.8718C45.3167 47.3081 44.5589 47.0262 43.6022 47.0262C43.0339 47.0262 42.5082 47.1343 42.0251 47.3504C41.5515 47.5665 41.1585 47.8718 40.8459 48.2665C40.8459 48.2665 40.759 48.3595 40.4598 48.8027C40.1607 48.3595 40.0738 48.2665 40.0738 48.2665C39.7612 47.8718 39.3681 47.5665 38.8945 47.3504C38.4114 47.1343 37.8857 47.0262 37.3174 47.0262Z" fill="white"/>
<circle cx="68.3822" cy="45.6008" r="1.13999" fill="white"/>
<path d="M150.688 44.8639H149.872V44.4608H151.962V44.8639H151.145V47.0258H150.688V44.8639Z" fill="white"/>
<path d="M154.567 47.0258L154.564 45.3256L153.755 46.7327H153.551L152.741 45.3476V47.0258H152.305V44.4608H152.681L153.66 46.161L154.62 44.4608H154.997L155 47.0258H154.567Z" fill="white"/>
<path fill-rule="evenodd" clip-rule="evenodd" d="M132.42 51.4849C132.523 51.9479 132.767 52.3136 133.152 52.5822C133.536 52.8507 134.015 52.985 134.587 52.985C134.981 52.985 135.328 52.9294 135.628 52.8183C135.848 52.7326 136.057 52.614 136.254 52.4626C136.45 52.3112 138.367 52.7072 137.654 53.5128C136.941 54.3184 135.9 54.7212 134.531 54.7212C133.677 54.7212 132.922 54.5591 132.265 54.235C131.609 53.9017 131.102 53.4433 130.746 52.86C130.389 52.2766 130.211 51.6145 130.211 50.8737C130.211 50.1422 130.384 49.4847 130.732 48.9014C131.088 48.3087 131.571 47.8504 132.181 47.5263C132.8 47.1929 133.489 47.0262 134.249 47.0262C134.99 47.0262 135.661 47.1837 136.261 47.4985C136.862 47.8133 137.331 48.2671 137.668 48.8597C138.015 49.4431 138.189 50.3181 138.189 50.9015C138.189 51.4849 137.8 51.4849 137.8 51.4849H132.42ZM133.011 49.0819C133.349 48.8041 133.766 48.6652 134.263 48.6652C134.751 48.6652 135.164 48.8088 135.501 49.0958C135.839 49.3736 136.045 49.7486 136.121 50.2209H132.392C132.467 49.7394 132.673 49.3597 133.011 49.0819Z" fill="white"/>
<path fill-rule="evenodd" clip-rule="evenodd" d="M127.101 53.908C126.026 54.6804 125.065 54.7207 124.031 54.7207C123.317 54.7207 122.668 54.5657 122.086 54.2556C121.512 53.9455 121.061 53.5032 120.732 52.9287C120.403 52.3541 120.239 51.6884 120.239 50.9314C120.239 50.1745 120.403 49.5087 120.732 48.9341C121.061 48.3596 121.512 47.9173 122.086 47.6072C122.668 47.2971 123.317 47.1421 124.031 47.1421C124.999 47.1421 125.756 47.4385 126.301 48.0313V44.4608H128.501V51.3028C128.501 51.3028 128.535 51.9604 128.215 52.6007C128.065 52.901 127.97 53.076 127.692 53.3648C127.411 53.6565 127.101 53.908 127.101 53.908ZM125.794 52.4225C125.427 52.7873 124.966 52.9697 124.412 52.9697C123.848 52.9697 123.383 52.7873 123.016 52.4225C122.65 52.0486 122.466 51.5516 122.466 50.9314C122.466 50.3113 122.65 49.8188 123.016 49.454C123.383 49.0801 123.848 48.8931 124.412 48.8931C124.966 48.8931 125.427 49.0801 125.794 49.454C126.16 49.8188 126.343 50.3113 126.343 50.9314C126.343 51.5516 126.16 52.0486 125.794 52.4225Z" fill="white"/>
<path fill-rule="evenodd" clip-rule="evenodd" d="M146.761 53.908C145.685 54.6804 144.725 54.7207 143.691 54.7207C142.977 54.7207 142.328 54.5657 141.745 54.2556C141.172 53.9455 140.721 53.5032 140.392 52.9287C140.063 52.3541 139.898 51.6884 139.898 50.9314C139.898 50.1745 140.063 49.5087 140.392 48.9341C140.721 48.3596 141.172 47.9173 141.745 47.6072C142.328 47.2971 142.977 47.1421 143.691 47.1421C144.659 47.1421 145.416 47.4385 145.961 48.0313V44.4608H148.16V51.3028C148.16 51.3028 148.195 51.9604 147.875 52.6007C147.725 52.901 147.629 53.076 147.351 53.3648C147.07 53.6565 146.761 53.908 146.761 53.908ZM145.453 52.4225C145.087 52.7873 144.626 52.9697 144.072 52.9697C143.508 52.9697 143.042 52.7873 142.676 52.4225C142.309 52.0486 142.126 51.5516 142.126 50.9314C142.126 50.3113 142.309 49.8188 142.676 49.454C143.042 49.0801 143.508 48.8931 144.072 48.8931C144.626 48.8931 145.087 49.0801 145.453 49.454C145.82 49.8188 146.003 50.3113 146.003 50.9314C146.003 51.5516 145.82 52.0486 145.453 52.4225Z" fill="white"/>
<path d="M95.1366 48.4998V46.3736H99.3646C99.3646 46.3736 99.5622 46.3939 99.6864 46.3736C100.415 46.2542 100.964 44.5946 100.236 44.4698C100.118 44.4496 99.9299 44.4698 99.9299 44.4698H92.8857V54.7207H95.1366V50.4036H98.8934C98.8934 50.4036 99.0257 50.4064 99.0702 50.4036C99.7871 50.358 100.245 48.5601 99.5289 48.4998C99.4716 48.495 99.3816 48.4998 99.3816 48.4998H95.1366Z" fill="white"/>
<path d="M95.1366 46.3736V48.4998H99.3816C99.3816 48.4998 99.4716 48.495 99.5289 48.4998C100.245 48.5601 99.7871 50.358 99.0702 50.4036C99.0257 50.4064 98.8934 50.4036 98.8934 50.4036H95.1366V54.7207H92.8857V44.4698H99.9299C99.9299 44.4698 100.118 44.4496 100.236 44.4698C100.964 44.5946 100.415 46.2542 99.6864 46.3736C99.5622 46.3939 99.3646 46.3736 99.3646 46.3736H95.1366Z" fill="white"/>
</svg>
