<svg width="150" height="40" viewBox="0 0 150 40" fill="none" xmlns="http://www.w3.org/2000/svg">
<mask id="path-1-outside-1_8033_7702" maskUnits="userSpaceOnUse" x="47" y="0" width="103" height="37" fill="black">
<rect fill="white" x="47" width="103" height="37"/>
<path d="M66.8197 25.8188C66.8197 29.1522 65.988 31.6763 64.3246 33.3913C62.685 35.1304 60.1781 36 56.8039 36C55.2594 36 53.7386 35.8188 52.2416 35.4565C50.7445 35.1184 49.3663 34.442 48.1069 33.4275L51.0653 28.9348C51.897 29.6353 52.7643 30.1908 53.6673 30.6014C54.594 31.0121 55.6039 31.2174 56.697 31.2174C58.3366 31.2174 59.5365 30.8068 60.2969 29.9855C61.0811 29.1884 61.4732 28.1618 61.4732 26.9058V25.2029H61.4019C60.7841 26.0483 60.0118 26.6522 59.0851 27.0145C58.1821 27.3527 57.3267 27.5217 56.5187 27.5217C55.2356 27.5217 54.0712 27.3043 53.0257 26.8696C51.9802 26.4106 51.0772 25.7826 50.3168 24.9855C49.5802 24.1642 49.0099 23.1981 48.6059 22.087C48.202 20.9758 48 19.756 48 18.4275C48 17.2681 48.1782 16.1328 48.5346 15.0217C48.9148 13.9106 49.4376 12.9324 50.103 12.087C50.7921 11.2415 51.6237 10.5652 52.598 10.058C53.5722 9.52657 54.6772 9.26087 55.9128 9.26087C56.6732 9.26087 57.3623 9.34541 57.9801 9.51449C58.6217 9.68357 59.192 9.90096 59.691 10.1667C60.19 10.4324 60.6177 10.7343 60.9742 11.0725C61.3306 11.3865 61.6157 11.7005 61.8296 12.0145H61.9009V9.69565H66.8197V25.8188ZM53.3465 18.3913C53.3465 18.971 53.4534 19.5266 53.6673 20.058C53.8811 20.5652 54.1782 21.0242 54.5584 21.4348C54.9623 21.8213 55.4138 22.1353 55.9128 22.3768C56.4356 22.6184 57.0059 22.7391 57.6237 22.7391C58.2177 22.7391 58.7762 22.6184 59.2989 22.3768C59.8217 22.1353 60.2732 21.8213 60.6534 21.4348C61.0573 21.0242 61.3662 20.5652 61.5801 20.058C61.794 19.5266 61.9009 18.971 61.9009 18.3913C61.9009 17.8116 61.794 17.2681 61.5801 16.7609C61.3662 16.2295 61.0573 15.7705 60.6534 15.3841C60.2732 14.9734 59.8217 14.6473 59.2989 14.4058C58.7762 14.1642 58.2177 14.0435 57.6237 14.0435C57.0059 14.0435 56.4356 14.1642 55.9128 14.4058C55.4138 14.6473 54.9623 14.9734 54.5584 15.3841C54.1782 15.7705 53.8811 16.2295 53.6673 16.7609C53.4534 17.2681 53.3465 17.8116 53.3465 18.3913Z"/>
<path d="M69.3818 9.69565H74.7283V27.3043H69.3818V9.69565ZM68.9541 4.15217C68.9541 3.28261 69.2511 2.54589 69.8452 1.94203C70.463 1.31401 71.1996 1 72.055 1C72.9105 1 73.6352 1.31401 74.2293 1.94203C74.8471 2.54589 75.156 3.28261 75.156 4.15217C75.156 5.02174 74.8471 5.77053 74.2293 6.39855C73.6352 7.00241 72.9105 7.30435 72.055 7.30435C71.1996 7.30435 70.463 7.00241 69.8452 6.39855C69.2511 5.77053 68.9541 5.02174 68.9541 4.15217Z"/>
<path d="M77.2863 9.69565H82.205V12.0145H82.2763C82.4902 11.7005 82.7634 11.3865 83.0961 11.0725C83.4525 10.7343 83.8565 10.4324 84.308 10.1667C84.7832 9.90096 85.2941 9.68357 85.8406 9.51449C86.3872 9.34541 86.9693 9.26087 87.5872 9.26087C88.8703 9.26087 90.0347 9.49034 91.0802 9.94927C92.1257 10.3841 93.0168 11.0121 93.7535 11.8333C94.5139 12.6304 95.096 13.5845 95.5 14.6957C95.9039 15.8068 96.1059 17.0266 96.1059 18.3551C96.1059 19.587 95.9158 20.7705 95.5356 21.9058C95.1792 23.0169 94.6564 24.0072 93.9673 24.8768C93.302 25.7464 92.4822 26.4469 91.5079 26.9783C90.5337 27.4855 89.4287 27.7391 88.1931 27.7391C87.0763 27.7391 86.0307 27.57 85.0565 27.2319C84.106 26.8696 83.3218 26.2657 82.704 25.4203H82.6328V35.5652H77.2863V9.69565ZM82.205 18.5C82.205 19.8285 82.5733 20.9034 83.31 21.7246C84.0704 22.5459 85.1278 22.9565 86.4822 22.9565C87.8367 22.9565 88.8822 22.5459 89.6188 21.7246C90.3792 20.9034 90.7594 19.8285 90.7594 18.5C90.7594 17.1715 90.3792 16.0966 89.6188 15.2754C88.8822 14.4541 87.8367 14.0435 86.4822 14.0435C85.1278 14.0435 84.0704 14.4541 83.31 15.2754C82.5733 16.0966 82.205 17.1715 82.205 18.5Z"/>
<path d="M97.9552 9.69565H102.874V12.0145H102.945C103.159 11.7005 103.432 11.3865 103.765 11.0725C104.121 10.7343 104.525 10.4324 104.977 10.1667C105.452 9.90096 105.963 9.68357 106.51 9.51449C107.056 9.34541 107.638 9.26087 108.256 9.26087C109.539 9.26087 110.704 9.49034 111.749 9.94927C112.795 10.3841 113.686 11.0121 114.422 11.8333C115.183 12.6304 115.765 13.5845 116.169 14.6957C116.573 15.8068 116.775 17.0266 116.775 18.3551C116.775 19.587 116.585 20.7705 116.205 21.9058C115.848 23.0169 115.325 24.0072 114.636 24.8768C113.971 25.7464 113.151 26.4469 112.177 26.9783C111.203 27.4855 110.098 27.7391 108.862 27.7391C107.745 27.7391 106.7 27.57 105.725 27.2319C104.775 26.8696 103.991 26.2657 103.373 25.4203H103.302V35.5652H97.9552V9.69565ZM102.874 18.5C102.874 19.8285 103.242 20.9034 103.979 21.7246C104.739 22.5459 105.797 22.9565 107.151 22.9565C108.506 22.9565 109.551 22.5459 110.288 21.7246C111.048 20.9034 111.428 19.8285 111.428 18.5C111.428 17.1715 111.048 16.0966 110.288 15.2754C109.551 14.4541 108.506 14.0435 107.151 14.0435C105.797 14.0435 104.739 14.4541 103.979 15.2754C103.242 16.0966 102.874 17.1715 102.874 18.5Z"/>
<path d="M134.521 24.2609C133.666 25.372 132.584 26.2295 131.277 26.8333C129.971 27.4372 128.616 27.7391 127.214 27.7391C125.883 27.7391 124.624 27.5217 123.436 27.087C122.272 26.6522 121.25 26.0362 120.371 25.2391C119.515 24.4179 118.838 23.4396 118.339 22.3043C117.84 21.1691 117.59 19.901 117.59 18.5C117.59 17.099 117.84 15.8309 118.339 14.6957C118.838 13.5604 119.515 12.5942 120.371 11.7971C121.25 10.9758 122.272 10.3478 123.436 9.91304C124.624 9.47826 125.883 9.26087 127.214 9.26087C128.45 9.26087 129.567 9.47826 130.565 9.91304C131.586 10.3478 132.442 10.9758 133.131 11.7971C133.844 12.5942 134.39 13.5604 134.771 14.6957C135.151 15.8309 135.341 17.099 135.341 18.5V20.2029H122.937C123.151 21.2415 123.614 22.0749 124.327 22.7029C125.04 23.3068 125.919 23.6087 126.965 23.6087C127.844 23.6087 128.58 23.4155 129.175 23.029C129.792 22.6184 130.327 22.099 130.778 21.471L134.521 24.2609ZM129.994 16.5072C130.018 15.5894 129.721 14.8043 129.103 14.1522C128.485 13.5 127.689 13.1739 126.715 13.1739C126.121 13.1739 125.598 13.2705 125.147 13.4638C124.695 13.657 124.303 13.9106 123.971 14.2246C123.662 14.5145 123.412 14.8647 123.222 15.2754C123.056 15.6618 122.961 16.0725 122.937 16.5072H129.994Z"/>
<path d="M136.81 9.69565H142.156V12.5217H142.228C142.798 11.4348 143.475 10.6256 144.259 10.0942C145.044 9.53865 146.03 9.26087 147.218 9.26087C147.527 9.26087 147.836 9.27295 148.145 9.2971C148.453 9.32126 148.739 9.36956 149 9.44203V14.4058C148.62 14.285 148.24 14.2005 147.859 14.1522C147.503 14.0797 147.123 14.0435 146.719 14.0435C145.697 14.0435 144.889 14.1884 144.295 14.4783C143.701 14.7681 143.238 15.1787 142.905 15.7101C142.596 16.2174 142.394 16.8333 142.299 17.558C142.204 18.2826 142.156 19.0797 142.156 19.9493V27.3043H136.81V9.69565Z"/>
</mask>
<path d="M66.8197 25.8188C66.8197 29.1522 65.988 31.6763 64.3246 33.3913C62.685 35.1304 60.1781 36 56.8039 36C55.2594 36 53.7386 35.8188 52.2416 35.4565C50.7445 35.1184 49.3663 34.442 48.1069 33.4275L51.0653 28.9348C51.897 29.6353 52.7643 30.1908 53.6673 30.6014C54.594 31.0121 55.6039 31.2174 56.697 31.2174C58.3366 31.2174 59.5365 30.8068 60.2969 29.9855C61.0811 29.1884 61.4732 28.1618 61.4732 26.9058V25.2029H61.4019C60.7841 26.0483 60.0118 26.6522 59.0851 27.0145C58.1821 27.3527 57.3267 27.5217 56.5187 27.5217C55.2356 27.5217 54.0712 27.3043 53.0257 26.8696C51.9802 26.4106 51.0772 25.7826 50.3168 24.9855C49.5802 24.1642 49.0099 23.1981 48.6059 22.087C48.202 20.9758 48 19.756 48 18.4275C48 17.2681 48.1782 16.1328 48.5346 15.0217C48.9148 13.9106 49.4376 12.9324 50.103 12.087C50.7921 11.2415 51.6237 10.5652 52.598 10.058C53.5722 9.52657 54.6772 9.26087 55.9128 9.26087C56.6732 9.26087 57.3623 9.34541 57.9801 9.51449C58.6217 9.68357 59.192 9.90096 59.691 10.1667C60.19 10.4324 60.6177 10.7343 60.9742 11.0725C61.3306 11.3865 61.6157 11.7005 61.8296 12.0145H61.9009V9.69565H66.8197V25.8188ZM53.3465 18.3913C53.3465 18.971 53.4534 19.5266 53.6673 20.058C53.8811 20.5652 54.1782 21.0242 54.5584 21.4348C54.9623 21.8213 55.4138 22.1353 55.9128 22.3768C56.4356 22.6184 57.0059 22.7391 57.6237 22.7391C58.2177 22.7391 58.7762 22.6184 59.2989 22.3768C59.8217 22.1353 60.2732 21.8213 60.6534 21.4348C61.0573 21.0242 61.3662 20.5652 61.5801 20.058C61.794 19.5266 61.9009 18.971 61.9009 18.3913C61.9009 17.8116 61.794 17.2681 61.5801 16.7609C61.3662 16.2295 61.0573 15.7705 60.6534 15.3841C60.2732 14.9734 59.8217 14.6473 59.2989 14.4058C58.7762 14.1642 58.2177 14.0435 57.6237 14.0435C57.0059 14.0435 56.4356 14.1642 55.9128 14.4058C55.4138 14.6473 54.9623 14.9734 54.5584 15.3841C54.1782 15.7705 53.8811 16.2295 53.6673 16.7609C53.4534 17.2681 53.3465 17.8116 53.3465 18.3913Z" fill="white"/>
<path d="M69.3818 9.69565H74.7283V27.3043H69.3818V9.69565ZM68.9541 4.15217C68.9541 3.28261 69.2511 2.54589 69.8452 1.94203C70.463 1.31401 71.1996 1 72.055 1C72.9105 1 73.6352 1.31401 74.2293 1.94203C74.8471 2.54589 75.156 3.28261 75.156 4.15217C75.156 5.02174 74.8471 5.77053 74.2293 6.39855C73.6352 7.00241 72.9105 7.30435 72.055 7.30435C71.1996 7.30435 70.463 7.00241 69.8452 6.39855C69.2511 5.77053 68.9541 5.02174 68.9541 4.15217Z" fill="white"/>
<path d="M77.2863 9.69565H82.205V12.0145H82.2763C82.4902 11.7005 82.7634 11.3865 83.0961 11.0725C83.4525 10.7343 83.8565 10.4324 84.308 10.1667C84.7832 9.90096 85.2941 9.68357 85.8406 9.51449C86.3872 9.34541 86.9693 9.26087 87.5872 9.26087C88.8703 9.26087 90.0347 9.49034 91.0802 9.94927C92.1257 10.3841 93.0168 11.0121 93.7535 11.8333C94.5139 12.6304 95.096 13.5845 95.5 14.6957C95.9039 15.8068 96.1059 17.0266 96.1059 18.3551C96.1059 19.587 95.9158 20.7705 95.5356 21.9058C95.1792 23.0169 94.6564 24.0072 93.9673 24.8768C93.302 25.7464 92.4822 26.4469 91.5079 26.9783C90.5337 27.4855 89.4287 27.7391 88.1931 27.7391C87.0763 27.7391 86.0307 27.57 85.0565 27.2319C84.106 26.8696 83.3218 26.2657 82.704 25.4203H82.6328V35.5652H77.2863V9.69565ZM82.205 18.5C82.205 19.8285 82.5733 20.9034 83.31 21.7246C84.0704 22.5459 85.1278 22.9565 86.4822 22.9565C87.8367 22.9565 88.8822 22.5459 89.6188 21.7246C90.3792 20.9034 90.7594 19.8285 90.7594 18.5C90.7594 17.1715 90.3792 16.0966 89.6188 15.2754C88.8822 14.4541 87.8367 14.0435 86.4822 14.0435C85.1278 14.0435 84.0704 14.4541 83.31 15.2754C82.5733 16.0966 82.205 17.1715 82.205 18.5Z" fill="white"/>
<path d="M97.9552 9.69565H102.874V12.0145H102.945C103.159 11.7005 103.432 11.3865 103.765 11.0725C104.121 10.7343 104.525 10.4324 104.977 10.1667C105.452 9.90096 105.963 9.68357 106.51 9.51449C107.056 9.34541 107.638 9.26087 108.256 9.26087C109.539 9.26087 110.704 9.49034 111.749 9.94927C112.795 10.3841 113.686 11.0121 114.422 11.8333C115.183 12.6304 115.765 13.5845 116.169 14.6957C116.573 15.8068 116.775 17.0266 116.775 18.3551C116.775 19.587 116.585 20.7705 116.205 21.9058C115.848 23.0169 115.325 24.0072 114.636 24.8768C113.971 25.7464 113.151 26.4469 112.177 26.9783C111.203 27.4855 110.098 27.7391 108.862 27.7391C107.745 27.7391 106.7 27.57 105.725 27.2319C104.775 26.8696 103.991 26.2657 103.373 25.4203H103.302V35.5652H97.9552V9.69565ZM102.874 18.5C102.874 19.8285 103.242 20.9034 103.979 21.7246C104.739 22.5459 105.797 22.9565 107.151 22.9565C108.506 22.9565 109.551 22.5459 110.288 21.7246C111.048 20.9034 111.428 19.8285 111.428 18.5C111.428 17.1715 111.048 16.0966 110.288 15.2754C109.551 14.4541 108.506 14.0435 107.151 14.0435C105.797 14.0435 104.739 14.4541 103.979 15.2754C103.242 16.0966 102.874 17.1715 102.874 18.5Z" fill="white"/>
<path d="M134.521 24.2609C133.666 25.372 132.584 26.2295 131.277 26.8333C129.971 27.4372 128.616 27.7391 127.214 27.7391C125.883 27.7391 124.624 27.5217 123.436 27.087C122.272 26.6522 121.25 26.0362 120.371 25.2391C119.515 24.4179 118.838 23.4396 118.339 22.3043C117.84 21.1691 117.59 19.901 117.59 18.5C117.59 17.099 117.84 15.8309 118.339 14.6957C118.838 13.5604 119.515 12.5942 120.371 11.7971C121.25 10.9758 122.272 10.3478 123.436 9.91304C124.624 9.47826 125.883 9.26087 127.214 9.26087C128.45 9.26087 129.567 9.47826 130.565 9.91304C131.586 10.3478 132.442 10.9758 133.131 11.7971C133.844 12.5942 134.39 13.5604 134.771 14.6957C135.151 15.8309 135.341 17.099 135.341 18.5V20.2029H122.937C123.151 21.2415 123.614 22.0749 124.327 22.7029C125.04 23.3068 125.919 23.6087 126.965 23.6087C127.844 23.6087 128.58 23.4155 129.175 23.029C129.792 22.6184 130.327 22.099 130.778 21.471L134.521 24.2609ZM129.994 16.5072C130.018 15.5894 129.721 14.8043 129.103 14.1522C128.485 13.5 127.689 13.1739 126.715 13.1739C126.121 13.1739 125.598 13.2705 125.147 13.4638C124.695 13.657 124.303 13.9106 123.971 14.2246C123.662 14.5145 123.412 14.8647 123.222 15.2754C123.056 15.6618 122.961 16.0725 122.937 16.5072H129.994Z" fill="white"/>
<path d="M136.81 9.69565H142.156V12.5217H142.228C142.798 11.4348 143.475 10.6256 144.259 10.0942C145.044 9.53865 146.03 9.26087 147.218 9.26087C147.527 9.26087 147.836 9.27295 148.145 9.2971C148.453 9.32126 148.739 9.36956 149 9.44203V14.4058C148.62 14.285 148.24 14.2005 147.859 14.1522C147.503 14.0797 147.123 14.0435 146.719 14.0435C145.697 14.0435 144.889 14.1884 144.295 14.4783C143.701 14.7681 143.238 15.1787 142.905 15.7101C142.596 16.2174 142.394 16.8333 142.299 17.558C142.204 18.2826 142.156 19.0797 142.156 19.9493V27.3043H136.81V9.69565Z" fill="white"/>
<path d="M66.8197 25.8188C66.8197 29.1522 65.988 31.6763 64.3246 33.3913C62.685 35.1304 60.1781 36 56.8039 36C55.2594 36 53.7386 35.8188 52.2416 35.4565C50.7445 35.1184 49.3663 34.442 48.1069 33.4275L51.0653 28.9348C51.897 29.6353 52.7643 30.1908 53.6673 30.6014C54.594 31.0121 55.6039 31.2174 56.697 31.2174C58.3366 31.2174 59.5365 30.8068 60.2969 29.9855C61.0811 29.1884 61.4732 28.1618 61.4732 26.9058V25.2029H61.4019C60.7841 26.0483 60.0118 26.6522 59.0851 27.0145C58.1821 27.3527 57.3267 27.5217 56.5187 27.5217C55.2356 27.5217 54.0712 27.3043 53.0257 26.8696C51.9802 26.4106 51.0772 25.7826 50.3168 24.9855C49.5802 24.1642 49.0099 23.1981 48.6059 22.087C48.202 20.9758 48 19.756 48 18.4275C48 17.2681 48.1782 16.1328 48.5346 15.0217C48.9148 13.9106 49.4376 12.9324 50.103 12.087C50.7921 11.2415 51.6237 10.5652 52.598 10.058C53.5722 9.52657 54.6772 9.26087 55.9128 9.26087C56.6732 9.26087 57.3623 9.34541 57.9801 9.51449C58.6217 9.68357 59.192 9.90096 59.691 10.1667C60.19 10.4324 60.6177 10.7343 60.9742 11.0725C61.3306 11.3865 61.6157 11.7005 61.8296 12.0145H61.9009V9.69565H66.8197V25.8188ZM53.3465 18.3913C53.3465 18.971 53.4534 19.5266 53.6673 20.058C53.8811 20.5652 54.1782 21.0242 54.5584 21.4348C54.9623 21.8213 55.4138 22.1353 55.9128 22.3768C56.4356 22.6184 57.0059 22.7391 57.6237 22.7391C58.2177 22.7391 58.7762 22.6184 59.2989 22.3768C59.8217 22.1353 60.2732 21.8213 60.6534 21.4348C61.0573 21.0242 61.3662 20.5652 61.5801 20.058C61.794 19.5266 61.9009 18.971 61.9009 18.3913C61.9009 17.8116 61.794 17.2681 61.5801 16.7609C61.3662 16.2295 61.0573 15.7705 60.6534 15.3841C60.2732 14.9734 59.8217 14.6473 59.2989 14.4058C58.7762 14.1642 58.2177 14.0435 57.6237 14.0435C57.0059 14.0435 56.4356 14.1642 55.9128 14.4058C55.4138 14.6473 54.9623 14.9734 54.5584 15.3841C54.1782 15.7705 53.8811 16.2295 53.6673 16.7609C53.4534 17.2681 53.3465 17.8116 53.3465 18.3913Z" stroke="#5BBB57" stroke-width="0.537038" mask="url(#path-1-outside-1_8033_7702)"/>
<path d="M69.3818 9.69565H74.7283V27.3043H69.3818V9.69565ZM68.9541 4.15217C68.9541 3.28261 69.2511 2.54589 69.8452 1.94203C70.463 1.31401 71.1996 1 72.055 1C72.9105 1 73.6352 1.31401 74.2293 1.94203C74.8471 2.54589 75.156 3.28261 75.156 4.15217C75.156 5.02174 74.8471 5.77053 74.2293 6.39855C73.6352 7.00241 72.9105 7.30435 72.055 7.30435C71.1996 7.30435 70.463 7.00241 69.8452 6.39855C69.2511 5.77053 68.9541 5.02174 68.9541 4.15217Z" stroke="#5BBB57" stroke-width="0.537038" mask="url(#path-1-outside-1_8033_7702)"/>
<path d="M77.2863 9.69565H82.205V12.0145H82.2763C82.4902 11.7005 82.7634 11.3865 83.0961 11.0725C83.4525 10.7343 83.8565 10.4324 84.308 10.1667C84.7832 9.90096 85.2941 9.68357 85.8406 9.51449C86.3872 9.34541 86.9693 9.26087 87.5872 9.26087C88.8703 9.26087 90.0347 9.49034 91.0802 9.94927C92.1257 10.3841 93.0168 11.0121 93.7535 11.8333C94.5139 12.6304 95.096 13.5845 95.5 14.6957C95.9039 15.8068 96.1059 17.0266 96.1059 18.3551C96.1059 19.587 95.9158 20.7705 95.5356 21.9058C95.1792 23.0169 94.6564 24.0072 93.9673 24.8768C93.302 25.7464 92.4822 26.4469 91.5079 26.9783C90.5337 27.4855 89.4287 27.7391 88.1931 27.7391C87.0763 27.7391 86.0307 27.57 85.0565 27.2319C84.106 26.8696 83.3218 26.2657 82.704 25.4203H82.6328V35.5652H77.2863V9.69565ZM82.205 18.5C82.205 19.8285 82.5733 20.9034 83.31 21.7246C84.0704 22.5459 85.1278 22.9565 86.4822 22.9565C87.8367 22.9565 88.8822 22.5459 89.6188 21.7246C90.3792 20.9034 90.7594 19.8285 90.7594 18.5C90.7594 17.1715 90.3792 16.0966 89.6188 15.2754C88.8822 14.4541 87.8367 14.0435 86.4822 14.0435C85.1278 14.0435 84.0704 14.4541 83.31 15.2754C82.5733 16.0966 82.205 17.1715 82.205 18.5Z" stroke="#5BBB57" stroke-width="0.537038" mask="url(#path-1-outside-1_8033_7702)"/>
<path d="M97.9552 9.69565H102.874V12.0145H102.945C103.159 11.7005 103.432 11.3865 103.765 11.0725C104.121 10.7343 104.525 10.4324 104.977 10.1667C105.452 9.90096 105.963 9.68357 106.51 9.51449C107.056 9.34541 107.638 9.26087 108.256 9.26087C109.539 9.26087 110.704 9.49034 111.749 9.94927C112.795 10.3841 113.686 11.0121 114.422 11.8333C115.183 12.6304 115.765 13.5845 116.169 14.6957C116.573 15.8068 116.775 17.0266 116.775 18.3551C116.775 19.587 116.585 20.7705 116.205 21.9058C115.848 23.0169 115.325 24.0072 114.636 24.8768C113.971 25.7464 113.151 26.4469 112.177 26.9783C111.203 27.4855 110.098 27.7391 108.862 27.7391C107.745 27.7391 106.7 27.57 105.725 27.2319C104.775 26.8696 103.991 26.2657 103.373 25.4203H103.302V35.5652H97.9552V9.69565ZM102.874 18.5C102.874 19.8285 103.242 20.9034 103.979 21.7246C104.739 22.5459 105.797 22.9565 107.151 22.9565C108.506 22.9565 109.551 22.5459 110.288 21.7246C111.048 20.9034 111.428 19.8285 111.428 18.5C111.428 17.1715 111.048 16.0966 110.288 15.2754C109.551 14.4541 108.506 14.0435 107.151 14.0435C105.797 14.0435 104.739 14.4541 103.979 15.2754C103.242 16.0966 102.874 17.1715 102.874 18.5Z" stroke="#5BBB57" stroke-width="0.537038" mask="url(#path-1-outside-1_8033_7702)"/>
<path d="M134.521 24.2609C133.666 25.372 132.584 26.2295 131.277 26.8333C129.971 27.4372 128.616 27.7391 127.214 27.7391C125.883 27.7391 124.624 27.5217 123.436 27.087C122.272 26.6522 121.25 26.0362 120.371 25.2391C119.515 24.4179 118.838 23.4396 118.339 22.3043C117.84 21.1691 117.59 19.901 117.59 18.5C117.59 17.099 117.84 15.8309 118.339 14.6957C118.838 13.5604 119.515 12.5942 120.371 11.7971C121.25 10.9758 122.272 10.3478 123.436 9.91304C124.624 9.47826 125.883 9.26087 127.214 9.26087C128.45 9.26087 129.567 9.47826 130.565 9.91304C131.586 10.3478 132.442 10.9758 133.131 11.7971C133.844 12.5942 134.39 13.5604 134.771 14.6957C135.151 15.8309 135.341 17.099 135.341 18.5V20.2029H122.937C123.151 21.2415 123.614 22.0749 124.327 22.7029C125.04 23.3068 125.919 23.6087 126.965 23.6087C127.844 23.6087 128.58 23.4155 129.175 23.029C129.792 22.6184 130.327 22.099 130.778 21.471L134.521 24.2609ZM129.994 16.5072C130.018 15.5894 129.721 14.8043 129.103 14.1522C128.485 13.5 127.689 13.1739 126.715 13.1739C126.121 13.1739 125.598 13.2705 125.147 13.4638C124.695 13.657 124.303 13.9106 123.971 14.2246C123.662 14.5145 123.412 14.8647 123.222 15.2754C123.056 15.6618 122.961 16.0725 122.937 16.5072H129.994Z" stroke="#5BBB57" stroke-width="0.537038" mask="url(#path-1-outside-1_8033_7702)"/>
<path d="M136.81 9.69565H142.156V12.5217H142.228C142.798 11.4348 143.475 10.6256 144.259 10.0942C145.044 9.53865 146.03 9.26087 147.218 9.26087C147.527 9.26087 147.836 9.27295 148.145 9.2971C148.453 9.32126 148.739 9.36956 149 9.44203V14.4058C148.62 14.285 148.24 14.2005 147.859 14.1522C147.503 14.0797 147.123 14.0435 146.719 14.0435C145.697 14.0435 144.889 14.1884 144.295 14.4783C143.701 14.7681 143.238 15.1787 142.905 15.7101C142.596 16.2174 142.394 16.8333 142.299 17.558C142.204 18.2826 142.156 19.0797 142.156 19.9493V27.3043H136.81V9.69565Z" stroke="#5BBB57" stroke-width="0.537038" mask="url(#path-1-outside-1_8033_7702)"/>
<rect width="40" height="40" rx="2.68519" fill="white"/>
<path fill-rule="evenodd" clip-rule="evenodd" d="M30.9688 7.31142C31.2358 8.62259 29.6872 19.4099 29.5274 20.4231C29.4447 21 29.136 21 29.1003 21H27.4838C27.1164 21 27.122 20.5664 27.1246 20.3609L27.1249 20.3267L27.125 20.3182C27.125 20.0817 28.2032 11.113 28.4946 8.69401C28.5331 8.37419 28.2827 8.09815 27.9606 8.09818L26.9068 8.09829C26.6357 8.09832 26.4071 8.30038 26.3739 8.56942L25.7987 13.2208C25.8616 13.2587 25.9284 13.3022 25.9997 13.352L25.7174 13.8776L25.4164 16.312C25.3625 16.7518 25.0955 16.7518 24.939 16.7518L23.4732 16.7517C22.9601 16.7518 22.9794 16.5182 23.0159 16.1022C23.0319 15.92 23.051 15.7047 23.0726 15.4635H22.4862C22.2234 15.4635 21.9992 15.6537 21.9564 15.913L21.5509 18.3666C21.4629 18.8944 21.2936 19 20.8966 19H19.4791C19.1386 19 18.9209 18.7854 19.0265 18.3666L19.2271 17H18.5259H17.6684C17.3997 17 17.1724 17.1986 17.1363 17.4648L16.7168 20.555C16.658 21 16.3856 21 16.1135 21H14.4848C14.2146 21 13.9435 21 14.0098 20.5L14.1472 19.4876C14.1086 19.4641 14.0662 19.4504 14.0211 19.4504H14V19.3538H12.9428C12.398 19.3538 11.94 19.7608 11.8817 20.3024C11.7478 21.5449 11.5261 23.7551 11.4558 25.3692C11.4144 26.3217 11.4502 27.4906 11.5075 28.5438C11.5959 30.1684 12.9434 31.4124 14.57 31.4493L18.6331 31.5415L24.1151 31.4171C24.9306 31.3986 25.6036 30.7735 25.6822 29.9616L26.0761 25.8923H20.5575C20.3553 25.8923 20.1703 26.0058 20.0787 26.186L19.9622 26.4154C19.6963 26.9385 19.4305 26.9908 18.8989 26.9908H17.8356C17.3039 26.9908 17.0381 26.6769 17.0381 26.1538C17.0381 24.7094 18.2091 23.5385 19.6535 23.5385H27.781C28.4279 23.5385 28.928 24.1061 28.8465 24.7479L28.0288 31.1839C27.8243 32.7935 26.4548 34 24.8323 34H14.9766C11.2163 34 8.25472 30.7939 8.55237 27.0454L9.10278 20.1137C9.23197 18.4867 10.5573 17.2132 12.1882 17.149L14.1893 17.0703C14.162 17.0085 13.9248 16.4571 14.1348 16.4384C14.3288 16.4212 14.5706 16.2549 14.5533 16.0609L14.5514 16.0399L15 16L15.0011 16.0122C15.4961 15.3914 16.2581 15 17.1016 15H19.5292L19.5321 14.9882L19.0736 14.9764C19.0736 14.9764 18.8669 14.3308 19.0902 14.3366C19.2849 14.3416 19.5442 14.2041 19.5492 14.0094L19.5498 13.9884L20 14L19.9977 14.0902C20.394 13.635 20.9771 13.352 21.6184 13.352H23.2683L23.2973 13.0504L23.1699 13.0591C23.1699 13.0591 22.9032 12.4359 23.126 12.4206C23.2049 12.4152 23.2922 12.3854 23.3672 12.3389C23.5253 10.7527 23.7035 9.12442 23.8516 8.18362C24.044 7.56004 24.278 7.06616 24.5624 6.78696C25.0965 6.26265 25.4099 6.19862 26.1628 6.10519C26.7833 6.02819 27.1376 5.99874 27.7644 6.00004C28.444 6.00146 29.4995 6.13116 29.4995 6.13116C29.4995 6.13116 30.7553 6.26249 30.9688 7.31142ZM14.4927 17.0491L14.3068 17.0656L14.4905 17.0584C14.4912 17.0553 14.492 17.0522 14.4927 17.0491Z" fill="#1E1F21"/>
</svg>
