<svg width="177" height="57" viewBox="0 0 177 57" fill="none" xmlns="http://www.w3.org/2000/svg">
<path d="M124.413 44V48.3986H124.448C124.519 48.2942 124.609 48.1854 124.719 48.0723C124.829 47.9592 124.959 47.8548 125.108 47.759C125.265 47.6633 125.445 47.585 125.649 47.5241C125.853 47.4545 126.085 47.4197 126.344 47.4197C126.744 47.4197 127.113 47.5067 127.451 47.6807C127.789 47.8461 128.079 48.0766 128.322 48.3725C128.566 48.6683 128.754 49.0164 128.888 49.4167C129.021 49.8169 129.088 50.2477 129.088 50.7088C129.088 51.17 129.021 51.6051 128.888 52.0141C128.762 52.4143 128.577 52.7667 128.334 53.0713C128.099 53.3671 127.808 53.6064 127.463 53.7892C127.125 53.9632 126.741 54.0502 126.309 54.0502C125.908 54.0502 125.532 53.9545 125.178 53.7631C124.833 53.5716 124.562 53.2932 124.366 52.9277H124.342V53.8675H123V44H124.413ZM127.651 50.7088C127.651 50.4652 127.616 50.2259 127.545 49.991C127.482 49.7473 127.384 49.5298 127.251 49.3384C127.117 49.1469 126.949 48.9946 126.744 48.8815C126.54 48.7597 126.301 48.6988 126.026 48.6988C125.767 48.6988 125.536 48.7597 125.331 48.8815C125.127 49.0033 124.951 49.16 124.802 49.3514C124.66 49.5428 124.55 49.7604 124.472 50.004C124.401 50.2477 124.366 50.4913 124.366 50.7349C124.366 50.9786 124.401 51.2222 124.472 51.4659C124.55 51.7008 124.66 51.914 124.802 52.1054C124.951 52.2969 125.127 52.4535 125.331 52.5753C125.536 52.6884 125.767 52.745 126.026 52.745C126.301 52.745 126.54 52.6841 126.744 52.5623C126.949 52.4404 127.117 52.2838 127.251 52.0924C127.384 51.9009 127.482 51.6834 127.545 51.4398C127.616 51.1961 127.651 50.9525 127.651 50.7088Z" fill="white"/>
<path d="M129.603 47.6024H131.169L132.747 52.1576H132.771L134.172 47.6024H135.644L132.971 55.2118C132.869 55.499 132.759 55.7513 132.641 55.9689C132.523 56.1951 132.382 56.3822 132.217 56.5301C132.052 56.6867 131.856 56.8042 131.628 56.8825C131.409 56.9608 131.142 57 130.828 57C130.71 57 130.588 56.9913 130.463 56.9739C130.345 56.9652 130.223 56.9434 130.098 56.9086L130.215 55.5512C130.31 55.586 130.4 55.6078 130.486 55.6165C130.58 55.6339 130.667 55.6426 130.745 55.6426C130.894 55.6426 131.02 55.6208 131.122 55.5773C131.224 55.5425 131.31 55.4816 131.381 55.3946C131.452 55.3163 131.515 55.2162 131.569 55.0944C131.624 54.9726 131.683 54.829 131.746 54.6637L132.029 53.8675L129.603 47.6024Z" fill="white"/>
<path d="M142.941 53.0713H142.905C142.764 53.3497 142.536 53.5803 142.222 53.7631C141.908 53.9371 141.551 54.0241 141.151 54.0241C140.923 54.0241 140.684 53.9893 140.433 53.9197C140.189 53.8588 139.962 53.7544 139.75 53.6064C139.545 53.4498 139.373 53.2497 139.231 53.006C139.098 52.7537 139.031 52.4448 139.031 52.0793C139.031 51.6094 139.149 51.2353 139.385 50.9568C139.628 50.6784 139.938 50.4652 140.315 50.3173C140.692 50.1693 141.108 50.0736 141.563 50.0301C142.026 49.9779 142.477 49.9518 142.917 49.9518V49.7952C142.917 49.4036 142.788 49.1165 142.528 48.9337C142.277 48.7423 141.975 48.6466 141.622 48.6466C141.324 48.6466 141.037 48.7162 140.762 48.8554C140.487 48.9946 140.26 49.1643 140.079 49.3645L139.349 48.4116C139.671 48.081 140.04 47.833 140.456 47.6677C140.88 47.5023 141.308 47.4197 141.74 47.4197C142.242 47.4197 142.654 47.498 142.976 47.6546C143.306 47.8112 143.565 48.0157 143.753 48.2681C143.941 48.5204 144.071 48.8032 144.142 49.1165C144.22 49.4297 144.259 49.743 144.259 50.0562V53.8675H142.941V53.0713ZM142.917 51.009H142.599C142.371 51.009 142.132 51.0221 141.881 51.0482C141.63 51.0656 141.398 51.1135 141.186 51.1918C140.974 51.2614 140.798 51.3658 140.656 51.505C140.515 51.6355 140.444 51.8183 140.444 52.0532C140.444 52.2011 140.472 52.3273 140.527 52.4317C140.59 52.5274 140.668 52.6058 140.762 52.6667C140.856 52.7276 140.962 52.7711 141.08 52.7972C141.198 52.8233 141.316 52.8363 141.433 52.8363C141.92 52.8363 142.289 52.6928 142.54 52.4056C142.791 52.1185 142.917 51.7269 142.917 51.2309V51.009Z" fill="white"/>
<path d="M149.768 49.3384C149.658 49.1643 149.493 49.0208 149.273 48.9076C149.053 48.7858 148.83 48.7249 148.602 48.7249C148.343 48.7249 148.115 48.7858 147.919 48.9076C147.723 49.0208 147.558 49.173 147.425 49.3645C147.299 49.5559 147.205 49.7734 147.142 50.0171C147.079 50.252 147.048 50.4913 147.048 50.7349C147.048 50.9786 147.079 51.2222 147.142 51.4659C147.213 51.7008 147.315 51.914 147.448 52.1054C147.582 52.2969 147.746 52.4535 147.943 52.5753C148.147 52.6884 148.382 52.745 148.649 52.745C148.869 52.745 149.089 52.6971 149.309 52.6014C149.528 52.5057 149.705 52.3665 149.838 52.1837L150.722 53.1757C150.486 53.4542 150.184 53.6717 149.815 53.8283C149.454 53.9762 149.061 54.0502 148.637 54.0502C148.221 54.0502 147.825 53.9762 147.448 53.8283C147.079 53.6804 146.753 53.4629 146.471 53.1757C146.196 52.8886 145.976 52.5405 145.811 52.1315C145.654 51.7226 145.576 51.257 145.576 50.7349C145.576 50.2303 145.654 49.7734 145.811 49.3645C145.976 48.9555 146.196 48.6074 146.471 48.3203C146.746 48.0331 147.064 47.8112 147.425 47.6546C147.794 47.498 148.186 47.4197 148.602 47.4197C149.018 47.4197 149.419 47.5067 149.803 47.6807C150.196 47.8548 150.506 48.094 150.733 48.3986L149.768 49.3384Z" fill="white"/>
<path d="M151.325 50.7088C151.325 50.2129 151.404 49.7647 151.561 49.3645C151.726 48.9555 151.946 48.6074 152.22 48.3203C152.495 48.0331 152.821 47.8112 153.198 47.6546C153.574 47.498 153.975 47.4197 154.399 47.4197C154.823 47.4197 155.223 47.498 155.6 47.6546C155.977 47.8112 156.302 48.0331 156.577 48.3203C156.852 48.6074 157.068 48.9555 157.225 49.3645C157.39 49.7647 157.472 50.2129 157.472 50.7088C157.472 51.2048 157.39 51.6573 157.225 52.0663C157.068 52.4752 156.852 52.8276 156.577 53.1235C156.302 53.4106 155.977 53.6369 155.6 53.8022C155.223 53.9675 154.823 54.0502 154.399 54.0502C153.975 54.0502 153.574 53.9675 153.198 53.8022C152.821 53.6369 152.495 53.4106 152.22 53.1235C151.946 52.8276 151.726 52.4752 151.561 52.0663C151.404 51.6573 151.325 51.2048 151.325 50.7088ZM152.762 50.7088C152.762 50.9525 152.793 51.1961 152.856 51.4398C152.927 51.6834 153.029 51.9009 153.162 52.0924C153.296 52.2838 153.465 52.4404 153.669 52.5623C153.873 52.6841 154.116 52.745 154.399 52.745C154.681 52.745 154.925 52.6841 155.129 52.5623C155.333 52.4404 155.502 52.2838 155.635 52.0924C155.769 51.9009 155.867 51.6834 155.93 51.4398C156 51.1961 156.035 50.9525 156.035 50.7088C156.035 50.4652 156 50.2259 155.93 49.991C155.867 49.7473 155.769 49.5298 155.635 49.3384C155.502 49.1469 155.333 48.9946 155.129 48.8815C154.925 48.7597 154.681 48.6988 154.399 48.6988C154.116 48.6988 153.873 48.7597 153.669 48.8815C153.465 48.9946 153.296 49.1469 153.162 49.3384C153.029 49.5298 152.927 49.7473 152.856 49.991C152.793 50.2259 152.762 50.4652 152.762 50.7088Z" fill="white"/>
<path d="M158.842 47.6024H160.196V48.6466H160.22C160.377 48.2811 160.597 47.9853 160.879 47.759C161.162 47.5328 161.491 47.4197 161.868 47.4197C161.923 47.4197 161.982 47.424 162.045 47.4327C162.108 47.4327 162.163 47.4414 162.21 47.4588V48.8946C162.116 48.8685 162.033 48.8511 161.962 48.8424C161.9 48.8337 161.837 48.8293 161.774 48.8293C161.452 48.8293 161.193 48.8946 160.997 49.0251C160.801 49.1556 160.648 49.3122 160.538 49.495C160.428 49.6777 160.353 49.8648 160.314 50.0562C160.275 50.2477 160.255 50.3999 160.255 50.5131V53.8675H158.842V47.6024Z" fill="white"/>
<path d="M163.131 47.6024H164.474V48.6074H164.497C164.623 48.2942 164.839 48.0201 165.145 47.7851C165.459 47.5415 165.828 47.4197 166.252 47.4197C166.621 47.4197 166.935 47.4936 167.194 47.6416C167.461 47.7808 167.676 47.9679 167.841 48.2028C168.014 48.4378 168.14 48.7075 168.218 49.012C168.297 49.3166 168.336 49.6299 168.336 49.9518V53.8675H166.923V50.3956C166.923 50.2129 166.911 50.0214 166.887 49.8213C166.864 49.6212 166.813 49.4428 166.734 49.2861C166.656 49.1208 166.546 48.9859 166.405 48.8815C166.271 48.7771 166.091 48.7249 165.863 48.7249C165.635 48.7249 165.439 48.7771 165.274 48.8815C165.109 48.9772 164.972 49.1034 164.862 49.26C164.76 49.4167 164.682 49.5994 164.627 49.8082C164.572 50.0084 164.544 50.2129 164.544 50.4217V53.8675H163.131V47.6024Z" fill="white"/>
<path d="M173.082 49.2731C172.956 49.0904 172.783 48.9337 172.563 48.8032C172.344 48.664 172.104 48.5944 171.845 48.5944C171.618 48.5944 171.409 48.6466 171.221 48.751C171.033 48.8554 170.938 49.0295 170.938 49.2731C170.938 49.5167 171.041 49.6908 171.245 49.7952C171.457 49.8909 171.763 49.991 172.163 50.0954C172.375 50.1476 172.587 50.2172 172.799 50.3042C173.019 50.3912 173.215 50.5087 173.388 50.6566C173.568 50.7959 173.713 50.9742 173.823 51.1918C173.933 51.4006 173.988 51.6573 173.988 51.9618C173.988 52.3447 173.922 52.671 173.788 52.9408C173.662 53.2018 173.49 53.415 173.27 53.5803C173.058 53.7457 172.807 53.8631 172.516 53.9327C172.234 54.011 171.939 54.0502 171.633 54.0502C171.194 54.0502 170.766 53.9632 170.35 53.7892C169.934 53.6064 169.588 53.3497 169.314 53.0191L170.244 52.0532C170.401 52.2795 170.605 52.4665 170.856 52.6145C171.107 52.7624 171.386 52.8363 171.692 52.8363C171.794 52.8363 171.896 52.8233 171.998 52.7972C172.108 52.7711 172.206 52.7319 172.293 52.6797C172.387 52.6188 172.461 52.5405 172.516 52.4448C172.571 52.3491 172.599 52.2316 172.599 52.0924C172.599 51.8313 172.489 51.6442 172.269 51.5311C172.057 51.418 171.735 51.3049 171.304 51.1918C171.092 51.1396 170.884 51.0743 170.679 50.996C170.483 50.909 170.307 50.8002 170.15 50.6697C169.993 50.5305 169.867 50.3608 169.773 50.1606C169.679 49.9605 169.631 49.7125 169.631 49.4167C169.631 49.0686 169.694 48.7684 169.82 48.5161C169.953 48.2637 170.126 48.0592 170.338 47.9026C170.55 47.7373 170.789 47.6155 171.056 47.5371C171.323 47.4588 171.598 47.4197 171.88 47.4197C172.289 47.4197 172.685 47.498 173.07 47.6546C173.462 47.8112 173.772 48.0505 174 48.3725L173.082 49.2731Z" fill="white"/>
<path d="M44.2642 20.0276C44.7676 18.9609 45.6263 18.0466 46.8404 17.2846C48.0545 16.5227 49.4167 16.1417 50.9269 16.1417C52.2891 16.1417 53.4588 16.3855 54.436 16.8732C55.4132 17.3303 56.2275 17.9551 56.879 18.7476C57.5304 19.54 58.0042 20.4695 58.3004 21.5363C58.6261 22.603 58.789 23.7459 58.789 24.965V38.4057H54.6136V26.4279C54.6136 25.5441 54.5396 24.7059 54.3915 23.9135C54.2731 23.1211 54.0362 22.4201 53.6809 21.8106C53.3255 21.201 52.8369 20.7134 52.215 20.3476C51.6228 19.9819 50.8381 19.799 49.8609 19.799C48.2026 19.799 46.8404 20.4543 45.7744 21.7648C44.7083 23.0449 44.1753 24.7669 44.1753 26.9308V38.4057H40V8H44.1753V20.0276H44.2642Z" fill="white"/>
<path d="M77.5005 24.3707C77.5005 22.7554 77.0267 21.5667 76.0791 20.8048C75.1315 20.0124 73.873 19.6162 72.3036 19.6162C71.1191 19.6162 69.9938 19.86 68.9278 20.3476C67.8913 20.8048 67.0178 21.3991 66.3071 22.1306L64.0862 19.3876C65.1226 18.3818 66.3811 17.5894 67.8617 17.0103C69.372 16.4312 70.9858 16.1417 72.7033 16.1417C74.2136 16.1417 75.5165 16.3703 76.6121 16.8275C77.7374 17.2541 78.6554 17.8485 79.3661 18.6104C80.0768 19.3723 80.6098 20.2714 80.9651 21.3077C81.3205 22.3439 81.4982 23.4564 81.4982 24.645V34.1083C81.4982 34.8398 81.513 35.617 81.5426 36.4399C81.6018 37.2323 81.6906 37.8876 81.8091 38.4057H78.0335C77.7966 37.3694 77.6782 36.3332 77.6782 35.297H77.5449C76.775 36.4551 75.7978 37.3542 74.6133 37.9942C73.4584 38.6343 72.0815 38.9543 70.4824 38.9543C69.6533 38.9543 68.7797 38.8324 67.8617 38.5886C66.9734 38.3752 66.159 38.0095 65.4187 37.4914C64.6784 36.9732 64.0566 36.2875 63.5531 35.4341C63.0794 34.5807 62.8425 33.5292 62.8425 32.2797C62.8425 30.6339 63.2718 29.3386 64.1306 28.3938C64.9893 27.4185 66.1146 26.687 67.5064 26.1994C68.8982 25.6812 70.4676 25.346 72.2147 25.1936C73.9618 25.0412 75.7238 24.965 77.5005 24.965V24.3707ZM76.4789 28.0737C75.4425 28.0737 74.3616 28.1195 73.2364 28.2109C72.1407 28.3023 71.1339 28.4852 70.2159 28.7595C69.3275 29.0338 68.5872 29.4452 67.995 29.9938C67.4027 30.5424 67.1066 31.2739 67.1066 32.1882C67.1066 32.8283 67.2251 33.3616 67.462 33.7883C67.7285 34.215 68.069 34.5655 68.4836 34.8398C68.8982 35.1141 69.3571 35.3122 69.8606 35.4341C70.364 35.5255 70.8822 35.5713 71.4152 35.5713C73.3696 35.5713 74.865 34.9769 75.9015 33.7883C76.9675 32.5692 77.5005 31.0453 77.5005 29.2167V28.0737H76.4789Z" fill="white"/>
<path d="M87.0178 21.3991C87.0178 20.82 87.003 20.0733 86.9734 19.159C86.9438 18.2447 86.8994 17.437 86.8401 16.736H90.7934C90.8526 17.2846 90.897 17.9247 90.9266 18.6561C90.9562 19.3571 90.971 19.9362 90.971 20.3933H91.1043C91.6965 19.1133 92.5553 18.0923 93.6806 17.3303C94.8354 16.5379 96.1236 16.1417 97.5449 16.1417C98.1964 16.1417 98.7442 16.2027 99.1884 16.3246L99.0108 20.3019C98.4185 20.1495 97.7818 20.0733 97.1008 20.0733C96.094 20.0733 95.2204 20.2714 94.4801 20.6677C93.7398 21.0334 93.1179 21.5363 92.6145 22.1763C92.1407 22.8163 91.7854 23.563 91.5485 24.4164C91.3116 25.2393 91.1931 26.1079 91.1931 27.0223V38.4057H87.0178V21.3991Z" fill="white"/>
<path d="M113.379 38.4057H108.849L100.276 16.736H104.896L111.07 33.7883H111.159L117.377 16.736H121.819L113.379 38.4057Z" fill="white"/>
<path d="M139.816 25.6508C139.787 24.7974 139.639 24.005 139.372 23.2735C139.135 22.5116 138.765 21.8563 138.262 21.3077C137.788 20.7591 137.181 20.3324 136.441 20.0276C135.73 19.6924 134.886 19.5247 133.909 19.5247C133.02 19.5247 132.176 19.6924 131.377 20.0276C130.607 20.3324 129.926 20.7591 129.334 21.3077C128.771 21.8563 128.297 22.5116 127.912 23.2735C127.557 24.005 127.35 24.7974 127.29 25.6508H139.816ZM144.036 27.388C144.036 27.6318 144.036 27.8756 144.036 28.1195C144.036 28.3633 144.021 28.6071 143.992 28.8509H127.29C127.32 29.7653 127.512 30.6339 127.868 31.4568C128.253 32.2492 128.756 32.9502 129.378 33.5597C130 34.1388 130.711 34.596 131.51 34.9312C132.339 35.2665 133.213 35.4341 134.131 35.4341C135.552 35.4341 136.781 35.1141 137.818 34.4741C138.854 33.834 139.668 33.0568 140.261 32.1425L143.192 34.5655C142.067 36.0894 140.734 37.2171 139.195 37.9485C137.684 38.6495 135.996 39 134.131 39C132.532 39 131.051 38.7257 129.689 38.1771C128.327 37.6285 127.157 36.8666 126.18 35.8913C125.203 34.8855 124.433 33.6816 123.87 32.2797C123.308 30.8777 123.026 29.3233 123.026 27.6166C123.026 25.9403 123.293 24.4012 123.826 22.9992C124.388 21.5667 125.158 20.3476 126.136 19.3419C127.113 18.3361 128.268 17.5589 129.6 17.0103C130.933 16.4312 132.369 16.1417 133.909 16.1417C135.449 16.1417 136.84 16.4008 138.084 16.9189C139.357 17.437 140.423 18.1837 141.282 19.159C142.171 20.1343 142.852 21.3229 143.325 22.7249C143.799 24.0964 144.036 25.6508 144.036 27.388Z" fill="white"/>
<path d="M159.783 22.222C159.309 21.4296 158.643 20.7896 157.784 20.3019C156.925 19.7838 155.963 19.5247 154.897 19.5247C154.423 19.5247 153.949 19.5857 153.476 19.7076C153.002 19.799 152.572 19.9667 152.188 20.2105C151.832 20.4238 151.536 20.7134 151.299 21.0791C151.092 21.4144 150.988 21.841 150.988 22.3592C150.988 23.2735 151.388 23.9592 152.188 24.4164C152.987 24.8431 154.186 25.2393 155.785 25.605C156.792 25.8489 157.725 26.1384 158.584 26.4737C159.443 26.8089 160.183 27.2356 160.805 27.7537C161.456 28.2414 161.96 28.8357 162.315 29.5367C162.67 30.2377 162.848 31.0606 162.848 32.0054C162.848 33.2854 162.611 34.3674 162.137 35.2512C161.663 36.1351 161.027 36.8666 160.227 37.4456C159.457 37.9942 158.569 38.3904 157.562 38.6343C156.555 38.8781 155.519 39 154.453 39C152.854 39 151.284 38.68 149.745 38.04C148.234 37.3999 146.976 36.4246 145.969 35.1141L148.945 32.5082C149.508 33.3616 150.278 34.0778 151.255 34.6569C152.262 35.236 153.357 35.5255 154.542 35.5255C155.075 35.5255 155.578 35.4798 156.052 35.3884C156.555 35.2665 157 35.0836 157.384 34.8398C157.799 34.596 158.125 34.276 158.362 33.8797C158.599 33.4835 158.717 32.9807 158.717 32.3711C158.717 31.3653 158.243 30.6186 157.296 30.131C156.378 29.6433 155.016 29.1862 153.209 28.7595C152.498 28.5766 151.773 28.3633 151.033 28.1195C150.322 27.8452 149.67 27.4794 149.078 27.0223C148.486 26.5651 147.997 26.0013 147.612 25.3307C147.257 24.6298 147.079 23.7764 147.079 22.7706C147.079 21.6125 147.302 20.6219 147.746 19.799C148.219 18.9457 148.827 18.2599 149.567 17.7418C150.307 17.1932 151.151 16.797 152.099 16.5532C153.046 16.2789 154.023 16.1417 155.03 16.1417C156.541 16.1417 157.992 16.4465 159.383 17.056C160.805 17.6656 161.9 18.5494 162.67 19.7076L159.783 22.222Z" fill="white"/>
<path d="M177 20.2562H171.403V31.5482C171.403 32.8587 171.64 33.8035 172.114 34.3826C172.588 34.9312 173.343 35.2055 174.379 35.2055C174.764 35.2055 175.179 35.1598 175.623 35.0684C176.067 34.9769 176.467 34.8398 176.822 34.6569L176.956 38.1771C176.452 38.36 175.89 38.4971 175.268 38.5886C174.675 38.7105 174.054 38.7714 173.402 38.7714C171.418 38.7714 169.893 38.2076 168.827 37.0799C167.791 35.9522 167.272 34.2607 167.272 32.0054V20.2562H163.23V16.736H167.272V10.5186H171.403V16.736H177V20.2562Z" fill="white"/>
<path fill-rule="evenodd" clip-rule="evenodd" d="M12.8992 0C8.59948 3.9168 0 14.2714 0 24.3554C0 35.5648 8.28843 37.6506 12.1081 37.9751V30.8028L7.40162 26.4125L8.72644 24.8619L12.1081 28.0164V22.6812L8.80877 19.5724L10.141 18.0288L12.1081 19.8823V15.3824H14.0975V19.8823L16.0646 18.0288L17.3968 19.5724L14.0975 22.6812V27.9517L17.2626 24.8762L18.6174 26.3983L14.0975 30.7901V38C18.3688 37.7015 26 34.9278 26 23.5008C26 13.7586 17.2661 3.77437 12.8992 0Z" fill="white"/>
</svg>
