<svg width="71" height="39" viewBox="0 0 71 39" fill="none" xmlns="http://www.w3.org/2000/svg">
<path d="M0 0H5.07162V18.0804C6.87487 16.445 8.86595 15.6273 11.0449 15.6273C13.5243 15.6273 15.5079 16.4374 16.9956 18.0577C18.2578 19.4659 18.889 21.7146 18.889 24.8037V38.364H13.8174V25.2807C13.8174 23.509 13.5018 22.2295 12.8706 21.442C12.2545 20.6395 11.2552 20.2382 9.87276 20.2382C8.09957 20.2382 6.85232 20.7909 6.13103 21.8963C5.42476 23.0169 5.07162 24.94 5.07162 27.6657V38.364H0V0Z" fill="white"/>
<path d="M46.2523 28.5061H30.519C30.6542 30.3232 31.2403 31.7694 32.2772 32.8445C33.314 33.9045 34.6439 34.4345 36.2668 34.4345C37.5291 34.4345 38.5735 34.1316 39.4 33.5259C40.2114 32.9202 41.1356 31.7997 42.1725 30.1642L46.4552 32.5719C45.794 33.7076 45.0952 34.6843 44.3589 35.502C43.6226 36.3046 42.8336 36.9709 41.9921 37.5009C41.1506 38.0157 40.2415 38.3943 39.2647 38.6366C38.288 38.8789 37.2286 39 36.0865 39C32.8106 39 30.1809 37.94 28.1973 35.82C26.2137 33.6849 25.222 30.8532 25.222 27.325C25.222 23.827 26.1837 20.9953 28.1072 18.8299C30.0456 16.6948 32.6153 15.6273 35.816 15.6273C39.0468 15.6273 41.6014 16.6645 43.4798 18.7391C45.3432 20.7985 46.2748 23.6529 46.2748 27.3023L46.2523 28.5061ZM41.0454 24.3267C40.3392 21.601 38.6336 20.2382 35.9287 20.2382C35.3126 20.2382 34.7341 20.3366 34.1931 20.5335C33.6521 20.7152 33.1562 20.9878 32.7054 21.3512C32.2696 21.6995 31.894 22.1235 31.5784 22.6232C31.2628 23.1229 31.0224 23.6907 30.8571 24.3267H41.0454Z" fill="white"/>
<path d="M57.8147 0V38.364H52.7431V0H57.8147Z" fill="white"/>
<path d="M70.2336 16.2405V38.364H65.162V16.2405H70.2336ZM64.3956 7.04135C64.3956 6.14793 64.7187 5.37566 65.3649 4.72452C66.011 4.07338 66.7849 3.74782 67.6865 3.74782C68.6032 3.74782 69.3846 4.07338 70.0308 4.72452C70.6769 5.36051 71 6.14036 71 7.06406C71 7.98777 70.6769 8.77519 70.0308 9.42632C69.3996 10.0775 68.6257 10.403 67.7091 10.403C66.7924 10.403 66.011 10.0775 65.3649 9.42632C64.7187 8.77519 64.3956 7.9802 64.3956 7.04135Z" fill="white"/>
</svg>
