<svg width="175" height="47" viewBox="0 0 175 47" fill="none" xmlns="http://www.w3.org/2000/svg">
<path fill-rule="evenodd" clip-rule="evenodd" d="M19.3605 0.831055L38.7211 12.1247V34.712L19.3605 46.0056L0 34.712V12.1247L19.3605 0.831055ZM25.1868 5.40695L19.3605 2.0083L1.00907 12.7133V19.0868L25.1868 5.40695ZM26.2019 5.99909C26.1903 6.00696 26.1784 6.01441 26.166 6.02141L20.0657 9.47298L37.712 19.5922V12.7133L26.2019 5.99909ZM7.75624 16.4377L19.0435 10.0514C19.0645 10.0685 19.0872 10.0842 19.1115 10.0981L30.9648 16.8954V22.9086H7.75624V16.4377ZM7.75624 23.9281V30.6186L18.9535 37.0634C18.9905 37.0847 19.0239 37.1101 19.0533 37.1386L30.9648 30.399V23.9281H7.75624ZM31.9739 29.828V17.474L37.712 20.7645V26.5814L31.9739 29.828ZM18.0408 37.7114L1.00907 27.9084V34.1234L12.5905 40.8792L12.5551 40.8153L18.0408 37.7114ZM13.5343 41.4297L19.3605 44.8284L37.712 34.1234V27.7499L13.5343 41.4297ZM6.74717 17.0086L1.00907 20.2553V26.7351L6.74717 30.0378V17.0086Z" fill="white"/>
<path d="M81.7444 36.3259V10.5119H96.8026V11.4421H85.0044V22.6825H91.9902V23.3802H85.0044V35.3957H96.8026V36.3259H81.7444Z" fill="white"/>
<path d="M150.582 9.43597H131.221V10.5918H139.335V35.25H142.87V10.5918H150.582V9.43597Z" fill="white"/>
<path d="M170.449 36.3259H174.245L165.058 10.5119H164.299L154.884 36.3259H156.023L163.464 16.0435L170.449 36.3259Z" fill="white"/>
<path d="M56.4998 10.5119H52.7036L61.8904 36.3259H62.6496L72.0641 10.5119H70.9253L63.4848 30.7944L56.4998 10.5119Z" fill="white"/>
<path d="M113.536 19.8582C109.63 18.5854 109.351 16.2784 109.351 15.2442C109.351 13.5736 110.619 10.312 114.776 10.312C118.102 10.312 120.554 12.6455 121.364 13.8123L121.906 13.2554L121.596 12.8577C120.279 11.2666 118.031 9.43696 114.776 9.43696C108.498 9.35741 106.793 14.1252 106.793 16.517C106.793 19.0617 108.264 22.4906 112.373 23.6767C118.283 25.3822 119.504 28.0075 119.504 29.8021C119.504 31.8705 118.031 35.5054 114.001 35.4503C110.777 35.4062 108.162 32.7272 107.258 31.3932L106.483 32.0296L106.793 32.4273C109.196 35.6094 111.598 36.3254 114.001 36.3254C116.404 36.3254 117.256 36.3793 119.504 34.8139C121.751 33.2484 122.69 30.3499 122.613 28.202C122.535 26.0541 121.939 24.7988 120.821 23.6767C119.988 22.8403 118.419 21.4492 113.536 19.8582Z" fill="white"/>
</svg>
