<svg width="25" height="15" viewBox="0 0 25 15" fill="none" xmlns="http://www.w3.org/2000/svg">
<path d="M16.3227 0.992229H22.561V2.43873H16.3227V0.992229ZM10.0719 6.71548C11.4509 6.08488 12.1732 5.12552 12.1732 3.64316C12.1732 0.711297 9.89056 0 7.25453 0H0V14.7161H7.45779C10.2533 14.7161 12.8768 13.431 12.8768 10.4423C12.8768 8.59534 11.9637 7.22953 10.0719 6.71548ZM3.38336 2.51046H6.55722C7.77986 2.51046 8.87742 2.83622 8.87742 4.19307C8.87742 5.44232 8.02376 5.94441 6.81363 5.94441H3.38336V2.51046ZM6.995 12.2176H3.38024V8.16497H7.06692C8.55535 8.16497 9.49656 8.75971 9.49656 10.266C9.49656 11.7484 8.37398 12.2176 6.995 12.2176ZM25 9.54274C25 6.38972 23.0707 3.7627 19.581 3.7627C16.1882 3.7627 13.8806 6.20442 13.8806 9.40526C13.8806 12.7227 16.0663 15 19.581 15C22.242 15 23.965 13.8553 24.7936 11.4136H22.0951C21.8011 12.3252 20.6066 12.8033 19.6779 12.8033C17.8831 12.8033 16.945 11.7992 16.945 10.0926H24.9781C24.9875 9.91632 25 9.73102 25 9.54274ZM16.945 8.24567C17.0419 6.84399 18.0206 5.96832 19.4841 5.96832C21.0225 5.96832 21.7917 6.83204 21.9262 8.24567H16.945Z" fill="#1E1F21"/>
</svg>
