<svg width="20" height="19" viewBox="0 0 20 19" fill="none" xmlns="http://www.w3.org/2000/svg">
<path d="M9.09692 0.914375C9.39698 -0.0054574 10.6983 -0.00545716 10.9983 0.914376L12.5274 5.60192C12.6617 6.01338 13.0453 6.2918 13.4781 6.2918H18.418C19.3877 6.2918 19.7898 7.53343 19.0043 8.10192L15.0146 10.9891C14.6628 11.2437 14.5155 11.6964 14.6502 12.1093L16.1757 16.7858C16.476 17.7064 15.4233 18.4738 14.6388 17.9061L10.6339 15.0079C10.284 14.7547 9.8112 14.7547 9.46136 15.0079L5.45647 17.9061C4.67198 18.4738 3.6192 17.7064 3.91951 16.7858L5.44502 12.1093C5.57973 11.6964 5.43246 11.2437 5.08059 10.9891L1.09096 8.10192C0.305398 7.53343 0.707537 6.2918 1.67722 6.2918H6.61711C7.0499 6.2918 7.43358 6.01338 7.5678 5.60192L9.09692 0.914375Z" fill="#EF4335"/>
</svg>
