<svg width="478" height="275" viewBox="0 0 478 275" fill="none" xmlns="http://www.w3.org/2000/svg">
<mask id="mask0" mask-type="alpha" maskUnits="userSpaceOnUse" x="10" y="6" width="458" height="264">
<rect x="10.1777" y="6.24512" width="457.413" height="263.114" fill="#C4C4C4"/>
</mask>
<g mask="url(#mask0-illustration-4)">
<g opacity="0.3">
<path d="M316.677 73.2588C262.912 114.268 246.643 150.33 270.333 181.387C294.023 212.445 349.725 225.956 391.323 171.122C432.921 116.287 473.387 43.8331 465.031 32.8783C456.676 21.9235 370.441 32.2491 316.677 73.2588Z" fill="#48AA6B"/>
<path d="M440.899 48.2624C440.899 48.2624 379.92 81.6493 347.19 111.172C319.317 136.313 284.138 183.722 284.138 183.722" stroke="#307147" stroke-width="0.815014" stroke-linecap="round" stroke-linejoin="round"/>
<path d="M375.448 165.447C375.448 165.447 355.63 156.056 341.959 154.452C327.442 152.748 304.703 158.047 304.703 158.047L290.676 114.128M387.665 138.925C387.665 138.925 370.997 135.22 360.165 133.807C347.104 132.103 326.506 131.641 326.506 131.641C326.506 131.641 326.425 118.973 324.801 111.082C323.115 102.892 317.909 90.8113 317.909 90.8113M401.002 117.745C401.002 117.745 387.3 111.814 378.003 109.921C367.476 107.777 350.539 108.353 350.539 108.353L348.364 74.4626M414.567 92.0096L378.693 86.4844L381.017 61.8291" stroke="#307147" stroke-width="0.815014" stroke-linecap="round" stroke-linejoin="round"/>
<path d="M447.433 116.392C485.702 89.6377 404.854 130.559 366.458 166.401C336.258 194.594 279.984 211.182 285.824 245.406C285.824 245.406 306.613 242.76 317.654 235.427C334.904 223.97 338.605 227.492 352.585 212.469C367.13 196.839 366.624 192.007 382.898 178.043C394.414 168.162 417.021 140.935 427.955 131.494C436.499 124.118 432.764 126.646 447.433 116.392Z" fill="#307147"/>
</g>
<g opacity="0.3">
<path d="M191.263 192.687C201.871 212.624 227.959 232.108 223.721 239.961C219.483 247.814 193.808 236.906 165.752 231.561C149.093 228.387 69.6699 230.08 72.4903 200.412C74.022 184.301 121.498 201.523 107.463 191.997C90.084 180.201 38.2868 195.137 37.7191 165.261C37.4711 152.206 86.6972 157.107 66.0541 147.25C45.4111 137.393 -0.619093 112.725 13.507 86.5487C26.2696 62.8994 52.5344 104.098 71.5365 116.995C84.9147 126.076 68.6286 95.0903 75.3044 82.0004C87.3005 58.4783 111.878 123.019 131.137 148.13C139.083 158.491 124.05 104.437 135.216 101.577C146.383 98.7176 173.584 159.46 191.263 192.687Z" fill="#307147"/>
<mask id="mask1-illustration-4" mask-type="alpha" maskUnits="userSpaceOnUse" x="9" y="51" width="226" height="194">
<path opacity="0.7" d="M9.7641 86.8689L46.8265 51.9805L142.443 91.5468L234.378 244.261C234.378 244.261 178.297 215.153 128.179 179.609C78.0617 144.065 59.8815 122.413 9.7641 86.8689Z" fill="#48AA6B"/>
</mask>
<g mask="url(#mask1-illustration-4)">
<path d="M191.855 192.032C202.618 211.893 228.838 231.16 224.671 239.06C220.505 246.961 194.769 236.278 166.702 231.185C150.036 228.161 70.7232 230.586 73.2906 200.859C74.6849 184.716 122.248 201.52 108.15 192.113C90.6929 180.463 39.084 195.892 38.2657 165.989C37.9081 152.92 87.1159 157.374 66.4149 147.696C45.7139 138.018 -0.706782 113.413 13.182 87.077C26.2951 62.2122 52.5484 104.619 71.636 117.356C85.0745 126.324 68.5473 95.4534 75.1049 82.2872C86.8886 58.628 111.98 123.016 131.426 147.978C139.45 158.278 123.98 104.3 135.109 101.335C146.238 98.369 173.917 158.93 191.855 192.032Z" fill="#48AA6B"/>
</g>
</g>
<path d="M328.605 205.011C321.827 214.549 323.208 243.917 319.066 247.933C314.925 252.074 272.881 251.572 269.995 249.188C267.108 246.803 268.489 236.386 265.351 234.755C264.096 234.127 328.605 205.011 328.605 205.011Z" fill="white"/>
<path d="M148.759 205.511C157.293 217.81 152.65 243.915 156.791 248.056C160.933 252.198 202.977 251.696 205.863 249.311C208.75 246.927 207.369 236.008 209.126 233.874C209.879 232.745 148.759 205.511 148.759 205.511Z" fill="white"/>
<path d="M265.351 234.882C266.23 235.384 266.732 236.513 267.108 238.019C292.209 234.882 311.034 228.356 323.459 222.833C324.463 215.68 325.843 208.903 328.479 205.138C328.605 205.012 264.096 234.129 265.351 234.882Z" fill="white"/>
<path d="M148.759 205.511C151.897 210.029 153.277 216.555 153.905 223.207C167.083 229.105 185.281 235.255 208.122 238.142C208.248 236.133 208.499 234.627 209.001 233.874C209.879 232.745 148.759 205.511 148.759 205.511Z" fill="white"/>
<path d="M241.506 28.0527C326.221 28.0527 358.6 94.3183 358.6 133.224C358.6 171.503 334.002 236.639 241.506 236.639C149.01 236.639 118.262 181.543 118.262 132.346C118.262 83.1485 155.913 28.0527 241.506 28.0527Z" fill="white"/>
<path d="M217.535 32.823C217.535 32.823 178.881 3.2043 136.963 6.71838C122.53 7.97341 146.501 39.2236 146.877 63.5712L217.535 32.823Z" fill="white"/>
<path d="M163.067 51.647C163.318 53.1531 150.015 58.9262 148.635 58.0477C147.254 57.1692 145.873 37.9672 134.955 17.3848C133.323 14.3727 160.557 35.0807 163.067 51.647Z" fill="white"/>
<path d="M336.387 90.6803C335.885 88.0448 335.508 85.7857 335.257 83.2757C335.006 80.7656 334.881 78.2556 334.881 75.7455C334.881 73.2354 335.006 70.5999 335.508 67.9643C336.01 65.3287 336.889 62.4422 339.022 59.8066C340.152 58.4261 341.533 57.2966 343.29 56.5436C344.168 56.167 345.047 55.916 345.8 55.7905C346.678 55.665 347.431 55.665 348.31 55.665C351.573 55.7905 354.459 57.2966 356.593 59.0536C358.852 60.8107 360.483 62.8187 361.864 65.0778C363.245 67.3368 364.374 69.7214 364.751 72.6079C365.002 73.9885 365.002 75.62 364.374 77.377C363.998 78.2555 363.37 79.2596 362.492 79.7616C361.613 80.3891 360.609 80.6401 359.73 80.6401C358.726 80.7656 357.597 80.3891 356.844 79.8871C355.965 79.3851 355.338 78.6321 354.961 78.0045C354.083 76.624 353.706 75.369 353.455 73.9885C352.953 71.3529 353.079 68.8428 353.581 66.3328C354.083 63.8227 354.836 61.4382 356.216 59.3046C356.969 58.1751 357.848 57.1711 359.103 56.5436C360.358 55.916 361.738 55.665 363.119 55.916C365.755 56.4181 367.763 57.9241 369.52 59.6811C372.908 63.1952 375.167 67.3368 377.05 71.6039C374.916 67.4623 372.155 63.5717 368.767 60.4341C367.01 58.9281 365.002 57.6731 362.994 57.5476C360.985 57.4221 359.228 58.6771 358.35 60.5596C357.346 62.4422 356.844 64.5757 356.718 66.7093C356.593 68.8428 356.718 71.1019 357.22 73.1099C357.471 74.114 357.848 74.9925 358.35 75.62C358.601 75.871 358.852 76.122 358.977 76.122C359.103 76.122 359.228 76.122 359.479 76.122C359.73 76.122 359.981 75.9965 359.981 75.871C359.981 75.7455 360.107 75.7455 360.107 75.4945C360.232 75.118 360.232 74.2395 359.981 73.361C358.977 69.7214 356.091 66.0818 352.953 63.9482C351.322 62.9442 349.69 62.4422 348.31 62.4422C347.933 62.4422 347.557 62.5677 347.306 62.5677C347.055 62.6932 346.678 62.8187 346.553 62.9442C346.051 63.1952 345.8 63.5717 345.423 64.0737C344.67 65.2033 344.168 66.9603 344.043 68.8428C343.792 70.8509 343.917 72.8589 344.043 75.118C344.168 77.2515 344.545 79.3851 344.921 81.6441C345.298 83.7777 345.8 86.0367 346.427 88.0448L336.387 90.6803Z" fill="white"/>
<path d="M155.04 104.044C167.011 102.655 169.028 126.671 157.938 127.954C147.002 129.325 144.952 105.188 155.04 104.044Z" fill="white"/>
<path d="M126.169 94.0713C124.287 99.5934 107.469 95.0753 103.328 98.5894C96.6759 104.111 98.5585 172.762 104.583 178.284C107.971 181.421 127.048 178.158 132.444 181.923C137.841 185.688 126.169 94.0713 126.169 94.0713Z" fill="white"/>
<path d="M105.587 166.986C107.32 166.986 108.725 153.444 108.725 136.74C108.725 120.035 107.32 106.494 105.587 106.494C103.854 106.494 102.45 120.035 102.45 136.74C102.45 153.444 103.854 166.986 105.587 166.986Z" fill="white"/>
<path d="M274.263 50.0163C274.012 49.8908 245.397 40.6036 218.79 47.8828L216.155 38.219C245.773 30.1868 276.145 40.1016 277.4 40.4781L274.263 50.0163L275.894 45.2472L274.263 50.0163Z" fill="white"/>
<g opacity="0.6">
<path d="M328.605 205.011C321.827 214.549 323.208 243.917 319.066 247.933C314.925 252.074 272.881 251.572 269.995 249.188C267.108 246.803 268.489 236.386 265.351 234.755C264.096 234.127 328.605 205.011 328.605 205.011Z" fill="#FFEBCD"/>
<path d="M148.759 205.511C157.293 217.81 152.65 243.915 156.791 248.056C160.933 252.198 202.977 251.696 205.863 249.311C208.75 246.927 207.369 236.008 209.126 233.874C209.879 232.745 148.759 205.511 148.759 205.511Z" fill="#FFEBCD"/>
<path d="M265.351 234.882C266.23 235.384 266.732 236.513 267.108 238.019C292.209 234.882 311.034 228.356 323.459 222.833C324.463 215.68 325.843 208.903 328.479 205.138C328.605 205.012 264.096 234.129 265.351 234.882Z" fill="#E8C79C"/>
<path d="M148.759 205.511C151.897 210.029 153.277 216.555 153.905 223.207C167.083 229.105 185.281 235.255 208.122 238.142C208.248 236.133 208.499 234.627 209.001 233.874C209.879 232.745 148.759 205.511 148.759 205.511Z" fill="#E8C79C"/>
<path d="M241.506 28.0527C326.221 28.0527 358.6 94.3183 358.6 133.224C358.6 171.503 334.002 236.639 241.506 236.639C149.01 236.639 118.262 181.543 118.262 132.346C118.262 83.1485 155.913 28.0527 241.506 28.0527Z" fill="#FFEBCD"/>
<path d="M217.535 32.823C217.535 32.823 178.881 3.2043 136.963 6.71838C122.53 7.97341 146.501 39.2236 146.877 63.5712L217.535 32.823Z" fill="#FFEBCD"/>
<path d="M163.067 51.647C163.318 53.1531 150.015 58.9262 148.635 58.0477C147.254 57.1692 145.873 37.9672 134.955 17.3848C133.323 14.3727 160.557 35.0807 163.067 51.647Z" fill="#E8C79C"/>
<path d="M336.387 90.6803C335.885 88.0448 335.508 85.7857 335.257 83.2757C335.006 80.7656 334.881 78.2556 334.881 75.7455C334.881 73.2354 335.006 70.5999 335.508 67.9643C336.01 65.3287 336.889 62.4422 339.022 59.8066C340.152 58.4261 341.533 57.2966 343.29 56.5436C344.168 56.167 345.047 55.916 345.8 55.7905C346.678 55.665 347.431 55.665 348.31 55.665C351.573 55.7905 354.459 57.2966 356.593 59.0536C358.852 60.8107 360.483 62.8187 361.864 65.0778C363.245 67.3368 364.374 69.7214 364.751 72.6079C365.002 73.9885 365.002 75.62 364.374 77.377C363.998 78.2555 363.37 79.2596 362.492 79.7616C361.613 80.3891 360.609 80.6401 359.73 80.6401C358.726 80.7656 357.597 80.3891 356.844 79.8871C355.965 79.3851 355.338 78.6321 354.961 78.0045C354.083 76.624 353.706 75.369 353.455 73.9885C352.953 71.3529 353.079 68.8428 353.581 66.3328C354.083 63.8227 354.836 61.4382 356.216 59.3046C356.969 58.1751 357.848 57.1711 359.103 56.5436C360.358 55.916 361.738 55.665 363.119 55.916C365.755 56.4181 367.763 57.9241 369.52 59.6811C372.908 63.1952 375.167 67.3368 377.05 71.6039C374.916 67.4623 372.155 63.5717 368.767 60.4341C367.01 58.9281 365.002 57.6731 362.994 57.5476C360.985 57.4221 359.228 58.6771 358.35 60.5596C357.346 62.4422 356.844 64.5757 356.718 66.7093C356.593 68.8428 356.718 71.1019 357.22 73.1099C357.471 74.114 357.848 74.9925 358.35 75.62C358.601 75.871 358.852 76.122 358.977 76.122C359.103 76.122 359.228 76.122 359.479 76.122C359.73 76.122 359.981 75.9965 359.981 75.871C359.981 75.7455 360.107 75.7455 360.107 75.4945C360.232 75.118 360.232 74.2395 359.981 73.361C358.977 69.7214 356.091 66.0818 352.953 63.9482C351.322 62.9442 349.69 62.4422 348.31 62.4422C347.933 62.4422 347.557 62.5677 347.306 62.5677C347.055 62.6932 346.678 62.8187 346.553 62.9442C346.051 63.1952 345.8 63.5717 345.423 64.0737C344.67 65.2033 344.168 66.9603 344.043 68.8428C343.792 70.8509 343.917 72.8589 344.043 75.118C344.168 77.2515 344.545 79.3851 344.921 81.6441C345.298 83.7777 345.8 86.0367 346.427 88.0448L336.387 90.6803Z" fill="#FFEBCD"/>
<path d="M155.04 104.044C167.011 102.655 169.028 126.671 157.938 127.954C147.002 129.325 144.952 105.188 155.04 104.044Z" fill="#E8C79C"/>
<path d="M126.169 94.0713C124.287 99.5934 107.469 95.0753 103.328 98.5894C96.6759 104.111 98.5585 172.762 104.583 178.284C107.971 181.421 127.048 178.158 132.444 181.923C137.841 185.688 126.169 94.0713 126.169 94.0713Z" fill="#FFEBCD"/>
<path d="M105.587 166.986C107.32 166.986 108.725 153.444 108.725 136.74C108.725 120.035 107.32 106.494 105.587 106.494C103.854 106.494 102.45 120.035 102.45 136.74C102.45 153.444 103.854 166.986 105.587 166.986Z" fill="#E8C79C"/>
<path d="M274.263 50.0163C274.012 49.8908 245.397 40.6036 218.79 47.8828L216.155 38.219C245.773 30.1868 276.145 40.1016 277.4 40.4781L274.263 50.0163L275.894 45.2472L274.263 50.0163Z" fill="#B2854A"/>
</g>
<path d="M327.741 132.756C328.914 140.294 326.209 143.37 325.092 146.61C323.18 152.157 329.779 153.538 325.092 162.502C318.704 174.721 304.128 164.133 297.789 164.133C290.986 164.133 279.451 175.544 269.671 160.67C264.17 150.891 272.606 148.852 270.69 143.758C269.387 140.294 267.022 139.276 267.022 131.328C268.245 120.734 274.969 121.753 277.414 117.066C279.229 113.586 276.599 107.004 285.564 103.821C291.473 101.724 296.286 105.667 299.419 105.667C302.857 105.667 307.553 104.69 310.422 106.268C318.572 110.75 315.313 113.603 318.572 118.289C322.058 123.301 326.315 123.587 327.741 132.756Z" fill="black"/>
<path d="M338.454 220.586C333.462 218.39 320.406 181.045 320.406 181.045L334.668 176.765L346.69 206.514C346.69 206.514 370.18 204.152 380.105 198.772C391.619 192.53 401.258 196.218 384.792 204.884C373.178 210.997 360.545 217.109 348.524 220.586C345.916 221.34 341.972 222.134 338.454 220.586Z" fill="#A77C3E"/>
<path d="M321.629 184.509L311.237 158.836C311.237 158.836 316.813 158.836 324.045 163.382C330.454 167.41 337.268 180.118 337.268 180.118L321.629 184.509Z" fill="#EEFAFC"/>
<path d="M399.295 193.208C401.157 193.861 397.57 197.747 394.797 202.05C394.422 202.535 399.854 200.563 400.624 200.531C401.27 200.398 401.764 201.416 401.08 201.895C397.862 203.811 389.872 208.654 388.282 209.369C384.367 211.127 376.275 209.873 374.526 205.98C373.24 203.118 373.373 201.393 375.816 199.598C376.694 198.953 378.464 199.035 380.653 199.542C382.459 199.718 384.474 200.394 385.711 200.329C388.239 200.194 388.488 198.16 390.364 197.768C390.968 197.889 390.696 198.635 391.108 198.375C392.433 197.31 393.987 195.065 394.979 194.597C396.329 194.461 395.887 195.602 396.283 195.58C396.876 195.548 398.574 192.826 399.295 193.208Z" fill="#A77C3E"/>
<path d="M389.666 165.003C363.374 164.81 363.077 203.703 389.37 203.896C415.662 204.089 416.034 165.21 389.666 165.003Z" fill="#F9BC47"/>
<path d="M392.138 165.076C365.458 164.883 365.161 203.776 391.841 203.969C416.891 204.162 417.263 165.283 392.138 165.076Z" fill="#FECC47"/>
<path d="M405.994 188.231C404.595 194.874 399.471 200.664 390.622 200.635C369.84 200.466 370.068 168.155 390.851 168.325C391.001 168.353 391.165 168.306 391.24 168.32C371.705 168.539 371.56 199.159 391.414 199.31C399.56 199.361 404.393 194.293 405.994 188.231Z" fill="#F9BC47"/>
<path d="M391.794 172.615C392.183 172.61 392.441 172.891 392.446 173.28L392.474 174.372C394.453 174.587 395.808 175.229 397.319 176.288C397.591 176.494 397.713 176.672 397.671 176.897C397.675 177.286 397.319 177.529 396.93 177.534C396.78 177.506 396.63 177.478 396.419 177.361C395.073 176.255 393.778 175.702 392.399 175.599L392.374 183.198C396.473 184.121 398.199 185.686 398.171 188.319C398.177 191.19 395.702 193.209 392.349 193.279L392.345 195.373C392.35 195.762 392.069 196.02 391.679 196.025C391.29 196.029 391.032 195.748 391.027 195.359L391.045 193.19C388.677 192.979 386.75 192.075 384.948 190.496C384.751 190.304 384.615 190.201 384.672 189.901C384.667 189.512 385.023 189.269 385.337 189.25C385.576 189.217 385.712 189.32 385.848 189.424C387.364 190.871 388.991 191.719 391.12 191.963L391.174 184.214C387.15 183.305 385.41 181.815 385.451 179.108C385.492 176.4 387.907 174.292 391.17 174.283L391.203 173.28C391.198 172.891 391.479 172.634 391.794 172.615ZM391.187 182.898L391.246 175.538C388.596 175.585 386.834 177.117 386.858 179.061C386.821 180.916 387.703 182.012 391.187 182.898ZM392.346 184.589L392.274 192.024C394.998 191.991 396.761 190.459 396.765 188.365C396.802 186.51 395.845 185.4 392.346 184.589Z" fill="white"/>
<mask id="mask2-illustration-4" mask-type="alpha" maskUnits="userSpaceOnUse" x="373" y="193" width="29" height="18">
<path d="M399.295 193.208C401.157 193.861 397.57 197.747 394.797 202.05C394.422 202.535 399.854 200.563 400.624 200.531C401.27 200.398 401.764 201.416 401.08 201.895C397.862 203.811 389.872 208.654 388.282 209.369C384.367 211.127 376.275 209.873 374.526 205.98C373.24 203.118 373.373 201.393 375.816 199.598C376.694 198.953 378.464 199.035 380.653 199.542C382.459 199.718 384.474 200.394 385.711 200.329C388.239 200.194 388.488 198.16 390.364 197.768C390.968 197.889 390.696 198.635 391.108 198.375C392.433 197.31 393.987 195.065 394.979 194.597C396.329 194.461 395.887 195.602 396.283 195.58C396.876 195.548 398.574 192.826 399.295 193.208Z" fill="#FFBF9C"/>
</mask>
<g mask="url(#mask2-illustration-4)">
<path d="M387.802 201.666C386.142 201.08 385.135 200.967 383.504 200.303C381.439 199.462 379.246 199.014 377.02 199.135C374.651 199.265 373.571 201.236 373.571 201.236C373.571 201.236 373.969 201.988 374.441 202.647C376.943 206.142 381.978 204.53 385.38 204.479C387.847 204.443 390.178 205.383 391.375 205.08C392.146 204.886 393.334 204.585 393.157 203.809C392.994 203.098 389.926 202.416 387.802 201.666Z" fill="#A77C3E"/>
</g>
<path d="M283.119 158.836H311.237C311.237 158.836 319.07 171.33 322.036 182.879C323.812 189.796 322.651 202.139 323.055 210.182C323.629 221.623 325.296 231.373 325.296 231.373H267.022C267.022 231.373 269.028 221.61 269.671 210.182C270.125 202.117 269.307 189.758 271.301 182.879C274.691 171.184 283.119 158.836 283.119 158.836Z" fill="white"/>
<path d="M289.028 153.539C289.61 151.553 289.435 147.019 289.435 147.019H304.513C304.513 147.019 304.099 151.768 304.717 153.742C305.642 156.696 307.773 159.855 307.773 159.855C307.773 159.855 307.388 172.525 296.771 172.488C286.205 172.451 285.972 159.855 285.972 159.855C285.972 159.855 288.217 156.306 289.028 153.539Z" fill="#A77C3E"/>
<path d="M307.769 134.386C307.769 143.838 305.324 151.501 297.376 151.501C289.428 151.501 286.583 143.838 286.583 134.386C286.583 124.933 286.466 117.271 297.376 117.271C308.287 117.271 307.769 124.933 307.769 134.386Z" fill="#7C5C2D"/>
<path d="M311.441 132.553C311.441 142.568 305.146 150.687 297.382 150.687C289.617 150.687 283.323 142.568 283.323 132.553C283.323 122.537 286.723 114.418 297.382 114.418C308.041 114.418 311.441 122.537 311.441 132.553Z" fill="#A77C3E"/>
<path d="M373.586 242.579C373.586 242.579 378.899 234.649 376.642 229.335C371.928 218.24 331.224 228.451 322.036 231.169L272.116 229.335C263.836 227.266 226.825 218.228 220.363 226.076C217.51 229.54 218.326 235.244 218.326 235.244L295.548 260.51L373.586 242.579Z" fill="#3B975C"/>
<path d="M300.055 255.401C294.279 259.573 287.79 257.423 287.79 257.423L288.483 269.1C288.483 269.1 303.243 269.621 305.717 269.587C311.35 269.509 311.029 269.562 326.642 268.27C327.868 268.169 331.385 267.424 331.97 266.771C333.276 265.31 328.357 264.289 324.147 261.95C320.665 260.016 316.682 261.312 314.089 259.845C310.497 257.813 309.177 255.311 306.37 253.764C304.832 252.915 302.67 253.512 300.055 255.401Z" fill="#7C5C2D"/>
<path d="M290.941 260.729C291.494 258.006 293.793 254.209 293.793 254.209C278.716 247.079 235.927 215.292 221.257 224.461C218.405 226.244 216.069 231.817 217.182 236.686C222.166 258.489 275.808 267.019 290.941 267.453C290.941 267.453 290.419 263.303 290.941 260.729Z" fill="#48AA6B"/>
<path d="M293.677 255.401C299.453 259.573 305.942 257.423 305.942 257.423L305.249 269.1C305.249 269.1 290.489 269.621 288.015 269.587C282.382 269.509 282.703 269.562 267.09 268.27C265.864 268.169 262.347 267.424 261.762 266.771C260.456 265.31 265.375 264.289 269.585 261.95C273.067 260.016 277.05 261.312 279.643 259.845C283.235 257.813 284.555 255.311 287.362 253.764C288.9 252.915 291.062 253.512 293.677 255.401Z" fill="#A77C3E"/>
<path d="M304.513 262.545C303.96 259.822 301.661 256.025 301.661 256.025C316.738 248.895 359.527 217.108 374.197 226.277C377.049 228.06 379.385 233.633 378.272 238.502C373.288 260.305 319.646 268.835 304.513 269.269C304.513 269.269 305.036 265.119 304.513 262.545Z" fill="#48AA6B"/>
<path d="M239.108 216.092C237.131 211.009 258.465 175.748 258.465 175.748L272.121 183.072L255.289 211.557C255.289 211.557 267.783 227.958 277.215 236.263C278.232 237.158 280.075 237.583 280.883 238.504C284.429 242.546 287.74 246.835 289.028 249.303C290.862 252.82 290.437 253.726 286.379 251.544C284.602 250.589 280.05 248.414 277.215 246.246C275.674 245.068 273.572 242.415 272.121 241.357C263.756 235.255 255.479 232.696 247.666 225.056C245.725 223.159 240.501 219.674 239.108 216.092Z" fill="#A77C3E"/>
<path d="M271.709 183.897L283.119 158.836C283.119 158.836 276.699 158.162 269.467 162.707C263.058 166.735 256.02 178.803 256.02 178.803L271.709 183.897Z" fill="#EEFAFC"/>
<path d="M307.955 127.489C307.939 127.785 306.6 127.952 304.964 127.861C303.329 127.769 301.999 127.856 302.016 127.56C302.032 127.263 303.389 126.696 305.024 126.787C306.66 126.878 307.972 127.193 307.955 127.489Z" fill="black"/>
<path d="M286.812 127.489C286.828 127.785 288.167 127.952 289.801 127.86C291.435 127.769 292.764 127.856 292.748 127.56C292.731 127.263 291.375 126.696 289.741 126.787C288.107 126.878 286.795 127.192 286.812 127.489Z" fill="black"/>
<circle r="0.891844" transform="matrix(-0.988789 -0.149321 -0.149321 0.988789 304.72 130.918)" fill="#1F1609"/>
<circle r="0.891844" transform="matrix(-0.988789 -0.149321 -0.149321 0.988789 290.05 130.918)" fill="#1F1609"/>
<path d="M297.796 142.661C295.559 142.661 293.103 140.906 293.103 140.906C293.103 140.906 294.832 144.166 297.796 144.166C300.512 144.166 301.253 142.16 301.253 142.16C301.253 142.16 299.771 142.661 297.796 142.661Z" fill="#784A07" stroke="#784A07" stroke-width="0.407507" stroke-linecap="round" stroke-linejoin="round"/>
<path d="M296.363 136.015C296.363 136.015 297.102 134.282 297.735 134.39C298.641 134.545 298.884 135.368 298.789 136.015" stroke="#7C5C2D" stroke-width="0.285255" stroke-linecap="round" stroke-linejoin="round"/>
</g>
</svg>
