<svg width="402" height="351" viewBox="0 0 402 351" fill="none" xmlns="http://www.w3.org/2000/svg">
<g opacity="0.3">
<rect x="76.9185" y="5.66455" width="219.242" height="170.396" rx="1.76584" fill="#F9F9FA"/>
<path d="M110.998 94.8988C110.998 94.8988 123.104 84.7672 134.52 84.7672C156.232 84.7672 160.594 101.653 179.754 101.653C211.419 101.653 216.176 70.4146 243.083 70.4141C254.844 70.4138 262.082 76.3244 262.082 76.3244" stroke="#7B8A95" stroke-width="0.441459" stroke-linecap="round" stroke-linejoin="round"/>
<ellipse cx="116.246" cy="37.2603" rx="5.24891" ry="4.89898" fill="#A3B7BF"/>
<circle cx="116.246" cy="60.6547" r="5.24891" fill="#A3B7BF"/>
<rect x="128.037" y="32.3594" width="134.613" height="2.83993" rx="1.41996" fill="#7B8A95"/>
<rect x="128.037" y="39.7441" width="84.0619" height="2.27194" rx="1.13597" fill="#A3B7BF"/>
<rect x="128.037" y="55.647" width="69.2943" height="2.27194" rx="1.13597" fill="#A3B7BF"/>
<rect x="247.102" y="81.832" width="14.697" height="60.8874" rx="1.76584" fill="white"/>
<rect x="247.102" y="145.519" width="14.697" height="3.49928" rx="1.74964" fill="#7B8A95"/>
<rect x="219.686" y="102.129" width="13.2972" height="40.5916" rx="1.76584" fill="#34AADA" fill-opacity="0.3"/>
<rect x="219.685" y="145.519" width="13.2972" height="3.49928" rx="1.74964" fill="#7B8A95"/>
<rect x="192.708" y="117.524" width="13.2972" height="25.1948" rx="1.76584" fill="white"/>
<rect x="192.707" y="145.52" width="13.2972" height="3.49928" rx="1.74964" fill="#7B8A95"/>
<rect x="165.594" y="122.422" width="13.9971" height="20.2958" rx="1.76584" fill="#34AADA" fill-opacity="0.3"/>
<rect x="165.594" y="145.518" width="13.9971" height="3.49928" rx="1.74964" fill="#7B8A95"/>
<rect x="138.048" y="102.129" width="13.9971" height="40.5916" rx="1.76584" fill="white"/>
<rect x="138.047" y="145.519" width="13.9971" height="3.49928" rx="1.74964" fill="#7B8A95"/>
<rect x="111.199" y="129.422" width="13.2972" height="13.2972" rx="1.76584" fill="#34AADA" fill-opacity="0.3"/>
<rect x="111.198" y="145.52" width="13.2972" height="3.49928" rx="1.74964" fill="#7B8A95"/>
</g>
<path d="M211.383 204.69C211.383 234.736 175.404 277.639 148.944 277.639C122.483 277.639 106.394 236.528 108.451 200.677C110.614 162.962 129.47 149.978 158.217 145.033C171.199 142.802 181.504 141.937 188.509 146.273C203.402 155.491 211.383 184.256 211.383 204.69Z" fill="#2C3E50"/>
<path d="M159.454 285.06L152.653 283.205L162.236 345.335H165.636L159.454 285.06Z" fill="#161F28"/>
<path d="M148.325 280.733L141.216 278.878L125.761 329.88H127.615L148.325 280.733Z" fill="#161F28"/>
<path d="M146.162 280.423L139.98 278.878L124.525 329.88H126.38L146.162 280.423Z" fill="#2C3E50"/>
<path d="M160.689 286.296L154.198 284.441L163.471 345.335H166.872L160.689 286.296Z" fill="#2C3E50"/>
<path d="M264.858 263.425L256.821 265.898L284.949 329.883H288.35L264.858 263.425Z" fill="#161F28"/>
<path d="M164.708 287.225C148.784 284.359 134.106 275.788 134.106 275.788L166.872 277.334L202.11 285.37C202.11 285.37 180.163 290.007 164.708 287.225Z" fill="#161F28"/>
<path d="M266.094 263.425L262.076 264.661L286.186 329.883H289.586L266.094 263.425Z" fill="#2C3E50"/>
<path d="M256.204 267.439L248.476 269.294L237.349 317.206H239.203L256.204 267.439Z" fill="#5F5F5F"/>
<path d="M251.258 268.987L246.621 270.841L235.493 317.207H237.348L251.258 268.987Z" fill="#C4C4C4"/>
<path d="M157.289 263.728C148.943 265.892 132.87 273.311 132.87 273.311C132.87 273.311 148.509 272.635 154.507 273.311C165.091 274.503 171.194 278.101 181.708 279.803C192.91 281.616 199.577 281.701 210.764 279.803C224.445 277.482 230.788 271.534 243.839 266.821C258.056 261.686 282.477 254.459 282.477 254.459C282.477 254.459 259.515 254.334 246.002 254.766C211.76 255.86 190.452 255.131 157.289 263.728Z" fill="#2C3E50"/>
<path d="M281.548 254.458C274.129 256.621 269.973 257.753 262.383 260.333C244.644 266.361 226.16 273.724 208.292 279.186C187.391 285.575 172.493 274.476 152.962 273.004C144.505 272.367 143.998 272.077 134.106 273.004C132.229 273.18 130.392 274.626 131.013 276.406C131.477 277.735 132.698 277.641 134.106 277.641C143.072 277.641 143.691 277.57 150.489 277.641C172.653 277.87 188.167 292.459 210.765 284.441C229.929 277.641 249.485 269.496 268.565 263.731C274.706 261.875 280.929 260.329 283.711 257.858C284.704 256.976 285.098 256.161 284.33 255.078C283.705 254.197 282.584 254.156 281.548 254.458Z" fill="#374D63"/>
<ellipse cx="359.411" cy="283.022" rx="23.3982" ry="5.38332" fill="#B3854A"/>
<path d="M362.701 264.069C362.328 268.33 363.554 270.399 366.561 272.548C370.347 275.255 376.368 274.714 379.062 270.621C381.011 267.663 381.715 261.922 381.715 261.922L378.109 260.335L381.538 260.018C381.538 260.018 381.613 256.718 381.806 254.613C382.087 251.546 383.004 246.817 383.004 246.817L376.323 249.358L375.879 252.857L374.525 250.677C374.525 250.677 363.283 257.437 362.701 264.069Z" fill="#48AA6B"/>
<path d="M367.562 270.917C367.562 270.917 364.165 278.025 362.907 282.876C361.825 287.051 361.229 293.79 361.229 293.79" stroke="#307147" stroke-width="0.537627"/>
<path d="M356.933 293.038C356.933 293.038 355.92 279.62 353.396 271.464C351.302 264.693 346.093 254.849 346.093 254.849" stroke="#307147" stroke-width="0.537627"/>
<path d="M360.015 293.135C360.015 293.135 358.501 268.204 360.534 253.125C362.082 241.651 366.684 224.122 366.684 224.122" stroke="#307147" stroke-width="0.537627"/>
<path d="M341.203 231.095C341.203 231.095 347.488 234.38 349.909 237.973C354.038 244.099 356.209 254.173 349.149 258.792C340.299 264.581 332.661 259.167 330.184 249.022C328.751 243.151 330.276 240.119 327.7 234.652C326.503 232.113 323.29 228.529 323.29 228.529C323.29 228.529 327.993 227.712 330.528 227.858C333.689 228.039 338.776 229.782 338.776 229.782L337.294 234.53L341.203 231.095Z" fill="#48AA6B"/>
<path d="M346.192 251.766C346.192 251.766 345.945 249.099 342.925 245.536C340.871 243.113 339.559 242.39 339.559 242.39" stroke="#307147" stroke-width="0.537627" stroke-linecap="round" stroke-linejoin="round"/>
<path d="M369.255 268.449C369.255 268.449 369.128 266.08 370.702 263.32C371.624 261.704 372.776 260.828 372.776 260.828" stroke="#307147" stroke-width="0.537627" stroke-linecap="round" stroke-linejoin="round"/>
<path d="M353.936 208.139C352.446 216.755 355.411 225.469 363.686 228.296C371.78 231.061 381.009 228.451 385.141 219.952C388.912 212.196 386.654 197.107 386.654 197.107L381.815 194.909L386.305 193.681C386.305 193.681 386.451 187.494 385.294 183.785C383.862 179.192 379.561 172.833 379.561 172.833C379.561 172.833 375.12 180.683 371.592 185.184C367.884 189.914 360.422 196.324 360.422 196.324L364.547 202.825L358.713 198.421C358.713 198.421 354.657 203.972 353.936 208.139Z" fill="#48AA6B"/>
<path d="M364.354 219.763C364.354 219.763 364.571 214.357 366.847 210.279C368.395 207.505 369.542 206.542 369.542 206.542" stroke="#307147" stroke-width="0.537627" stroke-linecap="round" stroke-linejoin="round"/>
<path d="M336.046 282.55C336.046 282.55 345.31 286.396 359.405 286.396C373.501 286.396 382.764 282.55 382.764 282.55C382.764 282.55 383.177 301.96 382.38 309.936C381.155 322.185 370.314 327.239 359.405 327.239C348.497 327.239 337.656 322.185 336.431 309.936C335.633 301.96 336.046 282.55 336.046 282.55Z" fill="#DEB887"/>
<path d="M177.459 134.632C180.644 130.978 183.432 128.943 188.124 129.651C189.101 129.799 188.885 126.975 198.13 128.581C203.033 129.433 205.895 133.557 206.672 138.411C207.859 145.824 206.372 147.788 209.654 153.988C213.492 161.237 210.067 171.269 213.581 177.142C228.507 202.091 176.544 208.898 156.559 205.376C135.781 201.715 145.615 168.783 168.331 150.433C174.062 145.804 170.172 142.994 177.459 134.632Z" fill="black"/>
<path d="M198.331 149.493L181.313 146.923C181.313 146.923 181.764 155.23 180.45 159.923C178.889 165.499 176.39 168.058 176.39 168.058L193.671 172.109C193.671 172.109 193.694 170.962 193.671 166.96C193.632 160.218 198.331 149.493 198.331 149.493Z" fill="#FFBF9C"/>
<mask id="mask0" mask-type="alpha" maskUnits="userSpaceOnUse" x="176" y="146" width="23" height="27">
<path d="M198.269 149.56L181.251 146.99C181.251 146.99 181.702 155.296 180.388 159.99C178.827 165.565 176.328 168.124 176.328 168.124L193.609 172.175C193.609 172.175 193.632 170.987 193.609 166.985C193.57 160.243 198.269 149.56 198.269 149.56Z" fill="#D8703B"/>
</mask>
<g mask="url(#mask0)">
<path d="M199.043 162.032L183.698 154.546C183.698 154.546 185.488 158.08 186.508 159.671C191.228 167.04 197.728 164.577 197.728 164.577L199.043 162.032Z" fill="#EB976B"/>
</g>
<path d="M178.863 147.173C178.729 149.124 180.568 150.844 181.757 150.926C184.245 151.097 183.267 149.437 183.401 147.485C183.536 145.534 182.681 143.886 181.492 143.804C180.07 143.706 178.998 145.221 178.863 147.173Z" fill="#FFBF9C"/>
<path d="M182.227 149.369C183.094 157.525 189.907 163.355 194.408 163.009C197.288 162.788 199.577 161.298 201.13 158.86C202.683 156.421 203.28 152.071 202.889 147.211C202.207 138.73 198.141 133.489 191.628 134.181C185.768 134.803 181.361 141.214 182.227 149.369Z" fill="#FFBF9C"/>
<circle r="1.299" transform="matrix(-0.988789 -0.149321 -0.149321 0.988789 180.659 149.722)" fill="#FEF9ED"/>
<path d="M194.724 152.415C194.681 152.698 198.432 153.257 198.351 152.378C198.273 151.519 197.921 150.739 197.535 149.02C197.088 147.032 197.114 146.202 196.95 146.129C196.786 146.055 196.805 147.093 197.211 149.231C197.508 150.792 198.072 152.005 197.809 152.176C197.207 152.566 194.802 151.897 194.724 152.415Z" fill="#EB976B"/>
<path d="M187.241 142.725C187.307 143.024 188.561 143.002 190.042 142.676C191.524 142.349 192.756 142.248 192.69 141.948C192.624 141.649 191.285 141.266 189.804 141.592C188.322 141.919 187.175 142.426 187.241 142.725Z" fill="black"/>
<path d="M204.317 142.26C204.3 142.566 203.059 142.745 201.544 142.661C200.03 142.576 198.798 142.674 198.815 142.368C198.832 142.062 200.092 141.468 201.606 141.553C203.12 141.637 204.334 141.954 204.317 142.26Z" fill="black"/>
<circle r="0.920396" transform="matrix(-0.988789 -0.149321 -0.149321 0.988789 191.714 147.121)" fill="#1C1D38"/>
<circle r="0.920396" transform="matrix(-0.988789 -0.149321 -0.149321 0.988789 201.127 147.113)" fill="#1C1D38"/>
<circle r="3.82476" transform="matrix(-0.988789 -0.149321 -0.149321 0.988789 202.19 147.054)" stroke="white" stroke-width="0.542004"/>
<circle r="3.82476" transform="matrix(-0.988789 -0.149321 -0.149321 0.988789 190.907 146.563)" stroke="white" stroke-width="0.542004"/>
<path d="M198.575 146.49C198.575 146.49 197.979 145.904 197.223 145.79C196.117 145.623 194.513 146.405 194.513 146.405" stroke="white" stroke-width="0.542004"/>
<mask id="mask1" mask-type="alpha" maskUnits="userSpaceOnUse" x="182" y="134" width="22" height="30">
<path d="M182.227 149.368C183.094 157.524 189.907 163.354 194.408 163.008C197.288 162.787 199.577 161.297 201.13 158.859C202.683 156.42 203.28 152.07 202.889 147.21C202.207 138.729 198.141 133.488 191.628 134.18C185.768 134.802 181.361 141.213 182.227 149.368Z" fill="#FFBF9C"/>
</mask>
<g mask="url(#mask1)">
<path d="M187.515 145.302L182.233 144.225" stroke="white" stroke-width="0.542004"/>
</g>
<path d="M213.827 218.024L212.214 193.907L198.141 192.627L200.08 219.651L213.827 218.024Z" fill="#EB976B"/>
<path d="M165.302 167.464C173.534 161.022 193.876 165.764 201.124 173.008C201.124 173.008 200.904 194.484 200.272 207.976C200.272 216.574 201.124 219.286 201.124 219.286L155.402 228.15C155.402 228.15 157.209 214.471 158.839 207.976C162.372 193.903 158.612 172.699 165.302 167.464Z" fill="white"/>
<path d="M174.685 164.453C181.914 164.02 190.44 166.123 196.434 169.549C198.078 170.488 186.199 176.585 186.199 176.585C186.199 176.585 171.486 164.644 174.685 164.453Z" fill="#FFBF9C"/>
<path d="M206.882 178.553C204.323 174.715 201.125 173.009 201.125 173.009L200.698 195.824L213.492 193.905C213.492 193.905 210.202 183.532 206.882 178.553Z" fill="#EEFAFC"/>
<path d="M146.538 218.854C143.209 214.315 148.455 187.723 148.455 187.723L164.237 189.855L162.531 205.421C162.531 205.421 192.806 206.487 199.203 207.98C201.339 208.478 206.243 215.656 207.306 217.788C207.64 218.459 207.306 219.707 207.306 219.707C207.306 219.707 203.228 216.078 200.056 214.803C197.374 213.724 195.671 213.695 192.806 213.31C190.4 212.988 187.613 214.687 184.28 215.656C175.258 218.278 163.383 222.479 154.641 223.759C151.869 224.164 148.883 222.053 146.538 218.854Z" fill="#FFBF9C"/>
<path d="M164.449 192.2L172.552 164.906C172.552 164.906 167.008 164.906 159.545 169.597C152.931 173.754 145.898 186.869 145.898 186.869L164.449 192.2Z" fill="#EEFAFC"/>
<path d="M218.464 327.002C219.612 321.833 221.72 314.16 221.72 314.16L231.668 313.617C231.668 313.617 231.027 317.833 231.668 320.31C232.423 323.225 234.654 323.926 236.914 325.917C239.953 328.595 245.905 329.614 248.128 330.258C249.039 330.521 250.299 330.258 249.213 331.705C247.997 333.326 243.499 334.538 240.712 334.418C237.319 334.272 234.139 333.898 230.764 333.514C226.524 333.031 221.359 334.056 219.549 332.79C218.062 331.749 217.741 330.258 218.464 327.002Z" fill="#FFBF9C"/>
<path d="M162.771 257.22C168.59 259.897 170.474 259.264 170.474 259.264L171.891 269.684C171.891 269.684 164.959 270.664 162.771 271.064C157.788 271.974 158.367 272.322 144.372 273.894C143.272 274.018 141.069 274.841 140.44 274.366C139.034 273.304 144.856 269.142 146.731 267.604C149.499 265.333 152.865 265.085 153.965 263.515C156.093 260.476 155.954 258.456 157.424 257.221C158.634 256.206 160.136 256.008 162.771 257.22Z" fill="#FFBF9C"/>
<path d="M170.958 270.657C169.955 265.743 169.692 257.453 169.692 257.453L244.032 235.929L230.467 263.06C230.467 263.06 213.863 268.521 203.516 272.827C193.057 277.18 176.747 284.946 176.747 284.946C176.747 284.946 172.235 276.909 170.958 270.657Z" fill="#1A6C93"/>
<path d="M154.86 243.708C153.775 236.292 155.764 228.152 155.764 228.152L200.441 219.289C200.441 219.289 242.714 215.041 257.726 224.265C264.961 228.711 262.662 250.04 256.874 278.979C254.891 297.036 254.584 307.951 255.065 315.214C241.94 319.552 228.417 318.151 215.092 315.214C215.092 315.214 219.751 295.355 224.678 278.979C229.547 262.797 240.053 238.462 240.053 238.462C240.053 238.462 221.503 243.48 209.846 246.602C194.354 250.751 176.746 259.082 167.883 257.454C159.428 255.901 156.105 252.213 154.86 243.708Z" fill="#0084BA"/>
<path d="M256.097 222.206C256.486 222.218 256.455 222.236 256.538 221.855C259.452 208.451 265.641 185.138 265.641 185.138C265.721 184.769 265.748 184.777 265.358 184.763L213.711 182.976C213.439 182.967 213.452 182.944 213.388 183.206L204.236 220.532C204.219 220.599 204.221 220.589 204.29 220.591C224.96 221.222 235.953 221.592 256.097 222.206Z" fill="#CBCBCB"/>
<g opacity="0.4">
<path d="M99.6586 156.107H55.2777V111.726C55.2777 110.784 54.5134 110.02 53.5707 110.02C27.1743 110.02 5.77588 131.418 5.77588 157.814C5.77588 184.211 27.1743 205.609 53.5707 205.609C79.9671 205.609 101.366 184.211 101.366 157.814C101.366 156.872 100.601 156.107 99.6586 156.107Z" fill="#9EDCBA"/>
<path d="M60.3989 103.193C59.4562 103.193 58.6919 103.957 58.6919 104.9V150.988C58.6919 151.93 59.4562 152.695 60.3989 152.695H106.487C107.429 152.695 108.194 151.93 108.194 150.988C108.164 124.604 86.7827 103.223 60.3989 103.193Z" fill="#FECC47"/>
</g>
<circle cx="236.641" cy="202.638" r="4.0507" fill="#EAEAEA"/>
<path d="M231.352 210.684L239.973 198.278L244.389 210.684H231.352Z" fill="#CBCBCB"/>
<path d="M196.866 156.433C194.974 156.643 192.871 155.592 192.871 155.592C192.871 155.592 194.343 157.064 196.025 157.064C197.918 157.064 198.969 155.592 198.969 155.592C198.969 155.592 197.623 156.349 196.866 156.433Z" fill="#CD5315" stroke="#CD5315" stroke-width="0.420553" stroke-linecap="round" stroke-linejoin="round"/>
</svg>
