<svg width="591" height="436" viewBox="0 0 591 436" fill="none" xmlns="http://www.w3.org/2000/svg">
<path d="M295.414 30.1338C235.338 30.1338 186.628 78.8644 186.628 138.966H295.414V30.1338Z" fill="#E93939"/>
<path d="M186.627 149.06V257.891H295.413V149.06C295.413 209.161 344.123 257.891 404.199 257.891V149.06H295.413H186.627Z" fill="#E93939"/>
<path d="M404.212 30.1338C344.136 30.1338 295.426 78.8644 295.426 138.966H404.212V30.1338Z" fill="#E93939"/>
<path d="M7.1001 424L7.1001 357.3H52.5001V369.8H23.3001L23.3001 385.7H48.5001V398.4H23.3001V424H7.1001Z" fill="white"/>
<path d="M86.0642 425.5C78.9975 425.5 73.2642 423.833 68.8642 420.5C64.4642 417.166 62.2642 411.9 62.2642 404.7V373.4H77.1642V403.5C77.1642 406.7 77.8642 409.1 79.2642 410.7C80.7308 412.233 83.0308 413 86.1642 413C89.2975 413 91.5642 412.233 92.9642 410.7C94.4308 409.1 95.1642 406.7 95.1642 403.5V373.4H109.164V404.7C109.164 411.9 107.097 417.166 102.964 420.5C98.8308 423.833 93.1975 425.5 86.0642 425.5Z" fill="white"/>
<path d="M137.123 424H122.323V354.3H137.123V424Z" fill="white"/>
<path d="M165.15 424H150.35V354.3H165.15V424Z" fill="white"/>
<path d="M236.014 425.3C225.347 425.3 217.214 422.5 211.614 416.9C206.014 411.233 203.214 402.5 203.214 390.7C203.214 379.166 205.881 370.466 211.214 364.6C216.614 358.733 224.881 355.8 236.014 355.8C239.548 355.8 243.114 356.266 246.714 357.2C250.314 358.066 253.814 359.233 257.214 360.7V374.8C253.747 372.533 250.414 370.9 247.214 369.9C244.014 368.9 241.014 368.4 238.214 368.4C234.281 368.4 230.947 369.1 228.214 370.5C225.481 371.9 223.414 374.233 222.014 377.5C220.614 380.766 219.914 385.166 219.914 390.7C219.914 396.233 220.614 400.6 222.014 403.8C223.481 407 225.614 409.3 228.414 410.7C231.281 412.033 234.781 412.7 238.914 412.7C241.381 412.7 244.181 412.233 247.314 411.3C250.447 410.366 253.747 408.766 257.214 406.5V420.6C254.481 422 251.147 423.133 247.214 424C243.281 424.866 239.548 425.3 236.014 425.3Z" fill="white"/>
<path d="M291.802 425.5C274.669 425.5 266.136 416.5 266.202 398.5C266.202 388.966 268.369 382.133 272.702 378C277.036 373.8 283.402 371.7 291.802 371.7C300.269 371.7 306.702 373.866 311.102 378.2C315.502 382.466 317.702 389.233 317.702 398.5C317.702 407.366 315.469 414.1 311.002 418.7C306.536 423.233 300.136 425.5 291.802 425.5ZM291.802 413.6C295.469 413.6 298.236 412.333 300.102 409.8C301.969 407.2 302.902 403.433 302.902 398.5C302.902 392.9 301.936 389 300.002 386.8C298.136 384.6 295.402 383.5 291.802 383.5C288.002 383.5 285.236 384.633 283.502 386.9C281.769 389.166 280.902 393.033 280.902 398.5C280.902 403.566 281.769 407.366 283.502 409.9C285.302 412.366 288.069 413.6 291.802 413.6Z" fill="white"/>
<path d="M351.787 425.5C344.72 425.5 338.987 423.833 334.587 420.5C330.187 417.166 327.987 411.9 327.987 404.7V373.4H342.887V403.5C342.887 406.7 343.587 409.1 344.987 410.7C346.453 412.233 348.753 413 351.887 413C355.02 413 357.287 412.233 358.687 410.7C360.153 409.1 360.887 406.7 360.887 403.5V373.4H374.887V404.7C374.887 411.9 372.82 417.166 368.687 420.5C364.553 423.833 358.92 425.5 351.787 425.5Z" fill="white"/>
<path d="M388.045 424V378.7C388.979 377.966 390.645 377.066 393.045 376C395.445 374.933 398.179 374 401.245 373.2C404.379 372.333 407.512 371.9 410.645 371.9C413.779 371.9 416.245 372.133 418.045 372.6C419.845 373.066 421.212 373.666 422.145 374.4V385.3C420.612 384.966 418.612 384.733 416.145 384.6C413.679 384.466 411.212 384.433 408.745 384.5C406.345 384.5 404.412 384.633 402.945 384.9V424H388.045Z" fill="white"/>
<path d="M451.519 426C445.652 426 441.286 424.633 438.419 421.9C435.552 419.1 434.119 415.166 434.119 410.1V384.8H426.719V373.4H434.119V359.5H449.719V373.4H460.819V384.8H449.719V408.2C449.719 409.933 450.086 411.233 450.819 412.1C451.552 412.9 452.785 413.3 454.519 413.3C456.852 413.3 458.952 412.6 460.819 411.2V423.9C459.352 424.7 457.819 425.233 456.219 425.5C454.619 425.833 453.052 426 451.519 426Z" fill="white"/>
<path d="M494.464 424L519.664 357.3H537.364L560.964 424H544.364L539.464 409.6H514.564L509.764 424H494.464ZM518.464 397.7H535.464L526.864 372.4L518.464 397.7Z" fill="white"/>
<path d="M568.905 366.5V355H584.305V366.5H568.905ZM569.205 424V374.1H584.105L584.205 424H569.205Z" fill="white"/>
</svg>
