<svg width="559" height="455" viewBox="0 0 559 455" fill="none" xmlns="http://www.w3.org/2000/svg">
<path d="M279.914 30.1338C219.838 30.1338 171.128 78.8644 171.128 138.966H279.914V30.1338Z" fill="#E93939"/>
<path d="M171.127 149.06V257.891H279.913V149.06C279.913 209.161 328.623 257.891 388.699 257.891V149.06H279.913H171.127Z" fill="#E93939"/>
<path d="M388.712 30.1338C328.636 30.1338 279.926 78.8644 279.926 138.966H388.712V30.1338Z" fill="#E93939"/>
<path d="M7.43478 427V357.632H54.6508V370.632H24.2828V387.168H50.4908V400.376H24.2828V427H7.43478ZM89.5574 428.56C84.7041 428.56 80.4054 427.797 76.6614 426.272C72.9174 424.747 70.0054 422.424 67.9254 419.304C65.8454 416.115 64.8054 411.989 64.8054 406.928V374.376H80.3014V405.68C80.3014 409.008 81.0294 411.504 82.4854 413.168C84.0107 414.763 86.4027 415.56 89.6614 415.56C92.9894 415.56 95.3814 414.763 96.8374 413.168C98.2934 411.504 99.0214 409.008 99.0214 405.68V374.376H113.581V406.928C113.581 414.416 111.432 419.893 107.133 423.36C102.835 426.827 96.9761 428.56 89.5574 428.56ZM142.658 427H127.266V354.512H142.658V427ZM171.807 427H156.415V354.512H171.807V427ZM216.763 428.352C205.67 428.352 197.177 425.44 191.283 419.616C185.459 413.723 182.547 404.64 182.547 392.368C182.547 380.443 185.355 371.429 190.971 365.328C196.587 359.157 205.185 356.072 216.763 356.072C220.438 356.072 224.147 356.523 227.891 357.424C231.635 358.325 235.275 359.573 238.811 361.168V375.832C235.206 373.475 231.739 371.776 228.411 370.736C225.083 369.696 221.963 369.176 219.051 369.176C214.961 369.176 211.494 369.904 208.651 371.36C205.878 372.816 203.729 375.243 202.203 378.64C200.747 382.037 200.019 386.613 200.019 392.368C200.019 398.123 200.747 402.664 202.203 405.992C203.729 409.32 205.947 411.712 208.859 413.168C211.841 414.555 215.481 415.248 219.779 415.248C222.345 415.248 225.257 414.763 228.515 413.792C231.774 412.821 235.206 411.157 238.811 408.8V423.464C236.87 424.435 234.651 425.301 232.155 426.064C229.729 426.757 227.163 427.312 224.459 427.728C221.825 428.144 219.259 428.352 216.763 428.352ZM274.783 428.56C265.908 428.56 259.218 426.203 254.711 421.488C250.274 416.704 248.055 409.701 248.055 400.48C248.055 390.565 250.308 383.459 254.815 379.16C259.391 374.792 266.047 372.608 274.783 372.608C280.676 372.608 285.599 373.613 289.551 375.624C293.572 377.565 296.588 380.581 298.599 384.672C300.679 388.763 301.719 394.032 301.719 400.48C301.719 409.701 299.396 416.704 294.751 421.488C290.106 426.203 283.45 428.56 274.783 428.56ZM274.783 416.184C277.348 416.184 279.463 415.595 281.127 414.416C282.86 413.168 284.143 411.4 284.975 409.112C285.876 406.755 286.327 403.877 286.327 400.48C286.327 396.597 285.876 393.547 284.975 391.328C284.143 389.04 282.86 387.411 281.127 386.44C279.394 385.4 277.279 384.88 274.783 384.88C272.148 384.88 269.999 385.4 268.335 386.44C266.671 387.48 265.423 389.144 264.591 391.432C263.828 393.651 263.447 396.667 263.447 400.48C263.447 405.749 264.348 409.701 266.151 412.336C268.023 414.901 270.9 416.184 274.783 416.184ZM337.167 428.56C332.313 428.56 328.015 427.797 324.271 426.272C320.527 424.747 317.615 422.424 315.535 419.304C313.455 416.115 312.415 411.989 312.415 406.928V374.376H327.911V405.68C327.911 409.008 328.639 411.504 330.095 413.168C331.62 414.763 334.012 415.56 337.271 415.56C340.599 415.56 342.991 414.763 344.447 413.168C345.903 411.504 346.631 409.008 346.631 405.68V374.376H361.191V406.928C361.191 414.416 359.041 419.893 354.743 423.36C350.444 426.827 344.585 428.56 337.167 428.56ZM374.876 427V379.888C375.846 379.056 377.58 378.12 380.076 377.08C382.572 375.971 385.414 375 388.604 374.168C391.862 373.267 395.121 372.816 398.38 372.816C401.638 372.816 404.204 373.059 406.076 373.544C407.948 374.029 409.369 374.653 410.34 375.416V386.752C409.161 386.475 407.67 386.267 405.868 386.128C404.065 385.989 402.193 385.92 400.252 385.92C398.31 385.851 396.473 385.851 394.74 385.92C393.006 385.989 391.55 386.128 390.372 386.336V427H374.876ZM440.888 429.08C434.787 429.08 430.245 427.659 427.264 424.816C424.283 421.904 422.792 417.813 422.792 412.544V386.232H415.096V374.376H422.792V359.92H439.016V374.376H450.56V386.232H439.016V410.568C439.016 412.371 439.397 413.723 440.16 414.624C440.923 415.456 442.205 415.872 444.008 415.872C445.048 415.872 446.192 415.664 447.44 415.248C448.688 414.832 449.728 414.312 450.56 413.688V427C449.104 427.763 447.509 428.283 445.776 428.56C444.112 428.907 442.483 429.08 440.888 429.08ZM456.809 427L483.017 357.632H501.425L525.969 427H508.705L486.553 361.584L494.769 360.856L472.721 427H456.809ZM471.577 412.024L475.009 399.648H506.521L508.081 412.024H471.577ZM534.747 427V357.632H551.595V427H534.747Z" fill="white"/>
</svg>
