<svg width="599" height="63" viewBox="0 0 599 63" fill="none" xmlns="http://www.w3.org/2000/svg">
<path d="M341.524 50V54.3986H341.562C341.638 54.2942 341.735 54.1854 341.854 54.0723C341.973 53.9592 342.112 53.8548 342.273 53.759C342.442 53.6633 342.637 53.585 342.857 53.5241C343.077 53.4545 343.327 53.4197 343.606 53.4197C344.038 53.4197 344.436 53.5067 344.8 53.6807C345.164 53.8461 345.477 54.0766 345.74 54.3725C346.002 54.6683 346.205 55.0164 346.349 55.4167C346.493 55.8169 346.565 56.2477 346.565 56.7088C346.565 57.17 346.493 57.6051 346.349 58.0141C346.214 58.4143 346.015 58.7667 345.752 59.0713C345.498 59.3671 345.185 59.6064 344.813 59.7892C344.449 59.9632 344.034 60.0502 343.568 60.0502C343.137 60.0502 342.73 59.9545 342.349 59.7631C341.977 59.5716 341.685 59.2932 341.473 58.9277H341.448V59.8675H340V50H341.524ZM345.016 56.7088C345.016 56.4652 344.978 56.2259 344.902 55.991C344.834 55.7473 344.728 55.5298 344.584 55.3384C344.44 55.1469 344.258 54.9946 344.038 54.8815C343.818 54.7597 343.56 54.6988 343.264 54.6988C342.984 54.6988 342.734 54.7597 342.514 54.8815C342.294 55.0033 342.104 55.16 341.943 55.3514C341.791 55.5428 341.672 55.7604 341.587 56.004C341.511 56.2477 341.473 56.4913 341.473 56.7349C341.473 56.9786 341.511 57.2222 341.587 57.4659C341.672 57.7008 341.791 57.914 341.943 58.1054C342.104 58.2969 342.294 58.4535 342.514 58.5753C342.734 58.6884 342.984 58.745 343.264 58.745C343.56 58.745 343.818 58.6841 344.038 58.5623C344.258 58.4404 344.44 58.2838 344.584 58.0924C344.728 57.9009 344.834 57.6834 344.902 57.4398C344.978 57.1961 345.016 56.9525 345.016 56.7088Z" fill="#797A7C"/>
<path d="M347.121 53.6024H348.81L350.511 58.1576H350.537L352.048 53.6024H353.635L350.753 61.2118C350.643 61.499 350.524 61.7513 350.397 61.9689C350.27 62.1951 350.118 62.3822 349.94 62.5301C349.762 62.6867 349.551 62.8042 349.305 62.8825C349.068 62.9608 348.78 63 348.442 63C348.315 63 348.183 62.9913 348.048 62.9739C347.921 62.9652 347.79 62.9434 347.654 62.9086L347.781 61.5512C347.883 61.586 347.98 61.6078 348.073 61.6165C348.175 61.6339 348.268 61.6426 348.353 61.6426C348.514 61.6426 348.649 61.6208 348.759 61.5773C348.869 61.5425 348.962 61.4816 349.038 61.3946C349.115 61.3163 349.182 61.2162 349.242 61.0944C349.301 60.9726 349.364 60.829 349.432 60.6637L349.737 59.8675L347.121 53.6024Z" fill="#797A7C"/>
<path d="M361.505 59.0713H361.466C361.314 59.3497 361.069 59.5803 360.73 59.7631C360.391 59.9371 360.006 60.0241 359.574 60.0241C359.329 60.0241 359.071 59.9893 358.8 59.9197C358.537 59.8588 358.292 59.7544 358.063 59.6064C357.843 59.4498 357.657 59.2497 357.505 59.006C357.361 58.7537 357.289 58.4448 357.289 58.0793C357.289 57.6094 357.416 57.2353 357.67 56.9568C357.932 56.6784 358.266 56.4652 358.673 56.3173C359.079 56.1693 359.528 56.0736 360.019 56.0301C360.518 55.9779 361.005 55.9518 361.479 55.9518V55.7952C361.479 55.4036 361.339 55.1165 361.06 54.9337C360.789 54.7423 360.463 54.6466 360.082 54.6466C359.761 54.6466 359.452 54.7162 359.155 54.8554C358.859 54.9946 358.614 55.1643 358.419 55.3645L357.632 54.4116C357.979 54.081 358.376 53.833 358.825 53.6677C359.282 53.5023 359.744 53.4197 360.209 53.4197C360.751 53.4197 361.196 53.498 361.543 53.6546C361.898 53.8112 362.178 54.0157 362.381 54.2681C362.584 54.5204 362.724 54.8032 362.8 55.1165C362.884 55.4297 362.927 55.743 362.927 56.0562V59.8675H361.505V59.0713ZM361.479 57.009H361.136C360.891 57.009 360.633 57.0221 360.362 57.0482C360.091 57.0656 359.841 57.1135 359.612 57.1918C359.384 57.2614 359.193 57.3658 359.041 57.505C358.889 57.6355 358.812 57.8183 358.812 58.0532C358.812 58.2011 358.842 58.3273 358.901 58.4317C358.969 58.5274 359.054 58.6058 359.155 58.6667C359.257 58.7276 359.371 58.7711 359.498 58.7972C359.625 58.8233 359.752 58.8363 359.879 58.8363C360.404 58.8363 360.802 58.6928 361.073 58.4056C361.344 58.1185 361.479 57.7269 361.479 57.2309V57.009Z" fill="#797A7C"/>
<path d="M368.867 55.3384C368.749 55.1643 368.571 55.0208 368.334 54.9076C368.097 54.7858 367.856 54.7249 367.61 54.7249C367.331 54.7249 367.085 54.7858 366.874 54.9076C366.662 55.0208 366.484 55.173 366.34 55.3645C366.205 55.5559 366.103 55.7734 366.035 56.0171C365.968 56.252 365.934 56.4913 365.934 56.7349C365.934 56.9786 365.968 57.2222 366.035 57.4659C366.112 57.7008 366.222 57.914 366.366 58.1054C366.51 58.2969 366.687 58.4535 366.899 58.5753C367.119 58.6884 367.373 58.745 367.661 58.745C367.898 58.745 368.135 58.6971 368.372 58.6014C368.609 58.5057 368.8 58.3665 368.943 58.1837L369.896 59.1757C369.642 59.4542 369.316 59.6717 368.918 59.8283C368.529 59.9762 368.105 60.0502 367.648 60.0502C367.2 60.0502 366.772 59.9762 366.366 59.8283C365.968 59.6804 365.616 59.4629 365.312 59.1757C365.015 58.8886 364.778 58.5405 364.601 58.1315C364.431 57.7226 364.347 57.257 364.347 56.7349C364.347 56.2303 364.431 55.7734 364.601 55.3645C364.778 54.9555 365.015 54.6074 365.312 54.3203C365.608 54.0331 365.951 53.8112 366.34 53.6546C366.738 53.498 367.161 53.4197 367.61 53.4197C368.059 53.4197 368.491 53.5067 368.905 53.6807C369.329 53.8548 369.663 54.094 369.909 54.3986L368.867 55.3384Z" fill="#797A7C"/>
<path d="M370.547 56.7088C370.547 56.2129 370.632 55.7647 370.801 55.3645C370.979 54.9555 371.216 54.6074 371.512 54.3203C371.808 54.0331 372.16 53.8112 372.566 53.6546C372.972 53.498 373.404 53.4197 373.861 53.4197C374.319 53.4197 374.75 53.498 375.157 53.6546C375.563 53.8112 375.914 54.0331 376.211 54.3203C376.507 54.6074 376.74 54.9555 376.909 55.3645C377.087 55.7647 377.176 56.2129 377.176 56.7088C377.176 57.2048 377.087 57.6573 376.909 58.0663C376.74 58.4752 376.507 58.8276 376.211 59.1235C375.914 59.4106 375.563 59.6369 375.157 59.8022C374.75 59.9675 374.319 60.0502 373.861 60.0502C373.404 60.0502 372.972 59.9675 372.566 59.8022C372.16 59.6369 371.808 59.4106 371.512 59.1235C371.216 58.8276 370.979 58.4752 370.801 58.0663C370.632 57.6573 370.547 57.2048 370.547 56.7088ZM372.096 56.7088C372.096 56.9525 372.13 57.1961 372.198 57.4398C372.274 57.6834 372.384 57.9009 372.528 58.0924C372.672 58.2838 372.854 58.4404 373.074 58.5623C373.294 58.6841 373.557 58.745 373.861 58.745C374.166 58.745 374.429 58.6841 374.649 58.5623C374.869 58.4404 375.051 58.2838 375.195 58.0924C375.339 57.9009 375.444 57.6834 375.512 57.4398C375.588 57.1961 375.627 56.9525 375.627 56.7088C375.627 56.4652 375.588 56.2259 375.512 55.991C375.444 55.7473 375.339 55.5298 375.195 55.3384C375.051 55.1469 374.869 54.9946 374.649 54.8815C374.429 54.7597 374.166 54.6988 373.861 54.6988C373.557 54.6988 373.294 54.7597 373.074 54.8815C372.854 54.9946 372.672 55.1469 372.528 55.3384C372.384 55.5298 372.274 55.7473 372.198 55.991C372.13 56.2259 372.096 56.4652 372.096 56.7088Z" fill="#797A7C"/>
<path d="M378.653 53.6024H380.114V54.6466H380.139C380.308 54.2811 380.545 53.9853 380.85 53.759C381.155 53.5328 381.51 53.4197 381.917 53.4197C381.976 53.4197 382.04 53.424 382.107 53.4327C382.175 53.4327 382.234 53.4414 382.285 53.4588V54.8946C382.183 54.8685 382.095 54.8511 382.018 54.8424C381.951 54.8337 381.883 54.8293 381.815 54.8293C381.468 54.8293 381.189 54.8946 380.977 55.0251C380.765 55.1556 380.6 55.3122 380.482 55.495C380.363 55.6777 380.283 55.8648 380.241 56.0562C380.198 56.2477 380.177 56.3999 380.177 56.5131V59.8675H378.653V53.6024Z" fill="#797A7C"/>
<path d="M383.279 53.6024H384.726V54.6074H384.752C384.887 54.2942 385.12 54.0201 385.45 53.7851C385.789 53.5415 386.187 53.4197 386.644 53.4197C387.042 53.4197 387.38 53.4936 387.66 53.6416C387.948 53.7808 388.18 53.9679 388.358 54.2028C388.544 54.4378 388.68 54.7075 388.765 55.012C388.849 55.3166 388.892 55.6299 388.892 55.9518V59.8675H387.368V56.3956C387.368 56.2129 387.355 56.0214 387.33 55.8213C387.304 55.6212 387.249 55.4428 387.165 55.2861C387.08 55.1208 386.961 54.9859 386.809 54.8815C386.665 54.7771 386.47 54.7249 386.225 54.7249C385.979 54.7249 385.768 54.7771 385.59 54.8815C385.412 54.9772 385.264 55.1034 385.145 55.26C385.035 55.4167 384.951 55.5994 384.892 55.8082C384.832 56.0084 384.803 56.2129 384.803 56.4217V59.8675H383.279V53.6024Z" fill="#797A7C"/>
<path d="M394.01 55.2731C393.874 55.0904 393.688 54.9337 393.451 54.8032C393.214 54.664 392.956 54.5944 392.676 54.5944C392.431 54.5944 392.206 54.6466 392.003 54.751C391.8 54.8554 391.698 55.0295 391.698 55.2731C391.698 55.5167 391.808 55.6908 392.029 55.7952C392.257 55.8909 392.587 55.991 393.019 56.0954C393.248 56.1476 393.476 56.2172 393.705 56.3042C393.942 56.3912 394.153 56.5087 394.34 56.6566C394.534 56.7959 394.691 56.9742 394.81 57.1918C394.928 57.4006 394.987 57.6573 394.987 57.9618C394.987 58.3447 394.915 58.671 394.771 58.9408C394.636 59.2018 394.45 59.415 394.213 59.5803C393.984 59.7457 393.713 59.8631 393.4 59.9327C393.095 60.011 392.778 60.0502 392.448 60.0502C391.974 60.0502 391.512 59.9632 391.063 59.7892C390.615 59.6064 390.242 59.3497 389.946 59.0191L390.949 58.0532C391.118 58.2795 391.339 58.4665 391.609 58.6145C391.88 58.7624 392.181 58.8363 392.511 58.8363C392.621 58.8363 392.731 58.8233 392.841 58.7972C392.96 58.7711 393.066 58.7319 393.159 58.6797C393.26 58.6188 393.341 58.5405 393.4 58.4448C393.459 58.3491 393.489 58.2316 393.489 58.0924C393.489 57.8313 393.37 57.6442 393.133 57.5311C392.905 57.418 392.558 57.3049 392.092 57.1918C391.863 57.1396 391.639 57.0743 391.419 56.996C391.207 56.909 391.017 56.8002 390.848 56.6697C390.678 56.5305 390.543 56.3608 390.441 56.1606C390.34 55.9605 390.289 55.7125 390.289 55.4167C390.289 55.0686 390.357 54.7684 390.492 54.5161C390.636 54.2637 390.822 54.0592 391.051 53.9026C391.279 53.7373 391.538 53.6155 391.825 53.5371C392.113 53.4588 392.409 53.4197 392.714 53.4197C393.154 53.4197 393.582 53.498 393.997 53.6546C394.42 53.8112 394.754 54.0505 395 54.3725L394.01 55.2731Z" fill="#797A7C"/>
<path d="M255.513 22.8036C256.046 21.6681 256.955 20.6947 258.24 19.8836C259.525 19.0725 260.967 18.667 262.565 18.667C264.007 18.667 265.245 18.9265 266.279 19.4456C267.313 19.9323 268.175 20.5974 268.865 21.4409C269.554 22.2845 270.056 23.274 270.369 24.4096C270.714 25.5451 270.886 26.7618 270.886 28.0595V42.3673H266.467V29.6168C266.467 28.676 266.389 27.7838 266.232 26.9402C266.107 26.0967 265.856 25.3504 265.48 24.7016C265.104 24.0527 264.587 23.5336 263.928 23.1443C263.302 22.7549 262.471 22.5603 261.437 22.5603C259.682 22.5603 258.24 23.2578 257.112 24.6529C255.983 26.0156 255.419 27.8486 255.419 30.1522V42.3673H251V10H255.419V22.8036H255.513Z" fill="#797A7C"/>
<path d="M290.69 27.4269C290.69 25.7073 290.189 24.442 289.186 23.6309C288.183 22.7874 286.851 22.3656 285.19 22.3656C283.936 22.3656 282.745 22.6252 281.617 23.1443C280.52 23.6309 279.595 24.2636 278.843 25.0422L276.493 22.1223C277.59 21.0516 278.922 20.2081 280.489 19.5916C282.087 18.9752 283.795 18.667 285.613 18.667C287.211 18.667 288.59 18.9103 289.75 19.397C290.941 19.8512 291.913 20.4838 292.665 21.2949C293.417 22.106 293.981 23.0631 294.357 24.1662C294.733 25.2693 294.921 26.4535 294.921 27.7189V37.7927C294.921 38.5714 294.937 39.3987 294.968 40.2747C295.031 41.1182 295.125 41.8158 295.25 42.3673H291.254C291.004 41.2642 290.878 40.1611 290.878 39.0581H290.737C289.922 40.2909 288.888 41.248 287.635 41.9293C286.412 42.6107 284.955 42.9513 283.262 42.9513C282.385 42.9513 281.46 42.8216 280.489 42.562C279.548 42.3349 278.687 41.9456 277.903 41.394C277.119 40.8425 276.461 40.1125 275.929 39.2041C275.427 38.2956 275.176 37.1763 275.176 35.8461C275.176 34.0941 275.631 32.7152 276.54 31.7095C277.449 30.6713 278.64 29.8926 280.113 29.3735C281.586 28.822 283.247 28.4651 285.096 28.3029C286.945 28.1406 288.81 28.0595 290.69 28.0595V27.4269ZM289.609 31.3688C288.512 31.3688 287.368 31.4175 286.177 31.5148C285.018 31.6121 283.952 31.8068 282.98 32.0988C282.04 32.3908 281.257 32.8288 280.63 33.4128C280.003 33.9968 279.689 34.7754 279.689 35.7488C279.689 36.4301 279.815 36.9979 280.066 37.4521C280.348 37.9063 280.708 38.2794 281.147 38.5714C281.586 38.8634 282.071 39.0743 282.604 39.2041C283.137 39.3014 283.686 39.35 284.25 39.35C286.318 39.35 287.901 38.7174 288.998 37.4521C290.126 36.1543 290.69 34.5321 290.69 32.5855V31.3688H289.609Z" fill="#797A7C"/>
<path d="M300.763 24.2636C300.763 23.6471 300.748 22.8523 300.716 21.8789C300.685 20.9056 300.638 20.0459 300.575 19.2996H304.759C304.822 19.8836 304.869 20.565 304.9 21.3436C304.932 22.0898 304.947 22.7063 304.947 23.1929H305.088C305.715 21.8303 306.624 20.7434 307.815 19.9323C309.037 19.0888 310.401 18.667 311.905 18.667C312.595 18.667 313.175 18.7319 313.645 18.8616L313.457 23.0956C312.83 22.9334 312.156 22.8523 311.435 22.8523C310.37 22.8523 309.445 23.0631 308.661 23.4849C307.878 23.8742 307.22 24.4096 306.687 25.0909C306.185 25.7722 305.809 26.5671 305.559 27.4755C305.308 28.3515 305.183 29.2762 305.183 30.2495V42.3673H300.763V24.2636Z" fill="#797A7C"/>
<path d="M328.664 42.3673H323.869L314.796 19.2996H319.685L326.22 37.4521H326.314L332.896 19.2996H337.597L328.664 42.3673Z" fill="#797A7C"/>
<path d="M356.645 28.7895C356.614 27.8811 356.457 27.0375 356.175 26.2589C355.924 25.4478 355.532 24.7502 355 24.1662C354.498 23.5823 353.856 23.128 353.072 22.8036C352.32 22.4467 351.427 22.2683 350.392 22.2683C349.452 22.2683 348.559 22.4467 347.713 22.8036C346.898 23.128 346.177 23.5823 345.55 24.1662C344.955 24.7502 344.453 25.4478 344.046 26.2589C343.67 27.0375 343.45 27.8811 343.388 28.7895H356.645ZM361.111 30.6388C361.111 30.8984 361.111 31.1579 361.111 31.4175C361.111 31.677 361.096 31.9366 361.064 32.1961H343.388C343.419 33.1695 343.623 34.0941 343.999 34.9701C344.406 35.8136 344.939 36.5599 345.597 37.2087C346.255 37.8252 347.008 38.3118 347.854 38.6687C348.731 39.0256 349.656 39.2041 350.627 39.2041C352.132 39.2041 353.433 38.8634 354.53 38.1821C355.626 37.5007 356.488 36.6734 357.115 35.7001L360.218 38.2794C359.027 39.9016 357.617 41.102 355.987 41.8807C354.388 42.6269 352.602 43 350.627 43C348.935 43 347.368 42.708 345.926 42.124C344.485 41.54 343.247 40.7289 342.212 39.6907C341.178 38.6201 340.363 37.3385 339.768 35.8461C339.172 34.3537 338.874 32.699 338.874 30.8822C338.874 29.0977 339.157 27.4593 339.721 25.9669C340.316 24.442 341.131 23.1443 342.165 22.0736C343.2 21.0029 344.422 20.1756 345.832 19.5916C347.243 18.9752 348.763 18.667 350.392 18.667C352.022 18.667 353.495 18.9428 354.812 19.4943C356.159 20.0459 357.288 20.8407 358.196 21.8789C359.137 22.9171 359.858 24.1825 360.359 25.6749C360.86 27.1349 361.111 28.7895 361.111 30.6388Z" fill="#797A7C"/>
<path d="M377.778 25.1396C377.276 24.296 376.571 23.6147 375.662 23.0956C374.753 22.544 373.735 22.2683 372.606 22.2683C372.105 22.2683 371.603 22.3332 371.102 22.4629C370.601 22.5603 370.146 22.7387 369.739 22.9983C369.363 23.2254 369.049 23.5336 368.798 23.9229C368.579 24.2798 368.469 24.734 368.469 25.2856C368.469 26.2589 368.892 26.9889 369.739 27.4755C370.585 27.9297 371.854 28.3515 373.547 28.7408C374.612 29.0004 375.599 29.3086 376.508 29.6655C377.417 30.0224 378.201 30.4766 378.859 31.0282C379.548 31.5473 380.081 32.1799 380.457 32.9261C380.833 33.6723 381.022 34.5483 381.022 35.5541C381.022 36.9167 380.771 38.0685 380.269 39.0094C379.768 39.9503 379.094 40.7289 378.248 41.3454C377.433 41.9293 376.493 42.3511 375.427 42.6107C374.361 42.8702 373.265 43 372.136 43C370.444 43 368.783 42.6593 367.153 41.978C365.555 41.2967 364.223 40.2585 363.157 38.8634L366.307 36.0894C366.902 36.9979 367.717 37.7603 368.751 38.3767C369.817 38.9932 370.977 39.3014 372.23 39.3014C372.794 39.3014 373.327 39.2527 373.829 39.1554C374.361 39.0256 374.832 38.8309 375.239 38.5714C375.678 38.3118 376.023 37.9712 376.273 37.5494C376.524 37.1276 376.649 36.5923 376.649 35.9434C376.649 34.8728 376.148 34.0779 375.145 33.5588C374.173 33.0397 372.732 32.553 370.82 32.0988C370.068 31.9041 369.3 31.677 368.516 31.4175C367.764 31.1255 367.075 30.7362 366.448 30.2495C365.821 29.7628 365.304 29.1626 364.896 28.4489C364.52 27.7026 364.332 26.7942 364.332 25.7236C364.332 24.4907 364.567 23.4363 365.037 22.5603C365.539 21.6518 366.181 20.9218 366.965 20.3703C367.748 19.7863 368.642 19.3645 369.645 19.105C370.648 18.813 371.682 18.667 372.747 18.667C374.346 18.667 375.882 18.9914 377.355 19.6403C378.859 20.2892 380.019 21.2301 380.833 22.4629L377.778 25.1396Z" fill="#797A7C"/>
<path d="M396 23.0469H390.076V35.0674C390.076 36.4625 390.327 37.4683 390.829 38.0847C391.33 38.6687 392.129 38.9607 393.226 38.9607C393.634 38.9607 394.072 38.9121 394.543 38.8147C395.013 38.7174 395.436 38.5714 395.812 38.3767L395.953 42.124C395.42 42.3187 394.825 42.4647 394.167 42.562C393.54 42.6918 392.882 42.7567 392.192 42.7567C390.092 42.7567 388.478 42.1565 387.35 40.956C386.253 39.7556 385.704 37.955 385.704 35.5541V23.0469H381.426V19.2996H385.704V12.6811H390.076V19.2996H396V23.0469Z" fill="#797A7C"/>
<path fill-rule="evenodd" clip-rule="evenodd" d="M223.395 3C218.93 7.01987 210 17.6469 210 27.9963C210 39.5007 218.607 41.6414 222.574 41.9744V34.6134L217.686 30.1076L219.062 28.5162L222.574 31.7536V26.278L219.148 23.0875L220.531 21.5032L222.574 23.4055V18.7872H224.64V23.4055L226.682 21.5032L228.066 23.0875L224.64 26.278V31.6872L227.927 28.5308L229.333 30.093L224.64 34.6004V42C229.075 41.6936 237 38.847 237 27.1192C237 17.1207 227.93 6.87369 223.395 3Z" fill="#797A7C"/>
<path d="M511.124 41.528C511.124 44.9565 510.235 47.5528 508.456 49.3168C506.703 51.1056 504.022 52 500.414 52C498.762 52 497.136 51.8137 495.536 51.441C493.935 51.0932 492.461 50.3975 491.114 49.354L494.278 44.7329C495.167 45.4534 496.095 46.0248 497.06 46.4472C498.051 46.8696 499.131 47.0807 500.3 47.0807C502.053 47.0807 503.336 46.6584 504.149 45.8137C504.988 44.9938 505.407 43.9379 505.407 42.646V40.8944H505.331C504.67 41.764 503.844 42.3851 502.853 42.7578C501.888 43.1056 500.973 43.2795 500.109 43.2795C498.737 43.2795 497.492 43.0559 496.374 42.6087C495.256 42.1366 494.29 41.4907 493.477 40.6708C492.69 39.8261 492.08 38.8323 491.648 37.6894C491.216 36.5466 491 35.2919 491 33.9255C491 32.7329 491.191 31.5652 491.572 30.4224C491.978 29.2795 492.537 28.2733 493.249 27.4037C493.986 26.5342 494.875 25.8385 495.917 25.3168C496.958 24.7702 498.14 24.4969 499.461 24.4969C500.274 24.4969 501.011 24.5838 501.672 24.7578C502.358 24.9317 502.968 25.1553 503.501 25.4286C504.035 25.7019 504.492 26.0124 504.873 26.3602C505.254 26.6832 505.559 27.0062 505.788 27.3292H505.864V24.9441H511.124V41.528ZM496.717 33.8882C496.717 34.4845 496.831 35.0559 497.06 35.6025C497.289 36.1242 497.606 36.5963 498.013 37.0186C498.445 37.4161 498.928 37.7391 499.461 37.9876C500.02 38.236 500.63 38.3602 501.291 38.3602C501.926 38.3602 502.523 38.236 503.082 37.9876C503.641 37.7391 504.124 37.4161 504.53 37.0186C504.962 36.5963 505.293 36.1242 505.521 35.6025C505.75 35.0559 505.864 34.4845 505.864 33.8882C505.864 33.2919 505.75 32.7329 505.521 32.2112C505.293 31.6646 504.962 31.1925 504.53 30.795C504.124 30.3727 503.641 30.0373 503.082 29.7888C502.523 29.5404 501.926 29.4161 501.291 29.4161C500.63 29.4161 500.02 29.5404 499.461 29.7888C498.928 30.0373 498.445 30.3727 498.013 30.795C497.606 31.1925 497.289 31.6646 497.06 32.2112C496.831 32.7329 496.717 33.2919 496.717 33.8882Z" fill="#797A7C"/>
<path d="M513.864 24.9441H519.581V43.0559H513.864V24.9441ZM513.406 19.2422C513.406 18.3478 513.724 17.5901 514.359 16.9689C515.02 16.323 515.807 16 516.722 16C517.637 16 518.412 16.323 519.047 16.9689C519.708 17.5901 520.038 18.3478 520.038 19.2422C520.038 20.1366 519.708 20.9068 519.047 21.5528C518.412 22.1739 517.637 22.4845 516.722 22.4845C515.807 22.4845 515.02 22.1739 514.359 21.5528C513.724 20.9068 513.406 20.1366 513.406 19.2422Z" fill="#797A7C"/>
<path d="M522.316 24.9441H527.576V27.3292H527.652C527.881 27.0062 528.173 26.6832 528.529 26.3602C528.91 26.0124 529.342 25.7019 529.824 25.4286C530.333 25.1553 530.879 24.9317 531.463 24.7578C532.048 24.5838 532.67 24.4969 533.331 24.4969C534.703 24.4969 535.948 24.7329 537.066 25.205C538.184 25.6522 539.137 26.2981 539.924 27.1429C540.738 27.9627 541.36 28.9441 541.792 30.087C542.224 31.2298 542.44 32.4845 542.44 33.8509C542.44 35.118 542.237 36.3354 541.83 37.5031C541.449 38.646 540.89 39.6646 540.153 40.559C539.442 41.4534 538.565 42.1739 537.523 42.7205C536.482 43.2422 535.3 43.5031 533.979 43.5031C532.785 43.5031 531.667 43.3292 530.625 42.9814C529.608 42.6087 528.77 41.9876 528.109 41.118H528.033V51.5528H522.316V24.9441ZM527.576 34C527.576 35.3665 527.97 36.472 528.757 37.3168C529.57 38.1615 530.701 38.5838 532.149 38.5838C533.598 38.5838 534.716 38.1615 535.503 37.3168C536.316 36.472 536.723 35.3665 536.723 34C536.723 32.6335 536.316 31.5279 535.503 30.6832C534.716 29.8385 533.598 29.4161 532.149 29.4161C530.701 29.4161 529.57 29.8385 528.757 30.6832C527.97 31.5279 527.576 32.6335 527.576 34Z" fill="#797A7C"/>
<path d="M544.417 24.9441H549.677V27.3292H549.753C549.982 27.0062 550.274 26.6832 550.63 26.3602C551.011 26.0124 551.443 25.7019 551.926 25.4286C552.434 25.1553 552.98 24.9317 553.565 24.7578C554.149 24.5838 554.772 24.4969 555.432 24.4969C556.804 24.4969 558.049 24.7329 559.167 25.205C560.285 25.6522 561.238 26.2981 562.026 27.1429C562.839 27.9627 563.462 28.9441 563.893 30.087C564.325 31.2298 564.541 32.4845 564.541 33.8509C564.541 35.118 564.338 36.3354 563.932 37.5031C563.55 38.646 562.991 39.6646 562.255 40.559C561.543 41.4534 560.667 42.1739 559.625 42.7205C558.583 43.2422 557.401 43.5031 556.08 43.5031C554.886 43.5031 553.768 43.3292 552.726 42.9814C551.71 42.6087 550.871 41.9876 550.211 41.118H550.134V51.5528H544.417V24.9441ZM549.677 34C549.677 35.3665 550.071 36.472 550.859 37.3168C551.672 38.1615 552.802 38.5838 554.251 38.5838C555.699 38.5838 556.817 38.1615 557.605 37.3168C558.418 36.472 558.824 35.3665 558.824 34C558.824 32.6335 558.418 31.5279 557.605 30.6832C556.817 29.8385 555.699 29.4161 554.251 29.4161C552.802 29.4161 551.672 29.8385 550.859 30.6832C550.071 31.5279 549.677 32.6335 549.677 34Z" fill="#797A7C"/>
<path d="M583.518 39.9255C582.603 41.0683 581.447 41.9503 580.049 42.5714C578.652 43.1925 577.203 43.5031 575.704 43.5031C574.281 43.5031 572.935 43.2795 571.664 42.8323C570.419 42.3851 569.327 41.7516 568.386 40.9317C567.472 40.087 566.748 39.0807 566.214 37.913C565.68 36.7453 565.414 35.441 565.414 34C565.414 32.559 565.68 31.2547 566.214 30.087C566.748 28.9193 567.472 27.9255 568.386 27.1056C569.327 26.2609 570.419 25.6149 571.664 25.1677C572.935 24.7205 574.281 24.4969 575.704 24.4969C577.026 24.4969 578.22 24.7205 579.287 25.1677C580.38 25.6149 581.294 26.2609 582.031 27.1056C582.793 27.9255 583.378 28.9193 583.784 30.087C584.191 31.2547 584.394 32.559 584.394 34V35.7516H571.131C571.359 36.8199 571.855 37.677 572.617 38.323C573.379 38.9441 574.319 39.2547 575.437 39.2547C576.378 39.2547 577.165 39.0559 577.8 38.6584C578.461 38.236 579.033 37.7019 579.516 37.0559L583.518 39.9255ZM578.677 31.9503C578.703 31.0062 578.385 30.1988 577.724 29.5279C577.064 28.8571 576.212 28.5217 575.171 28.5217C574.535 28.5217 573.976 28.6211 573.494 28.8199C573.011 29.0186 572.592 29.2795 572.236 29.6025C571.906 29.9006 571.639 30.2609 571.436 30.6832C571.258 31.0807 571.156 31.5031 571.131 31.9503H578.677Z" fill="#797A7C"/>
<path d="M585.965 24.9441H591.682V27.8509H591.758C592.368 26.7329 593.092 25.9006 593.931 25.354C594.769 24.7826 595.824 24.4969 597.094 24.4969C597.425 24.4969 597.755 24.5093 598.085 24.5342C598.416 24.559 598.721 24.6087 599 24.6832V29.7888C598.593 29.6646 598.187 29.5776 597.78 29.5279C597.399 29.4534 596.993 29.4161 596.561 29.4161C595.468 29.4161 594.604 29.5652 593.969 29.8634C593.334 30.1615 592.838 30.5839 592.483 31.1304C592.152 31.6522 591.936 32.2857 591.835 33.0311C591.733 33.7764 591.682 34.5963 591.682 35.4907V43.0559H585.965V24.9441Z" fill="#797A7C"/>
<rect x="440" y="15" width="42" height="42" rx="1.67154" fill="#797A7C"/>
<path fill-rule="evenodd" clip-rule="evenodd" d="M472.97 22.3989C473.237 23.7974 471.688 35.3039 471.529 36.3846C471.446 37 471.137 37 471.101 37H469.485C469.118 37 469.123 36.5375 469.126 36.3182L469.126 36.3178C469.126 36.3013 469.126 36.2862 469.126 36.2727C469.126 36.0106 470.29 25.6933 470.526 23.6045C470.549 23.4062 470.393 23.238 470.193 23.238L468.731 23.2382C468.561 23.2382 468.419 23.3654 468.399 23.534L467.418 31.9995C467.364 32.4686 467.097 32.4686 466.94 32.4686L465.474 32.4684C464.961 32.4686 464.98 32.2194 465.017 31.7757C465.045 31.4337 465.083 30.9827 465.127 30.4635H463.315C463.152 30.4635 463.012 30.5819 462.986 30.7433L462.552 33.3666C462.464 33.8944 462.295 34 461.898 34H460.48C460.14 34 459.922 33.7854 460.028 33.3666L460.228 32H458.492C458.437 32 458.385 32.0135 458.338 32.0376L458.133 32.4973L457.718 35.555C457.659 36 457.387 36 457.115 36H455.486C455.216 36 454.945 36 455.011 35.5L455.148 34.4923H454.773C454.434 34.4923 454.149 34.7449 454.112 35.0822C453.983 36.2601 453.703 38.954 453.621 40.8615C453.561 42.2672 453.657 44.1181 453.753 45.4622C453.825 46.4731 454.661 47.2482 455.674 47.2715L461.14 47.3969L467.49 47.2512C467.998 47.2395 468.417 46.8499 468.465 46.3442L468.938 41.4154H463.017C462.891 41.4154 462.775 41.4866 462.718 41.5995L462.532 41.9692C462.254 42.5231 461.976 42.5785 461.419 42.5785H460.305C459.748 42.5785 459.469 42.2462 459.469 41.6923V40.9289C459.469 39.8211 460.367 38.9231 461.475 38.9231H471.243C471.645 38.9231 471.956 39.2759 471.906 39.6751L470.829 48.2443C470.703 49.2475 469.85 50 468.839 50H454.34C452.001 50 450.157 48.0064 450.341 45.6741L451.254 34.0533C451.333 33.0401 452.158 32.2465 453.174 32.2061L455.47 32.1147L455.561 31.4467C455.674 30.618 456.381 30 457.217 30H460.522L460.596 29.495C460.692 28.8386 461.256 28.352 461.919 28.352H464.733C464.973 28.352 465.162 28.3166 465.321 28.2682C465.49 26.4252 465.69 24.4333 465.853 23.3292C466.045 22.664 466.279 22.1372 466.564 21.8394C467.098 21.2802 467.411 21.2119 468.164 21.1122C468.784 21.0301 469.139 20.9987 469.766 21C470.445 21.0016 471.501 21.1399 471.501 21.1399C471.501 21.1399 472.756 21.28 472.97 22.3989Z" fill="white"/>
<mask id="mask0_7967_4600" style="mask-type:alpha" maskUnits="userSpaceOnUse" x="57" y="0" width="52" height="44">
<path d="M66.125 0L108.194 11.2724L99.6136 43.5798L57.5444 32.3074L66.125 0Z" fill="#C4C4C4"/>
</mask>
<g mask="url(#mask0_7967_4600)">
<path d="M87.3213 19.9645C88.4512 11.2955 83.9773 4.81911 83.9773 4.81911C83.9773 4.81911 82.1441 8.68276 80.2055 12.5616C78.5769 15.8201 76.7362 19.2289 76.6406 20.665C76.1677 27.7647 82.0807 32.0972 82.0807 32.0972C82.0807 32.0972 86.4231 26.855 87.3213 19.9645Z" fill="#797A7C"/>
<path d="M92.7163 35.4476C98.988 35.1718 103.016 31.144 103.016 31.144C103.016 31.144 100.056 30.3114 97.0723 29.4049C94.5659 28.6434 91.9271 27.7484 90.8994 27.8598C85.819 28.4109 83.486 33.2038 83.486 33.2038C83.486 33.2038 87.7312 35.6668 92.7163 35.4476Z" fill="#797A7C"/>
<path fill-rule="evenodd" clip-rule="evenodd" d="M78.6439 12.1433C77.8574 11.7358 77.0156 11.4066 76.1256 11.1681C69.4547 9.38066 62.6027 13.369 60.8213 20.0764C59.0399 26.7837 63.0036 33.6701 69.6744 35.4576C73.7844 36.5588 77.9631 35.4677 80.9823 32.899L77.2447 30.4965C75.3597 31.6543 73.0288 32.0622 70.7392 31.4487C66.2994 30.259 63.6296 25.6616 64.8279 21.1499C66.0262 16.6383 70.6211 13.9874 75.0608 15.1771C75.6624 15.3382 76.2314 15.562 76.7628 15.8396L78.6439 12.1433Z" fill="#797A7C"/>
<path fill-rule="evenodd" clip-rule="evenodd" d="M75.9504 17.5017C75.5188 17.2717 75.0547 17.0869 74.5626 16.9551C71.0482 16.0134 67.4351 18.1271 66.4925 21.6761C65.6652 24.7909 67.1699 27.9761 69.9262 29.3455L71.5302 26.192C70.2489 25.573 69.5127 24.0873 69.9099 22.5918C70.3588 20.9014 72.057 19.9464 73.6545 20.3745C73.9001 20.4403 74.1317 20.5357 74.346 20.6561L75.9504 17.5017Z" fill="#797A7C"/>
<path d="M73.9128 21.2044L69.5145 22.3575L68.9762 23.6326C68.9762 23.6326 69.4971 24.2979 69.9435 24.5C70.2526 24.64 70.5701 24.7712 70.7821 24.7247C71.4382 24.5807 72.3808 24.3421 72.3808 24.3421L73.9128 21.2044Z" fill="#797A7C"/>
</g>
<path d="M83.1691 57.9966C82.9367 58.1837 82.6489 58.3268 82.3054 58.4258C81.9721 58.5139 81.6185 58.5579 81.2448 58.5579C80.275 58.5579 79.5225 58.2883 78.9871 57.7489C78.4618 57.2095 78.1992 56.417 78.1992 55.3713V51.7224V49.7411V47.5781H80.5629V49.7411H82.3987C82.3987 49.7411 82.5177 49.7323 82.5933 49.7411C83.2993 49.8234 83.2993 51.64 82.5933 51.7224C82.5177 51.7312 82.3987 51.7224 82.3987 51.7224H80.5629V55.3383C80.5629 55.7125 80.6488 56.0042 80.8205 56.2134C81.0023 56.4115 81.2549 56.5106 81.5781 56.5106C81.7788 56.5106 81.9635 56.4788 82.1321 56.4154C82.3008 56.3519 83.4014 57.8094 83.1691 57.9966Z" fill="#797A7C"/>
<path d="M76.0836 58.4429C76.4267 58.3576 76.7143 58.2344 76.9464 58.0732C77.1786 57.9121 76.079 56.6569 75.9105 56.7116C75.7419 56.7663 75.5574 56.7936 75.3569 56.7936C75.034 56.7936 74.7817 56.7083 74.6 56.5377C74.4284 56.3576 74.3426 56.1064 74.3426 55.7841V52.6702V51.0843V50.964C74.3426 50.8776 72.078 49.8646 71.9811 50.7308C71.9709 50.8214 71.9811 50.964 71.9811 50.964V52.6702V55.8125C71.9811 56.713 72.2435 57.3955 72.7683 57.86C73.3031 58.3244 74.055 58.5567 75.0239 58.5567C75.3973 58.5567 75.7505 58.5188 76.0836 58.4429Z" fill="#797A7C"/>
<path d="M93.9067 50.7416C93.8924 50.7763 93.866 50.829 93.866 50.829L90.225 58.656C89.8512 59.5154 89.3866 60.1206 88.8311 60.4717C88.2856 60.8229 87.624 60.9984 86.8463 60.9984C86.422 60.9984 86.0029 60.9384 85.5887 60.8183C85.1746 60.6981 84.8362 60.5318 84.5736 60.3193C84.311 60.1067 85.816 59.0441 86.0584 59.1273C86.3008 59.2104 86.5382 59.252 86.7705 59.252C87.0937 59.252 87.3564 59.1781 87.5584 59.0302C87.7604 58.8916 87.9422 58.656 88.1038 58.3233L88.1341 58.254L84.7069 50.9608C84.7069 50.9608 84.6344 50.8305 84.6039 50.7416C84.3189 49.91 86.598 49.9712 87.0432 50.7416C87.0906 50.8235 87.1424 50.9608 87.1424 50.9608L89.331 55.8007L91.5942 50.829C91.5942 50.829 91.617 50.7751 91.634 50.7416C92.0088 50.0056 94.219 49.9816 93.9067 50.7416Z" fill="#797A7C"/>
<path d="M5.75967 58.5579C4.67562 58.5579 3.69288 58.3254 2.81145 57.8603C1.94015 57.3851 1.25122 56.733 0.744655 55.904C0.248218 55.0648 0 54.1195 0 53.068C0 52.0166 0.248218 51.0763 0.744655 50.2473C1.25122 49.4081 1.94015 48.756 2.81145 48.2909C3.69288 47.8157 4.68069 47.5781 5.77487 47.5781C6.69682 47.5781 7.5276 47.7399 8.26718 48.0634C9.00677 48.387 9.38286 51.4894 8.57113 50.9145C7.75939 50.3397 6.96024 49.671 5.89645 49.671C5.23791 49.671 4.65029 49.8176 4.13359 50.1108C3.61689 50.3938 3.21164 50.7932 2.91783 51.3088C2.63415 51.8245 2.49231 52.4109 2.49231 53.068C2.49231 53.7252 2.63415 54.3116 2.91783 54.8272C3.21164 55.3429 3.61689 55.7473 4.13359 56.0405C4.65029 56.3236 5.23791 56.4651 5.89645 56.4651C6.96024 56.4651 7.8518 56.0455 8.57113 55.2064C9.29045 54.3672 9.0169 57.7491 8.26718 58.0726C7.51746 58.3962 6.68163 58.5579 5.75967 58.5579Z" fill="#797A7C"/>
<path d="M15.1948 58.5585C14.3409 58.5585 13.5724 58.3812 12.8893 58.0267C12.2162 57.662 11.6888 57.1606 11.307 56.5224C10.9253 55.8842 10.7344 55.1599 10.7344 54.3496C10.7344 53.5392 10.9253 52.8149 11.307 52.1767C11.6888 51.5385 12.2162 51.0422 12.8893 50.6876C13.5724 50.323 14.3409 50.1406 15.1948 50.1406C16.0487 50.1406 16.8123 50.323 17.4853 50.6876C18.1584 51.0422 18.6858 51.5385 19.0676 52.1767C19.4493 52.8149 19.6402 53.5392 19.6402 54.3496C19.6402 55.1599 19.4493 55.8842 19.0676 56.5224C18.6858 57.1606 18.1584 57.662 17.4853 58.0267C16.8123 58.3812 16.0487 58.5585 15.1948 58.5585ZM15.1948 56.6136C15.7976 56.6136 16.2899 56.411 16.6716 56.0058C17.0634 55.5905 17.2593 55.0384 17.2593 54.3496C17.2593 53.6607 17.0634 53.1137 16.6716 52.7085C16.2899 52.2932 15.7976 52.0855 15.1948 52.0855C14.5921 52.0855 14.0948 52.2932 13.703 52.7085C13.3112 53.1137 13.1153 53.6607 13.1153 54.3496C13.1153 55.0384 13.3112 55.5905 13.703 56.0058C14.0948 56.411 14.5921 56.6136 15.1948 56.6136Z" fill="#797A7C"/>
<path fill-rule="evenodd" clip-rule="evenodd" d="M52.9013 57.5835C53.5231 58.2076 54.9317 58.5585 55.9947 58.5585C57.0576 58.5585 58.4663 58.2076 59.088 57.5835C59.7097 56.9594 60.0206 56.0335 60.0206 54.8059V50.1406H57.6741V54.4529C57.6741 55.7829 57.0877 56.4685 55.9947 56.4685C54.9016 56.4685 54.3153 55.7829 54.3153 54.4529V50.1406H51.9688V54.8059C51.9688 56.0335 52.2796 56.9594 52.9013 57.5835Z" fill="#797A7C"/>
<path fill-rule="evenodd" clip-rule="evenodd" d="M109.753 57.5835C110.375 58.2076 111.783 58.5585 112.846 58.5585C113.909 58.5585 115.318 58.2076 115.94 57.5835C116.561 56.9594 116.872 56.0335 116.872 54.8059V50.1406H114.526V54.4529C114.526 55.7829 113.939 56.4685 112.846 56.4685C111.753 56.4685 111.167 55.7829 111.167 54.4529V50.1406H108.82V54.8059C108.82 56.0335 109.131 56.9594 109.753 57.5835Z" fill="#797A7C"/>
<path fill-rule="evenodd" clip-rule="evenodd" d="M62.8124 51.0078C63.453 50.3747 64.9043 50.0187 65.9995 50.0187V52.139C64.8733 52.139 64.2692 52.8346 64.2692 54.1838V58.5586H61.8516V53.8258C61.8516 52.5803 62.1718 51.641 62.8124 51.0078ZM69.3086 51.0078C68.668 50.3747 67.2167 50.0187 66.1215 50.0187V52.139C67.2476 52.139 67.8518 52.8346 67.8518 54.1838V58.5586H70.2694V53.8258C70.2694 52.5803 69.9491 51.641 69.3086 51.0078Z" fill="#797A7C"/>
<path fill-rule="evenodd" clip-rule="evenodd" d="M122.912 50.0191C122.932 50.0189 122.953 50.0187 122.973 50.0187V50.0201C124.084 50.0445 125.496 50.3973 126.132 51.0078C126.791 51.641 127.121 52.5803 127.121 53.8258V58.5586H124.632V54.1838C124.632 52.8584 124.032 52.1638 122.912 52.1397C121.792 52.1638 121.192 52.8584 121.192 54.1838V58.5586H118.703V53.8258C118.703 52.5803 119.033 51.641 119.692 51.0078C120.328 50.3973 121.74 50.0445 122.851 50.0201V50.0187C122.871 50.0187 122.892 50.0189 122.912 50.0191Z" fill="#797A7C"/>
<path fill-rule="evenodd" clip-rule="evenodd" d="M24.8186 50.2617C23.7945 50.2617 22.9834 50.5656 22.3852 51.1734C21.7768 51.771 21.4727 52.6725 21.4727 53.8779V58.5576H23.8452V54.2425C23.8452 53.5942 23.9821 53.1131 24.2558 52.7991C24.5195 52.475 24.8997 52.3129 25.3965 52.3129C25.9542 52.3129 26.3952 52.4952 26.7197 52.8599C27.031 53.2 27.0306 53.7034 27.03 54.3699C27.03 54.398 27.03 54.4265 27.03 54.4552V58.5576H27.0846H29.4025H29.4571V54.4552C29.4571 54.4265 29.4571 54.398 29.4571 54.3699C29.4565 53.7034 29.4561 53.2 29.7674 52.8599C30.0919 52.4952 30.5329 52.3129 31.0906 52.3129C31.5874 52.3129 31.9676 52.475 32.2312 52.7991C32.505 53.1131 32.6419 53.5942 32.6419 54.2425V58.5576H35.0144V53.8779C35.0144 52.6725 34.7102 51.771 34.1019 51.1734C33.5037 50.5656 32.6926 50.2617 31.6685 50.2617C31.0602 50.2617 30.4974 50.3782 29.9803 50.6112C29.4734 50.8442 29.0526 51.1734 28.718 51.5988C28.718 51.5988 28.62 51.7044 28.2792 52.2152C28.2675 52.2327 28.2556 52.2506 28.2435 52.2691C28.2314 52.2506 28.2196 52.2327 28.2079 52.2152C27.867 51.7044 27.7691 51.5988 27.7691 51.5988C27.4345 51.1734 27.0137 50.8442 26.5067 50.6112C25.9896 50.3782 25.4269 50.2617 24.8186 50.2617Z" fill="#797A7C"/>
<path fill-rule="evenodd" clip-rule="evenodd" d="M40.0686 50.2617C39.0445 50.2617 38.2334 50.5656 37.6352 51.1734C37.0268 51.771 36.7227 52.6725 36.7227 53.8779V58.5576H39.0952V54.2425C39.0952 53.5942 39.2321 53.1131 39.5058 52.7991C39.7695 52.475 40.1497 52.3129 40.6465 52.3129C41.2042 52.3129 41.6452 52.4952 41.9697 52.8599C42.281 53.2 42.2806 53.7034 42.28 54.3699C42.28 54.398 42.28 54.4265 42.28 54.4552V58.5576H42.3346H44.6525H44.7071V54.4552C44.7071 54.4265 44.7071 54.398 44.7071 54.3699C44.7065 53.7034 44.7061 53.2 45.0174 52.8599C45.3419 52.4952 45.7829 52.3129 46.3406 52.3129C46.8374 52.3129 47.2176 52.475 47.4812 52.7991C47.755 53.1131 47.8919 53.5942 47.8919 54.2425V58.5576H50.2644V53.8779C50.2644 52.6725 49.9602 51.771 49.3519 51.1734C48.7537 50.5656 47.9426 50.2617 46.9185 50.2617C46.3102 50.2617 45.7474 50.3782 45.2303 50.6112C44.7234 50.8442 44.3026 51.1734 43.968 51.5988C43.968 51.5988 43.87 51.7044 43.5292 52.2152C43.5175 52.2327 43.5056 52.2506 43.4935 52.2691C43.4814 52.2506 43.4696 52.2327 43.4579 52.2152C43.117 51.7044 43.0191 51.5988 43.0191 51.5988C42.6845 51.1734 42.2637 50.8442 41.7567 50.6112C41.2396 50.3782 40.6769 50.2617 40.0686 50.2617Z" fill="#797A7C"/>
<path d="M74.2945 48.7371C74.2945 49.3772 73.7756 49.8961 73.1355 49.8961C72.4955 49.8961 71.9766 49.3772 71.9766 48.7371C71.9766 48.097 72.4955 47.5781 73.1355 47.5781C73.7756 47.5781 74.2945 48.097 74.2945 48.7371Z" fill="#797A7C"/>
<path d="M161.421 47.9999H160.547V47.5781H162.784V47.9999H161.91V50.2621H161.421V47.9999Z" fill="#797A7C"/>
<path d="M165.574 50.2621L165.57 48.483L164.703 49.9553H164.485L163.619 48.506V50.2621H163.152V47.5781H163.555L164.602 49.3572L165.63 47.5781H166.033L166.037 50.2621H165.574Z" fill="#797A7C"/>
<path fill-rule="evenodd" clip-rule="evenodd" d="M141.931 55.1392C142.042 55.6457 142.303 56.0458 142.714 56.3396C143.126 56.6334 143.638 56.7802 144.251 56.7802C144.672 56.7802 145.044 56.7195 145.365 56.5979C145.601 56.5042 145.824 56.3745 146.035 56.2088C146.245 56.0432 148.297 56.4763 147.534 57.3576C146.771 58.2389 145.656 58.6796 144.19 58.6796C143.277 58.6796 142.468 58.5023 141.765 58.1478C141.063 57.7831 140.52 57.2817 140.139 56.6435C139.757 56.0053 139.566 55.281 139.566 54.4706C139.566 53.6704 139.752 52.9512 140.124 52.313C140.505 51.6647 141.022 51.1633 141.675 50.8087C142.338 50.4441 143.076 50.2617 143.889 50.2617C144.682 50.2617 145.4 50.4339 146.043 50.7783C146.685 51.1228 147.188 51.6191 147.549 52.2674C147.921 52.9056 148.106 53.8629 148.106 54.501C148.106 55.1392 147.69 55.1392 147.69 55.1392H141.931ZM142.564 52.5105C142.925 52.2066 143.372 52.0547 143.904 52.0547C144.426 52.0547 144.868 52.2117 145.23 52.5257C145.591 52.8296 145.812 53.2399 145.892 53.7565H141.901C141.981 53.2297 142.202 52.8144 142.564 52.5105Z" fill="#797A7C"/>
<path fill-rule="evenodd" clip-rule="evenodd" d="M136.349 57.6881C135.19 58.5148 134.155 58.5579 133.041 58.5579C132.271 58.5579 131.572 58.392 130.944 58.0602C130.326 57.7284 129.84 57.255 129.485 56.6401C129.13 56.0253 128.953 55.3128 128.953 54.5027C128.953 53.6927 129.13 52.9802 129.485 52.3653C129.84 51.7505 130.326 51.2771 130.944 50.9453C131.572 50.6134 132.271 50.4475 133.041 50.4475C134.084 50.4475 134.9 50.7647 135.487 51.3991V47.5781H137.858V54.9002C137.858 54.9002 137.895 55.6039 137.55 56.2891C137.388 56.6106 137.286 56.7978 136.986 57.1068C136.683 57.419 136.349 57.6881 136.349 57.6881ZM134.94 56.0985C134.545 56.4889 134.049 56.684 133.451 56.684C132.843 56.684 132.342 56.4889 131.947 56.0985C131.552 55.6983 131.354 55.1664 131.354 54.5027C131.354 53.8391 131.552 53.312 131.947 52.9216C132.342 52.5215 132.843 52.3214 133.451 52.3214C134.049 52.3214 134.545 52.5215 134.94 52.9216C135.335 53.312 135.533 53.8391 135.533 54.5027C135.533 55.1664 135.335 55.6983 134.94 56.0985Z" fill="#797A7C"/>
<path fill-rule="evenodd" clip-rule="evenodd" d="M157.334 57.6881C156.175 58.5148 155.139 58.5579 154.025 58.5579C153.255 58.5579 152.556 58.392 151.928 58.0602C151.31 57.7284 150.824 57.255 150.469 56.6401C150.115 56.0253 149.938 55.3128 149.938 54.5027C149.938 53.6927 150.115 52.9802 150.469 52.3653C150.824 51.7505 151.31 51.2771 151.928 50.9453C152.556 50.6134 153.255 50.4475 154.025 50.4475C155.069 50.4475 155.884 50.7647 156.472 51.3991V47.5781H158.842V54.9002C158.842 54.9002 158.879 55.6039 158.535 56.2891C158.373 56.6106 158.27 56.7978 157.97 57.1068C157.667 57.419 157.334 57.6881 157.334 57.6881ZM155.925 56.0985C155.53 56.4889 155.033 56.684 154.435 56.684C153.828 56.684 153.326 56.4889 152.931 56.0985C152.536 55.6983 152.338 55.1664 152.338 54.5027C152.338 53.8391 152.536 53.312 152.931 52.9216C153.326 52.5215 153.828 52.3214 154.435 52.3214C155.033 52.3214 155.53 52.5215 155.925 52.9216C156.32 53.312 156.517 53.8391 156.517 54.5027C156.517 55.1664 156.32 55.6983 155.925 56.0985Z" fill="#797A7C"/>
<path d="M101.768 51.9005V49.6251H106.394C106.394 49.6251 106.61 49.6468 106.746 49.6251C107.543 49.4974 108.144 47.7213 107.347 47.5877C107.218 47.5661 107.013 47.5877 107.013 47.5877H99.3047V58.5579H101.768V53.9378H105.878C105.878 53.9378 106.023 53.9409 106.072 53.9378C106.856 53.8891 107.357 51.965 106.574 51.9005C106.511 51.8954 106.413 51.9005 106.413 51.9005H101.768Z" fill="#797A7C"/>
<path d="M101.768 49.6251V51.9005H106.413C106.413 51.9005 106.511 51.8954 106.574 51.9005C107.357 51.965 106.856 53.8891 106.072 53.9378C106.023 53.9409 105.878 53.9378 105.878 53.9378H101.768V58.5579H99.3047V47.5877H107.013C107.013 47.5877 107.218 47.5661 107.347 47.5877C108.144 47.7213 107.543 49.4974 106.746 49.6251C106.61 49.6468 106.394 49.6251 106.394 49.6251H101.768Z" fill="#797A7C"/>
</svg>
