<svg width="356" height="418" viewBox="0 0 356 418" fill="none" xmlns="http://www.w3.org/2000/svg">
<mask id="path-1-inside-1_2_3225" fill="white">
<path d="M69.0911 46.9172C75.8377 55.1715 82.7856 63.2892 89.6342 71.4507L110.64 95.9346C124.729 112.18 138.921 128.333 153.163 144.439L174.781 168.366L196.679 192.039C211.329 207.775 225.775 223.696 240.017 239.802L239.841 239.034L239.813 239.106L240.669 238.513L229.354 237.614C228.871 237.589 228.44 237.934 228.388 238.446C228.382 238.543 228.4 238.667 228.417 238.79L232.49 252.538L233.744 251.305L222.065 247.302C221.47 247.1 220.798 247.433 220.595 248.034C220.539 248.178 220.506 248.348 220.546 248.497L220.543 248.546L221.409 258.897L222.895 257.407L211.396 255.886C210.554 255.769 209.794 256.367 209.701 257.194C209.667 257.364 209.682 257.536 209.7 257.659L209.72 257.734L211.063 265.099C211.136 265.543 211.407 265.9 211.732 266.161L211.778 266.212L211.8 266.238L212.502 263.14L212.332 263.156L213.755 263.719C199.743 247.404 185.628 231.182 171.437 215.029C157.22 198.9 143.157 182.631 128.736 166.687C114.392 150.674 100.124 134.591 85.5764 118.762L63.8563 94.9275L41.9578 71.2547L41.8593 73.0613L69.0911 46.9172ZM68.9526 46.347L40.1724 71.114C39.6397 71.5518 39.5716 72.3562 40.0282 72.8693L40.0739 72.9206L61.0546 97.4277L82.2137 121.772C96.2519 138.064 110.57 154.101 124.813 170.207C139.004 186.36 153.501 202.234 167.87 218.225C182.265 234.192 196.737 250.09 211.31 265.895L211.356 265.946C211.721 266.356 212.245 266.53 212.759 266.434L212.929 266.419L212.978 266.421C213.881 266.296 214.532 265.473 214.389 264.535C214.319 264.042 214.005 263.585 213.631 263.321L213.609 263.295L214.349 264.386L212.761 257.058L211.086 258.906L222.632 260.013L222.68 260.015C223.403 260.101 224.063 259.548 224.128 258.792C224.134 258.694 224.139 258.597 224.119 258.522L222.938 248.179L221.391 249.446L233.188 253.063L233.211 253.089C233.734 253.263 234.285 252.948 234.434 252.442C234.492 252.249 234.48 252.028 234.417 251.853L230.146 238.193L229.235 239.346L240.581 240.125C240.968 240.145 241.345 239.895 241.438 239.532L241.466 239.46C241.553 239.195 241.472 238.897 241.289 238.692C226.945 222.679 212.805 206.48 198.869 190.095L177.888 165.588L156.627 141.336C142.283 125.323 127.888 109.355 113.391 93.4807L91.5182 69.7848C84.1167 61.9865 76.8427 54.0724 69.3647 46.3437C69.1996 46.2618 69.0546 46.2543 68.9526 46.347Z"/>
</mask>
<path d="M69.0911 46.9172C75.8377 55.1715 82.7856 63.2892 89.6342 71.4507L110.64 95.9346C124.729 112.18 138.921 128.333 153.163 144.439L174.781 168.366L196.679 192.039C211.329 207.775 225.775 223.696 240.017 239.802L239.841 239.034L239.813 239.106L240.669 238.513L229.354 237.614C228.871 237.589 228.44 237.934 228.388 238.446C228.382 238.543 228.4 238.667 228.417 238.79L232.49 252.538L233.744 251.305L222.065 247.302C221.47 247.1 220.798 247.433 220.595 248.034C220.539 248.178 220.506 248.348 220.546 248.497L220.543 248.546L221.409 258.897L222.895 257.407L211.396 255.886C210.554 255.769 209.794 256.367 209.701 257.194C209.667 257.364 209.682 257.536 209.7 257.659L209.72 257.734L211.063 265.099C211.136 265.543 211.407 265.9 211.732 266.161L211.778 266.212L211.8 266.238L212.502 263.14L212.332 263.156L213.755 263.719C199.743 247.404 185.628 231.182 171.437 215.029C157.22 198.9 143.157 182.631 128.736 166.687C114.392 150.674 100.124 134.591 85.5764 118.762L63.8563 94.9275L41.9578 71.2547L41.8593 73.0613L69.0911 46.9172ZM68.9526 46.347L40.1724 71.114C39.6397 71.5518 39.5716 72.3562 40.0282 72.8693L40.0739 72.9206L61.0546 97.4277L82.2137 121.772C96.2519 138.064 110.57 154.101 124.813 170.207C139.004 186.36 153.501 202.234 167.87 218.225C182.265 234.192 196.737 250.09 211.31 265.895L211.356 265.946C211.721 266.356 212.245 266.53 212.759 266.434L212.929 266.419L212.978 266.421C213.881 266.296 214.532 265.473 214.389 264.535C214.319 264.042 214.005 263.585 213.631 263.321L213.609 263.295L214.349 264.386L212.761 257.058L211.086 258.906L222.632 260.013L222.68 260.015C223.403 260.101 224.063 259.548 224.128 258.792C224.134 258.694 224.139 258.597 224.119 258.522L222.938 248.179L221.391 249.446L233.188 253.063L233.211 253.089C233.734 253.263 234.285 252.948 234.434 252.442C234.492 252.249 234.48 252.028 234.417 251.853L230.146 238.193L229.235 239.346L240.581 240.125C240.968 240.145 241.345 239.895 241.438 239.532L241.466 239.46C241.553 239.195 241.472 238.897 241.289 238.692C226.945 222.679 212.805 206.48 198.869 190.095L177.888 165.588L156.627 141.336C142.283 125.323 127.888 109.355 113.391 93.4807L91.5182 69.7848C84.1167 61.9865 76.8427 54.0724 69.3647 46.3437C69.1996 46.2618 69.0546 46.2543 68.9526 46.347Z" fill="white" stroke="white" stroke-width="2" mask="url(#path-1-inside-1_2_3225)"/>
<mask id="path-2-inside-2_2_3225" fill="white">
<path d="M23.556 51.6804C28.7604 48.4326 33.5647 44.7353 38.2031 40.9018C40.5483 38.9137 42.9169 36.952 45.1444 34.8317C47.4189 32.7642 49.5051 30.4852 51.5431 28.2022L49.1302 28.0036C52.604 31.3039 56.2002 34.5407 59.3527 38.1332C62.5792 41.6582 65.5574 45.4568 68.4626 49.2739L68.5113 47.2683C66.0485 49.1242 63.5858 50.9802 61.1948 52.8665L54.1359 58.8044C51.8143 60.819 49.3986 62.7278 47.1723 64.7992C44.8743 66.8403 42.6468 68.9606 40.4676 71.0849L44.1352 71.3867C40.8592 67.9067 37.4607 64.4901 34.0116 61.1674C30.6084 57.9464 27.1805 54.748 23.556 51.6804ZM22.9721 51.8284C25.6054 55.8927 28.5094 59.7587 31.3898 63.5983C34.295 67.4155 37.3226 71.1692 40.3761 74.8515C41.3163 75.9582 42.9076 76.1381 43.9201 75.2657L44.0437 75.1533C46.3888 73.1652 48.7104 71.1506 50.9366 69.0792C53.2111 67.0117 55.368 64.812 57.5707 62.7142L64.1589 56.2474C66.3157 54.0477 68.3784 51.7422 70.4399 49.4857L70.5895 49.3019C71.0616 48.7771 71.0088 47.964 70.4651 47.4537C67.0161 44.1309 63.5929 40.7368 60.4652 37.1219C57.2633 33.5744 54.483 29.596 51.5778 25.7789C51.0389 25.0728 50.0761 24.8956 49.411 25.4045L49.1649 25.5803C46.6786 27.4098 44.2158 29.2657 41.966 31.3107C39.668 33.3517 37.4641 35.4985 35.2602 37.6452C30.8994 41.9917 26.7046 46.4744 22.9087 51.4555C22.8816 51.5758 22.878 51.7226 22.9721 51.8284Z"/>
</mask>
<path d="M23.556 51.6804C28.7604 48.4326 33.5647 44.7353 38.2031 40.9018C40.5483 38.9137 42.9169 36.952 45.1444 34.8317C47.4189 32.7642 49.5051 30.4852 51.5431 28.2022L49.1302 28.0036C52.604 31.3039 56.2002 34.5407 59.3527 38.1332C62.5792 41.6582 65.5574 45.4568 68.4626 49.2739L68.5113 47.2683C66.0485 49.1242 63.5858 50.9802 61.1948 52.8665L54.1359 58.8044C51.8143 60.819 49.3986 62.7278 47.1723 64.7992C44.8743 66.8403 42.6468 68.9606 40.4676 71.0849L44.1352 71.3867C40.8592 67.9067 37.4607 64.4901 34.0116 61.1674C30.6084 57.9464 27.1805 54.748 23.556 51.6804ZM22.9721 51.8284C25.6054 55.8927 28.5094 59.7587 31.3898 63.5983C34.295 67.4155 37.3226 71.1692 40.3761 74.8515C41.3163 75.9582 42.9076 76.1381 43.9201 75.2657L44.0437 75.1533C46.3888 73.1652 48.7104 71.1506 50.9366 69.0792C53.2111 67.0117 55.368 64.812 57.5707 62.7142L64.1589 56.2474C66.3157 54.0477 68.3784 51.7422 70.4399 49.4857L70.5895 49.3019C71.0616 48.7771 71.0088 47.964 70.4651 47.4537C67.0161 44.1309 63.5929 40.7368 60.4652 37.1219C57.2633 33.5744 54.483 29.596 51.5778 25.7789C51.0389 25.0728 50.0761 24.8956 49.411 25.4045L49.1649 25.5803C46.6786 27.4098 44.2158 29.2657 41.966 31.3107C39.668 33.3517 37.4641 35.4985 35.2602 37.6452C30.8994 41.9917 26.7046 46.4744 22.9087 51.4555C22.8816 51.5758 22.878 51.7226 22.9721 51.8284Z" fill="white" stroke="white" stroke-width="2" mask="url(#path-2-inside-2_2_3225)"/>
<mask id="path-3-inside-3_2_3225" fill="white">
<path d="M28.8404 52.8698L54.0002 30.001L58.6541 35.2299L33.4942 58.0988L28.8404 52.8698Z"/>
</mask>
<path d="M28.8404 52.8698L54.0002 30.001L58.6541 35.2299L33.4942 58.0988L28.8404 52.8698Z" fill="white" stroke="white" stroke-width="2" mask="url(#path-3-inside-3_2_3225)"/>
<mask id="path-4-inside-4_2_3225" fill="white">
<path d="M32.6595 58.3983C31.7547 56.525 30.7012 54.787 29.6229 53.0715L29.4472 55.2423C31.7859 53.5871 34.0441 51.7911 36.1934 49.923C38.4058 48.1259 40.3693 45.9988 42.1818 43.7523C43.9942 41.5058 45.8525 39.2604 47.9597 37.345C50.0458 35.406 52.3251 33.6336 54.6849 32.0021L52.8054 31.9562C53.9717 33.7201 55.1379 35.4841 56.4244 37.1815L56.6637 34.2255C52.193 37.8186 47.7013 41.3881 43.7185 45.479C39.7643 49.5012 35.9822 53.6665 32.6595 58.3983ZM32.7943 59.0032C37.8965 56.1197 42.4934 52.6686 46.9393 49.098C51.41 45.5049 55.3965 41.3678 59.3793 37.2768L59.5565 37.0729C60.3325 36.282 60.3628 35.0563 59.6186 34.3208C58.1053 32.8724 56.4928 31.5141 54.8592 30.1321L54.6029 29.8944C54.1285 29.5126 53.4124 29.5645 53.0045 30.0636C51.15 32.2628 49.1654 34.3663 47.0372 36.258C44.93 38.1734 42.5244 39.8038 40.1226 41.388C37.7417 42.9959 35.4414 44.7446 33.4184 46.7546C31.3533 48.7173 29.3687 50.8207 27.4721 52.9727L27.2167 53.2904C26.7345 53.8571 26.7837 54.6682 27.2964 55.1435L27.3174 55.1671C28.9547 56.5029 30.5919 57.8387 32.4734 58.9954C32.5365 59.0663 32.6741 59.0697 32.7943 59.0032Z"/>
</mask>
<path d="M32.6595 58.3983C31.7547 56.525 30.7012 54.787 29.6229 53.0715L29.4472 55.2423C31.7859 53.5871 34.0441 51.7911 36.1934 49.923C38.4058 48.1259 40.3693 45.9988 42.1818 43.7523C43.9942 41.5058 45.8525 39.2604 47.9597 37.345C50.0458 35.406 52.3251 33.6336 54.6849 32.0021L52.8054 31.9562C53.9717 33.7201 55.1379 35.4841 56.4244 37.1815L56.6637 34.2255C52.193 37.8186 47.7013 41.3881 43.7185 45.479C39.7643 49.5012 35.9822 53.6665 32.6595 58.3983ZM32.7943 59.0032C37.8965 56.1197 42.4934 52.6686 46.9393 49.098C51.41 45.5049 55.3965 41.3678 59.3793 37.2768L59.5565 37.0729C60.3325 36.282 60.3628 35.0563 59.6186 34.3208C58.1053 32.8724 56.4928 31.5141 54.8592 30.1321L54.6029 29.8944C54.1285 29.5126 53.4124 29.5645 53.0045 30.0636C51.15 32.2628 49.1654 34.3663 47.0372 36.258C44.93 38.1734 42.5244 39.8038 40.1226 41.388C37.7417 42.9959 35.4414 44.7446 33.4184 46.7546C31.3533 48.7173 29.3687 50.8207 27.4721 52.9727L27.2167 53.2904C26.7345 53.8571 26.7837 54.6682 27.2964 55.1435L27.3174 55.1671C28.9547 56.5029 30.5919 57.8387 32.4734 58.9954C32.5365 59.0663 32.6741 59.0697 32.7943 59.0032Z" fill="white" stroke="white" stroke-width="2" mask="url(#path-4-inside-4_2_3225)"/>
<mask id="path-5-inside-5_2_3225" fill="white">
<path d="M61.782 40.4815C62.6347 42.1992 63.587 43.8264 64.6141 45.3856L64.6904 43.2937C62.2951 44.9067 59.9442 46.6203 57.7803 48.4932C55.5469 50.2882 53.52 52.3658 51.7263 54.6547C49.9326 56.9437 48.114 59.2553 46.0195 61.2062C43.9249 63.1572 41.6204 64.9228 39.225 66.5357L41.1952 66.6732C40.0738 65.0586 39.0022 63.3988 37.831 61.8295L37.721 64.8456C42.2589 61.2851 46.7968 57.7246 50.8239 53.6407C54.7548 49.5501 58.5221 45.3261 61.782 40.4815ZM61.6129 39.8356C56.3808 42.6161 51.7271 46.0466 47.2604 49.6365C42.7919 53.2751 38.8093 57.4596 34.8517 61.6215L34.6257 61.874C33.8996 62.628 33.9265 63.8735 34.7185 64.6116L34.7417 64.6376C36.1621 65.9805 37.6821 67.2327 39.1523 68.5302L39.4317 68.7936C39.9461 69.2197 40.6936 69.1987 41.0976 68.6904C42.9376 66.4535 44.9182 64.3239 47.059 62.4249C49.1998 60.526 51.6663 58.9424 54.1079 57.3815C56.5495 55.8205 58.8078 54.003 60.8098 51.948C62.8812 49.9711 64.8386 47.8155 66.6555 45.5525L66.9082 45.2288C67.337 44.6978 67.2693 43.9127 66.7318 43.4606C65.2367 42.1858 63.6668 40.9788 61.9724 39.8851C61.8798 39.7811 61.7357 39.771 61.6129 39.8356Z"/>
</mask>
<path d="M61.782 40.4815C62.6347 42.1992 63.587 43.8264 64.6141 45.3856L64.6904 43.2937C62.2951 44.9067 59.9442 46.6203 57.7803 48.4932C55.5469 50.2882 53.52 52.3658 51.7263 54.6547C49.9326 56.9437 48.114 59.2553 46.0195 61.2062C43.9249 63.1572 41.6204 64.9228 39.225 66.5357L41.1952 66.6732C40.0738 65.0586 39.0022 63.3988 37.831 61.8295L37.721 64.8456C42.2589 61.2851 46.7968 57.7246 50.8239 53.6407C54.7548 49.5501 58.5221 45.3261 61.782 40.4815ZM61.6129 39.8356C56.3808 42.6161 51.7271 46.0466 47.2604 49.6365C42.7919 53.2751 38.8093 57.4596 34.8517 61.6215L34.6257 61.874C33.8996 62.628 33.9265 63.8735 34.7185 64.6116L34.7417 64.6376C36.1621 65.9805 37.6821 67.2327 39.1523 68.5302L39.4317 68.7936C39.9461 69.2197 40.6936 69.1987 41.0976 68.6904C42.9376 66.4535 44.9182 64.3239 47.059 62.4249C49.1998 60.526 51.6663 58.9424 54.1079 57.3815C56.5495 55.8205 58.8078 54.003 60.8098 51.948C62.8812 49.9711 64.8386 47.8155 66.6555 45.5525L66.9082 45.2288C67.337 44.6978 67.2693 43.9127 66.7318 43.4606C65.2367 42.1858 63.6668 40.9788 61.9724 39.8851C61.8798 39.7811 61.7357 39.771 61.6129 39.8356Z" fill="white" stroke="white" stroke-width="2" mask="url(#path-5-inside-5_2_3225)"/>
<mask id="path-6-inside-6_2_3225" fill="white">
<path d="M61.5405 56.6507C74.8803 73.5241 88.8314 89.8419 103.32 105.671C110.657 113.502 118.197 121.147 125.423 129.079C132.667 136.994 139.615 145.178 146.507 153.413C153.381 161.664 160.31 169.865 167.369 177.948C174.409 186.048 181.431 194.165 188.601 202.147C203.015 218.044 217.596 233.789 232.733 249.03C232.824 249.132 232.967 249.142 233.041 249.074C233.115 249.007 233.102 248.88 233.011 248.777C219.634 231.937 205.683 215.62 191.547 199.47C184.451 191.421 177.207 183.506 169.981 175.574C162.774 167.626 155.437 159.795 148.045 152.015C140.671 144.218 133.371 136.354 126.331 128.254C119.309 120.137 112.565 111.768 105.635 103.567C91.5917 87.3333 77.0107 71.5879 61.8184 56.3981C61.7272 56.2957 61.5848 56.2862 61.5107 56.3536C61.4593 56.4465 61.4722 56.5738 61.5405 56.6507Z"/>
</mask>
<path d="M61.5405 56.6507C74.8803 73.5241 88.8314 89.8419 103.32 105.671C110.657 113.502 118.197 121.147 125.423 129.079C132.667 136.994 139.615 145.178 146.507 153.413C153.381 161.664 160.31 169.865 167.369 177.948C174.409 186.048 181.431 194.165 188.601 202.147C203.015 218.044 217.596 233.789 232.733 249.03C232.824 249.132 232.967 249.142 233.041 249.074C233.115 249.007 233.102 248.88 233.011 248.777C219.634 231.937 205.683 215.62 191.547 199.47C184.451 191.421 177.207 183.506 169.981 175.574C162.774 167.626 155.437 159.795 148.045 152.015C140.671 144.218 133.371 136.354 126.331 128.254C119.309 120.137 112.565 111.768 105.635 103.567C91.5917 87.3333 77.0107 71.5879 61.8184 56.3981C61.7272 56.2957 61.5848 56.2862 61.5107 56.3536C61.4593 56.4465 61.4722 56.5738 61.5405 56.6507Z" fill="white" stroke="white" stroke-width="2" mask="url(#path-6-inside-6_2_3225)"/>
<mask id="path-7-inside-7_2_3225" fill="white">
<path d="M52.5406 65.6509C59.1266 74.0686 65.9122 82.2586 72.8317 90.3732C79.7469 98.4454 86.7405 106.493 93.9934 114.304C101.261 122.057 108.754 129.649 115.933 137.528C123.131 145.39 130.009 153.496 136.854 161.678C143.681 169.877 150.541 178 157.553 186.03C164.524 194.052 171.499 202.116 178.622 210.045C192.92 225.811 207.384 241.426 222.405 256.535C222.496 256.637 222.638 256.647 222.712 256.58C222.787 256.512 222.774 256.385 222.683 256.282C209.422 239.574 195.587 223.387 181.568 207.368C174.518 199.372 167.344 191.535 160.165 183.656C153.005 175.76 145.737 168.008 138.392 160.281C131.065 152.537 123.835 144.751 116.841 136.703C109.889 128.665 103.192 120.348 96.3091 112.2C89.3896 104.085 82.2335 96.2318 74.9991 88.4034C67.7647 80.575 60.4049 72.9069 52.8185 65.3983C52.7273 65.2959 52.5849 65.2865 52.5108 65.3538C52.4595 65.4467 52.4722 65.5741 52.5406 65.6509Z"/>
</mask>
<path d="M52.5406 65.6509C59.1266 74.0686 65.9122 82.2586 72.8317 90.3732C79.7469 98.4454 86.7405 106.493 93.9934 114.304C101.261 122.057 108.754 129.649 115.933 137.528C123.131 145.39 130.009 153.496 136.854 161.678C143.681 169.877 150.541 178 157.553 186.03C164.524 194.052 171.499 202.116 178.622 210.045C192.92 225.811 207.384 241.426 222.405 256.535C222.496 256.637 222.638 256.647 222.712 256.58C222.787 256.512 222.774 256.385 222.683 256.282C209.422 239.574 195.587 223.387 181.568 207.368C174.518 199.372 167.344 191.535 160.165 183.656C153.005 175.76 145.737 168.008 138.392 160.281C131.065 152.537 123.835 144.751 116.841 136.703C109.889 128.665 103.192 120.348 96.3091 112.2C89.3896 104.085 82.2335 96.2318 74.9991 88.4034C67.7647 80.575 60.4049 72.9069 52.8185 65.3983C52.7273 65.2959 52.5849 65.2865 52.5108 65.3538C52.4595 65.4467 52.4722 65.5741 52.5406 65.6509Z" fill="white" stroke="white" stroke-width="2" mask="url(#path-7-inside-7_2_3225)"/>
<mask id="path-8-inside-8_2_3225" fill="white">
<path d="M23.364 50.7715C19.4872 44.4937 14.9883 38.7813 10.3152 33.2273C7.04218 29.3372 14.3465 21.198 17.1391 17.7892C20.1722 14.5976 33.1734 5.94724 37.3989 12.5986C41.7657 18.5672 44.9814 20.9899 49.6468 26.6871L48.9776 24.2233C44.3323 28.3094 39.9102 32.6464 35.5775 37.0837C31.3667 41.4556 27.2649 46.0007 23.364 50.7715ZM23.5222 51.3538C28.7256 47.8948 33.7058 44.185 38.5296 40.2995C43.3312 36.389 48.0881 32.4283 52.5994 28.1917L52.699 28.1012C53.7217 27.1262 53.7863 25.4793 52.8486 24.4257L52.8039 24.3756C47.7155 19.0629 43.8696 14.7827 38.4578 9.76402C32.222 2.96491 20.9157 11.6911 16.0137 15.5311C9.86562 21.2196 2.2092 29.1943 9.34312 37.21C14.3817 42.5679 17.3096 46.6999 23.1694 51.3115C23.2587 51.4118 23.4003 51.4192 23.5222 51.3538Z"/>
</mask>
<path d="M23.364 50.7715C19.4872 44.4937 14.9883 38.7813 10.3152 33.2273C7.04218 29.3372 14.3465 21.198 17.1391 17.7892C20.1722 14.5976 33.1734 5.94724 37.3989 12.5986C41.7657 18.5672 44.9814 20.9899 49.6468 26.6871L48.9776 24.2233C44.3323 28.3094 39.9102 32.6464 35.5775 37.0837C31.3667 41.4556 27.2649 46.0007 23.364 50.7715ZM23.5222 51.3538C28.7256 47.8948 33.7058 44.185 38.5296 40.2995C43.3312 36.389 48.0881 32.4283 52.5994 28.1917L52.699 28.1012C53.7217 27.1262 53.7863 25.4793 52.8486 24.4257L52.8039 24.3756C47.7155 19.0629 43.8696 14.7827 38.4578 9.76402C32.222 2.96491 20.9157 11.6911 16.0137 15.5311C9.86562 21.2196 2.2092 29.1943 9.34312 37.21C14.3817 42.5679 17.3096 46.6999 23.1694 51.3115C23.2587 51.4118 23.4003 51.4192 23.5222 51.3538Z" fill="white" stroke="white" stroke-width="2" mask="url(#path-8-inside-8_2_3225)"/>
<mask id="path-9-inside-9_2_3225" fill="white">
<path d="M255.024 282.844C254.432 278.952 253.646 275.097 252.737 271.308C251.827 267.519 250.796 263.747 249.666 260.018C248.584 256.292 247.333 252.58 245.859 248.977L241.268 238.183L241.224 238.083C241.096 237.733 240.745 237.493 240.383 237.496C236.604 237.246 232.823 237.046 229.047 236.748C228.614 236.723 228.213 237.041 228.192 237.479C228.188 237.576 228.206 237.699 228.25 237.799C229.729 242.33 231.084 246.927 232.464 251.501L233.502 250.464C229.631 249.086 225.792 247.54 221.951 246.042C221.263 245.782 220.475 246.125 220.225 246.818C220.168 247.01 220.136 247.179 220.127 247.374L220.12 247.52L220.747 257.908L222.798 255.857L211.345 254.005C210.123 253.81 208.972 254.669 208.794 255.903C208.757 256.17 208.771 256.39 208.808 256.637L208.824 256.809L210.146 264.186C210.302 264.977 210.78 265.615 211.44 265.947L211.605 266.031C215.073 267.775 218.542 269.47 222.042 271.045C225.566 272.597 229.116 274.127 232.719 275.561C236.296 277.019 239.926 278.382 243.586 279.625C247.218 280.94 250.903 282.16 254.668 283.213C254.811 283.271 254.96 283.182 254.992 283.013C254.996 282.915 255.021 282.893 255.024 282.844ZM254.182 282.257C251.136 280.269 248.013 278.399 244.885 276.626C241.522 274.693 238.108 272.855 234.665 271.088C231.248 269.298 227.753 267.625 224.259 265.953C220.761 264.329 217.186 262.823 213.634 261.342L215.07 263.161L213.359 255.858L210.838 258.661L222.382 259.592L222.527 259.601C223.513 259.684 224.367 258.953 224.438 257.957C224.445 257.81 224.426 257.687 224.408 257.564L222.86 247.268L221.029 248.746C225.009 249.837 228.992 250.879 232.943 252.091L232.966 252.117C233.395 252.24 233.865 251.999 233.982 251.567C234.014 251.398 234.046 251.229 233.981 251.054C232.528 246.5 231.074 241.946 229.694 237.373L228.849 238.421C232.6 238.742 236.394 239.162 240.141 239.581L239.255 238.893L241.934 250.306C242.844 254.095 244.047 257.804 245.349 261.47C246.626 265.159 248.026 268.782 249.5 272.385C250.987 275.695 252.523 279.009 254.182 282.257Z"/>
</mask>
<path d="M255.024 282.844C254.432 278.952 253.646 275.097 252.737 271.308C251.827 267.519 250.796 263.747 249.666 260.018C248.584 256.292 247.333 252.58 245.859 248.977L241.268 238.183L241.224 238.083C241.096 237.733 240.745 237.493 240.383 237.496C236.604 237.246 232.823 237.046 229.047 236.748C228.614 236.723 228.213 237.041 228.192 237.479C228.188 237.576 228.206 237.699 228.25 237.799C229.729 242.33 231.084 246.927 232.464 251.501L233.502 250.464C229.631 249.086 225.792 247.54 221.951 246.042C221.263 245.782 220.475 246.125 220.225 246.818C220.168 247.01 220.136 247.179 220.127 247.374L220.12 247.52L220.747 257.908L222.798 255.857L211.345 254.005C210.123 253.81 208.972 254.669 208.794 255.903C208.757 256.17 208.771 256.39 208.808 256.637L208.824 256.809L210.146 264.186C210.302 264.977 210.78 265.615 211.44 265.947L211.605 266.031C215.073 267.775 218.542 269.47 222.042 271.045C225.566 272.597 229.116 274.127 232.719 275.561C236.296 277.019 239.926 278.382 243.586 279.625C247.218 280.94 250.903 282.16 254.668 283.213C254.811 283.271 254.96 283.182 254.992 283.013C254.996 282.915 255.021 282.893 255.024 282.844ZM254.182 282.257C251.136 280.269 248.013 278.399 244.885 276.626C241.522 274.693 238.108 272.855 234.665 271.088C231.248 269.298 227.753 267.625 224.259 265.953C220.761 264.329 217.186 262.823 213.634 261.342L215.07 263.161L213.359 255.858L210.838 258.661L222.382 259.592L222.527 259.601C223.513 259.684 224.367 258.953 224.438 257.957C224.445 257.81 224.426 257.687 224.408 257.564L222.86 247.268L221.029 248.746C225.009 249.837 228.992 250.879 232.943 252.091L232.966 252.117C233.395 252.24 233.865 251.999 233.982 251.567C234.014 251.398 234.046 251.229 233.981 251.054C232.528 246.5 231.074 241.946 229.694 237.373L228.849 238.421C232.6 238.742 236.394 239.162 240.141 239.581L239.255 238.893L241.934 250.306C242.844 254.095 244.047 257.804 245.349 261.47C246.626 265.159 248.026 268.782 249.5 272.385C250.987 275.695 252.523 279.009 254.182 282.257Z" fill="white" stroke="white" stroke-width="2" mask="url(#path-9-inside-9_2_3225)"/>
<mask id="path-10-inside-10_2_3225" fill="white">
<path d="M248 262.001L248.116 262.326L254.636 282.994L234.987 274.259L234.68 274.108L248 262.001Z"/>
</mask>
<path d="M248 262.001L248.116 262.326L254.636 282.994L234.987 274.259L234.68 274.108L248 262.001Z" fill="white" stroke="white" stroke-width="2" mask="url(#path-10-inside-10_2_3225)"/>
<path d="M353.237 250.223C350.106 244.011 337 238.001 337 238.001C337 238.001 349.878 246.334 353.237 253.001C354.215 254.942 353.386 255.393 352.677 257.445C351.623 260.497 347.078 263.001 347.078 263.001C347.078 263.001 354.315 260.29 354.917 256.334C355.289 253.888 354.357 252.445 353.237 250.223Z" fill="white" stroke="white"/>
<path d="M292.598 336.969C298.239 328.541 303.93 326.42 303.93 326.42C303.93 326.42 296.299 331.86 292.634 342.256C291.568 345.282 289.275 353.075 290.505 356.068C291.426 358.31 292.03 365.708 294.489 369.884C296.909 373.996 300.094 376.952 300.094 376.952C300.094 376.952 298.76 375.841 296.18 373.413C290.985 368.523 288.299 358.701 288.26 352.825C288.235 349.106 289.847 341.079 292.598 336.969Z" fill="white" stroke="white"/>
<path d="M308.099 307.349C307.71 309.965 308.55 311.924 309.269 314.479C310.938 320.409 315.292 330.576 319.22 335.871C324.51 343.001 328 343.001 328 343.001C328 343.001 322.51 338.162 318.635 331.711C314.404 324.67 311.025 314.48 311.025 310.32C311.025 308.537 309.699 308.356 310.44 306.16C311.541 302.897 313.952 302.001 313.952 302.001C313.952 302.001 308.728 303.118 308.099 307.349Z" fill="white" stroke="white"/>
<path d="M292 279.688L296.2 278.001L294.1 282.501L299 287.001L296.2 285.876L292.7 283.626L292 279.688Z" fill="white" stroke="white"/>
<path d="M339.691 294.451L336.386 293.227L339.405 297.049L340.029 299.48L339.386 301.86L341.584 300.586L341.355 297.18L339.691 294.451Z" fill="white" stroke="white"/>
<path d="M333.932 331.77L328.961 328.347L332.867 332.872L336.24 337.942C336.24 337.942 336.842 340.185 336.855 341.295C336.88 343.438 334.772 345.719 334.772 345.719L337.39 344.089L338.488 341.321L337.213 335.728L333.932 331.77Z" fill="white" stroke="white"/>
<path d="M304.601 360.921L296.721 356.04L306.991 367.35L307.815 370.12L307.87 373.611L306.209 377.085L309.398 374.79L310.113 370.726L307.741 365.466L304.601 360.921Z" fill="white" stroke="white"/>
<path d="M311.599 324.666C314.878 332.979 319.703 342.466 327.067 344.508C334.914 346.684 337.404 343.828 335.228 337.025C332.917 329.8 324.568 323.803 311.599 324.666C309.303 324.818 306.863 325.186 304.286 325.8C296.161 327.735 287.64 339.794 287.345 351.913C280.625 349.674 273.48 348.921 268.924 350.631C256.95 355.123 255.629 372.672 255.484 383.923C255.466 385.321 255.467 386.622 255.467 387.788L255.467 388.112C255.467 394.51 254.838 404.672 261.03 406.091C272.36 408.687 272.46 401.312 268.924 394.51C266.358 389.984 261.815 387.122 255.484 383.923C255.629 372.672 256.95 355.123 268.924 350.631C273.48 348.921 280.625 349.674 287.345 351.913C287.294 353.995 287.486 356.079 287.965 358.114C289.212 363.67 293.813 375.053 302.246 376.142C308.515 376.141 310.406 370.359 302.246 360.835C299.074 357.134 293.38 353.924 287.345 351.913C287.64 339.794 296.161 327.735 304.286 325.8C306.863 325.186 309.303 324.818 311.599 324.666Z" fill="white"/>
<path d="M313.894 324.665C317.174 332.978 322.308 341.567 329.363 344.507C333.783 346.35 339.699 343.827 337.523 337.024C335.212 329.799 326.863 323.802 313.894 324.665C311.599 324.818 309.159 325.186 306.582 325.799C298.457 327.734 289.936 339.793 289.641 351.913C282.92 349.674 275.776 348.921 271.219 350.63C259.245 355.122 257.925 372.672 257.78 383.923C257.762 385.321 257.762 386.621 257.762 387.787L257.762 388.111C257.762 394.509 257.205 404.39 263.325 406.09C271.219 408.284 274.756 401.312 271.219 394.509C268.654 389.983 264.111 387.122 257.78 383.923C257.925 372.672 259.245 355.122 271.219 350.63C275.776 348.921 282.92 349.674 289.641 351.913C289.59 353.995 289.782 356.079 290.261 358.113C291.507 363.669 294.168 377.111 304.498 376.142C309.598 376.142 312.702 370.359 304.541 360.835C301.37 357.133 295.676 353.923 289.641 351.913C289.936 339.793 298.457 327.734 306.582 325.799C309.159 325.186 311.599 324.818 313.894 324.665Z" fill="white"/>
<path d="M251.093 282.905C267.765 281.529 297.265 203.112 346.218 245.634C376.517 270.116 290.681 270.985 293.377 281.53C297.117 296.156 340.436 284.839 340.436 300.475C340.436 309.133 306.114 299.268 307.346 309.133C307.778 312.592 309.187 318.554 311.599 324.666M311.599 324.666C314.878 332.979 319.703 342.466 327.067 344.508C334.914 346.684 337.404 343.828 335.228 337.025C332.917 329.8 324.568 323.803 311.599 324.666ZM311.599 324.666C309.303 324.818 306.863 325.186 304.286 325.8C296.161 327.735 287.64 339.794 287.345 351.913M287.345 351.913C287.294 353.995 287.486 356.079 287.965 358.114C289.212 363.67 293.813 375.053 302.246 376.142C308.515 376.141 310.406 370.359 302.246 360.835C299.074 357.134 293.38 353.924 287.345 351.913ZM287.345 351.913C280.625 349.674 273.48 348.921 268.924 350.631C256.95 355.123 255.629 372.672 255.484 383.923M255.484 383.923C255.466 385.321 255.467 386.622 255.467 387.788L255.467 388.112C255.467 394.51 254.838 404.672 261.03 406.091C272.36 408.687 272.46 401.312 268.924 394.51C266.358 389.984 261.815 387.122 255.484 383.923ZM255.484 383.923C249.934 381.119 245.306 379.345 237.136 374.675C229.102 370.082 214.941 416.995 220.106 416.995C215.515 417.569 229.102 368.793 237.136 373.385C245.306 378.056 252.23 381.119 257.78 383.923M251.7 282.823C268.372 281.448 299.56 203.111 348.514 245.634C378.812 270.115 292.976 270.985 295.672 281.529C299.413 296.156 342.731 284.839 342.731 300.475C342.731 309.132 308.409 299.268 309.642 309.132C310.074 312.591 311.483 318.553 313.894 324.665M313.894 324.665C317.174 332.978 322.308 341.567 329.363 344.507C333.783 346.35 339.699 343.827 337.523 337.024C335.212 329.799 326.863 323.802 313.894 324.665ZM313.894 324.665C311.599 324.818 309.159 325.186 306.582 325.799C298.457 327.734 289.936 339.793 289.641 351.913M289.641 351.913C289.59 353.995 289.782 356.079 290.261 358.113C291.507 363.669 294.168 377.111 304.498 376.142C309.598 376.142 312.702 370.359 304.541 360.835C301.37 357.133 295.676 353.923 289.641 351.913ZM289.641 351.913C282.92 349.674 275.776 348.921 271.219 350.63C259.245 355.122 257.925 372.672 257.78 383.923M257.78 383.923C257.762 385.321 257.762 386.621 257.762 387.787L257.762 388.111C257.762 394.509 257.205 404.39 263.325 406.09C271.219 408.284 274.756 401.312 271.219 394.509C268.654 389.983 264.111 387.122 257.78 383.923Z" stroke="white"/>
<path d="M260.655 360.377C266.837 352.204 271.923 351.244 271.923 351.244C271.923 351.244 264.706 355.421 260.638 365.469C259.454 368.394 258.809 373.969 258.794 378.495L258.726 399.435C259.913 403.953 262.908 406.194 262.908 406.194C262.908 406.194 262.072 406.834 259.31 404.523C253.749 399.869 255.772 384.741 256.398 376.815C256.68 373.242 257.639 364.363 260.655 360.377Z" fill="white" stroke="white"/>
<path d="M268.244 389.369L260.367 385.237L265.944 389.498L270.294 395.361L270.962 397.957L270.686 400.581L268.747 403.464L271.848 401.07L272.061 397.174L271.205 393.505L268.244 389.369Z" fill="white" stroke="white"/>
</svg>
