<svg width="356" height="418" viewBox="0 0 356 418" fill="none" xmlns="http://www.w3.org/2000/svg">
<path d="M167.87 218.225C182.016 233.915 196.235 249.538 210.552 265.072M167.87 218.225C163.644 213.521 159.406 208.828 155.169 204.135C144.999 192.872 134.83 181.609 124.813 170.207C121.761 166.756 118.705 163.308 115.65 159.86C104.447 147.216 93.2437 134.573 82.2137 121.772L210.552 265.072M167.87 218.225L168.239 217.887C168.238 217.886 168.238 217.886 168.238 217.886L167.87 218.225ZM210.552 265.072L210.385 264.152M82.6495 61.0932C79.3915 57.6179 76.1352 54.1443 72.8489 50.6959C76.473 55.0703 80.1399 59.4141 83.8059 63.7569C85.8775 66.2109 87.9488 68.6646 90.012 71.1233C90.0126 71.124 90.0132 71.1247 90.0137 71.1254L111.015 95.6031C111.015 95.6034 111.015 95.6038 111.015 95.6041C125.102 111.847 139.291 127.997 153.532 144.102C153.533 144.102 153.533 144.103 153.534 144.104L175.144 168.023L175.148 168.027L197.042 191.695C211.212 206.915 225.191 222.308 238.98 237.875L239.737 237.935L239.799 237.776C225.836 222.168 212.067 206.383 198.492 190.423L177.516 165.922L177.512 165.917L156.258 141.674C156.258 141.673 156.257 141.672 156.257 141.672C141.914 125.66 127.521 109.695 113.026 93.8228C113.026 93.8224 113.026 93.8221 113.025 93.8218L91.159 70.1329C91.1582 70.132 91.1574 70.1312 91.1566 70.1303C88.3059 67.1268 85.4771 64.1093 82.6495 61.0932Z" fill="white" stroke="white"/>
<path d="M31.7149 63.1993L31.7842 63.2917C31.7846 63.2921 31.7849 63.2926 31.7853 63.293C34.6839 67.1016 37.7058 70.8483 40.7555 74.5261C41.5388 75.4458 42.815 75.5529 43.5929 74.8874L43.7113 74.7798L43.7177 74.774L43.7243 74.7684C46.0669 72.7824 48.3818 70.7735 50.5999 68.7096L50.5999 68.7096L50.6042 68.7057C52.0268 67.4126 53.3948 66.0758 54.7643 64.7373C55.5806 63.9396 56.3975 63.1413 57.2269 62.3514L63.8092 55.8903C65.5149 54.1505 67.1609 52.3451 68.8008 50.5431L68.0682 49.5806C67.8504 49.2944 67.6322 49.0084 67.4137 48.7227C65.421 50.2268 63.4401 51.7325 61.5067 53.2577L54.4567 59.1881C53.5966 59.9345 52.7318 60.6597 51.8722 61.3806C50.3862 62.6268 48.9153 63.8603 47.509 65.1688L47.5091 65.1689L47.5004 65.1766C45.9497 66.5539 44.4305 67.9681 42.9352 69.3966C43.4582 69.9428 43.9785 70.4907 44.4958 71.0401L45.3944 71.9947L44.0943 71.8877L40.4267 71.5859L39.3303 71.4956L40.1225 70.7234C40.5861 70.2715 41.0521 69.8196 41.5205 69.3684C38.9562 66.7105 36.3283 64.094 33.6698 61.5328C30.6226 58.6489 27.5617 55.7887 24.36 53.0262C26.6945 56.5071 29.208 59.8576 31.7149 63.1993ZM68.9328 50.3981C69.3102 49.9834 69.6874 49.5689 70.065 49.1556L70.2054 48.9829L70.2133 48.9733L70.2216 48.9641C70.4945 48.6607 70.4881 48.1616 70.1264 47.8221L70.1264 47.8221L70.1217 47.8176C69.7547 47.464 69.3878 47.1094 69.0214 46.7538L69.0086 47.2801L68.9598 49.2857L68.9328 50.3981ZM68.2143 46.8655L68.7336 46.4742C65.7546 43.5755 62.8144 40.6007 60.094 37.4569C57.6706 34.7714 55.4824 31.8348 53.3168 28.9285C53.0506 28.5714 52.7848 28.2147 52.519 27.8589L51.9123 28.5386C51.6861 28.792 51.4592 29.0454 51.2314 29.2988C51.2965 29.3601 51.3618 29.4214 51.427 29.4827C54.27 32.1562 57.1441 34.8589 59.7215 37.7955C62.4983 40.8294 65.0894 44.0621 67.6021 47.3269C67.8054 47.1737 68.0087 47.0205 68.2119 46.8673L68.2143 46.8655ZM52.4547 27.7729C52.0318 27.2073 51.6086 26.6442 51.1837 26.0859C50.7879 25.5676 50.1289 25.4853 49.7109 25.8051L49.7045 25.81L49.6978 25.8148L49.4546 25.9885C46.97 27.8168 44.5266 29.6589 42.2984 31.6842L42.2985 31.6842L42.2942 31.688C40.0069 33.7195 37.8118 35.8574 35.6072 38.0049C31.5502 42.0488 27.6462 46.2017 24.0771 50.7595C28.9554 47.6496 33.4906 44.1476 37.8861 40.5149C38.2215 40.2306 38.557 39.9471 38.8921 39.6639C40.9056 37.9626 42.906 36.2724 44.8035 34.466L44.8034 34.4659L44.812 34.4582C46.5733 32.8572 48.2232 31.1258 49.8324 29.3565C49.4842 29.0284 49.1364 28.6997 48.7893 28.37L47.7536 27.386L49.1712 27.5027L51.584 27.7013L52.4547 27.7729ZM42.8711 70.7784C42.6524 70.5483 42.4331 70.3186 42.2133 70.0891C42.0109 70.284 41.8089 70.4791 41.6073 70.6744L42.8711 70.7784Z" fill="white" stroke="white"/>
<path d="M57.9517 35.1927L53.9627 30.7108L29.5428 52.907L33.5318 57.3889L57.9517 35.1927Z" fill="white" stroke="white"/>
<path d="M33.5714 57.977C38.2356 55.2371 42.4908 52.029 46.63 48.7048C50.9016 45.2717 54.7314 41.3364 58.5652 37.3968C58.7151 37.2428 58.8651 37.0887 59.015 36.9347L59.183 36.7415L59.1929 36.7301L59.2035 36.7193C59.8046 36.1065 59.7974 35.2039 59.2732 34.6829C58.2127 33.6681 57.1024 32.6971 55.9645 31.726L54.9654 32.4168C54.6785 32.6152 54.3929 32.8156 54.1087 33.0181C54.488 33.5867 54.8697 34.1523 55.2581 34.713C55.4342 34.5715 55.6102 34.4301 55.7862 34.2887C55.9757 34.1366 56.1651 33.9844 56.3544 33.8323L57.253 33.11L57.1594 34.2659L56.9201 37.222L56.8147 38.5236L56.0293 37.4874C55.6971 37.049 55.3729 36.6063 55.0549 36.1608C51.2294 39.2425 47.4644 42.3477 44.0729 45.8313L44.0712 45.833C40.3257 49.6429 36.7473 53.5691 33.5714 57.977ZM54.5227 30.5026L54.281 30.2784C54.0114 30.0716 53.6136 30.1072 53.3879 30.3834L53.388 30.3834L53.383 30.3893C53.084 30.7438 52.7816 31.096 52.4757 31.4453L52.818 31.4537L54.6975 31.4996L55.7284 31.5248C55.3863 31.2337 55.0418 30.9423 54.6957 30.6495C54.6437 30.6056 54.5917 30.5616 54.5397 30.5176L54.531 30.5103L54.5227 30.5026ZM52.3917 32.2357L52.129 31.8383C50.6278 33.5269 49.0428 35.1441 47.3675 36.6334C45.2297 38.5763 42.796 40.2245 40.3964 41.8073C38.0304 43.4053 35.7587 45.1338 33.7669 47.1128L33.767 47.1129L33.7589 47.1205C32.2369 48.5671 30.7575 50.0919 29.3239 51.6579L30.0428 52.8016C30.2424 53.1192 30.4415 53.438 30.6393 53.7589C32.4395 52.4205 34.1875 51.0039 35.8693 49.5422L35.8756 49.5367L35.882 49.5314C38.0581 47.7639 39.997 45.6653 41.7964 43.435C43.6077 41.1899 45.487 38.9173 47.6252 36.9733C49.2369 35.4754 50.9606 34.0779 52.7445 32.7691C52.6285 32.5938 52.5127 32.4186 52.397 32.2436L52.3917 32.2357ZM29.23 51.7605C28.7655 52.2692 28.3057 52.7822 27.8509 53.2982L27.6027 53.607L27.6028 53.6071L27.5937 53.6178C27.2807 53.9857 27.3244 54.487 27.6328 54.7729L27.6504 54.7892L27.6609 54.8011C28.075 55.1389 28.4874 55.4752 28.9024 55.8074L28.9514 55.2018L29.1272 53.031L29.23 51.7605ZM31.9336 58.0551C31.4403 57.0797 30.9076 56.1376 30.353 55.2098C30.1467 55.3589 29.9398 55.5069 29.7322 55.6538L29.1907 56.0371C30.0754 56.7386 30.976 57.4192 31.9336 58.0551ZM56.0744 35.3407C55.9944 35.405 55.9144 35.4693 55.8344 35.5336C55.9013 35.6276 55.9685 35.7213 56.036 35.815L56.0744 35.3407Z" fill="white" stroke="white"/>
<path d="M61.0078 40.733C56.1538 43.4077 51.7871 46.6403 47.571 50.0288C43.1336 53.6421 39.1744 57.8007 35.2153 61.9641L34.9943 62.2109L34.9883 62.2177L34.982 62.2243C34.4538 62.7728 34.4668 63.693 35.0559 64.242L35.073 64.2579L35.0885 64.2753L35.0973 64.2852C36.0147 65.1516 36.9671 65.9744 37.9294 66.8044L38.9496 66.1175C39.2372 65.9239 39.5234 65.728 39.808 65.53C39.7605 65.4601 39.7132 65.3902 39.6658 65.3203C39.464 65.0226 39.2627 64.7256 39.0608 64.43C38.72 64.6978 38.3791 64.9653 38.0384 65.2326L38.0257 65.2425L37.1847 65.9023L37.2239 64.8277L37.3339 61.8115L37.3855 60.3975L38.2282 61.5266C38.5851 62.0048 38.934 62.4931 39.2778 62.9857C43.1829 59.9067 47.0166 56.7897 50.4695 53.2884C54.2464 49.358 57.8569 45.3193 61.0078 40.733ZM39.4918 68.1625L39.7584 68.4138C40.0969 68.6855 40.5122 68.6248 40.7099 68.376L40.7099 68.3759L40.7152 68.3694C41.0354 67.9802 41.3599 67.594 41.6889 67.2115L41.1604 67.1746L39.1902 67.0371L38.1119 66.9618C38.5669 67.3543 39.0237 67.7491 39.4797 68.1515L39.4858 68.1569L39.4918 68.1625ZM41.6024 66.3842L41.9598 66.8987C43.4555 65.1821 45.0428 63.5449 46.7311 62.0473C48.906 60.1181 51.406 58.5143 53.8423 56.9568C56.2537 55.4152 58.4819 53.6215 60.4555 51.5956L60.4619 51.5891L60.4685 51.5828C62.0345 50.0882 63.5357 48.4897 64.9603 46.8186L64.2 45.6644C63.9843 45.3371 63.7719 45.0066 63.5629 44.673C61.6681 45.9948 59.8247 47.3852 58.1036 48.8748L58.0967 48.8808L58.0896 48.8865C55.8878 50.656 53.8876 52.7059 52.1161 54.9665C50.3263 57.2505 48.4843 59.5936 46.3563 61.5756C44.7367 63.0842 42.9953 64.481 41.1869 65.7811C41.3253 65.9833 41.4637 66.1844 41.6024 66.3842ZM65.1112 45.4036L65.064 46.6967C65.4715 46.2164 65.8727 45.7302 66.2672 45.2388L66.5178 44.9178L66.5177 44.9177L66.523 44.9112C66.7788 44.5945 66.7419 44.1234 66.4134 43.8471L66.4108 43.8449C66.014 43.5066 65.6122 43.1733 65.2045 42.846L65.1875 43.3117L65.1112 45.4036ZM64.8627 42.5741C64.1087 41.98 63.3337 41.4064 62.5319 40.8586C62.9535 41.675 63.398 42.4713 63.8626 43.2499C64.0464 43.1245 64.2306 42.9997 64.4149 42.8756L64.8627 42.5741ZM38.2572 63.7887C38.3354 63.7272 38.4136 63.6658 38.4918 63.6044C38.4198 63.5011 38.3477 63.398 38.2752 63.2952L38.2572 63.7887Z" fill="white" stroke="white"/>
<path d="M105.259 103.896C92.4595 89.1006 79.2141 74.7117 65.4665 60.7801C77.7211 76.0686 90.4786 90.9009 103.683 105.328C106.557 108.395 109.467 111.439 112.38 114.485C116.887 119.2 121.399 123.92 125.788 128.738C133.04 136.661 139.994 144.852 146.887 153.088L146.888 153.089C153.76 161.339 160.686 169.536 167.742 177.615L167.743 177.616C168.525 178.516 169.307 179.416 170.088 180.316C176.345 187.518 182.598 194.716 188.969 201.808C202.044 216.228 215.253 230.519 228.887 244.421C216.664 229.236 203.997 214.453 191.175 199.804C184.87 192.652 178.448 185.607 172.023 178.558C171.22 177.677 170.417 176.796 169.615 175.915L169.614 175.914C162.41 167.97 155.076 160.142 147.686 152.363L147.685 152.363C140.309 144.564 133.004 136.694 125.957 128.586L125.956 128.585C121.741 123.713 117.62 118.743 113.503 113.777C110.762 110.471 108.023 107.167 105.259 103.896Z" fill="white" stroke="white"/>
<path d="M74.6354 88.7466C68.5979 82.2134 62.4736 75.7925 56.2036 69.4835C61.752 76.4475 67.4328 83.2715 73.2082 90.0445C80.122 98.115 87.11 106.156 94.3555 113.959C97.1946 116.988 100.073 119.997 102.957 123.011C107.438 127.697 111.93 132.393 116.299 137.187C123.504 145.058 130.388 153.17 137.234 161.353L137.235 161.354C144.06 169.551 150.917 177.671 157.926 185.697L157.927 185.698C158.69 186.576 159.453 187.455 160.216 188.333C166.426 195.484 172.649 202.648 178.99 209.706C191.959 224.007 205.062 238.18 218.592 251.963C206.474 236.897 193.913 222.232 181.195 207.702C174.942 200.609 168.591 193.641 162.221 186.655C161.414 185.769 160.607 184.883 159.799 183.997L159.798 183.996C152.641 176.104 145.377 168.355 138.033 160.629L138.032 160.628C130.703 152.882 123.468 145.09 116.467 137.035L116.466 137.034C112.299 132.215 108.217 127.289 104.135 122.364C101.409 119.074 98.6824 115.784 95.9314 112.527C89.0188 104.421 81.8685 96.5736 74.6354 88.7466Z" fill="white" stroke="white"/>
<path d="M24.6549 49.9898C29.337 46.8126 33.8416 43.4331 38.219 39.9073C43.0184 35.9985 47.7636 32.0473 52.261 27.8237L52.261 27.8237L52.267 27.8182L52.3619 27.7319C53.1835 26.9444 53.2351 25.612 52.4786 24.762L52.44 24.7187C51.2447 23.4706 50.1192 22.281 49.0269 21.1264C45.4621 17.3584 42.2511 13.9643 38.1213 10.1345L38.1065 10.1208L38.0928 10.1059C35.2001 6.95178 31.0989 7.33007 26.9297 9.12044C22.7878 10.8991 18.7921 13.9904 16.3343 15.9156C13.2588 18.7618 9.88571 22.1142 8.14458 25.7179C7.2774 27.5128 6.82816 29.3448 7.00625 31.1917C7.18366 33.0315 7.98809 34.9337 9.70857 36.8686C11.1912 38.4453 12.4853 39.908 13.7192 41.3026C16.4023 44.3352 18.8009 47.0462 22.2351 49.9103C18.5413 44.1029 14.321 38.7646 9.9361 33.5531C8.98682 32.4248 8.83382 31.0113 9.12008 29.5558C9.40468 28.1088 10.1319 26.5618 11.0271 25.0678C12.5483 22.5293 14.6234 20.0356 16.0598 18.3096C16.3141 18.004 16.5484 17.7224 16.7561 17.4689L16.7678 17.4546L16.7805 17.4413C18.3491 15.7907 22.4171 12.7924 26.6329 11.0381C28.742 10.1604 30.9347 9.57397 32.8975 9.65257C34.8766 9.73183 36.6456 10.4924 37.8085 12.3125C39.9706 15.2663 41.848 17.3442 43.7724 19.3989C44.0516 19.6971 44.332 19.9949 44.6145 20.295C45.7604 21.5121 46.941 22.7662 48.2184 24.2264C48.3624 24.0988 48.5067 23.9715 48.6512 23.8444L49.248 23.3194L49.4572 24.0897L50.1265 26.5535L49.2635 27.0077C48.8746 26.5329 48.496 26.081 48.1259 25.6479C43.9218 29.4137 39.892 33.3804 35.9326 37.4352C32.0552 41.461 28.2722 45.6321 24.6549 49.9898Z" fill="white" stroke="white"/>
<path d="M220.431 258.93L221.096 258.265L223.147 256.214L223.629 255.732L223.916 257.64L220.431 258.93ZM220.431 258.93L222.417 259.09M220.431 258.93L222.417 259.09M222.417 259.09L222.556 259.099L222.556 259.099L222.569 259.1C223.28 259.16 223.888 258.638 223.941 257.927C223.945 257.84 223.935 257.763 223.916 257.64L222.417 259.09ZM228.722 237.642C228.733 237.675 228.744 237.708 228.755 237.742L229.144 237.26C229.1 237.257 229.057 237.253 229.014 237.25C228.819 237.24 228.695 237.384 228.689 237.502L228.193 237.479L228.689 237.502C228.689 237.511 228.689 237.529 228.693 237.552C228.697 237.575 228.702 237.59 228.705 237.597L228.715 237.619L228.722 237.642ZM230.205 237.341C230.277 237.579 230.349 237.818 230.421 238.056C233.195 238.311 235.984 238.613 238.75 238.92L238.506 237.879C237.864 237.839 237.221 237.799 236.579 237.759C234.455 237.629 232.329 237.497 230.205 237.341ZM240.35 237.997C239.83 237.963 239.309 237.929 238.788 237.897L239.559 238.495L240.444 239.182L241.5 240.002L240.813 238.385L240.812 238.384L240.769 238.285L240.763 238.272L240.758 238.258C240.703 238.108 240.54 237.997 240.386 237.998L240.368 237.998L240.35 237.997ZM245.4 249.173L241.605 240.25L240.086 240.08C240.072 240.079 240.058 240.077 240.044 240.075L242.418 250.187C242.418 250.188 242.418 250.188 242.418 250.188C243.322 253.952 244.518 257.642 245.817 261.3L245.817 261.3L245.819 261.304C247.091 264.979 248.486 268.59 249.956 272.184C251.339 275.261 252.761 278.336 254.283 281.355C253.73 278.011 253.038 274.695 252.253 271.427C251.346 267.648 250.317 263.886 249.19 260.165L249.19 260.166L249.188 260.16C248.111 256.449 246.866 252.755 245.4 249.173ZM253.347 282.313C250.491 280.468 247.569 278.724 244.641 277.065L244.638 277.063C241.284 275.135 237.876 273.3 234.44 271.536L234.436 271.534C231.029 269.749 227.543 268.081 224.048 266.408C221.221 265.096 218.343 263.86 215.462 262.651L215.554 263.044L214.681 263.474L213.245 261.656L212.045 260.136L213.824 260.877C213.898 260.908 213.972 260.939 214.045 260.97L213.676 259.394L210.798 259.162L209.789 259.081L210.47 258.324L212.991 255.52L213.571 254.874L211.267 254.501C210.319 254.35 209.425 255.017 209.286 255.974C209.259 256.177 209.268 256.346 209.3 256.561L209.302 256.575L209.303 256.589L209.317 256.739L210.635 264.091C210.763 264.737 211.148 265.239 211.662 265.497L211.662 265.498L211.827 265.581C211.827 265.581 211.827 265.581 211.827 265.581C215.291 267.323 218.753 269.014 222.243 270.585C225.765 272.136 229.308 273.662 232.902 275.094L232.905 275.095C236.474 276.549 240.095 277.909 243.745 279.149L243.745 279.149L243.754 279.152C246.908 280.293 250.1 281.362 253.347 282.313ZM220.618 247.516L220.671 248.392L220.719 248.353L222.55 246.875L222.6 246.835C222.325 246.727 222.049 246.619 221.774 246.512C221.335 246.347 220.852 246.571 220.697 246.978C220.653 247.13 220.63 247.255 220.624 247.397L220.127 247.374L220.624 247.397L220.618 247.516ZM232.185 248.847C232.254 249.075 232.322 249.302 232.39 249.529C232.609 249.609 232.829 249.689 233.048 249.768C231.905 246.184 230.766 242.596 229.667 238.997C229.493 238.981 229.319 238.966 229.146 238.951C230.198 242.233 231.193 245.544 232.185 248.847ZM211.887 258.242L213.435 258.367L213.092 256.901L211.887 258.242ZM213.843 255.741L214.478 258.451L220.309 258.921L220.25 257.939L220.129 255.935L213.642 254.885L213.843 255.741ZM222.877 255.361L223.591 255.476L222.727 249.73C222.118 249.564 221.508 249.398 220.898 249.231L220.719 249.182L221.074 255.069L222.877 255.361ZM222.106 248.519C222.258 248.561 222.411 248.603 222.564 248.644L222.497 248.204L222.106 248.519ZM223.352 247.192L223.613 248.929C223.658 248.941 223.703 248.954 223.748 248.966C226.456 249.701 229.167 250.436 231.865 251.24C231.771 250.928 231.677 250.615 231.583 250.303C229.125 249.396 226.678 248.436 224.238 247.478C223.939 247.36 223.64 247.243 223.342 247.125L223.352 247.192ZM233.497 251.175L233.068 251.604C233.075 251.606 233.081 251.608 233.088 251.61L233.208 251.647C233.347 251.643 233.462 251.553 233.498 251.448C233.512 251.373 233.519 251.329 233.521 251.289C233.522 251.254 233.518 251.238 233.515 251.23L233.511 251.219L233.508 251.209C233.504 251.197 233.501 251.186 233.497 251.175ZM221.751 256.197L221.136 256.098L221.176 256.771L221.751 256.197Z" fill="white" stroke="white"/>
<path d="M253.827 282.085L247.77 262.885L235.574 273.97L253.827 282.085Z" fill="white" stroke="white"/>
<path d="M353.237 250.223C350.106 244.011 337 238.001 337 238.001C337 238.001 349.878 246.334 353.237 253.001C354.215 254.942 353.386 255.393 352.677 257.445C351.623 260.497 347.078 263.001 347.078 263.001C347.078 263.001 354.315 260.29 354.917 256.334C355.289 253.888 354.357 252.445 353.237 250.223Z" fill="white" stroke="white"/>
<path d="M292.598 336.969C298.239 328.541 303.93 326.42 303.93 326.42C303.93 326.42 296.299 331.86 292.634 342.256C291.568 345.282 289.275 353.075 290.505 356.068C291.426 358.31 292.03 365.708 294.489 369.884C296.909 373.996 300.094 376.952 300.094 376.952C300.094 376.952 298.76 375.841 296.18 373.413C290.985 368.523 288.299 358.701 288.26 352.825C288.235 349.106 289.847 341.079 292.598 336.969Z" fill="white" stroke="white"/>
<path d="M308.099 307.349C307.71 309.965 308.55 311.924 309.269 314.479C310.938 320.409 315.292 330.576 319.22 335.871C324.51 343.001 328 343.001 328 343.001C328 343.001 322.51 338.162 318.635 331.711C314.404 324.67 311.025 314.48 311.025 310.32C311.025 308.537 309.699 308.356 310.44 306.16C311.541 302.897 313.952 302.001 313.952 302.001C313.952 302.001 308.728 303.118 308.099 307.349Z" fill="white" stroke="white"/>
<path d="M292 279.688L296.2 278.001L294.1 282.501L299 287.001L296.2 285.876L292.7 283.626L292 279.688Z" fill="white" stroke="white"/>
<path d="M339.691 294.451L336.386 293.227L339.405 297.049L340.029 299.48L339.386 301.86L341.584 300.586L341.355 297.18L339.691 294.451Z" fill="white" stroke="white"/>
<path d="M333.932 331.77L328.961 328.347L332.867 332.872L336.24 337.942C336.24 337.942 336.842 340.185 336.855 341.295C336.88 343.438 334.772 345.719 334.772 345.719L337.39 344.089L338.488 341.321L337.213 335.728L333.932 331.77Z" fill="white" stroke="white"/>
<path d="M304.601 360.921L296.721 356.04L306.991 367.35L307.815 370.12L307.87 373.611L306.209 377.085L309.398 374.79L310.113 370.726L307.741 365.466L304.601 360.921Z" fill="white" stroke="white"/>
<path d="M311.599 324.666C314.878 332.979 319.703 342.466 327.067 344.508C334.914 346.684 337.404 343.828 335.228 337.025C332.917 329.8 324.568 323.803 311.599 324.666C309.303 324.818 306.863 325.186 304.286 325.8C296.161 327.735 287.64 339.794 287.345 351.913C280.625 349.674 273.48 348.921 268.924 350.631C256.95 355.123 255.629 372.672 255.484 383.923C255.466 385.321 255.467 386.622 255.467 387.788L255.467 388.112C255.467 394.51 254.838 404.672 261.03 406.091C272.36 408.687 272.46 401.312 268.924 394.51C266.358 389.984 261.815 387.122 255.484 383.923C255.629 372.672 256.95 355.123 268.924 350.631C273.48 348.921 280.625 349.674 287.345 351.913C287.294 353.995 287.486 356.079 287.965 358.114C289.212 363.67 293.813 375.053 302.246 376.142C308.515 376.141 310.406 370.359 302.246 360.835C299.074 357.134 293.38 353.924 287.345 351.913C287.64 339.794 296.161 327.735 304.286 325.8C306.863 325.186 309.303 324.818 311.599 324.666Z" fill="white"/>
<path d="M313.894 324.665C317.174 332.978 322.308 341.567 329.363 344.507C333.783 346.35 339.699 343.827 337.523 337.024C335.212 329.799 326.863 323.802 313.894 324.665C311.599 324.818 309.159 325.186 306.582 325.799C298.457 327.734 289.936 339.793 289.641 351.913C282.92 349.674 275.776 348.921 271.219 350.63C259.245 355.122 257.925 372.672 257.78 383.923C257.762 385.321 257.762 386.621 257.762 387.787L257.762 388.111C257.762 394.509 257.205 404.39 263.325 406.09C271.219 408.284 274.756 401.312 271.219 394.509C268.654 389.983 264.111 387.122 257.78 383.923C257.925 372.672 259.245 355.122 271.219 350.63C275.776 348.921 282.92 349.674 289.641 351.913C289.59 353.995 289.782 356.079 290.261 358.113C291.507 363.669 294.168 377.111 304.498 376.142C309.598 376.142 312.702 370.359 304.541 360.835C301.37 357.133 295.676 353.923 289.641 351.913C289.936 339.793 298.457 327.734 306.582 325.799C309.159 325.186 311.599 324.818 313.894 324.665Z" fill="white"/>
<path d="M251.093 282.905C267.765 281.529 297.265 203.112 346.218 245.634C376.517 270.116 290.681 270.985 293.377 281.53C297.117 296.156 340.436 284.839 340.436 300.475C340.436 309.133 306.114 299.268 307.346 309.133C307.778 312.592 309.187 318.554 311.599 324.666M311.599 324.666C314.878 332.979 319.703 342.466 327.067 344.508C334.914 346.684 337.404 343.828 335.228 337.025C332.917 329.8 324.568 323.803 311.599 324.666ZM311.599 324.666C309.303 324.818 306.863 325.186 304.286 325.8C296.161 327.735 287.64 339.794 287.345 351.913M287.345 351.913C287.294 353.995 287.486 356.079 287.965 358.114C289.212 363.67 293.813 375.053 302.246 376.142C308.515 376.141 310.406 370.359 302.246 360.835C299.074 357.134 293.38 353.924 287.345 351.913ZM287.345 351.913C280.625 349.674 273.48 348.921 268.924 350.631C256.95 355.123 255.629 372.672 255.484 383.923M255.484 383.923C255.466 385.321 255.467 386.622 255.467 387.788L255.467 388.112C255.467 394.51 254.838 404.672 261.03 406.091C272.36 408.687 272.46 401.312 268.924 394.51C266.358 389.984 261.815 387.122 255.484 383.923ZM255.484 383.923C249.934 381.119 245.306 379.345 237.136 374.675C229.102 370.082 214.941 416.995 220.106 416.995C215.515 417.569 229.102 368.793 237.136 373.385C245.306 378.056 252.23 381.119 257.78 383.923M251.7 282.823C268.372 281.448 299.56 203.111 348.514 245.634C378.812 270.115 292.976 270.985 295.672 281.529C299.413 296.156 342.731 284.839 342.731 300.475C342.731 309.132 308.409 299.268 309.642 309.132C310.074 312.591 311.483 318.553 313.894 324.665M313.894 324.665C317.174 332.978 322.308 341.567 329.363 344.507C333.783 346.35 339.699 343.827 337.523 337.024C335.212 329.799 326.863 323.802 313.894 324.665ZM313.894 324.665C311.599 324.818 309.159 325.186 306.582 325.799C298.457 327.734 289.936 339.793 289.641 351.913M289.641 351.913C289.59 353.995 289.782 356.079 290.261 358.113C291.507 363.669 294.168 377.111 304.498 376.142C309.598 376.142 312.702 370.359 304.541 360.835C301.37 357.133 295.676 353.923 289.641 351.913ZM289.641 351.913C282.92 349.674 275.776 348.921 271.219 350.63C259.245 355.122 257.925 372.672 257.78 383.923M257.78 383.923C257.762 385.321 257.762 386.621 257.762 387.787L257.762 388.111C257.762 394.509 257.205 404.39 263.325 406.09C271.219 408.284 274.756 401.312 271.219 394.509C268.654 389.983 264.111 387.122 257.78 383.923Z" stroke="white"/>
<path d="M260.655 360.377C266.837 352.204 271.923 351.244 271.923 351.244C271.923 351.244 264.706 355.421 260.638 365.469C259.454 368.394 258.809 373.969 258.794 378.495L258.726 399.435C259.913 403.953 262.908 406.194 262.908 406.194C262.908 406.194 262.072 406.834 259.31 404.523C253.749 399.869 255.772 384.741 256.398 376.815C256.68 373.242 257.639 364.363 260.655 360.377Z" fill="white" stroke="white"/>
<path d="M268.244 389.369L260.367 385.237L265.944 389.498L270.294 395.361L270.962 397.957L270.686 400.581L268.747 403.464L271.848 401.07L272.061 397.174L271.205 393.505L268.244 389.369Z" fill="white" stroke="white"/>
</svg>
