<svg width="670" height="670" viewBox="0 0 670 670" fill="none" xmlns="http://www.w3.org/2000/svg">
<path d="M251.328 555.137L251.377 555.791L251.956 555.748L251.983 555.167L251.328 555.137ZM237.905 556.138L237.25 556.087L237.191 556.849L237.953 556.792L237.905 556.138ZM227.641 540.79L228.231 540.503L228.23 540.5L227.641 540.79ZM230.886 546.968L231.461 546.652L231.46 546.65L230.886 546.968ZM234.305 554.522L234.923 554.299L234.922 554.295L234.305 554.522ZM234.818 562.933L235.459 563.073L235.461 563.065L234.818 562.933ZM217.422 573.826L217.314 574.474L217.318 574.475L217.422 573.826ZM196.361 544.801L196.336 544.146L195.704 544.17L195.704 544.802L196.361 544.801ZM209.525 544.297L210.181 544.273L210.157 543.616L209.5 543.641L209.525 544.297ZM219.076 557.379L219.697 557.166L219.694 557.158L219.076 557.379ZM216.777 552.707L217.34 552.369L217.336 552.362L217.332 552.356L216.777 552.707ZM213.775 546.71L214.384 546.465L214.381 546.457L214.378 546.45L213.775 546.71ZM211.524 540.005L212.163 539.854L212.163 539.854L211.524 540.005ZM211.947 533.203L212.569 533.413L212.572 533.404L212.574 533.396L211.947 533.203ZM229.653 523.386L229.512 524.027L229.516 524.028L229.653 523.386ZM242.432 532.974C248.307 540.163 251.026 547.535 250.672 555.106L251.983 555.167C252.356 547.208 249.483 539.528 243.449 532.144L242.432 532.974ZM251.279 554.482L237.856 555.483L237.953 556.792L251.377 555.791L251.279 554.482ZM238.559 556.189C239.045 549.937 237.29 544.357 233.307 539.483L232.29 540.314C236.06 544.927 237.71 550.173 237.25 556.087L238.559 556.189ZM233.307 539.483C232.139 538.054 231.031 537.048 229.98 536.562C229.445 536.315 228.902 536.191 228.363 536.237C227.818 536.283 227.325 536.498 226.891 536.852L227.722 537.869C227.972 537.665 228.219 537.567 228.474 537.545C228.734 537.523 229.048 537.578 229.429 537.753C230.208 538.113 231.163 538.934 232.29 540.314L233.307 539.483ZM226.891 536.852C226.339 537.304 226.185 537.977 226.253 538.677C226.32 539.364 226.605 540.173 227.052 541.081L228.23 540.5C227.809 539.648 227.604 539.006 227.56 538.55C227.516 538.106 227.63 537.944 227.722 537.869L226.891 536.852ZM227.051 541.077C227.894 542.812 228.982 544.882 230.311 547.286L231.46 546.65C230.137 544.259 229.062 542.211 228.231 540.503L227.051 541.077ZM230.31 547.284C231.589 549.613 232.715 552.101 233.689 554.748L234.922 554.295C233.926 551.59 232.773 549.042 231.461 546.652L230.31 547.284ZM233.688 554.745C234.597 557.26 234.765 559.94 234.175 562.8L235.461 563.065C236.095 559.988 235.921 557.06 234.923 554.299L233.688 554.745ZM234.177 562.792C233.571 565.552 231.961 568.027 229.282 570.216L230.113 571.233C232.975 568.894 234.778 566.175 235.459 563.073L234.177 562.792ZM229.282 570.216C225.986 572.911 222.086 573.906 217.525 573.178L217.318 574.475C222.218 575.256 226.503 574.183 230.113 571.233L229.282 570.216ZM217.529 573.179C212.97 572.42 208.704 569.672 204.74 564.822L203.723 565.653C207.823 570.67 212.35 573.648 217.314 574.474L217.529 573.179ZM204.74 564.822C199.58 558.507 197.023 551.838 197.017 544.801L195.704 544.802C195.711 552.186 198.402 559.141 203.723 565.653L204.74 564.822ZM196.386 545.457L209.55 544.953L209.5 543.641L196.336 544.146L196.386 545.457ZM208.869 544.321C209.068 549.812 210.906 554.692 214.377 558.94L215.394 558.109C212.104 554.084 210.369 549.479 210.181 544.273L208.869 544.321ZM214.377 558.94C215.195 559.941 216.021 560.657 216.865 560.969C217.767 561.302 218.635 561.15 219.381 560.54L218.551 559.524C218.158 559.844 217.778 559.907 217.32 559.737C216.803 559.546 216.158 559.044 215.394 558.109L214.377 558.94ZM219.381 560.54C219.832 560.172 220.024 559.642 220.048 559.07C220.071 558.513 219.939 557.87 219.697 557.166L218.455 557.592C218.672 558.222 218.75 558.689 218.736 559.016C218.723 559.329 218.632 559.458 218.551 559.524L219.381 560.54ZM219.694 557.158C219.187 555.732 218.398 554.135 217.34 552.369L216.214 553.044C217.244 554.762 217.988 556.279 218.458 557.599L219.694 557.158ZM217.332 552.356C216.275 550.685 215.292 548.723 214.384 546.465L213.166 546.955C214.097 549.271 215.115 551.306 216.222 553.057L217.332 552.356ZM214.378 546.45C213.403 544.188 212.666 541.989 212.163 539.854L210.885 540.155C211.407 542.373 212.171 544.645 213.173 546.97L214.378 546.45ZM212.163 539.854C211.682 537.811 211.809 535.669 212.569 533.413L211.325 532.994C210.496 535.455 210.341 537.847 210.885 540.155L212.163 539.854ZM212.574 533.396C213.257 531.172 214.636 529.195 216.752 527.466L215.921 526.449C213.635 528.317 212.088 530.504 211.319 533.011L212.574 533.396ZM216.752 527.466C220.792 524.164 225.03 523.045 229.512 524.027L229.793 522.745C224.869 521.666 220.23 522.928 215.921 526.449L216.752 527.466ZM229.516 524.028C233.995 524.979 238.304 527.923 242.432 532.974L243.449 532.144C239.204 526.949 234.655 523.777 229.789 522.744L229.516 524.028Z" fill="#1E1F21"/>
<path d="M203.759 480.162L203.995 479.55L203.995 479.55L203.759 480.162ZM220.641 514.542L221.269 514.732L221.271 514.726L220.641 514.542ZM187.846 530.65L188.083 530.037L188.082 530.037L187.846 530.65ZM170.964 496.27L171.592 496.46L171.594 496.454L170.964 496.27ZM207.364 509.187L207.975 509.426L207.978 509.419L207.364 509.187ZM199.879 493.944L199.687 494.571L199.694 494.574L199.879 493.944ZM184.174 501.657L184.786 501.896L184.788 501.889L184.174 501.657ZM191.66 516.901L191.468 517.528L191.475 517.53L191.66 516.901ZM203.522 480.774C209.821 483.21 214.624 487.766 217.929 494.497L219.107 493.918C215.673 486.924 210.635 482.117 203.995 479.55L203.522 480.774ZM217.929 494.497C221.234 501.228 221.915 507.838 220.011 514.358L221.271 514.726C223.276 507.86 222.542 500.913 219.107 493.918L217.929 494.497ZM220.012 514.352C218.049 520.836 213.827 525.676 207.291 528.886L207.87 530.064C214.707 526.706 219.192 521.591 221.269 514.732L220.012 514.352ZM207.291 528.886C200.755 532.096 194.368 532.467 188.083 530.037L187.609 531.262C194.263 533.834 201.032 533.422 207.87 530.064L207.291 528.886ZM188.082 530.037C181.716 527.579 176.882 523.01 173.577 516.281L172.399 516.86C175.834 523.856 180.906 528.674 187.609 531.262L188.082 530.037ZM173.577 516.281C170.273 509.552 169.625 502.956 171.592 496.46L170.336 496.079C168.262 502.926 168.963 509.864 172.399 516.86L173.577 516.281ZM171.594 496.454C173.493 489.95 177.681 485.102 184.215 481.892L183.637 480.714C176.797 484.073 172.344 489.202 170.334 496.086L171.594 496.454ZM184.215 481.892C190.749 478.683 197.169 478.322 203.522 480.774L203.995 479.55C197.277 476.956 190.476 477.355 183.637 480.714L184.215 481.892ZM207.978 509.419C209.187 506.218 208.968 502.959 207.362 499.687L206.183 500.266C207.644 503.241 207.82 506.122 206.75 508.955L207.978 509.419ZM207.362 499.687C205.755 496.415 203.319 494.269 200.064 493.314L199.694 494.574C202.562 495.415 204.723 497.291 206.183 500.266L207.362 499.687ZM200.071 493.316C196.814 492.321 193.539 492.641 190.279 494.242L190.858 495.42C193.844 493.953 196.776 493.682 199.687 494.571L200.071 493.316ZM190.279 494.242C187.019 495.843 184.764 498.239 183.56 501.425L184.788 501.889C185.864 499.041 187.871 496.887 190.858 495.42L190.279 494.242ZM183.563 501.418C182.329 504.579 182.538 507.819 184.144 511.091L185.323 510.512C183.862 507.537 183.698 504.681 184.786 501.896L183.563 501.418ZM184.144 511.091C185.751 514.363 188.196 516.528 191.468 517.528L191.851 516.273C188.956 515.388 186.783 513.487 185.323 510.512L184.144 511.091ZM191.475 517.53C194.709 518.48 197.971 518.136 201.227 516.536L200.648 515.358C197.658 516.827 194.734 517.119 191.844 516.271L191.475 517.53ZM201.227 516.536C204.483 514.937 206.749 512.566 207.975 509.426L206.753 508.948C205.657 511.754 203.639 513.889 200.648 515.358L201.227 516.536Z" fill="#1E1F21"/>
<path d="M203.325 452.452L203.964 452.302L203.814 451.663L203.175 451.812L203.325 452.452ZM206.705 466.912L206.855 467.551L207.494 467.401L207.344 466.762L206.705 466.912ZM158.96 478.082L158.321 478.232L158.471 478.871L159.11 478.721L158.96 478.082ZM150.492 441.861L150.342 441.221L149.703 441.371L149.853 442.01L150.492 441.861ZM163.09 438.913L163.729 438.763L163.58 438.124L162.941 438.274L163.09 438.913ZM168.178 460.675L167.539 460.824L167.688 461.463L168.327 461.314L168.178 460.675ZM172.902 459.569L173.052 460.208L173.691 460.059L173.541 459.42L172.902 459.569ZM167.932 438.309L167.782 437.67L167.143 437.819L167.292 438.458L167.932 438.309ZM180.53 435.361L181.169 435.212L181.02 434.572L180.381 434.722L180.53 435.361ZM185.501 456.622L184.862 456.771L185.011 457.41L185.65 457.261L185.501 456.622ZM202.685 452.601L206.066 467.061L207.344 466.762L203.964 452.302L202.685 452.601ZM206.556 466.272L158.811 477.443L159.11 478.721L206.855 467.551L206.556 466.272ZM159.599 477.933L151.131 441.711L149.853 442.01L158.321 478.232L159.599 477.933ZM150.641 442.5L163.239 439.552L162.941 438.274L150.342 441.221L150.641 442.5ZM162.451 439.063L167.539 460.824L168.817 460.525L163.729 438.763L162.451 439.063ZM168.327 461.314L173.052 460.208L172.753 458.93L168.028 460.036L168.327 461.314ZM173.541 459.42L168.571 438.159L167.292 438.458L172.263 459.719L173.541 459.42ZM168.081 438.948L180.679 436L180.381 434.722L167.782 437.67L168.081 438.948ZM179.891 435.511L184.862 456.771L186.14 456.472L181.169 435.212L179.891 435.511ZM185.65 457.261L203.474 453.091L203.175 451.812L185.351 455.983L185.65 457.261Z" fill="#1E1F21"/>
<path d="M197.08 401.128L197.736 401.109L197.717 400.453L197.061 400.472L197.08 401.128ZM197.51 415.972L197.529 416.628L198.185 416.609L198.166 415.953L197.51 415.972ZM161.43 417.025L161.411 416.369L160.755 416.388L160.774 417.044L161.43 417.025ZM161.811 430.178L161.83 430.834L162.486 430.815L162.467 430.159L161.811 430.178ZM148.878 430.556L148.222 430.575L148.241 431.231L148.897 431.212L148.878 430.556ZM147.687 389.478L147.668 388.822L147.012 388.841L147.031 389.497L147.687 389.478ZM160.62 389.101L161.277 389.082L161.258 388.425L160.601 388.445L160.62 389.101ZM161 402.181L160.343 402.2L160.362 402.856L161.019 402.837L161 402.181ZM196.424 401.148L196.854 415.991L198.166 415.953L197.736 401.109L196.424 401.148ZM197.491 415.316L161.411 416.369L161.449 417.681L197.529 416.628L197.491 415.316ZM160.774 417.044L161.155 430.197L162.467 430.159L162.086 417.005L160.774 417.044ZM161.792 429.522L148.859 429.899L148.897 431.212L161.83 430.834L161.792 429.522ZM149.534 430.536L148.343 389.459L147.031 389.497L148.222 430.575L149.534 430.536ZM147.706 390.134L160.639 389.757L160.601 388.445L147.668 388.822L147.706 390.134ZM159.964 389.12L160.343 402.2L161.656 402.162L161.277 389.082L159.964 389.12ZM161.019 402.837L197.099 401.784L197.061 400.472L160.981 401.525L161.019 402.837Z" fill="#1E1F21"/>
<path d="M207.986 334.118L208.625 334.265L208.736 333.783L208.303 333.543L207.986 334.118ZM204.491 349.306L204.489 349.963L205.013 349.964L205.13 349.453L204.491 349.306ZM175.991 349.241L175.993 348.584L175.705 349.832L175.991 349.241ZM201.655 361.629L202.295 361.776L202.412 361.265L201.941 361.038L201.655 361.629ZM198.16 376.817L198.195 377.472L198.689 377.446L198.8 376.964L198.16 376.817ZM147.224 379.514L146.584 379.367L146.389 380.215L147.258 380.169L147.224 379.514ZM150.95 363.322L150.962 362.666L150.429 362.656L150.31 363.175L150.95 363.322ZM181.599 363.882L181.587 364.538L181.895 363.296L181.599 363.882ZM154.032 349.925L153.393 349.778L153.277 350.279L153.736 350.511L154.032 349.925ZM156.538 339.035L156.527 338.379L156.014 338.388L155.898 338.888L156.538 339.035ZM187.435 338.52L187.446 339.177L187.709 337.924L187.435 338.52ZM159.604 325.71L158.965 325.563L158.845 326.083L159.33 326.306L159.604 325.71ZM163.347 309.447L163.664 308.873L162.902 308.451L162.707 309.3L163.347 309.447ZM207.346 333.971L203.851 349.159L205.13 349.453L208.625 334.265L207.346 333.971ZM204.492 348.65L175.993 348.584L175.989 349.897L204.489 349.963L204.492 348.65ZM175.705 349.832L201.37 362.22L201.941 361.038L176.276 348.65L175.705 349.832ZM201.016 361.482L197.521 376.67L198.8 376.964L202.295 361.776L201.016 361.482ZM198.126 376.162L147.189 378.858L147.258 380.169L198.195 377.472L198.126 376.162ZM147.864 379.661L151.589 363.469L150.31 363.175L146.584 379.367L147.864 379.661ZM150.937 363.979L181.587 364.538L181.611 363.226L150.962 362.666L150.937 363.979ZM181.895 363.296L154.329 349.34L153.736 350.511L181.302 364.467L181.895 363.296ZM154.672 350.072L157.178 339.183L155.898 338.888L153.393 349.778L154.672 350.072ZM156.549 339.692L187.446 339.177L187.424 337.864L156.527 338.379L156.549 339.692ZM187.709 337.924L159.879 325.114L159.33 326.306L187.16 339.117L187.709 337.924ZM160.244 325.857L163.986 309.594L162.707 309.3L158.965 325.563L160.244 325.857ZM163.029 310.021L207.668 334.692L208.303 333.543L163.664 308.873L163.029 310.021Z" fill="#1E1F21"/>
<path d="M236.04 279.766L236.615 280.082L237.068 279.256L236.137 279.117L236.04 279.766ZM227.941 294.525L227.808 295.168L228.283 295.266L228.516 294.841L227.941 294.525ZM222.065 293.314L222.197 292.671L221.722 292.573L221.489 292.998L222.065 293.314ZM213.577 308.782L213.001 308.466L212.768 308.891L213.106 309.239L213.577 308.782ZM217.756 313.086L218.331 313.402L218.564 312.977L218.227 312.629L217.756 313.086ZM209.657 327.845L209.161 328.276L209.779 328.986L210.232 328.161L209.657 327.845ZM175.366 288.407L174.791 288.091L174.571 288.492L174.871 288.837L175.366 288.407ZM184.349 272.037L184.446 271.388L183.994 271.32L183.774 271.721L184.349 272.037ZM208.811 290.571L209.387 290.887L209.814 290.108L208.944 289.928L208.811 290.571ZM192.619 287.223L192.752 286.58L190.658 286.147L192.149 287.68L192.619 287.223ZM204.143 299.078L203.672 299.536L204.291 300.173L204.718 299.394L204.143 299.078ZM235.464 279.45L227.365 294.209L228.516 294.841L236.615 280.082L235.464 279.45ZM228.073 293.882L222.197 292.671L221.932 293.957L227.808 295.168L228.073 293.882ZM221.489 292.998L213.001 308.466L214.152 309.097L222.64 293.629L221.489 292.998ZM213.106 309.239L217.284 313.543L218.227 312.629L214.048 308.324L213.106 309.239ZM217.18 312.771L209.081 327.529L210.232 328.161L218.331 313.402L217.18 312.771ZM210.152 327.414L175.862 287.976L174.871 288.837L209.161 328.276L210.152 327.414ZM175.942 288.723L184.925 272.352L183.774 271.721L174.791 288.091L175.942 288.723ZM184.252 272.686L235.943 280.415L236.137 279.117L184.446 271.388L184.252 272.686ZM208.944 289.928L192.752 286.58L192.486 287.865L208.678 291.214L208.944 289.928ZM192.149 287.68L203.672 299.536L204.614 298.621L193.09 286.765L192.149 287.68ZM204.718 299.394L209.387 290.887L208.236 290.255L203.567 298.763L204.718 299.394Z" fill="#1E1F21"/>
<path d="M267.136 247.346L267.625 247.785L268.342 246.985L267.303 246.711L267.136 247.346ZM255.843 259.93L255.637 260.554L256.045 260.688L256.331 260.369L255.843 259.93ZM239.835 254.653L240.041 254.03L239.633 253.895L239.347 254.215L239.835 254.653ZM236.251 258.647L235.762 258.209L235.324 258.697L235.813 259.135L236.251 258.647ZM247.741 268.958L248.23 269.396L248.668 268.908L248.18 268.469L247.741 268.958ZM237.823 280.01L237.384 280.498L237.873 280.937L238.311 280.448L237.823 280.01ZM201.328 247.261L200.839 246.822L200.401 247.311L200.889 247.749L201.328 247.261ZM231.061 221.394L231.081 222.05L231.091 222.05L231.061 221.394ZM248.358 234.15L247.717 234.29L247.719 234.299L248.358 234.15ZM248.282 242.379L247.651 242.2L247.469 242.843L248.115 243.014L248.282 242.379ZM234.257 240.066L234.908 240.152L234.909 240.141L234.91 240.129L234.257 240.066ZM229.989 236.236L230.123 236.879L230.134 236.877L230.145 236.874L229.989 236.236ZM220.876 244.85L220.388 244.412L219.949 244.9L220.438 245.339L220.876 244.85ZM226.621 250.006L226.183 250.494L226.671 250.932L227.11 250.444L226.621 250.006ZM266.648 246.908L255.354 259.492L256.331 260.369L267.625 247.785L266.648 246.908ZM256.048 259.307L240.041 254.03L239.63 255.276L255.637 260.554L256.048 259.307ZM239.347 254.215L235.762 258.209L236.74 259.085L240.324 255.091L239.347 254.215ZM235.813 259.135L247.303 269.446L248.18 268.469L236.689 258.158L235.813 259.135ZM247.253 268.519L237.334 279.571L238.311 280.448L248.23 269.396L247.253 268.519ZM238.261 279.521L201.766 246.772L200.889 247.749L237.384 280.498L238.261 279.521ZM201.816 247.699L219.296 228.221L218.319 227.345L200.839 246.822L201.816 247.699ZM219.296 228.221C222.906 224.199 226.832 222.181 231.081 222.05L231.041 220.738C226.351 220.882 222.108 223.123 218.319 227.345L219.296 228.221ZM231.091 222.05C235.371 221.851 239.227 223.282 242.684 226.384L243.56 225.407C239.868 222.094 235.682 220.523 231.031 220.738L231.091 222.05ZM242.684 226.384C245.454 228.87 247.108 231.507 247.717 234.29L248.999 234.01C248.317 230.893 246.481 228.027 243.56 225.407L242.684 226.384ZM247.719 234.299C248.375 237.117 248.345 239.746 247.651 242.2L248.914 242.558C249.676 239.866 249.697 237.009 248.997 234.001L247.719 234.299ZM248.115 243.014L266.969 247.981L267.303 246.711L248.449 241.744L248.115 243.014ZM233.149 243.714C234.135 242.616 234.739 241.428 234.908 240.152L233.606 239.98C233.479 240.941 233.02 241.893 232.172 242.837L233.149 243.714ZM234.91 240.129C235.044 238.747 234.525 237.548 233.44 236.574L232.563 237.551C233.374 238.279 233.693 239.082 233.604 240.003L234.91 240.129ZM233.44 236.574C232.383 235.626 231.161 235.275 229.834 235.599L230.145 236.874C231.01 236.663 231.796 236.863 232.563 237.551L233.44 236.574ZM229.856 235.594C228.562 235.862 227.419 236.576 226.427 237.682L227.404 238.559C228.245 237.622 229.151 237.08 230.123 236.879L229.856 235.594ZM226.427 237.682L220.388 244.412L221.365 245.288L227.404 238.559L226.427 237.682ZM220.438 245.339L226.183 250.494L227.06 249.517L221.314 244.362L220.438 245.339ZM227.11 250.444L233.149 243.714L232.172 242.837L226.133 249.567L227.11 250.444Z" fill="#1E1F21"/>
<path d="M301.803 223.872L302.184 224.406L302.718 224.024L302.337 223.49L301.803 223.872ZM271.526 245.482L270.991 245.864L271.373 246.398L271.907 246.016L271.526 245.482ZM243.04 205.57L242.659 205.036L242.125 205.417L242.506 205.952L243.04 205.57ZM273.318 183.96L273.852 183.578L273.471 183.044L272.936 183.425L273.318 183.96ZM280.834 194.491L281.215 195.025L281.75 194.644L281.368 194.11L280.834 194.491ZM262.644 207.475L262.262 206.94L261.728 207.322L262.109 207.856L262.644 207.475ZM265.462 211.424L264.928 211.805L265.309 212.339L265.844 211.958L265.462 211.424ZM283.234 198.739L283.768 198.358L283.387 197.824L282.852 198.205L283.234 198.739ZM290.75 209.271L291.131 209.805L291.666 209.424L291.284 208.889L290.75 209.271ZM272.979 221.955L272.597 221.421L272.063 221.802L272.444 222.337L272.979 221.955ZM276.096 226.324L275.562 226.705L275.943 227.239L276.478 226.858L276.096 226.324ZM294.287 213.34L294.821 212.959L294.44 212.424L293.905 212.806L294.287 213.34ZM301.422 223.337L271.144 244.948L271.907 246.016L302.184 224.406L301.422 223.337ZM272.06 245.101L243.575 205.189L242.506 205.952L270.991 245.864L272.06 245.101ZM243.422 206.104L273.699 184.494L272.936 183.425L242.659 205.036L243.422 206.104ZM272.783 184.341L280.3 194.872L281.368 194.11L273.852 183.578L272.783 184.341ZM280.453 193.957L262.262 206.94L263.025 208.009L281.215 195.025L280.453 193.957ZM262.109 207.856L264.928 211.805L265.997 211.043L263.178 207.093L262.109 207.856ZM265.844 211.958L283.615 199.274L282.852 198.205L265.081 210.89L265.844 211.958ZM282.699 199.121L290.216 209.652L291.284 208.889L283.768 198.358L282.699 199.121ZM290.369 208.737L272.597 221.421L273.36 222.49L291.131 209.805L290.369 208.737ZM272.444 222.337L275.562 226.705L276.631 225.942L273.513 221.574L272.444 222.337ZM276.478 226.858L294.668 213.874L293.905 212.806L275.715 225.789L276.478 226.858ZM293.752 213.721L301.269 224.253L302.337 223.49L294.821 212.959L293.752 213.721Z" fill="#1E1F21"/>
<path d="M364.756 199.479L364.961 200.103L366.381 199.635L365.076 198.906L364.756 199.479ZM349.256 204.588L348.951 205.169L349.197 205.298L349.461 205.211L349.256 204.588ZM346.355 203.067L346.66 202.485L346.209 202.249L345.868 202.627L346.355 203.067ZM322.851 210.194L322.622 210.809L322.627 210.81L322.851 210.194ZM320.359 185.007L320.814 185.481L321.296 185.018L320.825 184.544L320.359 185.007ZM316.076 166.835L316.625 167.195L316.626 167.194L316.076 166.835ZM336.465 159.651L336.271 160.278L336.278 160.28L336.465 159.651ZM342.644 174.412L342.069 174.095L342.065 174.102L342.644 174.412ZM336.177 182.038L335.744 181.546L335.137 182.08L335.785 182.564L336.177 182.038ZM339.958 184.585L340.322 184.039L340.304 184.027L340.285 184.017L339.958 184.585ZM343.529 186.969L343.165 187.515L343.938 188.031L344.166 187.129L343.529 186.969ZM344.512 178.44L344.594 177.789L343.833 177.693L343.856 178.46L344.512 178.44ZM355.736 179.85L356.386 179.936L356.473 179.281L355.817 179.199L355.736 179.85ZM352.576 192.579L351.966 192.336L351.756 192.863L352.247 193.147L352.576 192.579ZM337.54 197.922L337.977 198.412L338.641 197.819L337.878 197.359L337.54 197.922ZM332.646 194.813L333.018 194.272L333.011 194.268L333.004 194.263L332.646 194.813ZM327.706 191.332L328.101 190.808L327.398 190.279L327.091 191.103L327.706 191.332ZM330.398 199.269L330.72 198.697L330.72 198.697L330.398 199.269ZM329.896 176.833L329.43 177.295L329.887 177.755L330.353 177.304L329.896 176.833ZM331.436 168.585L331.14 169.171L331.154 169.178L331.169 169.184L331.436 168.585ZM327.223 170.128L327.797 170.447L327.803 170.435L327.809 170.423L327.223 170.128ZM364.551 198.856L349.05 203.964L349.461 205.211L364.961 200.103L364.551 198.856ZM349.561 204.006L346.66 202.485L346.05 203.648L348.951 205.169L349.561 204.006ZM345.868 202.627C343.035 205.771 339.606 208.006 335.572 209.335L335.982 210.582C340.233 209.181 343.857 206.821 346.843 203.506L345.868 202.627ZM335.572 209.335C330.933 210.864 326.779 210.924 323.076 209.577L322.627 210.81C326.662 212.279 331.126 212.183 335.982 210.582L335.572 209.335ZM323.08 209.578C319.476 208.237 316.946 205.441 315.509 201.08L314.262 201.491C315.8 206.161 318.58 209.304 322.622 210.809L323.08 209.578ZM315.509 201.08C313.772 195.808 315.443 190.633 320.814 185.481L319.905 184.533C314.297 189.914 312.319 195.591 314.262 201.491L315.509 201.08ZM320.825 184.544C318.017 181.716 316.181 178.919 315.271 176.157L314.024 176.568C315.016 179.577 316.988 182.543 319.894 185.469L320.825 184.544ZM315.271 176.157C314.266 173.104 314.699 170.135 316.625 167.195L315.527 166.476C313.402 169.721 312.883 173.103 314.024 176.568L315.271 176.157ZM316.626 167.194C318.584 164.19 321.663 161.969 325.93 160.563L325.519 159.317C321.035 160.794 317.681 163.171 315.526 166.477L316.626 167.194ZM325.93 160.563C329.587 159.358 333.026 159.273 336.271 160.278L336.66 159.024C333.124 157.929 329.403 158.036 325.519 159.317L325.93 160.563ZM336.278 160.28C339.461 161.226 341.497 163.162 342.469 166.11L343.715 165.699C342.601 162.316 340.22 160.082 336.653 159.022L336.278 160.28ZM342.469 166.11C343.482 169.186 343.32 171.827 342.069 174.095L343.218 174.729C344.681 172.077 344.818 169.046 343.715 165.699L342.469 166.11ZM342.065 174.102C340.804 176.454 338.709 178.936 335.744 181.546L336.611 182.531C339.646 179.86 341.862 177.258 343.222 174.722L342.065 174.102ZM335.785 182.564C337.235 183.648 338.517 184.513 339.63 185.154L340.285 184.017C339.233 183.41 337.995 182.577 336.57 181.513L335.785 182.564ZM339.593 185.131L343.165 187.515L343.894 186.423L340.322 184.039L339.593 185.131ZM344.166 187.129C344.918 184.149 345.254 181.245 345.168 178.42L343.856 178.46C343.938 181.153 343.618 183.935 342.893 186.808L344.166 187.129ZM344.431 179.091L355.654 180.501L355.817 179.199L344.594 177.789L344.431 179.091ZM355.085 179.764C354.454 184.524 353.412 188.712 351.966 192.336L353.185 192.823C354.679 189.079 355.744 184.781 356.386 179.936L355.085 179.764ZM352.247 193.147C355.375 194.958 359.438 197.26 364.436 200.052L365.076 198.906C360.082 196.116 356.025 193.817 352.905 192.011L352.247 193.147ZM334.693 200.325C335.9 199.927 336.995 199.287 337.977 198.412L337.103 197.432C336.25 198.193 335.311 198.739 334.283 199.078L334.693 200.325ZM337.878 197.359C335.889 196.163 334.27 195.134 333.018 194.272L332.274 195.354C333.556 196.237 335.2 197.28 337.201 198.484L337.878 197.359ZM333.004 194.263C331.441 193.244 329.807 192.092 328.101 190.808L327.311 191.857C329.037 193.157 330.696 194.326 332.287 195.363L333.004 194.263ZM327.091 191.103C326.493 192.709 326.451 194.319 326.975 195.908L328.221 195.497C327.794 194.201 327.824 192.897 328.321 191.561L327.091 191.103ZM326.975 195.908C327.556 197.672 328.585 199.002 330.076 199.841L330.72 198.697C329.551 198.039 328.714 196.992 328.221 195.497L326.975 195.908ZM330.076 199.841C331.56 200.676 333.114 200.845 334.693 200.325L334.283 199.078C333.069 199.478 331.897 199.359 330.72 198.697L330.076 199.841ZM326.428 172.867C326.901 174.304 327.925 175.78 329.43 177.295L330.362 176.37C328.933 174.931 328.06 173.625 327.675 172.456L326.428 172.867ZM330.353 177.304C332.973 174.764 334.195 172.278 333.425 169.941L332.179 170.352C332.697 171.926 331.981 173.897 329.439 176.361L330.353 177.304ZM333.425 169.941C333.127 169.036 332.552 168.363 331.703 167.985L331.169 169.184C331.651 169.399 331.986 169.768 332.179 170.352L333.425 169.941ZM331.732 167.999C330.88 167.569 329.962 167.528 329.023 167.837L329.433 169.084C330.076 168.872 330.63 168.913 331.14 169.171L331.732 167.999ZM329.023 167.837C327.942 168.193 327.128 168.858 326.637 169.832L327.809 170.423C328.129 169.789 328.652 169.342 329.433 169.084L329.023 167.837ZM326.649 169.809C326.127 170.749 326.072 171.787 326.428 172.867L327.675 172.456C327.417 171.674 327.477 171.023 327.797 170.447L326.649 169.809Z" fill="#1E1F21"/>
<path d="M383.548 197.018L382.891 197.015L382.889 197.672L383.545 197.674L383.548 197.018ZM383.731 147.983L383.733 147.327L383.077 147.325L383.074 147.981L383.731 147.983ZM425.021 154.672L424.588 155.165L424.591 155.168L425.021 154.672ZM424.887 190.621L425.317 191.117L425.317 191.117L424.887 190.621ZM414.117 180.805L413.645 180.35L413.645 180.35L414.117 180.805ZM414.4 164.192L414.876 163.741L414.4 164.192ZM398.532 160.974L398.535 160.318L397.878 160.316L397.876 160.972L398.532 160.974ZM398.446 184.132L397.79 184.129L397.787 184.786L398.444 184.788L398.446 184.132ZM405.531 196.439L383.55 196.361L383.545 197.674L405.526 197.752L405.531 196.439ZM384.204 197.02L384.387 147.986L383.074 147.981L382.891 197.015L384.204 197.02ZM383.728 148.64L405.636 148.717L405.64 147.405L383.733 147.327L383.728 148.64ZM405.636 148.717C413.449 148.745 419.747 150.91 424.588 155.165L425.455 154.179C420.33 149.675 413.706 147.433 405.64 147.405L405.636 148.717ZM424.591 155.168C429.406 159.353 431.825 165.146 431.797 172.634L433.109 172.639C433.138 164.836 430.602 158.653 425.452 154.177L424.591 155.168ZM431.797 172.634C431.769 180.122 429.307 185.924 424.458 190.125L425.317 191.117C430.498 186.629 433.08 180.442 433.109 172.639L431.797 172.634ZM424.458 190.125C419.584 194.346 413.295 196.466 405.531 196.439L405.526 197.752C413.544 197.78 420.16 195.584 425.317 191.117L424.458 190.125ZM405.501 184.813C409.229 184.826 412.282 183.656 414.59 181.261L413.645 180.35C411.623 182.448 408.933 183.512 405.506 183.5L405.501 184.813ZM414.59 181.261C416.877 178.887 418.026 175.982 418.039 172.585L416.726 172.581C416.715 175.653 415.687 178.23 413.645 180.35L414.59 181.261ZM418.039 172.585C418.052 168.972 417.016 166.001 414.876 163.741L413.923 164.643C415.787 166.612 416.739 169.235 416.726 172.581L418.039 172.585ZM414.876 163.741C412.716 161.458 409.609 160.357 405.666 160.343L405.661 161.656C409.363 161.669 412.08 162.696 413.923 164.643L414.876 163.741ZM405.666 160.343L398.535 160.318L398.53 161.631L405.661 161.656L405.666 160.343ZM397.876 160.972L397.79 184.129L399.102 184.134L399.189 160.977L397.876 160.972ZM398.444 184.788L405.501 184.813L405.506 183.5L398.448 183.475L398.444 184.788Z" fill="#1E1F21"/>
<path d="M470.807 206.51L470.659 207.15L471.299 207.297L471.446 206.657L470.807 206.51ZM434.554 198.175L433.914 198.028L433.767 198.668L434.407 198.815L434.554 198.175ZM445.55 150.389L445.697 149.75L445.057 149.602L444.91 150.242L445.55 150.389ZM481.802 158.724L482.442 158.871L482.589 158.232L481.95 158.085L481.802 158.724ZM478.901 171.333L478.754 171.973L479.393 172.12L479.541 171.48L478.901 171.333ZM457.121 166.326L457.268 165.686L456.628 165.539L456.481 166.179L457.121 166.326ZM456.033 171.054L455.393 170.907L455.246 171.547L455.885 171.694L456.033 171.054ZM477.311 175.946L477.951 176.094L478.098 175.454L477.459 175.307L477.311 175.946ZM474.41 188.556L474.263 189.195L474.902 189.342L475.05 188.703L474.41 188.556ZM453.131 183.663L453.278 183.024L452.639 182.877L452.491 183.516L453.131 183.663ZM451.928 188.893L451.288 188.746L451.141 189.386L451.78 189.533L451.928 188.893ZM473.708 193.901L474.348 194.048L474.495 193.408L473.855 193.261L473.708 193.901ZM470.954 205.87L434.701 197.535L434.407 198.815L470.659 207.15L470.954 205.87ZM435.193 198.322L446.189 150.536L444.91 150.242L433.914 198.028L435.193 198.322ZM445.402 151.029L481.655 159.364L481.95 158.085L445.697 149.75L445.402 151.029ZM481.163 158.577L478.261 171.186L479.541 171.48L482.442 158.871L481.163 158.577ZM479.048 170.694L457.268 165.686L456.973 166.965L478.754 171.973L479.048 170.694ZM456.481 166.179L455.393 170.907L456.672 171.201L457.76 166.473L456.481 166.179ZM455.885 171.694L477.164 176.586L477.459 175.307L456.18 170.415L455.885 171.694ZM476.672 175.799L473.77 188.409L475.05 188.703L477.951 176.094L476.672 175.799ZM474.557 187.916L453.278 183.024L452.984 184.303L474.263 189.195L474.557 187.916ZM452.491 183.516L451.288 188.746L452.567 189.04L453.771 183.81L452.491 183.516ZM451.78 189.533L473.561 194.54L473.855 193.261L452.075 188.254L451.78 189.533ZM473.068 193.754L470.167 206.363L471.446 206.657L474.348 194.048L473.068 193.754Z" fill="#1E1F21"/>
<path d="M473.624 200.192L473.291 199.627L472.79 199.923L473.023 200.455L473.624 200.192ZM485.214 193.345L485.824 193.101L485.539 192.391L484.881 192.78L485.214 193.345ZM501.218 202.552L500.816 203.071L500.819 203.073L501.218 202.552ZM495.571 198.453L495.195 198.991L495.197 198.992L495.571 198.453ZM489.157 193.198L488.703 193.672L488.705 193.674L489.157 193.198ZM484.97 185.886L484.333 186.044L484.335 186.053L484.97 185.886ZM495.737 168.411L495.546 167.783L495.542 167.784L495.737 168.411ZM527.482 185.091L527.795 185.668L528.351 185.366L528.07 184.8L527.482 185.091ZM515.904 191.379L515.327 191.691L515.639 192.269L516.217 191.955L515.904 191.379ZM501.544 183.887L501.081 184.353L501.087 184.358L501.544 183.887ZM505.676 187.055L505.32 187.607L505.327 187.612L505.334 187.616L505.676 187.055ZM511.024 191.1L510.587 191.589L510.593 191.595L510.599 191.6L511.024 191.1ZM516.014 196.112L515.508 196.53L515.508 196.53L516.014 196.112ZM518.65 202.396L517.999 202.484L518.001 202.492L518.002 202.501L518.65 202.396ZM507.128 219.044L506.97 218.407L506.966 218.408L507.128 219.044ZM491.422 216.114C482.969 212.275 477.264 206.872 474.226 199.929L473.023 200.455C476.217 207.755 482.196 213.365 490.879 217.309L491.422 216.114ZM473.958 200.757L485.548 193.91L484.881 192.78L473.291 199.627L473.958 200.757ZM484.605 193.59C486.941 199.408 490.987 203.632 496.718 206.235L497.261 205.04C491.836 202.576 488.033 198.605 485.824 193.101L484.605 193.59ZM496.718 206.235C498.398 206.998 499.838 207.409 500.995 207.379C501.584 207.363 502.126 207.233 502.589 206.953C503.056 206.67 503.404 206.259 503.635 205.749L502.44 205.206C502.307 205.5 502.128 205.698 501.91 205.83C501.686 205.965 501.38 206.055 500.961 206.066C500.103 206.089 498.883 205.777 497.261 205.04L496.718 206.235ZM503.635 205.749C503.93 205.1 503.77 204.428 503.399 203.831C503.034 203.245 502.421 202.646 501.617 202.031L500.819 203.073C501.573 203.65 502.042 204.135 502.284 204.524C502.519 204.903 502.489 205.098 502.44 205.206L503.635 205.749ZM501.62 202.033C500.095 200.852 498.202 199.479 495.945 197.914L495.197 198.992C497.443 200.549 499.315 201.909 500.816 203.071L501.62 202.033ZM495.947 197.915C493.768 196.394 491.656 194.663 489.609 192.722L488.705 193.674C490.797 195.658 492.96 197.431 495.195 198.991L495.947 197.915ZM489.612 192.724C487.682 190.873 486.344 188.545 485.605 185.72L484.335 186.053C485.13 189.092 486.584 191.639 488.703 193.672L489.612 192.724ZM485.607 185.728C484.927 182.986 485.273 180.054 486.704 176.904L485.509 176.361C483.98 179.726 483.568 182.963 484.333 186.044L485.607 185.728ZM486.704 176.904C488.465 173.028 491.52 170.408 495.931 169.038L495.542 167.784C490.803 169.256 487.437 172.116 485.509 176.361L486.704 176.904ZM495.927 169.039C500.351 167.698 505.394 168.27 511.097 170.86L511.64 169.665C505.741 166.986 500.362 166.323 495.546 167.783L495.927 169.039ZM511.097 170.86C518.522 174.233 523.769 179.078 526.894 185.383L528.07 184.8C524.792 178.184 519.297 173.143 511.64 169.665L511.097 170.86ZM527.169 184.514L515.591 190.802L516.217 191.955L527.795 185.668L527.169 184.514ZM516.482 191.067C513.87 186.233 510.058 182.673 505.064 180.405L504.521 181.6C509.254 183.75 512.851 187.108 515.327 191.691L516.482 191.067ZM505.064 180.405C503.887 179.87 502.829 179.594 501.935 179.689C500.979 179.79 500.267 180.311 499.869 181.188L501.064 181.731C501.274 181.27 501.587 181.045 502.073 180.994C502.621 180.936 503.422 181.101 504.521 181.6L505.064 180.405ZM499.869 181.188C499.628 181.718 499.691 182.278 499.923 182.801C500.149 183.311 500.553 183.829 501.082 184.353L502.006 183.421C501.533 182.951 501.256 182.568 501.123 182.269C500.996 181.983 501.021 181.826 501.064 181.731L499.869 181.188ZM501.087 184.358C502.174 185.411 503.589 186.494 505.32 187.607L506.031 186.504C504.346 185.42 503.007 184.39 502 183.415L501.087 184.358ZM505.334 187.616C507.022 188.645 508.773 189.968 510.587 191.589L511.462 190.611C509.601 188.947 507.786 187.574 506.017 186.495L505.334 187.616ZM510.599 191.6C512.476 193.196 514.111 194.839 515.508 196.53L516.52 195.694C515.069 193.937 513.378 192.24 511.45 190.6L510.599 191.6ZM515.508 196.53C516.846 198.148 517.681 200.125 517.999 202.484L519.3 202.308C518.953 199.735 518.031 197.522 516.52 195.694L515.508 196.53ZM518.002 202.501C518.376 204.797 518.016 207.18 516.885 209.668L518.08 210.211C519.302 207.524 519.719 204.878 519.298 202.29L518.002 202.501ZM516.885 209.668C514.727 214.419 511.423 217.3 506.97 218.407L507.287 219.681C512.179 218.465 515.779 215.277 518.08 210.211L516.885 209.668ZM506.966 218.408C502.53 219.54 497.362 218.812 491.422 216.114L490.879 217.309C496.987 220.084 502.471 220.91 507.291 219.68L506.966 218.408Z" fill="#1E1F21"/>
<path d="M525.616 236.094L525.253 236.641L525.801 237.004L526.163 236.457L525.616 236.094ZM513.239 227.889L512.692 227.526L512.329 228.073L512.876 228.436L513.239 227.889ZM540.337 187.022L540.7 186.475L540.152 186.112L539.79 186.659L540.337 187.022ZM552.714 195.227L553.261 195.59L553.624 195.043L553.077 194.68L552.714 195.227ZM525.979 235.547L513.602 227.342L512.876 228.436L525.253 236.641L525.979 235.547ZM513.786 228.251L540.884 187.385L539.79 186.659L512.692 227.526L513.786 228.251ZM539.974 187.569L552.351 195.774L553.077 194.68L540.7 186.475L539.974 187.569ZM552.167 194.864L525.069 235.731L526.163 236.457L553.261 195.59L552.167 194.864Z" fill="#1E1F21"/>
<path d="M538.543 237.919L537.889 237.969L537.889 237.976L538.543 237.919ZM563.874 211.182L563.856 211.838L563.856 211.838L563.874 211.182ZM589.899 231.279L589.257 231.417L589.258 231.421L589.899 231.279ZM589.5 243.458L589.315 244.088L589.932 244.269L590.126 243.655L589.5 243.458ZM576.028 239.506L575.405 239.3L575.192 239.945L575.843 240.136L576.028 239.506ZM576.346 233.933L575.697 234.031L575.698 234.042L575.7 234.053L576.346 233.933ZM564.989 225.504L564.95 224.849L564.95 224.849L564.989 225.504ZM552.956 238.205L552.299 238.202L552.299 238.202L552.956 238.205ZM563.84 250.339L563.765 250.991L564.091 251.029L564.317 250.791L563.84 250.339ZM565.054 249.058L565.53 249.51L565.982 249.033L565.505 248.582L565.054 249.058ZM558.436 242.789L557.959 242.338L557.508 242.814L557.985 243.266L558.436 242.789ZM567.335 233.397L567.786 232.92L567.31 232.469L566.858 232.945L567.335 233.397ZM584.68 249.828L585.156 250.28L585.608 249.803L585.131 249.352L584.68 249.828ZM570.877 264.397L570.927 265.052L571.179 265.032L571.353 264.849L570.877 264.397ZM548.225 255.705C542.778 250.545 539.785 244.602 539.197 237.862L537.889 237.976C538.508 245.069 541.668 251.302 547.322 256.658L548.225 255.705ZM539.198 237.868C538.68 231.154 540.961 225.097 546.107 219.666L545.154 218.763C539.782 224.433 537.339 230.845 537.889 237.969L539.198 237.868ZM546.107 219.666C551.252 214.235 557.159 211.649 563.856 211.838L563.893 210.526C556.781 210.325 550.525 213.094 545.154 218.763L546.107 219.666ZM563.856 211.838C570.652 212.026 576.763 214.676 582.209 219.835L583.112 218.882C577.456 213.524 571.044 210.723 563.892 210.526L563.856 211.838ZM582.209 219.835C586.05 223.474 588.379 227.335 589.257 231.417L590.54 231.141C589.594 226.743 587.098 222.658 583.112 218.882L582.209 219.835ZM589.258 231.421C590.183 235.591 590.05 239.533 588.874 243.26L590.126 243.655C591.377 239.69 591.51 235.512 590.539 231.137L589.258 231.421ZM589.685 242.828L576.213 238.876L575.843 240.136L589.315 244.088L589.685 242.828ZM576.652 239.711C577.266 237.849 577.375 235.878 576.991 233.813L575.7 234.053C576.047 235.92 575.944 237.665 575.405 239.3L576.652 239.711ZM576.995 233.835C576.676 231.717 575.708 229.894 574.112 228.381L573.209 229.334C574.601 230.653 575.423 232.213 575.697 234.031L576.995 233.835ZM574.112 228.381C571.432 225.843 568.369 224.646 564.95 224.849L565.028 226.159C568.048 225.98 570.765 227.019 573.209 229.334L574.112 228.381ZM564.95 224.849C561.551 225.05 558.592 226.491 556.094 229.128L557.047 230.031C559.336 227.615 561.989 226.339 565.028 226.159L564.95 224.849ZM556.094 229.128C553.596 231.765 552.317 234.797 552.299 238.202L553.612 238.209C553.628 235.165 554.759 232.446 557.047 230.031L556.094 229.128ZM552.299 238.202C552.281 241.626 553.642 244.62 556.322 247.159L557.224 246.206C554.781 243.891 553.596 241.234 553.612 238.209L552.299 238.202ZM556.322 247.159C557.369 248.151 558.607 249.004 560.028 249.72L560.619 248.548C559.299 247.883 558.169 247.101 557.224 246.206L556.322 247.159ZM560.028 249.72C561.433 250.429 562.684 250.867 563.765 250.991L563.916 249.687C563.049 249.587 561.955 249.222 560.619 248.548L560.028 249.72ZM564.317 250.791L565.53 249.51L564.577 248.607L563.364 249.888L564.317 250.791ZM565.505 248.582L558.887 242.313L557.985 243.266L564.602 249.535L565.505 248.582ZM558.912 243.241L567.811 233.848L566.858 232.945L557.959 242.338L558.912 243.241ZM566.883 233.873L584.228 250.305L585.131 249.352L567.786 232.92L566.883 233.873ZM584.203 249.377L570.4 263.946L571.353 264.849L585.156 250.28L584.203 249.377ZM570.826 263.743C562.121 264.42 554.602 261.746 548.225 255.705L547.322 256.658C553.967 262.953 561.85 265.757 570.927 265.052L570.826 263.743Z" fill="#1E1F21"/>
<path d="M592.239 313.77L591.684 314.12L592.034 314.675L592.589 314.325L592.239 313.77ZM584.633 301.706L584.023 301.463L583.899 301.773L584.078 302.056L584.633 301.706ZM596.006 273.154L596.615 273.397L597.362 271.523L595.655 272.599L596.006 273.154ZM574.987 286.408L574.432 286.758L574.782 287.313L575.337 286.963L574.987 286.408ZM567.067 273.846L566.717 273.291L566.162 273.641L566.512 274.196L567.067 273.846ZM608.544 247.691L609.099 247.341L608.749 246.786L608.194 247.136L608.544 247.691ZM616.699 260.626L617.31 260.867L617.432 260.557L617.254 260.276L616.699 260.626ZM606.146 287.445L605.535 287.204L604.801 289.068L606.496 288L606.146 287.445ZM625.796 275.053L626.351 274.703L626.001 274.148L625.446 274.498L625.796 275.053ZM633.716 287.615L634.066 288.17L634.621 287.82L634.271 287.265L633.716 287.615ZM592.794 313.42L585.188 301.356L584.078 302.056L591.684 314.12L592.794 313.42ZM585.242 301.949L596.615 273.397L595.396 272.911L584.023 301.463L585.242 301.949ZM595.655 272.599L574.637 285.853L575.337 286.963L596.356 273.709L595.655 272.599ZM575.543 286.058L567.622 273.496L566.512 274.196L574.432 286.758L575.543 286.058ZM567.417 274.402L608.894 248.247L608.194 247.136L566.717 273.291L567.417 274.402ZM607.989 248.042L616.144 260.976L617.254 260.276L609.099 247.341L607.989 248.042ZM616.088 260.386L605.535 287.204L606.756 287.685L617.31 260.867L616.088 260.386ZM606.496 288L626.146 275.609L625.446 274.498L605.795 286.889L606.496 288ZM625.24 275.404L633.161 287.965L634.271 287.265L626.351 274.703L625.24 275.404ZM633.366 287.06L591.889 313.215L592.589 314.325L634.066 288.17L633.366 287.06Z" fill="#1E1F21"/>
</svg>
