<svg width="692" height="254" viewBox="0 0 692 254" fill="none" xmlns="http://www.w3.org/2000/svg">
<mask id="mask0_6503_15718" style="mask-type:alpha" maskUnits="userSpaceOnUse" x="239" y="0" width="212" height="182">
<rect width="181.375" height="139.558" transform="matrix(0.965905 0.258896 -0.256457 0.966556 274.846 0)" fill="#C4C4C4"/>
</mask>
<g mask="url(#mask0_6503_15718)">
<path d="M363.788 83.7776C368.61 47.2824 350.014 20.0696 350.014 20.0696C350.014 20.0696 342.315 36.3481 334.176 52.6916C327.339 66.4211 319.615 80.7852 319.198 86.83C317.138 116.715 341.766 134.89 341.766 134.89C341.766 134.89 359.955 112.786 363.788 83.7776Z" fill="#09A829"/>
<path d="M385.138 148.509C411.492 147.724 428.716 130.886 428.716 130.886C428.716 130.886 416.354 127.172 403.898 123.144C393.434 119.759 382.424 115.801 378.1 116.21C356.727 118.236 346.558 138.424 346.558 138.424C346.558 138.424 364.191 149.132 385.138 148.509Z" fill="#09A829"/>
<path fill-rule="evenodd" clip-rule="evenodd" d="M327.101 51.0926C323.751 49.3133 320.153 47.8832 316.338 46.8608C288.8 39.4797 260.45 56.1387 253.017 84.0698C245.583 112.001 261.881 140.627 289.419 148.008C306.583 152.609 324.062 147.87 336.595 136.884L325.945 130.049C316.572 136.915 304.394 139.598 292.505 136.412C271.518 130.786 258.838 108.853 264.607 87.1765C270.376 65.4997 292.264 52.8318 313.252 58.4572C316.226 59.2544 319.034 60.3793 321.646 61.7845L327.101 51.0926Z" fill="#09A829"/>
<path fill-rule="evenodd" clip-rule="evenodd" d="M315.652 73.7472C313.752 72.6797 311.692 71.8314 309.496 71.2428C294.983 67.3527 280.003 76.2753 276.039 91.1718C272.52 104.394 278.861 117.878 290.48 123.463L295.452 113.644C288.542 110.432 284.45 102.337 286.664 94.0197C289.135 84.7358 298.276 79.6238 306.667 81.8728C308.098 82.2563 309.441 82.8363 310.673 83.5807L315.652 73.7472Z" fill="#09A829"/>
<path d="M307.712 88.434L288.547 93.2042L286.234 98.6147C286.234 98.6147 288.527 101.463 290.481 102.338C291.834 102.943 293.224 103.512 294.148 103.32C297.008 102.728 301.115 101.742 301.115 101.742L307.712 88.434Z" fill="#09A829"/>
</g>
<path d="M347.261 241.876C346.289 242.661 345.085 243.261 343.648 243.677C342.253 244.046 340.774 244.231 339.21 244.231C335.153 244.231 332.004 243.1 329.764 240.837C327.567 238.575 326.468 235.251 326.468 230.864V215.559V207.248V198.176H336.357V207.248H344.038C344.038 207.248 344.536 207.211 344.852 207.248C347.806 207.594 347.806 215.214 344.852 215.559C344.536 215.596 344.038 215.559 344.038 215.559H336.357V230.726C336.357 232.296 336.716 233.519 337.435 234.396C338.196 235.228 339.252 235.643 340.605 235.643C341.444 235.643 342.217 235.51 342.923 235.244C343.628 234.977 348.233 241.091 347.261 241.876Z" fill="#09A829"/>
<path d="M317.143 242.368C318.578 242.019 319.782 241.514 320.753 240.853C321.724 240.193 317.123 235.05 316.418 235.274C315.713 235.498 314.941 235.61 314.102 235.61C312.751 235.61 311.696 235.26 310.936 234.561C310.218 233.823 309.859 232.794 309.859 231.473V218.713V212.214V211.722C309.859 211.368 300.384 207.216 299.978 210.766C299.936 211.137 299.978 211.722 299.978 211.722V218.713V231.589C299.978 235.279 301.076 238.076 303.272 239.979C305.51 241.883 308.655 242.834 312.709 242.834C314.271 242.834 315.749 242.679 317.143 242.368Z" fill="#09A829"/>
<path d="M391.915 211.812C391.855 211.955 391.746 212.171 391.746 212.171L376.604 244.364C375.05 247.899 373.118 250.389 370.808 251.833C368.54 253.277 365.788 253.999 362.554 253.999C360.79 253.999 359.047 253.752 357.324 253.258C355.602 252.764 354.195 252.08 353.103 251.206C352.011 250.332 358.27 245.961 359.278 246.303C360.286 246.645 361.273 246.816 362.239 246.816C363.583 246.816 364.675 246.512 365.515 245.904C366.355 245.334 367.111 244.364 367.783 242.996L367.909 242.711L353.657 212.713C353.657 212.713 353.356 212.177 353.229 211.812C352.044 208.391 361.521 208.643 363.373 211.812C363.57 212.149 363.785 212.713 363.785 212.713L372.887 232.62L382.298 212.171C382.298 212.171 382.393 211.95 382.464 211.812C384.022 208.784 393.213 208.686 391.915 211.812Z" fill="#09A829"/>
<path d="M24.0327 244.231C19.5094 244.231 15.4088 243.255 11.731 241.305C8.09544 239.311 5.22082 236.576 3.10713 233.099C1.03571 229.579 0 225.614 0 221.203C0 216.793 1.03571 212.849 3.10713 209.371C5.22082 205.852 8.09544 203.116 11.731 201.166C15.4088 199.172 19.5305 198.176 24.0961 198.176C27.943 198.176 31.4095 198.854 34.4954 200.211C37.5814 201.568 39.1507 214.582 35.7637 212.17C32.3766 209.759 29.0421 206.954 24.6034 206.954C21.8556 206.954 19.4037 207.569 17.2477 208.799C15.0918 209.986 13.4008 211.661 12.1749 213.824C10.9912 215.987 10.3994 218.447 10.3994 221.203C10.3994 223.96 10.9912 226.419 12.1749 228.582C13.4008 230.745 15.0918 232.441 17.2477 233.671C19.4037 234.859 21.8556 235.452 24.6034 235.452C29.0421 235.452 32.7622 233.692 35.7637 230.173C38.7651 226.653 37.6237 240.838 34.4954 242.195C31.3672 243.552 27.8796 244.231 24.0327 244.231Z" fill="#09A829"/>
<path d="M63.5116 244.23C59.8997 244.23 56.6491 243.495 53.7596 242.026C50.9126 240.514 48.6818 238.436 47.0671 235.791C45.4524 233.146 44.645 230.144 44.645 226.785C44.645 223.426 45.4524 220.424 47.0671 217.779C48.6818 215.134 50.9126 213.077 53.7596 211.607C56.6491 210.096 59.8997 209.34 63.5116 209.34C67.1234 209.34 70.3528 210.096 73.1998 211.607C76.0468 213.077 78.2776 215.134 79.8923 217.779C81.507 220.424 82.3144 223.426 82.3144 226.785C82.3144 230.144 81.507 233.146 79.8923 235.791C78.2776 238.436 76.0468 240.514 73.1998 242.026C70.3528 243.495 67.1234 244.23 63.5116 244.23ZM63.5116 236.169C66.0611 236.169 68.1432 235.329 69.7579 233.65C71.4151 231.928 72.2437 229.64 72.2437 226.785C72.2437 223.93 71.4151 221.663 69.7579 219.983C68.1432 218.262 66.0611 217.401 63.5116 217.401C60.962 217.401 58.8587 218.262 57.2015 219.983C55.5443 221.663 54.7157 223.93 54.7157 226.785C54.7157 229.64 55.5443 231.928 57.2015 233.65C58.8587 235.329 60.962 236.169 63.5116 236.169Z" fill="#09A829"/>
<path fill-rule="evenodd" clip-rule="evenodd" d="M220.128 240.189C222.713 242.776 228.571 244.23 232.991 244.23V235.567C228.446 235.567 226.008 232.726 226.008 227.213V209.34H216.25V228.676C216.25 233.765 217.542 237.602 220.128 240.189ZM245.856 240.189C243.27 242.776 237.412 244.23 232.992 244.23V235.567C237.537 235.567 239.976 232.726 239.976 227.213V209.34H249.734V228.676C249.734 233.765 248.441 237.602 245.856 240.189Z" fill="#09A829"/>
<path fill-rule="evenodd" clip-rule="evenodd" d="M483.033 240.189C480.447 242.776 474.589 244.23 470.169 244.23V235.567C474.714 235.567 477.153 232.726 477.153 227.213V209.34H486.911V228.676C486.911 233.765 485.618 237.602 483.033 240.189ZM457.305 240.189C459.89 242.776 465.748 244.23 470.169 244.23V235.567C465.623 235.567 463.185 232.726 463.185 227.213V209.34H453.427V228.676C453.427 233.765 454.719 237.602 457.305 240.189Z" fill="#09A829"/>
<path fill-rule="evenodd" clip-rule="evenodd" d="M261.983 212.147C264.568 209.457 270.426 207.945 274.846 207.945V216.954C270.301 216.954 267.863 219.909 267.863 225.642V244.23H258.104V224.121C258.104 218.829 259.397 214.838 261.983 212.147ZM289.106 212.147C286.52 209.457 280.662 207.945 276.242 207.945V216.954C280.787 216.954 283.226 219.909 283.226 225.642V244.23H292.984V224.121C292.984 218.829 291.691 214.838 289.106 212.147Z" fill="#09A829"/>
<path fill-rule="evenodd" clip-rule="evenodd" d="M512.721 207.955C512.485 207.948 512.253 207.945 512.024 207.945V207.985C507.462 208.241 502.019 209.711 499.483 212.147C496.682 214.838 495.281 218.829 495.281 224.121V244.23H505.852V225.642C505.852 220.186 508.245 217.246 512.721 216.974C517.197 217.246 519.589 220.186 519.589 225.642V244.23H530.161V224.121C530.161 218.829 528.76 214.838 525.959 212.147C523.423 209.711 517.98 208.241 513.418 207.985V207.945C513.189 207.945 512.957 207.948 512.721 207.955Z" fill="#09A829"/>
<path fill-rule="evenodd" clip-rule="evenodd" d="M102.83 209.34C98.6856 209.34 95.4033 210.618 92.9826 213.174C90.5209 215.687 89.29 219.479 89.29 224.548V244.23H98.8908V226.082C98.8908 223.356 99.4446 221.332 100.552 220.011C101.619 218.648 103.158 217.967 105.168 217.967C107.425 217.967 109.209 218.733 110.522 220.267C111.782 221.698 111.78 223.814 111.778 226.618C111.778 226.736 111.778 226.856 111.778 226.977V244.23H113.008H121.379H122.609V226.977C122.609 226.856 122.608 226.736 122.608 226.618C122.606 223.814 122.604 221.698 123.864 220.267C125.177 218.733 126.962 217.967 129.218 217.967C131.229 217.967 132.767 218.648 133.834 220.011C134.942 221.332 135.496 223.356 135.496 226.082V244.23H145.097V224.548C145.097 219.479 143.866 215.687 141.404 213.174C138.983 210.618 135.701 209.34 131.557 209.34C129.095 209.34 126.818 209.83 124.726 210.81C122.674 211.789 120.972 213.174 119.618 214.963C119.618 214.963 119.221 215.407 117.842 217.556C117.641 217.869 117.422 218.222 117.193 218.602C116.964 218.222 116.746 217.869 116.545 217.556C115.165 215.407 114.769 214.963 114.769 214.963C113.415 213.174 111.712 211.789 109.661 210.81C107.568 209.83 105.291 209.34 102.83 209.34Z" fill="#09A829"/>
<path fill-rule="evenodd" clip-rule="evenodd" d="M167.008 209.34C162.864 209.34 159.582 210.618 157.161 213.174C154.699 215.687 153.468 219.479 153.468 224.548V244.23H163.069V226.082C163.069 223.356 163.623 221.332 164.731 220.011C165.797 218.648 167.336 217.967 169.346 217.967C171.603 217.967 173.388 218.733 174.701 220.267C175.96 221.698 175.959 223.814 175.956 226.618C175.956 226.736 175.956 226.856 175.956 226.977V244.23H177.186H185.557H186.787V226.977C186.787 226.856 186.787 226.736 186.787 226.618C186.784 223.814 186.783 221.698 188.042 220.267C189.355 218.733 191.14 217.967 193.397 217.967C195.407 217.967 196.946 218.648 198.012 220.011C199.12 221.332 199.674 223.356 199.674 226.082V244.23H209.275V224.548C209.275 219.479 208.044 215.687 205.582 213.174C203.161 210.618 199.879 209.34 195.735 209.34C193.274 209.34 190.996 209.83 188.904 210.81C186.853 211.789 185.15 213.174 183.796 214.963C183.796 214.963 183.399 215.407 182.02 217.556C181.819 217.869 181.601 218.222 181.371 218.602C181.142 218.222 180.924 217.869 180.723 217.556C179.344 215.407 178.947 214.963 178.947 214.963C177.593 213.174 175.89 211.789 173.839 210.81C171.747 209.83 169.469 209.34 167.008 209.34Z" fill="#09A829"/>
<ellipse cx="304.843" cy="203.06" rx="4.88306" ry="4.88462" fill="#09A829"/>
<path d="M672.057 199.93H668.282V198.176H677.948V199.93H674.173V209.341H672.057V199.93Z" fill="#09A829"/>
<path d="M689.998 209.341L689.982 201.94L686.24 208.065H685.296L681.553 202.036V209.341H679.535V198.176H681.277L685.8 205.576L690.243 198.176H691.984L692 209.341H689.998Z" fill="#09A829"/>
<path fill-rule="evenodd" clip-rule="evenodd" d="M591.826 229.556C592.296 231.655 593.404 233.314 595.153 234.531C596.902 235.749 599.077 236.358 601.679 236.358C603.47 236.358 605.048 236.106 606.413 235.602C607.415 235.213 608.363 234.676 609.257 233.989C610.151 233.303 618.867 235.098 615.625 238.751C612.384 242.404 607.65 244.23 601.423 244.23C597.542 244.23 594.108 243.495 591.123 242.026C588.137 240.514 585.834 238.436 584.213 235.791C582.593 233.146 581.782 230.144 581.782 226.785C581.782 223.468 582.571 220.487 584.149 217.842C585.77 215.155 587.967 213.077 590.739 211.607C593.554 210.096 596.689 209.34 600.143 209.34C603.513 209.34 606.562 210.054 609.292 211.481C612.021 212.909 614.154 214.966 615.689 217.653C617.267 220.298 618.056 224.266 618.056 226.911C618.056 229.556 616.289 229.556 616.289 229.556H591.826ZM594.513 218.661C596.049 217.401 597.947 216.771 600.207 216.771C602.425 216.771 604.302 217.422 605.837 218.724C607.372 219.983 608.311 221.684 608.652 223.825H591.698C592.04 221.642 592.978 219.92 594.513 218.661Z" fill="#09A829"/>
<path fill-rule="evenodd" clip-rule="evenodd" d="M567.262 240.582C562.541 244.05 558.325 244.231 553.786 244.231C550.651 244.231 547.803 243.535 545.245 242.143C542.728 240.751 540.748 238.766 539.303 236.186C537.859 233.607 537.137 230.619 537.137 227.221C537.137 223.823 537.859 220.835 539.303 218.256C540.748 215.677 542.728 213.691 545.245 212.299C547.803 210.907 550.651 210.211 553.786 210.211C558.036 210.211 561.358 211.542 563.751 214.203V198.176H573.407V228.888C573.407 228.888 573.558 231.84 572.154 234.714C571.495 236.062 571.076 236.848 569.855 238.144C568.622 239.454 567.262 240.582 567.262 240.582ZM561.523 233.914C559.914 235.552 557.892 236.371 555.458 236.371C552.982 236.371 550.939 235.552 549.33 233.914C547.721 232.236 546.916 230.005 546.916 227.221C546.916 224.437 547.721 222.227 549.33 220.589C550.939 218.911 552.982 218.072 555.458 218.072C557.892 218.072 559.914 218.911 561.523 220.589C563.132 222.227 563.937 224.437 563.937 227.221C563.937 230.005 563.132 232.236 561.523 233.914Z" fill="#09A829"/>
<path fill-rule="evenodd" clip-rule="evenodd" d="M655.157 240.582C650.436 244.05 646.22 244.231 641.681 244.231C638.546 244.231 635.698 243.535 633.14 242.143C630.623 240.751 628.643 238.766 627.198 236.186C625.754 233.607 625.032 230.619 625.032 227.221C625.032 223.823 625.754 220.835 627.198 218.256C628.643 215.677 630.623 213.691 633.14 212.299C635.698 210.907 638.546 210.211 641.681 210.211C645.931 210.211 649.253 211.542 651.646 214.203V198.176H661.302V228.888C661.302 228.888 661.453 231.84 660.049 234.714C659.39 236.062 658.971 236.848 657.75 238.144C656.517 239.454 655.157 240.582 655.157 240.582ZM649.418 233.914C647.809 235.552 645.787 236.371 643.353 236.371C640.877 236.371 638.834 235.552 637.225 233.914C635.616 232.236 634.811 230.005 634.811 227.221C634.811 224.437 635.616 222.227 637.225 220.589C638.834 218.911 640.877 218.072 643.353 218.072C645.787 218.072 647.809 218.911 649.418 220.589C651.027 222.227 651.832 224.437 651.832 227.221C651.832 230.005 651.027 232.236 649.418 233.914Z" fill="#09A829"/>
<path d="M424.568 216.306V206.762H443.737C443.737 206.762 444.633 206.853 445.196 206.762C448.499 206.226 450.987 198.776 447.687 198.216C447.153 198.125 446.3 198.216 446.3 198.216H414.363V244.231H424.568V224.852H441.601C441.601 224.852 442.201 224.864 442.402 224.852C445.653 224.647 447.728 216.577 444.482 216.306C444.222 216.284 443.814 216.306 443.814 216.306H424.568Z" fill="#09A829"/>
<path d="M424.568 206.762V216.306H443.814C443.814 216.306 444.222 216.284 444.482 216.306C447.728 216.577 445.653 224.647 442.402 224.852C442.201 224.864 441.601 224.852 441.601 224.852H424.568V244.231H414.363V198.216H446.3C446.3 198.216 447.153 198.125 447.687 198.216C450.987 198.776 448.499 206.226 445.196 206.762C444.633 206.853 443.737 206.762 443.737 206.762H424.568Z" fill="#09A829"/>
</svg>
