<svg width="42" height="42" viewBox="0 0 42 42" fill="none" xmlns="http://www.w3.org/2000/svg">
<circle r="21" transform="matrix(-1 0 0 1 21 21)" fill="#1E1F21"/>
<path d="M30 20C30.5523 20 31 20.4477 31 21C31 21.5523 30.5523 22 30 22L30 20ZM11.2929 21.7071C10.9024 21.3166 10.9024 20.6834 11.2929 20.2929L17.6569 13.9289C18.0474 13.5384 18.6805 13.5384 19.0711 13.9289C19.4616 14.3195 19.4616 14.9526 19.0711 15.3431L13.4142 21L19.0711 26.6569C19.4616 27.0474 19.4616 27.6805 19.0711 28.0711C18.6805 28.4616 18.0474 28.4616 17.6569 28.0711L11.2929 21.7071ZM30 22L12 22L12 20L30 20L30 22Z" fill="white"/>
</svg>
