<svg width="42" height="42" viewBox="0 0 42 42" fill="none" xmlns="http://www.w3.org/2000/svg">
<circle cx="21" cy="21" r="21" fill="#1E1F21"/>
<path d="M12 20C11.4477 20 11 20.4477 11 21C11 21.5523 11.4477 22 12 22L12 20ZM30.7071 21.7071C31.0976 21.3166 31.0976 20.6834 30.7071 20.2929L24.3431 13.9289C23.9526 13.5384 23.3195 13.5384 22.9289 13.9289C22.5384 14.3195 22.5384 14.9526 22.9289 15.3431L28.5858 21L22.9289 26.6569C22.5384 27.0474 22.5384 27.6805 22.9289 28.0711C23.3195 28.4616 23.9526 28.4616 24.3431 28.0711L30.7071 21.7071ZM12 22L30 22L30 20L12 20L12 22Z" fill="white"/>
</svg>
