<svg width="18" height="20" viewBox="0 0 18 20" fill="none" xmlns="http://www.w3.org/2000/svg">
<path d="M8.03521 1.82419C8.03521 1.29134 8.46717 0.859375 9.00002 0.859375V0.859375C9.53288 0.859375 9.96484 1.29134 9.96484 1.82419V18.1758C9.96484 18.7086 9.53287 19.1406 9 19.1406V19.1406C8.46713 19.1406 8.03516 18.7086 8.03516 18.1758L8.03521 1.82419Z" fill="#1E1F21"/>
<path d="M0.26565 10.0001C0.265636 9.46716 0.697632 9.03516 1.23053 9.03516H16.7694C17.3023 9.03516 17.7343 9.46715 17.7343 10V10C17.7343 10.5329 17.3023 10.9649 16.7694 10.9649H1.23053C0.697654 10.9649 0.265664 10.5329 0.26565 10.0001V10.0001Z" fill="#1E1F21"/>
</svg>
