<svg width="1225" height="416" viewBox="0 0 1225 416" fill="none" xmlns="http://www.w3.org/2000/svg">
<path d="M224.804 199.672C218.457 199.672 213.436 197.861 209.74 194.24L215.004 187.52C217.655 189.947 220.884 191.16 224.692 191.16C226.633 191.16 228.127 190.749 229.172 189.928C230.255 189.107 230.796 188.08 230.796 186.848C230.796 185.541 230.292 184.496 229.284 183.712C228.276 182.928 226.839 182.536 224.972 182.536C222.023 182.536 219.559 183.469 217.58 185.336L210.916 183.712V161.648H238.02V170.048H220.548V177.272C222.601 175.293 225.271 174.304 228.556 174.304C231.841 174.304 234.66 175.424 237.012 177.664C239.401 179.904 240.596 182.835 240.596 186.456C240.596 190.488 239.177 193.699 236.34 196.088C233.503 198.477 229.657 199.672 224.804 199.672Z" fill="white"/>
<path d="M153.976 250H152.076L150.896 247.04H144.256L143.076 250H141.176L146.536 236.66H148.596L153.976 250ZM150.396 245.56L147.576 238.38L144.736 245.56H150.396ZM159.49 250H157.85L153.83 240.34H155.45L158.67 248.26L161.87 240.34H163.51L159.49 250ZM169.434 250.24C167.994 250.24 166.814 249.773 165.894 248.84C164.974 247.893 164.514 246.667 164.514 245.16C164.514 243.747 164.968 242.553 165.874 241.58C166.781 240.593 167.914 240.1 169.274 240.1C170.701 240.1 171.828 240.593 172.654 241.58C173.494 242.553 173.914 243.787 173.914 245.28V245.66H166.094C166.161 246.607 166.508 247.4 167.134 248.04C167.761 248.68 168.574 249 169.574 249C170.774 249 171.768 248.593 172.554 247.78L173.274 248.76C172.288 249.747 171.008 250.24 169.434 250.24ZM172.434 244.56C172.421 243.733 172.141 242.993 171.594 242.34C171.048 241.673 170.268 241.34 169.254 241.34C168.294 241.34 167.534 241.667 166.974 242.32C166.428 242.973 166.134 243.72 166.094 244.56H172.434ZM177.844 250H176.344V240.34H177.844V241.9C178.737 240.727 179.81 240.14 181.064 240.14V241.68C180.877 241.64 180.677 241.62 180.464 241.62C180.01 241.62 179.517 241.78 178.984 242.1C178.45 242.42 178.07 242.773 177.844 243.16V250ZM190.485 250H188.985V248.9C188.172 249.793 187.105 250.24 185.785 250.24C184.892 250.24 184.105 249.953 183.425 249.38C182.745 248.807 182.405 248.027 182.405 247.04C182.405 246.027 182.739 245.247 183.405 244.7C184.085 244.14 184.879 243.86 185.785 243.86C187.159 243.86 188.225 244.3 188.985 245.18V243.44C188.985 242.8 188.759 242.3 188.305 241.94C187.852 241.58 187.265 241.4 186.545 241.4C185.412 241.4 184.425 241.847 183.585 242.74L182.885 241.7C183.912 240.633 185.199 240.1 186.745 240.1C187.852 240.1 188.752 240.367 189.445 240.9C190.139 241.433 190.485 242.253 190.485 243.36V250ZM186.325 249.16C187.525 249.16 188.412 248.76 188.985 247.96V246.14C188.412 245.34 187.525 244.94 186.325 244.94C185.632 244.94 185.059 245.14 184.605 245.54C184.165 245.927 183.945 246.433 183.945 247.06C183.945 247.673 184.165 248.18 184.605 248.58C185.059 248.967 185.632 249.16 186.325 249.16ZM197.372 253.92C196.519 253.92 195.792 253.813 195.192 253.6C194.592 253.4 194.019 253.027 193.472 252.48L194.232 251.36C194.966 252.24 196.012 252.68 197.372 252.68C198.266 252.68 199.006 252.44 199.592 251.96C200.179 251.493 200.472 250.767 200.472 249.78V248.4C200.112 248.907 199.646 249.32 199.072 249.64C198.499 249.96 197.886 250.12 197.232 250.12C195.952 250.12 194.912 249.673 194.112 248.78C193.326 247.873 192.932 246.653 192.932 245.12C192.932 243.587 193.326 242.367 194.112 241.46C194.912 240.553 195.952 240.1 197.232 240.1C198.552 240.1 199.632 240.667 200.472 241.8V240.34H201.972V249.72C201.972 251.2 201.539 252.267 200.672 252.92C199.806 253.587 198.706 253.92 197.372 253.92ZM197.592 248.8C198.166 248.8 198.719 248.647 199.252 248.34C199.799 248.033 200.206 247.66 200.472 247.22V243C200.206 242.56 199.806 242.193 199.272 241.9C198.739 241.593 198.179 241.44 197.592 241.44C196.632 241.44 195.872 241.78 195.312 242.46C194.766 243.14 194.492 244.027 194.492 245.12C194.492 246.2 194.772 247.087 195.332 247.78C195.892 248.46 196.646 248.8 197.592 248.8ZM209.337 250.24C207.897 250.24 206.717 249.773 205.797 248.84C204.877 247.893 204.417 246.667 204.417 245.16C204.417 243.747 204.87 242.553 205.777 241.58C206.683 240.593 207.817 240.1 209.177 240.1C210.603 240.1 211.73 240.593 212.557 241.58C213.397 242.553 213.817 243.787 213.817 245.28V245.66H205.997C206.063 246.607 206.41 247.4 207.037 248.04C207.663 248.68 208.477 249 209.477 249C210.677 249 211.67 248.593 212.457 247.78L213.177 248.76C212.19 249.747 210.91 250.24 209.337 250.24ZM212.337 244.56C212.323 243.733 212.043 242.993 211.497 242.34C210.95 241.673 210.17 241.34 209.157 241.34C208.197 241.34 207.437 241.667 206.877 242.32C206.33 242.973 206.037 243.72 205.997 244.56H212.337ZM229.902 250H228.402V248.56C227.576 249.68 226.489 250.24 225.142 250.24C223.862 250.24 222.822 249.787 222.022 248.88C221.236 247.96 220.842 246.727 220.842 245.18C220.842 243.647 221.236 242.42 222.022 241.5C222.822 240.567 223.862 240.1 225.142 240.1C226.476 240.1 227.562 240.667 228.402 241.8V236.66H229.902V250ZM225.502 248.9C226.089 248.9 226.649 248.753 227.182 248.46C227.716 248.167 228.122 247.807 228.402 247.38V243C228.122 242.56 227.709 242.193 227.162 241.9C226.629 241.593 226.076 241.44 225.502 241.44C224.556 241.44 223.802 241.793 223.242 242.5C222.682 243.193 222.402 244.087 222.402 245.18C222.402 246.273 222.682 247.167 223.242 247.86C223.802 248.553 224.556 248.9 225.502 248.9ZM237.266 250.24C235.826 250.24 234.646 249.773 233.726 248.84C232.806 247.893 232.346 246.667 232.346 245.16C232.346 243.747 232.8 242.553 233.706 241.58C234.613 240.593 235.746 240.1 237.106 240.1C238.533 240.1 239.66 240.593 240.486 241.58C241.326 242.553 241.746 243.787 241.746 245.28V245.66H233.926C233.993 246.607 234.34 247.4 234.966 248.04C235.593 248.68 236.406 249 237.406 249C238.606 249 239.6 248.593 240.386 247.78L241.106 248.76C240.12 249.747 238.84 250.24 237.266 250.24ZM240.266 244.56C240.253 243.733 239.973 242.993 239.426 242.34C238.88 241.673 238.1 241.34 237.086 241.34C236.126 241.34 235.366 241.667 234.806 242.32C234.26 242.973 233.966 243.72 233.926 244.56H240.266ZM248.396 250H246.756L242.736 240.34H244.356L247.576 248.26L250.776 240.34H252.416L248.396 250ZM258.34 250.24C256.9 250.24 255.72 249.773 254.8 248.84C253.88 247.893 253.42 246.667 253.42 245.16C253.42 243.747 253.874 242.553 254.78 241.58C255.687 240.593 256.82 240.1 258.18 240.1C259.607 240.1 260.734 240.593 261.56 241.58C262.4 242.553 262.82 243.787 262.82 245.28V245.66H255C255.067 246.607 255.414 247.4 256.04 248.04C256.667 248.68 257.48 249 258.48 249C259.68 249 260.674 248.593 261.46 247.78L262.18 248.76C261.194 249.747 259.914 250.24 258.34 250.24ZM261.34 244.56C261.327 243.733 261.047 242.993 260.5 242.34C259.954 241.673 259.174 241.34 258.16 241.34C257.2 241.34 256.44 241.667 255.88 242.32C255.334 242.973 255.04 243.72 255 244.56H261.34ZM266.75 250H265.25V236.66H266.75V250ZM277.422 248.78C276.556 249.753 275.402 250.24 273.962 250.24C272.522 250.24 271.362 249.753 270.482 248.78C269.616 247.807 269.182 246.6 269.182 245.16C269.182 243.72 269.616 242.52 270.482 241.56C271.362 240.587 272.522 240.1 273.962 240.1C275.402 240.1 276.556 240.587 277.422 241.56C278.302 242.52 278.742 243.72 278.742 245.16C278.742 246.6 278.302 247.807 277.422 248.78ZM271.602 247.82C272.189 248.54 272.976 248.9 273.962 248.9C274.949 248.9 275.729 248.54 276.302 247.82C276.876 247.087 277.162 246.2 277.162 245.16C277.162 244.12 276.876 243.24 276.302 242.52C275.729 241.8 274.949 241.44 273.962 241.44C272.976 241.44 272.189 241.807 271.602 242.54C271.029 243.26 270.742 244.133 270.742 245.16C270.742 246.2 271.029 247.087 271.602 247.82ZM285.948 250.24C284.588 250.24 283.501 249.673 282.688 248.54V253.68H281.188V240.34H282.688V241.78C283.048 241.273 283.514 240.867 284.088 240.56C284.661 240.253 285.281 240.1 285.948 240.1C287.228 240.1 288.261 240.56 289.048 241.48C289.848 242.387 290.247 243.613 290.247 245.16C290.247 246.707 289.848 247.94 289.048 248.86C288.261 249.78 287.228 250.24 285.948 250.24ZM285.567 248.9C286.514 248.9 287.268 248.553 287.828 247.86C288.388 247.153 288.668 246.253 288.668 245.16C288.668 244.067 288.388 243.173 287.828 242.48C287.268 241.787 286.514 241.44 285.567 241.44C284.994 241.44 284.434 241.593 283.888 241.9C283.354 242.193 282.954 242.553 282.688 242.98V247.34C282.954 247.78 283.354 248.153 283.888 248.46C284.434 248.753 284.994 248.9 285.567 248.9ZM296.993 250.24C295.553 250.24 294.373 249.773 293.453 248.84C292.533 247.893 292.073 246.667 292.073 245.16C292.073 243.747 292.526 242.553 293.433 241.58C294.339 240.593 295.473 240.1 296.833 240.1C298.259 240.1 299.386 240.593 300.213 241.58C301.053 242.553 301.473 243.787 301.473 245.28V245.66H293.653C293.719 246.607 294.066 247.4 294.693 248.04C295.319 248.68 296.133 249 297.133 249C298.333 249 299.326 248.593 300.113 247.78L300.833 248.76C299.846 249.747 298.566 250.24 296.993 250.24ZM299.993 244.56C299.979 243.733 299.699 242.993 299.153 242.34C298.606 241.673 297.826 241.34 296.813 241.34C295.853 241.34 295.093 241.667 294.533 242.32C293.986 242.973 293.693 243.72 293.653 244.56H299.993ZM305.402 250H303.902V240.34H305.402V241.9C306.296 240.727 307.369 240.14 308.622 240.14V241.68C308.436 241.64 308.236 241.62 308.022 241.62C307.569 241.62 307.076 241.78 306.542 242.1C306.009 242.42 305.629 242.773 305.402 243.16V250ZM139.358 283.78L139.598 282.42C139.838 282.527 140.112 282.58 140.418 282.58C140.765 282.58 141.052 282.507 141.278 282.36C141.505 282.213 141.698 281.947 141.858 281.56L142.498 280.1L138.458 270.34H140.078L143.298 278.26L146.498 270.34H148.138L143.298 281.96C142.765 283.24 141.818 283.893 140.458 283.92C140.058 283.92 139.692 283.873 139.358 283.78ZM154.063 280.24C152.623 280.24 151.443 279.773 150.523 278.84C149.603 277.893 149.143 276.667 149.143 275.16C149.143 273.747 149.596 272.553 150.503 271.58C151.41 270.593 152.543 270.1 153.903 270.1C155.33 270.1 156.456 270.593 157.283 271.58C158.123 272.553 158.543 273.787 158.543 275.28V275.66H150.723C150.79 276.607 151.136 277.4 151.763 278.04C152.39 278.68 153.203 279 154.203 279C155.403 279 156.396 278.593 157.183 277.78L157.903 278.76C156.916 279.747 155.636 280.24 154.063 280.24ZM157.063 274.56C157.05 273.733 156.77 272.993 156.223 272.34C155.676 271.673 154.896 271.34 153.883 271.34C152.923 271.34 152.163 271.667 151.603 272.32C151.056 272.973 150.763 273.72 150.723 274.56H157.063ZM168.513 280H167.013V278.9C166.199 279.793 165.133 280.24 163.813 280.24C162.919 280.24 162.133 279.953 161.453 279.38C160.773 278.807 160.433 278.027 160.433 277.04C160.433 276.027 160.766 275.247 161.433 274.7C162.113 274.14 162.906 273.86 163.813 273.86C165.186 273.86 166.253 274.3 167.013 275.18V273.44C167.013 272.8 166.786 272.3 166.333 271.94C165.879 271.58 165.293 271.4 164.573 271.4C163.439 271.4 162.453 271.847 161.613 272.74L160.913 271.7C161.939 270.633 163.226 270.1 164.773 270.1C165.879 270.1 166.779 270.367 167.473 270.9C168.166 271.433 168.513 272.253 168.513 273.36V280ZM164.353 279.16C165.553 279.16 166.439 278.76 167.013 277.96V276.14C166.439 275.34 165.553 274.94 164.353 274.94C163.659 274.94 163.086 275.14 162.633 275.54C162.193 275.927 161.973 276.433 161.973 277.06C161.973 277.673 162.193 278.18 162.633 278.58C163.086 278.967 163.659 279.16 164.353 279.16ZM173.02 280H171.52V270.34H173.02V271.9C173.913 270.727 174.986 270.14 176.24 270.14V271.68C176.053 271.64 175.853 271.62 175.64 271.62C175.186 271.62 174.693 271.78 174.16 272.1C173.626 272.42 173.246 272.773 173.02 273.16V280ZM181.181 280.24C179.541 280.24 178.241 279.733 177.281 278.72L178.061 277.64C178.394 278.027 178.848 278.353 179.421 278.62C180.008 278.887 180.614 279.02 181.241 279.02C181.961 279.02 182.521 278.867 182.921 278.56C183.321 278.253 183.521 277.853 183.521 277.36C183.521 276.933 183.314 276.6 182.901 276.36C182.488 276.107 181.988 275.92 181.401 275.8C180.828 275.667 180.248 275.52 179.661 275.36C179.074 275.187 178.574 274.9 178.161 274.5C177.748 274.087 177.541 273.547 177.541 272.88C177.541 272.093 177.861 271.433 178.501 270.9C179.154 270.367 180.034 270.1 181.141 270.1C182.594 270.1 183.788 270.567 184.721 271.5L184.021 272.54C183.341 271.727 182.381 271.32 181.141 271.32C180.488 271.32 179.968 271.467 179.581 271.76C179.194 272.04 179.001 272.4 179.001 272.84C179.001 273.227 179.208 273.533 179.621 273.76C180.034 273.973 180.528 274.147 181.101 274.28C181.688 274.4 182.274 274.547 182.861 274.72C183.448 274.893 183.948 275.2 184.361 275.64C184.774 276.067 184.981 276.627 184.981 277.32C184.981 278.173 184.648 278.873 183.981 279.42C183.314 279.967 182.381 280.24 181.181 280.24ZM200.254 278.78C199.388 279.753 198.234 280.24 196.794 280.24C195.354 280.24 194.194 279.753 193.314 278.78C192.448 277.807 192.014 276.6 192.014 275.16C192.014 273.72 192.448 272.52 193.314 271.56C194.194 270.587 195.354 270.1 196.794 270.1C198.234 270.1 199.388 270.587 200.254 271.56C201.134 272.52 201.574 273.72 201.574 275.16C201.574 276.6 201.134 277.807 200.254 278.78ZM194.434 277.82C195.021 278.54 195.808 278.9 196.794 278.9C197.781 278.9 198.561 278.54 199.134 277.82C199.708 277.087 199.994 276.2 199.994 275.16C199.994 274.12 199.708 273.24 199.134 272.52C198.561 271.8 197.781 271.44 196.794 271.44C195.808 271.44 195.021 271.807 194.434 272.54C193.861 273.26 193.574 274.133 193.574 275.16C193.574 276.2 193.861 277.087 194.434 277.82ZM205.94 280H204.44V271.66H202.84V270.34H204.44V269.6C204.44 268.613 204.686 267.847 205.18 267.3C205.686 266.74 206.373 266.46 207.24 266.46C208.066 266.46 208.746 266.707 209.28 267.2L208.66 268.18C208.3 267.86 207.9 267.7 207.46 267.7C206.966 267.7 206.586 267.867 206.32 268.2C206.066 268.52 205.94 268.987 205.94 269.6V270.34H207.9V271.66H205.94V280ZM219.2 280.24C217.76 280.24 216.58 279.773 215.66 278.84C214.74 277.893 214.28 276.667 214.28 275.16C214.28 273.747 214.733 272.553 215.64 271.58C216.547 270.593 217.68 270.1 219.04 270.1C220.467 270.1 221.593 270.593 222.42 271.58C223.26 272.553 223.68 273.787 223.68 275.28V275.66H215.86C215.927 276.607 216.273 277.4 216.9 278.04C217.527 278.68 218.34 279 219.34 279C220.54 279 221.533 278.593 222.32 277.78L223.04 278.76C222.053 279.747 220.773 280.24 219.2 280.24ZM222.2 274.56C222.187 273.733 221.907 272.993 221.36 272.34C220.813 271.673 220.033 271.34 219.02 271.34C218.06 271.34 217.3 271.667 216.74 272.32C216.193 272.973 215.9 273.72 215.86 274.56H222.2ZM234.109 280H232.369L229.469 276.04L226.569 280H224.849L228.549 275.04L225.049 270.34H226.789L229.469 274.02L232.149 270.34H233.889L230.389 275.04L234.109 280ZM240.596 280.24C239.236 280.24 238.149 279.673 237.336 278.54V283.68H235.836V270.34H237.336V271.78C237.696 271.273 238.163 270.867 238.736 270.56C239.309 270.253 239.929 270.1 240.596 270.1C241.876 270.1 242.909 270.56 243.696 271.48C244.496 272.387 244.896 273.613 244.896 275.16C244.896 276.707 244.496 277.94 243.696 278.86C242.909 279.78 241.876 280.24 240.596 280.24ZM240.216 278.9C241.163 278.9 241.916 278.553 242.476 277.86C243.036 277.153 243.316 276.253 243.316 275.16C243.316 274.067 243.036 273.173 242.476 272.48C241.916 271.787 241.163 271.44 240.216 271.44C239.643 271.44 239.083 271.593 238.536 271.9C238.003 272.193 237.603 272.553 237.336 272.98V277.34C237.603 277.78 238.003 278.153 238.536 278.46C239.083 278.753 239.643 278.9 240.216 278.9ZM251.641 280.24C250.201 280.24 249.021 279.773 248.101 278.84C247.181 277.893 246.721 276.667 246.721 275.16C246.721 273.747 247.175 272.553 248.081 271.58C248.988 270.593 250.121 270.1 251.481 270.1C252.908 270.1 254.035 270.593 254.861 271.58C255.701 272.553 256.121 273.787 256.121 275.28V275.66H248.301C248.368 276.607 248.715 277.4 249.341 278.04C249.968 278.68 250.781 279 251.781 279C252.981 279 253.975 278.593 254.761 277.78L255.481 278.76C254.495 279.747 253.215 280.24 251.641 280.24ZM254.641 274.56C254.628 273.733 254.348 272.993 253.801 272.34C253.255 271.673 252.475 271.34 251.461 271.34C250.501 271.34 249.741 271.667 249.181 272.32C248.635 272.973 248.341 273.72 248.301 274.56H254.641ZM260.051 280H258.551V270.34H260.051V271.9C260.944 270.727 262.017 270.14 263.271 270.14V271.68C263.084 271.64 262.884 271.62 262.671 271.62C262.217 271.62 261.724 271.78 261.191 272.1C260.657 272.42 260.277 272.773 260.051 273.16V280ZM265.892 268.96C265.626 268.96 265.392 268.867 265.192 268.68C264.992 268.48 264.892 268.24 264.892 267.96C264.892 267.68 264.992 267.44 265.192 267.24C265.392 267.04 265.626 266.94 265.892 266.94C266.172 266.94 266.412 267.04 266.612 267.24C266.812 267.44 266.912 267.68 266.912 267.96C266.912 268.24 266.812 268.48 266.612 268.68C266.412 268.867 266.172 268.96 265.892 268.96ZM266.652 280H265.152V270.34H266.652V280ZM274.005 280.24C272.565 280.24 271.385 279.773 270.465 278.84C269.545 277.893 269.085 276.667 269.085 275.16C269.085 273.747 269.538 272.553 270.445 271.58C271.351 270.593 272.485 270.1 273.845 270.1C275.271 270.1 276.398 270.593 277.225 271.58C278.065 272.553 278.485 273.787 278.485 275.28V275.66H270.665C270.731 276.607 271.078 277.4 271.705 278.04C272.331 278.68 273.145 279 274.145 279C275.345 279 276.338 278.593 277.125 277.78L277.845 278.76C276.858 279.747 275.578 280.24 274.005 280.24ZM277.005 274.56C276.991 273.733 276.711 272.993 276.165 272.34C275.618 271.673 274.838 271.34 273.825 271.34C272.865 271.34 272.105 271.667 271.545 272.32C270.998 272.973 270.705 273.72 270.665 274.56H277.005ZM288.934 280H287.434V273.68C287.434 272.867 287.247 272.293 286.874 271.96C286.501 271.613 285.967 271.44 285.274 271.44C284.714 271.44 284.167 271.587 283.634 271.88C283.114 272.173 282.707 272.527 282.414 272.94V280H280.914V270.34H282.414V271.74C282.787 271.3 283.287 270.92 283.914 270.6C284.541 270.267 285.187 270.1 285.854 270.1C287.907 270.1 288.934 271.14 288.934 273.22V280ZM296.19 280.24C294.763 280.24 293.603 279.76 292.71 278.8C291.816 277.827 291.37 276.613 291.37 275.16C291.37 273.707 291.816 272.5 292.71 271.54C293.603 270.58 294.763 270.1 296.19 270.1C297.683 270.1 298.863 270.66 299.73 271.78L298.73 272.7C298.116 271.86 297.296 271.44 296.27 271.44C295.256 271.44 294.443 271.787 293.83 272.48C293.23 273.173 292.93 274.067 292.93 275.16C292.93 276.253 293.23 277.153 293.83 277.86C294.443 278.553 295.256 278.9 296.27 278.9C297.283 278.9 298.103 278.48 298.73 277.64L299.73 278.56C298.863 279.68 297.683 280.24 296.19 280.24ZM306.192 280.24C304.752 280.24 303.572 279.773 302.652 278.84C301.732 277.893 301.272 276.667 301.272 275.16C301.272 273.747 301.725 272.553 302.632 271.58C303.539 270.593 304.672 270.1 306.032 270.1C307.459 270.1 308.585 270.593 309.412 271.58C310.252 272.553 310.672 273.787 310.672 275.28V275.66H302.852C302.919 276.607 303.265 277.4 303.892 278.04C304.519 278.68 305.332 279 306.332 279C307.532 279 308.525 278.593 309.312 277.78L310.032 278.76C309.045 279.747 307.765 280.24 306.192 280.24ZM309.192 274.56C309.179 273.733 308.899 272.993 308.352 272.34C307.805 271.673 307.025 271.34 306.012 271.34C305.052 271.34 304.292 271.667 303.732 272.32C303.185 272.973 302.892 273.72 302.852 274.56H309.192Z" fill="white"/>
<path d="M570.752 199H541.464V191.496C549.752 185.523 555.016 181.491 557.256 179.4C559.533 177.309 560.672 175.349 560.672 173.52C560.672 172.288 560.168 171.336 559.16 170.664C558.189 169.955 556.976 169.6 555.52 169.6C551.787 169.6 548.464 170.963 545.552 173.688L540.232 167.304C542.136 165.213 544.432 163.664 547.12 162.656C549.808 161.611 552.552 161.088 555.352 161.088C559.795 161.088 563.416 162.227 566.216 164.504C569.053 166.781 570.472 169.787 570.472 173.52C570.472 176.32 569.427 179.045 567.336 181.696C565.245 184.347 561.829 187.315 557.088 190.6H570.752V199ZM597.544 198.048C595.49 199.131 593.138 199.672 590.488 199.672C587.837 199.672 585.466 199.131 583.376 198.048C581.322 196.965 579.642 195.509 578.336 193.68C577.066 191.851 576.096 189.816 575.424 187.576C574.789 185.299 574.472 182.891 574.472 180.352C574.472 176.917 575.032 173.781 576.152 170.944C577.272 168.107 579.064 165.755 581.528 163.888C584.029 162.021 587.016 161.088 590.488 161.088C593.96 161.088 596.928 162.021 599.392 163.888C601.893 165.755 603.704 168.107 604.824 170.944C605.944 173.781 606.504 176.917 606.504 180.352C606.504 182.891 606.168 185.299 605.496 187.576C604.861 189.816 603.89 191.851 602.584 193.68C601.314 195.509 599.634 196.965 597.544 198.048ZM584.216 180.352C584.216 187.557 586.306 191.16 590.488 191.16C594.669 191.16 596.76 187.557 596.76 180.352C596.76 173.184 594.669 169.6 590.488 169.6C586.306 169.6 584.216 173.184 584.216 180.352ZM632.489 198.048C630.436 199.131 628.084 199.672 625.433 199.672C622.782 199.672 620.412 199.131 618.321 198.048C616.268 196.965 614.588 195.509 613.281 193.68C612.012 191.851 611.041 189.816 610.369 187.576C609.734 185.299 609.417 182.891 609.417 180.352C609.417 176.917 609.977 173.781 611.097 170.944C612.217 168.107 614.009 165.755 616.473 163.888C618.974 162.021 621.961 161.088 625.433 161.088C628.905 161.088 631.873 162.021 634.337 163.888C636.838 165.755 638.649 168.107 639.769 170.944C640.889 173.781 641.449 176.917 641.449 180.352C641.449 182.891 641.113 185.299 640.441 187.576C639.806 189.816 638.836 191.851 637.529 193.68C636.26 195.509 634.58 196.965 632.489 198.048ZM619.161 180.352C619.161 187.557 621.252 191.16 625.433 191.16C629.614 191.16 631.705 187.557 631.705 180.352C631.705 173.184 629.614 169.6 625.433 169.6C621.252 169.6 619.161 173.184 619.161 180.352ZM667.434 198.048C665.381 199.131 663.029 199.672 660.378 199.672C657.728 199.672 655.357 199.131 653.266 198.048C651.213 196.965 649.533 195.509 648.226 193.68C646.957 191.851 645.986 189.816 645.314 187.576C644.68 185.299 644.362 182.891 644.362 180.352C644.362 176.917 644.922 173.781 646.042 170.944C647.162 168.107 648.954 165.755 651.418 163.888C653.92 162.021 656.906 161.088 660.378 161.088C663.85 161.088 666.818 162.021 669.282 163.888C671.784 165.755 673.594 168.107 674.714 170.944C675.834 173.781 676.394 176.917 676.394 180.352C676.394 182.891 676.058 185.299 675.386 187.576C674.752 189.816 673.781 191.851 672.474 193.68C671.205 195.509 669.525 196.965 667.434 198.048ZM654.106 180.352C654.106 187.557 656.197 191.16 660.378 191.16C664.56 191.16 666.65 187.557 666.65 180.352C666.65 173.184 664.56 169.6 660.378 169.6C656.197 169.6 654.106 173.184 654.106 180.352ZM704.62 182.704H694.876V193.792H689.22V182.704H679.476V177.552H689.22V166.856H694.876V177.552H704.62V182.704Z" fill="white"/>
<path d="M578.671 250H574.111V236.66H578.671C580.711 236.66 582.357 237.293 583.611 238.56C584.877 239.827 585.511 241.42 585.511 243.34C585.511 245.273 584.877 246.867 583.611 248.12C582.357 249.373 580.711 250 578.671 250ZM578.671 248.52C580.244 248.52 581.491 248.027 582.411 247.04C583.331 246.053 583.791 244.82 583.791 243.34C583.791 241.847 583.337 240.607 582.431 239.62C581.524 238.633 580.271 238.14 578.671 238.14H575.771V248.52H578.671ZM592.415 250.24C590.975 250.24 589.795 249.773 588.875 248.84C587.955 247.893 587.495 246.667 587.495 245.16C587.495 243.747 587.948 242.553 588.855 241.58C589.761 240.593 590.895 240.1 592.255 240.1C593.681 240.1 594.808 240.593 595.635 241.58C596.475 242.553 596.895 243.787 596.895 245.28V245.66H589.075C589.141 246.607 589.488 247.4 590.115 248.04C590.741 248.68 591.555 249 592.555 249C593.755 249 594.748 248.593 595.535 247.78L596.255 248.76C595.268 249.747 593.988 250.24 592.415 250.24ZM595.415 244.56C595.401 243.733 595.121 242.993 594.575 242.34C594.028 241.673 593.248 241.34 592.235 241.34C591.275 241.34 590.515 241.667 589.955 242.32C589.408 242.973 589.115 243.72 589.075 244.56H595.415ZM603.544 250H601.904L597.884 240.34H599.504L602.724 248.26L605.924 240.34H607.564L603.544 250ZM613.489 250.24C612.049 250.24 610.869 249.773 609.949 248.84C609.029 247.893 608.569 246.667 608.569 245.16C608.569 243.747 609.022 242.553 609.929 241.58C610.836 240.593 611.969 240.1 613.329 240.1C614.756 240.1 615.882 240.593 616.709 241.58C617.549 242.553 617.969 243.787 617.969 245.28V245.66H610.149C610.216 246.607 610.562 247.4 611.189 248.04C611.816 248.68 612.629 249 613.629 249C614.829 249 615.822 248.593 616.609 247.78L617.329 248.76C616.342 249.747 615.062 250.24 613.489 250.24ZM616.489 244.56C616.476 243.733 616.196 242.993 615.649 242.34C615.102 241.673 614.322 241.34 613.309 241.34C612.349 241.34 611.589 241.667 611.029 242.32C610.482 242.973 610.189 243.72 610.149 244.56H616.489ZM621.898 250H620.398V236.66H621.898V250ZM632.571 248.78C631.704 249.753 630.551 250.24 629.111 250.24C627.671 250.24 626.511 249.753 625.631 248.78C624.764 247.807 624.331 246.6 624.331 245.16C624.331 243.72 624.764 242.52 625.631 241.56C626.511 240.587 627.671 240.1 629.111 240.1C630.551 240.1 631.704 240.587 632.571 241.56C633.451 242.52 633.891 243.72 633.891 245.16C633.891 246.6 633.451 247.807 632.571 248.78ZM626.751 247.82C627.337 248.54 628.124 248.9 629.111 248.9C630.097 248.9 630.877 248.54 631.451 247.82C632.024 247.087 632.311 246.2 632.311 245.16C632.311 244.12 632.024 243.24 631.451 242.52C630.877 241.8 630.097 241.44 629.111 241.44C628.124 241.44 627.337 241.807 626.751 242.54C626.177 243.26 625.891 244.133 625.891 245.16C625.891 246.2 626.177 247.087 626.751 247.82ZM641.096 250.24C639.736 250.24 638.649 249.673 637.836 248.54V253.68H636.336V240.34H637.836V241.78C638.196 241.273 638.663 240.867 639.236 240.56C639.809 240.253 640.429 240.1 641.096 240.1C642.376 240.1 643.409 240.56 644.196 241.48C644.996 242.387 645.396 243.613 645.396 245.16C645.396 246.707 644.996 247.94 644.196 248.86C643.409 249.78 642.376 250.24 641.096 250.24ZM640.716 248.9C641.663 248.9 642.416 248.553 642.976 247.86C643.536 247.153 643.816 246.253 643.816 245.16C643.816 244.067 643.536 243.173 642.976 242.48C642.416 241.787 641.663 241.44 640.716 241.44C640.143 241.44 639.583 241.593 639.036 241.9C638.503 242.193 638.103 242.553 637.836 242.98V247.34C638.103 247.78 638.503 248.153 639.036 248.46C639.583 248.753 640.143 248.9 640.716 248.9ZM652.141 250.24C650.701 250.24 649.521 249.773 648.601 248.84C647.681 247.893 647.221 246.667 647.221 245.16C647.221 243.747 647.675 242.553 648.581 241.58C649.488 240.593 650.621 240.1 651.981 240.1C653.408 240.1 654.535 240.593 655.361 241.58C656.201 242.553 656.621 243.787 656.621 245.28V245.66H648.801C648.868 246.607 649.215 247.4 649.841 248.04C650.468 248.68 651.281 249 652.281 249C653.481 249 654.475 248.593 655.261 247.78L655.981 248.76C654.995 249.747 653.715 250.24 652.141 250.24ZM655.141 244.56C655.128 243.733 654.848 242.993 654.301 242.34C653.755 241.673 652.975 241.34 651.961 241.34C651.001 241.34 650.241 241.667 649.681 242.32C649.135 242.973 648.841 243.72 648.801 244.56H655.141ZM660.551 250H659.051V240.34H660.551V241.9C661.444 240.727 662.517 240.14 663.771 240.14V241.68C663.584 241.64 663.384 241.62 663.171 241.62C662.717 241.62 662.224 241.78 661.691 242.1C661.157 242.42 660.777 242.773 660.551 243.16V250ZM668.712 250.24C667.072 250.24 665.772 249.733 664.812 248.72L665.592 247.64C665.926 248.027 666.379 248.353 666.952 248.62C667.539 248.887 668.146 249.02 668.772 249.02C669.492 249.02 670.052 248.867 670.452 248.56C670.852 248.253 671.052 247.853 671.052 247.36C671.052 246.933 670.846 246.6 670.432 246.36C670.019 246.107 669.519 245.92 668.932 245.8C668.359 245.667 667.779 245.52 667.192 245.36C666.606 245.187 666.106 244.9 665.692 244.5C665.279 244.087 665.072 243.547 665.072 242.88C665.072 242.093 665.392 241.433 666.032 240.9C666.686 240.367 667.566 240.1 668.672 240.1C670.126 240.1 671.319 240.567 672.252 241.5L671.552 242.54C670.872 241.727 669.912 241.32 668.672 241.32C668.019 241.32 667.499 241.467 667.112 241.76C666.726 242.04 666.532 242.4 666.532 242.84C666.532 243.227 666.739 243.533 667.152 243.76C667.566 243.973 668.059 244.147 668.632 244.28C669.219 244.4 669.806 244.547 670.392 244.72C670.979 244.893 671.479 245.2 671.892 245.64C672.306 246.067 672.512 246.627 672.512 247.32C672.512 248.173 672.179 248.873 671.512 249.42C670.846 249.967 669.912 250.24 668.712 250.24ZM597.638 280.24C595.998 280.24 594.698 279.733 593.738 278.72L594.518 277.64C594.851 278.027 595.305 278.353 595.878 278.62C596.465 278.887 597.071 279.02 597.698 279.02C598.418 279.02 598.978 278.867 599.378 278.56C599.778 278.253 599.978 277.853 599.978 277.36C599.978 276.933 599.771 276.6 599.358 276.36C598.945 276.107 598.445 275.92 597.858 275.8C597.285 275.667 596.705 275.52 596.118 275.36C595.531 275.187 595.031 274.9 594.618 274.5C594.205 274.087 593.998 273.547 593.998 272.88C593.998 272.093 594.318 271.433 594.958 270.9C595.611 270.367 596.491 270.1 597.598 270.1C599.051 270.1 600.245 270.567 601.178 271.5L600.478 272.54C599.798 271.727 598.838 271.32 597.598 271.32C596.945 271.32 596.425 271.467 596.038 271.76C595.651 272.04 595.458 272.4 595.458 272.84C595.458 273.227 595.665 273.533 596.078 273.76C596.491 273.973 596.985 274.147 597.558 274.28C598.145 274.4 598.731 274.547 599.318 274.72C599.905 274.893 600.405 275.2 600.818 275.64C601.231 276.067 601.438 276.627 601.438 277.32C601.438 278.173 601.105 278.873 600.438 279.42C599.771 279.967 598.838 280.24 597.638 280.24ZM606.315 280.24C605.608 280.24 605.075 280.047 604.715 279.66C604.355 279.273 604.175 278.713 604.175 277.98V271.66H602.575V270.34H604.175V267.7H605.675V270.34H607.635V271.66H605.675V277.66C605.675 278.033 605.755 278.333 605.915 278.56C606.088 278.787 606.335 278.9 606.655 278.9C607.095 278.9 607.435 278.767 607.675 278.5L608.115 279.62C607.675 280.033 607.075 280.24 606.315 280.24ZM617.294 280H615.794V278.9C614.981 279.793 613.914 280.24 612.594 280.24C611.701 280.24 610.914 279.953 610.234 279.38C609.554 278.807 609.214 278.027 609.214 277.04C609.214 276.027 609.547 275.247 610.214 274.7C610.894 274.14 611.687 273.86 612.594 273.86C613.967 273.86 615.034 274.3 615.794 275.18V273.44C615.794 272.8 615.567 272.3 615.114 271.94C614.661 271.58 614.074 271.4 613.354 271.4C612.221 271.4 611.234 271.847 610.394 272.74L609.694 271.7C610.721 270.633 612.007 270.1 613.554 270.1C614.661 270.1 615.561 270.367 616.254 270.9C616.947 271.433 617.294 272.253 617.294 273.36V280ZM613.134 279.16C614.334 279.16 615.221 278.76 615.794 277.96V276.14C615.221 275.34 614.334 274.94 613.134 274.94C612.441 274.94 611.867 275.14 611.414 275.54C610.974 275.927 610.754 276.433 610.754 277.06C610.754 277.673 610.974 278.18 611.414 278.58C611.867 278.967 612.441 279.16 613.134 279.16ZM622.221 280H620.721V271.66H619.121V270.34H620.721V269.6C620.721 268.613 620.967 267.847 621.461 267.3C621.967 266.74 622.654 266.46 623.521 266.46C624.347 266.46 625.027 266.707 625.561 267.2L624.941 268.18C624.581 267.86 624.181 267.7 623.741 267.7C623.247 267.7 622.867 267.867 622.601 268.2C622.347 268.52 622.221 268.987 622.221 269.6V270.34H624.181V271.66H622.221V280ZM627.881 280H626.381V271.66H624.781V270.34H626.381V269.6C626.381 268.613 626.627 267.847 627.121 267.3C627.627 266.74 628.314 266.46 629.181 266.46C630.007 266.46 630.687 266.707 631.221 267.2L630.601 268.18C630.241 267.86 629.841 267.7 629.401 267.7C628.907 267.7 628.527 267.867 628.261 268.2C628.007 268.52 627.881 268.987 627.881 269.6V270.34H629.841V271.66H627.881V280ZM636.008 280.24C634.568 280.24 633.388 279.773 632.468 278.84C631.548 277.893 631.088 276.667 631.088 275.16C631.088 273.747 631.542 272.553 632.448 271.58C633.355 270.593 634.488 270.1 635.848 270.1C637.275 270.1 638.402 270.593 639.228 271.58C640.068 272.553 640.488 273.787 640.488 275.28V275.66H632.668C632.735 276.607 633.082 277.4 633.708 278.04C634.335 278.68 635.148 279 636.148 279C637.348 279 638.342 278.593 639.128 277.78L639.848 278.76C638.862 279.747 637.582 280.24 636.008 280.24ZM639.008 274.56C638.995 273.733 638.715 272.993 638.168 272.34C637.622 271.673 636.842 271.34 635.828 271.34C634.868 271.34 634.108 271.667 633.548 272.32C633.002 272.973 632.708 273.72 632.668 274.56H639.008ZM651.418 280H649.918V278.56C649.091 279.68 648.005 280.24 646.658 280.24C645.378 280.24 644.338 279.787 643.538 278.88C642.751 277.96 642.358 276.727 642.358 275.18C642.358 273.647 642.751 272.42 643.538 271.5C644.338 270.567 645.378 270.1 646.658 270.1C647.991 270.1 649.078 270.667 649.918 271.8V266.66H651.418V280ZM647.018 278.9C647.605 278.9 648.165 278.753 648.698 278.46C649.231 278.167 649.638 277.807 649.918 277.38V273C649.638 272.56 649.225 272.193 648.678 271.9C648.145 271.593 647.591 271.44 647.018 271.44C646.071 271.44 645.318 271.793 644.758 272.5C644.198 273.193 643.918 274.087 643.918 275.18C643.918 276.273 644.198 277.167 644.758 277.86C645.318 278.553 646.071 278.9 647.018 278.9Z" fill="white"/>
<path d="M970.672 199V161.648H962.328L949.28 174.528L954.768 180.296L961.04 173.968V199H970.672ZM991.351 199.672C1001.04 199.672 1007.14 194.52 1007.14 186.456C1007.14 178.952 1001.43 174.304 995.103 174.304C991.799 174.304 988.887 175.536 987.095 177.272V170.048H1004.57V161.648H977.463V183.712L984.127 185.336C986.199 183.376 988.551 182.536 991.519 182.536C995.383 182.536 997.343 184.328 997.343 186.848C997.343 189.144 995.327 191.16 991.239 191.16C987.655 191.16 984.127 189.872 981.551 187.52L976.287 194.24C979.759 197.656 984.743 199.672 991.351 199.672ZM1026.08 199.672C1037 199.672 1042.1 190.208 1042.1 180.352C1042.1 170.496 1037 161.088 1026.08 161.088C1015.16 161.088 1010.07 170.496 1010.07 180.352C1010.07 190.208 1015.16 199.672 1026.08 199.672ZM1026.08 191.16C1021.6 191.16 1019.81 186.96 1019.81 180.352C1019.81 173.744 1021.6 169.6 1026.08 169.6C1030.56 169.6 1032.35 173.744 1032.35 180.352C1032.35 186.96 1030.56 191.16 1026.08 191.16ZM1089.31 199V161.648H1075.92L1068.08 181.92L1060.3 161.648H1046.91V199H1056.55V174.696L1065.95 199H1070.21L1079.67 174.696V199H1089.31Z" fill="white"/>
<path d="M937.86 248.8C936.94 249.76 935.594 250.24 933.82 250.24C932.047 250.24 930.694 249.76 929.76 248.8C928.84 247.827 928.38 246.5 928.38 244.82V236.66H930.04V244.78C930.04 246.02 930.367 246.993 931.02 247.7C931.674 248.407 932.607 248.76 933.82 248.76C935.034 248.76 935.967 248.407 936.62 247.7C937.274 246.993 937.6 246.02 937.6 244.78V236.66H939.26V244.8C939.26 246.493 938.794 247.827 937.86 248.8ZM945.384 250.24C943.744 250.24 942.444 249.733 941.484 248.72L942.264 247.64C942.598 248.027 943.051 248.353 943.624 248.62C944.211 248.887 944.818 249.02 945.444 249.02C946.164 249.02 946.724 248.867 947.124 248.56C947.524 248.253 947.724 247.853 947.724 247.36C947.724 246.933 947.518 246.6 947.104 246.36C946.691 246.107 946.191 245.92 945.604 245.8C945.031 245.667 944.451 245.52 943.864 245.36C943.278 245.187 942.778 244.9 942.364 244.5C941.951 244.087 941.744 243.547 941.744 242.88C941.744 242.093 942.064 241.433 942.704 240.9C943.358 240.367 944.238 240.1 945.344 240.1C946.798 240.1 947.991 240.567 948.924 241.5L948.224 242.54C947.544 241.727 946.584 241.32 945.344 241.32C944.691 241.32 944.171 241.467 943.784 241.76C943.398 242.04 943.204 242.4 943.204 242.84C943.204 243.227 943.411 243.533 943.824 243.76C944.238 243.973 944.731 244.147 945.304 244.28C945.891 244.4 946.478 244.547 947.064 244.72C947.651 244.893 948.151 245.2 948.564 245.64C948.978 246.067 949.184 246.627 949.184 247.32C949.184 248.173 948.851 248.873 948.184 249.42C947.518 249.967 946.584 250.24 945.384 250.24ZM955.981 250.24C954.541 250.24 953.361 249.773 952.441 248.84C951.521 247.893 951.061 246.667 951.061 245.16C951.061 243.747 951.514 242.553 952.421 241.58C953.328 240.593 954.461 240.1 955.821 240.1C957.248 240.1 958.374 240.593 959.201 241.58C960.041 242.553 960.461 243.787 960.461 245.28V245.66H952.641C952.708 246.607 953.054 247.4 953.681 248.04C954.308 248.68 955.121 249 956.121 249C957.321 249 958.314 248.593 959.101 247.78L959.821 248.76C958.834 249.747 957.554 250.24 955.981 250.24ZM958.981 244.56C958.968 243.733 958.688 242.993 958.141 242.34C957.594 241.673 956.814 241.34 955.801 241.34C954.841 241.34 954.081 241.667 953.521 242.32C952.974 242.973 952.681 243.72 952.641 244.56H958.981ZM964.391 250H962.891V240.34H964.391V241.9C965.284 240.727 966.357 240.14 967.611 240.14V241.68C967.424 241.64 967.224 241.62 967.011 241.62C966.557 241.62 966.064 241.78 965.531 242.1C964.997 242.42 964.617 242.773 964.391 243.16V250ZM972.552 250.24C970.912 250.24 969.612 249.733 968.652 248.72L969.432 247.64C969.766 248.027 970.219 248.353 970.792 248.62C971.379 248.887 971.986 249.02 972.612 249.02C973.332 249.02 973.892 248.867 974.292 248.56C974.692 248.253 974.892 247.853 974.892 247.36C974.892 246.933 974.686 246.6 974.272 246.36C973.859 246.107 973.359 245.92 972.772 245.8C972.199 245.667 971.619 245.52 971.032 245.36C970.446 245.187 969.946 244.9 969.532 244.5C969.119 244.087 968.912 243.547 968.912 242.88C968.912 242.093 969.232 241.433 969.872 240.9C970.526 240.367 971.406 240.1 972.512 240.1C973.966 240.1 975.159 240.567 976.092 241.5L975.392 242.54C974.712 241.727 973.752 241.32 972.512 241.32C971.859 241.32 971.339 241.467 970.952 241.76C970.566 242.04 970.372 242.4 970.372 242.84C970.372 243.227 970.579 243.533 970.992 243.76C971.406 243.973 971.899 244.147 972.472 244.28C973.059 244.4 973.646 244.547 974.232 244.72C974.819 244.893 975.319 245.2 975.732 245.64C976.146 246.067 976.352 246.627 976.352 247.32C976.352 248.173 976.019 248.873 975.352 249.42C974.686 249.967 973.752 250.24 972.552 250.24ZM986.385 250.24C985.679 250.24 985.145 250.047 984.785 249.66C984.425 249.273 984.245 248.713 984.245 247.98V241.66H982.645V240.34H984.245V237.7H985.745V240.34H987.705V241.66H985.745V247.66C985.745 248.033 985.825 248.333 985.985 248.56C986.159 248.787 986.405 248.9 986.725 248.9C987.165 248.9 987.505 248.767 987.745 248.5L988.185 249.62C987.745 250.033 987.145 250.24 986.385 250.24ZM997.504 248.78C996.638 249.753 995.484 250.24 994.044 250.24C992.604 250.24 991.444 249.753 990.564 248.78C989.698 247.807 989.264 246.6 989.264 245.16C989.264 243.72 989.698 242.52 990.564 241.56C991.444 240.587 992.604 240.1 994.044 240.1C995.484 240.1 996.638 240.587 997.504 241.56C998.384 242.52 998.824 243.72 998.824 245.16C998.824 246.6 998.384 247.807 997.504 248.78ZM991.684 247.82C992.271 248.54 993.058 248.9 994.044 248.9C995.031 248.9 995.811 248.54 996.384 247.82C996.958 247.087 997.244 246.2 997.244 245.16C997.244 244.12 996.958 243.24 996.384 242.52C995.811 241.8 995.031 241.44 994.044 241.44C993.058 241.44 992.271 241.807 991.684 242.54C991.111 243.26 990.824 244.133 990.824 245.16C990.824 246.2 991.111 247.087 991.684 247.82ZM1009.29 250H1007.79V248.64C1007.39 249.093 1006.88 249.473 1006.27 249.78C1005.67 250.087 1005.03 250.24 1004.35 250.24C1002.3 250.24 1001.27 249.213 1001.27 247.16V240.34H1002.77V246.7C1002.77 247.5 1002.95 248.067 1003.31 248.4C1003.68 248.733 1004.22 248.9 1004.93 248.9C1005.49 248.9 1006.03 248.76 1006.55 248.48C1007.08 248.2 1007.5 247.853 1007.79 247.44V240.34H1009.29V250ZM1016.55 250.24C1015.12 250.24 1013.96 249.76 1013.07 248.8C1012.17 247.827 1011.73 246.613 1011.73 245.16C1011.73 243.707 1012.17 242.5 1013.07 241.54C1013.96 240.58 1015.12 240.1 1016.55 240.1C1018.04 240.1 1019.22 240.66 1020.09 241.78L1019.09 242.7C1018.47 241.86 1017.65 241.44 1016.63 241.44C1015.61 241.44 1014.8 241.787 1014.19 242.48C1013.59 243.173 1013.29 244.067 1013.29 245.16C1013.29 246.253 1013.59 247.153 1014.19 247.86C1014.8 248.553 1015.61 248.9 1016.63 248.9C1017.64 248.9 1018.46 248.48 1019.09 247.64L1020.09 248.56C1019.22 249.68 1018.04 250.24 1016.55 250.24ZM1030.23 250H1028.73V243.64C1028.73 242.84 1028.54 242.273 1028.17 241.94C1027.79 241.607 1027.25 241.44 1026.55 241.44C1026 241.44 1025.46 241.587 1024.93 241.88C1024.41 242.173 1023.99 242.527 1023.69 242.94V250H1022.19V236.66H1023.69V241.74C1024.06 241.3 1024.56 240.92 1025.19 240.6C1025.81 240.267 1026.47 240.1 1027.15 240.1C1029.2 240.1 1030.23 241.127 1030.23 243.18V250ZM1037.58 250.24C1036.14 250.24 1034.96 249.773 1034.04 248.84C1033.12 247.893 1032.66 246.667 1032.66 245.16C1032.66 243.747 1033.12 242.553 1034.02 241.58C1034.93 240.593 1036.06 240.1 1037.42 240.1C1038.85 240.1 1039.98 240.593 1040.8 241.58C1041.64 242.553 1042.06 243.787 1042.06 245.28V245.66H1034.24C1034.31 246.607 1034.66 247.4 1035.28 248.04C1035.91 248.68 1036.72 249 1037.72 249C1038.92 249 1039.92 248.593 1040.7 247.78L1041.42 248.76C1040.44 249.747 1039.16 250.24 1037.58 250.24ZM1040.58 244.56C1040.57 243.733 1040.29 242.993 1039.74 242.34C1039.2 241.673 1038.42 241.34 1037.4 241.34C1036.44 241.34 1035.68 241.667 1035.12 242.32C1034.58 242.973 1034.28 243.72 1034.24 244.56H1040.58ZM1052.99 250H1051.49V248.56C1050.67 249.68 1049.58 250.24 1048.23 250.24C1046.95 250.24 1045.91 249.787 1045.11 248.88C1044.33 247.96 1043.93 246.727 1043.93 245.18C1043.93 243.647 1044.33 242.42 1045.11 241.5C1045.91 240.567 1046.95 240.1 1048.23 240.1C1049.57 240.1 1050.65 240.667 1051.49 241.8V236.66H1052.99V250ZM1048.59 248.9C1049.18 248.9 1049.74 248.753 1050.27 248.46C1050.81 248.167 1051.21 247.807 1051.49 247.38V243C1051.21 242.56 1050.8 242.193 1050.25 241.9C1049.72 241.593 1049.17 241.44 1048.59 241.44C1047.65 241.44 1046.89 241.793 1046.33 242.5C1045.77 243.193 1045.49 244.087 1045.49 245.18C1045.49 246.273 1045.77 247.167 1046.33 247.86C1046.89 248.553 1047.65 248.9 1048.59 248.9ZM1062.65 247.38C1062.92 247.807 1063.32 248.167 1063.85 248.46C1064.4 248.753 1064.96 248.9 1065.53 248.9C1066.49 248.9 1067.25 248.553 1067.81 247.86C1068.37 247.167 1068.65 246.273 1068.65 245.18C1068.65 244.087 1068.37 243.193 1067.81 242.5C1067.25 241.793 1066.49 241.44 1065.53 241.44C1064.96 241.44 1064.4 241.593 1063.85 241.9C1063.32 242.193 1062.92 242.56 1062.65 243V247.38ZM1062.65 250H1061.15V236.66H1062.65V241.8C1063.49 240.667 1064.58 240.1 1065.91 240.1C1067.18 240.1 1068.21 240.567 1069.01 241.5C1069.81 242.42 1070.21 243.647 1070.21 245.18C1070.21 246.727 1069.81 247.96 1069.01 248.88C1068.23 249.787 1067.19 250.24 1065.91 250.24C1064.57 250.24 1063.48 249.68 1062.65 248.56V250ZM1072.12 253.78L1072.36 252.42C1072.6 252.527 1072.87 252.58 1073.18 252.58C1073.52 252.58 1073.81 252.507 1074.04 252.36C1074.26 252.213 1074.46 251.947 1074.62 251.56L1075.26 250.1L1071.22 240.34H1072.84L1076.06 248.26L1079.26 240.34H1080.9L1076.06 251.96C1075.52 253.24 1074.58 253.893 1073.22 253.92C1072.82 253.92 1072.45 253.873 1072.12 253.78ZM1095.3 248.78C1094.43 249.753 1093.28 250.24 1091.84 250.24C1090.4 250.24 1089.24 249.753 1088.36 248.78C1087.49 247.807 1087.06 246.6 1087.06 245.16C1087.06 243.72 1087.49 242.52 1088.36 241.56C1089.24 240.587 1090.4 240.1 1091.84 240.1C1093.28 240.1 1094.43 240.587 1095.3 241.56C1096.18 242.52 1096.62 243.72 1096.62 245.16C1096.62 246.6 1096.18 247.807 1095.3 248.78ZM1089.48 247.82C1090.06 248.54 1090.85 248.9 1091.84 248.9C1092.82 248.9 1093.6 248.54 1094.18 247.82C1094.75 247.087 1095.04 246.2 1095.04 245.16C1095.04 244.12 1094.75 243.24 1094.18 242.52C1093.6 241.8 1092.82 241.44 1091.84 241.44C1090.85 241.44 1090.06 241.807 1089.48 242.54C1088.9 243.26 1088.62 244.133 1088.62 245.16C1088.62 246.2 1088.9 247.087 1089.48 247.82ZM1107.08 250H1105.58V248.64C1105.18 249.093 1104.68 249.473 1104.06 249.78C1103.46 250.087 1102.82 250.24 1102.14 250.24C1100.09 250.24 1099.06 249.213 1099.06 247.16V240.34H1100.56V246.7C1100.56 247.5 1100.74 248.067 1101.1 248.4C1101.48 248.733 1102.02 248.9 1102.72 248.9C1103.28 248.9 1103.82 248.76 1104.34 248.48C1104.88 248.2 1105.29 247.853 1105.58 247.44V240.34H1107.08V250ZM1111.58 250H1110.08V240.34H1111.58V241.9C1112.47 240.727 1113.54 240.14 1114.8 240.14V241.68C1114.61 241.64 1114.41 241.62 1114.2 241.62C1113.74 241.62 1113.25 241.78 1112.72 242.1C1112.18 242.42 1111.8 242.773 1111.58 243.16V250ZM965.49 280.24C964.064 280.24 962.904 279.76 962.01 278.8C961.117 277.827 960.67 276.613 960.67 275.16C960.67 273.707 961.117 272.5 962.01 271.54C962.904 270.58 964.064 270.1 965.49 270.1C966.984 270.1 968.164 270.66 969.03 271.78L968.03 272.7C967.417 271.86 966.597 271.44 965.57 271.44C964.557 271.44 963.744 271.787 963.13 272.48C962.53 273.173 962.23 274.067 962.23 275.16C962.23 276.253 962.53 277.153 963.13 277.86C963.744 278.553 964.557 278.9 965.57 278.9C966.584 278.9 967.404 278.48 968.03 277.64L969.03 278.56C968.164 279.68 966.984 280.24 965.49 280.24ZM972.633 280H971.133V266.66H972.633V280ZM976.365 268.96C976.098 268.96 975.865 268.867 975.665 268.68C975.465 268.48 975.365 268.24 975.365 267.96C975.365 267.68 975.465 267.44 975.665 267.24C975.865 267.04 976.098 266.94 976.365 266.94C976.645 266.94 976.885 267.04 977.085 267.24C977.285 267.44 977.385 267.68 977.385 267.96C977.385 268.24 977.285 268.48 977.085 268.68C976.885 268.867 976.645 268.96 976.365 268.96ZM977.125 280H975.625V270.34H977.125V280ZM984.477 280.24C983.037 280.24 981.857 279.773 980.937 278.84C980.017 277.893 979.557 276.667 979.557 275.16C979.557 273.747 980.011 272.553 980.917 271.58C981.824 270.593 982.957 270.1 984.317 270.1C985.744 270.1 986.871 270.593 987.697 271.58C988.537 272.553 988.957 273.787 988.957 275.28V275.66H981.137C981.204 276.607 981.551 277.4 982.177 278.04C982.804 278.68 983.617 279 984.617 279C985.817 279 986.811 278.593 987.597 277.78L988.317 278.76C987.331 279.747 986.051 280.24 984.477 280.24ZM987.477 274.56C987.464 273.733 987.184 272.993 986.637 272.34C986.091 271.673 985.311 271.34 984.297 271.34C983.337 271.34 982.577 271.667 982.017 272.32C981.471 272.973 981.177 273.72 981.137 274.56H987.477ZM999.407 280H997.907V273.68C997.907 272.867 997.72 272.293 997.347 271.96C996.973 271.613 996.44 271.44 995.747 271.44C995.187 271.44 994.64 271.587 994.107 271.88C993.587 272.173 993.18 272.527 992.887 272.94V280H991.387V270.34H992.887V271.74C993.26 271.3 993.76 270.92 994.387 270.6C995.013 270.267 995.66 270.1 996.327 270.1C998.38 270.1 999.407 271.14 999.407 273.22V280ZM1004.84 280.24C1004.14 280.24 1003.6 280.047 1003.24 279.66C1002.88 279.273 1002.7 278.713 1002.7 277.98V271.66H1001.1V270.34H1002.7V267.7H1004.2V270.34H1006.16V271.66H1004.2V277.66C1004.2 278.033 1004.28 278.333 1004.44 278.56C1004.62 278.787 1004.86 278.9 1005.18 278.9C1005.62 278.9 1005.96 278.767 1006.2 278.5L1006.64 279.62C1006.2 280.033 1005.6 280.24 1004.84 280.24ZM1018.2 280.24C1016.84 280.24 1015.75 279.673 1014.94 278.54V283.68H1013.44V270.34H1014.94V271.78C1015.3 271.273 1015.76 270.867 1016.34 270.56C1016.91 270.253 1017.53 270.1 1018.2 270.1C1019.48 270.1 1020.51 270.56 1021.3 271.48C1022.1 272.387 1022.5 273.613 1022.5 275.16C1022.5 276.707 1022.1 277.94 1021.3 278.86C1020.51 279.78 1019.48 280.24 1018.2 280.24ZM1017.82 278.9C1018.76 278.9 1019.52 278.553 1020.08 277.86C1020.64 277.153 1020.92 276.253 1020.92 275.16C1020.92 274.067 1020.64 273.173 1020.08 272.48C1019.52 271.787 1018.76 271.44 1017.82 271.44C1017.24 271.44 1016.68 271.593 1016.14 271.9C1015.6 272.193 1015.2 272.553 1014.94 272.98V277.34C1015.2 277.78 1015.6 278.153 1016.14 278.46C1016.68 278.753 1017.24 278.9 1017.82 278.9ZM1026.38 280H1024.88V270.34H1026.38V271.9C1027.28 270.727 1028.35 270.14 1029.6 270.14V271.68C1029.42 271.64 1029.22 271.62 1029 271.62C1028.55 271.62 1028.06 271.78 1027.52 272.1C1026.99 272.42 1026.61 272.773 1026.38 273.16V280ZM1039.16 278.78C1038.3 279.753 1037.14 280.24 1035.7 280.24C1034.26 280.24 1033.1 279.753 1032.22 278.78C1031.36 277.807 1030.92 276.6 1030.92 275.16C1030.92 273.72 1031.36 272.52 1032.22 271.56C1033.1 270.587 1034.26 270.1 1035.7 270.1C1037.14 270.1 1038.3 270.587 1039.16 271.56C1040.04 272.52 1040.48 273.72 1040.48 275.16C1040.48 276.6 1040.04 277.807 1039.16 278.78ZM1033.34 277.82C1033.93 278.54 1034.72 278.9 1035.7 278.9C1036.69 278.9 1037.47 278.54 1038.04 277.82C1038.62 277.087 1038.9 276.2 1038.9 275.16C1038.9 274.12 1038.62 273.24 1038.04 272.52C1037.47 271.8 1036.69 271.44 1035.7 271.44C1034.72 271.44 1033.93 271.807 1033.34 272.54C1032.77 273.26 1032.48 274.133 1032.48 275.16C1032.48 276.2 1032.77 277.087 1033.34 277.82ZM1043.67 268.96C1043.4 268.96 1043.17 268.867 1042.97 268.68C1042.77 268.48 1042.67 268.24 1042.67 267.96C1042.67 267.68 1042.77 267.44 1042.97 267.24C1043.17 267.04 1043.4 266.94 1043.67 266.94C1043.95 266.94 1044.19 267.04 1044.39 267.24C1044.59 267.44 1044.69 267.68 1044.69 267.96C1044.69 268.24 1044.59 268.48 1044.39 268.68C1044.19 268.867 1043.95 268.96 1043.67 268.96ZM1041.57 283.92C1040.78 283.92 1040.08 283.68 1039.45 283.2L1039.99 282.06C1040.4 282.473 1040.86 282.68 1041.37 282.68C1041.85 282.68 1042.23 282.533 1042.51 282.24C1042.79 281.96 1042.93 281.527 1042.93 280.94V270.34H1044.43V280.94C1044.43 281.887 1044.18 282.62 1043.69 283.14C1043.2 283.66 1042.49 283.92 1041.57 283.92ZM1051.78 280.24C1050.34 280.24 1049.16 279.773 1048.24 278.84C1047.32 277.893 1046.86 276.667 1046.86 275.16C1046.86 273.747 1047.32 272.553 1048.22 271.58C1049.13 270.593 1050.26 270.1 1051.62 270.1C1053.05 270.1 1054.18 270.593 1055 271.58C1055.84 272.553 1056.26 273.787 1056.26 275.28V275.66H1048.44C1048.51 276.607 1048.86 277.4 1049.48 278.04C1050.11 278.68 1050.92 279 1051.92 279C1053.12 279 1054.12 278.593 1054.9 277.78L1055.62 278.76C1054.64 279.747 1053.36 280.24 1051.78 280.24ZM1054.78 274.56C1054.77 273.733 1054.49 272.993 1053.94 272.34C1053.4 271.673 1052.62 271.34 1051.6 271.34C1050.64 271.34 1049.88 271.667 1049.32 272.32C1048.78 272.973 1048.48 273.72 1048.44 274.56H1054.78ZM1062.95 280.24C1061.52 280.24 1060.36 279.76 1059.47 278.8C1058.58 277.827 1058.13 276.613 1058.13 275.16C1058.13 273.707 1058.58 272.5 1059.47 271.54C1060.36 270.58 1061.52 270.1 1062.95 270.1C1064.44 270.1 1065.62 270.66 1066.49 271.78L1065.49 272.7C1064.88 271.86 1064.06 271.44 1063.03 271.44C1062.02 271.44 1061.2 271.787 1060.59 272.48C1059.99 273.173 1059.69 274.067 1059.69 275.16C1059.69 276.253 1059.99 277.153 1060.59 277.86C1061.2 278.553 1062.02 278.9 1063.03 278.9C1064.04 278.9 1064.86 278.48 1065.49 277.64L1066.49 278.56C1065.62 279.68 1064.44 280.24 1062.95 280.24ZM1071.03 280.24C1070.33 280.24 1069.79 280.047 1069.43 279.66C1069.07 279.273 1068.89 278.713 1068.89 277.98V271.66H1067.29V270.34H1068.89V267.7H1070.39V270.34H1072.35V271.66H1070.39V277.66C1070.39 278.033 1070.47 278.333 1070.63 278.56C1070.81 278.787 1071.05 278.9 1071.37 278.9C1071.81 278.9 1072.15 278.767 1072.39 278.5L1072.83 279.62C1072.39 280.033 1071.79 280.24 1071.03 280.24ZM1077.53 280.24C1075.89 280.24 1074.59 279.733 1073.63 278.72L1074.41 277.64C1074.75 278.027 1075.2 278.353 1075.77 278.62C1076.36 278.887 1076.97 279.02 1077.59 279.02C1078.31 279.02 1078.87 278.867 1079.27 278.56C1079.67 278.253 1079.87 277.853 1079.87 277.36C1079.87 276.933 1079.67 276.6 1079.25 276.36C1078.84 276.107 1078.34 275.92 1077.75 275.8C1077.18 275.667 1076.6 275.52 1076.01 275.36C1075.43 275.187 1074.93 274.9 1074.51 274.5C1074.1 274.087 1073.89 273.547 1073.89 272.88C1073.89 272.093 1074.21 271.433 1074.85 270.9C1075.51 270.367 1076.39 270.1 1077.49 270.1C1078.95 270.1 1080.14 270.567 1081.07 271.5L1080.37 272.54C1079.69 271.727 1078.73 271.32 1077.49 271.32C1076.84 271.32 1076.32 271.467 1075.93 271.76C1075.55 272.04 1075.35 272.4 1075.35 272.84C1075.35 273.227 1075.56 273.533 1075.97 273.76C1076.39 273.973 1076.88 274.147 1077.45 274.28C1078.04 274.4 1078.63 274.547 1079.21 274.72C1079.8 274.893 1080.3 275.2 1080.71 275.64C1081.13 276.067 1081.33 276.627 1081.33 277.32C1081.33 278.173 1081 278.873 1080.33 279.42C1079.67 279.967 1078.73 280.24 1077.53 280.24Z" fill="white"/>
<path d="M425 216C425 242.264 419.827 268.272 409.776 292.537C399.725 316.802 384.993 338.85 366.421 357.421C347.85 375.993 325.802 390.725 301.537 400.776C277.272 410.827 251.264 416 225 416C198.736 416 172.728 410.827 148.463 400.776C124.198 390.725 102.15 375.993 83.5786 357.421C65.0069 338.85 50.275 316.802 40.2241 292.537C30.1731 268.272 25 242.264 25 216L27 216C27 242.002 32.1214 267.749 42.0718 291.771C52.0223 315.794 66.6068 337.621 84.9928 356.007C103.379 374.393 125.206 388.978 149.229 398.928C173.251 408.879 198.998 414 225 414C251.002 414 276.749 408.879 300.771 398.928C324.794 388.978 346.621 374.393 365.007 356.007C383.393 337.621 397.978 315.794 407.928 291.771C417.879 267.749 423 242.002 423 216H425Z" fill="white"/>
<path opacity="0.2" d="M53.341 113.369C77.5855 72.8179 115.403 42.1593 160.091 26.8259C204.779 11.4926 253.453 12.4746 297.487 29.598C341.52 46.7214 378.07 78.8805 400.659 120.376C423.248 161.872 430.418 210.025 420.897 256.301C411.377 302.578 385.782 343.99 348.647 373.199C311.512 402.408 265.236 417.527 218.019 415.878C170.802 414.229 125.693 395.918 90.6867 364.189C55.6803 332.46 33.0365 289.363 26.7681 242.535L28.7504 242.27C34.9561 288.63 57.3735 331.296 92.0298 362.707C126.686 394.118 171.344 412.247 218.089 413.879C264.833 415.512 310.647 400.544 347.41 371.627C384.174 342.71 409.513 301.712 418.938 255.898C428.364 210.084 421.266 162.413 398.902 121.332C376.539 80.2517 340.355 48.4142 296.762 31.462C253.169 14.5099 204.982 13.5377 160.74 28.7177C116.499 43.8977 79.0596 74.2497 55.0576 114.395L53.341 113.369Z" fill="white"/>
<path d="M53.341 113.369C70.988 83.8526 95.9477 59.3855 125.81 42.3301C155.671 25.2747 189.426 16.2073 223.815 16.0035L223.827 18.0035C189.782 18.2052 156.365 27.1819 126.801 44.0668C97.2382 60.9516 72.5282 85.1741 55.0576 114.395L53.341 113.369Z" fill="white"/>
<path opacity="0.2" d="M1221 216C1221 171.906 1206.43 129.048 1179.55 94.0922C1152.67 59.1364 1115 34.0425 1072.38 22.7137C1029.77 11.3849 984.608 14.4562 943.92 31.45C903.232 48.4438 869.301 78.4074 847.404 116.68C825.507 154.953 816.872 199.389 822.841 243.077C828.811 286.765 849.051 327.256 880.413 358.251C911.775 389.246 952.501 409.008 996.256 414.463C1040.01 419.919 1084.34 410.761 1122.36 388.415L1121.34 386.691C1083.71 408.814 1039.82 417.88 996.504 412.479C953.186 407.078 912.867 387.514 881.819 356.828C850.77 326.143 830.733 286.057 824.823 242.806C818.913 199.555 827.462 155.563 849.14 117.673C870.818 79.7833 904.41 50.1194 944.691 33.2955C984.972 16.4717 1029.68 13.431 1071.87 24.6466C1114.06 35.8621 1151.36 60.7051 1177.97 95.3113C1204.57 129.918 1219 172.347 1219 216H1221Z" fill="white"/>
<path opacity="0.2" d="M612.225 16.2905C659.652 13.7316 706.442 28.1348 744.22 56.9222C781.998 85.7096 808.298 127.002 818.412 173.409C828.527 219.815 821.796 268.307 799.424 310.204C777.053 352.102 740.5 384.67 696.31 402.08C652.12 419.489 603.176 420.604 558.239 405.225C513.302 389.845 475.304 358.975 451.048 318.14C426.792 277.305 417.86 229.17 425.851 182.351C433.842 135.532 458.235 93.0845 494.662 62.6068L495.946 64.1407C459.882 94.3136 435.734 136.336 427.823 182.687C419.911 229.038 428.754 276.692 452.768 317.118C476.781 357.545 514.398 388.107 558.886 403.332C603.374 418.558 651.829 417.454 695.577 400.219C739.325 382.983 775.512 350.741 797.66 309.262C819.808 267.784 826.472 219.777 816.458 173.835C806.445 127.892 780.408 87.0125 743.008 58.513C705.608 30.0135 659.286 15.7543 612.333 18.2876L612.225 16.2905Z" fill="white"/>
<path d="M423 216C423 185.529 429.962 155.462 443.355 128.092C456.748 100.723 476.218 76.7757 500.277 58.0786L501.505 59.6578C477.685 78.168 458.411 101.876 445.152 128.972C431.893 156.067 425 185.834 425 216L423 216Z" fill="white"/>
<path d="M611.372 16.3383C638.556 14.7552 665.777 18.7397 691.367 28.0478C716.956 37.3559 740.376 51.7914 760.189 70.4697C780.003 89.1481 795.794 111.676 806.595 136.672C817.395 161.668 822.978 188.607 823 215.837L821 215.839C820.978 188.881 815.451 162.212 804.759 137.465C794.066 112.719 778.433 90.4166 758.818 71.925C739.202 53.4335 716.017 39.1423 690.683 29.9273C665.349 20.7123 638.4 16.7676 611.488 18.3349L611.372 16.3383Z" fill="white"/>
<path d="M1162.42 357.421C1134.39 385.449 1098.67 404.517 1059.78 412.203C1020.9 419.89 980.607 415.849 944.023 400.593C907.439 385.337 876.214 359.555 854.31 326.519C832.407 293.483 820.813 254.684 821.002 215.047L823.002 215.057C822.815 254.297 834.293 292.709 855.977 325.414C877.661 358.119 908.575 383.644 944.793 398.747C981.011 413.85 1020.9 417.851 1059.4 410.241C1097.89 402.632 1133.26 383.755 1161.01 356.007L1162.42 357.421Z" fill="white"/>
<path d="M925.657 40.1885C960.5 21.2927 1000.17 13.1765 1039.64 16.8703C1079.1 20.5641 1116.58 35.9012 1147.31 60.9346C1178.04 85.968 1200.64 119.569 1212.24 157.471C1223.84 195.373 1223.92 235.867 1212.46 273.812L1210.55 273.234C1221.89 235.668 1221.82 195.579 1210.33 158.056C1198.85 120.533 1176.47 87.2683 1146.05 62.4853C1115.62 37.7022 1078.52 22.5184 1039.45 18.8616C1000.38 15.2048 961.105 23.2398 926.61 41.9466L925.657 40.1885Z" fill="white"/>
<g clip-path="url(#clip0_21_1635)">
<path d="M70 174.75L49 161.11L49 188.39L70 174.75Z" fill="#12E2B0"/>
<path d="M0 158.125L36.75 187.678L36.75 128.572L0 158.125Z" fill="white"/>
</g>
<rect x="550.5" y="1.25" width="36.25" height="36.25" transform="rotate(45 550.5 1.25)" fill="white"/>
<rect x="571.75" y="48.75" width="17.5" height="17.5" fill="#12E2B0"/>
<g clip-path="url(#clip1_21_1635)">
<path d="M1155 315L1176 301.36V328.64L1155 315Z" fill="white"/>
<path d="M1184.75 314.125L1221.5 284.572V343.678L1184.75 314.125Z" fill="#12E2B0"/>
</g>
<defs>
<clipPath id="clip0_21_1635">
<rect width="70" height="70" fill="white" transform="matrix(-1 0 0 1 70 124)"/>
</clipPath>
<clipPath id="clip1_21_1635">
<rect width="70" height="70" fill="white" transform="translate(1155 280)"/>
</clipPath>
</defs>
</svg>
