<svg width="193" height="570" viewBox="0 0 193 570" fill="none" xmlns="http://www.w3.org/2000/svg">
<path d="M94 196C81.6557 196 69.4324 193.569 58.0277 188.845C46.6231 184.121 36.2607 177.197 27.532 168.468C18.8032 159.739 11.8793 149.377 7.15532 137.972C2.43138 126.568 -5.18804e-06 114.344 -4.10887e-06 102C-3.0297e-06 89.6557 2.43138 77.4323 7.15532 66.0277C11.8793 54.6231 18.8033 44.2607 27.532 35.532C36.2607 26.8032 46.6232 19.8793 58.0278 15.1553C69.4324 10.4314 81.6558 7.99999 94 8L94 8.94C81.7792 8.94 69.678 11.3471 58.3875 16.0238C47.0969 20.7005 36.8381 27.5552 28.1966 36.1966C19.5552 44.8381 12.7005 55.0969 8.02377 66.3875C3.34707 77.678 0.939999 89.7792 0.939998 102C0.939997 114.221 3.34706 126.322 8.02377 137.613C12.7005 148.903 19.5552 159.162 28.1966 167.803C36.8381 176.445 47.0969 183.3 58.3875 187.976C69.678 192.653 81.7792 195.06 94 195.06L94 196Z" fill="white"/>
<path opacity="0.2" d="M142.237 21.3203C161.296 32.7152 175.705 50.4893 182.912 71.4928C190.118 92.4963 189.657 115.373 181.609 136.069C173.561 156.764 158.446 173.943 138.943 184.56C119.44 195.177 96.8084 198.546 75.0584 194.072C53.3084 189.597 33.8447 177.567 20.1165 160.114C6.38835 142.661 -0.717835 120.911 0.0572812 98.7188C0.832398 76.5268 9.43877 55.3258 24.3512 38.8727C39.2637 22.4197 59.5193 11.7771 81.5285 8.831L81.6532 9.76269C59.8641 12.6794 39.8111 23.2155 25.0477 39.504C10.2844 55.7925 1.76408 76.7816 0.996711 98.7516C0.229345 120.722 7.26447 142.254 20.8554 159.533C34.4463 176.812 53.7153 188.721 75.2478 193.151C96.7803 197.581 119.186 194.245 138.494 183.734C157.802 173.223 172.765 156.217 180.733 135.728C188.7 115.239 189.157 92.5913 182.023 71.7979C174.888 51.0044 160.623 33.408 141.754 22.1271L142.237 21.3203Z" fill="white"/>
<path d="M142.237 21.3203C156.109 29.6144 167.609 41.3454 175.625 55.3805C183.641 69.4155 187.903 85.2804 187.998 101.443L187.058 101.449C186.964 85.4476 182.744 69.7414 174.809 55.8467C166.873 41.952 155.488 30.3382 141.754 22.1271L142.237 21.3203Z" fill="white"/>
<path opacity="0.2" d="M187.863 283.936C189.066 306.227 182.297 328.218 168.767 345.973C155.236 363.729 135.829 376.09 114.018 380.844C92.2068 385.598 69.4157 382.434 49.7239 371.919C30.0322 361.405 14.7251 344.225 6.54257 323.456C-1.64001 302.686 -2.16399 279.683 5.0644 258.562C12.2928 237.442 26.8017 219.583 45.9943 208.183C65.1869 196.782 87.8102 192.584 109.815 196.34C131.82 200.096 151.77 211.56 166.095 228.681L165.374 229.285C151.193 212.335 131.442 200.985 109.657 197.267C87.8721 193.548 65.475 197.704 46.4743 208.991C27.4737 220.277 13.1099 237.957 5.95376 258.867C-1.20235 279.776 -0.683603 302.549 7.41715 323.111C15.5179 343.673 30.6719 360.681 50.1667 371.09C69.6616 381.5 92.2247 384.632 113.818 379.925C135.411 375.219 154.624 362.982 168.019 345.404C181.414 327.826 188.115 306.054 186.925 283.986L187.863 283.936Z" fill="white"/>
<path d="M94 195C108.321 195 122.453 198.272 135.317 204.567C148.18 210.862 159.435 220.012 168.223 231.32L167.481 231.897C158.781 220.702 147.638 211.643 134.903 205.411C122.168 199.18 108.178 195.94 94 195.94L94 195Z" fill="white"/>
<path d="M187.841 283.535C188.585 296.311 186.712 309.105 182.338 321.132C177.963 333.159 171.178 344.167 162.399 353.479C153.62 362.792 143.032 370.213 131.284 375.29C119.536 380.366 106.875 382.99 94.0766 383L94.0758 382.06C106.746 382.05 119.28 379.452 130.911 374.427C142.542 369.401 153.024 362.054 161.715 352.834C170.406 343.615 177.123 332.718 181.454 320.811C185.785 308.904 187.639 296.238 186.903 283.59L187.841 283.535Z" fill="white"/>
<path opacity="0.2" d="M94 570C114.724 570 134.867 563.151 151.297 550.519C167.726 537.887 179.52 520.179 184.845 500.151C190.169 480.122 188.726 458.896 180.738 439.772C172.751 420.649 158.669 404.702 140.68 394.41C122.692 384.118 101.807 380.06 81.2738 382.865C60.7404 385.671 41.7098 395.184 27.1421 409.924C12.5743 424.664 3.28613 443.805 0.722165 464.37C-1.8418 484.935 2.46222 505.771 12.9648 523.637L13.7751 523.161C3.3776 505.474 -0.88338 484.846 1.65495 464.487C4.19327 444.127 13.3886 425.178 27.8107 410.585C42.2327 395.992 61.073 386.574 81.4011 383.797C101.729 381.019 122.405 385.037 140.214 395.226C158.022 405.415 171.964 421.203 179.871 440.135C187.778 459.067 189.207 480.081 183.936 499.909C178.665 519.738 166.989 537.268 150.724 549.774C134.459 562.28 114.517 569.06 94 569.06L94 570Z" fill="white"/>
<path d="M27.532 542.468C14.3588 529.295 5.39709 512.505 1.7844 494.229C-1.82828 475.953 0.0710418 457.015 7.24125 439.821C14.4115 422.627 26.5292 407.95 42.056 397.656C57.5828 387.361 75.8184 381.912 94.4478 382.001L94.4433 382.941C76.0003 382.853 57.947 388.248 42.5754 398.439C27.2039 408.631 15.2074 423.16 8.10884 440.183C1.01033 457.205 -0.869998 475.953 2.70656 494.046C6.28312 512.14 15.1553 528.762 28.1966 541.803L27.532 542.468Z" fill="white"/>
<path d="M176.631 431.189C185.512 447.565 189.327 466.211 187.591 484.76C185.855 503.308 178.646 520.923 166.881 535.367C155.115 549.811 139.323 560.433 121.509 565.885C103.695 571.337 84.6625 571.372 66.8282 565.987L67.1 565.087C84.7559 570.419 103.598 570.383 121.234 564.986C138.87 559.589 154.504 549.073 166.152 534.773C177.8 520.473 184.936 503.035 186.655 484.672C188.374 466.309 184.597 447.85 175.805 431.637L176.631 431.189Z" fill="white"/>
<path d="M93.964 86.288C91.164 86.288 88.932 85.536 87.268 84.032L89.86 80.624C90.98 81.552 92.332 82.016 93.916 82.016C94.668 82.016 95.228 81.888 95.596 81.632C95.98 81.376 96.172 81.064 96.172 80.696C96.172 80.312 95.996 80 95.644 79.76C95.292 79.504 94.764 79.376 94.06 79.376C92.86 79.376 91.868 79.744 91.084 80.48L87.748 79.712V69.992H99.988V74.216H92.596V76.472C93.444 75.656 94.556 75.248 95.932 75.248C97.356 75.248 98.572 75.736 99.58 76.712C100.588 77.672 101.092 78.928 101.092 80.48C101.092 82.256 100.46 83.672 99.196 84.728C97.932 85.768 96.188 86.288 93.964 86.288Z" fill="white"/>
<path d="M44.7833 115H43.4533L42.6273 112.928H37.9793L37.1533 115H35.8233L39.5753 105.662H41.0173L44.7833 115ZM42.2773 111.892L40.3033 106.866L38.3153 111.892H42.2773ZM48.6427 115H47.4947L44.6807 108.238H45.8147L48.0687 113.782L50.3087 108.238H51.4567L48.6427 115ZM55.604 115.168C54.596 115.168 53.77 114.841 53.126 114.188C52.482 113.525 52.16 112.667 52.16 111.612C52.16 110.623 52.4773 109.787 53.112 109.106C53.7466 108.415 54.54 108.07 55.492 108.07C56.4906 108.07 57.2793 108.415 57.858 109.106C58.446 109.787 58.74 110.651 58.74 111.696V111.962H53.266C53.3126 112.625 53.5553 113.18 53.994 113.628C54.4326 114.076 55.002 114.3 55.702 114.3C56.542 114.3 57.2373 114.015 57.788 113.446L58.292 114.132C57.6013 114.823 56.7053 115.168 55.604 115.168ZM57.704 111.192C57.6946 110.613 57.4986 110.095 57.116 109.638C56.7333 109.171 56.1873 108.938 55.478 108.938C54.806 108.938 54.274 109.167 53.882 109.624C53.4993 110.081 53.294 110.604 53.266 111.192H57.704ZM61.4906 115H60.4406V108.238H61.4906V109.33C62.116 108.509 62.8673 108.098 63.7446 108.098V109.176C63.614 109.148 63.474 109.134 63.3246 109.134C63.0073 109.134 62.662 109.246 62.2886 109.47C61.9153 109.694 61.6493 109.941 61.4906 110.212V115ZM70.3397 115H69.2897V114.23C68.7204 114.855 67.9737 115.168 67.0497 115.168C66.4244 115.168 65.8737 114.967 65.3977 114.566C64.9217 114.165 64.6837 113.619 64.6837 112.928C64.6837 112.219 64.9171 111.673 65.3837 111.29C65.8597 110.898 66.4151 110.702 67.0497 110.702C68.0111 110.702 68.7577 111.01 69.2897 111.626V110.408C69.2897 109.96 69.1311 109.61 68.8137 109.358C68.4964 109.106 68.0857 108.98 67.5817 108.98C66.7884 108.98 66.0977 109.293 65.5097 109.918L65.0197 109.19C65.7384 108.443 66.6391 108.07 67.7217 108.07C68.4964 108.07 69.1264 108.257 69.6117 108.63C70.0971 109.003 70.3397 109.577 70.3397 110.352V115ZM67.4277 114.412C68.2677 114.412 68.8884 114.132 69.2897 113.572V112.298C68.8884 111.738 68.2677 111.458 67.4277 111.458C66.9424 111.458 66.5411 111.598 66.2237 111.878C65.9157 112.149 65.7617 112.503 65.7617 112.942C65.7617 113.371 65.9157 113.726 66.2237 114.006C66.5411 114.277 66.9424 114.412 67.4277 114.412ZM75.1605 117.744C74.5632 117.744 74.0545 117.669 73.6345 117.52C73.2145 117.38 72.8132 117.119 72.4305 116.736L72.9625 115.952C73.4759 116.568 74.2085 116.876 75.1605 116.876C75.7859 116.876 76.3039 116.708 76.7145 116.372C77.1252 116.045 77.3305 115.537 77.3305 114.846V113.88C77.0785 114.235 76.7519 114.524 76.3505 114.748C75.9492 114.972 75.5199 115.084 75.0625 115.084C74.1665 115.084 73.4385 114.771 72.8785 114.146C72.3279 113.511 72.0525 112.657 72.0525 111.584C72.0525 110.511 72.3279 109.657 72.8785 109.022C73.4385 108.387 74.1665 108.07 75.0625 108.07C75.9865 108.07 76.7425 108.467 77.3305 109.26V108.238H78.3805V114.804C78.3805 115.84 78.0772 116.587 77.4705 117.044C76.8639 117.511 76.0939 117.744 75.1605 117.744ZM75.3145 114.16C75.7159 114.16 76.1032 114.053 76.4765 113.838C76.8592 113.623 77.1439 113.362 77.3305 113.054V110.1C77.1439 109.792 76.8639 109.535 76.4905 109.33C76.1172 109.115 75.7252 109.008 75.3145 109.008C74.6425 109.008 74.1105 109.246 73.7185 109.722C73.3359 110.198 73.1445 110.819 73.1445 111.584C73.1445 112.34 73.3405 112.961 73.7325 113.446C74.1245 113.922 74.6519 114.16 75.3145 114.16ZM83.5356 115.168C82.5276 115.168 81.7016 114.841 81.0576 114.188C80.4136 113.525 80.0916 112.667 80.0916 111.612C80.0916 110.623 80.4089 109.787 81.0436 109.106C81.6783 108.415 82.4716 108.07 83.4236 108.07C84.4223 108.07 85.2109 108.415 85.7896 109.106C86.3776 109.787 86.6716 110.651 86.6716 111.696V111.962H81.1976C81.2443 112.625 81.4869 113.18 81.9256 113.628C82.3643 114.076 82.9336 114.3 83.6336 114.3C84.4736 114.3 85.1689 114.015 85.7196 113.446L86.2236 114.132C85.5329 114.823 84.6369 115.168 83.5356 115.168ZM85.6356 111.192C85.6263 110.613 85.4303 110.095 85.0476 109.638C84.6649 109.171 84.1189 108.938 83.4096 108.938C82.7376 108.938 82.2056 109.167 81.8136 109.624C81.4309 110.081 81.2256 110.604 81.1976 111.192H85.6356ZM97.9316 115H96.8816V113.992C96.303 114.776 95.5423 115.168 94.5996 115.168C93.7036 115.168 92.9756 114.851 92.4156 114.216C91.865 113.572 91.5896 112.709 91.5896 111.626C91.5896 110.553 91.865 109.694 92.4156 109.05C92.9756 108.397 93.7036 108.07 94.5996 108.07C95.533 108.07 96.2936 108.467 96.8816 109.26V105.662H97.9316V115ZM94.8516 114.23C95.2623 114.23 95.6543 114.127 96.0276 113.922C96.401 113.717 96.6856 113.465 96.8816 113.166V110.1C96.6856 109.792 96.3963 109.535 96.0136 109.33C95.6403 109.115 95.253 109.008 94.8516 109.008C94.189 109.008 93.6616 109.255 93.2696 109.75C92.8776 110.235 92.6816 110.861 92.6816 111.626C92.6816 112.391 92.8776 113.017 93.2696 113.502C93.6616 113.987 94.189 114.23 94.8516 114.23ZM103.086 115.168C102.078 115.168 101.252 114.841 100.608 114.188C99.9644 113.525 99.6424 112.667 99.6424 111.612C99.6424 110.623 99.9597 109.787 100.594 109.106C101.229 108.415 102.022 108.07 102.974 108.07C103.973 108.07 104.762 108.415 105.34 109.106C105.928 109.787 106.222 110.651 106.222 111.696V111.962H100.748C100.795 112.625 101.038 113.18 101.476 113.628C101.915 114.076 102.484 114.3 103.184 114.3C104.024 114.3 104.72 114.015 105.27 113.446L105.774 114.132C105.084 114.823 104.188 115.168 103.086 115.168ZM105.186 111.192C105.177 110.613 104.981 110.095 104.598 109.638C104.216 109.171 103.67 108.938 102.96 108.938C102.288 108.938 101.756 109.167 101.364 109.624C100.982 110.081 100.776 110.604 100.748 111.192H105.186ZM110.877 115H109.729L106.915 108.238H108.049L110.303 113.782L112.543 108.238H113.691L110.877 115ZM117.838 115.168C116.83 115.168 116.004 114.841 115.36 114.188C114.716 113.525 114.394 112.667 114.394 111.612C114.394 110.623 114.712 109.787 115.346 109.106C115.981 108.415 116.774 108.07 117.726 108.07C118.725 108.07 119.514 108.415 120.092 109.106C120.68 109.787 120.974 110.651 120.974 111.696V111.962H115.5C115.547 112.625 115.79 113.18 116.228 113.628C116.667 114.076 117.236 114.3 117.936 114.3C118.776 114.3 119.472 114.015 120.022 113.446L120.526 114.132C119.836 114.823 118.94 115.168 117.838 115.168ZM119.938 111.192C119.929 110.613 119.733 110.095 119.35 109.638C118.968 109.171 118.422 108.938 117.712 108.938C117.04 108.938 116.508 109.167 116.116 109.624C115.734 110.081 115.528 110.604 115.5 111.192H119.938ZM123.725 115H122.675V105.662H123.725V115ZM131.196 114.146C130.589 114.827 129.782 115.168 128.774 115.168C127.766 115.168 126.954 114.827 126.338 114.146C125.731 113.465 125.428 112.62 125.428 111.612C125.428 110.604 125.731 109.764 126.338 109.092C126.954 108.411 127.766 108.07 128.774 108.07C129.782 108.07 130.589 108.411 131.196 109.092C131.812 109.764 132.12 110.604 132.12 111.612C132.12 112.62 131.812 113.465 131.196 114.146ZM127.122 113.474C127.532 113.978 128.083 114.23 128.774 114.23C129.464 114.23 130.01 113.978 130.412 113.474C130.813 112.961 131.014 112.34 131.014 111.612C131.014 110.884 130.813 110.268 130.412 109.764C130.01 109.26 129.464 109.008 128.774 109.008C128.083 109.008 127.532 109.265 127.122 109.778C126.72 110.282 126.52 110.893 126.52 111.612C126.52 112.34 126.72 112.961 127.122 113.474ZM137.163 115.168C136.211 115.168 135.451 114.771 134.881 113.978V117.576H133.831V108.238H134.881V109.246C135.133 108.891 135.46 108.607 135.861 108.392C136.263 108.177 136.697 108.07 137.163 108.07C138.059 108.07 138.783 108.392 139.333 109.036C139.893 109.671 140.173 110.529 140.173 111.612C140.173 112.695 139.893 113.558 139.333 114.202C138.783 114.846 138.059 115.168 137.163 115.168ZM136.897 114.23C137.56 114.23 138.087 113.987 138.479 113.502C138.871 113.007 139.067 112.377 139.067 111.612C139.067 110.847 138.871 110.221 138.479 109.736C138.087 109.251 137.56 109.008 136.897 109.008C136.496 109.008 136.104 109.115 135.721 109.33C135.348 109.535 135.068 109.787 134.881 110.086V113.138C135.068 113.446 135.348 113.707 135.721 113.922C136.104 114.127 136.496 114.23 136.897 114.23ZM144.895 115.168C143.887 115.168 143.061 114.841 142.417 114.188C141.773 113.525 141.451 112.667 141.451 111.612C141.451 110.623 141.768 109.787 142.403 109.106C143.038 108.415 143.831 108.07 144.783 108.07C145.782 108.07 146.57 108.415 147.149 109.106C147.737 109.787 148.031 110.651 148.031 111.696V111.962H142.557C142.604 112.625 142.846 113.18 143.285 113.628C143.724 114.076 144.293 114.3 144.993 114.3C145.833 114.3 146.528 114.015 147.079 113.446L147.583 114.132C146.892 114.823 145.996 115.168 144.895 115.168ZM146.995 111.192C146.986 110.613 146.79 110.095 146.407 109.638C146.024 109.171 145.478 108.938 144.769 108.938C144.097 108.938 143.565 109.167 143.173 109.624C142.79 110.081 142.585 110.604 142.557 111.192H146.995ZM150.782 115H149.732V108.238H150.782V109.33C151.407 108.509 152.158 108.098 153.036 108.098V109.176C152.905 109.148 152.765 109.134 152.616 109.134C152.298 109.134 151.953 109.246 151.58 109.47C151.206 109.694 150.94 109.941 150.782 110.212V115ZM34.5509 138.646L34.7189 137.694C34.8869 137.769 35.0782 137.806 35.2929 137.806C35.5356 137.806 35.7362 137.755 35.8949 137.652C36.0536 137.549 36.1889 137.363 36.3009 137.092L36.7489 136.07L33.9209 129.238H35.0549L37.3089 134.782L39.5489 129.238H40.6969L37.3089 137.372C36.9356 138.268 36.2729 138.725 35.3209 138.744C35.0409 138.744 34.7842 138.711 34.5509 138.646ZM44.8442 136.168C43.8362 136.168 43.0102 135.841 42.3662 135.188C41.7222 134.525 41.4002 133.667 41.4002 132.612C41.4002 131.623 41.7175 130.787 42.3522 130.106C42.9869 129.415 43.7802 129.07 44.7322 129.07C45.7309 129.07 46.5195 129.415 47.0982 130.106C47.6862 130.787 47.9802 131.651 47.9802 132.696V132.962H42.5062C42.5529 133.625 42.7955 134.18 43.2342 134.628C43.6729 135.076 44.2422 135.3 44.9422 135.3C45.7822 135.3 46.4775 135.015 47.0282 134.446L47.5322 135.132C46.8415 135.823 45.9455 136.168 44.8442 136.168ZM46.9442 132.192C46.9349 131.613 46.7389 131.095 46.3562 130.638C45.9735 130.171 45.4275 129.938 44.7182 129.938C44.0462 129.938 43.5142 130.167 43.1222 130.624C42.7395 131.081 42.5342 131.604 42.5062 132.192H46.9442ZM54.9589 136H53.9089V135.23C53.3395 135.855 52.5929 136.168 51.6689 136.168C51.0435 136.168 50.4929 135.967 50.0169 135.566C49.5409 135.165 49.3029 134.619 49.3029 133.928C49.3029 133.219 49.5362 132.673 50.0029 132.29C50.4789 131.898 51.0342 131.702 51.6689 131.702C52.6302 131.702 53.3769 132.01 53.9089 132.626V131.408C53.9089 130.96 53.7502 130.61 53.4329 130.358C53.1155 130.106 52.7049 129.98 52.2009 129.98C51.4075 129.98 50.7169 130.293 50.1289 130.918L49.6389 130.19C50.3575 129.443 51.2582 129.07 52.3409 129.07C53.1155 129.07 53.7455 129.257 54.2309 129.63C54.7162 130.003 54.9589 130.577 54.9589 131.352V136ZM52.0469 135.412C52.8869 135.412 53.5075 135.132 53.9089 134.572V133.298C53.5075 132.738 52.8869 132.458 52.0469 132.458C51.5615 132.458 51.1602 132.598 50.8429 132.878C50.5349 133.149 50.3809 133.503 50.3809 133.942C50.3809 134.371 50.5349 134.726 50.8429 135.006C51.1602 135.277 51.5615 135.412 52.0469 135.412ZM58.1137 136H57.0637V129.238H58.1137V130.33C58.739 129.509 59.4903 129.098 60.3677 129.098V130.176C60.237 130.148 60.097 130.134 59.9477 130.134C59.6303 130.134 59.285 130.246 58.9117 130.47C58.5383 130.694 58.2723 130.941 58.1137 131.212V136ZM63.8268 136.168C62.6788 136.168 61.7688 135.813 61.0968 135.104L61.6428 134.348C61.8761 134.619 62.1934 134.847 62.5948 135.034C63.0054 135.221 63.4301 135.314 63.8688 135.314C64.3728 135.314 64.7648 135.207 65.0448 134.992C65.3248 134.777 65.4648 134.497 65.4648 134.152C65.4648 133.853 65.3201 133.62 65.0308 133.452C64.7414 133.275 64.3914 133.144 63.9808 133.06C63.5794 132.967 63.1734 132.864 62.7628 132.752C62.3521 132.631 62.0021 132.43 61.7128 132.15C61.4234 131.861 61.2788 131.483 61.2788 131.016C61.2788 130.465 61.5028 130.003 61.9508 129.63C62.4081 129.257 63.0241 129.07 63.7988 129.07C64.8161 129.07 65.6514 129.397 66.3048 130.05L65.8148 130.778C65.3388 130.209 64.6668 129.924 63.7988 129.924C63.3414 129.924 62.9774 130.027 62.7068 130.232C62.4361 130.428 62.3008 130.68 62.3008 130.988C62.3008 131.259 62.4454 131.473 62.7348 131.632C63.0241 131.781 63.3694 131.903 63.7708 131.996C64.1814 132.08 64.5921 132.183 65.0028 132.304C65.4134 132.425 65.7634 132.64 66.0528 132.948C66.3421 133.247 66.4868 133.639 66.4868 134.124C66.4868 134.721 66.2534 135.211 65.7868 135.594C65.3201 135.977 64.6668 136.168 63.8268 136.168ZM77.178 135.146C76.5713 135.827 75.764 136.168 74.756 136.168C73.748 136.168 72.936 135.827 72.32 135.146C71.7133 134.465 71.41 133.62 71.41 132.612C71.41 131.604 71.7133 130.764 72.32 130.092C72.936 129.411 73.748 129.07 74.756 129.07C75.764 129.07 76.5713 129.411 77.178 130.092C77.794 130.764 78.102 131.604 78.102 132.612C78.102 133.62 77.794 134.465 77.178 135.146ZM73.104 134.474C73.5146 134.978 74.0653 135.23 74.756 135.23C75.4466 135.23 75.9926 134.978 76.394 134.474C76.7953 133.961 76.996 133.34 76.996 132.612C76.996 131.884 76.7953 131.268 76.394 130.764C75.9926 130.26 75.4466 130.008 74.756 130.008C74.0653 130.008 73.5146 130.265 73.104 130.778C72.7026 131.282 72.502 131.893 72.502 132.612C72.502 133.34 72.7026 133.961 73.104 134.474ZM81.1577 136H80.1077V130.162H78.9877V129.238H80.1077V128.72C80.1077 128.029 80.2803 127.493 80.6257 127.11C80.9803 126.718 81.461 126.522 82.0677 126.522C82.6463 126.522 83.1223 126.695 83.4957 127.04L83.0617 127.726C82.8097 127.502 82.5297 127.39 82.2217 127.39C81.8763 127.39 81.6103 127.507 81.4237 127.74C81.2463 127.964 81.1577 128.291 81.1577 128.72V129.238H82.5297V130.162H81.1577V136ZM90.4399 136.168C89.4319 136.168 88.6059 135.841 87.9619 135.188C87.3179 134.525 86.9959 133.667 86.9959 132.612C86.9959 131.623 87.3132 130.787 87.9479 130.106C88.5826 129.415 89.3759 129.07 90.3279 129.07C91.3266 129.07 92.1152 129.415 92.6939 130.106C93.2819 130.787 93.5759 131.651 93.5759 132.696V132.962H88.1019C88.1486 133.625 88.3912 134.18 88.8299 134.628C89.2686 135.076 89.8379 135.3 90.5379 135.3C91.3779 135.3 92.0732 135.015 92.6239 134.446L93.1279 135.132C92.4372 135.823 91.5412 136.168 90.4399 136.168ZM92.5399 132.192C92.5306 131.613 92.3346 131.095 91.9519 130.638C91.5692 130.171 91.0232 129.938 90.3139 129.938C89.6419 129.938 89.1099 130.167 88.7179 130.624C88.3352 131.081 88.1299 131.604 88.1019 132.192H92.5399ZM100.877 136H99.6586L97.6286 133.228L95.5986 136H94.3946L96.9846 132.528L94.5346 129.238H95.7526L97.6286 131.814L99.5046 129.238H100.723L98.2726 132.528L100.877 136ZM105.417 136.168C104.465 136.168 103.704 135.771 103.135 134.978V138.576H102.085V129.238H103.135V130.246C103.387 129.891 103.714 129.607 104.115 129.392C104.516 129.177 104.95 129.07 105.417 129.07C106.313 129.07 107.036 129.392 107.587 130.036C108.147 130.671 108.427 131.529 108.427 132.612C108.427 133.695 108.147 134.558 107.587 135.202C107.036 135.846 106.313 136.168 105.417 136.168ZM105.151 135.23C105.814 135.23 106.341 134.987 106.733 134.502C107.125 134.007 107.321 133.377 107.321 132.612C107.321 131.847 107.125 131.221 106.733 130.736C106.341 130.251 105.814 130.008 105.151 130.008C104.75 130.008 104.358 130.115 103.975 130.33C103.602 130.535 103.322 130.787 103.135 131.086V134.138C103.322 134.446 103.602 134.707 103.975 134.922C104.358 135.127 104.75 135.23 105.151 135.23ZM113.149 136.168C112.141 136.168 111.315 135.841 110.671 135.188C110.027 134.525 109.705 133.667 109.705 132.612C109.705 131.623 110.022 130.787 110.657 130.106C111.292 129.415 112.085 129.07 113.037 129.07C114.036 129.07 114.824 129.415 115.403 130.106C115.991 130.787 116.285 131.651 116.285 132.696V132.962H110.811C110.858 133.625 111.1 134.18 111.539 134.628C111.978 135.076 112.547 135.3 113.247 135.3C114.087 135.3 114.782 135.015 115.333 134.446L115.837 135.132C115.146 135.823 114.25 136.168 113.149 136.168ZM115.249 132.192C115.24 131.613 115.044 131.095 114.661 130.638C114.278 130.171 113.732 129.938 113.023 129.938C112.351 129.938 111.819 130.167 111.427 130.624C111.044 131.081 110.839 131.604 110.811 132.192H115.249ZM119.036 136H117.986V129.238H119.036V130.33C119.661 129.509 120.412 129.098 121.29 129.098V130.176C121.159 130.148 121.019 130.134 120.87 130.134C120.552 130.134 120.207 130.246 119.834 130.47C119.46 130.694 119.194 130.941 119.036 131.212V136ZM123.125 128.272C122.938 128.272 122.775 128.207 122.635 128.076C122.495 127.936 122.425 127.768 122.425 127.572C122.425 127.376 122.495 127.208 122.635 127.068C122.775 126.928 122.938 126.858 123.125 126.858C123.321 126.858 123.489 126.928 123.629 127.068C123.769 127.208 123.839 127.376 123.839 127.572C123.839 127.768 123.769 127.936 123.629 128.076C123.489 128.207 123.321 128.272 123.125 128.272ZM123.657 136H122.607V129.238H123.657V136ZM128.803 136.168C127.795 136.168 126.969 135.841 126.325 135.188C125.681 134.525 125.359 133.667 125.359 132.612C125.359 131.623 125.677 130.787 126.311 130.106C126.946 129.415 127.739 129.07 128.691 129.07C129.69 129.07 130.479 129.415 131.057 130.106C131.645 130.787 131.939 131.651 131.939 132.696V132.962H126.465C126.512 133.625 126.755 134.18 127.193 134.628C127.632 135.076 128.201 135.3 128.901 135.3C129.741 135.3 130.437 135.015 130.987 134.446L131.491 135.132C130.801 135.823 129.905 136.168 128.803 136.168ZM130.903 132.192C130.894 131.613 130.698 131.095 130.315 130.638C129.933 130.171 129.387 129.938 128.677 129.938C128.005 129.938 127.473 130.167 127.081 130.624C126.699 131.081 126.493 131.604 126.465 132.192H130.903ZM139.254 136H138.204V131.576C138.204 131.007 138.073 130.605 137.812 130.372C137.551 130.129 137.177 130.008 136.692 130.008C136.3 130.008 135.917 130.111 135.544 130.316C135.18 130.521 134.895 130.769 134.69 131.058V136H133.64V129.238H134.69V130.218C134.951 129.91 135.301 129.644 135.74 129.42C136.179 129.187 136.631 129.07 137.098 129.07C138.535 129.07 139.254 129.798 139.254 131.254V136ZM144.333 136.168C143.334 136.168 142.522 135.832 141.897 135.16C141.271 134.479 140.959 133.629 140.959 132.612C140.959 131.595 141.271 130.75 141.897 130.078C142.522 129.406 143.334 129.07 144.333 129.07C145.378 129.07 146.204 129.462 146.811 130.246L146.111 130.89C145.681 130.302 145.107 130.008 144.389 130.008C143.679 130.008 143.11 130.251 142.681 130.736C142.261 131.221 142.051 131.847 142.051 132.612C142.051 133.377 142.261 134.007 142.681 134.502C143.11 134.987 143.679 135.23 144.389 135.23C145.098 135.23 145.672 134.936 146.111 134.348L146.811 134.992C146.204 135.776 145.378 136.168 144.333 136.168ZM151.334 136.168C150.326 136.168 149.5 135.841 148.856 135.188C148.212 134.525 147.89 133.667 147.89 132.612C147.89 131.623 148.208 130.787 148.842 130.106C149.477 129.415 150.27 129.07 151.222 129.07C152.221 129.07 153.01 129.415 153.588 130.106C154.176 130.787 154.47 131.651 154.47 132.696V132.962H148.996C149.043 133.625 149.286 134.18 149.724 134.628C150.163 135.076 150.732 135.3 151.432 135.3C152.272 135.3 152.968 135.015 153.518 134.446L154.022 135.132C153.332 135.823 152.436 136.168 151.334 136.168ZM153.434 132.192C153.425 131.613 153.229 131.095 152.846 130.638C152.464 130.171 151.918 129.938 151.208 129.938C150.536 129.938 150.004 130.167 149.612 130.624C149.23 131.081 149.024 131.604 148.996 132.192H153.434Z" fill="white"/>
<path d="M71.564 273H58.484V269.232C60.484 267.824 61.948 266.784 62.876 266.112C63.804 265.44 64.58 264.832 65.204 264.288C65.828 263.744 66.196 263.352 66.308 263.112C66.436 262.872 66.5 262.592 66.5 262.272C66.5 261.904 66.324 261.608 65.972 261.384C65.62 261.144 65.18 261.024 64.652 261.024C63.148 261.024 61.74 261.576 60.428 262.68L57.788 259.464C58.652 258.536 59.684 257.856 60.884 257.424C62.1 256.976 63.324 256.752 64.556 256.752C66.62 256.752 68.276 257.272 69.524 258.312C70.788 259.336 71.42 260.656 71.42 262.272C71.42 263.392 71.044 264.448 70.292 265.44C69.54 266.432 68.228 267.544 66.356 268.776H71.564V273ZM83.9308 272.112C82.8428 272.896 81.5308 273.288 79.9948 273.288C78.4588 273.288 77.1387 272.896 76.0347 272.112C74.9467 271.312 74.1467 270.304 73.6347 269.088C73.1387 267.856 72.8907 266.496 72.8907 265.008C72.8907 262.688 73.5067 260.736 74.7387 259.152C75.9707 257.552 77.7227 256.752 79.9948 256.752C82.2668 256.752 84.0188 257.552 85.2508 259.152C86.4828 260.736 87.0988 262.688 87.0988 265.008C87.0988 266.496 86.8428 267.856 86.3307 269.088C85.8348 270.304 85.0348 271.312 83.9308 272.112ZM77.7628 265.008C77.7628 267.68 78.5068 269.016 79.9948 269.016C81.4827 269.016 82.2267 267.68 82.2267 265.008C82.2267 262.352 81.4827 261.024 79.9948 261.024C78.5068 261.024 77.7628 262.352 77.7628 265.008ZM99.2411 272.112C98.1531 272.896 96.8411 273.288 95.3051 273.288C93.7691 273.288 92.4491 272.896 91.3451 272.112C90.2571 271.312 89.4571 270.304 88.9451 269.088C88.4491 267.856 88.2011 266.496 88.2011 265.008C88.2011 262.688 88.8171 260.736 90.0491 259.152C91.2811 257.552 93.0331 256.752 95.3051 256.752C97.5771 256.752 99.3291 257.552 100.561 259.152C101.793 260.736 102.409 262.688 102.409 265.008C102.409 266.496 102.153 267.856 101.641 269.088C101.145 270.304 100.345 271.312 99.2411 272.112ZM93.0731 265.008C93.0731 267.68 93.8171 269.016 95.3051 269.016C96.7931 269.016 97.5371 267.68 97.5371 265.008C97.5371 262.352 96.7931 261.024 95.3051 261.024C93.8171 261.024 93.0731 262.352 93.0731 265.008ZM114.551 272.112C113.463 272.896 112.151 273.288 110.615 273.288C109.079 273.288 107.759 272.896 106.655 272.112C105.567 271.312 104.767 270.304 104.255 269.088C103.759 267.856 103.511 266.496 103.511 265.008C103.511 262.688 104.127 260.736 105.359 259.152C106.591 257.552 108.343 256.752 110.615 256.752C112.887 256.752 114.639 257.552 115.871 259.152C117.103 260.736 117.719 262.688 117.719 265.008C117.719 266.496 117.463 267.856 116.951 269.088C116.455 270.304 115.655 271.312 114.551 272.112ZM108.383 265.008C108.383 267.68 109.127 269.016 110.615 269.016C112.103 269.016 112.847 267.68 112.847 265.008C112.847 262.352 112.103 261.024 110.615 261.024C109.127 261.024 108.383 262.352 108.383 265.008ZM129.934 266.16H125.902V270.792H123.118V266.16H119.086V263.64H123.118V259.2H125.902V263.64H129.934V266.16Z" fill="white"/>
<path d="M63.4695 302H60.2775V292.662H63.4695C64.8975 292.662 66.0502 293.105 66.9275 293.992C67.8142 294.879 68.2575 295.994 68.2575 297.338C68.2575 298.691 67.8142 299.807 66.9275 300.684C66.0502 301.561 64.8975 302 63.4695 302ZM63.4695 300.964C64.5709 300.964 65.4435 300.619 66.0875 299.928C66.7315 299.237 67.0535 298.374 67.0535 297.338C67.0535 296.293 66.7362 295.425 66.1015 294.734C65.4669 294.043 64.5895 293.698 63.4695 293.698H61.4395V300.964H63.4695ZM73.0903 302.168C72.0823 302.168 71.2563 301.841 70.6123 301.188C69.9683 300.525 69.6463 299.667 69.6463 298.612C69.6463 297.623 69.9636 296.787 70.5983 296.106C71.2329 295.415 72.0263 295.07 72.9783 295.07C73.9769 295.07 74.7656 295.415 75.3443 296.106C75.9323 296.787 76.2263 297.651 76.2263 298.696V298.962H70.7523C70.7989 299.625 71.0416 300.18 71.4803 300.628C71.9189 301.076 72.4883 301.3 73.1883 301.3C74.0283 301.3 74.7236 301.015 75.2743 300.446L75.7783 301.132C75.0876 301.823 74.1916 302.168 73.0903 302.168ZM75.1903 298.192C75.1809 297.613 74.9849 297.095 74.6023 296.638C74.2196 296.171 73.6736 295.938 72.9643 295.938C72.2923 295.938 71.7603 296.167 71.3683 296.624C70.9856 297.081 70.7803 297.604 70.7523 298.192H75.1903ZM80.881 302H79.733L76.919 295.238H78.053L80.307 300.782L82.547 295.238H83.695L80.881 302ZM87.8422 302.168C86.8342 302.168 86.0082 301.841 85.3642 301.188C84.7202 300.525 84.3982 299.667 84.3982 298.612C84.3982 297.623 84.7156 296.787 85.3502 296.106C85.9849 295.415 86.7782 295.07 87.7302 295.07C88.7289 295.07 89.5176 295.415 90.0962 296.106C90.6842 296.787 90.9782 297.651 90.9782 298.696V298.962H85.5042C85.5509 299.625 85.7936 300.18 86.2322 300.628C86.6709 301.076 87.2402 301.3 87.9402 301.3C88.7802 301.3 89.4756 301.015 90.0262 300.446L90.5302 301.132C89.8396 301.823 88.9436 302.168 87.8422 302.168ZM89.9422 298.192C89.9329 297.613 89.7369 297.095 89.3542 296.638C88.9716 296.171 88.4256 295.938 87.7162 295.938C87.0442 295.938 86.5122 296.167 86.1202 296.624C85.7376 297.081 85.5322 297.604 85.5042 298.192H89.9422ZM93.7289 302H92.6789V292.662H93.7289V302ZM101.199 301.146C100.593 301.827 99.7854 302.168 98.7774 302.168C97.7694 302.168 96.9574 301.827 96.3414 301.146C95.7348 300.465 95.4314 299.62 95.4314 298.612C95.4314 297.604 95.7348 296.764 96.3414 296.092C96.9574 295.411 97.7694 295.07 98.7774 295.07C99.7854 295.07 100.593 295.411 101.199 296.092C101.815 296.764 102.123 297.604 102.123 298.612C102.123 299.62 101.815 300.465 101.199 301.146ZM97.1254 300.474C97.5361 300.978 98.0868 301.23 98.7774 301.23C99.4681 301.23 100.014 300.978 100.415 300.474C100.817 299.961 101.017 299.34 101.017 298.612C101.017 297.884 100.817 297.268 100.415 296.764C100.014 296.26 99.4681 296.008 98.7774 296.008C98.0868 296.008 97.5361 296.265 97.1254 296.778C96.7241 297.282 96.5234 297.893 96.5234 298.612C96.5234 299.34 96.7241 299.961 97.1254 300.474ZM107.167 302.168C106.215 302.168 105.454 301.771 104.885 300.978V304.576H103.835V295.238H104.885V296.246C105.137 295.891 105.464 295.607 105.865 295.392C106.266 295.177 106.7 295.07 107.167 295.07C108.063 295.07 108.786 295.392 109.337 296.036C109.897 296.671 110.177 297.529 110.177 298.612C110.177 299.695 109.897 300.558 109.337 301.202C108.786 301.846 108.063 302.168 107.167 302.168ZM106.901 301.23C107.564 301.23 108.091 300.987 108.483 300.502C108.875 300.007 109.071 299.377 109.071 298.612C109.071 297.847 108.875 297.221 108.483 296.736C108.091 296.251 107.564 296.008 106.901 296.008C106.5 296.008 106.108 296.115 105.725 296.33C105.352 296.535 105.072 296.787 104.885 297.086V300.138C105.072 300.446 105.352 300.707 105.725 300.922C106.108 301.127 106.5 301.23 106.901 301.23ZM114.899 302.168C113.891 302.168 113.065 301.841 112.421 301.188C111.777 300.525 111.455 299.667 111.455 298.612C111.455 297.623 111.772 296.787 112.407 296.106C113.042 295.415 113.835 295.07 114.787 295.07C115.786 295.07 116.574 295.415 117.153 296.106C117.741 296.787 118.035 297.651 118.035 298.696V298.962H112.561C112.608 299.625 112.85 300.18 113.289 300.628C113.728 301.076 114.297 301.3 114.997 301.3C115.837 301.3 116.532 301.015 117.083 300.446L117.587 301.132C116.896 301.823 116 302.168 114.899 302.168ZM116.999 298.192C116.99 297.613 116.794 297.095 116.411 296.638C116.028 296.171 115.482 295.938 114.773 295.938C114.101 295.938 113.569 296.167 113.177 296.624C112.794 297.081 112.589 297.604 112.561 298.192H116.999ZM120.786 302H119.736V295.238H120.786V296.33C121.411 295.509 122.162 295.098 123.04 295.098V296.176C122.909 296.148 122.769 296.134 122.62 296.134C122.302 296.134 121.957 296.246 121.584 296.47C121.21 296.694 120.944 296.941 120.786 297.212V302ZM126.499 302.168C125.351 302.168 124.441 301.813 123.769 301.104L124.315 300.348C124.548 300.619 124.865 300.847 125.267 301.034C125.677 301.221 126.102 301.314 126.541 301.314C127.045 301.314 127.437 301.207 127.717 300.992C127.997 300.777 128.137 300.497 128.137 300.152C128.137 299.853 127.992 299.62 127.703 299.452C127.413 299.275 127.063 299.144 126.653 299.06C126.251 298.967 125.845 298.864 125.435 298.752C125.024 298.631 124.674 298.43 124.385 298.15C124.095 297.861 123.951 297.483 123.951 297.016C123.951 296.465 124.175 296.003 124.623 295.63C125.08 295.257 125.696 295.07 126.471 295.07C127.488 295.07 128.323 295.397 128.977 296.05L128.487 296.778C128.011 296.209 127.339 295.924 126.471 295.924C126.013 295.924 125.649 296.027 125.379 296.232C125.108 296.428 124.973 296.68 124.973 296.988C124.973 297.259 125.117 297.473 125.407 297.632C125.696 297.781 126.041 297.903 126.443 297.996C126.853 298.08 127.264 298.183 127.675 298.304C128.085 298.425 128.435 298.64 128.725 298.948C129.014 299.247 129.159 299.639 129.159 300.124C129.159 300.721 128.925 301.211 128.459 301.594C127.992 301.977 127.339 302.168 126.499 302.168ZM76.7467 323.168C75.5987 323.168 74.6887 322.813 74.0167 322.104L74.5627 321.348C74.796 321.619 75.1134 321.847 75.5147 322.034C75.9254 322.221 76.35 322.314 76.7887 322.314C77.2927 322.314 77.6847 322.207 77.9647 321.992C78.2447 321.777 78.3847 321.497 78.3847 321.152C78.3847 320.853 78.24 320.62 77.9507 320.452C77.6614 320.275 77.3114 320.144 76.9007 320.06C76.4994 319.967 76.0934 319.864 75.6827 319.752C75.272 319.631 74.922 319.43 74.6327 319.15C74.3434 318.861 74.1987 318.483 74.1987 318.016C74.1987 317.465 74.4227 317.003 74.8707 316.63C75.328 316.257 75.944 316.07 76.7187 316.07C77.736 316.07 78.5714 316.397 79.2247 317.05L78.7347 317.778C78.2587 317.209 77.5867 316.924 76.7187 316.924C76.2614 316.924 75.8974 317.027 75.6267 317.232C75.356 317.428 75.2207 317.68 75.2207 317.988C75.2207 318.259 75.3654 318.473 75.6547 318.632C75.944 318.781 76.2894 318.903 76.6907 318.996C77.1014 319.08 77.512 319.183 77.9227 319.304C78.3334 319.425 78.6834 319.64 78.9727 319.948C79.262 320.247 79.4067 320.639 79.4067 321.124C79.4067 321.721 79.1734 322.211 78.7067 322.594C78.24 322.977 77.5867 323.168 76.7467 323.168ZM82.8205 323.168C82.3258 323.168 81.9525 323.033 81.7005 322.762C81.4485 322.491 81.3225 322.099 81.3225 321.586V317.162H80.2025V316.238H81.3225V314.39H82.3725V316.238H83.7445V317.162H82.3725V321.362C82.3725 321.623 82.4285 321.833 82.5405 321.992C82.6618 322.151 82.8345 322.23 83.0585 322.23C83.3665 322.23 83.6045 322.137 83.7725 321.95L84.0805 322.734C83.7725 323.023 83.3525 323.168 82.8205 323.168ZM90.5057 323H89.4557V322.23C88.8864 322.855 88.1397 323.168 87.2157 323.168C86.5904 323.168 86.0397 322.967 85.5637 322.566C85.0877 322.165 84.8497 321.619 84.8497 320.928C84.8497 320.219 85.0831 319.673 85.5497 319.29C86.0257 318.898 86.5811 318.702 87.2157 318.702C88.1771 318.702 88.9237 319.01 89.4557 319.626V318.408C89.4557 317.96 89.2971 317.61 88.9797 317.358C88.6624 317.106 88.2517 316.98 87.7477 316.98C86.9544 316.98 86.2637 317.293 85.6757 317.918L85.1857 317.19C85.9044 316.443 86.8051 316.07 87.8877 316.07C88.6624 316.07 89.2924 316.257 89.7777 316.63C90.2631 317.003 90.5057 317.577 90.5057 318.352V323ZM87.5937 322.412C88.4337 322.412 89.0544 322.132 89.4557 321.572V320.298C89.0544 319.738 88.4337 319.458 87.5937 319.458C87.1084 319.458 86.7071 319.598 86.3897 319.878C86.0817 320.149 85.9277 320.503 85.9277 320.942C85.9277 321.371 86.0817 321.726 86.3897 322.006C86.7071 322.277 87.1084 322.412 87.5937 322.412ZM93.9545 323H92.9045V317.162H91.7845V316.238H92.9045V315.72C92.9045 315.029 93.0772 314.493 93.4225 314.11C93.7772 313.718 94.2579 313.522 94.8645 313.522C95.4432 313.522 95.9192 313.695 96.2925 314.04L95.8585 314.726C95.6065 314.502 95.3265 314.39 95.0185 314.39C94.6732 314.39 94.4072 314.507 94.2205 314.74C94.0432 314.964 93.9545 315.291 93.9545 315.72V316.238H95.3265V317.162H93.9545V323ZM97.9165 323H96.8665V317.162H95.7465V316.238H96.8665V315.72C96.8665 315.029 97.0392 314.493 97.3845 314.11C97.7392 313.718 98.2199 313.522 98.8265 313.522C99.4052 313.522 99.8812 313.695 100.255 314.04L99.8205 314.726C99.5685 314.502 99.2885 314.39 98.9805 314.39C98.6352 314.39 98.3692 314.507 98.1825 314.74C98.0052 314.964 97.9165 315.291 97.9165 315.72V316.238H99.2885V317.162H97.9165V323ZM103.606 323.168C102.598 323.168 101.772 322.841 101.128 322.188C100.484 321.525 100.162 320.667 100.162 319.612C100.162 318.623 100.479 317.787 101.114 317.106C101.749 316.415 102.542 316.07 103.494 316.07C104.493 316.07 105.281 316.415 105.86 317.106C106.448 317.787 106.742 318.651 106.742 319.696V319.962H101.268C101.315 320.625 101.557 321.18 101.996 321.628C102.435 322.076 103.004 322.3 103.704 322.3C104.544 322.3 105.239 322.015 105.79 321.446L106.294 322.132C105.603 322.823 104.707 323.168 103.606 323.168ZM105.706 319.192C105.697 318.613 105.501 318.095 105.118 317.638C104.735 317.171 104.189 316.938 103.48 316.938C102.808 316.938 102.276 317.167 101.884 317.624C101.501 318.081 101.296 318.604 101.268 319.192H105.706ZM114.393 323H113.343V321.992C112.764 322.776 112.003 323.168 111.061 323.168C110.165 323.168 109.437 322.851 108.877 322.216C108.326 321.572 108.051 320.709 108.051 319.626C108.051 318.553 108.326 317.694 108.877 317.05C109.437 316.397 110.165 316.07 111.061 316.07C111.994 316.07 112.755 316.467 113.343 317.26V313.662H114.393V323ZM111.313 322.23C111.723 322.23 112.115 322.127 112.489 321.922C112.862 321.717 113.147 321.465 113.343 321.166V318.1C113.147 317.792 112.857 317.535 112.475 317.33C112.101 317.115 111.714 317.008 111.313 317.008C110.65 317.008 110.123 317.255 109.731 317.75C109.339 318.235 109.143 318.861 109.143 319.626C109.143 320.391 109.339 321.017 109.731 321.502C110.123 321.987 110.65 322.23 111.313 322.23Z" fill="white"/>
<path d="M72.296 460V443.992H68.12L62 449.992L64.736 452.848L67.448 450.16V460H72.296ZM81.3056 460.288C85.7936 460.288 88.4336 458.008 88.4336 454.48C88.4336 451.288 86.0096 449.248 83.2736 449.248C81.9296 449.248 80.7056 449.728 79.9376 450.472V448.216H87.3296V443.992H75.0896V453.712L78.4256 454.48C79.2416 453.712 80.1776 453.376 81.4016 453.376C82.8896 453.376 83.5136 453.976 83.5136 454.696C83.5136 455.368 82.8656 456.016 81.2576 456.016C79.8656 456.016 78.3056 455.536 77.2016 454.624L74.6096 458.032C76.1696 459.448 78.4496 460.288 81.3056 460.288ZM96.641 460.288C101.417 460.288 103.745 456.352 103.745 452.008C103.745 447.664 101.417 443.752 96.641 443.752C91.865 443.752 89.537 447.664 89.537 452.008C89.537 456.352 91.865 460.288 96.641 460.288ZM96.641 456.016C95.105 456.016 94.409 454.72 94.409 452.008C94.409 449.296 95.105 448.024 96.641 448.024C98.177 448.024 98.873 449.296 98.873 452.008C98.873 454.72 98.177 456.016 96.641 456.016ZM124.719 460V443.992H118.023L115.215 451.672L112.407 443.992H105.711V460H110.559V450.376L114.135 460H116.295L119.871 450.376V460H124.719Z" fill="white"/>
<path d="M36.3022 488.16C35.6582 488.832 34.7156 489.168 33.4742 489.168C32.2329 489.168 31.2856 488.832 30.6322 488.16C29.9882 487.479 29.6662 486.55 29.6662 485.374V479.662H30.8282V485.346C30.8282 486.214 31.0569 486.895 31.5142 487.39C31.9716 487.885 32.6249 488.132 33.4742 488.132C34.3236 488.132 34.9769 487.885 35.4342 487.39C35.8916 486.895 36.1202 486.214 36.1202 485.346V479.662H37.2822V485.36C37.2822 486.545 36.9556 487.479 36.3022 488.16ZM41.569 489.168C40.421 489.168 39.511 488.813 38.839 488.104L39.385 487.348C39.6183 487.619 39.9356 487.847 40.337 488.034C40.7476 488.221 41.1723 488.314 41.611 488.314C42.115 488.314 42.507 488.207 42.787 487.992C43.067 487.777 43.207 487.497 43.207 487.152C43.207 486.853 43.0623 486.62 42.773 486.452C42.4836 486.275 42.1336 486.144 41.723 486.06C41.3216 485.967 40.9156 485.864 40.505 485.752C40.0943 485.631 39.7443 485.43 39.455 485.15C39.1656 484.861 39.021 484.483 39.021 484.016C39.021 483.465 39.245 483.003 39.693 482.63C40.1503 482.257 40.7663 482.07 41.541 482.07C42.5583 482.07 43.3936 482.397 44.047 483.05L43.557 483.778C43.081 483.209 42.409 482.924 41.541 482.924C41.0836 482.924 40.7196 483.027 40.449 483.232C40.1783 483.428 40.043 483.68 40.043 483.988C40.043 484.259 40.1876 484.473 40.477 484.632C40.7663 484.781 41.1116 484.903 41.513 484.996C41.9236 485.08 42.3343 485.183 42.745 485.304C43.1556 485.425 43.5056 485.64 43.795 485.948C44.0843 486.247 44.229 486.639 44.229 487.124C44.229 487.721 43.9956 488.211 43.529 488.594C43.0623 488.977 42.409 489.168 41.569 489.168ZM48.9868 489.168C47.9788 489.168 47.1528 488.841 46.5088 488.188C45.8648 487.525 45.5428 486.667 45.5428 485.612C45.5428 484.623 45.8601 483.787 46.4948 483.106C47.1294 482.415 47.9228 482.07 48.8748 482.07C49.8734 482.07 50.6621 482.415 51.2408 483.106C51.8288 483.787 52.1228 484.651 52.1228 485.696V485.962H46.6488C46.6954 486.625 46.9381 487.18 47.3768 487.628C47.8154 488.076 48.3848 488.3 49.0848 488.3C49.9248 488.3 50.6201 488.015 51.1708 487.446L51.6748 488.132C50.9841 488.823 50.0881 489.168 48.9868 489.168ZM51.0868 485.192C51.0774 484.613 50.8814 484.095 50.4988 483.638C50.1161 483.171 49.5701 482.938 48.8608 482.938C48.1888 482.938 47.6568 483.167 47.2648 483.624C46.8821 484.081 46.6768 484.604 46.6488 485.192H51.0868ZM54.8734 489H53.8234V482.238H54.8734V483.33C55.4988 482.509 56.2501 482.098 57.1274 482.098V483.176C56.9968 483.148 56.8568 483.134 56.7074 483.134C56.3901 483.134 56.0448 483.246 55.6714 483.47C55.2981 483.694 55.0321 483.941 54.8734 484.212V489ZM60.5865 489.168C59.4385 489.168 58.5285 488.813 57.8565 488.104L58.4025 487.348C58.6359 487.619 58.9532 487.847 59.3545 488.034C59.7652 488.221 60.1899 488.314 60.6285 488.314C61.1325 488.314 61.5245 488.207 61.8045 487.992C62.0845 487.777 62.2245 487.497 62.2245 487.152C62.2245 486.853 62.0799 486.62 61.7905 486.452C61.5012 486.275 61.1512 486.144 60.7405 486.06C60.3392 485.967 59.9332 485.864 59.5225 485.752C59.1119 485.631 58.7619 485.43 58.4725 485.15C58.1832 484.861 58.0385 484.483 58.0385 484.016C58.0385 483.465 58.2625 483.003 58.7105 482.63C59.1679 482.257 59.7839 482.07 60.5585 482.07C61.5759 482.07 62.4112 482.397 63.0645 483.05L62.5745 483.778C62.0985 483.209 61.4265 482.924 60.5585 482.924C60.1012 482.924 59.7372 483.027 59.4665 483.232C59.1959 483.428 59.0605 483.68 59.0605 483.988C59.0605 484.259 59.2052 484.473 59.4945 484.632C59.7839 484.781 60.1292 484.903 60.5305 484.996C60.9412 485.08 61.3519 485.183 61.7625 485.304C62.1732 485.425 62.5232 485.64 62.8125 485.948C63.1019 486.247 63.2465 486.639 63.2465 487.124C63.2465 487.721 63.0132 488.211 62.5465 488.594C62.0799 488.977 61.4265 489.168 60.5865 489.168ZM70.2697 489.168C69.7751 489.168 69.4017 489.033 69.1497 488.762C68.8977 488.491 68.7717 488.099 68.7717 487.586V483.162H67.6517V482.238H68.7717V480.39H69.8217V482.238H71.1937V483.162H69.8217V487.362C69.8217 487.623 69.8777 487.833 69.9897 487.992C70.1111 488.151 70.2837 488.23 70.5077 488.23C70.8157 488.23 71.0537 488.137 71.2217 487.95L71.5297 488.734C71.2217 489.023 70.8017 489.168 70.2697 489.168ZM78.053 488.146C77.4463 488.827 76.639 489.168 75.631 489.168C74.623 489.168 73.811 488.827 73.195 488.146C72.5883 487.465 72.285 486.62 72.285 485.612C72.285 484.604 72.5883 483.764 73.195 483.092C73.811 482.411 74.623 482.07 75.631 482.07C76.639 482.07 77.4463 482.411 78.053 483.092C78.669 483.764 78.977 484.604 78.977 485.612C78.977 486.62 78.669 487.465 78.053 488.146ZM73.979 487.474C74.3896 487.978 74.9403 488.23 75.631 488.23C76.3216 488.23 76.8676 487.978 77.269 487.474C77.6703 486.961 77.871 486.34 77.871 485.612C77.871 484.884 77.6703 484.268 77.269 483.764C76.8676 483.26 76.3216 483.008 75.631 483.008C74.9403 483.008 74.3896 483.265 73.979 483.778C73.5776 484.282 73.377 484.893 73.377 485.612C73.377 486.34 73.5776 486.961 73.979 487.474ZM86.3027 489H85.2527V488.048C84.9727 488.365 84.618 488.631 84.1887 488.846C83.7687 489.061 83.3207 489.168 82.8447 489.168C81.4073 489.168 80.6887 488.449 80.6887 487.012V482.238H81.7387V486.69C81.7387 487.25 81.8647 487.647 82.1167 487.88C82.378 488.113 82.756 488.23 83.2507 488.23C83.6427 488.23 84.0207 488.132 84.3847 487.936C84.758 487.74 85.0473 487.497 85.2527 487.208V482.238H86.3027V489ZM91.3816 489.168C90.3829 489.168 89.5709 488.832 88.9456 488.16C88.3203 487.479 88.0076 486.629 88.0076 485.612C88.0076 484.595 88.3203 483.75 88.9456 483.078C89.5709 482.406 90.3829 482.07 91.3816 482.07C92.4269 482.07 93.2529 482.462 93.8596 483.246L93.1596 483.89C92.7303 483.302 92.1563 483.008 91.4376 483.008C90.7283 483.008 90.1589 483.251 89.7296 483.736C89.3096 484.221 89.0996 484.847 89.0996 485.612C89.0996 486.377 89.3096 487.007 89.7296 487.502C90.1589 487.987 90.7283 488.23 91.4376 488.23C92.1469 488.23 92.7209 487.936 93.1596 487.348L93.8596 487.992C93.2529 488.776 92.4269 489.168 91.3816 489.168ZM100.959 489H99.9093V484.548C99.9093 483.988 99.7786 483.591 99.5173 483.358C99.2559 483.125 98.8779 483.008 98.3833 483.008C98.0006 483.008 97.6226 483.111 97.2493 483.316C96.8853 483.521 96.5959 483.769 96.3813 484.058V489H95.3313V479.662H96.3813V483.218C96.6426 482.91 96.9926 482.644 97.4313 482.42C97.8699 482.187 98.3273 482.07 98.8033 482.07C100.241 482.07 100.959 482.789 100.959 484.226V489ZM106.108 489.168C105.1 489.168 104.274 488.841 103.63 488.188C102.986 487.525 102.664 486.667 102.664 485.612C102.664 484.623 102.981 483.787 103.616 483.106C104.251 482.415 105.044 482.07 105.996 482.07C106.995 482.07 107.783 482.415 108.362 483.106C108.95 483.787 109.244 484.651 109.244 485.696V485.962H103.77C103.817 486.625 104.059 487.18 104.498 487.628C104.937 488.076 105.506 488.3 106.206 488.3C107.046 488.3 107.741 488.015 108.292 487.446L108.796 488.132C108.105 488.823 107.209 489.168 106.108 489.168ZM108.208 485.192C108.199 484.613 108.003 484.095 107.62 483.638C107.237 483.171 106.691 482.938 105.982 482.938C105.31 482.938 104.778 483.167 104.386 483.624C104.003 484.081 103.798 484.604 103.77 485.192H108.208ZM116.895 489H115.845V487.992C115.266 488.776 114.505 489.168 113.563 489.168C112.667 489.168 111.939 488.851 111.379 488.216C110.828 487.572 110.553 486.709 110.553 485.626C110.553 484.553 110.828 483.694 111.379 483.05C111.939 482.397 112.667 482.07 113.563 482.07C114.496 482.07 115.257 482.467 115.845 483.26V479.662H116.895V489ZM113.815 488.23C114.225 488.23 114.617 488.127 114.991 487.922C115.364 487.717 115.649 487.465 115.845 487.166V484.1C115.649 483.792 115.359 483.535 114.977 483.33C114.603 483.115 114.216 483.008 113.815 483.008C113.152 483.008 112.625 483.255 112.233 483.75C111.841 484.235 111.645 484.861 111.645 485.626C111.645 486.391 111.841 487.017 112.233 487.502C112.625 487.987 113.152 488.23 113.815 488.23ZM123.657 487.166C123.843 487.465 124.123 487.717 124.497 487.922C124.879 488.127 125.271 488.23 125.673 488.23C126.345 488.23 126.877 487.987 127.269 487.502C127.661 487.017 127.857 486.391 127.857 485.626C127.857 484.861 127.661 484.235 127.269 483.75C126.877 483.255 126.345 483.008 125.673 483.008C125.271 483.008 124.879 483.115 124.497 483.33C124.123 483.535 123.843 483.792 123.657 484.1V487.166ZM123.657 489H122.607V479.662H123.657V483.26C124.245 482.467 125.005 482.07 125.939 482.07C126.825 482.07 127.549 482.397 128.109 483.05C128.669 483.694 128.949 484.553 128.949 485.626C128.949 486.709 128.669 487.572 128.109 488.216C127.558 488.851 126.835 489.168 125.939 489.168C124.996 489.168 124.235 488.776 123.657 487.992V489ZM130.281 491.646L130.449 490.694C130.617 490.769 130.809 490.806 131.023 490.806C131.266 490.806 131.467 490.755 131.625 490.652C131.784 490.549 131.919 490.363 132.031 490.092L132.479 489.07L129.651 482.238H130.785L133.039 487.782L135.279 482.238H136.427L133.039 490.372C132.666 491.268 132.003 491.725 131.051 491.744C130.771 491.744 130.515 491.711 130.281 491.646ZM146.508 488.146C145.901 488.827 145.094 489.168 144.086 489.168C143.078 489.168 142.266 488.827 141.65 488.146C141.043 487.465 140.74 486.62 140.74 485.612C140.74 484.604 141.043 483.764 141.65 483.092C142.266 482.411 143.078 482.07 144.086 482.07C145.094 482.07 145.901 482.411 146.508 483.092C147.124 483.764 147.432 484.604 147.432 485.612C147.432 486.62 147.124 487.465 146.508 488.146ZM142.434 487.474C142.845 487.978 143.395 488.23 144.086 488.23C144.777 488.23 145.323 487.978 145.724 487.474C146.125 486.961 146.326 486.34 146.326 485.612C146.326 484.884 146.125 484.268 145.724 483.764C145.323 483.26 144.777 483.008 144.086 483.008C143.395 483.008 142.845 483.265 142.434 483.778C142.033 484.282 141.832 484.893 141.832 485.612C141.832 486.34 142.033 486.961 142.434 487.474ZM154.758 489H153.708V488.048C153.428 488.365 153.073 488.631 152.644 488.846C152.224 489.061 151.776 489.168 151.3 489.168C149.862 489.168 149.144 488.449 149.144 487.012V482.238H150.194V486.69C150.194 487.25 150.32 487.647 150.572 487.88C150.833 488.113 151.211 488.23 151.706 488.23C152.098 488.23 152.476 488.132 152.84 487.936C153.213 487.74 153.502 487.497 153.708 487.208V482.238H154.758V489ZM157.905 489H156.855V482.238H157.905V483.33C158.53 482.509 159.281 482.098 160.159 482.098V483.176C160.028 483.148 159.888 483.134 159.739 483.134C159.421 483.134 159.076 483.246 158.703 483.47C158.329 483.694 158.063 483.941 157.905 484.212V489ZM55.6433 510.168C54.6447 510.168 53.8327 509.832 53.2073 509.16C52.582 508.479 52.2693 507.629 52.2693 506.612C52.2693 505.595 52.582 504.75 53.2073 504.078C53.8327 503.406 54.6447 503.07 55.6433 503.07C56.6887 503.07 57.5147 503.462 58.1213 504.246L57.4213 504.89C56.992 504.302 56.418 504.008 55.6993 504.008C54.99 504.008 54.4207 504.251 53.9913 504.736C53.5713 505.221 53.3613 505.847 53.3613 506.612C53.3613 507.377 53.5713 508.007 53.9913 508.502C54.4207 508.987 54.99 509.23 55.6993 509.23C56.4087 509.23 56.9827 508.936 57.4213 508.348L58.1213 508.992C57.5147 509.776 56.6887 510.168 55.6433 510.168ZM60.643 510H59.593V500.662H60.643V510ZM63.2555 502.272C63.0688 502.272 62.9055 502.207 62.7655 502.076C62.6255 501.936 62.5555 501.768 62.5555 501.572C62.5555 501.376 62.6255 501.208 62.7655 501.068C62.9055 500.928 63.0688 500.858 63.2555 500.858C63.4515 500.858 63.6195 500.928 63.7595 501.068C63.8995 501.208 63.9695 501.376 63.9695 501.572C63.9695 501.768 63.8995 501.936 63.7595 502.076C63.6195 502.207 63.4515 502.272 63.2555 502.272ZM63.7875 510H62.7375V503.238H63.7875V510ZM68.934 510.168C67.926 510.168 67.1 509.841 66.456 509.188C65.812 508.525 65.49 507.667 65.49 506.612C65.49 505.623 65.8074 504.787 66.442 504.106C67.0767 503.415 67.87 503.07 68.822 503.07C69.8207 503.07 70.6094 503.415 71.188 504.106C71.776 504.787 72.07 505.651 72.07 506.696V506.962H66.596C66.6427 507.625 66.8854 508.18 67.324 508.628C67.7627 509.076 68.332 509.3 69.032 509.3C69.872 509.3 70.5674 509.015 71.118 508.446L71.622 509.132C70.9314 509.823 70.0354 510.168 68.934 510.168ZM71.034 506.192C71.0247 505.613 70.8287 505.095 70.446 504.638C70.0634 504.171 69.5174 503.938 68.808 503.938C68.136 503.938 67.604 504.167 67.212 504.624C66.8294 505.081 66.624 505.604 66.596 506.192H71.034ZM79.3847 510H78.3347V505.576C78.3347 505.007 78.204 504.605 77.9427 504.372C77.6814 504.129 77.308 504.008 76.8227 504.008C76.4307 504.008 76.048 504.111 75.6747 504.316C75.3107 504.521 75.026 504.769 74.8207 505.058V510H73.7707V503.238H74.8207V504.218C75.082 503.91 75.432 503.644 75.8707 503.42C76.3094 503.187 76.762 503.07 77.2287 503.07C78.666 503.07 79.3847 503.798 79.3847 505.254V510ZM83.1896 510.168C82.695 510.168 82.3216 510.033 82.0696 509.762C81.8176 509.491 81.6916 509.099 81.6916 508.586V504.162H80.5716V503.238H81.6916V501.39H82.7416V503.238H84.1136V504.162H82.7416V508.362C82.7416 508.623 82.7976 508.833 82.9096 508.992C83.031 509.151 83.2036 509.23 83.4276 509.23C83.7356 509.23 83.9736 509.137 84.1416 508.95L84.4496 509.734C84.1416 510.023 83.7216 510.168 83.1896 510.168ZM92.5383 510.168C91.5863 510.168 90.8256 509.771 90.2563 508.978V512.576H89.2063V503.238H90.2563V504.246C90.5083 503.891 90.8349 503.607 91.2363 503.392C91.6376 503.177 92.0716 503.07 92.5383 503.07C93.4343 503.07 94.1576 503.392 94.7083 504.036C95.2683 504.671 95.5482 505.529 95.5482 506.612C95.5482 507.695 95.2683 508.558 94.7083 509.202C94.1576 509.846 93.4343 510.168 92.5383 510.168ZM92.2722 509.23C92.9349 509.23 93.4623 508.987 93.8543 508.502C94.2463 508.007 94.4423 507.377 94.4423 506.612C94.4423 505.847 94.2463 505.221 93.8543 504.736C93.4623 504.251 92.9349 504.008 92.2722 504.008C91.8709 504.008 91.4789 504.115 91.0963 504.33C90.7229 504.535 90.4429 504.787 90.2563 505.086V508.138C90.4429 508.446 90.7229 508.707 91.0963 508.922C91.4789 509.127 91.8709 509.23 92.2722 509.23ZM98.268 510H97.218V503.238H98.268V504.33C98.8933 503.509 99.6446 503.098 100.522 503.098V504.176C100.391 504.148 100.251 504.134 100.102 504.134C99.7846 504.134 99.4393 504.246 99.066 504.47C98.6926 504.694 98.4266 504.941 98.268 505.212V510ZM107.215 509.146C106.608 509.827 105.801 510.168 104.793 510.168C103.785 510.168 102.973 509.827 102.357 509.146C101.75 508.465 101.447 507.62 101.447 506.612C101.447 505.604 101.75 504.764 102.357 504.092C102.973 503.411 103.785 503.07 104.793 503.07C105.801 503.07 106.608 503.411 107.215 504.092C107.831 504.764 108.139 505.604 108.139 506.612C108.139 507.62 107.831 508.465 107.215 509.146ZM103.141 508.474C103.552 508.978 104.102 509.23 104.793 509.23C105.484 509.23 106.03 508.978 106.431 508.474C106.832 507.961 107.033 507.34 107.033 506.612C107.033 505.884 106.832 505.268 106.431 504.764C106.03 504.26 105.484 504.008 104.793 504.008C104.102 504.008 103.552 504.265 103.141 504.778C102.74 505.282 102.539 505.893 102.539 506.612C102.539 507.34 102.74 507.961 103.141 508.474ZM110.369 502.272C110.182 502.272 110.019 502.207 109.879 502.076C109.739 501.936 109.669 501.768 109.669 501.572C109.669 501.376 109.739 501.208 109.879 501.068C110.019 500.928 110.182 500.858 110.369 500.858C110.565 500.858 110.733 500.928 110.873 501.068C111.013 501.208 111.083 501.376 111.083 501.572C111.083 501.768 111.013 501.936 110.873 502.076C110.733 502.207 110.565 502.272 110.369 502.272ZM108.899 512.744C108.348 512.744 107.853 512.576 107.415 512.24L107.793 511.442C108.082 511.731 108.404 511.876 108.759 511.876C109.095 511.876 109.361 511.773 109.557 511.568C109.753 511.372 109.851 511.069 109.851 510.658V503.238H110.901V510.658C110.901 511.321 110.728 511.834 110.383 512.198C110.037 512.562 109.543 512.744 108.899 512.744ZM116.047 510.168C115.039 510.168 114.213 509.841 113.569 509.188C112.925 508.525 112.603 507.667 112.603 506.612C112.603 505.623 112.921 504.787 113.555 504.106C114.19 503.415 114.983 503.07 115.935 503.07C116.934 503.07 117.723 503.415 118.301 504.106C118.889 504.787 119.183 505.651 119.183 506.696V506.962H113.709C113.756 507.625 113.999 508.18 114.437 508.628C114.876 509.076 115.445 509.3 116.145 509.3C116.985 509.3 117.681 509.015 118.231 508.446L118.735 509.132C118.045 509.823 117.149 510.168 116.047 510.168ZM118.147 506.192C118.138 505.613 117.942 505.095 117.559 504.638C117.177 504.171 116.631 503.938 115.921 503.938C115.249 503.938 114.717 504.167 114.325 504.624C113.943 505.081 113.737 505.604 113.709 506.192H118.147ZM123.866 510.168C122.867 510.168 122.055 509.832 121.43 509.16C120.805 508.479 120.492 507.629 120.492 506.612C120.492 505.595 120.805 504.75 121.43 504.078C122.055 503.406 122.867 503.07 123.866 503.07C124.911 503.07 125.737 503.462 126.344 504.246L125.644 504.89C125.215 504.302 124.641 504.008 123.922 504.008C123.213 504.008 122.643 504.251 122.214 504.736C121.794 505.221 121.584 505.847 121.584 506.612C121.584 507.377 121.794 508.007 122.214 508.502C122.643 508.987 123.213 509.23 123.922 509.23C124.631 509.23 125.205 508.936 125.644 508.348L126.344 508.992C125.737 509.776 124.911 510.168 123.866 510.168ZM129.524 510.168C129.029 510.168 128.656 510.033 128.404 509.762C128.152 509.491 128.026 509.099 128.026 508.586V504.162H126.906V503.238H128.026V501.39H129.076V503.238H130.448V504.162H129.076V508.362C129.076 508.623 129.132 508.833 129.244 508.992C129.365 509.151 129.538 509.23 129.762 509.23C130.07 509.23 130.308 509.137 130.476 508.95L130.784 509.734C130.476 510.023 130.056 510.168 129.524 510.168ZM134.073 510.168C132.925 510.168 132.015 509.813 131.343 509.104L131.889 508.348C132.122 508.619 132.44 508.847 132.841 509.034C133.252 509.221 133.676 509.314 134.115 509.314C134.619 509.314 135.011 509.207 135.291 508.992C135.571 508.777 135.711 508.497 135.711 508.152C135.711 507.853 135.566 507.62 135.277 507.452C134.988 507.275 134.638 507.144 134.227 507.06C133.826 506.967 133.42 506.864 133.009 506.752C132.598 506.631 132.248 506.43 131.959 506.15C131.67 505.861 131.525 505.483 131.525 505.016C131.525 504.465 131.749 504.003 132.197 503.63C132.654 503.257 133.27 503.07 134.045 503.07C135.062 503.07 135.898 503.397 136.551 504.05L136.061 504.778C135.585 504.209 134.913 503.924 134.045 503.924C133.588 503.924 133.224 504.027 132.953 504.232C132.682 504.428 132.547 504.68 132.547 504.988C132.547 505.259 132.692 505.473 132.981 505.632C133.27 505.781 133.616 505.903 134.017 505.996C134.428 506.08 134.838 506.183 135.249 506.304C135.66 506.425 136.01 506.64 136.299 506.948C136.588 507.247 136.733 507.639 136.733 508.124C136.733 508.721 136.5 509.211 136.033 509.594C135.566 509.977 134.913 510.168 134.073 510.168Z" fill="white"/>
<g clip-path="url(#clip0_21_1634)">
<path d="M35 558.181L41.7083 553.823V562.538L35 558.181Z" fill="white"/>
<path d="M44.5039 557.901L56.2435 548.46V567.341L44.5039 557.901Z" fill="#12E2B0"/>
</g>
<rect x="178.43" y="246.429" width="12.4286" height="12.4286" transform="rotate(45 178.43 246.429)" fill="white"/>
<rect x="185.715" y="262.714" width="6" height="6" fill="#12E2B0"/>
<path d="M129 17.3998L121.8 12.7233V22.0763L129 17.3998Z" fill="#12E2B0"/>
<path d="M105 11.7L117.6 21.8325V1.5675L105 11.7Z" fill="white"/>
<defs>
<clipPath id="clip0_21_1634">
<rect width="23" height="23" fill="white" transform="translate(35 547)"/>
</clipPath>
</defs>
</svg>
