<svg width="264" height="176" viewBox="0 0 264 176" fill="none" xmlns="http://www.w3.org/2000/svg">
<path d="M10.1454 21.935C8.36091 21.935 6.7221 21.5162 5.22897 20.6785C3.73584 19.8409 2.55226 18.6847 1.67823 17.2097C0.804202 15.7166 0.367188 14.0323 0.367188 12.1568C0.367188 10.2995 0.804202 8.63335 1.67823 7.15842C2.55226 5.66529 3.73584 4.49992 5.22897 3.66231C6.7221 2.8247 8.36091 2.4059 10.1454 2.4059C11.9481 2.4059 13.5869 2.8247 15.0618 3.66231C16.5549 4.49992 17.7294 5.66529 18.5852 7.15842C19.4592 8.63335 19.8963 10.2995 19.8963 12.1568C19.8963 14.0323 19.4592 15.7166 18.5852 17.2097C17.7294 18.6847 16.5549 19.8409 15.0618 20.6785C13.5687 21.5162 11.9299 21.935 10.1454 21.935ZM10.1454 18.5208C11.2925 18.5208 12.3031 18.2659 13.1772 17.756C14.0512 17.228 14.734 16.4814 15.2257 15.5163C15.7173 14.5512 15.9631 13.4314 15.9631 12.1568C15.9631 10.8821 15.7173 9.7714 15.2257 8.82454C14.734 7.85947 14.0512 7.12201 13.1772 6.61216C12.3031 6.10231 11.2925 5.84738 10.1454 5.84738C8.99822 5.84738 7.97852 6.10231 7.08628 6.61216C6.21225 7.12201 5.52942 7.85947 5.03778 8.82454C4.54614 9.7714 4.30032 10.8821 4.30032 12.1568C4.30032 13.4314 4.54614 14.5512 5.03778 15.5163C5.52942 16.4814 6.21225 17.228 7.08628 17.756C7.97852 18.2659 8.99822 18.5208 10.1454 18.5208Z" fill="white"/>
<path d="M37.2992 6.61216V21.7438L33.448 21.7438V19.8318C32.9563 20.4874 32.3099 21.0063 31.5087 21.3887C30.7257 21.7529 29.8699 21.935 28.9413 21.935C27.7577 21.935 26.7107 21.6891 25.8002 21.1975C24.8898 20.6877 24.1705 19.9502 23.6425 18.9851C23.1326 18.0018 22.8777 16.8365 22.8777 15.489V6.61216L26.7016 6.61216V14.9427C26.7016 16.1445 27.002 17.0732 27.6029 17.7287C28.2038 18.366 29.0232 18.6847 30.0611 18.6847C31.1172 18.6847 31.9457 18.366 32.5466 17.7287C33.1475 17.0732 33.448 16.1445 33.448 14.9427V6.61216H37.2992Z" fill="white"/>
<path d="M45.169 8.96111C45.6607 8.15991 46.298 7.53171 47.081 7.07648C47.8822 6.62126 48.7926 6.39365 49.8123 6.39365V10.4087H48.8017C47.5999 10.4087 46.6895 10.691 46.0704 11.2554C45.4695 11.8199 45.169 12.8032 45.169 14.2053V21.7438H41.3452V6.61216L45.169 6.61216V8.96111Z" fill="white"/>
<path d="M59.06 7.07648C59.1511 5.25559 59.7884 3.8535 60.972 2.87022C62.1738 1.86873 63.7488 1.36799 65.6972 1.36799C67.0264 1.36799 68.1645 1.6047 69.1114 2.07813C70.0582 2.53336 70.7684 3.16157 71.2418 3.96276C71.7334 4.74574 71.9793 5.63798 71.9793 6.63947C71.9793 7.78663 71.6788 8.76081 71.0779 9.562C70.4952 10.345 69.7942 10.873 68.9748 11.1462V11.2554C70.0309 11.5832 70.8503 12.1659 71.433 13.0035C72.0339 13.8411 72.3343 14.9154 72.3343 16.2265C72.3343 17.319 72.0794 18.2932 71.5696 19.149C71.0779 20.0048 70.3405 20.6785 69.3572 21.1702C68.3921 21.6436 67.2267 21.8803 65.8611 21.8803C63.8035 21.8803 62.1282 21.3614 60.8354 20.3235C59.5426 19.2856 58.8597 17.756 58.7869 15.7348H62.5015C62.5379 16.6271 62.8384 17.3463 63.4029 17.8926C63.9855 18.4206 64.7776 18.6847 65.7791 18.6847C66.7078 18.6847 67.4179 18.4297 67.9096 17.9199C68.4194 17.3918 68.6743 16.7181 68.6743 15.8987C68.6743 14.8062 68.3284 14.0232 67.6364 13.5498C66.9445 13.0763 65.8702 12.8396 64.4135 12.8396H63.6214V9.69857H64.4135C66.9991 9.69857 68.292 8.83365 68.292 7.1038C68.292 6.32081 68.0552 5.71081 67.5818 5.2738C67.1266 4.83679 66.462 4.61828 65.5879 4.61828C64.7321 4.61828 64.0675 4.855 63.5941 5.32843C63.1388 5.78365 62.8748 6.36634 62.802 7.07648L59.06 7.07648Z" fill="white"/>
<path d="M87.7018 10.3814V13.6044L76.1209 13.6044V10.3814L87.7018 10.3814Z" fill="white"/>
<path d="M106.166 8.57872C106.166 9.59842 105.92 10.5544 105.428 11.4466C104.955 12.3389 104.199 13.0581 103.161 13.6044C102.142 14.1507 100.849 14.4238 99.2828 14.4238H96.0872V21.7438H92.2633V2.67903L99.2828 2.67903C100.758 2.67903 102.014 2.93395 103.052 3.4438C104.09 3.95365 104.864 4.6547 105.374 5.54693C105.902 6.43917 106.166 7.44977 106.166 8.57872ZM99.119 11.3374C100.175 11.3374 100.958 11.1007 101.468 10.6272C101.978 10.1356 102.233 9.45275 102.233 8.57872C102.233 6.72141 101.195 5.79275 99.119 5.79275H96.0872V11.3374H99.119Z" fill="white"/>
<path d="M117.676 6.39365C118.823 6.39365 119.842 6.64857 120.735 7.15842C121.627 7.65006 122.319 8.38753 122.811 9.37081C123.32 10.3359 123.575 11.5013 123.575 12.8669V21.7438H119.751V13.3859C119.751 12.1841 119.451 11.2645 118.85 10.6272C118.249 9.9717 117.43 9.64394 116.392 9.64394C115.336 9.64394 114.498 9.9717 113.879 10.6272C113.278 11.2645 112.978 12.1841 112.978 13.3859V21.7438H109.154V1.53187L112.978 1.53187V8.49678C113.469 7.84126 114.125 7.33141 114.944 6.96723C115.764 6.58484 116.674 6.39365 117.676 6.39365Z" fill="white"/>
<path d="M126.501 14.1233C126.501 12.5938 126.802 11.2372 127.403 10.0536C128.022 8.87006 128.85 7.95962 129.888 7.32231C130.944 6.68499 132.119 6.36634 133.412 6.36634C134.541 6.36634 135.524 6.59395 136.362 7.04917C137.217 7.50439 137.9 8.07798 138.41 8.76991V6.61216H142.261V21.7438H138.41V19.5314C137.918 20.2415 137.236 20.8333 136.362 21.3068C135.506 21.762 134.513 21.9896 133.384 21.9896C132.11 21.9896 130.944 21.6618 129.888 21.0063C128.85 20.3508 128.022 19.4312 127.403 18.2477C126.802 17.0459 126.501 15.6711 126.501 14.1233ZM138.41 14.178C138.41 13.2493 138.228 12.4572 137.864 11.8017C137.5 11.128 137.008 10.6181 136.389 10.2722C135.77 9.90797 135.105 9.72588 134.395 9.72588C133.685 9.72588 133.029 9.89887 132.428 10.2448C131.828 10.5908 131.336 11.1007 130.954 11.7744C130.589 12.4299 130.407 13.2129 130.407 14.1233C130.407 15.0338 130.589 15.835 130.954 16.5269C131.336 17.2006 131.828 17.7196 132.428 18.0838C133.048 18.448 133.703 18.63 134.395 18.63C135.105 18.63 135.77 18.4571 136.389 18.1111C137.008 17.7469 137.5 17.2371 137.864 16.5815C138.228 15.9078 138.41 15.1066 138.41 14.178Z" fill="white"/>
<path d="M152.06 21.9896C150.821 21.9896 149.711 21.7711 148.727 21.3341C147.744 20.8788 146.961 20.2688 146.378 19.5041C145.814 18.7393 145.504 17.8926 145.45 16.9639H149.301C149.374 17.5466 149.656 18.0292 150.148 18.4115C150.657 18.7939 151.286 18.9851 152.032 18.9851C152.761 18.9851 153.325 18.8394 153.726 18.5481C154.145 18.2568 154.354 17.8835 154.354 17.4283C154.354 16.9366 154.099 16.5724 153.589 16.3357C153.097 16.0808 152.305 15.8077 151.213 15.5163C150.084 15.2432 149.155 14.9609 148.427 14.6696C147.717 14.3783 147.098 13.9321 146.57 13.3312C146.06 12.7304 145.805 11.9201 145.805 10.9004C145.805 10.0627 146.042 9.29797 146.515 8.60603C147.007 7.91409 147.699 7.36783 148.591 6.96723C149.501 6.56663 150.566 6.36634 151.786 6.36634C153.589 6.36634 155.028 6.82156 156.102 7.73201C157.176 8.62424 157.768 9.83514 157.877 11.3647H154.217C154.163 10.7638 153.908 10.2904 153.453 9.94439C153.016 9.58021 152.424 9.39812 151.677 9.39812C150.985 9.39812 150.448 9.52558 150.066 9.78051C149.702 10.0354 149.519 10.3905 149.519 10.8457C149.519 11.3556 149.774 11.7471 150.284 12.0202C150.794 12.2751 151.586 12.5392 152.66 12.8123C153.753 13.0854 154.654 13.3677 155.365 13.659C156.075 13.9504 156.685 14.4056 157.194 15.0247C157.723 15.6256 157.996 16.4268 158.014 17.4283C158.014 18.3023 157.768 19.0853 157.276 19.7772C156.803 20.4691 156.111 21.0154 155.201 21.416C154.308 21.7984 153.261 21.9896 152.06 21.9896Z" fill="white"/>
<path d="M175.492 13.8502C175.492 14.3965 175.456 14.8881 175.383 15.3251H164.321C164.412 16.4177 164.795 17.2735 165.468 17.8926C166.142 18.5117 166.971 18.8212 167.954 18.8212C169.374 18.8212 170.385 18.2112 170.986 16.9912H175.11C174.673 18.448 173.835 19.6497 172.597 20.5966C171.359 21.5253 169.838 21.9896 168.036 21.9896C166.579 21.9896 165.268 21.6709 164.103 21.0336C162.955 20.3781 162.054 19.4586 161.399 18.275C160.761 17.0914 160.443 15.7257 160.443 14.178C160.443 12.612 160.761 11.2372 161.399 10.0536C162.036 8.87006 162.928 7.95962 164.075 7.32231C165.222 6.68499 166.543 6.36634 168.036 6.36634C169.474 6.36634 170.758 6.67589 171.887 7.29499C173.034 7.91409 173.917 8.79723 174.536 9.94439C175.174 11.0733 175.492 12.3753 175.492 13.8502ZM171.532 12.7577C171.514 11.7744 171.159 10.9914 170.467 10.4087C169.775 9.80782 168.928 9.50738 167.927 9.50738C166.98 9.50738 166.178 9.79872 165.523 10.3814C164.886 10.9459 164.494 11.738 164.348 12.7577H171.532Z" fill="white"/>
<path d="M202.463 2.67903L195.471 21.7438H190.828L183.836 2.67903H187.933L193.177 17.838L198.394 2.67903H202.463Z" fill="white"/>
<path d="M206.968 4.80947C206.295 4.80947 205.73 4.60007 205.275 4.18127C204.838 3.74425 204.62 3.20709 204.62 2.56978C204.62 1.93246 204.838 1.4044 205.275 0.985599C205.73 0.548585 206.295 0.330078 206.968 0.330078C207.642 0.330078 208.198 0.548585 208.635 0.985599C209.09 1.4044 209.317 1.93246 209.317 2.56978C209.317 3.20709 209.09 3.74425 208.635 4.18127C208.198 4.60007 207.642 4.80947 206.968 4.80947ZM208.853 6.61216V21.7438H205.029V6.61216H208.853Z" fill="white"/>
<path d="M211.921 14.1233C211.921 12.5938 212.221 11.2372 212.822 10.0536C213.441 8.87006 214.279 7.95962 215.335 7.32231C216.391 6.68499 217.566 6.36634 218.859 6.36634C219.842 6.36634 220.78 6.58484 221.672 7.02186C222.564 7.44066 223.274 8.00514 223.802 8.71529V1.53187L227.681 1.53187V21.7438H223.802V19.5041C223.329 20.2506 222.664 20.8515 221.808 21.3068C220.953 21.762 219.96 21.9896 218.831 21.9896C217.557 21.9896 216.391 21.6618 215.335 21.0063C214.279 20.3508 213.441 19.4312 212.822 18.2477C212.221 17.0459 211.921 15.6711 211.921 14.1233ZM223.83 14.178C223.83 13.2493 223.647 12.4572 223.283 11.8017C222.919 11.128 222.428 10.6181 221.808 10.2722C221.189 9.90797 220.525 9.72588 219.815 9.72588C219.104 9.72588 218.449 9.89887 217.848 10.2448C217.247 10.5908 216.755 11.1007 216.373 11.7744C216.009 12.4299 215.827 13.2129 215.827 14.1233C215.827 15.0338 216.009 15.835 216.373 16.5269C216.755 17.2006 217.247 17.7196 217.848 18.0838C218.467 18.448 219.123 18.63 219.815 18.63C220.525 18.63 221.189 18.4571 221.808 18.1111C222.428 17.7469 222.919 17.2371 223.283 16.5815C223.647 15.9078 223.83 15.1066 223.83 14.178Z" fill="white"/>
<path d="M245.755 13.8502C245.755 14.3965 245.719 14.8881 245.646 15.3251H234.584C234.675 16.4177 235.057 17.2735 235.731 17.8926C236.405 18.5117 237.233 18.8212 238.216 18.8212C239.637 18.8212 240.647 18.2112 241.248 16.9912H245.373C244.936 18.448 244.098 19.6497 242.86 20.5966C241.622 21.5253 240.101 21.9896 238.298 21.9896C236.842 21.9896 235.531 21.6709 234.365 21.0336C233.218 20.3781 232.317 19.4586 231.661 18.275C231.024 17.0914 230.705 15.7257 230.705 14.178C230.705 12.612 231.024 11.2372 231.661 10.0536C232.299 8.87006 233.191 7.95962 234.338 7.32231C235.485 6.68499 236.805 6.36634 238.298 6.36634C239.737 6.36634 241.021 6.67589 242.15 7.29499C243.297 7.91409 244.18 8.79723 244.799 9.94439C245.436 11.0733 245.755 12.3753 245.755 13.8502ZM241.795 12.7577C241.776 11.7744 241.421 10.9914 240.729 10.4087C240.037 9.80782 239.191 9.50738 238.189 9.50738C237.242 9.50738 236.441 9.79872 235.786 10.3814C235.148 10.9459 234.757 11.738 234.611 12.7577H241.795Z" fill="white"/>
<path d="M255.538 21.9896C254.082 21.9896 252.771 21.6709 251.605 21.0336C250.44 20.3781 249.52 19.4586 248.846 18.275C248.191 17.0914 247.863 15.7257 247.863 14.178C247.863 12.6302 248.2 11.2645 248.874 10.081C249.566 8.89738 250.503 7.98693 251.687 7.34962C252.871 6.6941 254.191 6.36634 255.648 6.36634C257.104 6.36634 258.424 6.6941 259.608 7.34962C260.792 7.98693 261.72 8.89738 262.394 10.081C263.086 11.2645 263.432 12.6302 263.432 14.178C263.432 15.7257 263.077 17.0914 262.367 18.275C261.675 19.4586 260.728 20.3781 259.526 21.0336C258.342 21.6709 257.013 21.9896 255.538 21.9896ZM255.538 18.6574C256.23 18.6574 256.877 18.4935 257.478 18.1657C258.097 17.8197 258.588 17.3099 258.952 16.6362C259.317 15.9624 259.499 15.143 259.499 14.178C259.499 12.7395 259.116 11.6378 258.352 10.873C257.605 10.0901 256.685 9.69857 255.593 9.69857C254.5 9.69857 253.581 10.0901 252.834 10.873C252.106 11.6378 251.742 12.7395 251.742 14.178C251.742 15.6165 252.097 16.7272 252.807 17.5102C253.535 18.275 254.446 18.6574 255.538 18.6574Z" fill="white"/>
<path d="M56.1323 60.1532L51.926 52.724H50.1233V60.1532H46.2995V41.0885H53.4556C54.9305 41.0885 56.1869 41.3525 57.2248 41.8806C58.2627 42.3904 59.0366 43.0915 59.5465 43.9837C60.0745 44.8577 60.3385 45.841 60.3385 46.9335C60.3385 48.19 59.9744 49.328 59.246 50.3477C58.5176 51.3492 57.4342 52.0411 55.9957 52.4235L60.557 60.1532H56.1323ZM50.1233 49.8561H53.319C54.3569 49.8561 55.1308 49.6102 55.6406 49.1186C56.1505 48.6088 56.4054 47.9077 56.4054 47.0155C56.4054 46.1414 56.1505 45.4677 55.6406 44.9943C55.1308 44.5026 54.3569 44.2568 53.319 44.2568H50.1233V49.8561Z" fill="white"/>
<path d="M78.1366 52.2596C78.1366 52.8059 78.1002 53.2976 78.0274 53.7346L66.9654 53.7346C67.0565 54.8271 67.4389 55.6829 68.1126 56.302C68.7863 56.9211 69.6148 57.2307 70.5981 57.2307C72.0184 57.2307 73.029 56.6207 73.6299 55.4007H77.7542C77.3172 56.8574 76.4796 58.0592 75.2414 59.0061C74.0032 59.9347 72.4828 60.399 70.6801 60.399C69.2234 60.399 67.9123 60.0804 66.7469 59.4431C65.5998 58.7875 64.6984 57.868 64.0429 56.6844C63.4056 55.5008 63.0869 54.1352 63.0869 52.5874C63.0869 51.0214 63.4056 49.6467 64.0429 48.4631C64.6802 47.2795 65.5725 46.3691 66.7196 45.7318C67.8668 45.0944 69.1869 44.7758 70.6801 44.7758C72.1186 44.7758 73.4023 45.0853 74.5313 45.7044C75.6784 46.3235 76.5616 47.2067 77.1807 48.3538C77.818 49.4828 78.1366 50.7847 78.1366 52.2596ZM74.1762 51.1671C74.158 50.1838 73.8029 49.4008 73.111 48.8182C72.419 48.2173 71.5723 47.9168 70.5708 47.9168C69.6239 47.9168 68.8228 48.2082 68.1672 48.7909C67.5299 49.3553 67.1384 50.1474 66.9928 51.1671L74.1762 51.1671Z" fill="white"/>
<path d="M80.2176 52.5874C80.2176 51.0214 80.5362 49.6558 81.1735 48.4904C81.8108 47.3068 82.694 46.3964 83.8229 45.7591C84.9519 45.1035 86.2447 44.7758 87.7014 44.7758C89.577 44.7758 91.1247 45.2492 92.3447 46.1961C93.5829 47.1247 94.4114 48.4358 94.8302 50.1292H90.7059C90.4874 49.4737 90.1141 48.9638 89.5861 48.5997C89.0762 48.2173 88.4389 48.0261 87.6741 48.0261C86.5816 48.0261 85.7167 48.4267 85.0793 49.2279C84.442 50.0108 84.1234 51.1307 84.1234 52.5874C84.1234 54.0259 84.442 55.1458 85.0793 55.947C85.7167 56.7299 86.5816 57.1214 87.6741 57.1214C89.2219 57.1214 90.2325 56.4295 90.7059 55.0456H94.8302C94.4114 56.6844 93.5829 57.9864 92.3447 58.9514C91.1065 59.9165 89.5587 60.399 87.7014 60.399C86.2447 60.399 84.9519 60.0804 83.8229 59.4431C82.694 58.7875 81.8108 57.8771 81.1735 56.7117C80.5362 55.5281 80.2176 54.1534 80.2176 52.5874Z" fill="white"/>
<path d="M101.729 47.3706C102.22 46.5694 102.858 45.9412 103.64 45.4859C104.442 45.0307 105.352 44.8031 106.372 44.8031V48.8182H105.361C104.159 48.8182 103.249 49.1004 102.63 49.6649C102.029 50.2294 101.729 51.2126 101.729 52.6147V60.1532H97.9047V45.0216H101.729V47.3706Z" fill="white"/>
<path d="M123.505 45.0216V60.1532H119.654V58.2413C119.163 58.8968 118.516 59.4158 117.715 59.7981C116.932 60.1623 116.076 60.3444 115.148 60.3444C113.964 60.3444 112.917 60.0986 112.007 59.6069C111.096 59.0971 110.377 58.3596 109.849 57.3946C109.339 56.4113 109.084 55.2459 109.084 53.8984V45.0216H112.908V53.3522C112.908 54.554 113.208 55.4826 113.809 56.1381C114.41 56.7755 115.229 57.0941 116.267 57.0941C117.324 57.0941 118.152 56.7755 118.753 56.1381C119.354 55.4826 119.654 54.554 119.654 53.3522V45.0216H123.505Z" fill="white"/>
<path d="M129.491 43.2189C128.817 43.2189 128.253 43.0095 127.797 42.5907C127.36 42.1537 127.142 41.6165 127.142 40.9792C127.142 40.3419 127.36 39.8139 127.797 39.395C128.253 38.958 128.817 38.7395 129.491 38.7395C130.164 38.7395 130.72 38.958 131.157 39.395C131.612 39.8139 131.84 40.3419 131.84 40.9792C131.84 41.6165 131.612 42.1537 131.157 42.5907C130.72 43.0095 130.164 43.2189 129.491 43.2189ZM131.375 45.0216V60.1532H127.551V45.0216H131.375Z" fill="white"/>
<path d="M139.879 48.1626V55.4826C139.879 55.9925 139.997 56.3658 140.234 56.6025C140.489 56.821 140.907 56.9302 141.49 56.9302H143.265V60.1532H140.862C137.639 60.1532 136.027 58.5872 136.027 55.4553V48.1626H134.225V45.0216H136.027V41.2797H139.879V45.0216H143.265V48.1626H139.879Z" fill="white"/>
<path d="M165.08 44.8031C166.938 44.8031 168.431 45.3767 169.56 46.5238C170.707 47.6528 171.281 49.237 171.281 51.2764V60.1532H167.457V51.7953C167.457 50.6117 167.156 49.7104 166.555 49.0913C165.955 48.454 165.135 48.1353 164.097 48.1353C163.059 48.1353 162.231 48.454 161.612 49.0913C161.011 49.7104 160.71 50.6117 160.71 51.7953V60.1532H156.886V51.7953C156.886 50.6117 156.586 49.7104 155.985 49.0913C155.384 48.454 154.565 48.1353 153.527 48.1353C152.471 48.1353 151.633 48.454 151.014 49.0913C150.413 49.7104 150.113 50.6117 150.113 51.7953V60.1532H146.289V45.0216H150.113V46.8516C150.604 46.2143 151.233 45.7135 151.997 45.3494C152.78 44.9852 153.636 44.8031 154.565 44.8031C155.748 44.8031 156.805 45.058 157.733 45.5679C158.662 46.0595 159.381 46.7697 159.891 47.6983C160.383 46.8243 161.093 46.1232 162.021 45.5952C162.968 45.0671 163.988 44.8031 165.08 44.8031Z" fill="white"/>
<path d="M189.249 52.2596C189.249 52.8059 189.212 53.2976 189.14 53.7346H178.078C178.169 54.8271 178.551 55.6829 179.225 56.302C179.898 56.9211 180.727 57.2307 181.71 57.2307C183.131 57.2307 184.141 56.6207 184.742 55.4007H188.866C188.429 56.8574 187.592 58.0592 186.354 59.0061C185.115 59.9347 183.595 60.399 181.792 60.399C180.335 60.399 179.024 60.0804 177.859 59.4431C176.712 58.7875 175.811 57.868 175.155 56.6844C174.518 55.5008 174.199 54.1352 174.199 52.5874C174.199 51.0214 174.518 49.6467 175.155 48.4631C175.792 47.2795 176.685 46.3691 177.832 45.7318C178.979 45.0944 180.299 44.7758 181.792 44.7758C183.231 44.7758 184.514 45.0853 185.643 45.7044C186.791 46.3235 187.674 47.2067 188.293 48.3538C188.93 49.4828 189.249 50.7847 189.249 52.2596ZM185.288 51.1671C185.27 50.1838 184.915 49.4008 184.223 48.8182C183.531 48.2173 182.684 47.9168 181.683 47.9168C180.736 47.9168 179.935 48.2082 179.279 48.7909C178.642 49.3553 178.251 50.1474 178.105 51.1671H185.288Z" fill="white"/>
<path d="M200.698 44.8031C202.501 44.8031 203.958 45.3767 205.068 46.5238C206.179 47.6528 206.734 49.237 206.734 51.2764V60.1532H202.911V51.7953C202.911 50.5935 202.61 49.674 202.009 49.0367C201.408 48.3811 200.589 48.0534 199.551 48.0534C198.495 48.0534 197.657 48.3811 197.038 49.0367C196.437 49.674 196.137 50.5935 196.137 51.7953V60.1532H192.313V45.0216H196.137V46.9062C196.647 46.2507 197.293 45.7409 198.076 45.3767C198.877 44.9943 199.751 44.8031 200.698 44.8031Z" fill="white"/>
<path d="M215.096 48.1626V55.4826C215.096 55.9925 215.214 56.3658 215.451 56.6025C215.706 56.821 216.125 56.9302 216.708 56.9302H218.483V60.1532H216.079C212.856 60.1532 211.245 58.5872 211.245 55.4553V48.1626H209.442V45.0216H211.245V41.2797H215.096V45.0216H218.483V48.1626H215.096Z" fill="white"/>
<path d="M36.7751 98.7539C35.4458 98.7539 34.244 98.5263 33.1697 98.071C32.1136 97.6158 31.276 96.9603 30.6569 96.1045C30.0378 95.2486 29.7191 94.238 29.7009 93.0727H33.7979C33.8526 93.8557 34.1257 94.4748 34.6173 94.93C35.1272 95.3852 35.8191 95.6128 36.6931 95.6128C37.5854 95.6128 38.2864 95.4034 38.7963 94.9846C39.3061 94.5476 39.5611 93.9831 39.5611 93.2912C39.5611 92.7267 39.3881 92.2624 39.0421 91.8982C38.6961 91.534 38.2591 91.2518 37.7311 91.0515C37.2212 90.833 36.5111 90.5963 35.6006 90.3413C34.3624 89.9771 33.3518 89.6221 32.5688 89.2761C31.8041 88.9119 31.1394 88.3748 30.5749 87.6646C30.0287 86.9363 29.7555 85.9712 29.7555 84.7694C29.7555 83.6404 30.0378 82.6572 30.6023 81.8196C31.1667 80.9819 31.9588 80.3446 32.9785 79.9076C33.9982 79.4524 35.1636 79.2248 36.4746 79.2248C38.4412 79.2248 40.0345 79.7073 41.2545 80.6724C42.4927 81.6193 43.1755 82.9485 43.303 84.6601H39.0967C39.0603 84.0046 38.7781 83.4675 38.25 83.0487C37.7402 82.6116 37.0573 82.3931 36.2015 82.3931C35.4549 82.3931 34.854 82.5843 34.3988 82.9667C33.9618 83.3491 33.7433 83.9045 33.7433 84.6328C33.7433 85.1427 33.9072 85.5706 34.2349 85.9166C34.5809 86.2443 34.9997 86.5175 35.4914 86.736C36.0012 86.9363 36.7114 87.173 37.6218 87.4461C38.86 87.8103 39.8706 88.1745 40.6536 88.5386C41.4366 88.9028 42.1103 89.4491 42.6748 90.1775C43.2393 90.9058 43.5215 91.8618 43.5215 93.0454C43.5215 94.0651 43.2575 95.0119 42.7294 95.8859C42.2013 96.76 41.4275 97.461 40.4078 97.9891C39.3881 98.4989 38.1772 98.7539 36.7751 98.7539Z" fill="white"/>
<path d="M51.5619 86.5721V93.8921C51.5619 94.4019 51.6802 94.7752 51.9169 95.0119C52.1719 95.2304 52.5907 95.3397 53.1734 95.3397H54.9487V98.5627H52.5452C49.3222 98.5627 47.7107 96.9967 47.7107 93.8648V86.5721H45.908V83.431H47.7107V79.6891H51.5619V83.431H54.9487V86.5721H51.5619Z" fill="white"/>
<path d="M61.7961 85.78C62.2877 84.9788 62.925 84.3506 63.708 83.8954C64.5092 83.4402 65.4196 83.2125 66.4393 83.2125V87.2276H65.4287C64.227 87.2276 63.3165 87.5098 62.6974 88.0743C62.0965 88.6388 61.7961 89.6221 61.7961 91.0242V98.5627H57.9722V83.431H61.7961V85.78Z" fill="white"/>
<path d="M68.3048 90.9422C68.3048 89.4127 68.6052 88.0561 69.2061 86.8725C69.8252 85.6889 70.6537 84.7785 71.6916 84.1412C72.7477 83.5039 73.9222 83.1852 75.2151 83.1852C76.344 83.1852 77.3273 83.4128 78.1649 83.8681C79.0207 84.3233 79.7036 84.8969 80.2134 85.5888V83.431H84.0646V98.5627H80.2134V96.3503C79.7218 97.0604 79.0389 97.6522 78.1649 98.1256C77.3091 98.5809 76.3167 98.8085 75.1877 98.8085C73.9131 98.8085 72.7477 98.4807 71.6916 97.8252C70.6537 97.1697 69.8252 96.2501 69.2061 95.0666C68.6052 93.8648 68.3048 92.49 68.3048 90.9422ZM80.2134 90.9968C80.2134 90.0682 80.0313 89.2761 79.6671 88.6206C79.303 87.9469 78.8113 87.437 78.1922 87.091C77.5731 86.7269 76.9085 86.5448 76.1983 86.5448C75.4882 86.5448 74.8327 86.7178 74.2318 87.0637C73.6309 87.4097 73.1392 87.9195 72.7569 88.5933C72.3927 89.2488 72.2106 90.0318 72.2106 90.9422C72.2106 91.8527 72.3927 92.6539 72.7569 93.3458C73.1392 94.0195 73.6309 94.5385 74.2318 94.9027C74.8509 95.2668 75.5064 95.4489 76.1983 95.4489C76.9085 95.4489 77.5731 95.2759 78.1922 94.93C78.8113 94.5658 79.303 94.0559 79.6671 93.4004C80.0313 92.7267 80.2134 91.9255 80.2134 90.9968Z" fill="white"/>
<path d="M92.5245 86.5721V93.8921C92.5245 94.4019 92.6429 94.7752 92.8796 95.0119C93.1345 95.2304 93.5533 95.3397 94.136 95.3397H95.9113V98.5627H93.5078C90.2848 98.5627 88.6733 96.9967 88.6733 93.8648V86.5721H86.8706V83.431H88.6733V79.6891H92.5245V83.431H95.9113V86.5721H92.5245Z" fill="white"/>
<path d="M113.001 90.6691C113.001 91.2154 112.965 91.707 112.892 92.144H101.83C101.921 93.2365 102.303 94.0924 102.977 94.7115C103.651 95.3306 104.479 95.6401 105.463 95.6401C106.883 95.6401 107.894 95.0301 108.495 93.8101H112.619C112.182 95.2668 111.344 96.4686 110.106 97.4155C108.868 98.3442 107.347 98.8085 105.545 98.8085C104.088 98.8085 102.777 98.4898 101.612 97.8525C100.464 97.197 99.563 96.2774 98.9075 95.0939C98.2702 93.9103 97.9515 92.5446 97.9515 90.9968C97.9515 89.4309 98.2702 88.0561 98.9075 86.8725C99.5448 85.6889 100.437 84.7785 101.584 84.1412C102.731 83.5039 104.052 83.1852 105.545 83.1852C106.983 83.1852 108.267 83.4948 109.396 84.1139C110.543 84.733 111.426 85.6161 112.045 86.7633C112.683 87.8922 113.001 89.1942 113.001 90.6691ZM109.041 89.5766C109.023 88.5933 108.667 87.8103 107.976 87.2276C107.284 86.6267 106.437 86.3263 105.435 86.3263C104.489 86.3263 103.687 86.6176 103.032 87.2003C102.395 87.7648 102.003 88.5569 101.857 89.5766H109.041Z" fill="white"/>
<path d="M121.992 83.1852C123.121 83.1852 124.114 83.4128 124.97 83.8681C125.825 84.3051 126.499 84.8787 126.991 85.5888V83.431H130.842V98.6719C130.842 100.074 130.56 101.321 129.995 102.414C129.431 103.525 128.584 104.399 127.455 105.036C126.326 105.691 124.96 106.019 123.358 106.019C121.209 106.019 119.443 105.518 118.059 104.517C116.694 103.515 115.92 102.15 115.738 100.42H119.534C119.735 101.112 120.162 101.658 120.818 102.059C121.492 102.478 122.302 102.687 123.249 102.687C124.36 102.687 125.261 102.35 125.953 101.676C126.645 101.021 126.991 100.019 126.991 98.6719V96.323C126.499 97.0331 125.816 97.6249 124.942 98.0983C124.086 98.5718 123.103 98.8085 121.992 98.8085C120.718 98.8085 119.552 98.4807 118.496 97.8252C117.44 97.1697 116.603 96.2501 115.983 95.0666C115.383 93.8648 115.082 92.49 115.082 90.9422C115.082 89.4127 115.383 88.0561 115.983 86.8725C116.603 85.6889 117.431 84.7785 118.469 84.1412C119.525 83.5039 120.7 83.1852 121.992 83.1852ZM126.991 90.9968C126.991 90.0682 126.809 89.2761 126.445 88.6206C126.08 87.9469 125.589 87.437 124.97 87.091C124.35 86.7269 123.686 86.5448 122.976 86.5448C122.266 86.5448 121.61 86.7178 121.009 87.0637C120.408 87.4097 119.917 87.9195 119.534 88.5933C119.17 89.2488 118.988 90.0318 118.988 90.9422C118.988 91.8527 119.17 92.6539 119.534 93.3458C119.917 94.0195 120.408 94.5385 121.009 94.9027C121.628 95.2668 122.284 95.4489 122.976 95.4489C123.686 95.4489 124.35 95.2759 124.97 94.93C125.589 94.5658 126.08 94.0559 126.445 93.4004C126.809 92.7267 126.991 91.9255 126.991 90.9968Z" fill="white"/>
<path d="M149.326 83.431L139.957 105.719H135.888L139.165 98.1803L133.102 83.431L137.39 83.431L141.296 94.0013L145.256 83.431H149.326Z" fill="white"/>
<path d="M171.416 79.4979V82.5843H166.335V98.5627H162.511V82.5843H157.431V79.4979H171.416Z" fill="white"/>
<path d="M188.764 83.431V98.5627H184.912V96.6507C184.421 97.3063 183.774 97.8252 182.973 98.2076C182.19 98.5718 181.334 98.7539 180.406 98.7539C179.222 98.7539 178.175 98.508 177.265 98.0164C176.354 97.5065 175.635 96.7691 175.107 95.804C174.597 94.8207 174.342 93.6553 174.342 92.3079V83.431H178.166V91.7616C178.166 92.9634 178.466 93.8921 179.067 94.5476C179.668 95.1849 180.488 95.5036 181.526 95.5036C182.582 95.5036 183.41 95.1849 184.011 94.5476C184.612 93.8921 184.912 92.9634 184.912 91.7616V83.431H188.764Z" fill="white"/>
<path d="M196.634 85.78C197.125 84.9788 197.762 84.3506 198.545 83.8954C199.347 83.4402 200.257 83.2125 201.277 83.2125V87.2276H200.266C199.064 87.2276 198.154 87.5098 197.535 88.0743C196.934 88.6388 196.634 89.6221 196.634 91.0242V98.5627H192.81V83.431H196.634V85.78Z" fill="white"/>
<path d="M212.511 83.2125C214.313 83.2125 215.77 83.7861 216.881 84.9333C217.992 86.0622 218.547 87.6464 218.547 89.6858V98.5627H214.723V90.2048C214.723 89.003 214.423 88.0834 213.822 87.4461C213.221 86.7906 212.401 86.4628 211.364 86.4628C210.307 86.4628 209.47 86.7906 208.851 87.4461C208.25 88.0834 207.949 89.003 207.949 90.2048V98.5627H204.126V83.431H207.949V85.3157C208.459 84.6601 209.106 84.1503 209.889 83.7861C210.69 83.4037 211.564 83.2125 212.511 83.2125Z" fill="white"/>
<path d="M228.247 98.8085C227.009 98.8085 225.898 98.59 224.915 98.153C223.931 97.6977 223.148 97.0877 222.566 96.323C222.001 95.5582 221.692 94.7115 221.637 93.7828H225.488C225.561 94.3655 225.843 94.848 226.335 95.2304C226.845 95.6128 227.473 95.804 228.22 95.804C228.948 95.804 229.512 95.6583 229.913 95.367C230.332 95.0756 230.541 94.7024 230.541 94.2471C230.541 93.7555 230.286 93.3913 229.776 93.1546C229.285 92.8997 228.493 92.6266 227.4 92.3352C226.271 92.0621 225.343 91.7798 224.614 91.4885C223.904 91.1972 223.285 90.751 222.757 90.1501C222.247 89.5492 221.992 88.739 221.992 87.7192C221.992 86.8816 222.229 86.1169 222.702 85.4249C223.194 84.733 223.886 84.1867 224.778 83.7861C225.689 83.3855 226.754 83.1852 227.974 83.1852C229.776 83.1852 231.215 83.6404 232.289 84.5509C233.364 85.4431 233.955 86.654 234.065 88.1836H230.405C230.35 87.5827 230.095 87.1093 229.64 86.7633C229.203 86.3991 228.611 86.217 227.865 86.217C227.173 86.217 226.635 86.3445 226.253 86.5994C225.889 86.8543 225.707 87.2094 225.707 87.6646C225.707 88.1745 225.962 88.566 226.471 88.8391C226.981 89.094 227.773 89.358 228.848 89.6312C229.94 89.9043 230.842 90.1866 231.552 90.4779C232.262 90.7692 232.872 91.2245 233.382 91.8436C233.91 92.4445 234.183 93.2457 234.201 94.2471C234.201 95.1212 233.955 95.9042 233.464 96.5961C232.99 97.288 232.298 97.8343 231.388 98.2349C230.496 98.6173 229.449 98.8085 228.247 98.8085Z" fill="white"/>
<path d="M64.4487 117.907L57.4564 136.972H52.8132L45.8209 117.907H49.9179L55.1621 133.066L60.379 117.907H64.4487Z" fill="white"/>
<path d="M68.9537 120.038C68.2799 120.038 67.7155 119.828 67.2602 119.41C66.8232 118.973 66.6047 118.435 66.6047 117.798C66.6047 117.161 66.8232 116.633 67.2602 116.214C67.7155 115.777 68.2799 115.558 68.9537 115.558C69.6274 115.558 70.1828 115.777 70.6198 116.214C71.075 116.633 71.3026 117.161 71.3026 117.798C71.3026 118.435 71.075 118.973 70.6198 119.41C70.1828 119.828 69.6274 120.038 68.9537 120.038ZM70.8383 121.84L70.8383 136.972H67.0144L67.0144 121.84H70.8383Z" fill="white"/>
<path d="M88.9558 129.079C88.9558 129.625 88.9194 130.116 88.8466 130.553H77.7846C77.8757 131.646 78.2581 132.502 78.9318 133.121C79.6055 133.74 80.434 134.05 81.4173 134.05C82.8376 134.05 83.8482 133.44 84.4491 132.22H88.5734C88.1364 133.676 87.2988 134.878 86.0606 135.825C84.8224 136.754 83.302 137.218 81.4993 137.218C80.0426 137.218 78.7315 136.899 77.5661 136.262C76.419 135.606 75.5176 134.687 74.8621 133.503C74.2248 132.32 73.9061 130.954 73.9061 129.406C73.9061 127.84 74.2248 126.466 74.8621 125.282C75.4994 124.098 76.3917 123.188 77.5388 122.551C78.686 121.913 80.0061 121.595 81.4993 121.595C82.9378 121.595 84.2215 121.904 85.3505 122.523C86.4976 123.142 87.3808 124.026 87.9999 125.173C88.6372 126.302 88.9558 127.604 88.9558 129.079ZM84.9954 127.986C84.9772 127.003 84.6221 126.22 83.9302 125.637C83.2382 125.036 82.3915 124.736 81.39 124.736C80.4431 124.736 79.642 125.027 78.9864 125.61C78.3491 126.174 77.9576 126.966 77.812 127.986H84.9954Z" fill="white"/>
<path d="M112.997 121.84L108.572 136.972H104.448L101.689 126.402L98.9303 136.972H94.7787L90.3266 121.84H94.2051L96.8818 133.367L99.777 121.84H103.819L106.66 133.339L109.337 121.84H112.997Z" fill="white"/>
<path d="M129.405 129.079C129.405 129.625 129.369 130.116 129.296 130.553H118.234C118.325 131.646 118.708 132.502 119.381 133.121C120.055 133.74 120.883 134.05 121.867 134.05C123.287 134.05 124.298 133.44 124.899 132.22H129.023C128.586 133.676 127.748 134.878 126.51 135.825C125.272 136.754 123.751 137.218 121.949 137.218C120.492 137.218 119.181 136.899 118.016 136.262C116.868 135.606 115.967 134.687 115.312 133.503C114.674 132.32 114.356 130.954 114.356 129.406C114.356 127.84 114.674 126.466 115.312 125.282C115.949 124.098 116.841 123.188 117.988 122.551C119.135 121.913 120.456 121.595 121.949 121.595C123.387 121.595 124.671 121.904 125.8 122.523C126.947 123.142 127.83 124.026 128.449 125.173C129.087 126.302 129.405 127.604 129.405 129.079ZM125.445 127.986C125.427 127.003 125.072 126.22 124.38 125.637C123.688 125.036 122.841 124.736 121.839 124.736C120.893 124.736 120.091 125.027 119.436 125.61C118.799 126.174 118.407 126.966 118.261 127.986H125.445Z" fill="white"/>
<path d="M136.293 124.189C136.785 123.388 137.422 122.76 138.205 122.305C139.006 121.85 139.917 121.622 140.937 121.622V125.637H139.926C138.724 125.637 137.814 125.919 137.195 126.484C136.594 127.048 136.293 128.032 136.293 129.434V136.972H132.469V121.84L136.293 121.84V124.189Z" fill="white"/>
<path d="M149.576 137.218C148.338 137.218 147.227 136.999 146.244 136.562C145.26 136.107 144.477 135.497 143.895 134.732C143.33 133.968 143.021 133.121 142.966 132.192H146.817C146.89 132.775 147.172 133.257 147.664 133.64C148.174 134.022 148.802 134.213 149.548 134.213C150.277 134.213 150.841 134.068 151.242 133.776C151.661 133.485 151.87 133.112 151.87 132.657C151.87 132.165 151.615 131.801 151.105 131.564C150.614 131.309 149.822 131.036 148.729 130.745C147.6 130.472 146.671 130.189 145.943 129.898C145.233 129.607 144.614 129.16 144.086 128.56C143.576 127.959 143.321 127.148 143.321 126.129C143.321 125.291 143.558 124.526 144.031 123.834C144.523 123.142 145.215 122.596 146.107 122.196C147.017 121.795 148.083 121.595 149.303 121.595C151.105 121.595 152.544 122.05 153.618 122.96C154.692 123.853 155.284 125.063 155.394 126.593H151.734C151.679 125.992 151.424 125.519 150.969 125.173C150.532 124.809 149.94 124.626 149.193 124.626C148.501 124.626 147.964 124.754 147.582 125.009C147.218 125.264 147.036 125.619 147.036 126.074C147.036 126.584 147.291 126.975 147.8 127.249C148.31 127.503 149.102 127.767 150.177 128.041C151.269 128.314 152.171 128.596 152.881 128.887C153.591 129.179 154.201 129.634 154.711 130.253C155.239 130.854 155.512 131.655 155.53 132.657C155.53 133.531 155.284 134.314 154.793 135.006C154.319 135.697 153.627 136.244 152.717 136.644C151.825 137.027 150.778 137.218 149.576 137.218Z" fill="white"/>
<path d="M169.547 117.907V136.972H165.724V117.907H169.547Z" fill="white"/>
<path d="M181.984 121.622C183.786 121.622 185.243 122.196 186.354 123.343C187.465 124.472 188.02 126.056 188.02 128.095V136.972H184.196V128.614C184.196 127.412 183.896 126.493 183.295 125.856C182.694 125.2 181.874 124.872 180.837 124.872C179.78 124.872 178.943 125.2 178.324 125.856C177.723 126.493 177.422 127.412 177.422 128.614V136.972H173.599V121.84H177.422V123.725C177.932 123.07 178.579 122.56 179.362 122.196C180.163 121.813 181.037 121.622 181.984 121.622Z" fill="white"/>
<path d="M196.382 124.982V132.302C196.382 132.811 196.5 133.185 196.737 133.421C196.992 133.64 197.41 133.749 197.993 133.749H199.768V136.972H197.365C194.142 136.972 192.53 135.406 192.53 132.274V124.982H190.728V121.84H192.53V118.099H196.382V121.84H199.768V124.982H196.382Z" fill="white"/>
<path d="M209.511 137.218C208.054 137.218 206.743 136.899 205.578 136.262C204.412 135.606 203.493 134.687 202.819 133.503C202.164 132.32 201.836 130.954 201.836 129.406C201.836 127.859 202.173 126.493 202.846 125.309C203.538 124.126 204.476 123.215 205.66 122.578C206.843 121.922 208.163 121.595 209.62 121.595C211.077 121.595 212.397 121.922 213.581 122.578C214.764 123.215 215.693 124.126 216.367 125.309C217.059 126.493 217.405 127.859 217.405 129.406C217.405 130.954 217.049 132.32 216.339 133.503C215.647 134.687 214.701 135.606 213.499 136.262C212.315 136.899 210.986 137.218 209.511 137.218ZM209.511 133.886C210.203 133.886 210.849 133.722 211.45 133.394C212.069 133.048 212.561 132.538 212.925 131.865C213.289 131.191 213.471 130.371 213.471 129.406C213.471 127.968 213.089 126.866 212.324 126.101C211.578 125.318 210.658 124.927 209.566 124.927C208.473 124.927 207.553 125.318 206.807 126.101C206.079 126.866 205.714 127.968 205.714 129.406C205.714 130.845 206.069 131.956 206.78 132.739C207.508 133.503 208.418 133.886 209.511 133.886Z" fill="white"/>
<path d="M48.763 159.403V164.183H55.1816V167.215H48.763V172.268H56.001V175.382H44.9391V156.289H56.001V159.403H48.763Z" fill="white"/>
<path d="M68.1344 160.031C69.9371 160.031 71.3938 160.605 72.5045 161.752C73.6153 162.881 74.1706 164.465 74.1706 166.505V175.382H70.3468V167.024C70.3468 165.822 70.0463 164.902 69.4454 164.265C68.8445 163.609 68.0251 163.282 66.9872 163.282C65.9311 163.282 65.0935 163.609 64.4744 164.265C63.8735 164.902 63.573 165.822 63.573 167.024V175.382H59.7492V160.25H63.573V162.135C64.0829 161.479 64.7293 160.969 65.5123 160.605C66.3135 160.223 67.1875 160.031 68.1344 160.031Z" fill="white"/>
<path d="M81.904 162.599C82.3956 161.798 83.0329 161.169 83.8159 160.714C84.6171 160.259 85.5275 160.031 86.5472 160.031V164.046H85.5366C84.3348 164.046 83.4244 164.329 82.8053 164.893C82.2044 165.458 81.904 166.441 81.904 167.843V175.382H78.0801V160.25H81.904V162.599Z" fill="white"/>
<path d="M96.115 175.627C94.6583 175.627 93.3473 175.309 92.1819 174.671C91.0165 174.016 90.097 173.096 89.4232 171.913C88.7677 170.729 88.44 169.363 88.44 167.816C88.44 166.268 88.7768 164.902 89.4506 163.719C90.1425 162.535 91.0803 161.625 92.2638 160.987C93.4474 160.332 94.7676 160.004 96.2243 160.004C97.681 160.004 99.0011 160.332 100.185 160.987C101.368 161.625 102.297 162.535 102.971 163.719C103.663 164.902 104.009 166.268 104.009 167.816C104.009 169.363 103.654 170.729 102.943 171.913C102.251 173.096 101.305 174.016 100.103 174.671C98.9192 175.309 97.5899 175.627 96.115 175.627ZM96.115 172.295C96.807 172.295 97.4534 172.131 98.0543 171.803C98.6734 171.458 99.165 170.948 99.5292 170.274C99.8934 169.6 100.075 168.781 100.075 167.816C100.075 166.377 99.6931 165.276 98.9283 164.511C98.1817 163.728 97.2622 163.336 96.1696 163.336C95.0771 163.336 94.1576 163.728 93.411 164.511C92.6826 165.276 92.3185 166.377 92.3185 167.816C92.3185 169.254 92.6735 170.365 93.3837 171.148C94.112 171.913 95.0225 172.295 96.115 172.295Z" fill="white"/>
<path d="M110.911 155.17V175.382H107.087V155.17H110.911Z" fill="white"/>
<path d="M118.786 155.17V175.382H114.962V155.17H118.786Z" fill="white"/>
<path d="M141.628 160.031C143.486 160.031 144.979 160.605 146.108 161.752C147.255 162.881 147.828 164.465 147.828 166.505V175.382H144.005V167.024C144.005 165.84 143.704 164.939 143.103 164.32C142.502 163.682 141.683 163.364 140.645 163.364C139.607 163.364 138.779 163.682 138.16 164.32C137.559 164.939 137.258 165.84 137.258 167.024V175.382H133.434V167.024C133.434 165.84 133.134 164.939 132.533 164.32C131.932 163.682 131.113 163.364 130.075 163.364C129.019 163.364 128.181 163.682 127.562 164.32C126.961 164.939 126.661 165.84 126.661 167.024V175.382H122.837V160.25H126.661V162.08C127.152 161.443 127.78 160.942 128.545 160.578C129.328 160.214 130.184 160.031 131.113 160.031C132.296 160.031 133.352 160.286 134.281 160.796C135.21 161.288 135.929 161.998 136.439 162.927C136.93 162.053 137.641 161.352 138.569 160.824C139.516 160.295 140.536 160.031 141.628 160.031Z" fill="white"/>
<path d="M165.797 167.488C165.797 168.034 165.76 168.526 165.687 168.963H154.625C154.716 170.055 155.099 170.911 155.773 171.53C156.446 172.149 157.275 172.459 158.258 172.459C159.678 172.459 160.689 171.849 161.29 170.629H165.414C164.977 172.086 164.14 173.288 162.901 174.234C161.663 175.163 160.143 175.627 158.34 175.627C156.883 175.627 155.572 175.309 154.407 174.671C153.26 174.016 152.358 173.096 151.703 171.913C151.066 170.729 150.747 169.363 150.747 167.816C150.747 166.25 151.066 164.875 151.703 163.691C152.34 162.508 153.232 161.597 154.38 160.96C155.527 160.323 156.847 160.004 158.34 160.004C159.779 160.004 161.062 160.314 162.191 160.933C163.338 161.552 164.222 162.435 164.841 163.582C165.478 164.711 165.797 166.013 165.797 167.488ZM161.836 166.395C161.818 165.412 161.463 164.629 160.771 164.046C160.079 163.446 159.232 163.145 158.231 163.145C157.284 163.145 156.483 163.436 155.827 164.019C155.19 164.584 154.798 165.376 154.653 166.395H161.836Z" fill="white"/>
<path d="M177.246 160.031C179.049 160.031 180.505 160.605 181.616 161.752C182.727 162.881 183.282 164.465 183.282 166.505V175.382H179.458V167.024C179.458 165.822 179.158 164.902 178.557 164.265C177.956 163.609 177.137 163.282 176.099 163.282C175.043 163.282 174.205 163.609 173.586 164.265C172.985 164.902 172.685 165.822 172.685 167.024V175.382H168.861V160.25H172.685V162.135C173.195 161.479 173.841 160.969 174.624 160.605C175.425 160.223 176.299 160.031 177.246 160.031Z" fill="white"/>
<path d="M191.644 163.391V170.711C191.644 171.221 191.762 171.594 191.999 171.831C192.254 172.049 192.673 172.159 193.255 172.159H195.031V175.382H192.627C189.404 175.382 187.793 173.816 187.793 170.684V163.391H185.99V160.25H187.793V156.508H191.644V160.25H195.031V163.391H191.644Z" fill="white"/>
<path d="M203.845 175.627C202.606 175.627 201.496 175.409 200.512 174.972C199.529 174.517 198.746 173.907 198.163 173.142C197.599 172.377 197.289 171.53 197.235 170.602H201.086C201.159 171.184 201.441 171.667 201.933 172.049C202.443 172.432 203.071 172.623 203.817 172.623C204.546 172.623 205.11 172.477 205.511 172.186C205.93 171.895 206.139 171.521 206.139 171.066C206.139 170.574 205.884 170.21 205.374 169.973C204.882 169.719 204.09 169.445 202.998 169.154C201.869 168.881 200.94 168.599 200.212 168.307C199.502 168.016 198.883 167.57 198.355 166.969C197.845 166.368 197.59 165.558 197.59 164.538C197.59 163.701 197.827 162.936 198.3 162.244C198.792 161.552 199.484 161.006 200.376 160.605C201.286 160.204 202.351 160.004 203.571 160.004C205.374 160.004 206.813 160.459 207.887 161.37C208.961 162.262 209.553 163.473 209.662 165.002H206.002C205.948 164.402 205.693 163.928 205.238 163.582C204.801 163.218 204.209 163.036 203.462 163.036C202.77 163.036 202.233 163.163 201.851 163.418C201.487 163.673 201.304 164.028 201.304 164.484C201.304 164.993 201.559 165.385 202.069 165.658C202.579 165.913 203.371 166.177 204.445 166.45C205.538 166.723 206.439 167.005 207.15 167.297C207.86 167.588 208.47 168.043 208.98 168.662C209.508 169.263 209.781 170.065 209.799 171.066C209.799 171.94 209.553 172.723 209.061 173.415C208.588 174.107 207.896 174.653 206.986 175.054C206.093 175.436 205.046 175.627 203.845 175.627Z" fill="white"/>
<path d="M218.155 155.989L217.718 169.181H214.495L214.03 155.989H218.155ZM216.188 175.573C215.496 175.573 214.923 175.363 214.467 174.945C214.03 174.508 213.812 173.97 213.812 173.333C213.812 172.696 214.03 172.168 214.467 171.749C214.923 171.312 215.496 171.093 216.188 171.093C216.862 171.093 217.417 171.312 217.854 171.749C218.291 172.168 218.51 172.696 218.51 173.333C218.51 173.97 218.291 174.508 217.854 174.945C217.417 175.363 216.862 175.573 216.188 175.573Z" fill="white"/>
</svg>
