<svg width="698" height="149" viewBox="0 0 698 149" fill="none" xmlns="http://www.w3.org/2000/svg">
<path d="M594.679 3.30978H697.001V17.7663H610.64V66.7826H687.83V81.2096H610.64V131.261H698V145.717H594.679V3.30978ZM459.611 3.30978H512.521C519.891 3.22785 527.228 4.29494 534.273 6.47308C540.379 8.32508 546.077 11.3356 551.057 15.3421C555.666 19.1538 559.329 23.9918 561.757 29.4735C564.367 35.4615 565.66 41.9457 565.549 48.4828V48.8671C565.764 55.5673 564.383 62.222 561.519 68.2754C558.655 74.3288 554.393 79.6051 549.088 83.6634C543.813 87.7051 537.831 90.7137 531.451 92.5324C524.482 94.5245 517.268 95.5197 510.023 95.4888H475.631V145.747H459.67L459.611 3.30978ZM510.669 81.0027C516.053 81.0677 521.415 80.3101 526.572 78.7558C531.067 77.4349 535.269 75.2569 538.947 72.3405C542.248 69.6681 544.911 66.2834 546.736 62.4368C548.605 58.4138 549.539 54.0163 549.47 49.5767V49.1923C549.47 38.9634 545.992 31.2473 539.035 26.0441C532.078 20.8409 522.888 18.2196 511.463 18.1802H475.572V81.0027H510.669ZM203.204 148.112C189.066 148.27 175.216 144.095 163.495 136.142C151.775 128.188 142.741 116.834 137.595 103.589C134.011 94.4615 132.205 84.726 132.275 74.9126V74.4987C132.228 64.7517 134.044 55.0865 137.625 46.029C141.031 37.2604 146.081 29.2314 152.498 22.3782C158.906 15.6186 166.604 10.229 175.132 6.53221C184.188 2.56068 193.972 0.546295 203.85 0.619507C209.769 0.547983 215.68 1.09288 221.487 2.2455C226.405 3.35257 231.193 4.97768 235.773 7.09391C240.126 8.99343 244.257 11.3731 248.089 14.1891C251.936 17.0242 255.589 20.1156 259.024 23.4425L248.089 35.2679C242.244 29.7427 235.69 25.0298 228.6 21.2548C218.133 16.0003 206.263 14.2672 194.742 16.3111C183.221 18.355 172.657 24.0678 164.609 32.6072C159.543 37.9926 155.552 44.3051 152.851 51.2027C150.056 58.5014 148.65 66.2636 148.706 74.0848V74.4987C148.637 82.3883 150.043 90.2207 152.851 97.5878C155.545 104.489 159.537 110.803 164.609 116.183C169.52 121.48 175.437 125.732 182.01 128.689C188.838 131.773 196.248 133.336 203.733 133.271C212.396 133.497 220.989 131.653 228.806 127.89C236.356 123.859 243.287 118.751 249.382 112.724L259.876 123.101C256.334 126.811 252.522 130.25 248.471 133.389C240.291 139.618 230.879 144.013 220.87 146.279C215.071 147.57 209.143 148.185 203.204 148.112ZM57.8188 147.698C47.2137 147.828 36.6804 145.932 26.7783 142.11C16.9005 138.046 7.83002 132.228 0 124.934L9.90592 113.109C16.5179 119.357 24.0918 124.489 32.3339 128.304C40.59 131.755 49.4678 133.446 58.4067 133.271C66.6047 133.691 74.7008 131.293 81.3638 126.471C84.0697 124.466 86.2603 121.84 87.7533 118.811C89.2462 115.782 89.9983 112.439 89.9469 109.058V108.674C89.992 105.64 89.4427 102.626 88.3302 99.805C87.0746 96.9493 85.1111 94.4655 82.6277 92.5915C79.2313 90.0337 75.4507 88.0377 71.4285 86.6788C65.4233 84.5766 59.286 82.8778 53.0569 81.5939C45.8615 80.0835 38.7874 78.0379 31.893 75.4743C26.5069 73.5303 21.473 70.7142 16.99 67.1374C13.1904 64.1047 10.1669 60.2022 8.17165 55.7554C6.15645 50.9288 5.15567 45.735 5.23221 40.5007V40.0868C5.25633 34.7935 6.48293 29.5757 8.81833 24.832C11.1131 20.0649 14.4252 15.8657 18.5185 12.5336C22.8953 8.95511 27.8725 6.19185 33.2157 4.37407C39.2127 2.36068 45.5003 1.36167 51.8224 1.41772C61.073 1.22669 70.2826 2.70869 79.0122 5.79312C87.2231 8.92519 94.8838 13.3564 101.705 18.9193L92.4161 31.336C86.4875 26.2864 79.7483 22.2875 72.4866 19.5106C65.7805 17.0547 58.6946 15.8136 51.5578 15.8447C43.6423 15.3497 35.8033 17.6501 29.3944 22.3487C26.8718 24.25 24.8268 26.719 23.4231 29.5579C22.0194 32.3968 21.2961 35.5268 21.311 38.6973V39.1112C21.2503 42.2045 21.7998 45.2792 22.9276 48.1576C24.2165 51.0763 26.2435 53.6042 28.8065 55.4894C32.3853 58.1248 36.3527 60.1798 40.5643 61.5794C46.8306 63.7731 53.2452 65.512 59.7589 66.7826C75.5339 70.3105 87.1643 75.2378 94.65 81.5644C98.3269 84.669 101.246 88.5811 103.183 92.9993C105.119 97.4175 106.022 102.224 105.82 107.048V107.432C105.913 113.023 104.748 118.562 102.412 123.636C100.075 128.71 96.6279 133.186 92.3279 136.73C87.8337 140.404 82.6724 143.165 77.131 144.86C70.8757 146.793 64.3626 147.751 57.8188 147.698Z" fill="white"/>
<path fill-rule="evenodd" clip-rule="evenodd" d="M328.807 120.825L340.447 109.118L360.846 88.5713L353.851 81.5352L321.781 113.789L328.807 120.825Z" fill="#1763AC"/>
<path d="M339.852 67.4629L321.79 85.6289L328.795 92.6737L346.857 74.5077L339.852 67.4629Z" fill="#1763AC"/>
<path fill-rule="evenodd" clip-rule="evenodd" d="M391.945 15.0469L402.645 17.2937L413.344 19.511L408.582 24.3594C419.467 36.4297 426.113 51.7586 427.501 67.994C428.889 84.2294 424.941 100.474 416.264 114.236C407.587 127.997 394.66 138.515 379.467 144.175C364.274 149.835 347.654 150.325 332.157 145.57C328.712 144.504 325.352 143.18 322.104 141.608L329.511 134.217L347.442 116.184L368.018 95.6665L375.014 102.703L340.329 137.588C344.818 138.575 349.401 139.071 353.997 139.066C366.397 139.084 378.536 135.482 388.942 128.699C399.348 121.915 407.573 112.241 412.62 100.849C417.667 89.4575 419.32 76.8375 417.377 64.5199C415.434 52.2023 409.98 40.7162 401.675 31.4546L396.384 36.6578L394.179 25.8967L391.945 15.0469Z" fill="#187FE2"/>
<path d="M378.925 28.1681L346.854 60.4238L353.859 67.4687L385.93 35.2129L378.925 28.1681Z" fill="#4EB8ED"/>
<path d="M378.914 56.3281L360.852 74.4941L367.856 81.539L385.918 63.3729L378.914 56.3281Z" fill="#4EB8ED"/>
<path fill-rule="evenodd" clip-rule="evenodd" d="M315.755 133.952L305.055 131.705L294.356 129.488L299.176 124.64C289.483 113.983 283.082 100.72 280.755 86.4679C278.429 72.2156 280.276 57.5902 286.073 44.3759C291.869 31.1616 301.364 19.9295 313.399 12.0498C325.434 4.17002 339.489 -0.0167872 353.85 6.73188e-05C361.235 -0.0099877 368.579 1.10641 375.631 3.31118C379.078 4.37146 382.439 5.69584 385.684 7.27269L378.189 14.8114L360.287 32.8451L339.858 53.3622L332.862 46.3261L367.43 11.4411C362.931 10.4518 358.338 9.95618 353.732 9.96297C341.332 9.94515 329.193 13.5463 318.787 20.3298C308.382 27.1132 300.156 36.7875 295.109 48.1793C290.062 59.5712 288.41 72.1912 290.352 84.5088C292.295 96.8264 297.75 108.313 306.055 117.574L311.199 112.43L313.433 123.191L315.755 133.952Z" fill="#4EB8ED"/>
</svg>
