<svg width="641" height="205" viewBox="0 0 641 205" fill="none" xmlns="http://www.w3.org/2000/svg">
<path d="M452.236 161V175.888H452.367C452.629 175.534 452.964 175.166 453.371 174.783C453.778 174.4 454.258 174.047 454.811 173.723C455.393 173.399 456.062 173.134 456.818 172.928C457.575 172.692 458.433 172.574 459.393 172.574C460.877 172.574 462.244 172.869 463.495 173.458C464.746 174.017 465.822 174.798 466.724 175.799C467.626 176.801 468.324 177.979 468.818 179.333C469.313 180.688 469.56 182.146 469.56 183.707C469.56 185.268 469.313 186.74 468.818 188.125C468.353 189.479 467.669 190.672 466.768 191.703C465.895 192.704 464.818 193.514 463.538 194.133C462.287 194.722 460.862 195.016 459.262 195.016C457.778 195.016 456.382 194.692 455.073 194.044C453.793 193.396 452.789 192.454 452.062 191.217H451.975V194.398H447V161H452.236ZM464.237 183.707C464.237 182.882 464.106 182.072 463.844 181.277C463.611 180.452 463.248 179.716 462.753 179.068C462.258 178.42 461.633 177.905 460.877 177.522C460.12 177.11 459.233 176.904 458.215 176.904C457.255 176.904 456.396 177.11 455.64 177.522C454.884 177.934 454.229 178.465 453.676 179.112C453.153 179.76 452.746 180.497 452.455 181.321C452.193 182.146 452.062 182.971 452.062 183.795C452.062 184.62 452.193 185.444 452.455 186.269C452.746 187.064 453.153 187.786 453.676 188.434C454.229 189.082 454.884 189.612 455.64 190.024C456.396 190.407 457.255 190.598 458.215 190.598C459.233 190.598 460.12 190.392 460.877 189.98C461.633 189.568 462.258 189.037 462.753 188.39C463.248 187.742 463.611 187.005 463.844 186.181C464.106 185.356 464.237 184.531 464.237 183.707Z" fill="white"/>
<path d="M471.47 173.193H477.274L483.121 188.61H483.208L488.401 173.193H493.856L483.95 198.948C483.572 199.92 483.165 200.774 482.728 201.51C482.292 202.276 481.768 202.909 481.158 203.41C480.547 203.94 479.819 204.337 478.976 204.602C478.161 204.867 477.172 205 476.008 205C475.572 205 475.121 204.971 474.656 204.912C474.219 204.882 473.768 204.809 473.303 204.691L473.739 200.096C474.088 200.214 474.423 200.288 474.743 200.317C475.092 200.376 475.412 200.406 475.703 200.406C476.256 200.406 476.721 200.332 477.099 200.185C477.477 200.067 477.797 199.861 478.059 199.566C478.321 199.301 478.554 198.963 478.758 198.55C478.961 198.138 479.179 197.652 479.412 197.092L480.459 194.398L471.47 173.193Z" fill="white"/>
<path d="M520.898 191.703H520.767C520.243 192.645 519.399 193.426 518.236 194.044C517.072 194.633 515.748 194.928 514.265 194.928C513.421 194.928 512.534 194.81 511.603 194.574C510.701 194.368 509.857 194.015 509.072 193.514C508.316 192.984 507.676 192.307 507.152 191.482C506.657 190.628 506.41 189.582 506.41 188.345C506.41 186.755 506.846 185.489 507.719 184.546C508.621 183.604 509.77 182.882 511.166 182.382C512.563 181.881 514.105 181.557 515.792 181.41C517.508 181.233 519.181 181.145 520.81 181.145V180.614C520.81 179.289 520.33 178.317 519.37 177.699C518.439 177.051 517.319 176.727 516.01 176.727C514.905 176.727 513.843 176.963 512.825 177.434C511.807 177.905 510.963 178.479 510.294 179.157L507.588 175.932C508.781 174.813 510.148 173.973 511.69 173.414C513.261 172.854 514.847 172.574 516.447 172.574C518.308 172.574 519.836 172.839 521.028 173.369C522.25 173.9 523.21 174.592 523.909 175.446C524.607 176.3 525.087 177.257 525.349 178.317C525.639 179.378 525.785 180.438 525.785 181.498V194.398H520.898V191.703ZM520.81 184.723H519.632C518.788 184.723 517.901 184.767 516.97 184.855C516.039 184.914 515.181 185.076 514.396 185.341C513.61 185.577 512.956 185.93 512.432 186.402C511.908 186.843 511.646 187.462 511.646 188.257C511.646 188.758 511.748 189.185 511.952 189.538C512.185 189.862 512.476 190.127 512.825 190.333C513.174 190.539 513.567 190.687 514.003 190.775C514.439 190.863 514.876 190.908 515.312 190.908C517.116 190.908 518.483 190.422 519.414 189.45C520.345 188.478 520.81 187.153 520.81 185.474V184.723Z" fill="white"/>
<path d="M546.198 179.068C545.791 178.479 545.18 177.993 544.366 177.61C543.551 177.198 542.722 176.992 541.878 176.992C540.918 176.992 540.075 177.198 539.347 177.61C538.62 177.993 538.009 178.509 537.515 179.157C537.049 179.805 536.7 180.541 536.467 181.365C536.235 182.161 536.118 182.971 536.118 183.795C536.118 184.62 536.235 185.444 536.467 186.269C536.729 187.064 537.107 187.786 537.602 188.434C538.097 189.082 538.707 189.612 539.435 190.024C540.191 190.407 541.064 190.598 542.053 190.598C542.868 190.598 543.682 190.436 544.497 190.112C545.311 189.788 545.966 189.317 546.46 188.699L549.733 192.056C548.86 192.999 547.74 193.735 546.373 194.265C545.035 194.766 543.58 195.016 542.009 195.016C540.467 195.016 538.998 194.766 537.602 194.265C536.235 193.764 535.027 193.028 533.98 192.056C532.962 191.084 532.147 189.906 531.536 188.522C530.955 187.138 530.664 185.562 530.664 183.795C530.664 182.087 530.955 180.541 531.536 179.157C532.147 177.772 532.962 176.594 533.98 175.622C534.998 174.651 536.177 173.9 537.515 173.369C538.882 172.839 540.337 172.574 541.878 172.574C543.42 172.574 544.904 172.869 546.329 173.458C547.784 174.047 548.933 174.857 549.777 175.888L546.198 179.068Z" fill="white"/>
<path d="M551.971 183.707C551.971 182.028 552.262 180.511 552.844 179.157C553.454 177.772 554.269 176.594 555.287 175.622C556.305 174.651 557.513 173.9 558.909 173.369C560.305 172.839 561.789 172.574 563.36 172.574C564.931 172.574 566.415 172.839 567.811 173.369C569.207 173.9 570.415 174.651 571.433 175.622C572.451 176.594 573.251 177.772 573.833 179.157C574.444 180.511 574.749 182.028 574.749 183.707C574.749 185.386 574.444 186.917 573.833 188.301C573.251 189.685 572.451 190.878 571.433 191.88C570.415 192.851 569.207 193.617 567.811 194.177C566.415 194.736 564.931 195.016 563.36 195.016C561.789 195.016 560.305 194.736 558.909 194.177C557.513 193.617 556.305 192.851 555.287 191.88C554.269 190.878 553.454 189.685 552.844 188.301C552.262 186.917 551.971 185.386 551.971 183.707ZM557.295 183.707C557.295 184.531 557.411 185.356 557.644 186.181C557.905 187.005 558.284 187.742 558.778 188.39C559.273 189.037 559.898 189.568 560.655 189.98C561.411 190.392 562.313 190.598 563.36 190.598C564.407 190.598 565.309 190.392 566.066 189.98C566.822 189.568 567.447 189.037 567.942 188.39C568.437 187.742 568.8 187.005 569.033 186.181C569.295 185.356 569.426 184.531 569.426 183.707C569.426 182.882 569.295 182.072 569.033 181.277C568.8 180.452 568.437 179.716 567.942 179.068C567.447 178.42 566.822 177.905 566.066 177.522C565.309 177.11 564.407 176.904 563.36 176.904C562.313 176.904 561.411 177.11 560.655 177.522C559.898 177.905 559.273 178.42 558.778 179.068C558.284 179.716 557.905 180.452 557.644 181.277C557.411 182.072 557.295 182.882 557.295 183.707Z" fill="white"/>
<path d="M579.827 173.193H584.845V176.727H584.932C585.514 175.49 586.328 174.489 587.376 173.723C588.423 172.957 589.645 172.574 591.041 172.574C591.245 172.574 591.463 172.589 591.696 172.618C591.929 172.618 592.132 172.648 592.307 172.707V177.566C591.958 177.478 591.652 177.419 591.39 177.39C591.158 177.36 590.925 177.345 590.692 177.345C589.499 177.345 588.539 177.566 587.812 178.008C587.085 178.45 586.518 178.98 586.11 179.598C585.703 180.217 585.427 180.85 585.281 181.498C585.136 182.146 585.063 182.661 585.063 183.044V194.398H579.827V173.193Z" fill="white"/>
<path d="M595.722 173.193H600.696V176.594H600.784C601.249 175.534 602.049 174.606 603.184 173.811C604.347 172.987 605.715 172.574 607.285 172.574C608.653 172.574 609.816 172.825 610.776 173.325C611.766 173.797 612.566 174.43 613.176 175.225C613.816 176.02 614.282 176.933 614.573 177.964C614.864 178.995 615.009 180.055 615.009 181.145V194.398H609.773V182.647C609.773 182.028 609.729 181.38 609.642 180.703C609.555 180.025 609.366 179.422 609.075 178.892C608.784 178.332 608.376 177.876 607.853 177.522C607.358 177.169 606.689 176.992 605.845 176.992C605.002 176.992 604.275 177.169 603.664 177.522C603.053 177.846 602.544 178.273 602.136 178.803C601.758 179.333 601.467 179.952 601.264 180.659C601.06 181.336 600.958 182.028 600.958 182.735V194.398H595.722V173.193Z" fill="white"/>
<path d="M632.596 178.847C632.131 178.229 631.491 177.699 630.676 177.257C629.862 176.786 628.974 176.55 628.014 176.55C627.171 176.55 626.4 176.727 625.702 177.08C625.003 177.434 624.654 178.023 624.654 178.847C624.654 179.672 625.033 180.261 625.789 180.614C626.574 180.938 627.709 181.277 629.193 181.631C629.978 181.807 630.764 182.043 631.549 182.337C632.364 182.632 633.091 183.029 633.731 183.53C634.4 184.001 634.938 184.605 635.345 185.341C635.753 186.048 635.956 186.917 635.956 187.948C635.956 189.244 635.709 190.348 635.215 191.261C634.749 192.145 634.109 192.866 633.295 193.426C632.509 193.985 631.578 194.383 630.502 194.618C629.454 194.884 628.364 195.016 627.229 195.016C625.6 195.016 624.014 194.722 622.473 194.133C620.931 193.514 619.651 192.645 618.632 191.526L622.08 188.257C622.662 189.023 623.418 189.656 624.349 190.157C625.28 190.657 626.313 190.908 627.447 190.908C627.825 190.908 628.204 190.863 628.582 190.775C628.989 190.687 629.353 190.554 629.673 190.378C630.022 190.171 630.298 189.906 630.502 189.582C630.705 189.258 630.807 188.861 630.807 188.39C630.807 187.506 630.4 186.873 629.585 186.49C628.8 186.107 627.607 185.724 626.007 185.341C625.222 185.165 624.451 184.944 623.694 184.679C622.967 184.384 622.313 184.016 621.731 183.574C621.149 183.103 620.683 182.529 620.334 181.851C619.985 181.174 619.811 180.335 619.811 179.333C619.811 178.155 620.043 177.139 620.509 176.285C621.003 175.431 621.643 174.739 622.429 174.209C623.214 173.649 624.102 173.237 625.091 172.972C626.08 172.707 627.098 172.574 628.145 172.574C629.658 172.574 631.127 172.839 632.553 173.369C634.007 173.9 635.156 174.71 636 175.799L632.596 178.847Z" fill="white"/>
<path d="M155.594 67.4546C157.435 63.6007 160.575 60.2973 165.015 57.5444C169.455 54.7916 174.436 53.4152 179.959 53.4152C184.94 53.4152 189.218 54.2961 192.791 56.0579C196.365 57.7096 199.343 59.9669 201.725 62.8299C204.108 65.6928 205.84 69.0513 206.923 72.9052C208.114 76.7592 208.71 80.8884 208.71 85.2929V133.853H193.441V90.5784C193.441 87.3851 193.17 84.357 192.629 81.494C192.196 78.6311 191.329 76.0985 190.03 73.8962C188.73 71.694 186.944 69.9322 184.67 68.6108C182.504 67.2895 179.634 66.6288 176.061 66.6288C169.996 66.6288 165.015 68.9962 161.117 73.7311C157.218 78.3558 155.269 84.5772 155.269 92.3952V133.853H140V24H155.269V67.4546H155.594Z" fill="white"/>
<path d="M277.137 83.1457C277.137 77.3097 275.404 73.0153 271.939 70.2625C268.474 67.3996 263.871 65.9681 258.132 65.9681C253.8 65.9681 249.685 66.849 245.787 68.6108C241.997 70.2625 238.802 72.4097 236.203 75.0524L228.082 65.1422C231.872 61.5085 236.474 58.6456 241.889 56.5534C247.411 54.4613 253.313 53.4152 259.594 53.4152C265.117 53.4152 269.881 54.2411 273.888 55.8927C278.003 57.4343 281.36 59.5815 283.959 62.3344C286.558 65.0872 288.507 68.3355 289.807 72.0794C291.106 75.8232 291.756 79.8423 291.756 84.1367V118.327C291.756 120.97 291.81 123.777 291.918 126.75C292.135 129.613 292.46 131.981 292.893 133.853H279.086C278.22 130.109 277.787 126.365 277.787 122.621H277.299C274.484 126.806 270.91 130.054 266.579 132.366C262.355 134.679 257.32 135.835 251.472 135.835C248.44 135.835 245.245 135.394 241.889 134.513C238.64 133.743 235.662 132.421 232.955 130.549C230.247 128.677 227.973 126.2 226.132 123.117C224.4 120.034 223.533 116.235 223.533 111.72C223.533 105.774 225.104 101.094 228.244 97.6806C231.384 94.157 235.499 91.5143 240.589 89.7525C245.679 87.8806 251.418 86.6693 257.807 86.1188C264.196 85.5682 270.639 85.2929 277.137 85.2929V83.1457ZM273.401 96.5245C269.611 96.5245 265.658 96.6896 261.543 97.02C257.536 97.3503 253.855 98.011 250.498 99.002C247.249 99.993 244.542 101.48 242.376 103.462C240.21 105.444 239.127 108.086 239.127 111.39C239.127 113.702 239.56 115.629 240.427 117.171C241.401 118.712 242.647 119.979 244.163 120.97C245.679 121.961 247.357 122.676 249.198 123.117C251.039 123.447 252.934 123.612 254.883 123.612C262.03 123.612 267.499 121.465 271.289 117.171C275.188 112.766 277.137 107.26 277.137 100.654V96.5245H273.401Z" fill="white"/>
<path d="M311.941 72.4097C311.941 70.3176 311.887 67.6198 311.779 64.3164C311.67 61.013 311.508 58.095 311.291 55.5624H325.748C325.965 57.5444 326.127 59.8568 326.235 62.4995C326.344 65.0321 326.398 67.1243 326.398 68.776H326.885C329.051 64.1512 332.191 60.4624 336.306 57.7096C340.53 54.8467 345.24 53.4152 350.438 53.4152C352.82 53.4152 354.824 53.6354 356.448 54.0759L355.798 68.4456C353.633 67.8951 351.304 67.6198 348.814 67.6198C345.132 67.6198 341.937 68.3355 339.23 69.767C336.523 71.0883 334.249 72.9052 332.408 75.2176C330.675 77.53 329.376 80.2277 328.509 83.3109C327.643 86.2839 327.21 89.4222 327.21 92.7256V133.853H311.941V72.4097Z" fill="white"/>
<path d="M408.344 133.853H391.776L360.426 55.5624H377.319L399.897 117.171H400.222L422.963 55.5624H439.207L408.344 133.853Z" fill="white"/>
<path d="M505.022 87.7705C504.914 84.6873 504.372 81.8244 503.398 79.1817C502.531 76.4288 501.178 74.0614 499.337 72.0794C497.604 70.0973 495.384 68.5557 492.677 67.4546C490.078 66.2434 486.992 65.6378 483.418 65.6378C480.169 65.6378 477.083 66.2434 474.159 67.4546C471.344 68.5557 468.853 70.0973 466.687 72.0794C464.63 74.0614 462.897 76.4288 461.489 79.1817C460.19 81.8244 459.432 84.6873 459.215 87.7705H505.022ZM520.453 94.0469C520.453 94.9278 520.453 95.8087 520.453 96.6896C520.453 97.5705 520.399 98.4514 520.291 99.3324H459.215C459.324 102.636 460.027 105.774 461.327 108.747C462.735 111.61 464.576 114.143 466.85 116.345C469.124 118.437 471.723 120.089 474.647 121.3C477.679 122.511 480.873 123.117 484.23 123.117C489.428 123.117 493.922 121.961 497.712 119.648C501.502 117.336 504.48 114.528 506.646 111.225L517.367 119.979C513.252 125.484 508.379 129.558 502.748 132.201C497.225 134.734 491.052 136 484.23 136C478.383 136 472.968 135.009 467.987 133.027C463.005 131.045 458.728 128.292 455.154 124.768C451.581 121.135 448.765 116.785 446.708 111.72C444.65 106.655 443.621 101.039 443.621 94.8728C443.621 88.8166 444.596 83.2558 446.545 78.1906C448.603 73.0153 451.418 68.6108 454.992 64.9771C458.565 61.3433 462.789 58.5355 467.662 56.5534C472.535 54.4613 477.787 53.4152 483.418 53.4152C489.049 53.4152 494.139 54.3512 498.687 56.2231C503.343 58.095 507.242 60.7928 510.382 64.3164C513.631 67.84 516.122 72.1344 517.854 77.1996C519.587 82.1547 520.453 87.7705 520.453 94.0469Z" fill="white"/>
<path d="M578.039 75.3828C576.306 72.5198 573.87 70.2074 570.729 68.4456C567.589 66.5737 564.069 65.6378 560.171 65.6378C558.438 65.6378 556.706 65.858 554.973 66.2984C553.24 66.6288 551.67 67.2344 550.262 68.1153C548.963 68.8861 547.88 69.9322 547.014 71.2535C546.256 72.4648 545.877 74.0063 545.877 75.8783C545.877 79.1817 547.339 81.6592 550.262 83.3109C553.186 84.8525 557.572 86.2839 563.42 87.6053C567.102 88.4862 570.513 89.5323 573.653 90.7435C576.793 91.9548 579.501 93.4964 581.775 95.3683C584.157 97.1301 585.998 99.2773 587.298 101.81C588.597 104.342 589.247 107.316 589.247 110.729C589.247 115.354 588.381 119.263 586.648 122.456C584.915 125.649 582.587 128.292 579.663 130.384C576.848 132.366 573.599 133.798 569.917 134.679C566.235 135.56 562.445 136 558.547 136C552.699 136 546.96 134.844 541.328 132.531C535.806 130.219 531.203 126.695 527.522 121.961L538.405 112.546C540.462 115.629 543.278 118.217 546.851 120.309C550.533 122.401 554.54 123.447 558.871 123.447C560.821 123.447 562.662 123.282 564.394 122.952C566.235 122.511 567.86 121.85 569.267 120.97C570.783 120.089 571.975 118.932 572.841 117.501C573.707 116.07 574.14 114.253 574.14 112.05C574.14 108.417 572.408 105.719 568.942 103.957C565.585 102.195 560.604 100.544 553.998 99.002C551.4 98.3413 548.746 97.5705 546.039 96.6896C543.44 95.6986 541.058 94.3773 538.892 92.7256C536.726 91.0739 534.939 89.0368 533.532 86.6143C532.232 84.0817 531.582 80.9985 531.582 77.3648C531.582 73.1805 532.395 69.6018 534.019 66.6288C535.752 63.5456 537.972 61.0681 540.679 59.1961C543.386 57.2141 546.472 55.7826 549.938 54.9017C553.403 53.9107 556.976 53.4152 560.658 53.4152C566.181 53.4152 571.487 54.5163 576.577 56.7186C581.775 58.9209 585.782 62.1141 588.597 66.2984L578.039 75.3828Z" fill="white"/>
<path d="M641 68.2805H620.533V109.077C620.533 113.812 621.4 117.226 623.132 119.318C624.865 121.3 627.626 122.291 631.416 122.291C632.824 122.291 634.34 122.126 635.965 121.795C637.589 121.465 639.051 120.97 640.35 120.309L640.838 133.027C638.997 133.688 636.939 134.183 634.665 134.513C632.499 134.954 630.225 135.174 627.843 135.174C620.587 135.174 615.01 133.137 611.112 129.063C607.322 124.989 605.427 118.877 605.427 110.729V68.2805H590.645V55.5624H605.427V33.0993H620.533V55.5624H641V68.2805Z" fill="white"/>
<path fill-rule="evenodd" clip-rule="evenodd" d="M47.1318 0C31.4212 13.7088 0 49.9498 0 85.2437C0 124.477 30.2846 131.777 44.2412 132.913V107.81L27.0444 92.4439L31.8851 87.0168L44.2412 98.0573V79.3841L32.1859 68.5036L37.0536 63.1007L44.2412 69.5879V53.8383H51.5099V69.5879L58.6975 63.1007L63.5653 68.5036L51.5099 79.3841V97.8308L63.0751 87.0665L68.0249 92.3941L51.5099 107.765V133C67.1168 131.955 95 122.247 95 82.2527C95 48.1552 63.0879 13.2103 47.1318 0Z" fill="white"/>
</svg>
