<svg width="226" height="242" viewBox="0 0 226 242" fill="none" xmlns="http://www.w3.org/2000/svg">
<g clip-path="url(#clip0)">
<path d="M78.344 224.844C78.344 224.844 63.0494 173.006 61.8226 161.572C60.5957 150.138 69.1488 153.679 69.1488 153.679C69.1488 153.679 61.9534 131.891 67.1552 126.72C72.357 121.548 77.0517 131.187 77.0517 131.187C77.0517 131.187 78.6261 104.737 84.1735 104.729C94.5035 104.71 94.3011 133.574 94.3011 133.574C94.3011 133.574 96.9367 122.274 102.48 125.372C110.822 130.044 98.8588 152.69 98.8588 152.69C98.8588 152.69 109.491 152.69 113.223 158.059C119.913 167.676 78.344 224.844 78.344 224.844Z" fill="#82C0B1"/>
<path d="M83.3447 217.983C83.3447 217.983 39.2542 210.61 29.6644 202.797C20.0746 194.984 29.5662 191.463 29.5662 191.463C29.5662 191.463 7.41769 180.109 7.67328 172.388C7.92887 164.667 18.9336 168.593 18.9336 168.593C18.9336 168.593 0.271361 147.311 4.69002 143.269C12.918 135.742 34.494 157.864 34.494 157.864C34.494 157.864 28.0879 147.344 34.8335 145.678C45.0101 143.169 52.5183 169.108 52.5183 169.108C52.5183 169.108 50.6106 158.864 57.6302 160.23C70.2155 162.677 83.3447 217.983 83.3447 217.983Z" fill="#C1E9E2"/>
<path d="M57.6258 160.229C50.594 158.957 52.514 169.107 52.514 169.107C52.514 169.107 45.0057 143.168 34.8291 145.677C28.0815 147.343 34.4897 157.864 34.4897 157.864C34.4897 157.864 12.9178 135.744 4.69385 143.268L83.2115 217.995C81.7986 210.857 69.4178 162.36 57.6258 160.229Z" fill="#C1E9E2"/>
<path d="M95.8889 224.064C95.8889 224.064 72.669 200.452 60.9772 197.992C49.2854 195.532 51.3874 203.852 51.3874 203.852C51.3874 203.852 28.1879 183.564 22.8102 188.48C17.4326 193.395 23.2499 198.141 23.2499 198.141C23.2499 198.141 3.9251 194.718 1.16676 201.059C-3.08424 210.802 28.697 216.106 28.697 216.106C28.697 216.106 15.3776 217.031 18.4734 223.14C23.119 232.354 95.8889 224.064 95.8889 224.064Z" fill="#48AA98"/>
<path d="M1.16064 201.058C3.92512 194.719 23.2437 198.14 23.2437 198.14C23.2437 198.14 17.4285 193.394 22.8041 188.479C28.1797 183.563 50.6595 201.093 50.6595 201.093C50.6595 201.093 45.3596 190.961 57.0513 193.421C68.7431 195.881 95.889 224.063 95.889 224.063L1.16064 201.058Z" fill="#48AA98"/>
<path d="M210.375 118.588C210.292 118.599 210.208 118.599 210.124 118.588C209.415 118.487 208.889 117.634 208.95 116.683L211.329 79.9611C211.39 79.0101 212.016 78.3207 212.727 78.422C213.438 78.5233 213.963 79.3775 213.901 80.3285L211.523 117.05C211.473 117.885 210.982 118.521 210.375 118.588Z" fill="#CBCBCB"/>
<path d="M171.241 119.684C171.241 119.705 171.241 119.725 171.241 119.746C171.373 120.909 172.503 121.779 173.763 121.689L209.368 119.147C210.629 119.058 211.544 118.043 211.413 116.88C211.413 116.831 211.399 116.783 211.389 116.734L171.241 119.684Z" fill="#CBCBCB"/>
<path d="M191.657 180.71C187.738 182.883 175.672 178.233 175.672 177.886C174.183 180.71 162.343 214.048 162.343 214.048V223.908C162.343 223.908 189.628 225.207 189.239 222.796C188.849 220.385 187.378 221.953 181.936 217.399C181.44 216.994 173.81 215.221 175.876 210.701C180.054 201.591 188.899 186.4 191.657 180.71Z" fill="#FFBF9C"/>
<path d="M161.455 224.264H191.328C192.404 224.155 192.657 223.272 192.275 222.743C191.491 221.647 185.766 219.057 181.919 217.341C175.222 218.122 163.435 215.545 162.356 214.017C159.518 217.825 160.847 224.14 161.455 224.264Z" fill="#FECC47"/>
<path d="M154.895 157.702C154.49 156.489 180.612 145.403 181.781 146.671C182.629 147.586 179.544 153.712 177.161 162.382C173.729 174.868 169.72 190.535 169.72 190.535L184.106 195.869C184.106 195.869 207.919 150.227 206.927 138.817C206.121 129.93 194.287 120.197 173.285 126.658C152.283 133.12 154.895 157.702 154.895 157.702Z" fill="#2C3E50"/>
<path d="M220.4 188.362C215.99 187.561 209.857 188.441 205.28 188.362C205.821 192.435 208.438 213.323 207.959 214.608C206.755 217.757 204.567 220.434 201.721 222.241C201.721 222.241 222.004 240.542 223.227 238.428C224.449 236.315 222.324 236.598 220.994 229.625C220.878 229.005 219.209 216.505 219.036 211.256C219.036 200.466 220.249 193.923 220.4 188.362Z" fill="#FFBF9C"/>
<path d="M212.71 119.85C209.88 118.342 202.54 118.287 194.458 118.81C176.558 119.998 161.584 126.199 144.124 128.903L139.452 122.219C139.452 122.219 107.563 116.883 106.461 124.786C104.792 136.692 106.866 160.852 117.49 166.245C150.493 182.998 196.741 139.557 196.91 145.24C197.133 152.873 203.568 181.277 205.215 193.712C209.789 193.791 217.65 193.788 221.06 193.005C221.713 168.644 220.764 124.149 212.71 119.85Z" fill="#374D63"/>
<path d="M201.11 222.67L223.913 240.882C224.816 241.482 225.565 240.964 225.609 240.309C225.699 238.962 222.911 233.331 221.023 229.566C215.343 225.922 207.849 216.419 207.985 214.559C205.574 216.588 200.715 222.192 201.11 222.67Z" fill="#FECC47"/>
<path d="M156.327 24.7917C154.43 16.9401 152.477 9.06684 145.01 4.0842C138.964 0.0533798 131.944 0.130956 125.415 3.52872C106.93 13.1524 119.068 28.7818 96.5035 48.9626C89.4899 55.2342 81.4817 59.9322 76.6017 67.7961C69.7693 78.8062 74.3532 90.4187 82.7498 97.4964C122.937 131.355 152.866 86.5442 157.039 61.7701C157.969 52.255 157.55 29.845 156.327 24.7917Z" fill="#3F2915"/>
<path d="M143.81 61.1575C142.27 58.3295 140.584 55.5832 138.76 52.9297C136.178 48.3408 129.51 46.0215 129.51 46.0215C129.51 46.0215 127.278 46.0661 124.718 46.1926C124.625 46.5121 124.455 46.8036 124.222 47.041C123.259 47.7628 117.743 46.8326 114.181 49.2511C102.237 59.4881 105.541 109.11 106.491 124.782L142.865 125.127C142.865 125.127 138.279 91.3923 145.668 82.7403C150.805 76.7127 147.494 67.9689 143.81 61.1575Z" fill="#0084BA"/>
<path d="M127.407 29.239C127.407 29.239 125.408 43.5168 124.011 46.987C122.615 50.4572 131.701 57.8788 139.239 60.1336C146.777 62.3884 136.932 52.4689 137.255 48.758C137.577 45.0472 138.942 27.4878 138.942 27.4878L127.407 29.239Z" fill="#FFBF9C"/>
<path d="M143.315 26.4877L125.552 23.5536C125.552 23.5536 126.474 33.2317 124.976 38.5812C123.197 44.9366 113.951 52.6496 113.951 52.6496L137.354 52.6496C137.354 52.6496 137.134 50.3634 137.54 46.3761C138.307 38.8473 143.315 26.4877 143.315 26.4877Z" fill="#FFBF9C"/>
<mask id="mask0" mask-type="alpha" maskUnits="userSpaceOnUse" x="118" y="23" width="26" height="30">
<path d="M143.615 26.6104L124.217 23.6809C124.217 23.6809 124.732 33.1494 123.234 38.4989C121.454 44.8543 118.606 47.7709 118.606 47.7709L138.303 52.3889C138.303 52.3889 137.095 49.9256 137.665 45.3996C138.592 38.043 143.615 26.6104 143.615 26.6104Z" fill="#D8703B"/>
</mask>
<g mask="url(#mask0)">
<path d="M144.126 40.7781L126.635 32.2461C126.635 32.2461 128.675 36.2734 129.837 38.0878C135.218 46.4866 142.627 43.6797 142.627 43.6797L144.126 40.7781Z" fill="#EB976B"/>
</g>
<path d="M121.125 23.8483C120.972 26.0726 123.068 28.033 124.423 28.1263C127.26 28.3217 126.144 26.4288 126.298 24.2046C126.451 21.9803 125.476 20.1016 124.121 20.0082C122.501 19.8966 121.278 21.6241 121.125 23.8483Z" fill="#FFBF9C"/>
<path d="M124.988 24.3521C124.396 33.6819 130.933 41.5396 136.055 42.0154C139.334 42.32 142.192 41.0855 144.405 38.6438C146.618 36.202 148.123 31.4293 148.617 25.893C149.479 16.2337 145.916 9.5639 138.467 9.0912C131.763 8.6658 125.58 15.0223 124.988 24.3521Z" fill="#FFBF9C"/>
<path d="M138.725 31.8988C138.698 32.1015 141.389 32.4542 141.321 31.8266C141.254 31.2127 140.992 30.6591 140.694 29.4335C140.349 28.0165 140.357 27.4225 140.239 27.3718C140.121 27.3211 140.147 28.0637 140.465 29.5884C140.697 30.7018 141.116 31.5631 140.93 31.6885C140.504 31.9753 138.775 31.5273 138.725 31.8988Z" fill="#EB976B"/>
<path d="M131.219 20.4925C131.164 20.8645 132.467 21.2397 134.128 21.3306C135.79 21.4215 137.102 21.6965 137.157 21.3245C137.213 20.9526 135.99 20.0745 134.328 19.9836C132.666 19.8927 131.275 20.1206 131.219 20.4925Z" fill="#311C08"/>
<path d="M148.536 21.804C148.475 22.1791 147.113 22.274 145.494 22.016C143.875 21.7579 142.534 21.7528 142.594 21.3776C142.655 21.0025 144.093 20.3993 145.713 20.6574C147.332 20.9155 148.596 21.4288 148.536 21.804Z" fill="#311C08"/>
<path d="M131.697 24.2887C131.671 24.55 132.913 23.958 134.266 24.0918C135.618 24.2256 136.894 24.8565 136.92 24.5952C136.946 24.3339 135.646 23.4003 134.294 23.2665C132.941 23.1328 131.723 24.0274 131.697 24.2887Z" fill="black"/>
<path d="M147.739 24.833C147.747 25.0955 146.548 24.4206 145.189 24.4623C143.831 24.504 142.515 25.0469 142.507 24.7845C142.499 24.522 143.859 23.6787 145.217 23.637C146.576 23.5953 147.731 24.5706 147.739 24.833Z" fill="black"/>
<path d="M140.513 36.1834C138.574 36.2638 137.024 34.7476 137.024 34.7476C137.024 34.7476 138.561 36.5858 139.849 36.6395C141.298 36.7 141.821 35.7541 141.821 35.7541C141.821 35.7541 141.096 36.1592 140.513 36.1834Z" fill="#CD5315" stroke="#CD5315" stroke-width="0.183514" stroke-linecap="round" stroke-linejoin="round"/>
<path d="M188.584 113.508C186.401 112.72 183.154 112.62 183.209 112.333C183.427 111.167 193.069 114.907 191.766 113.206C191.039 112.258 183.829 108.902 182.07 109.455C180.368 109.994 169.196 113.129 169.196 113.129L138.659 105.973C138.659 105.973 130.952 88.4579 130.198 73.4087C123.828 74.2719 119.49 75.8445 113.953 78.9179C116.622 93.3047 123.114 116.636 130.29 121.014C133.306 122.855 169.348 118.809 169.348 118.809C169.348 118.809 177.285 118.249 178.587 117.75C179.58 117.371 182.107 115.944 183.484 115.552C186.619 114.667 192.2 116.894 192.218 116.279C192.23 115.833 190.814 114.315 188.584 113.508Z" fill="#FFBF9C"/>
<path d="M130.385 57.3314C130.09 52.7028 128.336 48.2305 123.41 46.7918C120.356 45.8988 116.931 46.7521 114.48 48.7464C111.578 51.1178 110.759 54.9204 110.782 58.5196C110.811 66.7052 111.37 75.1687 112.863 83.2179C118.399 80.1446 124.863 78.2966 131.236 77.4359C131.243 77.3862 130.772 63.4508 130.385 57.3314Z" fill="#DDF0F8"/>
<path d="M129.073 6.06663L145.979 7.27951C145.979 7.27951 148.781 19.2228 148.321 20.1294C147.86 21.0359 126.812 20.5121 126.504 19.571C126.197 18.6298 129.073 6.06663 129.073 6.06663Z" fill="#3F2915"/>
<circle cx="123.845" cy="27.4862" r="1.35584" fill="white"/>
<rect x="68.6426" y="169.077" width="94.9438" height="58.7777" rx="0.986434" fill="url(#paint0_linear)"/>
<mask id="mask1" mask-type="alpha" maskUnits="userSpaceOnUse" x="68" y="169" width="96" height="59">
<rect x="68.6084" y="169.076" width="94.9438" height="58.7777" rx="0.986434" fill="url(#paint1_linear)"/>
</mask>
<g mask="url(#mask1)">
<circle cx="68.6933" cy="228.029" r="40.8356" transform="rotate(-9.0655 68.6933 228.029)" fill="url(#paint2_linear)" fill-opacity="0.2"/>
<circle cx="68.6375" cy="226.506" r="54.2633" transform="rotate(-9.0655 68.6375 226.506)" stroke="url(#paint3_radial)" stroke-opacity="0.2" stroke-width="8.22028"/>
</g>
<circle cx="120.012" cy="219.843" r="0.732901" fill="white"/>
<circle cx="122.106" cy="219.844" r="0.732901" fill="white"/>
<circle cx="124.2" cy="219.842" r="0.732901" fill="white"/>
<circle cx="126.294" cy="219.844" r="0.732901" fill="white"/>
<circle cx="130.902" cy="219.843" r="0.732901" fill="white"/>
<circle cx="132.996" cy="219.842" r="0.732901" fill="white"/>
<circle cx="135.09" cy="219.842" r="0.732901" fill="white"/>
<circle cx="137.183" cy="219.844" r="0.732901" fill="white"/>
<circle cx="141.791" cy="219.843" r="0.732901" fill="white"/>
<circle cx="143.884" cy="219.842" r="0.732901" fill="white"/>
<circle cx="145.979" cy="219.842" r="0.732901" fill="white"/>
<circle cx="148.072" cy="219.844" r="0.732901" fill="white"/>
<path d="M152.742 219.87C152.823 219.894 152.886 219.934 152.929 219.992C152.972 220.05 152.994 220.122 152.994 220.21C152.994 220.332 152.95 220.428 152.864 220.499C152.779 220.568 152.663 220.603 152.516 220.603C152.423 220.603 152.334 220.589 152.249 220.56C152.165 220.53 152.095 220.488 152.039 220.434L152.111 220.285C152.237 220.387 152.37 220.438 152.51 220.438C152.701 220.438 152.797 220.357 152.797 220.196C152.797 220.118 152.772 220.059 152.722 220.022C152.673 219.982 152.597 219.963 152.496 219.963H152.326V219.798H152.465C152.562 219.798 152.636 219.777 152.687 219.737C152.738 219.696 152.764 219.637 152.764 219.56C152.764 219.489 152.742 219.435 152.699 219.397C152.657 219.359 152.597 219.34 152.52 219.34C152.389 219.34 152.259 219.391 152.131 219.493L152.058 219.344C152.113 219.291 152.183 219.25 152.267 219.22C152.352 219.19 152.439 219.175 152.53 219.175C152.661 219.175 152.765 219.207 152.842 219.273C152.921 219.337 152.96 219.424 152.96 219.534C152.96 219.614 152.941 219.684 152.903 219.742C152.865 219.801 152.811 219.844 152.742 219.87ZM154.246 220.299H154.04V220.589H153.84V220.299H153.213V220.147L153.877 219.19H154.04V220.135H154.246V220.299ZM153.84 220.135V219.518L153.411 220.135H153.84ZM154.959 219.703C155.047 219.703 155.123 219.722 155.189 219.76C155.256 219.797 155.307 219.849 155.342 219.917C155.379 219.984 155.397 220.061 155.397 220.149C155.397 220.24 155.377 220.319 155.336 220.387C155.297 220.455 155.24 220.508 155.165 220.546C155.091 220.584 155.003 220.603 154.904 220.603C154.817 220.603 154.732 220.588 154.648 220.558C154.565 220.528 154.495 220.487 154.44 220.434L154.511 220.285C154.641 220.387 154.772 220.438 154.906 220.438C154.999 220.438 155.071 220.413 155.122 220.363C155.174 220.312 155.201 220.242 155.201 220.153C155.201 220.068 155.174 219.999 155.122 219.947C155.071 219.894 155.002 219.868 154.916 219.868C154.79 219.868 154.689 219.916 154.613 220.012H154.481V219.19H155.338V219.353H154.682V219.798C154.757 219.735 154.849 219.703 154.959 219.703ZM156.552 220.422V220.589H155.634V220.438L156.115 219.91C156.177 219.841 156.222 219.78 156.249 219.725C156.278 219.668 156.292 219.613 156.292 219.558C156.292 219.487 156.272 219.433 156.231 219.397C156.191 219.359 156.132 219.34 156.055 219.34C155.925 219.34 155.795 219.391 155.665 219.493L155.593 219.344C155.648 219.293 155.718 219.252 155.803 219.222C155.888 219.19 155.974 219.175 156.06 219.175C156.194 219.175 156.299 219.208 156.377 219.275C156.455 219.342 156.495 219.432 156.495 219.546C156.495 219.627 156.477 219.704 156.442 219.778C156.406 219.85 156.347 219.93 156.265 220.02L155.891 220.422H156.552Z" fill="white"/>
</g>
<defs>
<linearGradient id="paint0_linear" x1="59.5681" y1="198.512" x2="171.526" y2="190.732" gradientUnits="userSpaceOnUse">
<stop stop-color="#7AECA3"/>
<stop offset="1" stop-color="#48AA6B"/>
</linearGradient>
<linearGradient id="paint1_linear" x1="163.642" y1="198.511" x2="44.3245" y2="198.511" gradientUnits="userSpaceOnUse">
<stop stop-color="#D6EED7"/>
<stop offset="1" stop-color="#435059"/>
</linearGradient>
<linearGradient id="paint2_linear" x1="102.762" y1="206.127" x2="68.6235" y2="227.933" gradientUnits="userSpaceOnUse">
<stop stop-color="#47B036"/>
<stop offset="0.875" stop-color="#D6EED7"/>
</linearGradient>
<radialGradient id="paint3_radial" cx="0" cy="0" r="1" gradientUnits="userSpaceOnUse" gradientTransform="translate(70.0334 232.624) rotate(-31.7592) scale(55.844)">
<stop stop-color="#B6D8C0"/>
<stop offset="1" stop-color="#5AB14C"/>
</radialGradient>
<clipPath id="clip0">
<rect width="225.477" height="240.608" fill="white" transform="translate(0.522949 0.861816)"/>
</clipPath>
</defs>
</svg>
