<svg width="459" height="327" viewBox="0 0 459 327" fill="none" xmlns="http://www.w3.org/2000/svg">
<g opacity="0.3">
<path d="M196.424 146.82C253.313 183.468 272.402 218.153 251.232 251.015C230.062 283.877 175.564 301.773 129.717 250.368C83.8695 198.963 37.7543 129.891 45.2216 118.299C52.6889 106.708 139.536 110.171 196.424 146.82Z" fill="#48AA6B"/>
<path d="M70.4949 131.747C70.4949 131.747 133.976 160.218 168.969 187.075C198.77 209.947 237.624 254.452 237.624 254.452" stroke="#307147" stroke-width="0.84165" stroke-linecap="round" stroke-linejoin="round"/>
<path d="M145.082 243.461C145.082 243.461 164.108 232.521 177.619 229.837C191.967 226.986 215.072 230.469 215.072 230.469L225.583 185.543M130.792 217.971C130.792 217.971 147.126 212.954 157.82 210.685C170.715 207.949 191.227 205.855 191.227 205.855C191.227 205.855 190.304 193.211 191.298 185.21C192.33 176.906 196.566 164.441 196.566 164.441M115.806 197.899C115.806 197.899 129.006 190.896 138.13 188.27C148.462 185.296 165.405 184.528 165.405 184.528L164.887 150.546M100.233 173.301L135.584 164.944L131.31 140.532" stroke="#307147" stroke-width="0.84165" stroke-linecap="round" stroke-linejoin="round"/>
</g>
<path d="M154.818 268.896C154.185 268.689 153.539 268.522 152.884 268.397C147.961 267.486 143.108 268.671 138.138 269.704C127.611 271.905 116.499 270.016 107.875 261.717C104.713 258.574 101.071 255.955 97.086 253.959C89.7391 250.339 63.0375 253.737 65.0497 234.924C67.4829 212.161 93.5932 229.441 101.99 227.325C106.76 226.28 111.465 224.958 116.082 223.367C124.46 220.256 133.281 222.588 141.098 227.025C147.086 230.397 152.808 234.864 159.31 235.024C168.902 235.321 175.604 230.124 185.253 234.749C193.774 238.817 200.778 247.67 199.181 260.965C197.584 274.261 189.863 280.633 181.06 280.585C167.638 280.549 164.094 271.833 154.818 268.896Z" fill="#B5CCBD"/>
<path d="M91.6736 239.066C91.6736 239.066 102.924 243.504 114.404 245.405C123.55 246.92 128.465 247.772 137.542 248.75C148.206 249.899 149.042 249.551 160.435 253.583C170.004 256.97 174.07 257.278 185.866 258.953C195.155 260.271 211.297 264.322 211.297 264.322" stroke="#B3B9C0" stroke-width="0.394115"/>
<mask id="mask-illustration-2" mask-type="alpha" maskUnits="userSpaceOnUse" x="123" y="0" width="337" height="314">
<rect x="123.064" y="0.356445" width="335.936" height="313.515" fill="#C4C4C4"/>
</mask>
<g mask="url(#mask-illustration-2)">
<path fill-rule="evenodd" clip-rule="evenodd" d="M385.33 1.44078C396.41 3.20017 403.824 12.6319 412.87 19.239C421.858 25.804 433.644 29.721 438.02 39.9266C442.535 50.4571 441.408 63.2298 436.082 73.3779C431.12 82.833 419.943 86.2952 410.78 91.8294C402.528 96.8138 394.974 104.435 385.33 104.033C375.802 103.635 369.302 95.0567 361.385 89.7663C353.063 84.2049 342.795 81.0013 337.865 72.3146C332.371 62.6339 331.004 51.0095 333.203 40.1088C335.587 28.288 340.854 16.5512 350.567 9.34606C360.336 2.09919 373.297 -0.469766 385.33 1.44078Z" fill="#F9F9FA" fill-opacity="0.8"/>
<g opacity="0.5">
<path d="M254.094 0.356376L240.898 3.67041L254.763 58.8742L267.958 55.5601L254.094 0.356376Z" fill="#72BCDA" fill-opacity="0.4"/>
<path d="M215.743 37.4272L202.548 40.7412L209.933 70.1457L223.128 66.8317L215.743 37.4272Z" fill="#72BCDA" fill-opacity="0.4"/>
<path d="M195.825 53.0283L182.63 56.3423L187.508 75.7648L200.703 72.4508L195.825 53.0283Z" fill="#34AADA"/>
<path d="M175.117 65.4809L161.922 68.7949L165.09 81.4077L178.285 78.0936L175.117 65.4809Z" fill="#72BCDA" fill-opacity="0.4"/>
<path d="M153.753 75.2768L140.558 78.5908L142.676 87.0246L155.871 83.7105L153.753 75.2768Z" fill="#34AADA"/>
<path d="M235.237 20.1821L222.041 23.4961L232.343 64.5173L245.539 61.2032L235.237 20.1821Z" fill="#34AADA"/>
</g>
<path fill-rule="evenodd" clip-rule="evenodd" d="M260.439 79.7405C285.502 78.304 298.18 110.04 318.548 124.725C339.037 139.498 367.56 143.877 379.941 165.903C393.358 189.771 401.191 222.609 386.59 245.771C371.881 269.106 335.602 261.776 311.296 274.8C292.074 285.1 281.984 310.014 260.439 313.367C237.786 316.892 216.529 304.024 196.623 292.646C174.351 279.917 149.29 267.781 139.314 244.137C129.018 219.736 129.892 189.456 143.495 166.735C156.274 145.389 187.017 145.966 206.973 131.12C227.301 115.999 235.151 81.19 260.439 79.7405Z" fill="#FCF8F3"/>
<path d="M266.7 53.5688C266.7 53.5688 266.517 55.8549 266.222 57.2761C265.947 58.6031 265.279 60.6001 265.279 60.6001L261.224 70.9601C261.224 70.9601 258.311 71.4304 255.228 70.1258C252.144 68.8213 250 66.0209 250 66.0209C250 66.0209 251.561 63.5919 252.11 62.2996C253.671 58.6242 255.834 54.0557 255.834 54.0557L266.7 53.5688Z" fill="#FFBF9C"/>
<path d="M263.734 58.9724C262.853 58.5249 263.146 55.582 264.386 52.3993C265.627 49.2165 266.946 46.7953 268.228 47.4467C270.197 48.4476 268.816 50.8371 267.575 54.0198C266.334 57.2026 264.615 59.4199 263.734 58.9724Z" fill="#FFBF9C"/>
<path d="M261.385 56.513C260.438 56.0315 260.676 53.0611 261.916 49.8784C263.157 46.6957 264.5 44.2865 265.879 44.9872C267.997 46.064 266.588 48.439 265.347 51.6218C264.106 54.8045 262.332 56.9944 261.385 56.513Z" fill="#FFBF9C"/>
<path d="M258.326 56.7742C257.561 56.3851 257.999 53.3523 259.306 50.0002C260.613 46.6482 261.944 44.0689 263.059 44.6353C264.772 45.5057 263.386 48.0573 262.079 51.4094C260.772 54.7614 259.092 57.1634 258.326 56.7742Z" fill="#FFBF9C"/>
<path d="M254.997 58.6704C254.208 58.2695 254.706 55.026 256.11 51.4258C257.513 47.8257 258.931 45.0496 260.08 45.6332C261.844 46.5299 260.37 49.2776 258.967 52.8777C257.563 56.4778 255.786 59.0713 254.997 58.6704Z" fill="#FFBF9C"/>
<path d="M261.523 62.2589C261.555 61.4859 262.93 60.3549 263.787 59.3909C265.76 57.1724 267.291 56.3383 268.885 56.5343C270.8 56.7697 268.981 58.8254 267.008 61.0439C266.379 61.7517 265.621 63.3301 263.744 64.4742C262.873 64.794 261.503 62.7456 261.523 62.2589Z" fill="#FFBF9C"/>
<path d="M272.102 250.185L282.828 239.437C282.828 239.437 283.042 236.314 282.486 234.291C281.425 230.429 276.119 227.022 276.119 227.022L247.918 255.284C247.918 255.284 249.748 256.874 251.298 257.455C257.174 259.658 272.102 250.185 272.102 250.185Z" fill="#1A6C93"/>
<mask id="mask1-illustration-2" mask-type="alpha" maskUnits="userSpaceOnUse" x="247" y="227" width="36" height="31">
<path d="M272.102 250.185L282.828 239.437C282.828 239.437 283.042 236.314 282.486 234.291C281.425 230.429 276.119 227.022 276.119 227.022L247.918 255.284C247.918 255.284 249.748 256.874 251.298 257.455C257.174 259.658 272.102 250.185 272.102 250.185Z" fill="#E8F6F9"/>
</mask>
<g mask="url(#mask1-illustration-2)">
<line y1="-0.0745415" x2="44.0557" y2="-0.0745415" transform="matrix(0.706351 -0.707862 -0.707862 -0.706351 249.487 257.647)" stroke="#B9CED1" stroke-width="0.149083"/>
</g>
<path d="M281.163 97.5929C280.075 93.6739 281.412 88.4097 285.029 86.7696C286.6 86.0567 285.571 84.6463 288.701 81.5507C291.678 78.6062 296.752 78.1985 301.651 79.4244C309.519 81.3929 309.833 88.8949 309.19 90.8276C308.515 92.8533 312.49 93.2407 310.543 99.7193C302.521 113.813 288.57 124.268 281.163 97.5929Z" fill="#F27A0C"/>
<path d="M303.525 100.931L284.278 101.796C285.029 108.418 285.194 112.499 285.029 117.889C284.903 121.998 284.278 123.301 282.903 128.713L294.82 131.47L304.849 130.375C304.217 116.311 304.028 112.112 303.525 100.931Z" fill="#FFBF9C"/>
<mask id="mask2-illustration-2" mask-type="alpha" maskUnits="userSpaceOnUse" x="247" y="100" width="61" height="89">
<path d="M303.5 100.416L247.316 102.941L251.175 188.819L307.36 186.294C305.999 156.019 304.835 130.11 303.5 100.416Z" fill="#D8703B"/>
</mask>
<g mask="url(#mask2-illustration-2)">
<path d="M305.265 115.3L287.346 108.104C287.346 108.104 289.221 111.989 290.484 113.687C297.178 122.687 304.555 116.974 304.555 116.974L305.265 115.3Z" fill="#EB976B"/>
</g>
<path d="M280.913 100.293C280.915 102.584 283.204 104.443 284.6 104.442C287.521 104.439 286.242 102.579 286.24 100.289C286.238 97.9981 285.105 96.1424 283.71 96.1436C282.041 96.1451 280.911 98.0029 280.913 100.293Z" fill="#FFBF9C"/>
<path d="M253.159 257.146L263.885 246.397C263.885 246.397 264.1 243.274 263.544 241.251C262.483 237.39 257.177 233.983 257.177 233.983L228.975 262.244C228.975 262.244 230.805 263.835 232.355 264.416C238.231 266.618 253.159 257.146 253.159 257.146Z" fill="#0084BA"/>
<mask id="mask3-illustration-2" mask-type="alpha" maskUnits="userSpaceOnUse" x="228" y="233" width="36" height="32">
<path d="M253.159 257.146L263.885 246.397C263.885 246.397 264.1 243.274 263.544 241.251C262.483 237.39 257.177 233.983 257.177 233.983L228.975 262.244C228.975 262.244 230.805 263.835 232.355 264.416C238.231 266.618 253.159 257.146 253.159 257.146Z" fill="#0084BA"/>
</mask>
<g mask="url(#mask3-illustration-2)">
<line y1="-0.0745415" x2="44.0557" y2="-0.0745415" transform="matrix(0.706351 -0.707862 -0.707862 -0.706351 230.544 264.607)" stroke="#D3E3E6" stroke-width="0.149083"/>
</g>
<path d="M285.502 102.463C286.935 110.544 292.567 117.502 300.166 116.745C303.385 116.425 305.964 114.265 306.804 111.921C307.644 109.577 309.222 103.84 308.406 98.4425C306.984 89.0255 305.824 84.6345 295.079 85.1174C287.503 85.4578 283.899 93.423 285.502 102.463Z" fill="#FFBF9C"/>
<path d="M299.694 104.893C299.668 105.212 303.9 105.543 303.741 104.569C303.587 103.615 303.134 102.772 302.568 100.882C301.914 98.697 301.878 97.7686 301.69 97.6991C301.501 97.6296 301.602 98.7872 302.223 101.143C302.676 102.863 303.4 104.174 303.12 104.385C302.478 104.867 299.741 104.308 299.694 104.893Z" fill="#EB976B"/>
<path d="M290.87 94.5497C290.859 94.9686 292.243 95.2083 293.962 95.0853C295.681 94.9623 297.063 95.0899 297.074 94.671C297.085 94.2522 295.721 93.4456 294.002 93.5686C292.284 93.6916 290.881 94.1309 290.87 94.5497Z" fill="#F27A0C"/>
<path d="M309.257 94.7189C309.211 95.1395 307.808 95.3137 306.122 95.1079C304.436 94.9022 303.05 94.9639 303.096 94.5434C303.141 94.1228 304.602 93.3791 306.287 93.5848C307.973 93.7905 309.303 94.2983 309.257 94.7189Z" fill="#F27A0C"/>
<circle r="1.0303" transform="matrix(-0.996784 -0.0801363 -0.0801363 0.996784 294.124 98.1817)" fill="#1C1D38"/>
<circle r="1.0303" transform="matrix(-0.996784 -0.0801363 -0.0801363 0.996784 305.157 98.0372)" fill="#1C1D38"/>
<path d="M352.656 137.728C352.656 137.728 350.753 139.007 349.658 139.96C348.636 140.85 347.222 142.41 347.222 142.41L340.176 151.02C340.176 151.02 341.192 153.79 343.84 155.84C346.487 157.889 349.211 157.977 349.211 157.977C349.211 157.977 351.332 155.836 352.19 154.725C354.63 151.563 357.553 147.44 357.553 147.44L352.656 137.728Z" fill="#FFBF9C"/>
<path d="M348.79 143.707C349.593 144.278 351.454 143.274 352.945 141.464C354.437 139.653 355.361 137.983 354.192 137.152C352.395 135.874 351.528 137.585 350.037 139.395C348.545 141.205 347.987 143.136 348.79 143.707Z" fill="#FFBF9C"/>
<path d="M351.803 144.897C352.667 145.512 354.484 144.655 355.861 142.984C357.238 141.312 358.048 139.739 356.79 138.845C354.858 137.471 354.109 139.087 352.732 140.758C351.355 142.43 350.939 144.283 351.803 144.897Z" fill="#FFBF9C"/>
<path d="M353.344 147.361C354.042 147.857 355.649 146.997 356.933 145.439C358.216 143.881 359.009 142.442 357.993 141.719C356.431 140.608 355.688 142.083 354.404 143.641C353.12 145.198 352.646 146.864 353.344 147.361Z" fill="#FFBF9C"/>
<path d="M353.911 150.466C354.631 150.978 356.384 149.972 357.828 148.22C359.271 146.468 360.186 144.867 359.139 144.122C357.529 142.977 356.666 144.615 355.222 146.367C353.779 148.119 353.192 149.954 353.911 150.466Z" fill="#FFBF9C"/>
<path d="M350.346 145.434C350.586 144.561 349.456 142.812 348.845 141.433C347.437 138.26 346.027 136.786 344.182 136.437C341.965 136.018 343.26 138.955 344.668 142.128C345.117 143.141 344.927 145.578 346.61 147.52C347.467 148.187 350.195 145.983 350.346 145.434Z" fill="#FFBF9C"/>
<path d="M317.466 128.427C314.327 126.387 310.516 126.201 310.516 126.201C310.516 126.201 298.649 184.592 324.865 180.93C333.931 179.663 349.974 157.369 349.974 157.369L341.662 148.816C341.662 148.816 333.649 156.415 330.021 159.224C326.393 162.033 327.341 159.506 325.619 152.102L325.574 151.906C322.94 140.578 320.587 130.456 317.466 128.427Z" fill="#3B975C"/>
<path d="M321.25 196.246L297.021 195.398C297.021 195.398 296.827 248.076 298.388 279.818C298.696 286.079 301.124 291.908 306.192 294.012C313.927 297.223 318.717 297.063 322.583 287.928C332.749 263.91 321.25 196.246 321.25 196.246Z" fill="#2C3E50"/>
<path d="M270.534 112.477C276.332 114.603 282.131 118.469 282.131 118.469L268.021 141.857C268.021 141.857 239.913 110.737 239.414 99.1401C238.914 87.5428 250.431 62.9951 250.431 62.9951L262.029 69.5669C262.029 69.5669 258.55 81.5509 257.434 91.7952C257.62 93.3027 257.975 94.7397 258.55 96.0475C262.029 103.972 265.894 110.776 270.534 112.477Z" fill="#48AA6B"/>
<path d="M306.678 233.602L305.908 195.93L273.741 194.237C273.741 194.237 273.499 208.41 273.741 217.482C274.205 234.901 276.336 247.64 277.491 258.999C277.576 259.826 276.21 257.347 272.273 252.803C269.3 248.431 264.688 244.184 264.688 244.184L251.397 258.999C251.397 258.999 276.437 295.613 283.757 296.671C290.71 297.676 296.49 297.323 299.744 288.804C301.863 283.257 302.826 247.332 303.789 235.445C303.893 234.16 306.678 233.602 306.678 233.602Z" fill="#374D63"/>
<path d="M302.271 109.452C299.979 109.857 297.895 108.302 297.895 108.302C297.895 108.302 300.014 110.242 301.554 110.1C303.286 109.94 303.757 108.732 303.757 108.732C303.757 108.732 302.96 109.33 302.271 109.452Z" fill="#CD5315" stroke="#CD5315" stroke-width="0.386578" stroke-linecap="round" stroke-linejoin="round"/>
<path d="M310.93 125.622C306.38 123.672 278.651 116.924 278.651 116.924C278.651 116.924 260.953 127.743 263.574 137.219C268.6 155.388 273.239 194.433 273.239 194.433L321.175 196.172C321.175 196.172 320.338 169.015 317.497 149.01C316.666 143.154 316.066 137.044 314.989 133.16C314.074 129.857 313.636 126.782 310.93 125.622Z" fill="#48AA6B"/>
<mask id="mask4-illustration-2" mask-type="alpha" maskUnits="userSpaceOnUse" x="263" y="116" width="153" height="207">
<path d="M386.495 139.424C374.724 134.379 302.995 116.924 302.995 116.924C302.995 116.924 257.215 144.911 263.995 169.424C276.994 216.424 288.995 317.424 288.995 317.424L415.495 322.924C415.495 322.924 410.831 251.672 403.482 199.924C401.332 184.776 399.78 168.972 396.995 158.924C394.627 150.379 393.495 142.424 386.495 139.424Z" fill="#EEFAFC"/>
</mask>
<g mask="url(#mask4-illustration-2)">
<path d="M300.107 130.454C292.569 133.546 281.165 117.117 281.165 117.117L295.081 120.789L307.065 123.882C307.065 123.882 303.794 128.941 300.107 130.454Z" fill="#FFBF9C"/>
</g>
<circle cx="293.351" cy="102.641" r="0.248514" fill="#EB976B" fill-opacity="0.8"/>
<circle cx="298.818" cy="102.641" r="0.248514" fill="#EB976B" fill-opacity="0.2"/>
<circle cx="290.866" cy="100.652" r="0.248514" fill="#EB976B" fill-opacity="0.8"/>
<circle cx="292.854" cy="101.148" r="0.248514" fill="#EB976B" fill-opacity="0.5"/>
<circle cx="288.381" cy="99.6577" r="0.248514" fill="#EB976B" fill-opacity="0.2"/>
<circle cx="296.831" cy="101.645" r="0.248514" fill="#EB976B" fill-opacity="0.8"/>
<circle cx="295.836" cy="102.641" r="0.248514" fill="#EB976B" fill-opacity="0.5"/>
<circle cx="294.842" cy="101.148" r="0.248514" fill="#EB976B" fill-opacity="0.5"/>
<circle cx="298.321" cy="99.6577" r="0.248514" fill="#EB976B" fill-opacity="0.5"/>
<circle cx="303.844" cy="100.43" r="0.248514" fill="#EB976B" fill-opacity="0.5"/>
<circle cx="305.335" cy="101.424" r="0.248514" fill="#EB976B" fill-opacity="0.8"/>
<circle cx="303.844" cy="102.417" r="0.248514" fill="#EB976B" fill-opacity="0.5"/>
<circle cx="307.82" cy="100.927" r="0.248514" fill="#EB976B" fill-opacity="0.2"/>
<circle cx="306.826" cy="102.417" r="0.248514" fill="#EB976B" fill-opacity="0.5"/>
<path d="M399.08 53.0765C399.08 69.3883 385.826 82.6416 369.515 82.6416C362.961 82.6416 356.844 80.457 351.892 76.8159L337.474 80.457L343.445 66.9124C341.26 62.6888 339.95 58.0283 339.95 52.9308C339.95 36.619 353.203 23.3657 369.515 23.3657C385.826 23.5114 399.08 36.7647 399.08 53.0765Z" fill="white"/>
<path d="M352.35 76.1931L352.056 75.977L351.703 76.0663L338.82 79.3195L344.152 67.2243L344.302 66.8858L344.132 66.5572C341.997 62.4301 340.723 57.8906 340.723 52.9308C340.723 37.0472 353.628 24.1407 369.511 24.1389C385.401 24.2826 398.307 37.1942 398.307 53.0765C398.307 68.9613 385.399 81.8684 369.515 81.8684C363.135 81.8684 357.177 79.7419 352.35 76.1931Z" stroke="#374D63" stroke-opacity="0.2" stroke-width="1.54631"/>
<path d="M370.535 51.62V40.6969C372.719 40.9882 374.613 41.862 376.506 43.3184C377.089 43.7554 377.525 43.7554 377.817 43.7554C378.982 43.7554 379.856 42.8815 379.856 41.862C379.856 41.1338 379.419 40.5513 378.836 40.26C376.069 38.3667 373.593 37.4928 370.535 37.0559V35.8908C370.535 34.8713 369.661 34.1431 368.641 34.1431C367.622 34.1431 366.748 35.0169 366.748 35.8908V36.9102C360.777 37.3472 356.699 40.8426 356.699 45.6487C356.699 50.3092 359.757 52.9308 366.894 54.5328V65.7472C363.835 65.3102 361.214 64.1451 358.738 61.9605C358.592 61.8149 358.155 61.5236 357.427 61.5236C356.408 61.5236 355.534 62.3974 355.534 63.4169C355.534 64.1451 355.971 64.582 356.408 64.8733C359.612 67.4949 362.961 68.8056 366.894 69.2425V72.0097C366.894 73.0292 367.768 73.7574 368.787 73.7574C369.807 73.7574 370.68 72.8836 370.68 72.0097V69.3882C376.797 68.9513 381.021 65.4559 381.021 60.5041C381.021 55.8436 377.817 53.0764 370.535 51.62ZM367.039 50.8918C361.796 49.581 360.777 47.979 360.777 45.6487C360.777 42.8815 363.398 40.8426 367.039 40.5513V50.8918ZM377.089 60.6497C377.089 63.5625 374.467 65.6015 370.68 65.8928V55.4067C375.923 56.5718 377.089 58.3195 377.089 60.6497Z" fill="#FECC47"/>
<path d="M424.748 186.17L455.161 203.73C457.372 205.006 458.129 207.832 456.853 210.042L446.687 227.65C445.411 229.86 442.585 230.617 440.375 229.341L409.961 211.782C407.751 210.506 406.994 207.68 408.27 205.47L418.436 187.862C419.712 185.652 422.538 184.894 424.748 186.17Z" fill="#9EDCBA"/>
<path d="M456.391 210.842L417.974 188.662L414.277 195.065L452.694 217.245L456.391 210.842Z" fill="#77CB95"/>
<path d="M422.585 208.398L416.182 204.701C415.74 204.446 415.589 203.881 415.844 203.439C416.099 202.997 416.665 202.845 417.107 203.1L423.509 206.797C423.951 207.052 424.103 207.617 423.848 208.059C423.592 208.501 423.027 208.653 422.585 208.398Z" fill="white"/>
<path d="M425.539 214.372L414.334 207.903C413.892 207.648 413.74 207.083 413.995 206.641C414.251 206.199 414.816 206.047 415.258 206.302L426.463 212.772C426.905 213.027 427.056 213.592 426.801 214.034C426.546 214.476 425.981 214.628 425.539 214.372Z" fill="white"/>
</g>
</svg>
