<svg width="30" height="61" viewBox="0 0 30 61" fill="none" xmlns="http://www.w3.org/2000/svg">
<mask id="path-1-inside-1_8851_11467" fill="white">
<path fill-rule="evenodd" clip-rule="evenodd" d="M30 31.72L15 61L1.27987e-06 31.72L6.48681 31.72L6.48681 2.83547e-07L23.5138 1.02782e-06L23.5138 31.72L30 31.72Z"/>
</mask>
<path d="M15 61L15.89 61.4559L15 63.1932L14.11 61.4559L15 61ZM30 31.72L30 30.72L31.6359 30.72L30.89 32.1759L30 31.72ZM1.27987e-06 31.72L-0.890006 32.1759L-1.63588 30.72L1.32358e-06 30.72L1.27987e-06 31.72ZM6.48681 31.72L7.48681 31.72L7.48681 32.72L6.48681 32.72L6.48681 31.72ZM6.48681 2.83547e-07L5.48681 2.39836e-07L5.48681 -1L6.48681 -1L6.48681 2.83547e-07ZM23.5138 1.02782e-06L23.5138 -0.999999L24.5138 -0.999999L24.5138 1.07153e-06L23.5138 1.02782e-06ZM23.5138 31.72L23.5138 32.72L22.5138 32.72L22.5138 31.72L23.5138 31.72ZM14.11 60.5441L29.11 31.2641L30.89 32.1759L15.89 61.4559L14.11 60.5441ZM0.890009 31.2641L15.89 60.5441L14.11 61.4559L-0.890006 32.1759L0.890009 31.2641ZM6.48681 32.72L1.23616e-06 32.72L1.32358e-06 30.72L6.48681 30.72L6.48681 32.72ZM7.48681 3.27259e-07L7.48681 31.72L5.48681 31.72L5.48681 2.39836e-07L7.48681 3.27259e-07ZM23.5138 1L6.48681 1L6.48681 -1L23.5138 -0.999999L23.5138 1ZM22.5138 31.72L22.5138 9.84111e-07L24.5138 1.07153e-06L24.5138 31.72L22.5138 31.72ZM30 32.72L23.5138 32.72L23.5138 30.72L30 30.72L30 32.72Z" fill="#1E1F21" mask="url(#path-1-inside-1_8851_11467)"/>
</svg>
