<svg width="27" height="27" viewBox="0 0 27 27" fill="none" xmlns="http://www.w3.org/2000/svg">
<path d="M17.3227 8.99223H23.561V10.4387H17.3227V8.99223ZM11.0719 14.7155C12.4509 14.0849 13.1732 13.1255 13.1732 11.6432C13.1732 8.7113 10.8906 8 8.25453 8H1V22.7161H8.45779C11.2533 22.7161 13.8768 21.431 13.8768 18.4423C13.8768 16.5953 12.9637 15.2295 11.0719 14.7155ZM4.38336 10.5105H7.55722C8.77986 10.5105 9.87742 10.8362 9.87742 12.1931C9.87742 13.4423 9.02376 13.9444 7.81363 13.9444H4.38336V10.5105ZM7.995 20.2176H4.38024V16.165H8.06692C9.55535 16.165 10.4966 16.7597 10.4966 18.266C10.4966 19.7484 9.37398 20.2176 7.995 20.2176ZM26 17.5427C26 14.3897 24.0707 11.7627 20.581 11.7627C17.1882 11.7627 14.8806 14.2044 14.8806 17.4053C14.8806 20.7227 17.0663 23 20.581 23C23.242 23 24.965 21.8553 25.7936 19.4136H23.0951C22.8011 20.3252 21.6066 20.8033 20.6779 20.8033C18.8831 20.8033 17.945 19.7992 17.945 18.0926H25.9781C25.9875 17.9163 26 17.731 26 17.5427ZM17.945 16.2457C18.0419 14.844 19.0206 13.9683 20.4841 13.9683C22.0225 13.9683 22.7917 14.832 22.9262 16.2457H17.945Z" fill="#fff"/>
</svg>
