<svg width="149" height="252" viewBox="0 0 149 252" fill="none" xmlns="http://www.w3.org/2000/svg">
<path d="M47.3449 82.9766C47.5975 82.7222 48.7108 80.8375 48.9622 80.5844C61.3683 68.0927 72.5178 58.5063 70.4126 44.7711C70.3806 44.5628 69.5983 43.1542 69.3982 43.0521C69.1982 42.9499 68.9604 42.9248 68.7372 42.9824C68.514 43.04 68.3237 43.1755 68.2082 43.3591C68.0926 43.5428 68.0612 43.7594 68.1209 43.9615C68.6527 59.3849 57.8613 66.6541 46.956 80.5713C46.3846 81.466 46.665 83.4882 47.3449 82.9766Z" fill="white"/>
<path d="M52.6128 51.3696C48.9503 51.4548 46.3101 51.8937 42.7569 52.9554C42.0039 53.16 40.4191 54.2018 39.9399 54.9238C39.4607 55.6458 38.8084 57.5852 38.8145 58.5058C39.0838 61.7289 39.9399 64.4526 41.8438 67.2278C43.3193 69.9475 53.7955 76.3463 60.1033 77.9321C60.4975 77.9321 61.1217 78.3935 61.286 78.3286C61.6502 78.1845 62.0194 77.8925 61.6802 77.5357C58.5263 76.3463 43.871 69.326 42.3626 64.8491C41.7256 62.5362 39.7166 57.0602 42.7569 55.3342C45.9265 54.2532 50.018 52.7169 53.4012 52.9554C54.1251 52.9554 53.3656 51.3696 52.6128 51.3696Z" fill="white"/>
<path d="M95.2752 114.268C97.5673 114.006 105.476 111.463 107.472 110.01C109.469 108.557 110.836 106.407 111.299 103.994C111.668 101.209 111.216 98.3768 109.997 95.8401C108.779 93.3034 104.798 88.3408 102.179 86.9156C101.135 86.3475 98.2785 86.9135 101.007 88.4892C102.749 89.4951 106.175 94.0872 107.196 95.8145C108.217 97.5419 108.872 99.4576 109.122 101.445C109.216 102.549 109.066 103.66 108.684 104.701C108.301 105.743 107.695 106.689 106.907 107.474C106.119 108.26 104.981 108.947 103.863 109.54C102.434 110.297 96.8387 111.898 95.668 112.29C95.2374 112.435 94.7265 112.512 94.4973 112.684C94.268 112.855 94.4856 112.922 94.4456 113.203C94.4057 113.485 94.4802 113.772 94.653 113.999C94.8257 114.226 95.2752 114.268 95.2752 114.268Z" fill="white"/>
<path d="M53.7994 150.454C42.6601 141.787 29.6735 127.575 29.837 118.448C29.7811 108.574 40.9099 100.174 48.1057 92.7026C51.8623 89.1438 57.8927 83.4392 59.2474 79.5828C62.1046 71.4491 63.8906 64.2972 60.283 57.5719C54.6888 49.6672 51.1385 51.274 49.9541 51.6773C50.0908 51.6093 49.171 52.872 51.9408 52.8567C52.6367 52.8528 54.2312 53.5807 54.3204 53.6371C56.761 55.1795 58.536 57.4439 60.313 61.9363C60.7224 63.9179 60.7883 67.1367 60.3622 69.0781C58.4438 77.8179 54.2444 83.348 45.9479 92.1926C42.4836 95.8787 36.4055 99.3369 33.3596 103.093C28.0492 109.131 25.8405 115.6 26.9968 121.729C28.1532 127.858 42.9855 146.6 50.241 150.872C51.0291 151.356 54.7222 150.922 53.7994 150.454Z" fill="white"/>
<path d="M69.6237 45.192C67.373 35.8483 62.9092 26.8879 56.91 19.2711C50.9108 11.6542 43.331 5.3908 34.6994 0.917767C33.8881 0.349702 32.8318 1.8492 33.6431 2.41727C49.4476 13.0627 61.3161 25.4877 67.0738 43.6795C67.271 44.3023 67.4811 45.7295 67.6638 46.366C68.0829 47.2192 70.1661 47.4428 69.6237 45.192Z" fill="white"/>
<path d="M95.7223 112.481C77.7849 114.245 57.4037 111.439 46.8216 94.3956C46.7327 94.2133 46.5817 94.0996 46.402 94.0796C46.2222 94.0597 46.0283 94.135 45.863 94.289C45.6977 94.443 45.5744 94.6631 45.5203 94.901C45.4663 95.1388 45.4859 95.3748 45.5747 95.5571C53.6132 114.205 77.7367 117.791 94.9352 114.413C96.1967 114.279 96.7071 112.463 95.7223 112.481Z" fill="white"/>
<path d="M47.8136 97.2871C45.828 92.2107 45.1256 88.1194 47.7142 83.2807C48.1838 82.4028 48.7063 81.546 49.1067 81.1448C49.564 80.6867 47.5512 80.5207 47.1139 81.1529C45.4686 83.5261 45.0038 85.5855 44.7403 88.5453C44.4769 91.5051 45.4497 94.4269 46.6136 97.463C46.6716 97.611 46.7903 97.7438 46.9438 97.832C47.0973 97.9203 47.2729 97.9567 47.432 97.9334C47.5911 97.9101 47.7207 97.8289 47.7923 97.7077C47.8639 97.5865 47.8715 97.4352 47.8136 97.2871Z" fill="white"/>
<path d="M60.7138 78.3077C72.6725 85.0235 86.9413 83.6904 99.532 88.429C100.334 88.7309 102.328 90.2622 103.115 90.6171C104.001 91.1929 103.582 88.0513 101.502 87.0136C88.5046 80.1448 74.2811 84.2842 61.4071 77.6126C61.2768 77.574 61.2811 77.5579 61.2158 77.5511C61.1505 77.5442 61.0862 77.5515 61.0265 77.5726C60.9668 77.5937 60.5774 77.3551 60.5324 77.4009C60.4873 77.4467 60.4521 77.503 60.4286 77.5665C60.4051 77.6301 60.3938 77.6997 60.3954 77.7714C60.397 77.843 60.4115 77.9153 60.438 77.9841C60.4645 78.053 60.5025 78.1169 60.5498 78.1725C60.5971 78.228 60.6528 78.2739 60.7138 78.3077Z" fill="white"/>
<path d="M128.351 144.575C122.828 144.972 114.938 154.11 114.218 155.698V159.671C114.305 163.307 113.219 157.623 113.422 161.26V162.054C114.938 161.26 115.332 161.26 117.553 159.274C123.864 153.629 131.507 149.079 137.054 158.256C137.863 159.594 138.499 161.049 138.816 162.591C139.163 164.104 139.134 165.791 139.134 167.071C138.88 178.996 120.195 205.539 108.559 210.124C107.23 210.647 105.075 211.231 104.286 211.713C96.7994 210.336 102.314 215.289 108.559 213.302C115.958 210.948 122.514 204.953 128.351 198.603C138.445 186.575 159.531 142.332 128.351 144.575ZM127.167 142.191C131.901 141 138.412 142.557 141.764 144.972C145.115 147.387 146.583 150.715 147.681 154.904C150.141 163.514 144.261 179.729 139.791 186.685C135.452 193.439 129.674 200.141 124.8 204.959C120.647 209.219 114.639 212.507 107.837 214.494C105.41 215.202 103.071 215.988 103.137 215.231V215.202C103.166 214.824 102.333 210.124 102.708 210.124C105.453 210.182 106.653 209.571 108.231 208.932C110.6 207.972 112.771 206.318 114.938 204.166C124.117 195.045 136.78 180.602 136.635 167.071C136.635 165.616 136.635 164.569 136.375 163.434C136.144 162.329 135.74 161.223 135.191 160.205C130.358 151.811 123.21 157.751 117.553 161.66C116.121 162.649 114.938 163.434 113.422 164.041L112.965 164.835C112.445 164.806 112.526 163.114 112.555 162.591C112.757 158.954 112.468 160.13 112.555 156.493L112.571 154.904C112.571 154.73 112.763 152.492 112.965 152.521C114.731 151.726 121.644 143.581 127.167 142.191Z" fill="white"/>
<path d="M58.8137 151.719C49.1214 151.719 39.4291 151.315 29.8222 150.362C24.9974 149.871 20.2153 149.236 15.4759 148.197C10.8219 147.1 5.99712 145.975 2.19705 143.088L5.52744 142.338C7.02184 163.64 9.15604 183.268 13.9741 206.243C16.6846 214.088 22.5692 225.507 26.9868 231.473C32.5342 236.61 34.0084 238.579 39.2703 242.537C46.7989 246.883 51.95 247.693 58.771 247.693C72.5545 246.488 74.9319 244.117 83.6492 238.585C88.474 234.717 92.7371 230 94.7439 225.151C96.7938 220.09 99.0332 214.665 100.291 209.332C105.694 186.429 110.478 163.64 111.972 142.338L115.473 143.146C111.63 146.032 106.806 147.158 102.152 148.255C97.4549 149.265 92.63 149.929 87.8052 150.391C78.1983 151.344 68.506 151.748 58.8137 151.719ZM58.8137 151.286C68.4633 151.228 78.1129 150.68 87.5063 149.294C92.203 148.573 96.8144 147.707 101.212 146.494C105.482 145.311 109.965 143.752 112.356 141.53C112.997 140.952 114.192 140.808 115.046 141.241C115.516 141.472 115.702 141.068 115.745 141.443V141.53C113.651 164.313 110.878 188.828 105.442 209.332C103.768 215.647 101.364 222.722 97.9138 228.312C94.7439 233.449 91.181 238.38 85.6304 242.537C80.1224 246.722 76.5457 247.837 68.9883 250.031C63.8372 251.229 62.2522 251.229 56.3086 251.229C40.0409 250.97 37.3196 246.105 26.9868 237.821C21.1001 233.227 12.7222 218.434 10.3448 206.185C5.19364 185.243 0.318383 163.582 1.81279 142.28V142.194C1.85549 141.501 2.70936 140.981 3.73409 141.01C4.33186 141.039 4.8016 141.241 5.14318 141.53C7.57693 143.752 12.0601 145.311 16.3299 146.494C20.7277 147.707 25.3389 148.573 30.0357 149.294C39.5145 150.737 49.1641 151.257 58.8137 151.286Z" fill="white"/>
<path d="M116.537 139.81C116.537 141.754 113.407 143.21 111.414 144.329C109.421 145.536 107.047 146.39 104.757 147.273C100.051 148.952 95.0475 150.159 90.0018 151.16C79.8681 153.192 69.2254 153.869 58.7524 153.634C48.2371 153.31 37.8914 152.102 27.7153 150.512C22.6272 149.717 17.5814 148.805 12.663 147.421C10.2037 146.714 7.78691 145.948 5.53968 144.829C3.37724 143.74 0.960383 142.12 0.74838 139.647C0.663579 137.173 2.95326 135.289 5.03089 134.023C7.19332 132.698 9.65249 131.755 12.1117 130.931C17.0302 129.311 22.1608 128.251 27.3337 127.427C37.6794 125.837 48.2371 125.071 58.7524 125.13C69.2678 125.248 79.8681 125.955 90.0018 128.045C95.0475 129.076 100.093 130.283 104.757 131.962C107.089 132.845 109.421 133.699 111.414 134.936C113.449 136.084 116.58 137.808 116.537 139.81ZM113.771 139.006C113.771 137.8 111.423 136.984 109.43 135.983C107.395 134.982 105.063 134.187 102.646 133.628C97.812 132.479 94.2419 131.314 89.1538 130.901C79.02 130.165 68.8862 129.753 58.7524 129.841C48.6187 129.93 38.4426 130.283 28.5209 131.52C23.6024 132.168 18.6839 132.933 14.0622 134.17C11.815 134.788 9.56778 135.495 7.70215 136.408C5.79412 137.291 4.35243 138.44 4.18282 139.676C4.01322 140.913 5.37014 142.297 7.19336 143.387C8.97419 144.505 11.2213 145.359 13.4686 146.096C18.0478 147.568 23.0512 148.481 28.0969 149.158C38.2306 150.395 48.5764 150.306 58.7101 150.012C68.8863 149.717 79.02 149.305 89.1538 148.51C94.1995 148.068 99.2451 146.782 104.079 145.633C106.496 145.074 108.143 143.82 110.22 142.819C112.256 141.729 113.729 140.743 113.771 139.006Z" fill="white"/>
</svg>
