<svg width="27" height="27" viewBox="0 0 27 27" fill="none" xmlns="http://www.w3.org/2000/svg">
<path d="M18.0096 8.4342C18.5637 7.76104 18.8867 7.05625 19 6.33278C17.4333 4.90256 15.4179 4 13.2193 4C12.0841 4 11.0015 4.2395 10 4.65855C11.677 6.49019 13.0794 8.65893 14.1764 11C15.7927 10.3628 17.1399 9.49116 18.0096 8.4342Z" fill="#1E1F21"/>
<path d="M19.3738 9.00084C18.3476 10.217 16.8223 11.2061 15 11.925C15.2265 12.4531 15.4346 12.9923 15.6305 13.5384C16.5664 13.3244 17.5363 13.2026 18.5255 13.2026C20.0827 13.2026 21.5954 13.4836 22.9904 14C22.9917 13.932 23 13.8659 23 13.7974C23 11.179 22.0512 8.79763 20.5102 7C20.2828 7.69669 19.9054 8.37091 19.3738 9.00084Z" fill="#1E1F21"/>
<path d="M4 11.6557C5.15098 11.8741 6.42618 12 7.65118 12C9.55016 12 11.3743 11.7107 13 11.2137C11.8798 8.9038 10.4396 6.77788 8.72066 5C6.38134 6.35025 4.57641 8.79349 4 11.6557Z" fill="#1E1F21"/>
<path d="M23 14.7695C21.6286 14.2703 20.1192 14 18.5601 14C17.6861 14 16.8278 14.0886 16 14.2504C16.8404 16.6877 17.3267 19.3222 17.4097 22C20.3663 20.7065 22.5275 17.982 23 14.7695Z" fill="#1E1F21"/>
<path d="M4 13.4464C4 16.4664 5.46676 19.2081 7.64392 21C7.87459 19.477 8.56646 17.9787 9.69331 16.7247C11.0337 15.2332 12.8937 14.1164 15 13.4789C14.804 12.9771 14.5899 12.4851 14.3639 12C12.4817 12.554 10.3618 12.8722 8.12711 12.8722C6.75994 12.8722 5.33718 12.7426 4.04746 12.5177C4.01823 12.8238 4 13.133 4 13.4464V13.4464Z" fill="#1E1F21"/>
<path d="M10.8181 17.6979C9.68973 18.8646 9.07841 20.2329 9 21.6327C10.4955 22.4938 12.2551 23 14.1444 23C15.1378 23 16.0962 22.8606 17 22.6049C16.9561 19.9719 16.4767 17.3829 15.605 15C13.697 15.5276 12.0187 16.4567 10.8181 17.6979Z" fill="#1E1F21"/>
</svg>
