<svg width="314" height="354" viewBox="0 0 314 354" fill="none" xmlns="http://www.w3.org/2000/svg">
<path d="M251.477 40.5455C245.584 47.6735 239.512 54.681 233.529 61.7275L215.172 82.8625C202.859 96.8846 190.455 110.825 178.006 124.725L159.106 145.371L139.957 165.793C127.146 179.367 114.516 193.104 102.067 207.004L102.217 206.337L102.243 206.4L101.484 205.877L111.453 205.186C111.879 205.169 112.261 205.473 112.31 205.918C112.315 206.003 112.301 206.11 112.286 206.217L108.786 218.148L107.672 217.064L117.942 213.676C118.465 213.505 119.059 213.8 119.242 214.326C119.292 214.451 119.323 214.599 119.288 214.728L119.291 214.771L118.596 223.772L117.276 222.463L127.403 221.233C128.144 221.138 128.818 221.664 128.906 222.385C128.936 222.533 128.924 222.683 128.91 222.79L128.892 222.855L127.757 229.252C127.696 229.639 127.459 229.947 127.174 230.172L127.134 230.216L127.114 230.238L126.475 227.537L126.625 227.552L125.375 228.03C137.62 213.947 149.956 199.945 162.36 186.004C174.786 172.084 187.077 158.042 199.684 144.285C212.224 130.466 224.695 116.587 237.416 102.931L256.406 82.3667L275.555 61.9448L275.654 63.5177L251.477 40.5455ZM251.595 40.0505L277.128 61.8369C277.6 62.2222 277.666 62.9228 277.266 63.3655L277.226 63.4098L258.892 84.5652L240.4 105.578C228.132 119.641 215.615 133.48 203.166 147.379C190.762 161.32 178.087 175.016 165.525 188.814C152.94 202.592 140.287 216.308 127.544 229.943L127.504 229.987C127.185 230.342 126.724 230.489 126.27 230.401L126.12 230.386L126.077 230.388C125.28 230.272 124.701 229.55 124.821 228.735C124.88 228.306 125.154 227.911 125.481 227.685L125.501 227.662L124.856 228.606L126.207 222.241L127.696 223.863L117.525 224.733L117.483 224.734C116.846 224.803 116.261 224.316 116.198 223.658C116.193 223.573 116.188 223.488 116.205 223.423L117.178 214.432L118.55 215.548L108.174 218.599L108.154 218.621C107.694 218.768 107.207 218.49 107.072 218.048C107.019 217.88 107.028 217.688 107.083 217.536L110.758 205.684L111.569 206.695L101.572 207.28C101.231 207.294 100.897 207.073 100.813 206.757L100.788 206.694C100.71 206.463 100.779 206.205 100.938 206.028C113.478 192.209 125.836 178.228 138.014 164.084L156.348 142.928L174.931 121.997C187.471 108.179 200.056 94.4009 212.731 80.7048L231.857 60.2625C238.33 53.5366 244.691 46.709 251.232 40.0442C251.377 39.9743 251.505 39.969 251.595 40.0505Z" fill="#1E1F21"/>
<path d="M291.707 44.7513C287.025 41.7949 282.686 38.4572 278.491 35.0052C276.369 33.2164 274.227 31.45 272.206 29.5491C270.145 27.693 268.245 25.6576 266.388 23.6198L268.519 23.5073C265.521 26.2927 262.413 29.0199 259.706 32.0675C256.932 35.0547 254.384 38.2862 251.901 41.5356L251.811 39.789C254.034 41.4657 256.257 43.1423 258.418 44.8437L264.804 50.1876C266.906 51.9989 269.089 53.7204 271.107 55.5787C273.189 57.4123 275.21 59.3132 277.188 61.2164L273.949 61.3875C276.768 58.4407 279.697 55.5522 282.672 52.7466C285.61 50.0284 288.57 47.3305 291.707 44.7513ZM292.227 44.8947C289.991 48.366 287.51 51.6581 285.05 54.9277C282.567 58.1771 279.974 61.3683 277.357 64.4967C276.55 65.4363 275.146 65.5532 274.229 64.7686L274.117 64.6678C271.995 62.879 269.893 61.0678 267.875 59.2094C265.813 57.3534 263.853 55.3852 261.854 53.5044L255.873 47.712C253.912 45.7438 252.033 43.6859 250.156 41.6706L250.019 41.5069C249.589 41.0384 249.617 40.3321 250.086 39.9015C253.062 37.0959 256.013 34.2276 258.698 31.1597C261.45 28.1524 263.818 24.7594 266.301 21.51C266.762 20.909 267.61 20.7788 268.21 21.2383L268.432 21.3974C270.676 23.0517 272.899 24.7283 274.938 26.5642C277.019 28.3979 279.02 30.3212 281.021 32.2445C284.982 36.1361 288.799 40.142 292.275 44.5718C292.302 44.6772 292.308 44.805 292.227 44.8947Z" fill="#1E1F21"/>
<path d="M285.447 51.7758C286.271 50.0778 287.233 48.5037 288.218 46.9503L288.39 48.9256C286.229 47.4058 284.141 45.7584 282.154 44.0462C280.108 42.3981 278.29 40.4515 276.611 38.3972C274.932 36.3429 273.21 34.2893 271.261 32.5343C269.331 30.7579 267.224 29.1319 265.044 27.6335L266.774 27.6035C265.709 29.2004 264.643 30.7973 263.466 32.333L263.232 29.6433C267.365 32.9387 271.518 36.2128 275.204 39.9579C278.864 43.6404 282.365 47.4519 285.447 51.7758ZM285.325 52.325C280.614 49.671 276.365 46.5039 272.255 43.2291C268.122 39.9337 264.432 36.1465 260.746 32.4013L260.582 32.2148C259.863 31.4907 259.83 30.3758 260.512 29.7116C261.899 28.4037 263.377 27.1785 264.875 25.9318L265.11 25.7173C265.545 25.373 266.205 25.4247 266.582 25.8811C268.3 27.8926 270.137 29.8179 272.106 31.5515C274.055 33.3065 276.277 34.8042 278.496 36.2599C280.696 37.7369 282.822 39.3415 284.694 41.182C286.605 42.9798 288.442 44.905 290.198 46.8738L290.435 47.1643C290.882 47.6827 290.84 48.42 290.37 48.8491L290.351 48.8705C288.849 50.0751 287.348 51.2797 285.621 52.3199C285.563 52.3841 285.436 52.3862 285.325 52.325Z" fill="#1E1F21"/>
<path d="M259.107 34.9217C258.432 36.3451 257.668 37.6878 256.836 38.9701L256.694 37.1938C258.825 38.6534 260.922 40.1965 262.863 41.8676C264.862 43.4752 266.692 45.3144 268.327 47.3239C269.963 49.3334 271.622 51.363 273.505 53.0975C275.389 54.832 277.448 56.4174 279.58 57.877L277.88 57.9177C278.791 56.5922 279.657 55.2263 280.613 53.941L280.819 56.5021C276.762 53.3091 272.705 50.1161 269.071 46.499C265.52 42.8799 262.105 39.1541 259.107 34.9217ZM259.23 34.3807C263.859 36.9392 268.011 40.0265 272.008 43.2417C276.007 46.4982 279.607 50.1988 283.184 53.8793L283.388 54.1021C284.044 54.7692 284.067 55.8241 283.408 56.4193L283.389 56.4405C282.21 57.5242 280.94 58.5273 279.716 59.5706L279.484 59.7832C279.054 60.1246 278.407 60.078 278.038 59.6316C276.364 57.6644 274.573 55.7828 272.651 54.0906C270.729 52.3984 268.536 50.961 266.367 49.5438C264.197 48.1266 262.176 46.4988 260.369 44.6797C258.504 42.9241 256.731 41.0214 255.076 39.033L254.846 38.7489C254.455 38.2823 254.485 37.6193 254.934 37.2568C256.181 36.2335 257.495 35.2708 258.921 34.4088C258.997 34.3242 259.121 34.3212 259.23 34.3807Z" fill="#1E1F21"/>
<path d="M259.549 48.9846C248.236 63.87 236.156 78.0645 223.401 91.6518C216.907 98.3408 210.158 104.799 203.804 111.614C197.426 118.408 191.421 125.536 185.485 132.728C179.573 139.94 173.591 147.09 167.446 154.093C161.324 161.117 155.226 168.162 148.942 175.039C136.28 188.71 123.409 202.193 109.84 215.047C109.76 215.135 109.608 215.118 109.515 215.034C109.422 214.951 109.412 214.821 109.491 214.733C120.851 199.889 132.931 185.695 145.244 171.71C151.436 164.749 157.813 157.955 164.167 151.14C170.498 144.305 176.992 137.616 183.555 130.99C190.095 124.343 196.542 117.612 202.664 110.588C208.762 103.543 214.512 96.1841 220.494 89.0346C232.691 74.9448 245.562 61.4622 259.2 48.6705C259.28 48.5821 259.433 48.5996 259.526 48.6833C259.599 48.7892 259.609 48.9183 259.549 48.9846Z" fill="#1E1F21"/>
<path d="M267.549 55.9844C261.988 63.4154 256.167 70.5731 250.186 77.6272C244.203 84.6383 238.129 91.6086 231.731 98.2859C225.305 104.899 218.604 111.304 212.298 118.065C205.969 124.805 200.032 131.858 194.145 138.996C188.281 146.155 182.367 153.229 176.27 160.178C170.217 167.126 164.167 174.118 157.931 180.942C145.386 194.483 132.631 207.837 119.179 220.562C119.099 220.65 118.947 220.633 118.854 220.549C118.761 220.465 118.751 220.336 118.83 220.248C130.073 205.533 142.037 191.468 154.234 177.612C160.377 170.705 166.686 163.987 172.992 157.226C179.274 150.444 185.7 143.831 192.215 137.258C198.707 130.665 205.086 124.01 211.159 117.039C217.189 110.07 222.89 102.765 228.824 95.6686C234.804 88.6145 241.09 81.8756 247.466 75.1774C253.841 68.4793 260.383 61.9707 267.2 55.6703C267.28 55.582 267.433 55.5996 267.526 55.6833C267.599 55.7891 267.609 55.9182 267.549 55.9844Z" fill="#1E1F21"/>
<path d="M292.846 44.2089C296.275 38.6837 300.267 33.6662 304.417 28.7907C307.324 25.376 300.691 18.0858 298.153 15.0353C295.4 12.1749 283.645 4.37305 279.906 10.2258C276.035 15.4718 273.167 17.5864 269.025 22.5888L269.605 20.4116C273.814 24.0816 277.824 27.9716 281.755 31.9496C285.576 35.8685 289.3 39.9397 292.846 44.2089ZM292.709 44.7235C288.004 41.6037 283.498 38.2639 279.13 34.77C274.783 31.2541 270.475 27.6942 266.385 23.8922L266.295 23.811C265.368 22.9362 265.296 21.4756 266.129 20.5513L266.168 20.5073C270.694 15.8501 274.112 12.0954 278.931 7.70216C284.474 1.73911 294.707 9.59079 299.144 13.0452C304.717 18.151 311.665 25.299 305.325 32.3312C300.845 37.0291 298.25 40.6618 293.026 44.6896C292.946 44.7776 292.819 44.7827 292.709 44.7235Z" fill="#1E1F21"/>
<path d="M89.3512 244.781C89.8503 241.413 90.5204 238.079 91.2995 234.803C92.0786 231.526 92.9644 228.266 93.9369 225.043C94.8671 221.822 95.9462 218.615 97.2209 215.503L101.194 206.183L101.232 206.096C101.343 205.794 101.649 205.588 101.967 205.593C105.28 205.402 108.596 205.253 111.907 205.02C112.287 205.001 112.641 205.279 112.661 205.658C112.665 205.743 112.65 205.849 112.612 205.936C111.337 209.851 110.172 213.824 108.984 217.777L108.068 216.872C111.457 215.705 114.816 214.39 118.178 213.118C118.781 212.897 119.474 213.199 119.696 213.802C119.748 213.968 119.777 214.115 119.785 214.284L119.792 214.41L119.295 223.405L117.485 221.615L127.523 220.085C128.594 219.924 129.607 220.676 129.77 221.747C129.803 221.978 129.792 222.169 129.761 222.382L129.748 222.531L128.625 228.913C128.492 229.597 128.077 230.147 127.499 230.43L127.355 230.501C124.322 231.989 121.286 233.435 118.225 234.777C115.14 236.098 112.034 237.4 108.881 238.619C105.75 239.858 102.573 241.015 99.3684 242.068C96.1887 243.183 92.9622 244.215 89.6646 245.104C89.5402 245.152 89.409 245.074 89.3801 244.928C89.3757 244.843 89.3534 244.823 89.3512 244.781ZM90.0866 244.278C92.7484 242.576 95.4791 240.977 98.2143 239.462C101.154 237.809 104.14 236.239 107.151 234.731C110.139 233.203 113.197 231.777 116.254 230.351C119.314 228.967 122.443 227.686 125.551 226.426L124.301 227.992L125.765 221.677L127.991 224.123L117.868 224.853L117.742 224.859C116.877 224.925 116.124 224.286 116.057 223.423C116.05 223.296 116.066 223.189 116.081 223.083L117.388 214.174L119.001 215.466C115.515 216.385 112.026 217.262 108.566 218.285L108.546 218.308C108.171 218.411 107.757 218.2 107.653 217.824C107.624 217.678 107.595 217.531 107.651 217.38C108.903 213.445 110.155 209.51 111.343 205.557L112.09 206.47C108.801 206.723 105.474 207.063 102.19 207.401L102.963 206.811L100.67 216.68C99.8911 219.957 98.8542 223.162 97.7306 226.329C96.6293 229.516 95.419 232.645 94.1443 235.757C92.8562 238.615 91.5259 241.476 90.0866 244.278Z" fill="#1E1F21"/>
<path d="M94.6562 227L94.5658 227.283L89.5899 245.314L107.017 238.495L107.29 238.375L94.6562 227Z" fill="#1E1F21"/>
<path d="M2.22328 216.756C5.00614 211.288 16.6562 206 16.6562 206C16.6562 206 5.20942 213.333 2.22328 219.2C1.35408 220.908 2.09091 221.305 2.72097 223.111C3.65763 225.796 7.69785 228 7.69785 228C7.69785 228 1.26511 225.614 0.730212 222.133C0.399462 219.981 1.22787 218.711 2.22328 216.756Z" fill="#1E1F21"/>
<path d="M55.837 291.512C50.7844 284.409 45.7171 282.606 45.7171 282.606C45.7171 282.606 52.5246 287.205 55.8308 295.955C56.7932 298.502 58.8682 305.06 57.79 307.57C56.9823 309.451 56.4815 315.666 54.3173 319.167C52.1865 322.613 49.3709 325.086 49.3709 325.086C49.3709 325.086 50.5512 324.157 52.8317 322.125C57.4234 318.035 59.7622 309.791 59.769 304.853C59.7733 301.728 58.3012 294.977 55.837 291.512Z" fill="#1E1F21"/>
<path d="M41.5725 268.435C41.9032 270.604 41.1888 272.229 40.5775 274.348C39.1588 279.265 35.4583 287.696 32.1193 292.087C27.6228 298 24.6562 298 24.6562 298C24.6562 298 29.3227 293.987 32.6169 288.638C36.2125 282.799 39.0848 274.349 39.0848 270.899C39.0848 269.42 40.2122 269.27 39.5824 267.449C38.646 264.743 36.5971 264 36.5971 264C36.5971 264 41.0378 264.926 41.5725 268.435Z" fill="#1E1F21"/>
<path d="M53.6562 242.5L50.6562 241L52.1562 245L48.6562 249L50.6562 248L53.1562 246L53.6562 242.5Z" fill="#1E1F21"/>
<path d="M106.656 320.385L103.929 319L105.747 320.846L101.656 325L103.929 324.077L106.202 322.692L106.656 320.385Z" fill="#1E1F21"/>
<path d="M13.9675 256.465L17.2677 255.23L14.2621 259.062L13.6467 261.497L14.2981 263.874L12.096 262.608L12.3133 259.2L13.9675 256.465Z" fill="#1E1F21"/>
<path d="M19.7805 286.689L24.1136 283.591L20.6899 287.644L17.7209 292.167C17.7209 292.167 17.1767 294.155 17.1538 295.133C17.1096 297.023 18.9084 298.999 18.9084 298.999L16.6619 297.605L15.7416 295.183L16.9027 290.232L19.7805 286.689Z" fill="#1E1F21"/>
<path d="M44.3911 312.475L51.1781 308.181L42.321 318.067L41.6065 320.475L41.5509 323.502L42.9714 326.499L40.2345 324.536L39.629 321.019L41.6807 316.44L44.3911 312.475Z" fill="#1E1F21"/>
<path d="M90.9888 245.402C76.4952 244.206 50.849 176.006 8.29055 212.988C-18.0497 234.279 56.5729 235.036 54.2288 244.206C50.9772 256.927 13.3179 247.085 13.3179 260.683C13.3179 268.212 43.1561 259.633 42.0845 268.212C41.7088 271.22 40.484 276.406 38.3877 281.721M38.3877 281.721C35.5364 288.951 31.3422 297.202 24.9398 298.978C18.1182 300.87 15.9535 298.386 17.8454 292.47C19.8545 286.187 27.1129 280.971 38.3877 281.721ZM38.3877 281.721C40.3832 281.854 42.5046 282.174 44.7449 282.708C51.8082 284.391 59.216 294.878 59.4726 305.418M59.4726 305.418C59.5167 307.229 59.3497 309.042 58.9337 310.811C57.8498 315.643 53.8494 325.543 46.5185 326.49C41.0683 326.489 39.4242 321.461 46.5185 313.178C49.2757 309.959 54.2257 307.167 59.4726 305.418ZM59.4726 305.418C65.3152 303.471 71.526 302.816 75.4872 304.303C85.897 308.21 87.0452 323.473 87.171 333.258M87.171 333.258C87.1866 334.473 87.1865 335.604 87.1863 336.618L87.1863 336.9C87.1863 342.464 87.733 351.303 82.3501 352.536C72.4998 354.794 72.413 348.381 75.4872 342.464C77.7178 338.528 81.6674 336.039 87.171 333.258ZM87.171 333.258C91.9959 330.819 98.0153 328.155 105.118 324.093C112.103 320.099 102.934 317.496 98.4433 317.496C102.435 317.996 110.107 320.098 103.122 324.093C96.0196 328.154 90.0003 330.818 85.1753 333.257M90.4607 245.331C75.9671 244.135 48.8533 176.006 6.29489 212.987C-20.0453 234.279 54.5773 235.035 52.2331 244.206C48.9816 256.926 11.3222 247.084 11.3222 260.682C11.3222 268.212 41.1604 259.633 40.0889 268.212C39.7131 271.22 38.4884 276.406 36.3921 281.721M36.3921 281.721C33.5407 288.951 29.0769 296.42 22.9441 298.978C19.1014 300.58 13.9579 298.386 15.8497 292.47C17.8589 286.186 25.1173 280.97 36.3921 281.721ZM36.3921 281.721C38.3876 281.854 40.5089 282.173 42.7493 282.707C49.8126 284.39 57.2203 294.878 57.4769 305.418M57.4769 305.418C57.521 307.229 57.3541 309.041 56.938 310.811C55.8542 315.642 53.5411 327.333 44.5607 326.49C40.1267 326.49 37.4285 321.46 44.5229 313.177C47.2801 309.958 52.2301 307.167 57.4769 305.418ZM57.4769 305.418C63.3196 303.471 69.5303 302.816 73.4916 304.303C83.9013 308.209 85.0496 323.472 85.1753 333.257M85.1753 333.257C85.191 334.473 85.1908 335.604 85.1907 336.618L85.1906 336.9C85.1906 342.464 85.6753 351.057 80.3545 352.536C73.4916 354.444 70.4173 348.38 73.4916 342.464C75.7222 338.528 79.6717 336.039 85.1753 333.257Z" stroke="#1E1F21"/>
<path d="M83.2767 311.589C78.0425 304.351 73.7209 303.518 73.7209 303.518C73.7209 303.518 79.8457 307.202 83.2766 316.114C84.2753 318.708 84.8082 323.66 84.8081 327.682L84.8076 346.289C83.7863 350.308 81.2334 352.312 81.2334 352.312C81.2334 352.312 81.9419 352.877 84.297 350.812C89.0389 346.655 87.3609 333.22 86.8505 326.179C86.6205 323.006 85.8296 315.12 83.2767 311.589Z" fill="#1E1F21"/>
<path d="M75.4085 339.519L82.4826 335.349L77.426 339.542L73.3897 345.168L72.7084 347.606L72.8552 350.03L74.4556 352.624L71.8164 350.533L71.7709 346.926L72.6564 343.484L75.4085 339.519Z" fill="#1E1F21"/>
</svg>
