<svg width="239" height="259" viewBox="0 0 239 259" fill="none" xmlns="http://www.w3.org/2000/svg">
<path d="M176.822 40.5466C170.937 47.6821 164.874 54.6972 158.899 61.7512L140.567 82.909C128.271 96.9463 115.884 110.902 103.452 124.817L84.5771 145.486L65.4537 165.931C52.6596 179.52 40.0464 193.272 27.6142 207.187L27.7639 206.519L27.7893 206.582L27.0308 206.06L36.9931 205.363C37.4187 205.346 37.8006 205.649 37.8502 206.095C37.8556 206.18 37.8411 206.287 37.8265 206.395L34.3369 218.334L33.2228 217.251L43.4836 213.855C44.0061 213.683 44.6009 213.978 44.7835 214.504C44.8341 214.63 44.8648 214.778 44.8304 214.907L44.8331 214.949L44.1447 223.956L42.8243 222.647L52.9445 221.411C53.6852 221.316 54.3586 221.842 54.447 222.563C54.4777 222.711 54.4658 222.861 54.4513 222.968L54.434 223.033L53.3034 229.435C53.2425 229.821 53.006 230.13 52.7216 230.355L52.6817 230.399L52.6618 230.422L52.0212 227.719L52.1715 227.734L50.9217 228.213C63.1502 214.115 75.4693 200.098 87.8562 186.142C100.266 172.207 112.54 158.149 125.13 144.377C137.653 130.543 150.108 116.648 162.811 102.978L181.776 82.3904L200.9 61.9457L200.999 63.5195L176.822 40.5466ZM176.94 40.0512L202.472 61.8369C202.944 62.2222 203.01 62.9231 202.611 63.3664L202.571 63.4107L184.262 84.5889L165.795 105.624C153.544 119.702 141.044 133.556 128.612 147.471C116.225 161.427 103.566 175.138 91.0211 188.952C78.4532 202.744 65.8174 216.476 53.0911 230.126L53.0513 230.171C52.7323 230.525 52.2723 230.673 51.8187 230.585L51.6684 230.57L51.6258 230.572C50.8291 230.456 50.25 229.734 50.369 228.919C50.4272 228.49 50.7008 228.094 51.0278 227.867L51.0478 227.845L50.4035 228.789L51.7497 222.421L53.2392 224.043L43.0748 224.918L43.0323 224.92C42.3966 224.989 41.811 224.502 41.748 223.844C41.7426 223.759 41.7372 223.674 41.7544 223.609L42.7208 214.612L44.0929 215.727L33.7255 218.786L33.7055 218.808C33.2455 218.956 32.7585 218.678 32.6238 218.235C32.5704 218.067 32.5796 217.875 32.634 217.723L36.2993 205.862L37.11 206.873L27.1197 207.464C26.7792 207.478 26.4452 207.257 26.3612 206.941L26.3358 206.878C26.2572 206.647 26.3261 206.388 26.4856 206.211C39.0082 192.377 51.3499 178.381 63.5106 164.221L81.8194 143.043L100.377 122.089C112.9 108.255 125.468 94.4626 138.126 80.7513L157.227 60.2862C163.692 53.5528 170.044 46.7175 176.577 40.0452C176.722 39.9751 176.849 39.9697 176.94 40.0512Z" fill="#1E1F21"/>
<path d="M217.053 44.7532C212.371 41.7975 208.033 38.4602 203.839 35.0084C201.717 33.2197 199.575 31.4534 197.554 29.5524C195.492 27.6963 193.592 25.6607 191.735 23.6227L193.865 23.5089C190.87 26.2977 187.766 29.0282 185.063 32.0792C182.292 35.0697 179.748 38.3045 177.269 41.5573L177.178 39.8096C179.401 41.4861 181.624 43.1625 183.784 44.8637L190.17 50.2074C192.272 52.0186 194.454 53.74 196.473 55.5983C198.554 57.4319 200.575 59.3329 202.554 61.2362L199.316 61.4091C202.132 58.459 205.057 55.5671 208.029 52.7582C210.963 50.0368 213.919 47.3356 217.053 44.7532ZM217.573 44.8964C215.34 48.371 212.863 51.6664 210.406 54.9393C207.927 58.1921 205.338 61.3866 202.724 64.5183C201.919 65.459 200.516 65.5767 199.599 64.7921L199.487 64.6913C197.365 62.9025 195.263 61.0914 193.245 59.233C191.183 57.377 189.223 55.4086 187.224 53.5278L181.242 47.7352C179.282 45.7668 177.402 43.7087 175.525 41.6932L175.388 41.5295C174.958 41.0609 174.985 40.3542 175.454 39.9231C178.426 37.1142 181.374 34.2425 184.054 31.1713C186.803 28.1607 189.167 24.7644 191.647 21.5117C192.107 20.91 192.954 20.7793 193.555 21.2387L193.777 21.3979C196.02 23.0519 198.242 24.7283 200.281 26.5642C202.363 28.3978 204.364 30.3213 206.365 32.2447C210.326 36.1364 214.144 40.1427 217.62 44.5733C217.647 44.6787 217.654 44.8066 217.573 44.8964Z" fill="#1E1F21"/>
<path d="M210.797 51.7818C211.62 50.0824 212.58 48.5068 213.564 46.9519L213.737 48.9283C211.576 47.4087 209.489 45.7615 207.501 44.0494C205.456 42.4014 203.638 40.4545 201.958 38.3999C200.278 36.3453 198.556 34.2914 196.607 32.5364C194.677 30.76 192.571 29.1342 190.391 27.6361L192.12 27.605C191.056 29.2035 189.992 30.802 188.817 32.3393L188.581 29.648C192.714 32.9432 196.866 36.217 200.553 39.9624C204.213 43.6451 207.715 47.457 210.797 51.7818ZM210.676 52.3315C205.966 49.6784 201.718 46.5117 197.608 43.2371C193.475 39.942 189.785 36.1545 186.098 32.4091L185.934 32.2225C185.216 31.4984 185.181 30.3829 185.862 29.7178C187.248 28.4084 188.724 27.1816 190.22 25.9334L190.455 25.7186C190.89 25.3739 191.549 25.4252 191.927 25.8817C193.645 27.8936 195.482 29.819 197.451 31.5526C199.4 33.3076 201.622 34.8049 203.841 36.2603C206.04 37.737 208.166 39.3414 210.038 41.182C211.949 42.9798 213.786 44.9053 215.543 46.8743L215.779 47.1649C216.226 47.6833 216.185 48.4211 215.716 48.8507L215.696 48.8721C214.197 50.0783 212.697 51.2844 210.972 52.3262C210.914 52.3904 210.787 52.3926 210.676 52.3315Z" fill="#1E1F21"/>
<path d="M184.453 34.9238C183.78 36.3484 183.017 37.6923 182.187 38.9759L182.043 37.1986C184.174 38.6578 186.271 40.2008 188.212 41.8718C190.21 43.4793 192.04 45.3187 193.676 47.3284C195.312 49.3382 196.971 51.3682 198.855 53.1027C200.739 54.8372 202.797 56.4225 204.929 57.8818L203.23 57.9235C204.14 56.5966 205.005 55.2294 205.959 53.9429L206.166 56.5054C202.11 53.3127 198.053 50.1199 194.419 46.5026C190.867 42.8833 187.453 39.1571 184.453 34.9238ZM184.576 34.3823C189.203 36.9399 193.355 40.0268 197.351 43.2417C201.351 46.498 204.951 50.199 208.528 53.8798L208.733 54.1025C209.389 54.7697 209.412 55.8252 208.754 56.4211L208.735 56.4423C207.557 57.5273 206.289 58.5317 205.066 59.5764L204.834 59.7892C204.405 60.131 203.758 60.0848 203.39 59.6383C201.715 57.6708 199.923 55.7891 198.001 54.0969C196.079 52.4047 193.888 50.9677 191.718 49.5508C189.549 48.1339 187.528 46.5062 185.721 44.687C183.856 42.9313 182.083 41.0284 180.428 39.0398L180.197 38.7556C179.806 38.2889 179.836 37.6255 180.284 37.2625C181.529 36.238 182.842 35.2739 184.266 34.4107C184.343 34.326 184.467 34.3229 184.576 34.3823Z" fill="#1E1F21"/>
<path d="M184.893 48.9848C173.597 63.8854 161.533 78.095 148.795 91.6975C142.31 98.394 135.569 104.86 129.223 111.682C122.854 118.484 116.857 125.62 110.93 132.819C105.026 140.039 99.0526 147.196 92.9162 154.207C86.803 161.238 80.7131 168.291 74.4371 175.176C61.7922 188.862 48.938 202.36 35.3861 215.229C35.3065 215.318 35.1538 215.3 35.0608 215.217C34.9678 215.133 34.9577 215.004 35.0373 214.915C46.38 200.056 58.4436 185.847 70.7397 171.847C76.9227 164.878 83.2916 158.077 89.6374 151.254C95.9598 144.411 102.445 137.715 109 131.081C115.532 124.426 121.971 117.688 128.084 110.656C134.174 103.604 139.915 96.2374 145.888 89.0802C158.068 74.9753 170.923 61.4775 184.544 48.6707C184.624 48.5822 184.776 48.5996 184.87 48.6833C184.943 48.7892 184.953 48.9184 184.893 48.9848Z" fill="#1E1F21"/>
<path d="M192.893 55.9846C187.34 63.4231 181.527 70.5883 175.555 77.6499C169.58 84.6685 163.515 91.6464 157.125 98.3311C150.708 104.952 144.015 111.364 137.717 118.133C131.397 124.881 125.468 131.941 119.589 139.086C113.733 146.253 107.828 153.334 101.74 160.291C95.6945 167.247 89.6528 174.246 83.4251 181.077C70.8966 194.634 58.1588 208.002 44.7233 220.742C44.6438 220.831 44.4912 220.813 44.3982 220.73C44.3052 220.646 44.295 220.517 44.3745 220.428C55.6008 205.699 67.548 191.619 79.7278 177.748C85.8625 170.833 92.1633 164.107 98.4608 157.339C104.735 150.549 111.152 143.929 117.659 137.349C124.142 130.748 130.513 124.085 136.578 117.107C142.6 110.13 148.293 102.817 154.218 95.7139C160.19 88.6522 166.467 81.9058 172.835 75.2002C179.202 68.4945 185.735 61.9784 192.544 55.6705C192.624 55.5821 192.776 55.5996 192.87 55.6833C192.943 55.7892 192.953 55.9183 192.893 55.9846Z" fill="#1E1F21"/>
<path d="M218.215 44.2312C221.637 38.7008 225.624 33.678 229.768 28.7974C232.671 25.379 226.037 18.088 223.499 15.037C220.746 12.1764 208.992 4.37625 205.26 10.2346C201.394 15.4859 198.529 17.6033 194.393 22.611L194.971 20.4322C199.18 24.102 203.191 27.9922 207.122 31.9706C210.943 35.8897 214.668 39.9613 218.215 44.2312ZM218.078 44.7462C213.374 41.6271 208.868 38.2877 204.501 34.794C200.154 31.2784 195.846 27.7187 191.756 23.9166L191.666 23.8354C190.739 22.9606 190.665 21.4992 191.498 20.5738L191.537 20.5298C196.057 15.8673 199.47 12.1085 204.283 7.70994C209.819 1.74026 220.051 9.59112 224.488 13.0452C230.061 18.151 237.009 25.2996 230.678 32.3395C226.204 37.0426 223.613 40.679 218.394 44.712C218.315 44.8002 218.188 44.8053 218.078 44.7462Z" fill="#1E1F21"/>
<path d="M14.7355 244.818C15.232 241.448 15.8995 238.111 16.676 234.832C17.4524 231.553 18.3354 228.29 19.3051 225.065C20.2326 221.842 21.3089 218.632 22.5808 215.518L26.5451 206.189L26.5828 206.103C26.6935 205.801 26.9998 205.594 27.3174 205.599C30.6286 205.406 33.9421 205.255 37.2511 205.02C37.6308 205.001 37.9842 205.279 38.0046 205.659C38.0091 205.743 37.9937 205.85 37.956 205.936C36.6849 209.855 35.5227 213.831 34.3383 217.787L33.4224 216.882C36.8082 215.711 40.165 214.394 43.524 213.119C44.1257 212.898 44.8189 213.2 45.0416 213.803C45.0928 213.969 45.1218 214.116 45.1308 214.285L45.1376 214.412L44.6465 223.412L42.837 221.622L52.8674 220.086C53.9378 219.924 54.9512 220.676 55.1144 221.747C55.1479 221.978 55.137 222.169 55.1061 222.383L55.0929 222.532L53.9752 228.919C53.8426 229.603 53.4278 230.153 52.8506 230.437L52.7064 230.508C49.6762 231.999 46.6438 233.447 43.5846 234.791C40.5033 236.115 37.3997 237.419 34.2493 238.641C31.1212 239.883 27.9464 241.042 24.7448 242.097C21.5678 243.215 18.3439 244.25 15.0489 245.14C14.9246 245.189 14.7935 245.111 14.7645 244.964C14.76 244.88 14.7378 244.86 14.7355 244.818ZM15.4701 244.314C18.1292 242.61 20.8572 241.008 23.5897 239.49C26.5264 237.835 29.5098 236.262 32.5177 234.751C35.5034 233.221 38.5581 231.792 41.6127 230.364C44.6696 228.978 47.7954 227.694 50.9013 226.432L49.6524 228L51.1122 221.68L53.3377 224.125L43.222 224.862L43.0955 224.868C42.2316 224.934 41.4781 224.296 41.4107 223.432C41.4039 223.305 41.4193 223.198 41.4347 223.092L42.7344 214.176L44.348 215.469C40.8643 216.39 37.3782 217.269 33.9212 218.295L33.9013 218.318C33.526 218.422 33.1127 218.21 33.008 217.835C32.979 217.688 32.95 217.541 33.0054 217.39C34.2542 213.452 35.503 209.514 36.6875 205.557L37.4346 206.471C34.1478 206.726 30.8234 207.068 27.5412 207.408L28.3136 206.817L26.0288 216.694C25.2523 219.973 24.2182 223.18 23.0975 226.35C21.9989 229.539 20.7915 232.671 19.5196 235.785C18.2342 238.646 16.9066 241.509 15.4701 244.314Z" fill="#1E1F21"/>
<path d="M20 227L19.9098 227.283L14.9491 245.328L32.3615 238.495L32.6335 238.375L20 227Z" fill="#1E1F21"/>
</svg>
