<svg width="109" height="153" viewBox="0 0 109 153" fill="none" xmlns="http://www.w3.org/2000/svg">
<path d="M2.56703 15.7556C5.34989 10.2884 17 5 17 5C17 5 5.55317 12.3333 2.56703 18.2C1.69783 19.9077 2.43466 20.305 3.06472 22.1111C4.00138 24.7961 8.0416 27 8.0416 27C8.0416 27 1.60886 24.6143 1.07396 21.1333C0.743212 18.9809 1.57162 17.7111 2.56703 15.7556Z" fill="#1E1F21"/>
<path d="M56.1807 90.5122C51.1281 83.409 46.0609 81.6055 46.0609 81.6055C46.0609 81.6055 52.8683 86.2047 56.1746 94.9548C57.1369 97.5017 59.2119 104.06 58.1337 106.57C57.3261 108.451 56.8252 114.666 54.661 118.167C52.5302 121.613 49.7147 124.086 49.7147 124.086C49.7147 124.086 50.895 123.157 53.1754 121.125C57.7671 117.035 60.106 108.791 60.1128 103.853C60.1171 100.728 58.645 93.9766 56.1807 90.5122Z" fill="#1E1F21"/>
<path d="M41.9163 67.4348C42.2469 69.6043 41.5325 71.2289 40.9212 73.3478C39.5026 78.2654 35.802 86.696 32.463 91.087C27.9666 97 25 97 25 97C25 97 29.6664 92.9869 32.9606 87.6377C36.5562 81.799 39.4286 73.3487 39.4286 69.8986C39.4286 68.4203 40.556 68.2697 39.9261 66.4493C38.9897 63.743 36.9409 63 36.9409 63C36.9409 63 41.3815 63.9263 41.9163 67.4348Z" fill="#1E1F21"/>
<path d="M54 41.5L51 40L52.5 44L49 48L51 47L53.5 45L54 41.5Z" fill="#1E1F21"/>
<path d="M107 119.385L104.273 118L106.091 119.846L102 124L104.273 123.077L106.545 121.692L107 119.385Z" fill="#1E1F21"/>
<path d="M14.3112 55.4653L17.6115 54.2303L14.6059 58.0625L13.9904 60.4967L14.6418 62.8744L12.4398 61.608L12.6571 58.2002L14.3112 55.4653Z" fill="#1E1F21"/>
<path d="M20.1243 85.6895L24.4573 82.5906L21.0336 86.6436L18.0647 91.1672C18.0647 91.1672 17.5204 93.1547 17.4975 94.1331C17.4534 96.023 19.2521 97.9989 19.2521 97.9989L17.0057 96.6054L16.0853 94.183L17.2465 89.2322L20.1243 85.6895Z" fill="#1E1F21"/>
<path d="M44.7349 111.475L51.5218 107.181L42.6647 117.067L41.9503 119.475L41.8946 122.502L43.3152 125.499L40.5783 123.536L39.9727 120.019L42.0244 115.44L44.7349 111.475Z" fill="#1E1F21"/>
<path d="M91.3325 44.4022C76.8389 43.2058 51.1927 -24.9935 8.6343 11.9878C-17.7059 33.2794 56.9167 34.0356 54.5725 43.2062C51.321 55.9266 13.6616 46.0846 13.6616 59.6829C13.6616 67.2123 43.4998 58.6334 42.4283 67.2123C42.0526 70.2205 40.8278 75.406 38.7315 80.7213M38.7315 80.7213C35.8801 87.951 31.686 96.2022 25.2835 97.9781C18.462 99.8703 16.2973 97.3864 18.1891 91.4699C20.1983 85.1865 27.4567 79.9707 38.7315 80.7213ZM38.7315 80.7213C40.727 80.8541 42.8483 81.1739 45.0887 81.7077C52.152 83.3907 59.5597 93.8781 59.8164 104.418M59.8164 104.418C59.8604 106.229 59.6935 108.042 59.2774 109.811C58.1936 114.643 54.1931 124.543 46.8623 125.49C41.412 125.489 39.7679 120.461 46.8623 112.178C49.6195 108.959 54.5695 106.167 59.8164 104.418ZM59.8164 104.418C65.659 102.471 71.8697 101.816 75.831 103.303C86.2407 107.21 87.389 122.473 87.5147 132.258M87.5147 132.258C87.5304 133.473 87.5302 134.604 87.5301 135.618L87.53 135.9C87.53 141.464 88.0768 150.303 82.6939 151.536C72.8436 153.794 72.7567 147.381 75.831 141.464C78.0616 137.528 82.0111 135.039 87.5147 132.258ZM87.5147 132.258C92.3397 129.819 98.359 127.155 105.462 123.093C112.447 119.099 103.277 116.496 98.7871 116.496C102.778 116.996 110.451 119.098 103.466 123.093C96.3634 127.154 90.344 129.818 85.5191 132.257M90.8045 44.3313C76.3108 43.1349 49.1971 -24.994 6.63864 11.9874C-19.7016 33.2789 54.921 34.0351 52.5769 43.2057C49.3253 55.9262 11.666 46.0842 11.666 59.6825C11.666 67.2119 41.5042 58.6329 40.4326 67.2119C40.0569 70.22 38.8321 75.4055 36.7358 80.7208M36.7358 80.7208C33.8845 87.9506 29.4207 95.4204 23.2879 97.9777C19.4451 99.58 14.3016 97.386 16.1935 91.4695C18.2026 85.1861 25.461 79.9702 36.7358 80.7208ZM36.7358 80.7208C38.7313 80.8537 40.8527 81.1734 43.093 81.7073C50.1563 83.3903 57.5641 93.8777 57.8207 104.418M57.8207 104.418C57.8648 106.229 57.6978 108.041 57.2818 109.811C56.1979 114.642 53.8849 126.333 44.9044 125.49C40.4704 125.49 37.7722 120.46 44.8666 112.177C47.6238 108.958 52.5738 106.167 57.8207 104.418ZM57.8207 104.418C63.6633 102.471 69.8741 101.816 73.8353 103.303C84.2451 107.209 85.3933 122.472 85.5191 132.257M85.5191 132.257C85.5347 133.473 85.5346 134.604 85.5344 135.618L85.5344 135.9C85.5344 141.464 86.019 150.057 80.6982 151.536C73.8353 153.444 70.7611 147.38 73.8353 141.464C76.0659 137.528 80.0155 135.039 85.5191 132.257Z" stroke="#1E1F21"/>
<path d="M83.6205 110.589C78.3863 103.351 74.0647 102.518 74.0647 102.518C74.0647 102.518 80.1895 106.202 83.6204 115.114C84.619 117.708 85.1519 122.66 85.1518 126.682L85.1514 145.289C84.1301 149.308 81.5771 151.312 81.5771 151.312C81.5771 151.312 82.2857 151.877 84.6407 149.812C89.3826 145.655 87.7046 132.22 87.1943 125.179C86.9642 122.006 86.1733 114.12 83.6205 110.589Z" fill="#1E1F21"/>
<path d="M75.7523 138.519L82.8263 134.349L77.7698 138.542L73.7334 144.168L73.0521 146.606L73.1989 149.03L74.7994 151.624L72.1601 149.533L72.1146 145.926L73.0002 142.484L75.7523 138.519Z" fill="#1E1F21"/>
</svg>
