<svg width="430" height="404" viewBox="0 0 430 404" fill="none" xmlns="http://www.w3.org/2000/svg">
<g clip-path="url(#clip0)">
<path d="M57.0115 179.79C73.6853 124.218 113.506 77.5274 171.243 62.7692C199.153 55.6017 228.51 56.3317 256.029 64.8775C283.547 73.4233 308.142 89.4478 327.061 111.158C344.854 132.661 357.131 158.171 362.828 185.48C368.525 212.789 367.47 241.073 359.755 267.883C342.231 324.565 288.94 357.085 234.146 369.427C233.613 369.612 233.164 369.98 232.881 370.467C232.597 370.953 232.498 371.525 232.601 372.078C232.704 372.632 233.002 373.13 233.442 373.482C233.881 373.835 234.433 374.018 234.996 373.999C293.452 367.926 349.358 328.287 366.947 270.952C375.271 242.067 376.196 211.557 369.638 182.222C363.08 152.887 349.249 125.667 329.415 103.061C242.45 8.17669 78.3278 52.3862 54.0037 179.137C53.546 180.835 56.4884 181.488 57.0115 179.79Z" fill="#1E1F21"/>
<path d="M56 170.01C16.5851 277.596 129.162 396.437 238.025 374.318C240.566 373.795 240.631 369.476 238.025 369.606C188.773 371.046 143.234 363.062 107.728 326.153C64.6648 281.653 46.4883 231.983 59.1272 170.73C59.5181 168.897 56.5864 168.308 56 170.01Z" fill="#1E1F21"/>
<path d="M106.155 96.767L106.915 97.6614C107.74 98.4961 109.452 97.6614 108.818 96.5286L108.184 95.515C108.096 95.3897 107.983 95.2819 107.852 95.1976C107.72 95.1133 107.572 95.0543 107.416 95.0238C107.101 94.9623 106.772 95.021 106.503 95.1871C106.234 95.3531 106.046 95.6128 105.981 95.9091C105.915 96.2054 105.978 96.514 106.155 96.767Z" fill="#1E1F21"/>
<path d="M280.14 120.719C294.24 140.837 307.422 173.433 337.918 167.227C338.249 167.166 338.541 166.978 338.732 166.702C338.923 166.426 338.995 166.087 338.935 165.757C338.874 165.428 338.684 165.137 338.407 164.947C338.131 164.757 337.789 164.684 337.459 164.745C307.095 167.358 296.47 140.119 281.714 119.412C280.993 118.302 279.419 119.673 280.14 120.719Z" fill="#1E1F21"/>
<path d="M261.274 108.293C272.836 121.795 276.271 142.871 291.929 152.816C293.052 153.54 294.704 151.96 293.581 150.972C279.839 138.392 275.809 120.017 263.454 106.515C263.337 106.372 263.193 106.254 263.03 106.167C262.867 106.08 262.688 106.025 262.504 106.007C262.132 105.97 261.761 106.082 261.472 106.317C261.183 106.553 261 106.894 260.963 107.264C260.925 107.635 261.037 108.005 261.274 108.293Z" fill="#1E1F21"/>
<path d="M255.241 117.99C275.414 139.819 286.96 174.272 318.42 181.965C319.847 182.294 320.625 180.19 319.198 179.796C288.063 171.379 277.36 138.176 256.928 116.478C256.02 115.229 254.268 116.675 255.241 117.99Z" fill="#1E1F21"/>
<path d="M338.956 183C340.194 183 340.38 181 338.956 181C337.531 181 337.717 183 338.956 183Z" fill="#1E1F21"/>
<path d="M339.025 183.379C343.421 183.014 347.841 183.661 351.96 185.273C356.079 186.884 359.793 189.419 362.829 192.691C364.064 193.755 365.625 191.826 364.65 190.629C361.367 187.048 357.288 184.332 352.759 182.71C348.229 181.089 343.384 180.611 338.635 181.317C338.404 181.404 338.21 181.573 338.089 181.793C337.968 182.013 337.928 182.269 337.975 182.517C338.021 182.765 338.153 182.987 338.345 183.145C338.538 183.303 338.779 183.386 339.025 183.379Z" fill="#1E1F21"/>
<path d="M248.328 105.34C237.801 101.33 225.845 104.222 214.798 103.368C201.087 102.381 194.134 90.6135 183.802 83.1845C182.762 82.4613 181.268 84.0392 182.308 84.8938C189.65 91.4681 196.863 101.855 206.611 105.406C219.607 110.008 234.487 105.406 247.744 107.97C248.978 108.298 249.433 105.866 248.328 105.34Z" fill="#1E1F21"/>
<path d="M77.7822 136.076C128.409 117.127 152.545 175.146 193.949 187.648C207.423 191.686 221.355 190.253 235.157 192.141C265.506 196.374 280.943 216.104 296.837 239.546C297.557 240.653 299.519 239.546 298.8 238.244C289.642 223.072 279.177 206.923 263.806 197.611C241.828 184.588 214.683 190.644 191.267 182.244C152.414 168.178 123.438 115.434 76.6702 133.862C75.1658 134.448 76.2778 136.662 77.7822 136.076Z" fill="#1E1F21"/>
<path d="M304.094 245.234C308.522 254.295 314.915 262.282 322.82 268.627C330.725 274.973 339.948 279.522 349.834 281.952C351.729 282.403 352.905 279.564 350.945 279.048C341.524 276.606 332.736 272.214 325.165 266.161C317.595 260.109 311.414 252.535 307.035 243.944C306.949 243.753 306.826 243.581 306.673 243.437C306.52 243.293 306.339 243.181 306.142 243.106C305.744 242.955 305.301 242.966 304.911 243.137C304.521 243.308 304.216 243.625 304.063 244.018C303.91 244.412 303.921 244.849 304.094 245.234Z" fill="#1E1F21"/>
<path d="M363.841 205.604C357.546 205.084 351.223 204.899 344.905 205.052C343.51 205.052 343.775 207.016 344.905 207.139C351.085 207.733 357.295 208.02 363.509 207.999C365.236 207.999 365.502 205.727 363.841 205.604Z" fill="#1E1F21"/>
<path d="M322.956 219.002C324.103 229.16 328.054 238.812 334.377 246.905C340.701 254.999 349.155 261.223 358.818 264.899C359.209 265.046 359.644 265.032 360.026 264.862C360.408 264.692 360.706 264.379 360.854 263.992C361.002 263.605 360.988 263.176 360.816 262.799C360.643 262.422 360.326 262.128 359.934 261.982C350.815 258.36 342.803 252.466 336.679 244.877C330.555 237.287 326.528 228.261 324.992 218.678C324.907 218.452 324.746 218.263 324.536 218.142C324.325 218.02 324.079 217.975 323.839 218.013C323.598 218.052 323.379 218.171 323.217 218.351C323.056 218.532 322.964 218.762 322.956 219.002Z" fill="#1E1F21"/>
<path d="M350.862 215.037C348.075 214.806 345.306 215.66 343.111 217.428C340.916 219.197 339.458 221.748 339.031 224.569C338.726 227.818 339.348 231.088 340.824 233.985C342.299 236.881 344.564 239.279 347.345 240.89C347.606 241.01 347.9 241.033 348.175 240.953C348.451 240.874 348.69 240.697 348.85 240.455C349.011 240.213 349.083 239.921 349.053 239.63C349.023 239.34 348.894 239.069 348.687 238.866C346.805 237.555 345.205 235.865 343.985 233.901C342.764 231.936 341.949 229.738 341.589 227.441C341.44 226.163 341.564 224.866 341.954 223.642C342.345 222.417 342.991 221.294 343.849 220.35C344.707 219.406 345.755 218.664 346.922 218.175C348.089 217.686 349.346 217.462 350.606 217.518C350.928 217.553 351.251 217.455 351.503 217.247C351.754 217.039 351.915 216.737 351.949 216.408C351.983 216.079 351.887 215.75 351.683 215.493C351.48 215.236 351.184 215.072 350.862 215.037Z" fill="#1E1F21"/>
<path d="M336.766 191.002C327.063 191.529 311.394 192.518 305.034 201.222C299.658 208.673 302.15 221.003 306.214 228.256C307.001 229.575 309.296 229.048 308.968 227.399C307.132 219.025 301.887 209.134 308.968 201.683C316.049 194.233 328.112 193.705 337.094 193.112C338.47 192.98 338.077 190.936 336.766 191.002Z" fill="#1E1F21"/>
<path d="M309.141 187.077C305.087 188.422 301.59 191.126 299.209 194.755C296.827 198.384 295.699 202.729 296.005 207.095C296.005 208.334 298.162 208.269 298.162 207.095C298.087 203.224 299.216 199.429 301.385 196.263C303.553 193.097 306.648 190.724 310.22 189.489C311.743 188.837 310.664 186.555 309.141 187.077Z" fill="#1E1F21"/>
<path d="M183.395 59.6683C191.209 67.0205 200.62 72.4138 210.869 75.4142C217.042 78.267 223.393 80.7098 229.88 82.7271C234.111 83.7812 244.333 81.3436 247.458 82.7271C248.63 83.3201 249.541 81.4095 248.499 80.6848C246.221 78.9718 246.091 79.2354 243.291 79.1036C241.272 79.3433 239.272 79.7174 237.302 80.2236C232.207 80.1948 227.182 79.0248 222.588 76.7977C209.567 71.9883 195.895 67.3765 185.739 57.3624C184.372 56.1765 181.963 58.153 183.395 59.6683Z" fill="#1E1F21"/>
<path d="M198.48 61.6174C206.955 66.8464 235.744 79.2 233.868 58.1532C233.868 56.5191 231.215 56.7152 231.086 58.1532C229.792 74.6246 207.99 63.7744 199.58 59.3297C198.416 58.8068 197.251 60.8984 198.48 61.6174Z" fill="#1E1F21"/>
<path d="M168.404 198.131C181.311 209.502 196.905 217.375 213.703 221C215.011 221 215.468 219.1 214.226 218.707C198.107 214.297 183.021 206.724 169.842 196.427C168.6 195.117 167.227 197.148 168.404 198.131Z" fill="#1E1F21"/>
<path d="M228.653 220.066C234.581 221.755 240.51 223.445 246.505 225C247.822 225 248.613 223.243 247.229 222.905C241.301 221.215 235.306 219.66 229.377 218.038C228.06 217.7 227.335 219.728 228.653 220.066Z" fill="#1E1F21"/>
<path d="M290.455 247.607C308.606 264.159 310.362 301.109 337.23 307.952C337.557 308.041 337.905 308.006 338.207 307.852C338.509 307.699 338.743 307.439 338.865 307.123C338.986 306.806 338.986 306.456 338.864 306.14C338.743 305.823 338.508 305.563 338.206 305.41C312.509 293.485 312.184 262.791 292.017 245.326C290.65 244.153 289.154 246.434 290.455 247.607Z" fill="#1E1F21"/>
<path d="M324.121 276.989C326.608 281.093 330.081 284.521 334.227 286.966C338.373 289.411 343.065 290.797 347.882 291C348.187 290.933 348.459 290.764 348.654 290.523C348.849 290.281 348.956 289.98 348.956 289.67C348.956 289.36 348.849 289.06 348.654 288.818C348.459 288.576 348.187 288.408 347.882 288.34C343.526 287.884 339.323 286.487 335.568 284.246C331.813 282.004 328.596 278.974 326.145 275.367C325.557 274.329 323.338 275.691 324.121 276.989Z" fill="#1E1F21"/>
<path d="M53.6641 216.244C88.036 225.195 94.8843 266.491 119.212 288.118C143.54 309.746 179.999 324.382 181.629 363.652C181.629 365.482 184.956 365.416 184.956 363.652C184.434 326.931 153.453 311.38 128.017 291.32C100.298 269.496 92.0798 221.863 54.1859 214.022C52.9467 213.761 52.4249 215.917 53.6641 216.244Z" fill="#1E1F21"/>
<path d="M186.362 324.086C193.369 329.839 199.108 336.965 203.219 345.019C207.33 353.073 209.725 361.882 210.256 370.897C210.256 372.4 213.02 372.335 212.954 370.897C212.655 361.438 210.237 352.164 205.876 343.75C201.516 335.336 195.321 327.993 187.744 322.255C186.494 321.34 185.309 323.105 186.362 324.086Z" fill="#1E1F21"/>
<path d="M206.15 322.907C207.487 325.319 209.066 327.579 210.86 329.651C211.062 329.848 211.323 329.969 211.599 329.995C211.876 330.021 212.153 329.951 212.386 329.795C212.62 329.64 212.796 329.409 212.887 329.138C212.978 328.867 212.978 328.573 212.888 328.302C211.598 325.91 210.086 323.651 208.374 321.559C207.458 320.21 205.3 321.559 206.15 322.907Z" fill="#1E1F21"/>
<path d="M185.309 341.513C187.537 343.97 189.12 346.946 189.914 350.171C189.914 351.473 192.249 351.148 191.925 349.846C191.046 346.268 189.309 342.96 186.865 340.211C185.957 339.56 184.206 340.536 185.309 341.513Z" fill="#1E1F21"/>
<path d="M135.218 261.831C154.746 285.288 187.294 291.038 208.905 312.665C209.947 313.645 211.639 312.273 210.663 311.162C190.288 287.967 157.22 283.132 136.91 260.394C136.816 260.282 136.701 260.191 136.572 260.124C136.442 260.057 136.301 260.016 136.156 260.004C136.011 259.992 135.865 260.008 135.726 260.053C135.588 260.097 135.459 260.169 135.348 260.263C135.237 260.358 135.145 260.473 135.079 260.603C135.012 260.733 134.971 260.875 134.959 261.02C134.947 261.166 134.964 261.312 135.008 261.452C135.053 261.591 135.124 261.72 135.218 261.831Z" fill="#1E1F21"/>
<path d="M224.211 325.146C235.511 337.097 242.804 352.382 245.047 368.811C245.047 370.71 248.198 370.186 247.941 368.288C245.841 351.262 238.187 335.447 226.205 323.378C224.983 322.265 223.311 323.836 224.211 325.146Z" fill="#1E1F21"/>
<path d="M66.3462 237.813C69.7841 238.51 72.8085 240.557 74.7562 243.506C75.6833 244.711 77.3389 243.506 76.8753 242.099C75.9498 240.04 74.4733 238.284 72.6126 237.03C70.7519 235.775 68.5813 235.072 66.3462 235C65.9774 235 65.6237 235.148 65.3629 235.412C65.1021 235.676 64.9556 236.033 64.9556 236.406C64.9556 236.779 65.1021 237.137 65.3629 237.401C65.6237 237.665 65.9774 237.813 66.3462 237.813Z" fill="#1E1F21"/>
<path d="M153.405 349.954C155.963 351.457 158.628 352.796 161.381 353.961C161.657 354.029 161.95 354.008 162.211 353.899C162.472 353.791 162.686 353.603 162.817 353.365C162.947 353.128 162.987 352.856 162.93 352.594C162.873 352.332 162.722 352.097 162.501 351.927C159.932 350.458 157.243 349.18 154.459 348.105C153.339 347.551 152.35 349.338 153.405 349.954Z" fill="#1E1F21"/>
<path d="M249.295 319.329L250.838 321.56C251.71 322.639 253.521 321.56 252.783 320.192C252.31 319.262 251.772 318.372 251.173 317.529C250.167 316.09 248.155 317.889 249.295 319.329Z" fill="#1E1F21"/>
<path d="M264.105 345.539C266.763 350.222 268.274 355.524 268.502 360.97C268.502 362.619 271.077 362.157 270.951 360.509C270.63 354.84 268.945 349.349 266.052 344.55C265.298 343.363 263.414 344.286 264.105 345.539Z" fill="#1E1F21"/>
<path d="M254.19 310.892C263.595 323.886 270.605 338.546 274.872 354.145C275.256 355.463 277.241 355.2 276.921 353.749C273.363 337.448 266.074 322.257 255.662 309.442C254.958 308.255 253.357 309.706 254.19 310.892Z" fill="#1E1F21"/>
<path d="M94.9556 120C96.2025 120 96.3726 118 94.9556 118C93.5386 118 93.7086 120 94.9556 120Z" fill="#1E1F21"/>
<path d="M119.663 105.887C128.19 108.962 136.482 112.639 144.473 116.891C145.633 117.464 146.535 115.619 145.504 114.983C137.675 110.29 129.244 106.653 120.436 104.17C119.083 103.406 118.309 105.442 119.663 105.887Z" fill="#1E1F21"/>
<path d="M128.425 92.0934C140.402 99.3883 152.788 106.003 165.524 111.906C166.628 112.421 167.538 110.684 166.498 110.041C154.575 102.691 142.232 96.0329 129.53 90.0993C128.36 89.5203 127.321 91.6431 128.425 92.0934Z" fill="#1E1F21"/>
<path d="M144.292 85.3113C152.657 92.3075 162.125 97.9252 172.327 101.945C173.572 102.33 174.62 100.596 173.441 99.8897C164.139 94.3024 154.707 89.4215 145.798 83.2561C144.685 82.2928 143.309 84.2837 144.292 85.3113Z" fill="#1E1F21"/>
<path d="M183.345 166.823C190.454 171.609 198.395 175.059 206.769 177C207.992 177 208.443 175.283 207.284 174.965C199.257 172.788 191.586 169.49 184.503 165.169C183.731 164.469 182.251 166.123 183.345 166.823Z" fill="#1E1F21"/>
<path d="M238.877 185.406C253.953 188.826 268.012 195.779 279.905 205.699C281.264 206.804 282.753 204.593 281.458 203.487C269.432 192.971 254.814 185.896 239.135 183C237.712 183 237.518 185.146 238.877 185.406Z" fill="#1E1F21"/>
<path d="M159.628 261.324C166.22 265.278 172.482 269.488 179.404 272.869C180.657 273.506 181.514 271.657 180.525 270.891C174.394 266.618 167.67 263.11 161.21 259.346C159.694 258.198 157.98 260.176 159.628 261.324Z" fill="#1E1F21"/>
<path d="M171.413 217.017C187.605 226.112 205.196 232.524 223.487 236C224.995 236 225.586 233.797 224.077 233.408C206.306 229.107 189.032 223.006 172.528 215.203C171.282 214.361 170.364 216.369 171.413 217.017Z" fill="#1E1F21"/>
<path d="M176.742 231.088C182.433 232.693 188.028 234.637 193.498 236.912C194.884 237.453 195.543 235.354 194.29 234.677C189.02 232.178 183.485 230.314 177.797 229.124C176.082 228.447 175.224 230.749 176.742 231.088Z" fill="#1E1F21"/>
<path d="M60.0851 192.62C61.9242 198.805 67.1786 201.108 72.8927 203.476C84.8465 208.411 96.8659 214.004 109.214 217.951C109.543 218.041 109.895 218.006 110.199 217.851C110.504 217.696 110.741 217.434 110.864 217.114C110.986 216.795 110.986 216.441 110.863 216.122C110.741 215.802 110.504 215.54 110.199 215.385C102.383 211.569 94.1073 208.806 86.0944 205.319C78.0814 201.831 66.3904 199.858 62.7123 191.765C61.8585 190.317 59.3627 191.107 60.0851 192.62Z" fill="#1E1F21"/>
<path d="M102.024 183.08C91.8166 182.458 81.7175 185.483 73.4826 191.628C73.317 191.776 73.1843 191.958 73.0934 192.162C73.0026 192.366 72.9556 192.588 72.9556 192.812C72.9556 193.036 73.0026 193.257 73.0934 193.461C73.1843 193.665 73.317 193.847 73.4826 193.995C80.5417 199.38 88.854 202.823 97.6128 203.99C97.9187 204.029 98.2278 203.951 98.4794 203.77C98.731 203.59 98.9066 203.32 98.9718 203.015C99.0369 202.709 98.9868 202.39 98.8313 202.12C98.6758 201.851 98.4262 201.65 98.1318 201.557C90.1439 199.076 82.4448 195.725 75.1692 191.562V193.93C82.7485 188.094 92.0546 185.035 101.57 185.25C103.191 184.987 103.451 183.08 102.024 183.08Z" fill="#1E1F21"/>
<path d="M113.46 220.64C117.553 224.701 121.995 228.414 126.739 231.739C127.018 231.937 127.361 232.027 127.704 231.993C128.047 231.958 128.365 231.802 128.596 231.553C128.827 231.305 128.955 230.981 128.956 230.646C128.956 230.311 128.829 229.988 128.598 229.739C124.533 225.552 120.089 221.73 115.319 218.317C113.66 217.155 112.133 219.478 113.46 220.64Z" fill="#1E1F21"/>
<path d="M250.081 22.4344C249.721 27.7055 250.136 33.0066 251.308 38.1289C251.775 39.6918 253.528 38.9103 253.761 37.673C254.187 32.5334 253.912 27.3516 252.944 22.3042C252.768 20.4808 250.023 20.611 250.081 22.4344Z" fill="#1E1F21"/>
<path d="M280.462 1.06398C274.108 12.549 270.516 25.2786 269.956 38.2997C269.956 39.9215 272.498 40.8297 273.101 38.9485C275.041 32.9155 275.777 26.5582 277.517 20.3954C279.257 14.2327 281.533 8.26462 283.808 2.29652C284.678 0.0260492 281.466 -0.88214 280.462 1.06398Z" fill="#1E1F21"/>
<path d="M283.948 28.9779C282.327 33.0942 280.993 37.3133 279.956 41.606C279.956 43.1683 282.018 43.4938 282.617 42.1919C284.274 38.2399 285.696 34.1973 286.875 30.0845C287.474 28.1968 284.547 27.0902 283.948 28.9779Z" fill="#1E1F21"/>
<path d="M130.15 22.2705C135.495 31.636 142.573 39.9029 151.007 46.6316C152.647 47.9414 154.942 45.4529 153.499 43.9467C145.922 36.8472 139.068 29.0161 133.036 20.5678C131.79 19.1271 129.232 20.6988 130.15 22.2705Z" fill="#1E1F21"/>
<path d="M126.982 39.8348C127.899 42.6575 129.494 45.2309 131.637 47.3451C133.78 49.4592 136.41 51.0543 139.313 52C140.519 52 141.524 50.5117 140.586 49.7352C139.648 48.9587 136.431 46.9527 134.622 45.2056C132.694 43.3174 131.108 41.13 129.931 38.7347C129.733 38.4271 129.431 38.1957 129.075 38.0806C128.72 37.9655 128.334 37.9739 127.984 38.1044C127.635 38.2348 127.343 38.4791 127.16 38.7951C126.977 39.1111 126.914 39.4788 126.982 39.8348Z" fill="#1E1F21"/>
<path d="M158.959 26.6151C159.526 32.4384 162.316 37.8529 166.791 41.8137C167.051 41.9582 167.351 42.0211 167.65 41.9937C167.948 41.9664 168.231 41.85 168.458 41.661C168.685 41.4719 168.844 41.2195 168.915 40.9389C168.986 40.6583 168.964 40.3635 168.852 40.0956C167.684 37.8489 165.829 36.0647 164.661 33.4875C163.414 31.1586 162.534 28.6643 162.05 26.0865C161.94 25.7286 161.696 25.4225 161.366 25.2264C161.035 25.0304 160.641 24.9581 160.259 25.0235C159.877 25.0888 159.533 25.2872 159.293 25.5808C159.053 25.8743 158.934 26.2425 158.959 26.6151Z" fill="#1E1F21"/>
<path d="M196.971 9.66683C197.641 18.4748 198.791 27.2321 200.416 35.8924C200.416 37.2692 203.015 37.4659 202.955 35.8924C202.31 26.9115 201.18 17.9794 199.57 9.14231C199.328 7.30652 196.73 7.83104 196.971 9.66683Z" fill="#1E1F21"/>
<path d="M215.981 27.8915C215.981 29.8636 216.665 31.8357 217.076 33.8078C217.486 35.7799 220.087 35.0999 219.95 33.2638C219.813 31.4277 219.471 29.3195 219.197 27.2794C218.924 25.2393 215.638 25.7834 215.981 27.8915Z" fill="#1E1F21"/>
<path d="M9.64357 167.504C18.8424 170.971 28.4257 173.142 38.1506 173.962C38.3408 174.007 38.5374 174.012 38.7292 173.976C38.921 173.94 39.1043 173.864 39.2687 173.752C39.433 173.641 39.5751 173.496 39.6869 173.325C39.7987 173.155 39.878 172.963 39.9202 172.76C39.9625 172.557 39.9669 172.347 39.9332 172.142C39.8994 171.937 39.8283 171.742 39.7237 171.566C39.6191 171.391 39.4832 171.239 39.3237 171.12C39.1642 171 38.9843 170.916 38.7941 170.871C29.675 167.279 20.1572 164.97 10.4801 164C10.1301 164.07 9.80596 164.245 9.54606 164.505C9.28617 164.764 9.10134 165.098 9.01339 165.467C8.92544 165.835 8.93804 166.223 9.0497 166.584C9.16136 166.945 9.36743 167.264 9.64357 167.504Z" fill="#1E1F21"/>
<path d="M20.8219 156.752C25.3709 159.371 30.2481 161.455 35.3427 162.956C36.9341 163.329 37.4645 161.219 36.4036 160.412C31.9103 157.859 27.1294 155.779 22.148 154.208C20.1588 153.215 19.0979 156.069 20.8219 156.752Z" fill="#1E1F21"/>
<path d="M38.8907 116.052C45.9236 119.732 53.1603 123.021 60.5667 125.904C62.3624 126.536 63.9656 123.883 62.17 122.873C54.9719 119.209 47.563 115.961 39.9809 113.147C38.1211 112.326 37.095 115.168 38.8907 116.052Z" fill="#1E1F21"/>
<path d="M61.5415 112.128C64.1482 114.501 66.8903 116.718 69.7537 118.767C71.002 119.63 72.7101 117.904 71.5933 116.709C68.9741 114.075 66.2104 111.593 63.3154 109.273C61.7386 108.144 60.0305 110.8 61.5415 112.128Z" fill="#1E1F21"/>
<path d="M2.30726 210.936C12.4257 211.226 22.5485 210.526 32.5229 208.845C32.9029 208.845 33.2673 208.698 33.536 208.437C33.8046 208.175 33.9556 207.821 33.9556 207.451C33.9556 207.081 33.8046 206.727 33.536 206.465C33.2673 206.204 32.9029 206.057 32.5229 206.057C22.3778 205.779 12.2303 206.522 2.24214 208.275C0.483899 208.211 0.549019 210.936 2.30726 210.936Z" fill="#1E1F21"/>
<path d="M16.8416 226.975C21.8443 227.104 26.8473 226.731 31.7674 225.861C32.1035 225.794 32.4049 225.618 32.6212 225.365C32.8375 225.111 32.9556 224.795 32.9556 224.469C32.9556 224.143 32.8375 223.826 32.6212 223.573C32.4049 223.319 32.1035 223.144 31.7674 223.076C26.6246 222.852 21.4711 223.122 16.3854 223.881C14.1693 224.005 14.6907 227.099 16.8416 226.975Z" fill="#1E1F21"/>
<path d="M10.9312 249.974C21.4625 248.528 31.8812 246.403 42.117 243.613C43.7688 243.041 42.7116 240.878 41.258 241.005C30.8227 242.234 20.49 244.169 10.3366 246.794C9.8985 246.87 9.50969 247.11 9.25568 247.462C9.00167 247.814 8.90326 248.249 8.98212 248.67C9.06097 249.092 9.31063 249.467 9.67615 249.711C10.0417 249.956 10.4931 250.05 10.9312 249.974Z" fill="#1E1F21"/>
<path d="M44.9714 279.308C41.9418 281.115 39.08 283.175 36.4186 285.466C35.2738 286.579 36.4186 288.61 38.0349 287.824C41.317 286.183 44.4098 284.207 47.2611 281.929C49.1468 280.618 46.7897 278.129 44.9714 279.308Z" fill="#1E1F21"/>
<path d="M55.2882 294.403C50.3243 300.348 43.4657 304.504 35.8027 306.21C34.3396 306.664 34.9381 308.935 36.3347 309C40.7773 308.871 45.1069 307.604 48.8889 305.326C52.671 303.049 55.7724 299.841 57.8819 296.025C57.9871 295.699 57.9794 295.348 57.86 295.026C57.7405 294.705 57.5159 294.431 57.2208 294.246C56.9258 294.062 56.5766 293.977 56.2273 294.005C55.8781 294.034 55.548 294.173 55.2882 294.403Z" fill="#1E1F21"/>
<path d="M61.5247 311.284C54.9345 315.675 48.3444 319.936 42.4132 324.786C41.2929 325.638 42.4132 327.605 43.7972 326.818C50.3873 322.689 56.9775 317.969 63.5676 313.709C64.7538 312.332 62.9745 310.235 61.5247 311.284Z" fill="#1E1F21"/>
<path d="M84.9494 322.536C81.2447 326.126 77.54 329.65 73.9015 333.307C70.2942 336.398 67.0333 339.876 64.1767 343.679C63.449 344.743 64.6398 346.605 65.9629 345.807C69.7675 343.013 73.2708 339.826 76.4154 336.299C80.1201 332.708 83.7586 329.052 87.3971 325.395C89.051 323.666 86.6694 320.807 84.9494 322.536Z" fill="#1E1F21"/>
<path d="M89.1067 333.612C86.2123 337.38 83.5411 341.298 81.1053 345.346C80.3594 346.757 82.5971 347.59 83.4786 346.5C86.422 342.914 89.139 339.168 91.6157 335.279C92.904 333.74 90.1917 332.073 89.1067 333.612Z" fill="#1E1F21"/>
<path d="M99.345 342.597C94.1319 351.716 88.4044 360.537 82.1896 369.018C81.9949 369.29 81.9171 369.627 81.9735 369.955C82.0298 370.283 82.2156 370.576 82.49 370.768C82.7644 370.961 83.105 371.038 83.4367 370.982C83.7685 370.927 84.0642 370.743 84.259 370.471C91.387 362.563 97.3021 353.661 101.815 344.051C102.549 342.465 100.213 341.21 99.345 342.597Z" fill="#1E1F21"/>
<path d="M110.592 352.663L105.06 363.406C104.481 364.607 106.475 365.675 107.118 364.473L112.715 354.265C113.68 352.663 111.493 351.062 110.592 352.663Z" fill="#1E1F21"/>
<path d="M135.965 369.874C131.504 379.94 126.719 390.006 123.034 400.394C122.516 401.943 124.715 402.653 125.426 401.233C130.404 391.361 134.542 381.037 138.875 370.842C139.456 369.164 136.741 368.196 135.965 369.874Z" fill="#1E1F21"/>
<path d="M150.687 377.967C147.372 384.141 144.478 390.52 142.024 397.061C141.551 398.505 143.649 399.817 144.528 398.374C148.063 392.085 151.161 385.574 153.801 378.885C154.68 377.179 151.567 376.129 150.687 377.967Z" fill="#1E1F21"/>
<path d="M167.819 385.053C167.187 389.337 166.901 393.658 166.964 397.98C166.964 399.208 169.458 399.466 169.743 397.98C170.572 393.712 170.978 389.386 170.955 385.053C170.852 384.748 170.645 384.481 170.362 384.292C170.08 384.102 169.738 384 169.387 384C169.036 384 168.694 384.102 168.412 384.292C168.129 384.481 167.922 384.748 167.819 385.053Z" fill="#1E1F21"/>
<path d="M391.321 200.449C397.934 201.184 404.604 201.184 411.216 200.449C417.086 200.561 422.955 200.204 428.77 199.38C429.106 199.307 429.406 199.118 429.622 198.845C429.838 198.571 429.956 198.23 429.956 197.878C429.956 197.526 429.838 197.185 429.622 196.911C429.406 196.638 429.106 196.449 428.77 196.376C422.148 195.875 415.498 195.875 408.875 196.376C403.02 196.104 397.154 196.507 391.386 197.578C391.016 197.569 390.657 197.712 390.388 197.974C390.12 198.237 389.965 198.599 389.956 198.98C389.947 199.361 390.086 199.729 390.342 200.005C390.598 200.28 390.951 200.44 391.321 200.449Z" fill="#1E1F21"/>
<path d="M389.378 189.438C396.808 190.776 404.487 189.71 411.23 186.405C412.762 185.63 411.63 183.566 410.031 184.082C403.515 186.386 396.523 187.139 389.644 186.276C387.579 185.824 387.312 188.921 389.378 189.438Z" fill="#1E1F21"/>
<path d="M387.147 174.862C391.222 173.11 395.43 171.488 399.304 169.412C399.589 169.247 399.801 168.984 399.898 168.676C399.994 168.367 399.969 168.035 399.828 167.743C399.686 167.452 399.438 167.222 399.131 167.099C398.824 166.975 398.481 166.967 398.169 167.076C393.961 168.439 389.886 170.45 385.812 172.137C384.008 172.915 385.344 175.64 387.147 174.862Z" fill="#1E1F21"/>
<path d="M373.516 92.5693C367.376 99.6634 360.27 105.836 352.411 110.903C351.304 111.694 352.411 113.475 353.649 112.881C362.211 108.167 369.71 101.699 375.666 93.8883C376.708 92.7672 374.689 91.1185 373.516 92.5693Z" fill="#1E1F21"/>
<path d="M372.313 112.293C367.249 115.652 362.118 118.753 357.388 122.693C356.322 123.598 357.388 125.6 358.854 124.825C364.251 121.789 369.248 118.365 374.379 114.618C376.044 113.456 373.712 111.195 372.313 112.293Z" fill="#1E1F21"/>
<path d="M381.198 129.043C376.188 130.905 371.306 133.074 366.58 135.536C365.507 136.186 365.843 138.393 367.385 137.939C372.533 136.095 377.55 133.925 382.405 131.445C382.662 131.254 382.843 130.982 382.918 130.677C382.992 130.371 382.956 130.05 382.814 129.767C382.672 129.485 382.433 129.258 382.139 129.126C381.845 128.994 381.512 128.965 381.198 129.043Z" fill="#1E1F21"/>
<path d="M341.015 68.1502C337.531 69.8107 334.328 72.0079 331.523 74.6618C328.714 76.8989 326.485 79.78 325.022 83.0618C324.928 83.3655 324.934 83.691 325.038 83.9914C325.141 84.2917 325.337 84.5512 325.598 84.7325C325.859 84.9137 326.17 85.0072 326.487 84.9996C326.804 84.9919 327.111 84.8834 327.362 84.6897C329.833 82.606 331.458 79.5455 333.863 77.3316C336.403 74.8497 339.217 72.6651 342.25 70.82C343.745 69.8432 342.64 67.3688 341.015 68.1502Z" fill="#1E1F21"/>
<path d="M317.98 65.4493C317.606 67.7783 317.294 70.1073 316.982 72.4364C316.67 74.7654 319.228 74.2618 319.54 72.4364C319.852 70.6109 320.476 67.8412 320.913 65.5751C321.35 63.3091 318.292 63.6867 317.98 65.4493Z" fill="#1E1F21"/>
<path d="M352.643 308.024C363.493 317.211 375.305 325.206 387.873 331.872C389.195 332.531 390.649 330.488 389.592 329.434C378.831 320.18 367.109 312.097 354.626 305.323C354.448 305.193 354.246 305.1 354.032 305.048C353.818 304.996 353.595 304.986 353.377 305.02C353.16 305.053 352.951 305.129 352.762 305.244C352.574 305.358 352.41 305.508 352.28 305.685C352.149 305.863 352.055 306.064 352.003 306.277C351.951 306.491 351.942 306.712 351.975 306.93C352.009 307.147 352.085 307.355 352.2 307.543C352.315 307.731 352.465 307.894 352.643 308.024Z" fill="#1E1F21"/>
<path d="M356.599 295.788C362.519 299.609 368.696 302.974 375.08 305.856C375.387 306.018 375.743 306.044 376.069 305.93C376.395 305.816 376.665 305.571 376.819 305.248C376.972 304.926 376.998 304.552 376.889 304.21C376.78 303.868 376.547 303.585 376.239 303.424C370.353 299.562 364.221 296.131 357.887 293.153C356.47 292.342 355.118 294.978 356.599 295.788Z" fill="#1E1F21"/>
<path d="M372.012 280.618C374.323 280.499 376.633 280.884 378.771 281.745C380.91 282.606 382.824 283.921 384.373 285.594C385.409 286.602 387.609 285.594 386.768 284.083C385.216 281.556 382.912 279.547 380.162 278.321C377.412 277.096 374.345 276.71 371.365 277.217C369.1 277.532 369.747 280.807 372.012 280.618Z" fill="#1E1F21"/>
<path d="M378.959 245.936C391.908 250.42 405.108 254.115 418.489 257C420.07 257 420.531 254.854 419.082 254.318C406.233 249.743 393.119 245.981 379.815 243.053C378.168 242.583 377.048 245.399 378.959 245.936Z" fill="#1E1F21"/>
<path d="M382.393 238.325C389.093 238.973 395.679 240.522 401.981 242.931C403.508 243.405 404.769 241.305 403.309 240.357C397.037 236.734 389.931 234.886 382.725 235.005C380.6 234.938 380.268 238.189 382.393 238.325Z" fill="#1E1F21"/>
<path d="M386.508 229.118L393.672 230C395.285 230 395.479 227.859 393.672 227.544L386.508 226.032C384.636 225.654 384.249 228.74 386.508 229.118Z" fill="#1E1F21"/>
<path d="M274.05 369.306C277.433 381.06 281.941 392.444 287.51 403.292C288.208 404.526 290.24 404.071 289.922 402.512C286.823 390.543 282.57 378.919 277.225 367.811C276.145 366.122 273.415 367.291 274.05 369.306Z" fill="#1E1F21"/>
<path d="M263.178 373.069C266.767 380.203 269.188 387.919 270.34 395.896C270.34 397.335 272.893 397.4 272.956 395.896C272.865 387.309 270.375 378.939 265.794 371.827C264.797 370.126 262.182 371.303 263.178 373.069Z" fill="#1E1F21"/>
<path d="M241.245 381.405C240.799 384.015 240.869 386.697 241.451 389.277C242.033 391.857 243.115 394.276 244.625 396.379C244.807 396.682 245.094 396.894 245.423 396.97C245.751 397.045 246.095 396.978 246.377 396.782C246.659 396.586 246.857 396.278 246.927 395.925C246.998 395.573 246.935 395.204 246.752 394.902C244.654 390.805 243.759 386.124 244.186 381.472C244.437 379.659 241.495 379.39 241.245 381.405Z" fill="#1E1F21"/>
<path d="M212.63 385.199C210.289 389.567 208.404 394.176 207.005 398.95C206.626 400.507 208.522 401.869 209.533 400.313C212.096 395.896 214.214 391.223 215.853 386.366C216.548 384.096 213.515 382.993 212.63 385.199Z" fill="#1E1F21"/>
<path d="M312.138 356.581C317.437 361.774 323.4 366.241 329.873 369.868C331.334 370.532 332.596 368.539 331.6 367.343C326.4 362.177 320.55 357.711 314.197 354.057C313.865 353.971 313.515 353.983 313.19 354.089C312.864 354.196 312.576 354.394 312.359 354.66C312.143 354.925 312.007 355.248 311.967 355.588C311.928 355.929 311.987 356.273 312.138 356.581Z" fill="#1E1F21"/>
<path d="M325.467 340C327.286 340 327.611 337 325.467 337C323.324 337 323.584 340 325.467 340Z" fill="#1E1F21"/>
<path d="M326.289 346.085C328.754 346.952 330.897 348.542 332.434 350.646C333.972 352.75 334.832 355.268 334.901 357.869C334.901 359.275 337.39 359.476 337.659 357.869C338.389 354.464 337.758 350.91 335.899 347.96C334.04 345.01 331.1 342.897 327.702 342.068C325.212 341.466 323.732 345.014 326.289 346.085Z" fill="#1E1F21"/>
<path d="M300.958 368.733C301.105 370.897 301.491 373.038 302.11 375.115C302.248 375.423 302.484 375.675 302.781 375.831C303.078 375.986 303.417 376.037 303.746 375.973C304.074 375.91 304.372 375.737 304.591 375.482C304.81 375.226 304.939 374.904 304.956 374.566C304.957 372.412 304.683 370.267 304.142 368.184C304.03 367.797 303.782 367.464 303.444 367.25C303.106 367.036 302.702 366.956 302.309 367.023C301.916 367.091 301.561 367.303 301.312 367.618C301.063 367.933 300.937 368.33 300.958 368.733Z" fill="#1E1F21"/>
</g>
<defs>
<clipPath id="clip0">
<rect width="429" height="404" fill="white" transform="translate(0.955566)"/>
</clipPath>
</defs>
</svg>
