<svg width="75" height="37" viewBox="0 0 75 37" fill="none" xmlns="http://www.w3.org/2000/svg">
<mask id="path-1-inside-1" fill="white">
<path fill-rule="evenodd" clip-rule="evenodd" d="M39 37L75 18.5L39 0V8L0 8V29H39V37Z"/>
</mask>
<path d="M75 18.5L75.4571 19.3894L77.1879 18.5L75.4571 17.6106L75 18.5ZM39 37H38V38.6382L39.4571 37.8894L39 37ZM39 0L39.4571 -0.889431L38 -1.6382V0L39 0ZM39 8V9H40V8H39ZM0 8V7H-1V8H0ZM0 29H-1V30H0V29ZM39 29H40V28H39V29ZM74.5429 17.6106L38.5429 36.1106L39.4571 37.8894L75.4571 19.3894L74.5429 17.6106ZM38.5429 0.889431L74.5429 19.3894L75.4571 17.6106L39.4571 -0.889431L38.5429 0.889431ZM40 8V0L38 0V8H40ZM0 9L39 9V7L0 7V9ZM1 29V8H-1V29H1ZM39 28H0V30H39V28ZM40 37V29H38V37H40Z" fill="#1E1F21" mask="url(#path-1-inside-1)"/>
</svg>
